<?xml version="1.0" encoding="utf-8" standalone="no"?>
<!DOCTYPE svg PUBLIC "-//W3C//DTD SVG 1.1//EN"
  "http://www.w3.org/Graphics/SVG/1.1/DTD/svg11.dtd">
<!-- Created with matplotlib (http://matplotlib.org/) -->
<svg height="360pt" version="1.1" viewBox="0 0 720 360" width="720pt" xmlns="http://www.w3.org/2000/svg" xmlns:xlink="http://www.w3.org/1999/xlink">
 <defs>
  <style type="text/css">
*{stroke-linecap:butt;stroke-linejoin:round;}
  </style>
 </defs>
 <g id="figure_1">
  <g id="patch_1">
   <path d="M 0 360 
L 720 360 
L 720 0 
L 0 0 
z
" style="fill:#ffffff;"/>
  </g>
  <g id="axes_1">
   <g id="patch_2">
    <path d="M 46.64 318.04 
L 351.495 318.04 
L 351.495 14.76 
L 46.64 14.76 
z
" style="fill:#ffffff;"/>
   </g>
   <g id="matplotlib.axis_1">
    <g id="xtick_1">
     <g id="line2d_1">
      <path clip-path="url(#pff540e58f7)" d="M 88.211136 318.04 
L 88.211136 14.76 
" style="fill:none;stroke:#b0b0b0;stroke-linecap:square;stroke-width:0.8;"/>
     </g>
     <g id="line2d_2">
      <defs>
       <path d="M 0 0 
L 0 3.5 
" id="ma2f6223b36" style="stroke:#000000;stroke-width:0.8;"/>
      </defs>
      <g>
       <use style="stroke:#000000;stroke-width:0.8;" x="88.211136" xlink:href="#ma2f6223b36" y="318.04"/>
      </g>
     </g>
     <g id="text_1">
      <!-- −4 -->
      <defs>
       <path d="M 10.59375 35.5 
L 73.1875 35.5 
L 73.1875 27.203125 
L 10.59375 27.203125 
z
" id="DejaVuSans-2212"/>
       <path d="M 37.796875 64.3125 
L 12.890625 25.390625 
L 37.796875 25.390625 
z
M 35.203125 72.90625 
L 47.609375 72.90625 
L 47.609375 25.390625 
L 58.015625 25.390625 
L 58.015625 17.1875 
L 47.609375 17.1875 
L 47.609375 0 
L 37.796875 0 
L 37.796875 17.1875 
L 4.890625 17.1875 
L 4.890625 26.703125 
z
" id="DejaVuSans-34"/>
      </defs>
      <g transform="translate(80.840043 332.638438)scale(0.1 -0.1)">
       <use xlink:href="#DejaVuSans-2212"/>
       <use x="83.789062" xlink:href="#DejaVuSans-34"/>
      </g>
     </g>
    </g>
    <g id="xtick_2">
     <g id="line2d_3">
      <path clip-path="url(#pff540e58f7)" d="M 143.639318 318.04 
L 143.639318 14.76 
" style="fill:none;stroke:#b0b0b0;stroke-linecap:square;stroke-width:0.8;"/>
     </g>
     <g id="line2d_4">
      <g>
       <use style="stroke:#000000;stroke-width:0.8;" x="143.639318" xlink:href="#ma2f6223b36" y="318.04"/>
      </g>
     </g>
     <g id="text_2">
      <!-- −2 -->
      <defs>
       <path d="M 19.1875 8.296875 
L 53.609375 8.296875 
L 53.609375 0 
L 7.328125 0 
L 7.328125 8.296875 
Q 12.9375 14.109375 22.625 23.890625 
Q 32.328125 33.6875 34.8125 36.53125 
Q 39.546875 41.84375 41.421875 45.53125 
Q 43.3125 49.21875 43.3125 52.78125 
Q 43.3125 58.59375 39.234375 62.25 
Q 35.15625 65.921875 28.609375 65.921875 
Q 23.96875 65.921875 18.8125 64.3125 
Q 13.671875 62.703125 7.8125 59.421875 
L 7.8125 69.390625 
Q 13.765625 71.78125 18.9375 73 
Q 24.125 74.21875 28.421875 74.21875 
Q 39.75 74.21875 46.484375 68.546875 
Q 53.21875 62.890625 53.21875 53.421875 
Q 53.21875 48.921875 51.53125 44.890625 
Q 49.859375 40.875 45.40625 35.40625 
Q 44.1875 33.984375 37.640625 27.21875 
Q 31.109375 20.453125 19.1875 8.296875 
z
" id="DejaVuSans-32"/>
      </defs>
      <g transform="translate(136.268224 332.638438)scale(0.1 -0.1)">
       <use xlink:href="#DejaVuSans-2212"/>
       <use x="83.789062" xlink:href="#DejaVuSans-32"/>
      </g>
     </g>
    </g>
    <g id="xtick_3">
     <g id="line2d_5">
      <path clip-path="url(#pff540e58f7)" d="M 199.0675 318.04 
L 199.0675 14.76 
" style="fill:none;stroke:#b0b0b0;stroke-linecap:square;stroke-width:0.8;"/>
     </g>
     <g id="line2d_6">
      <g>
       <use style="stroke:#000000;stroke-width:0.8;" x="199.0675" xlink:href="#ma2f6223b36" y="318.04"/>
      </g>
     </g>
     <g id="text_3">
      <!-- 0 -->
      <defs>
       <path d="M 31.78125 66.40625 
Q 24.171875 66.40625 20.328125 58.90625 
Q 16.5 51.421875 16.5 36.375 
Q 16.5 21.390625 20.328125 13.890625 
Q 24.171875 6.390625 31.78125 6.390625 
Q 39.453125 6.390625 43.28125 13.890625 
Q 47.125 21.390625 47.125 36.375 
Q 47.125 51.421875 43.28125 58.90625 
Q 39.453125 66.40625 31.78125 66.40625 
z
M 31.78125 74.21875 
Q 44.046875 74.21875 50.515625 64.515625 
Q 56.984375 54.828125 56.984375 36.375 
Q 56.984375 17.96875 50.515625 8.265625 
Q 44.046875 -1.421875 31.78125 -1.421875 
Q 19.53125 -1.421875 13.0625 8.265625 
Q 6.59375 17.96875 6.59375 36.375 
Q 6.59375 54.828125 13.0625 64.515625 
Q 19.53125 74.21875 31.78125 74.21875 
z
" id="DejaVuSans-30"/>
      </defs>
      <g transform="translate(195.88625 332.638438)scale(0.1 -0.1)">
       <use xlink:href="#DejaVuSans-30"/>
      </g>
     </g>
    </g>
    <g id="xtick_4">
     <g id="line2d_7">
      <path clip-path="url(#pff540e58f7)" d="M 254.495682 318.04 
L 254.495682 14.76 
" style="fill:none;stroke:#b0b0b0;stroke-linecap:square;stroke-width:0.8;"/>
     </g>
     <g id="line2d_8">
      <g>
       <use style="stroke:#000000;stroke-width:0.8;" x="254.495682" xlink:href="#ma2f6223b36" y="318.04"/>
      </g>
     </g>
     <g id="text_4">
      <!-- 2 -->
      <g transform="translate(251.314432 332.638438)scale(0.1 -0.1)">
       <use xlink:href="#DejaVuSans-32"/>
      </g>
     </g>
    </g>
    <g id="xtick_5">
     <g id="line2d_9">
      <path clip-path="url(#pff540e58f7)" d="M 309.923864 318.04 
L 309.923864 14.76 
" style="fill:none;stroke:#b0b0b0;stroke-linecap:square;stroke-width:0.8;"/>
     </g>
     <g id="line2d_10">
      <g>
       <use style="stroke:#000000;stroke-width:0.8;" x="309.923864" xlink:href="#ma2f6223b36" y="318.04"/>
      </g>
     </g>
     <g id="text_5">
      <!-- 4 -->
      <g transform="translate(306.742614 332.638438)scale(0.1 -0.1)">
       <use xlink:href="#DejaVuSans-34"/>
      </g>
     </g>
    </g>
    <g id="text_6">
     <!-- input value -->
     <defs>
      <path d="M 9.421875 54.6875 
L 18.40625 54.6875 
L 18.40625 0 
L 9.421875 0 
z
M 9.421875 75.984375 
L 18.40625 75.984375 
L 18.40625 64.59375 
L 9.421875 64.59375 
z
" id="DejaVuSans-69"/>
      <path d="M 54.890625 33.015625 
L 54.890625 0 
L 45.90625 0 
L 45.90625 32.71875 
Q 45.90625 40.484375 42.875 44.328125 
Q 39.84375 48.1875 33.796875 48.1875 
Q 26.515625 48.1875 22.3125 43.546875 
Q 18.109375 38.921875 18.109375 30.90625 
L 18.109375 0 
L 9.078125 0 
L 9.078125 54.6875 
L 18.109375 54.6875 
L 18.109375 46.1875 
Q 21.34375 51.125 25.703125 53.5625 
Q 30.078125 56 35.796875 56 
Q 45.21875 56 50.046875 50.171875 
Q 54.890625 44.34375 54.890625 33.015625 
z
" id="DejaVuSans-6e"/>
      <path d="M 18.109375 8.203125 
L 18.109375 -20.796875 
L 9.078125 -20.796875 
L 9.078125 54.6875 
L 18.109375 54.6875 
L 18.109375 46.390625 
Q 20.953125 51.265625 25.265625 53.625 
Q 29.59375 56 35.59375 56 
Q 45.5625 56 51.78125 48.09375 
Q 58.015625 40.1875 58.015625 27.296875 
Q 58.015625 14.40625 51.78125 6.484375 
Q 45.5625 -1.421875 35.59375 -1.421875 
Q 29.59375 -1.421875 25.265625 0.953125 
Q 20.953125 3.328125 18.109375 8.203125 
z
M 48.6875 27.296875 
Q 48.6875 37.203125 44.609375 42.84375 
Q 40.53125 48.484375 33.40625 48.484375 
Q 26.265625 48.484375 22.1875 42.84375 
Q 18.109375 37.203125 18.109375 27.296875 
Q 18.109375 17.390625 22.1875 11.75 
Q 26.265625 6.109375 33.40625 6.109375 
Q 40.53125 6.109375 44.609375 11.75 
Q 48.6875 17.390625 48.6875 27.296875 
z
" id="DejaVuSans-70"/>
      <path d="M 8.5 21.578125 
L 8.5 54.6875 
L 17.484375 54.6875 
L 17.484375 21.921875 
Q 17.484375 14.15625 20.5 10.265625 
Q 23.53125 6.390625 29.59375 6.390625 
Q 36.859375 6.390625 41.078125 11.03125 
Q 45.3125 15.671875 45.3125 23.6875 
L 45.3125 54.6875 
L 54.296875 54.6875 
L 54.296875 0 
L 45.3125 0 
L 45.3125 8.40625 
Q 42.046875 3.421875 37.71875 1 
Q 33.40625 -1.421875 27.6875 -1.421875 
Q 18.265625 -1.421875 13.375 4.4375 
Q 8.5 10.296875 8.5 21.578125 
z
M 31.109375 56 
z
" id="DejaVuSans-75"/>
      <path d="M 18.3125 70.21875 
L 18.3125 54.6875 
L 36.8125 54.6875 
L 36.8125 47.703125 
L 18.3125 47.703125 
L 18.3125 18.015625 
Q 18.3125 11.328125 20.140625 9.421875 
Q 21.96875 7.515625 27.59375 7.515625 
L 36.8125 7.515625 
L 36.8125 0 
L 27.59375 0 
Q 17.1875 0 13.234375 3.875 
Q 9.28125 7.765625 9.28125 18.015625 
L 9.28125 47.703125 
L 2.6875 47.703125 
L 2.6875 54.6875 
L 9.28125 54.6875 
L 9.28125 70.21875 
z
" id="DejaVuSans-74"/>
      <path id="DejaVuSans-20"/>
      <path d="M 2.984375 54.6875 
L 12.5 54.6875 
L 29.59375 8.796875 
L 46.6875 54.6875 
L 56.203125 54.6875 
L 35.6875 0 
L 23.484375 0 
z
" id="DejaVuSans-76"/>
      <path d="M 34.28125 27.484375 
Q 23.390625 27.484375 19.1875 25 
Q 14.984375 22.515625 14.984375 16.5 
Q 14.984375 11.71875 18.140625 8.90625 
Q 21.296875 6.109375 26.703125 6.109375 
Q 34.1875 6.109375 38.703125 11.40625 
Q 43.21875 16.703125 43.21875 25.484375 
L 43.21875 27.484375 
z
M 52.203125 31.203125 
L 52.203125 0 
L 43.21875 0 
L 43.21875 8.296875 
Q 40.140625 3.328125 35.546875 0.953125 
Q 30.953125 -1.421875 24.3125 -1.421875 
Q 15.921875 -1.421875 10.953125 3.296875 
Q 6 8.015625 6 15.921875 
Q 6 25.140625 12.171875 29.828125 
Q 18.359375 34.515625 30.609375 34.515625 
L 43.21875 34.515625 
L 43.21875 35.40625 
Q 43.21875 41.609375 39.140625 45 
Q 35.0625 48.390625 27.6875 48.390625 
Q 23 48.390625 18.546875 47.265625 
Q 14.109375 46.140625 10.015625 43.890625 
L 10.015625 52.203125 
Q 14.9375 54.109375 19.578125 55.046875 
Q 24.21875 56 28.609375 56 
Q 40.484375 56 46.34375 49.84375 
Q 52.203125 43.703125 52.203125 31.203125 
z
" id="DejaVuSans-61"/>
      <path d="M 9.421875 75.984375 
L 18.40625 75.984375 
L 18.40625 0 
L 9.421875 0 
z
" id="DejaVuSans-6c"/>
      <path d="M 56.203125 29.59375 
L 56.203125 25.203125 
L 14.890625 25.203125 
Q 15.484375 15.921875 20.484375 11.0625 
Q 25.484375 6.203125 34.421875 6.203125 
Q 39.59375 6.203125 44.453125 7.46875 
Q 49.3125 8.734375 54.109375 11.28125 
L 54.109375 2.78125 
Q 49.265625 0.734375 44.1875 -0.34375 
Q 39.109375 -1.421875 33.890625 -1.421875 
Q 20.796875 -1.421875 13.15625 6.1875 
Q 5.515625 13.8125 5.515625 26.8125 
Q 5.515625 40.234375 12.765625 48.109375 
Q 20.015625 56 32.328125 56 
Q 43.359375 56 49.78125 48.890625 
Q 56.203125 41.796875 56.203125 29.59375 
z
M 47.21875 32.234375 
Q 47.125 39.59375 43.09375 43.984375 
Q 39.0625 48.390625 32.421875 48.390625 
Q 24.90625 48.390625 20.390625 44.140625 
Q 15.875 39.890625 15.1875 32.171875 
z
" id="DejaVuSans-65"/>
     </defs>
     <g transform="translate(170.959688 346.316563)scale(0.1 -0.1)">
      <use xlink:href="#DejaVuSans-69"/>
      <use x="27.783203" xlink:href="#DejaVuSans-6e"/>
      <use x="91.162109" xlink:href="#DejaVuSans-70"/>
      <use x="154.638672" xlink:href="#DejaVuSans-75"/>
      <use x="218.017578" xlink:href="#DejaVuSans-74"/>
      <use x="257.226562" xlink:href="#DejaVuSans-20"/>
      <use x="289.013672" xlink:href="#DejaVuSans-76"/>
      <use x="348.193359" xlink:href="#DejaVuSans-61"/>
      <use x="409.472656" xlink:href="#DejaVuSans-6c"/>
      <use x="437.255859" xlink:href="#DejaVuSans-75"/>
      <use x="500.634766" xlink:href="#DejaVuSans-65"/>
     </g>
    </g>
   </g>
   <g id="matplotlib.axis_2">
    <g id="ytick_1">
     <g id="line2d_11">
      <path clip-path="url(#pff540e58f7)" d="M 46.64 318.04 
L 351.495 318.04 
" style="fill:none;stroke:#b0b0b0;stroke-linecap:square;stroke-width:0.8;"/>
     </g>
     <g id="line2d_12">
      <defs>
       <path d="M 0 0 
L -3.5 0 
" id="mb730f55053" style="stroke:#000000;stroke-width:0.8;"/>
      </defs>
      <g>
       <use style="stroke:#000000;stroke-width:0.8;" x="46.64" xlink:href="#mb730f55053" y="318.04"/>
      </g>
     </g>
     <g id="text_7">
      <!-- −1 -->
      <defs>
       <path d="M 12.40625 8.296875 
L 28.515625 8.296875 
L 28.515625 63.921875 
L 10.984375 60.40625 
L 10.984375 69.390625 
L 28.421875 72.90625 
L 38.28125 72.90625 
L 38.28125 8.296875 
L 54.390625 8.296875 
L 54.390625 0 
L 12.40625 0 
z
" id="DejaVuSans-31"/>
      </defs>
      <g transform="translate(24.897813 321.839219)scale(0.1 -0.1)">
       <use xlink:href="#DejaVuSans-2212"/>
       <use x="83.789062" xlink:href="#DejaVuSans-31"/>
      </g>
     </g>
    </g>
    <g id="ytick_2">
     <g id="line2d_13">
      <path clip-path="url(#pff540e58f7)" d="M 46.64 267.493333 
L 351.495 267.493333 
" style="fill:none;stroke:#b0b0b0;stroke-linecap:square;stroke-width:0.8;"/>
     </g>
     <g id="line2d_14">
      <g>
       <use style="stroke:#000000;stroke-width:0.8;" x="46.64" xlink:href="#mb730f55053" y="267.493333"/>
      </g>
     </g>
     <g id="text_8">
      <!-- 0 -->
      <g transform="translate(33.2775 271.292552)scale(0.1 -0.1)">
       <use xlink:href="#DejaVuSans-30"/>
      </g>
     </g>
    </g>
    <g id="ytick_3">
     <g id="line2d_15">
      <path clip-path="url(#pff540e58f7)" d="M 46.64 216.946667 
L 351.495 216.946667 
" style="fill:none;stroke:#b0b0b0;stroke-linecap:square;stroke-width:0.8;"/>
     </g>
     <g id="line2d_16">
      <g>
       <use style="stroke:#000000;stroke-width:0.8;" x="46.64" xlink:href="#mb730f55053" y="216.946667"/>
      </g>
     </g>
     <g id="text_9">
      <!-- 1 -->
      <g transform="translate(33.2775 220.745885)scale(0.1 -0.1)">
       <use xlink:href="#DejaVuSans-31"/>
      </g>
     </g>
    </g>
    <g id="ytick_4">
     <g id="line2d_17">
      <path clip-path="url(#pff540e58f7)" d="M 46.64 166.4 
L 351.495 166.4 
" style="fill:none;stroke:#b0b0b0;stroke-linecap:square;stroke-width:0.8;"/>
     </g>
     <g id="line2d_18">
      <g>
       <use style="stroke:#000000;stroke-width:0.8;" x="46.64" xlink:href="#mb730f55053" y="166.4"/>
      </g>
     </g>
     <g id="text_10">
      <!-- 2 -->
      <g transform="translate(33.2775 170.199219)scale(0.1 -0.1)">
       <use xlink:href="#DejaVuSans-32"/>
      </g>
     </g>
    </g>
    <g id="ytick_5">
     <g id="line2d_19">
      <path clip-path="url(#pff540e58f7)" d="M 46.64 115.853333 
L 351.495 115.853333 
" style="fill:none;stroke:#b0b0b0;stroke-linecap:square;stroke-width:0.8;"/>
     </g>
     <g id="line2d_20">
      <g>
       <use style="stroke:#000000;stroke-width:0.8;" x="46.64" xlink:href="#mb730f55053" y="115.853333"/>
      </g>
     </g>
     <g id="text_11">
      <!-- 3 -->
      <defs>
       <path d="M 40.578125 39.3125 
Q 47.65625 37.796875 51.625 33 
Q 55.609375 28.21875 55.609375 21.1875 
Q 55.609375 10.40625 48.1875 4.484375 
Q 40.765625 -1.421875 27.09375 -1.421875 
Q 22.515625 -1.421875 17.65625 -0.515625 
Q 12.796875 0.390625 7.625 2.203125 
L 7.625 11.71875 
Q 11.71875 9.328125 16.59375 8.109375 
Q 21.484375 6.890625 26.8125 6.890625 
Q 36.078125 6.890625 40.9375 10.546875 
Q 45.796875 14.203125 45.796875 21.1875 
Q 45.796875 27.640625 41.28125 31.265625 
Q 36.765625 34.90625 28.71875 34.90625 
L 20.21875 34.90625 
L 20.21875 43.015625 
L 29.109375 43.015625 
Q 36.375 43.015625 40.234375 45.921875 
Q 44.09375 48.828125 44.09375 54.296875 
Q 44.09375 59.90625 40.109375 62.90625 
Q 36.140625 65.921875 28.71875 65.921875 
Q 24.65625 65.921875 20.015625 65.03125 
Q 15.375 64.15625 9.8125 62.3125 
L 9.8125 71.09375 
Q 15.4375 72.65625 20.34375 73.4375 
Q 25.25 74.21875 29.59375 74.21875 
Q 40.828125 74.21875 47.359375 69.109375 
Q 53.90625 64.015625 53.90625 55.328125 
Q 53.90625 49.265625 50.4375 45.09375 
Q 46.96875 40.921875 40.578125 39.3125 
z
" id="DejaVuSans-33"/>
      </defs>
      <g transform="translate(33.2775 119.652552)scale(0.1 -0.1)">
       <use xlink:href="#DejaVuSans-33"/>
      </g>
     </g>
    </g>
    <g id="ytick_6">
     <g id="line2d_21">
      <path clip-path="url(#pff540e58f7)" d="M 46.64 65.306667 
L 351.495 65.306667 
" style="fill:none;stroke:#b0b0b0;stroke-linecap:square;stroke-width:0.8;"/>
     </g>
     <g id="line2d_22">
      <g>
       <use style="stroke:#000000;stroke-width:0.8;" x="46.64" xlink:href="#mb730f55053" y="65.306667"/>
      </g>
     </g>
     <g id="text_12">
      <!-- 4 -->
      <g transform="translate(33.2775 69.105885)scale(0.1 -0.1)">
       <use xlink:href="#DejaVuSans-34"/>
      </g>
     </g>
    </g>
    <g id="ytick_7">
     <g id="line2d_23">
      <path clip-path="url(#pff540e58f7)" d="M 46.64 14.76 
L 351.495 14.76 
" style="fill:none;stroke:#b0b0b0;stroke-linecap:square;stroke-width:0.8;"/>
     </g>
     <g id="line2d_24">
      <g>
       <use style="stroke:#000000;stroke-width:0.8;" x="46.64" xlink:href="#mb730f55053" y="14.76"/>
      </g>
     </g>
     <g id="text_13">
      <!-- 5 -->
      <defs>
       <path d="M 10.796875 72.90625 
L 49.515625 72.90625 
L 49.515625 64.59375 
L 19.828125 64.59375 
L 19.828125 46.734375 
Q 21.96875 47.46875 24.109375 47.828125 
Q 26.265625 48.1875 28.421875 48.1875 
Q 40.625 48.1875 47.75 41.5 
Q 54.890625 34.8125 54.890625 23.390625 
Q 54.890625 11.625 47.5625 5.09375 
Q 40.234375 -1.421875 26.90625 -1.421875 
Q 22.3125 -1.421875 17.546875 -0.640625 
Q 12.796875 0.140625 7.71875 1.703125 
L 7.71875 11.625 
Q 12.109375 9.234375 16.796875 8.0625 
Q 21.484375 6.890625 26.703125 6.890625 
Q 35.15625 6.890625 40.078125 11.328125 
Q 45.015625 15.765625 45.015625 23.390625 
Q 45.015625 31 40.078125 35.4375 
Q 35.15625 39.890625 26.703125 39.890625 
Q 22.75 39.890625 18.8125 39.015625 
Q 14.890625 38.140625 10.796875 36.28125 
z
" id="DejaVuSans-35"/>
      </defs>
      <g transform="translate(33.2775 18.559219)scale(0.1 -0.1)">
       <use xlink:href="#DejaVuSans-35"/>
      </g>
     </g>
    </g>
    <g id="text_14">
     <!-- f(x) -->
     <defs>
      <path d="M 37.109375 75.984375 
L 37.109375 68.5 
L 28.515625 68.5 
Q 23.6875 68.5 21.796875 66.546875 
Q 19.921875 64.59375 19.921875 59.515625 
L 19.921875 54.6875 
L 34.71875 54.6875 
L 34.71875 47.703125 
L 19.921875 47.703125 
L 19.921875 0 
L 10.890625 0 
L 10.890625 47.703125 
L 2.296875 47.703125 
L 2.296875 54.6875 
L 10.890625 54.6875 
L 10.890625 58.5 
Q 10.890625 67.625 15.140625 71.796875 
Q 19.390625 75.984375 28.609375 75.984375 
z
" id="DejaVuSans-66"/>
      <path d="M 31 75.875 
Q 24.46875 64.65625 21.28125 53.65625 
Q 18.109375 42.671875 18.109375 31.390625 
Q 18.109375 20.125 21.3125 9.0625 
Q 24.515625 -2 31 -13.1875 
L 23.1875 -13.1875 
Q 15.875 -1.703125 12.234375 9.375 
Q 8.59375 20.453125 8.59375 31.390625 
Q 8.59375 42.28125 12.203125 53.3125 
Q 15.828125 64.359375 23.1875 75.875 
z
" id="DejaVuSans-28"/>
      <path d="M 54.890625 54.6875 
L 35.109375 28.078125 
L 55.90625 0 
L 45.3125 0 
L 29.390625 21.484375 
L 13.484375 0 
L 2.875 0 
L 24.125 28.609375 
L 4.6875 54.6875 
L 15.28125 54.6875 
L 29.78125 35.203125 
L 44.28125 54.6875 
z
" id="DejaVuSans-78"/>
      <path d="M 8.015625 75.875 
L 15.828125 75.875 
Q 23.140625 64.359375 26.78125 53.3125 
Q 30.421875 42.28125 30.421875 31.390625 
Q 30.421875 20.453125 26.78125 9.375 
Q 23.140625 -1.703125 15.828125 -13.1875 
L 8.015625 -13.1875 
Q 14.5 -2 17.703125 9.0625 
Q 20.90625 20.125 20.90625 31.390625 
Q 20.90625 42.671875 17.703125 53.65625 
Q 14.5 64.65625 8.015625 75.875 
z
" id="DejaVuSans-29"/>
     </defs>
     <g transform="translate(18.818125 175.021094)rotate(-90)scale(0.1 -0.1)">
      <use xlink:href="#DejaVuSans-66"/>
      <use x="35.205078" xlink:href="#DejaVuSans-28"/>
      <use x="74.21875" xlink:href="#DejaVuSans-78"/>
      <use x="133.398438" xlink:href="#DejaVuSans-29"/>
     </g>
    </g>
   </g>
   <g id="line2d_25">
    <path clip-path="url(#pff540e58f7)" d="M 60.497045 267.493333 
L 63.296449 267.493333 
L 66.095852 267.493333 
L 68.895255 267.493333 
L 71.694658 267.493333 
L 74.494061 267.493333 
L 77.293464 267.493333 
L 80.092867 267.493333 
L 82.89227 267.493333 
L 85.691674 267.493333 
L 88.491077 267.493333 
L 91.29048 267.493333 
L 94.089883 267.493333 
L 96.889286 267.493333 
L 99.688689 267.493333 
L 102.488092 267.493333 
L 105.287495 267.493333 
L 108.086899 267.493333 
L 110.886302 267.493333 
L 113.685705 267.493333 
L 116.485108 267.493333 
L 119.284511 267.493333 
L 122.083914 267.493333 
L 124.883317 267.493333 
L 127.68272 267.493333 
L 130.482124 267.493333 
L 133.281527 267.493333 
L 136.08093 267.493333 
L 138.880333 267.493333 
L 141.679736 267.493333 
L 144.479139 267.493333 
L 147.278542 267.493333 
L 150.077945 267.493333 
L 152.877348 267.493333 
L 155.676752 267.493333 
L 158.476155 267.493333 
L 161.275558 267.493333 
L 164.074961 267.493333 
L 166.874364 267.493333 
L 169.673767 267.493333 
L 172.47317 267.493333 
L 175.272573 267.493333 
L 178.071977 267.493333 
L 180.87138 267.493333 
L 183.670783 267.493333 
L 186.470186 267.493333 
L 189.269589 267.493333 
L 192.068992 267.493333 
L 194.868395 267.493333 
L 197.667798 267.493333 
L 200.467202 216.946667 
L 203.266605 216.946667 
L 206.066008 216.946667 
L 208.865411 216.946667 
L 211.664814 216.946667 
L 214.464217 216.946667 
L 217.26362 216.946667 
L 220.063023 216.946667 
L 222.862427 216.946667 
L 225.66183 216.946667 
L 228.461233 216.946667 
L 231.260636 216.946667 
L 234.060039 216.946667 
L 236.859442 216.946667 
L 239.658845 216.946667 
L 242.458248 216.946667 
L 245.257652 216.946667 
L 248.057055 216.946667 
L 250.856458 216.946667 
L 253.655861 216.946667 
L 256.455264 216.946667 
L 259.254667 216.946667 
L 262.05407 216.946667 
L 264.853473 216.946667 
L 267.652876 216.946667 
L 270.45228 216.946667 
L 273.251683 216.946667 
L 276.051086 216.946667 
L 278.850489 216.946667 
L 281.649892 216.946667 
L 284.449295 216.946667 
L 287.248698 216.946667 
L 290.048101 216.946667 
L 292.847505 216.946667 
L 295.646908 216.946667 
L 298.446311 216.946667 
L 301.245714 216.946667 
L 304.045117 216.946667 
L 306.84452 216.946667 
L 309.643923 216.946667 
L 312.443326 216.946667 
L 315.24273 216.946667 
L 318.042133 216.946667 
L 320.841536 216.946667 
L 323.640939 216.946667 
L 326.440342 216.946667 
L 329.239745 216.946667 
L 332.039148 216.946667 
L 334.838551 216.946667 
L 337.637955 216.946667 
" style="fill:none;stroke:#1f77b4;stroke-linecap:square;stroke-width:1.5;"/>
   </g>
   <g id="line2d_26">
    <path clip-path="url(#pff540e58f7)" d="M 60.497045 318.04 
L 63.296449 318.04 
L 66.095852 318.04 
L 68.895255 318.04 
L 71.694658 318.04 
L 74.494061 318.04 
L 77.293464 318.04 
L 80.092867 318.04 
L 82.89227 318.04 
L 85.691674 318.04 
L 88.491077 318.04 
L 91.29048 318.04 
L 94.089883 318.04 
L 96.889286 318.04 
L 99.688689 318.04 
L 102.488092 318.04 
L 105.287495 318.04 
L 108.086899 318.04 
L 110.886302 318.04 
L 113.685705 318.04 
L 116.485108 318.04 
L 119.284511 318.04 
L 122.083914 318.04 
L 124.883317 318.04 
L 127.68272 318.04 
L 130.482124 318.04 
L 133.281527 318.04 
L 136.08093 318.04 
L 138.880333 318.04 
L 141.679736 318.04 
L 144.479139 318.04 
L 147.278542 318.04 
L 150.077945 318.04 
L 152.877348 318.04 
L 155.676752 318.04 
L 158.476155 318.04 
L 161.275558 318.04 
L 164.074961 318.04 
L 166.874364 318.04 
L 169.673767 318.04 
L 172.47317 318.04 
L 175.272573 318.04 
L 178.071977 318.04 
L 180.87138 318.04 
L 183.670783 318.04 
L 186.470186 318.04 
L 189.269589 318.04 
L 192.068992 318.04 
L 194.868395 318.04 
L 197.667798 318.04 
L 200.467202 216.946667 
L 203.266605 216.946667 
L 206.066008 216.946667 
L 208.865411 216.946667 
L 211.664814 216.946667 
L 214.464217 216.946667 
L 217.26362 216.946667 
L 220.063023 216.946667 
L 222.862427 216.946667 
L 225.66183 216.946667 
L 228.461233 216.946667 
L 231.260636 216.946667 
L 234.060039 216.946667 
L 236.859442 216.946667 
L 239.658845 216.946667 
L 242.458248 216.946667 
L 245.257652 216.946667 
L 248.057055 216.946667 
L 250.856458 216.946667 
L 253.655861 216.946667 
L 256.455264 216.946667 
L 259.254667 216.946667 
L 262.05407 216.946667 
L 264.853473 216.946667 
L 267.652876 216.946667 
L 270.45228 216.946667 
L 273.251683 216.946667 
L 276.051086 216.946667 
L 278.850489 216.946667 
L 281.649892 216.946667 
L 284.449295 216.946667 
L 287.248698 216.946667 
L 290.048101 216.946667 
L 292.847505 216.946667 
L 295.646908 216.946667 
L 298.446311 216.946667 
L 301.245714 216.946667 
L 304.045117 216.946667 
L 306.84452 216.946667 
L 309.643923 216.946667 
L 312.443326 216.946667 
L 315.24273 216.946667 
L 318.042133 216.946667 
L 320.841536 216.946667 
L 323.640939 216.946667 
L 326.440342 216.946667 
L 329.239745 216.946667 
L 332.039148 216.946667 
L 334.838551 216.946667 
L 337.637955 216.946667 
" style="fill:none;stroke:#ff7f0e;stroke-linecap:square;stroke-width:1.5;"/>
   </g>
   <g id="line2d_27">
    <path clip-path="url(#pff540e58f7)" d="M 60.497045 267.155032 
L 63.296449 267.119341 
L 66.095852 267.079915 
L 68.895255 267.036371 
L 71.694658 266.988287 
L 74.494061 266.935199 
L 77.293464 266.8766 
L 80.092867 266.811933 
L 82.89227 266.740586 
L 85.691674 266.661895 
L 88.491077 266.575128 
L 91.29048 266.479492 
L 94.089883 266.374119 
L 96.889286 266.258067 
L 99.688689 266.130314 
L 102.488092 265.989751 
L 105.287495 265.835181 
L 108.086899 265.665313 
L 110.886302 265.478761 
L 113.685705 265.274037 
L 116.485108 265.049558 
L 119.284511 264.803635 
L 122.083914 264.534488 
L 124.883317 264.240239 
L 127.68272 263.918925 
L 130.482124 263.568509 
L 133.281527 263.186889 
L 136.08093 262.771921 
L 138.880333 262.321439 
L 141.679736 261.833284 
L 144.479139 261.305338 
L 147.278542 260.735561 
L 150.077945 260.122038 
L 152.877348 259.46303 
L 155.676752 258.757026 
L 158.476155 258.002808 
L 161.275558 257.199508 
L 164.074961 256.346675 
L 166.874364 255.444335 
L 169.673767 254.493051 
L 172.47317 253.493974 
L 175.272573 252.448882 
L 178.071977 251.360211 
L 180.87138 250.231065 
L 183.670783 249.06521 
L 186.470186 247.867044 
L 189.269589 246.641551 
L 192.068992 245.394227 
L 194.868395 244.130992 
L 197.667798 242.85808 
L 200.467202 241.58192 
L 203.266605 240.309008 
L 206.066008 239.045773 
L 208.865411 237.798449 
L 211.664814 236.572956 
L 214.464217 235.37479 
L 217.26362 234.208935 
L 220.063023 233.079789 
L 222.862427 231.991118 
L 225.66183 230.946026 
L 228.461233 229.946949 
L 231.260636 228.995665 
L 234.060039 228.093325 
L 236.859442 227.240492 
L 239.658845 226.437192 
L 242.458248 225.682974 
L 245.257652 224.97697 
L 248.057055 224.317962 
L 250.856458 223.704439 
L 253.655861 223.134662 
L 256.455264 222.606716 
L 259.254667 222.118561 
L 262.05407 221.668079 
L 264.853473 221.253111 
L 267.652876 220.871491 
L 270.45228 220.521075 
L 273.251683 220.199761 
L 276.051086 219.905512 
L 278.850489 219.636365 
L 281.649892 219.390442 
L 284.449295 219.165963 
L 287.248698 218.961239 
L 290.048101 218.774687 
L 292.847505 218.604819 
L 295.646908 218.450249 
L 298.446311 218.309686 
L 301.245714 218.181933 
L 304.045117 218.065881 
L 306.84452 217.960508 
L 309.643923 217.864872 
L 312.443326 217.778105 
L 315.24273 217.699414 
L 318.042133 217.628067 
L 320.841536 217.5634 
L 323.640939 217.504801 
L 326.440342 217.451713 
L 329.239745 217.403629 
L 332.039148 217.360085 
L 334.838551 217.320659 
L 337.637955 217.284968 
" style="fill:none;stroke:#2ca02c;stroke-linecap:square;stroke-width:1.5;"/>
   </g>
   <g id="line2d_28">
    <path clip-path="url(#pff540e58f7)" d="M 60.497045 318.035411 
L 63.296449 318.034383 
L 66.095852 318.033126 
L 68.895255 318.031587 
L 71.694658 318.029704 
L 74.494061 318.027399 
L 77.293464 318.024578 
L 80.092867 318.021127 
L 82.89227 318.016902 
L 85.691674 318.011733 
L 88.491077 318.005407 
L 91.29048 317.997665 
L 94.089883 317.988193 
L 96.889286 317.976602 
L 99.688689 317.96242 
L 102.488092 317.945068 
L 105.287495 317.923839 
L 108.086899 317.897871 
L 110.886302 317.866107 
L 113.685705 317.827259 
L 116.485108 317.779754 
L 119.284511 317.721676 
L 122.083914 317.650686 
L 124.883317 317.56394 
L 127.68272 317.457977 
L 130.482124 317.328595 
L 133.281527 317.1707 
L 136.08093 316.978131 
L 138.880333 316.743457 
L 141.679736 316.457739 
L 144.479139 316.110276 
L 147.278542 315.688313 
L 150.077945 315.176745 
L 152.877348 314.55782 
L 155.676752 313.810868 
L 158.476155 312.912105 
L 161.275558 311.834577 
L 164.074961 310.548303 
L 166.874364 309.02075 
L 169.673767 307.217742 
L 172.47317 305.104936 
L 175.272573 302.649973 
L 178.071977 299.825348 
L 180.87138 296.61192 
L 183.670783 293.002841 
L 186.470186 289.00742 
L 189.269589 284.654288 
L 192.068992 279.993067 
L 194.868395 275.093847 
L 197.667798 270.044027 
L 200.467202 264.94264 
L 203.266605 259.89282 
L 206.066008 254.993599 
L 208.865411 250.332379 
L 211.664814 245.979247 
L 214.464217 241.983826 
L 217.26362 238.374747 
L 220.063023 235.161319 
L 222.862427 232.336693 
L 225.66183 229.881731 
L 228.461233 227.768925 
L 231.260636 225.965917 
L 234.060039 224.438364 
L 236.859442 223.15209 
L 239.658845 222.074561 
L 242.458248 221.175799 
L 245.257652 220.428846 
L 248.057055 219.809921 
L 250.856458 219.298354 
L 253.655861 218.876391 
L 256.455264 218.528928 
L 259.254667 218.24321 
L 262.05407 218.008535 
L 264.853473 217.815967 
L 267.652876 217.658072 
L 270.45228 217.52869 
L 273.251683 217.422727 
L 276.051086 217.33598 
L 278.850489 217.264991 
L 281.649892 217.206912 
L 284.449295 217.159408 
L 287.248698 217.12056 
L 290.048101 217.088796 
L 292.847505 217.062827 
L 295.646908 217.041599 
L 298.446311 217.024247 
L 301.245714 217.010065 
L 304.045117 216.998474 
L 306.84452 216.989001 
L 309.643923 216.98126 
L 312.443326 216.974934 
L 315.24273 216.969764 
L 318.042133 216.96554 
L 320.841536 216.962088 
L 323.640939 216.959268 
L 326.440342 216.956963 
L 329.239745 216.95508 
L 332.039148 216.953541 
L 334.838551 216.952283 
L 337.637955 216.951256 
" style="fill:none;stroke:#d62728;stroke-linecap:square;stroke-width:1.5;"/>
   </g>
   <g id="line2d_29">
    <path clip-path="url(#pff540e58f7)" d="M 60.497045 267.493333 
L 63.296449 267.493333 
L 66.095852 267.493333 
L 68.895255 267.493333 
L 71.694658 267.493333 
L 74.494061 267.493333 
L 77.293464 267.493333 
L 80.092867 267.493333 
L 82.89227 267.493333 
L 85.691674 267.493333 
L 88.491077 267.493333 
L 91.29048 267.493333 
L 94.089883 267.493333 
L 96.889286 267.493333 
L 99.688689 267.493333 
L 102.488092 267.493333 
L 105.287495 267.493333 
L 108.086899 267.493333 
L 110.886302 267.493333 
L 113.685705 267.493333 
L 116.485108 267.493333 
L 119.284511 267.493333 
L 122.083914 267.493333 
L 124.883317 267.493333 
L 127.68272 267.493333 
L 130.482124 267.493333 
L 133.281527 267.493333 
L 136.08093 267.493333 
L 138.880333 267.493333 
L 141.679736 267.493333 
L 144.479139 267.493333 
L 147.278542 267.493333 
L 150.077945 267.493333 
L 152.877348 267.493333 
L 155.676752 267.493333 
L 158.476155 267.493333 
L 161.275558 267.493333 
L 164.074961 267.493333 
L 166.874364 267.493333 
L 169.673767 267.493333 
L 172.47317 267.493333 
L 175.272573 267.493333 
L 178.071977 267.493333 
L 180.87138 267.493333 
L 183.670783 267.493333 
L 186.470186 267.493333 
L 189.269589 267.493333 
L 192.068992 267.493333 
L 194.868395 267.493333 
L 197.667798 267.493333 
L 200.467202 264.940471 
L 203.266605 259.834747 
L 206.066008 254.729024 
L 208.865411 249.6233 
L 211.664814 244.517576 
L 214.464217 239.411852 
L 217.26362 234.306128 
L 220.063023 229.200404 
L 222.862427 224.09468 
L 225.66183 218.988956 
L 228.461233 213.883232 
L 231.260636 208.777508 
L 234.060039 203.671785 
L 236.859442 198.566061 
L 239.658845 193.460337 
L 242.458248 188.354613 
L 245.257652 183.248889 
L 248.057055 178.143165 
L 250.856458 173.037441 
L 253.655861 167.931717 
L 256.455264 162.825993 
L 259.254667 157.720269 
L 262.05407 152.614545 
L 264.853473 147.508822 
L 267.652876 142.403098 
L 270.45228 137.297374 
L 273.251683 132.19165 
L 276.051086 127.085926 
L 278.850489 121.980202 
L 281.649892 116.874478 
L 284.449295 111.768754 
L 287.248698 106.66303 
L 290.048101 101.557306 
L 292.847505 96.451582 
L 295.646908 91.345859 
L 298.446311 86.240135 
L 301.245714 81.134411 
L 304.045117 76.028687 
L 306.84452 70.922963 
L 309.643923 65.817239 
L 312.443326 60.711515 
L 315.24273 55.605791 
L 318.042133 50.500067 
L 320.841536 45.394343 
L 323.640939 40.28862 
L 326.440342 35.182896 
L 329.239745 30.077172 
L 332.039148 24.971448 
L 334.838551 19.865724 
L 337.637955 14.76 
" style="fill:none;stroke:#9467bd;stroke-linecap:square;stroke-width:1.5;"/>
   </g>
   <g id="line2d_30">
    <path clip-path="url(#pff540e58f7)" d="M 60.497045 280.13 
L 63.296449 279.874714 
L 66.095852 279.619428 
L 68.895255 279.364141 
L 71.694658 279.108855 
L 74.494061 278.853569 
L 77.293464 278.598283 
L 80.092867 278.342997 
L 82.89227 278.08771 
L 85.691674 277.832424 
L 88.491077 277.577138 
L 91.29048 277.321852 
L 94.089883 277.066566 
L 96.889286 276.811279 
L 99.688689 276.555993 
L 102.488092 276.300707 
L 105.287495 276.045421 
L 108.086899 275.790135 
L 110.886302 275.534848 
L 113.685705 275.279562 
L 116.485108 275.024276 
L 119.284511 274.76899 
L 122.083914 274.513704 
L 124.883317 274.258418 
L 127.68272 274.003131 
L 130.482124 273.747845 
L 133.281527 273.492559 
L 136.08093 273.237273 
L 138.880333 272.981987 
L 141.679736 272.7267 
L 144.479139 272.471414 
L 147.278542 272.216128 
L 150.077945 271.960842 
L 152.877348 271.705556 
L 155.676752 271.450269 
L 158.476155 271.194983 
L 161.275558 270.939697 
L 164.074961 270.684411 
L 166.874364 270.429125 
L 169.673767 270.173838 
L 172.47317 269.918552 
L 175.272573 269.663266 
L 178.071977 269.40798 
L 180.87138 269.152694 
L 183.670783 268.897407 
L 186.470186 268.642121 
L 189.269589 268.386835 
L 192.068992 268.131549 
L 194.868395 267.876263 
L 197.667798 267.620976 
L 200.467202 264.940471 
L 203.266605 259.834747 
L 206.066008 254.729024 
L 208.865411 249.6233 
L 211.664814 244.517576 
L 214.464217 239.411852 
L 217.26362 234.306128 
L 220.063023 229.200404 
L 222.862427 224.09468 
L 225.66183 218.988956 
L 228.461233 213.883232 
L 231.260636 208.777508 
L 234.060039 203.671785 
L 236.859442 198.566061 
L 239.658845 193.460337 
L 242.458248 188.354613 
L 245.257652 183.248889 
L 248.057055 178.143165 
L 250.856458 173.037441 
L 253.655861 167.931717 
L 256.455264 162.825993 
L 259.254667 157.720269 
L 262.05407 152.614545 
L 264.853473 147.508822 
L 267.652876 142.403098 
L 270.45228 137.297374 
L 273.251683 132.19165 
L 276.051086 127.085926 
L 278.850489 121.980202 
L 281.649892 116.874478 
L 284.449295 111.768754 
L 287.248698 106.66303 
L 290.048101 101.557306 
L 292.847505 96.451582 
L 295.646908 91.345859 
L 298.446311 86.240135 
L 301.245714 81.134411 
L 304.045117 76.028687 
L 306.84452 70.922963 
L 309.643923 65.817239 
L 312.443326 60.711515 
L 315.24273 55.605791 
L 318.042133 50.500067 
L 320.841536 45.394343 
L 323.640939 40.28862 
L 326.440342 35.182896 
L 329.239745 30.077172 
L 332.039148 24.971448 
L 334.838551 19.865724 
L 337.637955 14.76 
" style="fill:none;stroke:#8c564b;stroke-dasharray:5.55,2.4;stroke-dashoffset:0;stroke-width:1.5;"/>
   </g>
   <g id="patch_3">
    <path d="M 46.64 318.04 
L 46.64 14.76 
" style="fill:none;stroke:#000000;stroke-linecap:square;stroke-linejoin:miter;stroke-width:0.8;"/>
   </g>
   <g id="patch_4">
    <path d="M 351.495 318.04 
L 351.495 14.76 
" style="fill:none;stroke:#000000;stroke-linecap:square;stroke-linejoin:miter;stroke-width:0.8;"/>
   </g>
   <g id="patch_5">
    <path d="M 46.64 318.04 
L 351.495 318.04 
" style="fill:none;stroke:#000000;stroke-linecap:square;stroke-linejoin:miter;stroke-width:0.8;"/>
   </g>
   <g id="patch_6">
    <path d="M 46.64 14.76 
L 351.495 14.76 
" style="fill:none;stroke:#000000;stroke-linecap:square;stroke-linejoin:miter;stroke-width:0.8;"/>
   </g>
   <g id="legend_1">
    <g id="patch_7">
     <path d="M 53.64 110.82875 
L 159.14 110.82875 
Q 161.14 110.82875 161.14 108.82875 
L 161.14 21.76 
Q 161.14 19.76 159.14 19.76 
L 53.64 19.76 
Q 51.64 19.76 51.64 21.76 
L 51.64 108.82875 
Q 51.64 110.82875 53.64 110.82875 
z
" style="fill:#ffffff;opacity:0.8;stroke:#cccccc;stroke-linejoin:miter;"/>
    </g>
    <g id="line2d_31">
     <path d="M 55.64 27.858437 
L 75.64 27.858437 
" style="fill:none;stroke:#1f77b4;stroke-linecap:square;stroke-width:1.5;"/>
    </g>
    <g id="line2d_32"/>
    <g id="text_15">
     <!-- step(x) -->
     <defs>
      <path d="M 44.28125 53.078125 
L 44.28125 44.578125 
Q 40.484375 46.53125 36.375 47.5 
Q 32.28125 48.484375 27.875 48.484375 
Q 21.1875 48.484375 17.84375 46.4375 
Q 14.5 44.390625 14.5 40.28125 
Q 14.5 37.15625 16.890625 35.375 
Q 19.28125 33.59375 26.515625 31.984375 
L 29.59375 31.296875 
Q 39.15625 29.25 43.1875 25.515625 
Q 47.21875 21.78125 47.21875 15.09375 
Q 47.21875 7.46875 41.1875 3.015625 
Q 35.15625 -1.421875 24.609375 -1.421875 
Q 20.21875 -1.421875 15.453125 -0.5625 
Q 10.6875 0.296875 5.421875 2 
L 5.421875 11.28125 
Q 10.40625 8.6875 15.234375 7.390625 
Q 20.0625 6.109375 24.8125 6.109375 
Q 31.15625 6.109375 34.5625 8.28125 
Q 37.984375 10.453125 37.984375 14.40625 
Q 37.984375 18.0625 35.515625 20.015625 
Q 33.0625 21.96875 24.703125 23.78125 
L 21.578125 24.515625 
Q 13.234375 26.265625 9.515625 29.90625 
Q 5.8125 33.546875 5.8125 39.890625 
Q 5.8125 47.609375 11.28125 51.796875 
Q 16.75 56 26.8125 56 
Q 31.78125 56 36.171875 55.265625 
Q 40.578125 54.546875 44.28125 53.078125 
z
" id="DejaVuSans-73"/>
     </defs>
     <g transform="translate(83.64 31.358437)scale(0.1 -0.1)">
      <use xlink:href="#DejaVuSans-73"/>
      <use x="52.099609" xlink:href="#DejaVuSans-74"/>
      <use x="91.308594" xlink:href="#DejaVuSans-65"/>
      <use x="152.832031" xlink:href="#DejaVuSans-70"/>
      <use x="216.308594" xlink:href="#DejaVuSans-28"/>
      <use x="255.322266" xlink:href="#DejaVuSans-78"/>
      <use x="314.501953" xlink:href="#DejaVuSans-29"/>
     </g>
    </g>
    <g id="line2d_33">
     <path d="M 55.64 42.536563 
L 75.64 42.536563 
" style="fill:none;stroke:#ff7f0e;stroke-linecap:square;stroke-width:1.5;"/>
    </g>
    <g id="line2d_34"/>
    <g id="text_16">
     <!-- sign(x) -->
     <defs>
      <path d="M 45.40625 27.984375 
Q 45.40625 37.75 41.375 43.109375 
Q 37.359375 48.484375 30.078125 48.484375 
Q 22.859375 48.484375 18.828125 43.109375 
Q 14.796875 37.75 14.796875 27.984375 
Q 14.796875 18.265625 18.828125 12.890625 
Q 22.859375 7.515625 30.078125 7.515625 
Q 37.359375 7.515625 41.375 12.890625 
Q 45.40625 18.265625 45.40625 27.984375 
z
M 54.390625 6.78125 
Q 54.390625 -7.171875 48.1875 -13.984375 
Q 42 -20.796875 29.203125 -20.796875 
Q 24.46875 -20.796875 20.265625 -20.09375 
Q 16.0625 -19.390625 12.109375 -17.921875 
L 12.109375 -9.1875 
Q 16.0625 -11.328125 19.921875 -12.34375 
Q 23.78125 -13.375 27.78125 -13.375 
Q 36.625 -13.375 41.015625 -8.765625 
Q 45.40625 -4.15625 45.40625 5.171875 
L 45.40625 9.625 
Q 42.625 4.78125 38.28125 2.390625 
Q 33.9375 0 27.875 0 
Q 17.828125 0 11.671875 7.65625 
Q 5.515625 15.328125 5.515625 27.984375 
Q 5.515625 40.671875 11.671875 48.328125 
Q 17.828125 56 27.875 56 
Q 33.9375 56 38.28125 53.609375 
Q 42.625 51.21875 45.40625 46.390625 
L 45.40625 54.6875 
L 54.390625 54.6875 
z
" id="DejaVuSans-67"/>
     </defs>
     <g transform="translate(83.64 46.036563)scale(0.1 -0.1)">
      <use xlink:href="#DejaVuSans-73"/>
      <use x="52.099609" xlink:href="#DejaVuSans-69"/>
      <use x="79.882812" xlink:href="#DejaVuSans-67"/>
      <use x="143.359375" xlink:href="#DejaVuSans-6e"/>
      <use x="206.738281" xlink:href="#DejaVuSans-28"/>
      <use x="245.751953" xlink:href="#DejaVuSans-78"/>
      <use x="304.931641" xlink:href="#DejaVuSans-29"/>
     </g>
    </g>
    <g id="line2d_35">
     <path d="M 55.64 57.214687 
L 75.64 57.214687 
" style="fill:none;stroke:#2ca02c;stroke-linecap:square;stroke-width:1.5;"/>
    </g>
    <g id="line2d_36"/>
    <g id="text_17">
     <!-- $\sigma$(x) -->
     <defs>
      <path d="M 34.671875 47.5625 
Q 27.25 47.5625 22.21875 42.1875 
Q 16.890625 36.578125 15.140625 27.296875 
Q 13.1875 17.484375 16.3125 11.8125 
Q 19.390625 6.203125 26.65625 6.203125 
Q 33.84375 6.203125 39.109375 11.859375 
Q 44.4375 17.53125 46.34375 27.296875 
Q 48.046875 36.234375 45.015625 42.1875 
Q 42.1875 47.5625 34.671875 47.5625 
z
M 36.078125 54.734375 
L 65.921875 54.6875 
L 64.15625 45.703125 
L 54.109375 45.703125 
Q 57.90625 38.09375 55.859375 27.296875 
Q 53.21875 13.875 45.0625 6.25 
Q 36.859375 -1.421875 25.140625 -1.421875 
Q 13.375 -1.421875 8.203125 6.25 
Q 3.03125 13.875 5.671875 27.296875 
Q 8.25 40.765625 16.40625 48.390625 
Q 23.1875 54.734375 36.078125 54.734375 
z
" id="DejaVuSans-Oblique-3c3"/>
     </defs>
     <g transform="translate(83.64 60.714687)scale(0.1 -0.1)">
      <use transform="translate(0 0.125)" xlink:href="#DejaVuSans-Oblique-3c3"/>
      <use transform="translate(63.378906 0.125)" xlink:href="#DejaVuSans-28"/>
      <use transform="translate(102.392578 0.125)" xlink:href="#DejaVuSans-78"/>
      <use transform="translate(161.572266 0.125)" xlink:href="#DejaVuSans-29"/>
     </g>
    </g>
    <g id="line2d_37">
     <path d="M 55.64 71.892812 
L 75.64 71.892812 
" style="fill:none;stroke:#d62728;stroke-linecap:square;stroke-width:1.5;"/>
    </g>
    <g id="line2d_38"/>
    <g id="text_18">
     <!-- tanh(x) -->
     <defs>
      <path d="M 54.890625 33.015625 
L 54.890625 0 
L 45.90625 0 
L 45.90625 32.71875 
Q 45.90625 40.484375 42.875 44.328125 
Q 39.84375 48.1875 33.796875 48.1875 
Q 26.515625 48.1875 22.3125 43.546875 
Q 18.109375 38.921875 18.109375 30.90625 
L 18.109375 0 
L 9.078125 0 
L 9.078125 75.984375 
L 18.109375 75.984375 
L 18.109375 46.1875 
Q 21.34375 51.125 25.703125 53.5625 
Q 30.078125 56 35.796875 56 
Q 45.21875 56 50.046875 50.171875 
Q 54.890625 44.34375 54.890625 33.015625 
z
" id="DejaVuSans-68"/>
     </defs>
     <g transform="translate(83.64 75.392812)scale(0.1 -0.1)">
      <use xlink:href="#DejaVuSans-74"/>
      <use x="39.208984" xlink:href="#DejaVuSans-61"/>
      <use x="100.488281" xlink:href="#DejaVuSans-6e"/>
      <use x="163.867188" xlink:href="#DejaVuSans-68"/>
      <use x="227.246094" xlink:href="#DejaVuSans-28"/>
      <use x="266.259766" xlink:href="#DejaVuSans-78"/>
      <use x="325.439453" xlink:href="#DejaVuSans-29"/>
     </g>
    </g>
    <g id="line2d_39">
     <path d="M 55.64 86.570938 
L 75.64 86.570938 
" style="fill:none;stroke:#9467bd;stroke-linecap:square;stroke-width:1.5;"/>
    </g>
    <g id="line2d_40"/>
    <g id="text_19">
     <!-- ReLu(x) -->
     <defs>
      <path d="M 44.390625 34.1875 
Q 47.5625 33.109375 50.5625 29.59375 
Q 53.5625 26.078125 56.59375 19.921875 
L 66.609375 0 
L 56 0 
L 46.6875 18.703125 
Q 43.0625 26.03125 39.671875 28.421875 
Q 36.28125 30.8125 30.421875 30.8125 
L 19.671875 30.8125 
L 19.671875 0 
L 9.8125 0 
L 9.8125 72.90625 
L 32.078125 72.90625 
Q 44.578125 72.90625 50.734375 67.671875 
Q 56.890625 62.453125 56.890625 51.90625 
Q 56.890625 45.015625 53.6875 40.46875 
Q 50.484375 35.9375 44.390625 34.1875 
z
M 19.671875 64.796875 
L 19.671875 38.921875 
L 32.078125 38.921875 
Q 39.203125 38.921875 42.84375 42.21875 
Q 46.484375 45.515625 46.484375 51.90625 
Q 46.484375 58.296875 42.84375 61.546875 
Q 39.203125 64.796875 32.078125 64.796875 
z
" id="DejaVuSans-52"/>
      <path d="M 9.8125 72.90625 
L 19.671875 72.90625 
L 19.671875 8.296875 
L 55.171875 8.296875 
L 55.171875 0 
L 9.8125 0 
z
" id="DejaVuSans-4c"/>
     </defs>
     <g transform="translate(83.64 90.070938)scale(0.1 -0.1)">
      <use xlink:href="#DejaVuSans-52"/>
      <use x="69.419922" xlink:href="#DejaVuSans-65"/>
      <use x="130.943359" xlink:href="#DejaVuSans-4c"/>
      <use x="186.640625" xlink:href="#DejaVuSans-75"/>
      <use x="250.019531" xlink:href="#DejaVuSans-28"/>
      <use x="289.033203" xlink:href="#DejaVuSans-78"/>
      <use x="348.212891" xlink:href="#DejaVuSans-29"/>
     </g>
    </g>
    <g id="line2d_41">
     <path d="M 55.64 101.249062 
L 75.64 101.249062 
" style="fill:none;stroke:#8c564b;stroke-linecap:square;stroke-width:1.5;"/>
    </g>
    <g id="line2d_42"/>
    <g id="text_20">
     <!-- $\mathrm{LReLu}_{\alpha=0.05}$(x) -->
     <defs>
      <path d="M 40.921875 25.4375 
L 40.96875 36.71875 
Q 41.015625 48.25 32.328125 48.296875 
Q 25.828125 48.34375 21.78125 42.921875 
Q 16.703125 36.234375 14.984375 27.296875 
Q 12.890625 16.546875 15.53125 11.421875 
Q 18.265625 6.203125 24.171875 6.203125 
Q 30.71875 6.203125 36.234375 16.609375 
z
M 33.84375 55.90625 
Q 49.078125 56.15625 48.875 40.375 
Q 48.875 40.375 56.5 54.6875 
L 64.5 54.6875 
L 48.734375 25.046875 
L 48.578125 14.359375 
Q 48.578125 11.96875 49.90625 9.96875 
Q 51.421875 7.625 52.984375 7.625 
L 57.328125 7.625 
L 55.859375 0 
L 50.4375 0 
Q 45.84375 0 42.53125 4.109375 
Q 40.96875 6.15625 40.921875 10.453125 
Q 37.75 5.21875 32.28125 0.78125 
Q 29.6875 -1.265625 22.703125 -1.21875 
Q 11.28125 -1.125 7.125 6.203125 
Q 2.875 13.8125 5.515625 27.296875 
Q 8.34375 41.796875 15.765625 48.390625 
Q 24.125 55.765625 33.84375 55.90625 
z
" id="DejaVuSans-Oblique-3b1"/>
      <path d="M 10.59375 45.40625 
L 73.1875 45.40625 
L 73.1875 37.203125 
L 10.59375 37.203125 
z
M 10.59375 25.484375 
L 73.1875 25.484375 
L 73.1875 17.1875 
L 10.59375 17.1875 
z
" id="DejaVuSans-3d"/>
      <path d="M 10.6875 12.40625 
L 21 12.40625 
L 21 0 
L 10.6875 0 
z
" id="DejaVuSans-2e"/>
     </defs>
     <g transform="translate(83.64 104.749062)scale(0.1 -0.1)">
      <use transform="translate(0 0.125)" xlink:href="#DejaVuSans-4c"/>
      <use transform="translate(55.712891 0.125)" xlink:href="#DejaVuSans-52"/>
      <use transform="translate(125.195312 0.125)" xlink:href="#DejaVuSans-65"/>
      <use transform="translate(186.71875 0.125)" xlink:href="#DejaVuSans-4c"/>
      <use transform="translate(242.431641 0.125)" xlink:href="#DejaVuSans-75"/>
      <use transform="translate(306.767578 -16.28125)scale(0.7)" xlink:href="#DejaVuSans-Oblique-3b1"/>
      <use transform="translate(366.547852 -16.28125)scale(0.7)" xlink:href="#DejaVuSans-3d"/>
      <use transform="translate(438.837891 -16.28125)scale(0.7)" xlink:href="#DejaVuSans-30"/>
      <use transform="translate(483.374023 -16.28125)scale(0.7)" xlink:href="#DejaVuSans-2e"/>
      <use transform="translate(505.625 -16.28125)scale(0.7)" xlink:href="#DejaVuSans-30"/>
      <use transform="translate(550.161133 -16.28125)scale(0.7)" xlink:href="#DejaVuSans-35"/>
      <use transform="translate(597.431641 0.125)" xlink:href="#DejaVuSans-28"/>
      <use transform="translate(636.445312 0.125)" xlink:href="#DejaVuSans-78"/>
      <use transform="translate(695.625 0.125)" xlink:href="#DejaVuSans-29"/>
     </g>
    </g>
   </g>
  </g>
  <g id="axes_2">
   <g id="patch_8">
    <path d="M 401.825 318.04 
L 706.68 318.04 
L 706.68 14.76 
L 401.825 14.76 
z
" style="fill:#ffffff;"/>
   </g>
   <g id="matplotlib.axis_3">
    <g id="xtick_6">
     <g id="line2d_43">
      <path clip-path="url(#pa331125551)" d="M 443.678933 318.04 
L 443.678933 14.76 
" style="fill:none;stroke:#b0b0b0;stroke-linecap:square;stroke-width:0.8;"/>
     </g>
     <g id="line2d_44">
      <g>
       <use style="stroke:#000000;stroke-width:0.8;" x="443.678933" xlink:href="#ma2f6223b36" y="318.04"/>
      </g>
     </g>
     <g id="text_21">
      <!-- −4 -->
      <g transform="translate(436.307839 332.638438)scale(0.1 -0.1)">
       <use xlink:href="#DejaVuSans-2212"/>
       <use x="83.789062" xlink:href="#DejaVuSans-34"/>
      </g>
     </g>
    </g>
    <g id="xtick_7">
     <g id="line2d_45">
      <path clip-path="url(#pa331125551)" d="M 499.672709 318.04 
L 499.672709 14.76 
" style="fill:none;stroke:#b0b0b0;stroke-linecap:square;stroke-width:0.8;"/>
     </g>
     <g id="line2d_46">
      <g>
       <use style="stroke:#000000;stroke-width:0.8;" x="499.672709" xlink:href="#ma2f6223b36" y="318.04"/>
      </g>
     </g>
     <g id="text_22">
      <!-- −2 -->
      <g transform="translate(492.301615 332.638438)scale(0.1 -0.1)">
       <use xlink:href="#DejaVuSans-2212"/>
       <use x="83.789062" xlink:href="#DejaVuSans-32"/>
      </g>
     </g>
    </g>
    <g id="xtick_8">
     <g id="line2d_47">
      <path clip-path="url(#pa331125551)" d="M 555.666484 318.04 
L 555.666484 14.76 
" style="fill:none;stroke:#b0b0b0;stroke-linecap:square;stroke-width:0.8;"/>
     </g>
     <g id="line2d_48">
      <g>
       <use style="stroke:#000000;stroke-width:0.8;" x="555.666484" xlink:href="#ma2f6223b36" y="318.04"/>
      </g>
     </g>
     <g id="text_23">
      <!-- 0 -->
      <g transform="translate(552.485234 332.638438)scale(0.1 -0.1)">
       <use xlink:href="#DejaVuSans-30"/>
      </g>
     </g>
    </g>
    <g id="xtick_9">
     <g id="line2d_49">
      <path clip-path="url(#pa331125551)" d="M 611.66026 318.04 
L 611.66026 14.76 
" style="fill:none;stroke:#b0b0b0;stroke-linecap:square;stroke-width:0.8;"/>
     </g>
     <g id="line2d_50">
      <g>
       <use style="stroke:#000000;stroke-width:0.8;" x="611.66026" xlink:href="#ma2f6223b36" y="318.04"/>
      </g>
     </g>
     <g id="text_24">
      <!-- 2 -->
      <g transform="translate(608.47901 332.638438)scale(0.1 -0.1)">
       <use xlink:href="#DejaVuSans-32"/>
      </g>
     </g>
    </g>
    <g id="xtick_10">
     <g id="line2d_51">
      <path clip-path="url(#pa331125551)" d="M 667.654035 318.04 
L 667.654035 14.76 
" style="fill:none;stroke:#b0b0b0;stroke-linecap:square;stroke-width:0.8;"/>
     </g>
     <g id="line2d_52">
      <g>
       <use style="stroke:#000000;stroke-width:0.8;" x="667.654035" xlink:href="#ma2f6223b36" y="318.04"/>
      </g>
     </g>
     <g id="text_25">
      <!-- 4 -->
      <g transform="translate(664.472785 332.638438)scale(0.1 -0.1)">
       <use xlink:href="#DejaVuSans-34"/>
      </g>
     </g>
    </g>
    <g id="text_26">
     <!-- input value -->
     <g transform="translate(526.144688 346.316563)scale(0.1 -0.1)">
      <use xlink:href="#DejaVuSans-69"/>
      <use x="27.783203" xlink:href="#DejaVuSans-6e"/>
      <use x="91.162109" xlink:href="#DejaVuSans-70"/>
      <use x="154.638672" xlink:href="#DejaVuSans-75"/>
      <use x="218.017578" xlink:href="#DejaVuSans-74"/>
      <use x="257.226562" xlink:href="#DejaVuSans-20"/>
      <use x="289.013672" xlink:href="#DejaVuSans-76"/>
      <use x="348.193359" xlink:href="#DejaVuSans-61"/>
      <use x="409.472656" xlink:href="#DejaVuSans-6c"/>
      <use x="437.255859" xlink:href="#DejaVuSans-75"/>
      <use x="500.634766" xlink:href="#DejaVuSans-65"/>
     </g>
    </g>
   </g>
   <g id="matplotlib.axis_4">
    <g id="ytick_8">
     <g id="line2d_53">
      <path clip-path="url(#pa331125551)" d="M 401.825 267.493333 
L 706.68 267.493333 
" style="fill:none;stroke:#b0b0b0;stroke-linecap:square;stroke-width:0.8;"/>
     </g>
     <g id="line2d_54">
      <g>
       <use style="stroke:#000000;stroke-width:0.8;" x="401.825" xlink:href="#mb730f55053" y="267.493333"/>
      </g>
     </g>
     <g id="text_27">
      <!-- 0.0 -->
      <g transform="translate(378.921875 271.292552)scale(0.1 -0.1)">
       <use xlink:href="#DejaVuSans-30"/>
       <use x="63.623047" xlink:href="#DejaVuSans-2e"/>
       <use x="95.410156" xlink:href="#DejaVuSans-30"/>
      </g>
     </g>
    </g>
    <g id="ytick_9">
     <g id="line2d_55">
      <path clip-path="url(#pa331125551)" d="M 401.825 204.31 
L 706.68 204.31 
" style="fill:none;stroke:#b0b0b0;stroke-linecap:square;stroke-width:0.8;"/>
     </g>
     <g id="line2d_56">
      <g>
       <use style="stroke:#000000;stroke-width:0.8;" x="401.825" xlink:href="#mb730f55053" y="204.31"/>
      </g>
     </g>
     <g id="text_28">
      <!-- 0.5 -->
      <g transform="translate(378.921875 208.109219)scale(0.1 -0.1)">
       <use xlink:href="#DejaVuSans-30"/>
       <use x="63.623047" xlink:href="#DejaVuSans-2e"/>
       <use x="95.410156" xlink:href="#DejaVuSans-35"/>
      </g>
     </g>
    </g>
    <g id="ytick_10">
     <g id="line2d_57">
      <path clip-path="url(#pa331125551)" d="M 401.825 141.126667 
L 706.68 141.126667 
" style="fill:none;stroke:#b0b0b0;stroke-linecap:square;stroke-width:0.8;"/>
     </g>
     <g id="line2d_58">
      <g>
       <use style="stroke:#000000;stroke-width:0.8;" x="401.825" xlink:href="#mb730f55053" y="141.126667"/>
      </g>
     </g>
     <g id="text_29">
      <!-- 1.0 -->
      <g transform="translate(378.921875 144.925885)scale(0.1 -0.1)">
       <use xlink:href="#DejaVuSans-31"/>
       <use x="63.623047" xlink:href="#DejaVuSans-2e"/>
       <use x="95.410156" xlink:href="#DejaVuSans-30"/>
      </g>
     </g>
    </g>
    <g id="ytick_11">
     <g id="line2d_59">
      <path clip-path="url(#pa331125551)" d="M 401.825 77.943333 
L 706.68 77.943333 
" style="fill:none;stroke:#b0b0b0;stroke-linecap:square;stroke-width:0.8;"/>
     </g>
     <g id="line2d_60">
      <g>
       <use style="stroke:#000000;stroke-width:0.8;" x="401.825" xlink:href="#mb730f55053" y="77.943333"/>
      </g>
     </g>
     <g id="text_30">
      <!-- 1.5 -->
      <g transform="translate(378.921875 81.742552)scale(0.1 -0.1)">
       <use xlink:href="#DejaVuSans-31"/>
       <use x="63.623047" xlink:href="#DejaVuSans-2e"/>
       <use x="95.410156" xlink:href="#DejaVuSans-35"/>
      </g>
     </g>
    </g>
    <g id="ytick_12">
     <g id="line2d_61">
      <path clip-path="url(#pa331125551)" d="M 401.825 14.76 
L 706.68 14.76 
" style="fill:none;stroke:#b0b0b0;stroke-linecap:square;stroke-width:0.8;"/>
     </g>
     <g id="line2d_62">
      <g>
       <use style="stroke:#000000;stroke-width:0.8;" x="401.825" xlink:href="#mb730f55053" y="14.76"/>
      </g>
     </g>
     <g id="text_31">
      <!-- 2.0 -->
      <g transform="translate(378.921875 18.559219)scale(0.1 -0.1)">
       <use xlink:href="#DejaVuSans-32"/>
       <use x="63.623047" xlink:href="#DejaVuSans-2e"/>
       <use x="95.410156" xlink:href="#DejaVuSans-30"/>
      </g>
     </g>
    </g>
    <g id="text_32">
     <!-- df/dx -->
     <defs>
      <path d="M 45.40625 46.390625 
L 45.40625 75.984375 
L 54.390625 75.984375 
L 54.390625 0 
L 45.40625 0 
L 45.40625 8.203125 
Q 42.578125 3.328125 38.25 0.953125 
Q 33.9375 -1.421875 27.875 -1.421875 
Q 17.96875 -1.421875 11.734375 6.484375 
Q 5.515625 14.40625 5.515625 27.296875 
Q 5.515625 40.1875 11.734375 48.09375 
Q 17.96875 56 27.875 56 
Q 33.9375 56 38.25 53.625 
Q 42.578125 51.265625 45.40625 46.390625 
z
M 14.796875 27.296875 
Q 14.796875 17.390625 18.875 11.75 
Q 22.953125 6.109375 30.078125 6.109375 
Q 37.203125 6.109375 41.296875 11.75 
Q 45.40625 17.390625 45.40625 27.296875 
Q 45.40625 37.203125 41.296875 42.84375 
Q 37.203125 48.484375 30.078125 48.484375 
Q 22.953125 48.484375 18.875 42.84375 
Q 14.796875 37.203125 14.796875 27.296875 
z
" id="DejaVuSans-64"/>
      <path d="M 25.390625 72.90625 
L 33.6875 72.90625 
L 8.296875 -9.28125 
L 0 -9.28125 
z
" id="DejaVuSans-2f"/>
     </defs>
     <g transform="translate(372.842188 179.152344)rotate(-90)scale(0.1 -0.1)">
      <use xlink:href="#DejaVuSans-64"/>
      <use x="63.476562" xlink:href="#DejaVuSans-66"/>
      <use x="98.681641" xlink:href="#DejaVuSans-2f"/>
      <use x="132.373047" xlink:href="#DejaVuSans-64"/>
      <use x="195.849609" xlink:href="#DejaVuSans-78"/>
     </g>
    </g>
   </g>
   <g id="line2d_63">
    <path clip-path="url(#pa331125551)" d="M 415.682045 267.493333 
L 418.510014 267.493333 
L 421.337982 267.493333 
L 424.165951 267.493333 
L 426.993919 267.493333 
L 429.821888 267.493333 
L 432.649856 267.493333 
L 435.477825 267.493333 
L 438.305793 267.493333 
L 441.133762 267.493333 
L 443.96173 267.493333 
L 446.789699 267.493333 
L 449.617667 267.493333 
L 452.445635 267.493333 
L 455.273604 267.493333 
L 458.101572 267.493333 
L 460.929541 267.493333 
L 463.757509 267.493333 
L 466.585478 267.493333 
L 469.413446 267.493333 
L 472.241415 267.493333 
L 475.069383 267.493333 
L 477.897352 267.493333 
L 480.72532 267.493333 
L 483.553288 267.493333 
L 486.381257 267.493333 
L 489.209225 267.493333 
L 492.037194 267.493333 
L 494.865162 267.493333 
L 497.693131 267.493333 
L 500.521099 267.493333 
L 503.349068 267.493333 
L 506.177036 267.493333 
L 509.005005 267.493333 
L 511.832973 267.493333 
L 514.660942 267.493333 
L 517.48891 267.493333 
L 520.316878 267.493333 
L 523.144847 267.493333 
L 525.972815 267.493333 
L 528.800784 267.493333 
L 531.628752 267.493333 
L 534.456721 267.493333 
L 537.284689 267.493333 
L 540.112658 267.493333 
L 542.940626 267.493333 
L 545.768595 267.493333 
L 548.596563 267.493333 
L 551.424532 267.493333 
L 552.031464 -1 
M 556.473536 -1 
L 557.080468 267.493333 
L 559.908437 267.493333 
L 562.736405 267.493333 
L 565.564374 267.493333 
L 568.392342 267.493333 
L 571.220311 267.493333 
L 574.048279 267.493333 
L 576.876248 267.493333 
L 579.704216 267.493333 
L 582.532185 267.493333 
L 585.360153 267.493333 
L 588.188122 267.493333 
L 591.01609 267.493333 
L 593.844058 267.493333 
L 596.672027 267.493333 
L 599.499995 267.493333 
L 602.327964 267.493333 
L 605.155932 267.493333 
L 607.983901 267.493333 
L 610.811869 267.493333 
L 613.639838 267.493333 
L 616.467806 267.493333 
L 619.295775 267.493333 
L 622.123743 267.493333 
L 624.951712 267.493333 
L 627.77968 267.493333 
L 630.607648 267.493333 
L 633.435617 267.493333 
L 636.263585 267.493333 
L 639.091554 267.493333 
L 641.919522 267.493333 
L 644.747491 267.493333 
L 647.575459 267.493333 
L 650.403428 267.493333 
L 653.231396 267.493333 
L 656.059365 267.493333 
L 658.887333 267.493333 
L 661.715301 267.493333 
L 664.54327 267.493333 
L 667.371238 267.493333 
L 670.199207 267.493333 
L 673.027175 267.493333 
L 675.855144 267.493333 
L 678.683112 267.493333 
L 681.511081 267.493333 
L 684.339049 267.493333 
L 687.167018 267.493333 
L 689.994986 267.493333 
L 692.822955 267.493333 
" style="fill:none;stroke:#1f77b4;stroke-linecap:square;stroke-width:1.5;"/>
   </g>
   <g id="line2d_64">
    <path clip-path="url(#pa331125551)" d="M 415.682045 267.493333 
L 418.510014 267.493333 
L 421.337982 267.493333 
L 424.165951 267.493333 
L 426.993919 267.493333 
L 429.821888 267.493333 
L 432.649856 267.493333 
L 435.477825 267.493333 
L 438.305793 267.493333 
L 441.133762 267.493333 
L 443.96173 267.493333 
L 446.789699 267.493333 
L 449.617667 267.493333 
L 452.445635 267.493333 
L 455.273604 267.493333 
L 458.101572 267.493333 
L 460.929541 267.493333 
L 463.757509 267.493333 
L 466.585478 267.493333 
L 469.413446 267.493333 
L 472.241415 267.493333 
L 475.069383 267.493333 
L 477.897352 267.493333 
L 480.72532 267.493333 
L 483.553288 267.493333 
L 486.381257 267.493333 
L 489.209225 267.493333 
L 492.037194 267.493333 
L 494.865162 267.493333 
L 497.693131 267.493333 
L 500.521099 267.493333 
L 503.349068 267.493333 
L 506.177036 267.493333 
L 509.005005 267.493333 
L 511.832973 267.493333 
L 514.660942 267.493333 
L 517.48891 267.493333 
L 520.316878 267.493333 
L 523.144847 267.493333 
L 525.972815 267.493333 
L 528.800784 267.493333 
L 531.628752 267.493333 
L 534.456721 267.493333 
L 537.284689 267.493333 
L 540.112658 267.493333 
L 542.940626 267.493333 
L 545.768595 267.493333 
L 548.596563 267.493333 
L 551.424532 267.493333 
L 551.727998 -1 
M 556.777002 -1 
L 557.080468 267.493333 
L 559.908437 267.493333 
L 562.736405 267.493333 
L 565.564374 267.493333 
L 568.392342 267.493333 
L 571.220311 267.493333 
L 574.048279 267.493333 
L 576.876248 267.493333 
L 579.704216 267.493333 
L 582.532185 267.493333 
L 585.360153 267.493333 
L 588.188122 267.493333 
L 591.01609 267.493333 
L 593.844058 267.493333 
L 596.672027 267.493333 
L 599.499995 267.493333 
L 602.327964 267.493333 
L 605.155932 267.493333 
L 607.983901 267.493333 
L 610.811869 267.493333 
L 613.639838 267.493333 
L 616.467806 267.493333 
L 619.295775 267.493333 
L 622.123743 267.493333 
L 624.951712 267.493333 
L 627.77968 267.493333 
L 630.607648 267.493333 
L 633.435617 267.493333 
L 636.263585 267.493333 
L 639.091554 267.493333 
L 641.919522 267.493333 
L 644.747491 267.493333 
L 647.575459 267.493333 
L 650.403428 267.493333 
L 653.231396 267.493333 
L 656.059365 267.493333 
L 658.887333 267.493333 
L 661.715301 267.493333 
L 664.54327 267.493333 
L 667.371238 267.493333 
L 670.199207 267.493333 
L 673.027175 267.493333 
L 675.855144 267.493333 
L 678.683112 267.493333 
L 681.511081 267.493333 
L 684.339049 267.493333 
L 687.167018 267.493333 
L 689.994986 267.493333 
L 692.822955 267.493333 
" style="fill:none;stroke:#ff7f0e;stroke-linecap:square;stroke-width:1.5;"/>
   </g>
   <g id="line2d_65">
    <path clip-path="url(#pa331125551)" d="M 415.682045 266.609975 
L 418.510014 266.517546 
L 421.337982 266.415617 
L 424.165951 266.303248 
L 426.993919 266.179416 
L 429.821888 266.043007 
L 432.649856 265.892811 
L 435.477825 265.727519 
L 438.305793 265.545712 
L 441.133762 265.345863 
L 443.96173 265.126329 
L 446.789699 264.885352 
L 449.617667 264.621053 
L 452.445635 264.331438 
L 455.273604 264.0144 
L 458.101572 263.667727 
L 460.929541 263.289109 
L 463.757509 262.87616 
L 466.585478 262.426434 
L 469.413446 261.937457 
L 472.241415 261.406762 
L 475.069383 260.831934 
L 477.897352 260.210665 
L 480.72532 259.540822 
L 483.553288 258.820525 
L 486.381257 258.048238 
L 489.209225 257.222873 
L 492.037194 256.343905 
L 494.865162 255.411503 
L 497.693131 254.426664 
L 500.521099 253.391352 
L 503.349068 252.308647 
L 506.177036 251.182878 
L 509.005005 250.019747 
L 511.832973 248.826434 
L 514.660942 247.611659 
L 517.48891 246.385713 
L 520.316878 245.160425 
L 523.144847 243.949063 
L 525.972815 242.766169 
L 528.800784 241.627303 
L 531.628752 240.548722 
L 534.456721 239.54697 
L 537.284689 238.638414 
L 540.112658 237.838733 
L 542.940626 237.162384 
L 545.768595 236.622071 
L 548.596563 236.228261 
L 551.424532 235.988758 
L 554.2525 235.90838 
L 557.080468 235.988758 
L 559.908437 236.228261 
L 562.736405 236.622071 
L 565.564374 237.162384 
L 568.392342 237.838733 
L 571.220311 238.638414 
L 574.048279 239.54697 
L 576.876248 240.548722 
L 579.704216 241.627303 
L 582.532185 242.766169 
L 585.360153 243.949063 
L 588.188122 245.160425 
L 591.01609 246.385713 
L 593.844058 247.611659 
L 596.672027 248.826434 
L 599.499995 250.019747 
L 602.327964 251.182878 
L 605.155932 252.308647 
L 607.983901 253.391352 
L 610.811869 254.426664 
L 613.639838 255.411503 
L 616.467806 256.343905 
L 619.295775 257.222873 
L 622.123743 258.048238 
L 624.951712 258.820525 
L 627.77968 259.540822 
L 630.607648 260.210665 
L 633.435617 260.831934 
L 636.263585 261.406762 
L 639.091554 261.937457 
L 641.919522 262.426434 
L 644.747491 262.87616 
L 647.575459 263.289109 
L 650.403428 263.667727 
L 653.231396 264.0144 
L 656.059365 264.331438 
L 658.887333 264.621053 
L 661.715301 264.885352 
L 664.54327 265.126329 
L 667.371238 265.345863 
L 670.199207 265.545712 
L 673.027175 265.727519 
L 675.855144 265.892811 
L 678.683112 266.043007 
L 681.511081 266.179416 
L 684.339049 266.303248 
L 687.167018 266.415617 
L 689.994986 266.517546 
L 692.822955 266.609975 
" style="fill:none;stroke:#2ca02c;stroke-linecap:square;stroke-width:1.5;"/>
   </g>
   <g id="line2d_66">
    <path clip-path="url(#pa331125551)" d="M 415.682045 267.467905 
L 418.510014 267.462214 
L 421.337982 267.455248 
L 424.165951 267.446723 
L 426.993919 267.436291 
L 429.821888 267.423524 
L 432.649856 267.407901 
L 435.477825 267.388782 
L 438.305793 267.365388 
L 441.133762 267.336763 
L 443.96173 267.301737 
L 446.789699 267.258884 
L 449.617667 267.206457 
L 452.445635 267.142323 
L 455.273604 267.063876 
L 458.101572 266.967933 
L 460.929541 266.85061 
L 463.757509 266.707172 
L 466.585478 266.531845 
L 469.413446 266.3176 
L 472.241415 266.055892 
L 475.069383 265.73634 
L 477.897352 265.346363 
L 480.72532 264.870743 
L 483.553288 264.291124 
L 486.381257 263.585438 
L 489.209225 262.727265 
L 492.037194 261.685137 
L 494.865162 260.421821 
L 497.693131 258.893613 
L 500.521099 257.04975 
L 503.349068 254.832043 
L 506.177036 252.174937 
L 509.005005 249.006252 
L 511.832973 245.248968 
L 514.660942 240.824509 
L 517.48891 235.65805 
L 520.316878 229.686396 
L 523.144847 222.868878 
L 525.972815 215.201383 
L 528.800784 206.733013 
L 531.628752 197.58385 
L 534.456721 187.961001 
L 537.284689 178.168622 
L 540.112658 168.606667 
L 542.940626 159.753308 
L 545.768595 152.128131 
L 548.596563 146.237624 
L 551.424532 142.510292 
L 554.2525 141.234001 
L 557.080468 142.510292 
L 559.908437 146.237624 
L 562.736405 152.128131 
L 565.564374 159.753308 
L 568.392342 168.606667 
L 571.220311 178.168622 
L 574.048279 187.961001 
L 576.876248 197.58385 
L 579.704216 206.733013 
L 582.532185 215.201383 
L 585.360153 222.868878 
L 588.188122 229.686396 
L 591.01609 235.65805 
L 593.844058 240.824509 
L 596.672027 245.248968 
L 599.499995 249.006252 
L 602.327964 252.174937 
L 605.155932 254.832043 
L 607.983901 257.04975 
L 610.811869 258.893613 
L 613.639838 260.421821 
L 616.467806 261.685137 
L 619.295775 262.727265 
L 622.123743 263.585438 
L 624.951712 264.291124 
L 627.77968 264.870743 
L 630.607648 265.346363 
L 633.435617 265.73634 
L 636.263585 266.055892 
L 639.091554 266.3176 
L 641.919522 266.531845 
L 644.747491 266.707172 
L 647.575459 266.85061 
L 650.403428 266.967933 
L 653.231396 267.063876 
L 656.059365 267.142323 
L 658.887333 267.206457 
L 661.715301 267.258884 
L 664.54327 267.301737 
L 667.371238 267.336763 
L 670.199207 267.365388 
L 673.027175 267.388782 
L 675.855144 267.407901 
L 678.683112 267.423524 
L 681.511081 267.436291 
L 684.339049 267.446723 
L 687.167018 267.455248 
L 689.994986 267.462214 
L 692.822955 267.467905 
" style="fill:none;stroke:#d62728;stroke-linecap:square;stroke-width:1.5;"/>
   </g>
   <g id="line2d_67">
    <path clip-path="url(#pa331125551)" d="M 415.682045 267.493333 
L 418.510014 267.493333 
L 421.337982 267.493333 
L 424.165951 267.493333 
L 426.993919 267.493333 
L 429.821888 267.493333 
L 432.649856 267.493333 
L 435.477825 267.493333 
L 438.305793 267.493333 
L 441.133762 267.493333 
L 443.96173 267.493333 
L 446.789699 267.493333 
L 449.617667 267.493333 
L 452.445635 267.493333 
L 455.273604 267.493333 
L 458.101572 267.493333 
L 460.929541 267.493333 
L 463.757509 267.493333 
L 466.585478 267.493333 
L 469.413446 267.493333 
L 472.241415 267.493333 
L 475.069383 267.493333 
L 477.897352 267.493333 
L 480.72532 267.493333 
L 483.553288 267.493333 
L 486.381257 267.493333 
L 489.209225 267.493333 
L 492.037194 267.493333 
L 494.865162 267.493333 
L 497.693131 267.493333 
L 500.521099 267.493333 
L 503.349068 267.493333 
L 506.177036 267.493333 
L 509.005005 267.493333 
L 511.832973 267.493333 
L 514.660942 267.493333 
L 517.48891 267.493333 
L 520.316878 267.493333 
L 523.144847 267.493333 
L 525.972815 267.493333 
L 528.800784 267.493333 
L 531.628752 267.493333 
L 534.456721 267.493333 
L 537.284689 267.493333 
L 540.112658 267.493333 
L 542.940626 267.493333 
L 545.768595 267.493333 
L 548.596563 267.493333 
L 551.424532 267.493333 
L 554.2525 204.31 
L 557.080468 141.126667 
L 559.908437 141.126667 
L 562.736405 141.126667 
L 565.564374 141.126667 
L 568.392342 141.126667 
L 571.220311 141.126667 
L 574.048279 141.126667 
L 576.876248 141.126667 
L 579.704216 141.126667 
L 582.532185 141.126667 
L 585.360153 141.126667 
L 588.188122 141.126667 
L 591.01609 141.126667 
L 593.844058 141.126667 
L 596.672027 141.126667 
L 599.499995 141.126667 
L 602.327964 141.126667 
L 605.155932 141.126667 
L 607.983901 141.126667 
L 610.811869 141.126667 
L 613.639838 141.126667 
L 616.467806 141.126667 
L 619.295775 141.126667 
L 622.123743 141.126667 
L 624.951712 141.126667 
L 627.77968 141.126667 
L 630.607648 141.126667 
L 633.435617 141.126667 
L 636.263585 141.126667 
L 639.091554 141.126667 
L 641.919522 141.126667 
L 644.747491 141.126667 
L 647.575459 141.126667 
L 650.403428 141.126667 
L 653.231396 141.126667 
L 656.059365 141.126667 
L 658.887333 141.126667 
L 661.715301 141.126667 
L 664.54327 141.126667 
L 667.371238 141.126667 
L 670.199207 141.126667 
L 673.027175 141.126667 
L 675.855144 141.126667 
L 678.683112 141.126667 
L 681.511081 141.126667 
L 684.339049 141.126667 
L 687.167018 141.126667 
L 689.994986 141.126667 
L 692.822955 141.126667 
" style="fill:none;stroke:#9467bd;stroke-linecap:square;stroke-width:1.5;"/>
   </g>
   <g id="line2d_68">
    <path clip-path="url(#pa331125551)" d="M 415.682045 261.175 
L 418.510014 261.175 
L 421.337982 261.175 
L 424.165951 261.175 
L 426.993919 261.175 
L 429.821888 261.175 
L 432.649856 261.175 
L 435.477825 261.175 
L 438.305793 261.175 
L 441.133762 261.175 
L 443.96173 261.175 
L 446.789699 261.175 
L 449.617667 261.175 
L 452.445635 261.175 
L 455.273604 261.175 
L 458.101572 261.175 
L 460.929541 261.175 
L 463.757509 261.175 
L 466.585478 261.175 
L 469.413446 261.175 
L 472.241415 261.175 
L 475.069383 261.175 
L 477.897352 261.175 
L 480.72532 261.175 
L 483.553288 261.175 
L 486.381257 261.175 
L 489.209225 261.175 
L 492.037194 261.175 
L 494.865162 261.175 
L 497.693131 261.175 
L 500.521099 261.175 
L 503.349068 261.175 
L 506.177036 261.175 
L 509.005005 261.175 
L 511.832973 261.175 
L 514.660942 261.175 
L 517.48891 261.175 
L 520.316878 261.175 
L 523.144847 261.175 
L 525.972815 261.175 
L 528.800784 261.175 
L 531.628752 261.175 
L 534.456721 261.175 
L 537.284689 261.175 
L 540.112658 261.175 
L 542.940626 261.175 
L 545.768595 261.175 
L 548.596563 261.175 
L 551.424532 261.175 
L 554.2525 201.150833 
L 557.080468 141.126667 
L 559.908437 141.126667 
L 562.736405 141.126667 
L 565.564374 141.126667 
L 568.392342 141.126667 
L 571.220311 141.126667 
L 574.048279 141.126667 
L 576.876248 141.126667 
L 579.704216 141.126667 
L 582.532185 141.126667 
L 585.360153 141.126667 
L 588.188122 141.126667 
L 591.01609 141.126667 
L 593.844058 141.126667 
L 596.672027 141.126667 
L 599.499995 141.126667 
L 602.327964 141.126667 
L 605.155932 141.126667 
L 607.983901 141.126667 
L 610.811869 141.126667 
L 613.639838 141.126667 
L 616.467806 141.126667 
L 619.295775 141.126667 
L 622.123743 141.126667 
L 624.951712 141.126667 
L 627.77968 141.126667 
L 630.607648 141.126667 
L 633.435617 141.126667 
L 636.263585 141.126667 
L 639.091554 141.126667 
L 641.919522 141.126667 
L 644.747491 141.126667 
L 647.575459 141.126667 
L 650.403428 141.126667 
L 653.231396 141.126667 
L 656.059365 141.126667 
L 658.887333 141.126667 
L 661.715301 141.126667 
L 664.54327 141.126667 
L 667.371238 141.126667 
L 670.199207 141.126667 
L 673.027175 141.126667 
L 675.855144 141.126667 
L 678.683112 141.126667 
L 681.511081 141.126667 
L 684.339049 141.126667 
L 687.167018 141.126667 
L 689.994986 141.126667 
L 692.822955 141.126667 
" style="fill:none;stroke:#8c564b;stroke-dasharray:5.55,2.4;stroke-dashoffset:0;stroke-width:1.5;"/>
   </g>
   <g id="patch_9">
    <path d="M 401.825 318.04 
L 401.825 14.76 
" style="fill:none;stroke:#000000;stroke-linecap:square;stroke-linejoin:miter;stroke-width:0.8;"/>
   </g>
   <g id="patch_10">
    <path d="M 706.68 318.04 
L 706.68 14.76 
" style="fill:none;stroke:#000000;stroke-linecap:square;stroke-linejoin:miter;stroke-width:0.8;"/>
   </g>
   <g id="patch_11">
    <path d="M 401.825 318.04 
L 706.68 318.04 
" style="fill:none;stroke:#000000;stroke-linecap:square;stroke-linejoin:miter;stroke-width:0.8;"/>
   </g>
   <g id="patch_12">
    <path d="M 401.825 14.76 
L 706.68 14.76 
" style="fill:none;stroke:#000000;stroke-linecap:square;stroke-linejoin:miter;stroke-width:0.8;"/>
   </g>
   <g id="legend_2">
    <g id="patch_13">
     <path d="M 594.18 110.82875 
L 699.68 110.82875 
Q 701.68 110.82875 701.68 108.82875 
L 701.68 21.76 
Q 701.68 19.76 699.68 19.76 
L 594.18 19.76 
Q 592.18 19.76 592.18 21.76 
L 592.18 108.82875 
Q 592.18 110.82875 594.18 110.82875 
z
" style="fill:#ffffff;opacity:0.8;stroke:#cccccc;stroke-linejoin:miter;"/>
    </g>
    <g id="line2d_69">
     <path d="M 596.18 27.858437 
L 616.18 27.858437 
" style="fill:none;stroke:#1f77b4;stroke-linecap:square;stroke-width:1.5;"/>
    </g>
    <g id="line2d_70"/>
    <g id="text_33">
     <!-- step(x) -->
     <g transform="translate(624.18 31.358437)scale(0.1 -0.1)">
      <use xlink:href="#DejaVuSans-73"/>
      <use x="52.099609" xlink:href="#DejaVuSans-74"/>
      <use x="91.308594" xlink:href="#DejaVuSans-65"/>
      <use x="152.832031" xlink:href="#DejaVuSans-70"/>
      <use x="216.308594" xlink:href="#DejaVuSans-28"/>
      <use x="255.322266" xlink:href="#DejaVuSans-78"/>
      <use x="314.501953" xlink:href="#DejaVuSans-29"/>
     </g>
    </g>
    <g id="line2d_71">
     <path d="M 596.18 42.536563 
L 616.18 42.536563 
" style="fill:none;stroke:#ff7f0e;stroke-linecap:square;stroke-width:1.5;"/>
    </g>
    <g id="line2d_72"/>
    <g id="text_34">
     <!-- sign(x) -->
     <g transform="translate(624.18 46.036563)scale(0.1 -0.1)">
      <use xlink:href="#DejaVuSans-73"/>
      <use x="52.099609" xlink:href="#DejaVuSans-69"/>
      <use x="79.882812" xlink:href="#DejaVuSans-67"/>
      <use x="143.359375" xlink:href="#DejaVuSans-6e"/>
      <use x="206.738281" xlink:href="#DejaVuSans-28"/>
      <use x="245.751953" xlink:href="#DejaVuSans-78"/>
      <use x="304.931641" xlink:href="#DejaVuSans-29"/>
     </g>
    </g>
    <g id="line2d_73">
     <path d="M 596.18 57.214687 
L 616.18 57.214687 
" style="fill:none;stroke:#2ca02c;stroke-linecap:square;stroke-width:1.5;"/>
    </g>
    <g id="line2d_74"/>
    <g id="text_35">
     <!-- $\sigma$(x) -->
     <g transform="translate(624.18 60.714687)scale(0.1 -0.1)">
      <use transform="translate(0 0.125)" xlink:href="#DejaVuSans-Oblique-3c3"/>
      <use transform="translate(63.378906 0.125)" xlink:href="#DejaVuSans-28"/>
      <use transform="translate(102.392578 0.125)" xlink:href="#DejaVuSans-78"/>
      <use transform="translate(161.572266 0.125)" xlink:href="#DejaVuSans-29"/>
     </g>
    </g>
    <g id="line2d_75">
     <path d="M 596.18 71.892812 
L 616.18 71.892812 
" style="fill:none;stroke:#d62728;stroke-linecap:square;stroke-width:1.5;"/>
    </g>
    <g id="line2d_76"/>
    <g id="text_36">
     <!-- tanh(x) -->
     <g transform="translate(624.18 75.392812)scale(0.1 -0.1)">
      <use xlink:href="#DejaVuSans-74"/>
      <use x="39.208984" xlink:href="#DejaVuSans-61"/>
      <use x="100.488281" xlink:href="#DejaVuSans-6e"/>
      <use x="163.867188" xlink:href="#DejaVuSans-68"/>
      <use x="227.246094" xlink:href="#DejaVuSans-28"/>
      <use x="266.259766" xlink:href="#DejaVuSans-78"/>
      <use x="325.439453" xlink:href="#DejaVuSans-29"/>
     </g>
    </g>
    <g id="line2d_77">
     <path d="M 596.18 86.570938 
L 616.18 86.570938 
" style="fill:none;stroke:#9467bd;stroke-linecap:square;stroke-width:1.5;"/>
    </g>
    <g id="line2d_78"/>
    <g id="text_37">
     <!-- ReLu(x) -->
     <g transform="translate(624.18 90.070938)scale(0.1 -0.1)">
      <use xlink:href="#DejaVuSans-52"/>
      <use x="69.419922" xlink:href="#DejaVuSans-65"/>
      <use x="130.943359" xlink:href="#DejaVuSans-4c"/>
      <use x="186.640625" xlink:href="#DejaVuSans-75"/>
      <use x="250.019531" xlink:href="#DejaVuSans-28"/>
      <use x="289.033203" xlink:href="#DejaVuSans-78"/>
      <use x="348.212891" xlink:href="#DejaVuSans-29"/>
     </g>
    </g>
    <g id="line2d_79">
     <path d="M 596.18 101.249062 
L 616.18 101.249062 
" style="fill:none;stroke:#8c564b;stroke-linecap:square;stroke-width:1.5;"/>
    </g>
    <g id="line2d_80"/>
    <g id="text_38">
     <!-- $\mathrm{LReLu}_{\alpha=0.05}$(x) -->
     <g transform="translate(624.18 104.749062)scale(0.1 -0.1)">
      <use transform="translate(0 0.125)" xlink:href="#DejaVuSans-4c"/>
      <use transform="translate(55.712891 0.125)" xlink:href="#DejaVuSans-52"/>
      <use transform="translate(125.195312 0.125)" xlink:href="#DejaVuSans-65"/>
      <use transform="translate(186.71875 0.125)" xlink:href="#DejaVuSans-4c"/>
      <use transform="translate(242.431641 0.125)" xlink:href="#DejaVuSans-75"/>
      <use transform="translate(306.767578 -16.28125)scale(0.7)" xlink:href="#DejaVuSans-Oblique-3b1"/>
      <use transform="translate(366.547852 -16.28125)scale(0.7)" xlink:href="#DejaVuSans-3d"/>
      <use transform="translate(438.837891 -16.28125)scale(0.7)" xlink:href="#DejaVuSans-30"/>
      <use transform="translate(483.374023 -16.28125)scale(0.7)" xlink:href="#DejaVuSans-2e"/>
      <use transform="translate(505.625 -16.28125)scale(0.7)" xlink:href="#DejaVuSans-30"/>
      <use transform="translate(550.161133 -16.28125)scale(0.7)" xlink:href="#DejaVuSans-35"/>
      <use transform="translate(597.431641 0.125)" xlink:href="#DejaVuSans-28"/>
      <use transform="translate(636.445312 0.125)" xlink:href="#DejaVuSans-78"/>
      <use transform="translate(695.625 0.125)" xlink:href="#DejaVuSans-29"/>
     </g>
    </g>
   </g>
  </g>
 </g>
 <defs>
  <clipPath id="pff540e58f7">
   <rect height="303.28" width="304.855" x="46.64" y="14.76"/>
  </clipPath>
  <clipPath id="pa331125551">
   <rect height="303.28" width="304.855" x="401.825" y="14.76"/>
  </clipPath>
 </defs>
</svg>
