<?xml version="1.0" encoding="UTF-8" standalone="no"?>
<svg
   xmlns:dc="http://purl.org/dc/elements/1.1/"
   xmlns:cc="http://creativecommons.org/ns#"
   xmlns:rdf="http://www.w3.org/1999/02/22-rdf-syntax-ns#"
   xmlns:svg="http://www.w3.org/2000/svg"
   xmlns="http://www.w3.org/2000/svg"
   xmlns:sodipodi="http://sodipodi.sourceforge.net/DTD/sodipodi-0.dtd"
   xmlns:inkscape="http://www.inkscape.org/namespaces/inkscape"
   inkscape:version="1.0rc1 (09960d6, 2020-04-09)"
   sodipodi:docname="activationfunctions_derivative.svg"
   viewBox="0 0 480 480"
   height="480"
   width="480"
   xml:space="preserve"
   id="svg833"
   version="1.1"><metadata
     id="metadata839"><rdf:RDF><cc:Work
         rdf:about=""><dc:format>image/svg+xml</dc:format><dc:type
           rdf:resource="http://purl.org/dc/dcmitype/StillImage" /><dc:title></dc:title></cc:Work></rdf:RDF></metadata><defs
     id="defs837"><clipPath
       id="clipPath853"
       clipPathUnits="userSpaceOnUse"><path
         inkscape:connector-curvature="0"
         id="path851"
         d="M 47.81,41.96 H 346.68 V 345.24 H 47.81 Z" /></clipPath><clipPath
       id="clipPath875"
       clipPathUnits="userSpaceOnUse"><path
         inkscape:connector-curvature="0"
         id="path873"
         d="M -1021,-463 H 1794 V 1233 H -1021 Z" /></clipPath><clipPath
       id="clipPath885"
       clipPathUnits="userSpaceOnUse"><path
         inkscape:connector-curvature="0"
         id="path883"
         d="M 47.81,41.96 H 346.68 V 345.24 H 47.81 Z" /></clipPath><clipPath
       id="clipPath907"
       clipPathUnits="userSpaceOnUse"><path
         inkscape:connector-curvature="0"
         id="path905"
         d="M -1021,-463 H 1794 V 1233 H -1021 Z" /></clipPath><clipPath
       id="clipPath917"
       clipPathUnits="userSpaceOnUse"><path
         inkscape:connector-curvature="0"
         id="path915"
         d="M 47.81,41.96 H 346.68 V 345.24 H 47.81 Z" /></clipPath><clipPath
       id="clipPath935"
       clipPathUnits="userSpaceOnUse"><path
         inkscape:connector-curvature="0"
         id="path933"
         d="M 47.81,41.96 H 346.68 V 345.24 H 47.81 Z" /></clipPath><clipPath
       id="clipPath953"
       clipPathUnits="userSpaceOnUse"><path
         inkscape:connector-curvature="0"
         id="path951"
         d="M 47.81,41.96 H 346.68 V 345.24 H 47.81 Z" /></clipPath><clipPath
       id="clipPath975"
       clipPathUnits="userSpaceOnUse"><path
         inkscape:connector-curvature="0"
         id="path973"
         d="M 47.81,41.96 H 346.68 V 345.24 H 47.81 Z" /></clipPath><clipPath
       id="clipPath993"
       clipPathUnits="userSpaceOnUse"><path
         inkscape:connector-curvature="0"
         id="path991"
         d="M 47.81,41.96 H 346.68 V 345.24 H 47.81 Z" /></clipPath><clipPath
       id="clipPath1011"
       clipPathUnits="userSpaceOnUse"><path
         inkscape:connector-curvature="0"
         id="path1009"
         d="M 47.81,41.96 H 346.68 V 345.24 H 47.81 Z" /></clipPath><clipPath
       id="clipPath1029"
       clipPathUnits="userSpaceOnUse"><path
         inkscape:connector-curvature="0"
         id="path1027"
         d="M 47.81,41.96 H 346.68 V 345.24 H 47.81 Z" /></clipPath><clipPath
       id="clipPath1047"
       clipPathUnits="userSpaceOnUse"><path
         inkscape:connector-curvature="0"
         id="path1045"
         d="M 47.81,41.96 H 346.68 V 345.24 H 47.81 Z" /></clipPath><clipPath
       id="clipPath1069"
       clipPathUnits="userSpaceOnUse"><path
         inkscape:connector-curvature="0"
         id="path1067"
         d="M 47.81,41.96 H 346.68 V 345.24 H 47.81 Z" /></clipPath><clipPath
       id="clipPath1079"
       clipPathUnits="userSpaceOnUse"><path
         inkscape:connector-curvature="0"
         id="path1077"
         d="M 47.81,41.96 H 346.68 V 345.24 H 47.81 Z" /></clipPath><clipPath
       id="clipPath1089"
       clipPathUnits="userSpaceOnUse"><path
         inkscape:connector-curvature="0"
         id="path1087"
         d="M 47.81,41.96 H 346.68 V 345.24 H 47.81 Z" /></clipPath><clipPath
       id="clipPath1099"
       clipPathUnits="userSpaceOnUse"><path
         inkscape:connector-curvature="0"
         id="path1097"
         d="M 47.81,41.96 H 346.68 V 345.24 H 47.81 Z" /></clipPath><clipPath
       id="clipPath1109"
       clipPathUnits="userSpaceOnUse"><path
         inkscape:connector-curvature="0"
         id="path1107"
         d="M 47.81,41.96 H 346.68 V 345.24 H 47.81 Z" /></clipPath><clipPath
       id="clipPath1133"
       clipPathUnits="userSpaceOnUse"><path
         inkscape:connector-curvature="0"
         id="path1131"
         d="M -1021,-463 H 1794 V 1233 H -1021 Z" /></clipPath><clipPath
       id="clipPath1145"
       clipPathUnits="userSpaceOnUse"><path
         inkscape:connector-curvature="0"
         id="path1143"
         d="M -1021,-463 H 1794 V 1233 H -1021 Z" /></clipPath><clipPath
       id="clipPath1167"
       clipPathUnits="userSpaceOnUse"><path
         inkscape:connector-curvature="0"
         id="path1165"
         d="M -1016,-351 H 1660 V 1068 H -1016 Z" /></clipPath><clipPath
       id="clipPath1187"
       clipPathUnits="userSpaceOnUse"><path
         inkscape:connector-curvature="0"
         id="path1185"
         d="M -1016,-351 H 1660 V 1068 H -1016 Z" /></clipPath><clipPath
       id="clipPath1227"
       clipPathUnits="userSpaceOnUse"><path
         inkscape:connector-curvature="0"
         id="path1225"
         d="M -1016,-351 H 1660 V 1068 H -1016 Z" /></clipPath></defs><sodipodi:namedview
     inkscape:current-layer="g841"
     inkscape:window-maximized="0"
     inkscape:window-y="180"
     inkscape:window-x="1861"
     inkscape:cy="240"
     inkscape:cx="240"
     inkscape:zoom="1.2083333"
     showgrid="false"
     id="namedview835"
     inkscape:window-height="480"
     inkscape:window-width="904"
     inkscape:pageshadow="2"
     inkscape:pageopacity="0"
     guidetolerance="10"
     gridtolerance="10"
     objecttolerance="10"
     borderopacity="1"
     bordercolor="#666666"
     pagecolor="#ffffff" /><g
     transform="matrix(1.3333333,0,0,-1.3333333,0,480)"
     inkscape:label="activationfunctions_derivative"
     inkscape:groupmode="layer"
     id="g841"><path
       inkscape:connector-curvature="0"
       id="path843"
       style="fill:#ffffff;fill-opacity:1;fill-rule:nonzero;stroke:none"
       d="M 0,0 H 360 V 360 H 0 Z" /><path
       inkscape:connector-curvature="0"
       id="path845"
       style="fill:#ffffff;fill-opacity:1;fill-rule:nonzero;stroke:none"
       d="M 47.81,41.96 H 346.68 V 345.24 H 47.81 Z" /><g
       id="g847"><g
         clip-path="url(#clipPath853)"
         id="g849"><path
           inkscape:connector-curvature="0"
           id="path855"
           style="fill:none;stroke:#b0b0b0;stroke-width:0.8;stroke-linecap:square;stroke-linejoin:round;stroke-miterlimit:10;stroke-dasharray:none;stroke-opacity:1"
           d="M 88.702919,41.96 V 345.24" /></g></g><g
       id="g857"><path
         inkscape:connector-curvature="0"
         id="path859"
         style="fill:#000000;fill-opacity:1;fill-rule:nonzero;stroke:#000000;stroke-width:0.8;stroke-linecap:butt;stroke-linejoin:round;stroke-miterlimit:10;stroke-dasharray:none;stroke-opacity:1"
         d="m 88.702919,41.96 v -3.5" /><g
         transform="translate(81.335731,27.36625)"
         id="g861"><text
           id="text865"
           style="font-variant:normal;font-weight:normal;font-size:10px;font-family:'DejaVu Sans';-inkscape-font-specification:DejaVuSans;writing-mode:lr-tb;fill:#000000;fill-opacity:1;fill-rule:nonzero;stroke:none"
           transform="matrix(1,0,0,-1,8.3789063,0)"><tspan
             id="tspan863"
             y="0"
             x="0">4</tspan></text><g
           transform="scale(0.01)"
           id="g867"><g
             id="g869"><g
               clip-path="url(#clipPath875)"
               id="g871"><path
                 inkscape:connector-curvature="0"
                 id="path877"
                 style="fill:#000000;fill-opacity:1;fill-rule:nonzero;stroke:none"
                 d="M 106,355 H 732 V 272 H 106 v 83" /></g></g></g></g></g><g
       id="g879"><g
         clip-path="url(#clipPath885)"
         id="g881"><path
           inkscape:connector-curvature="0"
           id="path887"
           style="fill:none;stroke:#b0b0b0;stroke-width:0.8;stroke-linecap:square;stroke-linejoin:round;stroke-miterlimit:10;stroke-dasharray:none;stroke-opacity:1"
           d="M 143.31876,41.96 V 345.24" /></g></g><g
       id="g889"><path
         inkscape:connector-curvature="0"
         id="path891"
         style="fill:#000000;fill-opacity:1;fill-rule:nonzero;stroke:#000000;stroke-width:0.8;stroke-linecap:butt;stroke-linejoin:round;stroke-miterlimit:10;stroke-dasharray:none;stroke-opacity:1"
         d="m 143.31876,41.96 v -3.5" /><g
         transform="translate(135.95157,27.36625)"
         id="g893"><text
           id="text897"
           style="font-variant:normal;font-weight:normal;font-size:10px;font-family:'DejaVu Sans';-inkscape-font-specification:DejaVuSans;writing-mode:lr-tb;fill:#000000;fill-opacity:1;fill-rule:nonzero;stroke:none"
           transform="matrix(1,0,0,-1,8.3789063,0)"><tspan
             id="tspan895"
             y="0"
             x="0">2</tspan></text><g
           transform="scale(0.01)"
           id="g899"><g
             id="g901"><g
               clip-path="url(#clipPath907)"
               id="g903"><path
                 inkscape:connector-curvature="0"
                 id="path909"
                 style="fill:#000000;fill-opacity:1;fill-rule:nonzero;stroke:none"
                 d="M 106,355 H 732 V 272 H 106 v 83" /></g></g></g></g></g><g
       id="g911"><g
         clip-path="url(#clipPath917)"
         id="g913"><path
           inkscape:connector-curvature="0"
           id="path919"
           style="fill:none;stroke:#b0b0b0;stroke-width:0.8;stroke-linecap:square;stroke-linejoin:round;stroke-miterlimit:10;stroke-dasharray:none;stroke-opacity:1"
           d="M 197.93459,41.96 V 345.24" /></g></g><g
       id="g921"><path
         inkscape:connector-curvature="0"
         id="path923"
         style="fill:#000000;fill-opacity:1;fill-rule:nonzero;stroke:#000000;stroke-width:0.8;stroke-linecap:butt;stroke-linejoin:round;stroke-miterlimit:10;stroke-dasharray:none;stroke-opacity:1"
         d="m 197.93459,41.96 v -3.5" /><text
         id="text927"
         style="font-variant:normal;font-weight:normal;font-size:10px;font-family:'DejaVu Sans';-inkscape-font-specification:DejaVuSans;writing-mode:lr-tb;fill:#000000;fill-opacity:1;fill-rule:nonzero;stroke:none"
         transform="matrix(1,0,0,-1,194.75491,27.36625)"><tspan
           id="tspan925"
           y="0"
           x="0">0</tspan></text></g><g
       id="g929"><g
         clip-path="url(#clipPath935)"
         id="g931"><path
           inkscape:connector-curvature="0"
           id="path937"
           style="fill:none;stroke:#b0b0b0;stroke-width:0.8;stroke-linecap:square;stroke-linejoin:round;stroke-miterlimit:10;stroke-dasharray:none;stroke-opacity:1"
           d="M 252.55043,41.96 V 345.24" /></g></g><g
       id="g939"><path
         inkscape:connector-curvature="0"
         id="path941"
         style="fill:#000000;fill-opacity:1;fill-rule:nonzero;stroke:#000000;stroke-width:0.8;stroke-linecap:butt;stroke-linejoin:round;stroke-miterlimit:10;stroke-dasharray:none;stroke-opacity:1"
         d="m 252.55043,41.96 v -3.5" /><text
         id="text945"
         style="font-variant:normal;font-weight:normal;font-size:10px;font-family:'DejaVu Sans';-inkscape-font-specification:DejaVuSans;writing-mode:lr-tb;fill:#000000;fill-opacity:1;fill-rule:nonzero;stroke:none"
         transform="matrix(1,0,0,-1,249.37074,27.36625)"><tspan
           id="tspan943"
           y="0"
           x="0">2</tspan></text></g><g
       id="g947"><g
         clip-path="url(#clipPath953)"
         id="g949"><path
           inkscape:connector-curvature="0"
           id="path955"
           style="fill:none;stroke:#b0b0b0;stroke-width:0.8;stroke-linecap:square;stroke-linejoin:round;stroke-miterlimit:10;stroke-dasharray:none;stroke-opacity:1"
           d="M 307.16627,41.96 V 345.24" /></g></g><g
       id="g957"><path
         inkscape:connector-curvature="0"
         id="path959"
         style="fill:#000000;fill-opacity:1;fill-rule:nonzero;stroke:#000000;stroke-width:0.8;stroke-linecap:butt;stroke-linejoin:round;stroke-miterlimit:10;stroke-dasharray:none;stroke-opacity:1"
         d="m 307.16627,41.96 v -3.5" /><text
         id="text963"
         style="font-variant:normal;font-weight:normal;font-size:10px;font-family:'DejaVu Sans';-inkscape-font-specification:DejaVuSans;writing-mode:lr-tb;fill:#000000;fill-opacity:1;fill-rule:nonzero;stroke:none"
         transform="matrix(1,0,0,-1,303.98658,27.36625)"><tspan
           id="tspan961"
           y="0"
           x="0">4</tspan></text><text
         id="text967"
         style="font-variant:normal;font-weight:normal;font-size:10px;font-family:'DejaVu Sans';-inkscape-font-specification:DejaVuSans;writing-mode:lr-tb;fill:#000000;fill-opacity:1;fill-rule:nonzero;stroke:none"
         transform="matrix(1,0,0,-1,164.56531,13.694375)"><tspan
           id="tspan965"
           sodipodi:role="line"
           y="0"
           x="0 2.78 9.1199999 15.47 21.809999 25.73 28.91 34.830002 40.959999 43.740002 50.080002 56.23 59.41">input value x</tspan></text></g><g
       id="g969"><g
         clip-path="url(#clipPath975)"
         id="g971"><path
           inkscape:connector-curvature="0"
           id="path977"
           style="fill:none;stroke:#b0b0b0;stroke-width:0.8;stroke-linecap:square;stroke-linejoin:round;stroke-miterlimit:10;stroke-dasharray:none;stroke-opacity:1"
           d="M 47.81,92.506667 H 346.68" /></g></g><g
       id="g979"><path
         inkscape:connector-curvature="0"
         id="path981"
         style="fill:#000000;fill-opacity:1;fill-rule:nonzero;stroke:#000000;stroke-width:0.8;stroke-linecap:butt;stroke-linejoin:round;stroke-miterlimit:10;stroke-dasharray:none;stroke-opacity:1"
         d="m 47.81,92.506667 h -3.5" /><text
         id="text985"
         style="font-variant:normal;font-weight:normal;font-size:10px;font-family:'DejaVu Sans';-inkscape-font-specification:DejaVuSans;writing-mode:lr-tb;fill:#000000;fill-opacity:1;fill-rule:nonzero;stroke:none"
         transform="matrix(1,0,0,-1,24.90375,88.709792)"><tspan
           id="tspan983"
           sodipodi:role="line"
           y="0"
           x="0 6.3600001 9.54">0.0</tspan></text></g><g
       id="g987"><g
         clip-path="url(#clipPath993)"
         id="g989"><path
           inkscape:connector-curvature="0"
           id="path995"
           style="fill:none;stroke:#b0b0b0;stroke-width:0.8;stroke-linecap:square;stroke-linejoin:round;stroke-miterlimit:10;stroke-dasharray:none;stroke-opacity:1"
           d="M 47.81,155.69 H 346.68" /></g></g><g
       id="g997"><path
         inkscape:connector-curvature="0"
         id="path999"
         style="fill:#000000;fill-opacity:1;fill-rule:nonzero;stroke:#000000;stroke-width:0.8;stroke-linecap:butt;stroke-linejoin:round;stroke-miterlimit:10;stroke-dasharray:none;stroke-opacity:1"
         d="m 47.81,155.69 h -3.5" /><text
         id="text1003"
         style="font-variant:normal;font-weight:normal;font-size:10px;font-family:'DejaVu Sans';-inkscape-font-specification:DejaVuSans;writing-mode:lr-tb;fill:#000000;fill-opacity:1;fill-rule:nonzero;stroke:none"
         transform="matrix(1,0,0,-1,24.90375,151.89312)"><tspan
           id="tspan1001"
           sodipodi:role="line"
           y="0"
           x="0 6.3600001 9.54">0.5</tspan></text></g><g
       id="g1005"><g
         clip-path="url(#clipPath1011)"
         id="g1007"><path
           inkscape:connector-curvature="0"
           id="path1013"
           style="fill:none;stroke:#b0b0b0;stroke-width:0.8;stroke-linecap:square;stroke-linejoin:round;stroke-miterlimit:10;stroke-dasharray:none;stroke-opacity:1"
           d="M 47.81,218.87333 H 346.68" /></g></g><g
       id="g1015"><path
         inkscape:connector-curvature="0"
         id="path1017"
         style="fill:#000000;fill-opacity:1;fill-rule:nonzero;stroke:#000000;stroke-width:0.8;stroke-linecap:butt;stroke-linejoin:round;stroke-miterlimit:10;stroke-dasharray:none;stroke-opacity:1"
         d="m 47.81,218.87333 h -3.5" /><text
         id="text1021"
         style="font-variant:normal;font-weight:normal;font-size:10px;font-family:'DejaVu Sans';-inkscape-font-specification:DejaVuSans;writing-mode:lr-tb;fill:#000000;fill-opacity:1;fill-rule:nonzero;stroke:none"
         transform="matrix(1,0,0,-1,24.90375,215.07646)"><tspan
           id="tspan1019"
           sodipodi:role="line"
           y="0"
           x="0 6.3600001 9.54">1.0</tspan></text></g><g
       id="g1023"><g
         clip-path="url(#clipPath1029)"
         id="g1025"><path
           inkscape:connector-curvature="0"
           id="path1031"
           style="fill:none;stroke:#b0b0b0;stroke-width:0.8;stroke-linecap:square;stroke-linejoin:round;stroke-miterlimit:10;stroke-dasharray:none;stroke-opacity:1"
           d="M 47.81,282.05667 H 346.68" /></g></g><g
       id="g1033"><path
         inkscape:connector-curvature="0"
         id="path1035"
         style="fill:#000000;fill-opacity:1;fill-rule:nonzero;stroke:#000000;stroke-width:0.8;stroke-linecap:butt;stroke-linejoin:round;stroke-miterlimit:10;stroke-dasharray:none;stroke-opacity:1"
         d="m 47.81,282.05667 h -3.5" /><text
         id="text1039"
         style="font-variant:normal;font-weight:normal;font-size:10px;font-family:'DejaVu Sans';-inkscape-font-specification:DejaVuSans;writing-mode:lr-tb;fill:#000000;fill-opacity:1;fill-rule:nonzero;stroke:none"
         transform="matrix(1,0,0,-1,24.90375,278.25979)"><tspan
           id="tspan1037"
           sodipodi:role="line"
           y="0"
           x="0 6.3600001 9.54">1.5</tspan></text></g><g
       id="g1041"><g
         clip-path="url(#clipPath1047)"
         id="g1043"><path
           inkscape:connector-curvature="0"
           id="path1049"
           style="fill:none;stroke:#b0b0b0;stroke-width:0.8;stroke-linecap:square;stroke-linejoin:round;stroke-miterlimit:10;stroke-dasharray:none;stroke-opacity:1"
           d="M 47.81,345.24 H 346.68" /></g></g><g
       id="g1051"><path
         inkscape:connector-curvature="0"
         id="path1053"
         style="fill:#000000;fill-opacity:1;fill-rule:nonzero;stroke:#000000;stroke-width:0.8;stroke-linecap:butt;stroke-linejoin:round;stroke-miterlimit:10;stroke-dasharray:none;stroke-opacity:1"
         d="m 47.81,345.24 h -3.5" /><text
         id="text1057"
         style="font-variant:normal;font-weight:normal;font-size:10px;font-family:'DejaVu Sans';-inkscape-font-specification:DejaVuSans;writing-mode:lr-tb;fill:#000000;fill-opacity:1;fill-rule:nonzero;stroke:none"
         transform="matrix(1,0,0,-1,24.90375,341.44312)"><tspan
           id="tspan1055"
           sodipodi:role="line"
           y="0"
           x="0 6.3600001 9.54">2.0</tspan></text><text
         id="text1061"
         style="font-variant:normal;font-weight:normal;font-size:10px;font-family:'DejaVu Sans';-inkscape-font-specification:DejaVuSans;writing-mode:lr-tb;fill:#000000;fill-opacity:1;fill-rule:nonzero;stroke:none"
         transform="matrix(0,1,1,0,18.825625,180.85)"><tspan
           id="tspan1059"
           sodipodi:role="line"
           y="0"
           x="0 6.3499999 9.8699999 13.24 19.59">df/dx</tspan></text></g><g
       id="g1063"><g
         clip-path="url(#clipPath1069)"
         id="g1065"><path
           inkscape:connector-curvature="0"
           id="path1071"
           style="fill:none;stroke:#1f77b4;stroke-width:1.5;stroke-linecap:butt;stroke-linejoin:round;stroke-miterlimit:10;stroke-dasharray:5.55, 2.4;stroke-dashoffset:0;stroke-opacity:1"
           d="M 61.395,92.506667 H 196.5554 V 361 m 1.37919,0 V 92.506667 h 1e-5 135.1604 v 0" /></g></g><g
       id="g1073"><g
         clip-path="url(#clipPath1079)"
         id="g1075"><path
           inkscape:connector-curvature="0"
           id="path1081"
           style="fill:none;stroke:#ff7f0e;stroke-width:1.5;stroke-linecap:square;stroke-linejoin:round;stroke-miterlimit:10;stroke-dasharray:none;stroke-opacity:1"
           d="m 61.395,93.368037 12.41269,0.485023 11.033502,0.648861 9.654315,0.807883 8.275123,0.931918 6.89594,0.989837 6.89594,1.2236 5.51675,1.172882 5.51675,1.364919 5.51675,1.57114 5.51676,1.78467 5.51675,1.99495 6.89594,2.75981 8.27512,3.59042 12.41269,5.40079 5.51675,2.11875 4.13757,1.36234 4.13756,1.10915 4.13756,0.81015 2.75838,0.35607 2.75837,0.20018 2.75838,0.047 1e-5,-0.007 2.75837,-0.12052 2.75838,-0.27882 4.13756,-0.70203 4.13756,-1.01413 4.13757,-1.28355 4.13756,-1.50211 5.51675,-2.2476 9.65432,-4.24891 9.65431,-4.16324 6.89594,-2.70474 5.51675,-1.94343 5.51675,-1.73111 5.51675,-1.51857 5.51675,-1.315387 6.89594,-1.382274 6.89594,-1.125476 6.89594,-0.906981 8.27513,-0.851163 9.65431,-0.735779 11.03351,-0.589573 9.65431,-0.35819 v 0" /></g></g><g
       id="g1083"><g
         clip-path="url(#clipPath1089)"
         id="g1085"><path
           inkscape:connector-curvature="0"
           id="path1091"
           style="fill:none;stroke:#2ca02c;stroke-width:1.5;stroke-linecap:butt;stroke-linejoin:round;stroke-miterlimit:10;stroke-dasharray:5.55, 2.4;stroke-dashoffset:0;stroke-opacity:1"
           d="m 61.395,92.530812 27.583756,0.15779 12.412694,0.269157 8.27512,0.374617 6.89594,0.539609 5.51675,0.674234 4.13757,0.714001 4.13756,0.960209 2.75837,0.816371 2.75838,0.991772 2.75838,1.202875 2.75837,1.455983 2.75838,1.75803 2.75837,2.11638 2.75838,2.53852 2.75837,3.03133 2.75838,3.60028 2.75838,4.24798 2.75837,4.97229 2.75838,5.76391 2.75837,6.60346 2.75838,7.45822 2.75837,8.27943 2.75838,9.00045 4.13756,14.42477 5.51675,19.2366 2.75838,8.61207 1.37919,3.82868 1.37918,3.42406 1.37919,2.9589 1.37919,2.43916 1.37919,1.87285 1.37918,1.26981 1.37919,0.64139 1.37919,0.10733 1e-5,-0.10733 1.37918,-0.64139 1.37919,-1.26981 1.37919,-1.87285 1.37919,-2.43916 1.37919,-2.9589 1.37918,-3.42406 1.37919,-3.82868 2.75838,-8.61207 4.13756,-14.32785 5.51675,-19.33352 2.75838,-9.00045 2.75837,-8.27943 2.75838,-7.45822 2.75837,-6.60346 2.75838,-5.76391 2.75837,-4.97229 2.75838,-4.24798 2.75838,-3.60028 2.75837,-3.03133 2.75838,-2.53852 2.75837,-2.11638 2.75838,-1.75803 2.75837,-1.455983 2.75838,-1.202875 2.75837,-0.991772 4.13757,-1.168391 4.13756,-0.870115 4.13756,-0.64659 5.51676,-0.610251 6.89593,-0.488173 8.27513,-0.33879 12.41269,-0.243357 20.68782,-0.128302 5.51675,-0.01202 v 0" /></g></g><g
       id="g1093"><g
         clip-path="url(#clipPath1099)"
         id="g1095"><path
           inkscape:connector-curvature="0"
           id="path1101"
           style="fill:none;stroke:#d62728;stroke-width:1.5;stroke-linecap:butt;stroke-linejoin:round;stroke-miterlimit:10;stroke-dasharray:9.6, 2.4, 1.5, 2.4;stroke-dashoffset:0;stroke-opacity:1"
           d="m 61.395,92.506667 h 136.53959 m 1e-5,126.366663 H 333.095 v 0" /></g></g><g
       id="g1103"><g
         clip-path="url(#clipPath1109)"
         id="g1105"><path
           inkscape:connector-curvature="0"
           id="path1111"
           style="fill:none;stroke:#9467bd;stroke-width:1.5;stroke-linecap:butt;stroke-linejoin:round;stroke-miterlimit:10;stroke-dasharray:5.55, 2.4;stroke-dashoffset:0;stroke-opacity:1"
           d="m 61.395,98.825 h 136.53959 m 1e-5,120.04833 H 333.095 v 0" /></g></g><g
       id="g1113"><path
         inkscape:connector-curvature="0"
         id="path1115"
         style="fill:none;stroke:#000000;stroke-width:0.8;stroke-linecap:square;stroke-linejoin:miter;stroke-miterlimit:10;stroke-dasharray:none;stroke-opacity:1"
         d="M 47.81,41.96 V 345.24" /><path
         inkscape:connector-curvature="0"
         id="path1117"
         style="fill:none;stroke:#000000;stroke-width:0.8;stroke-linecap:square;stroke-linejoin:miter;stroke-miterlimit:10;stroke-dasharray:none;stroke-opacity:1"
         d="M 346.68,41.96 V 345.24" /><path
         inkscape:connector-curvature="0"
         id="path1119"
         style="fill:none;stroke:#000000;stroke-width:0.8;stroke-linecap:square;stroke-linejoin:miter;stroke-miterlimit:10;stroke-dasharray:none;stroke-opacity:1"
         d="M 47.81,41.96 H 346.68" /><path
         inkscape:connector-curvature="0"
         id="path1121"
         style="fill:none;stroke:#000000;stroke-width:0.8;stroke-linecap:square;stroke-linejoin:miter;stroke-miterlimit:10;stroke-dasharray:none;stroke-opacity:1"
         d="M 47.81,345.24 H 346.68" /><g
         transform="rotate(90,-61.613256,257.58383)"
         id="g1123"><g
           transform="matrix(0.01,0,0,0.01,1.9482422,0.71875)"
           id="g1125"><g
             id="g1127"><g
               clip-path="url(#clipPath1133)"
               id="g1129"><path
                 inkscape:connector-curvature="0"
                 id="path1135"
                 style="fill:#0000ff;fill-opacity:1;fill-rule:nonzero;stroke:none"
                 d="M 789,335 V 292 L 597,100 539,158 652,272 H 57 v 83 h 595 l -113,114 58,58 192,-192" /></g></g></g><g
           transform="matrix(0.01,0,0,0.01,12.275391,0.71875)"
           id="g1137"><g
             id="g1139"><g
               clip-path="url(#clipPath1145)"
               id="g1141"><path
                 inkscape:connector-curvature="0"
                 id="path1147"
                 style="fill:#0000ff;fill-opacity:1;fill-rule:nonzero;stroke:none"
                 d="m 456,170 c -11,12 -24,31 -39,59 -22,-40 -43,-68 -62,-84 -24,-22 -55,-32 -92,-32 -44,0 -81,16 -110,50 -31,34 -46,79 -46,137 0,54 15,100 46,138 27,32 64,49 111,49 23,0 44,-5 62,-15 20,-11 37,-26 51,-44 13,-17 26,-36 40,-58 21,38 41,66 61,84 24,20 54,31 92,31 44,0 80,-17 110,-49 30,-35 46,-81 46,-137 0,-55 -16,-101 -46,-138 -28,-33 -65,-49 -111,-49 -24,0 -44,4 -62,14 -18,9 -35,24 -51,44 m -199,7 c 54,0 97,39 129,117 -42,85 -85,128 -129,128 -33,0 -57,-12 -73,-35 -18,-25 -27,-54 -27,-87 0,-37 9,-67 27,-89 18,-23 42,-34 73,-34 m 319,244 c -49,0 -92,-39 -129,-117 40,-86 83,-128 129,-128 32,0 57,11 73,35 18,25 27,54 27,88 0,36 -9,66 -27,88 -18,22 -43,34 -73,34" /></g></g></g></g><path
         inkscape:connector-curvature="0"
         id="path1149"
         style="fill:#ffffff;fill-opacity:1;fill-rule:nonzero;stroke:#cccccc;stroke-width:1;stroke-linecap:butt;stroke-linejoin:miter;stroke-miterlimit:10;stroke-dasharray:none;stroke-opacity:1"
         d="m 61,263.25625 h 106 c 1.33333,0 2,0.66667 2,2 V 338.6 c 0,1.33333 -0.66667,2 -2,2 H 61 c -1.333333,0 -2,-0.66667 -2,-2 v -73.34375 c 0,-1.33333 0.666667,-2 2,-2 z" /><path
         inkscape:connector-curvature="0"
         id="path1151"
         style="fill:none;stroke:#1f77b4;stroke-width:1.5;stroke-linecap:butt;stroke-linejoin:round;stroke-miterlimit:10;stroke-dasharray:5.55, 2.4;stroke-dashoffset:0;stroke-opacity:1"
         d="M 63,332.17812 H 83" /><g
         transform="translate(91,328.67812)"
         id="g1153"><text
           id="text1157"
           style="font-variant:normal;font-weight:normal;font-size:10px;font-family:'DejaVu Sans';-inkscape-font-specification:DejaVuSans;writing-mode:lr-tb;fill:#000000;fill-opacity:1;fill-rule:nonzero;stroke:none"
           transform="matrix(1,0,0,-1,6.1181641,0.328125)"><tspan
             id="tspan1155"
             sodipodi:role="line"
             y="0"
             x="0 3.9013672 9.8193359">(x)</tspan></text><g
           transform="matrix(0.01,0,0,0.01,0,0.328125)"
           id="g1159"><g
             id="g1161"><g
               clip-path="url(#clipPath1167)"
               id="g1163"><path
                 inkscape:connector-curvature="0"
                 id="path1169"
                 style="fill:#000000;fill-opacity:1;fill-rule:nonzero;stroke:none"
                 d="M 455,347 H 145 c -14,-98 -14,-167 0,-208 18,-51 51,-76 100,-76 48,0 91,25 129,76 32,45 59,114 81,208 m 15,83 c 8,92 7,154 -4,187 -18,51 -51,77 -98,77 -50,0 -94,-26 -130,-76 -29,-41 -54,-104 -76,-188 h 308 m -88,338 c 78,0 132,-35 164,-104 31,-69 35,-164 11,-286 C 533,256 493,161 435,93 377,24 308,-10 230,-10 152,-10 97,24 66,93 35,161 31,256 55,378 c 24,122 64,217 122,286 58,69 126,104 205,104" /></g></g></g></g><path
         inkscape:connector-curvature="0"
         id="path1171"
         style="fill:none;stroke:#ff7f0e;stroke-width:1.5;stroke-linecap:square;stroke-linejoin:round;stroke-miterlimit:10;stroke-dasharray:none;stroke-opacity:1"
         d="M 63,317.17812 H 83" /><g
         transform="translate(91,313.67812)"
         id="g1173"><text
           id="text1177"
           style="font-variant:normal;font-weight:normal;font-size:10px;font-family:'DejaVu Sans';-inkscape-font-specification:DejaVuSans;writing-mode:lr-tb;fill:#000000;fill-opacity:1;fill-rule:nonzero;stroke:none"
           transform="matrix(1,0,0,-1,6.3378906,0.40625)"><tspan
             id="tspan1175"
             sodipodi:role="line"
             y="0"
             x="0 3.9013672 9.8193359">(x)</tspan></text><g
           transform="matrix(0.01,0,0,0.01,0,0.40625)"
           id="g1179"><g
             id="g1181"><g
               clip-path="url(#clipPath1187)"
               id="g1183"><path
                 inkscape:connector-curvature="0"
                 id="path1189"
                 style="fill:#000000;fill-opacity:1;fill-rule:nonzero;stroke:none"
                 d="m 347,476 c -50,0 -92,-18 -125,-54 -36,-38 -59,-87 -71,-149 -13,-66 -9,-117 12,-155 20,-38 55,-56 104,-56 47,0 88,19 124,57 35,37 59,88 72,154 11,59 7,109 -13,149 -19,36 -53,54 -103,54 m 14,71 H 659 L 642,457 H 541 C 566,406 572,345 559,273 541,183 505,113 451,63 396,12 329,-13 251,-13 173,-13 116,12 82,63 47,113 39,183 57,273 c 17,90 53,160 107,211 45,42 111,63 197,63" /></g></g></g></g><path
         inkscape:connector-curvature="0"
         id="path1191"
         style="fill:none;stroke:#2ca02c;stroke-width:1.5;stroke-linecap:butt;stroke-linejoin:round;stroke-miterlimit:10;stroke-dasharray:5.55, 2.4;stroke-dashoffset:0;stroke-opacity:1"
         d="M 63,302.50625 H 83" /><text
         id="text1195"
         style="font-variant:normal;font-weight:normal;font-size:10px;font-family:'DejaVu Sans';-inkscape-font-specification:DejaVuSans;writing-mode:lr-tb;fill:#000000;fill-opacity:1;fill-rule:nonzero;stroke:none"
         transform="matrix(1,0,0,-1,91,299.00625)"><tspan
           id="tspan1193"
           sodipodi:role="line"
           y="0"
           x="0 3.9200001 10.05 16.389999 22.73 26.629999 32.549999">tanh(x)</tspan></text><path
         inkscape:connector-curvature="0"
         id="path1197"
         style="fill:none;stroke:#d62728;stroke-width:1.5;stroke-linecap:butt;stroke-linejoin:round;stroke-miterlimit:10;stroke-dasharray:9.6, 2.4, 1.5, 2.4;stroke-dashoffset:0;stroke-opacity:1"
         d="M 63,287.83437 H 83" /><text
         id="text1201"
         style="font-variant:normal;font-weight:normal;font-size:10px;font-family:'DejaVu Sans';-inkscape-font-specification:DejaVuSans;writing-mode:lr-tb;fill:#000000;fill-opacity:1;fill-rule:nonzero;stroke:none"
         transform="matrix(1,0,0,-1,91,284.33437)"><tspan
           id="tspan1199"
           sodipodi:role="line"
           y="0"
           x="0 6.9499998 13.1 18.67 25.01 28.91 34.830002">ReLu(x)</tspan></text><path
         inkscape:connector-curvature="0"
         id="path1203"
         style="fill:none;stroke:#9467bd;stroke-width:1.5;stroke-linecap:butt;stroke-linejoin:round;stroke-miterlimit:10;stroke-dasharray:1.5, 2.475;stroke-dashoffset:0;stroke-opacity:1"
         d="M 63,272.83437 H 83" /><g
         transform="translate(91,269.33437)"
         id="g1205"><text
           id="text1209"
           style="font-variant:normal;font-weight:normal;font-size:10px;font-family:'DejaVu Sans';-inkscape-font-specification:DejaVuSans;writing-mode:lr-tb;fill:#000000;fill-opacity:1;fill-rule:nonzero;stroke:none"
           transform="matrix(1,0,0,-1,0,0.40625)"><tspan
             id="tspan1207"
             sodipodi:role="line"
             y="0"
             x="0 5.5712891 12.519531 18.671875 24.243164">LReLu</tspan></text><text
           id="text1213"
           style="font-variant:normal;font-weight:normal;font-size:7px;font-family:'DejaVu Sans';-inkscape-font-specification:DejaVuSans;writing-mode:lr-tb;fill:#000000;fill-opacity:1;fill-rule:nonzero;stroke:none"
           transform="matrix(1,0,0,-1,36.654785,-1.234375)"><tspan
             id="tspan1211"
             sodipodi:role="line"
             y="0"
             x="0 7.2290039 11.682617 13.907715 18.361328">=0.05</tspan></text><text
           id="text1217"
           style="font-variant:normal;font-weight:normal;font-size:10px;font-family:'DejaVu Sans';-inkscape-font-specification:DejaVuSans;writing-mode:lr-tb;fill:#000000;fill-opacity:1;fill-rule:nonzero;stroke:none"
           transform="matrix(1,0,0,-1,59.743164,0.40625)"><tspan
             id="tspan1215"
             sodipodi:role="line"
             y="0"
             x="0 3.9013672 9.8193359">(x)</tspan></text><g
           transform="matrix(0.007,0,0,0.007,30.676758,-1.234375)"
           id="g1219"><g
             id="g1221"><g
               clip-path="url(#clipPath1227)"
               id="g1223"><path
                 inkscape:connector-curvature="0"
                 id="path1229"
                 style="fill:#000000;fill-opacity:1;fill-rule:nonzero;stroke:none"
                 d="m 409,254 1,113 c 0,76 -29,115 -87,116 -44,0 -79,-18 -105,-54 -34,-45 -57,-97 -68,-156 -14,-72 -13,-125 5,-159 18,-35 47,-52 87,-52 43,0 83,34 120,104 l 47,88 m -71,305 c 102,2 152,-50 151,-155 0,0 25,47 76,143 h 80 L 487,250 486,144 c 0,-16 4,-31 13,-44 10,-16 20,-24 31,-24 h 43 L 559,0 H 504 C 473,0 447,13 425,41 415,55 409,76 409,104 387,69 359,37 323,8 305,-5 273,-11 227,-11 151,-10 99,14 71,62 43,112 37,183 55,273 c 18,96 53,167 103,211 55,49 115,74 180,75" /></g></g></g></g></g></g></svg>
