<?xml version="1.0" encoding="UTF-8" standalone="no"?>
<svg
   xmlns:dc="http://purl.org/dc/elements/1.1/"
   xmlns:cc="http://creativecommons.org/ns#"
   xmlns:rdf="http://www.w3.org/1999/02/22-rdf-syntax-ns#"
   xmlns:svg="http://www.w3.org/2000/svg"
   xmlns="http://www.w3.org/2000/svg"
   xmlns:sodipodi="http://sodipodi.sourceforge.net/DTD/sodipodi-0.dtd"
   xmlns:inkscape="http://www.inkscape.org/namespaces/inkscape"
   inkscape:version="1.0rc1 (09960d6, 2020-04-09)"
   sodipodi:docname="activationfunctions.pdf"
   viewBox="0 0 480 480"
   height="480"
   width="480"
   xml:space="preserve"
   id="svg833"
   version="1.1"><metadata
     id="metadata839"><rdf:RDF><cc:Work
         rdf:about=""><dc:format>image/svg+xml</dc:format><dc:type
           rdf:resource="http://purl.org/dc/dcmitype/StillImage" /><dc:title></dc:title></cc:Work></rdf:RDF></metadata><defs
     id="defs837"><clipPath
       id="clipPath853"
       clipPathUnits="userSpaceOnUse"><path
         inkscape:connector-curvature="0"
         id="path851"
         d="M 46.64,41.96 H 346.68 V 345.24 H 46.64 Z" /></clipPath><clipPath
       id="clipPath875"
       clipPathUnits="userSpaceOnUse"><path
         inkscape:connector-curvature="0"
         id="path873"
         d="M -1021,-463 H 1794 V 1233 H -1021 Z" /></clipPath><clipPath
       id="clipPath885"
       clipPathUnits="userSpaceOnUse"><path
         inkscape:connector-curvature="0"
         id="path883"
         d="M 46.64,41.96 H 346.68 V 345.24 H 46.64 Z" /></clipPath><clipPath
       id="clipPath907"
       clipPathUnits="userSpaceOnUse"><path
         inkscape:connector-curvature="0"
         id="path905"
         d="M -1021,-463 H 1794 V 1233 H -1021 Z" /></clipPath><clipPath
       id="clipPath917"
       clipPathUnits="userSpaceOnUse"><path
         inkscape:connector-curvature="0"
         id="path915"
         d="M 46.64,41.96 H 346.68 V 345.24 H 46.64 Z" /></clipPath><clipPath
       id="clipPath935"
       clipPathUnits="userSpaceOnUse"><path
         inkscape:connector-curvature="0"
         id="path933"
         d="M 46.64,41.96 H 346.68 V 345.24 H 46.64 Z" /></clipPath><clipPath
       id="clipPath953"
       clipPathUnits="userSpaceOnUse"><path
         inkscape:connector-curvature="0"
         id="path951"
         d="M 46.64,41.96 H 346.68 V 345.24 H 46.64 Z" /></clipPath><clipPath
       id="clipPath975"
       clipPathUnits="userSpaceOnUse"><path
         inkscape:connector-curvature="0"
         id="path973"
         d="M 46.64,41.96 H 346.68 V 345.24 H 46.64 Z" /></clipPath><clipPath
       id="clipPath997"
       clipPathUnits="userSpaceOnUse"><path
         inkscape:connector-curvature="0"
         id="path995"
         d="M -1021,-463 H 1794 V 1233 H -1021 Z" /></clipPath><clipPath
       id="clipPath1007"
       clipPathUnits="userSpaceOnUse"><path
         inkscape:connector-curvature="0"
         id="path1005"
         d="M 46.64,41.96 H 346.68 V 345.24 H 46.64 Z" /></clipPath><clipPath
       id="clipPath1025"
       clipPathUnits="userSpaceOnUse"><path
         inkscape:connector-curvature="0"
         id="path1023"
         d="M 46.64,41.96 H 346.68 V 345.24 H 46.64 Z" /></clipPath><clipPath
       id="clipPath1043"
       clipPathUnits="userSpaceOnUse"><path
         inkscape:connector-curvature="0"
         id="path1041"
         d="M 46.64,41.96 H 346.68 V 345.24 H 46.64 Z" /></clipPath><clipPath
       id="clipPath1061"
       clipPathUnits="userSpaceOnUse"><path
         inkscape:connector-curvature="0"
         id="path1059"
         d="M 46.64,41.96 H 346.68 V 345.24 H 46.64 Z" /></clipPath><clipPath
       id="clipPath1079"
       clipPathUnits="userSpaceOnUse"><path
         inkscape:connector-curvature="0"
         id="path1077"
         d="M 46.64,41.96 H 346.68 V 345.24 H 46.64 Z" /></clipPath><clipPath
       id="clipPath1097"
       clipPathUnits="userSpaceOnUse"><path
         inkscape:connector-curvature="0"
         id="path1095"
         d="M 46.64,41.96 H 346.68 V 345.24 H 46.64 Z" /></clipPath><clipPath
       id="clipPath1119"
       clipPathUnits="userSpaceOnUse"><path
         inkscape:connector-curvature="0"
         id="path1117"
         d="M 46.64,41.96 H 346.68 V 345.24 H 46.64 Z" /></clipPath><clipPath
       id="clipPath1129"
       clipPathUnits="userSpaceOnUse"><path
         inkscape:connector-curvature="0"
         id="path1127"
         d="M 46.64,41.96 H 346.68 V 345.24 H 46.64 Z" /></clipPath><clipPath
       id="clipPath1139"
       clipPathUnits="userSpaceOnUse"><path
         inkscape:connector-curvature="0"
         id="path1137"
         d="M 46.64,41.96 H 346.68 V 345.24 H 46.64 Z" /></clipPath><clipPath
       id="clipPath1149"
       clipPathUnits="userSpaceOnUse"><path
         inkscape:connector-curvature="0"
         id="path1147"
         d="M 46.64,41.96 H 346.68 V 345.24 H 46.64 Z" /></clipPath><clipPath
       id="clipPath1159"
       clipPathUnits="userSpaceOnUse"><path
         inkscape:connector-curvature="0"
         id="path1157"
         d="M 46.64,41.96 H 346.68 V 345.24 H 46.64 Z" /></clipPath><clipPath
       id="clipPath1191"
       clipPathUnits="userSpaceOnUse"><path
         inkscape:connector-curvature="0"
         id="path1189"
         d="M -1016,-351 H 1660 V 1068 H -1016 Z" /></clipPath><clipPath
       id="clipPath1211"
       clipPathUnits="userSpaceOnUse"><path
         inkscape:connector-curvature="0"
         id="path1209"
         d="M -1016,-351 H 1660 V 1068 H -1016 Z" /></clipPath><clipPath
       id="clipPath1251"
       clipPathUnits="userSpaceOnUse"><path
         inkscape:connector-curvature="0"
         id="path1249"
         d="M -1016,-351 H 1660 V 1068 H -1016 Z" /></clipPath></defs><sodipodi:namedview
     inkscape:current-layer="g841"
     inkscape:window-maximized="0"
     inkscape:window-y="222"
     inkscape:window-x="1598"
     inkscape:cy="240"
     inkscape:cx="240"
     inkscape:zoom="1.2083333"
     showgrid="false"
     id="namedview835"
     inkscape:window-height="973"
     inkscape:window-width="1814"
     inkscape:pageshadow="2"
     inkscape:pageopacity="0"
     guidetolerance="10"
     gridtolerance="10"
     objecttolerance="10"
     borderopacity="1"
     bordercolor="#666666"
     pagecolor="#ffffff" /><g
     transform="matrix(1.3333333,0,0,-1.3333333,0,480)"
     inkscape:label="activationfunctions"
     inkscape:groupmode="layer"
     id="g841"><path
       inkscape:connector-curvature="0"
       id="path843"
       style="fill:#ffffff;fill-opacity:1;fill-rule:nonzero;stroke:none"
       d="M 0,0 H 360 V 360 H 0 Z" /><path
       inkscape:connector-curvature="0"
       id="path845"
       style="fill:#ffffff;fill-opacity:1;fill-rule:nonzero;stroke:none"
       d="M 46.64,41.96 H 346.68 V 345.24 H 46.64 Z" /><g
       id="g847"><g
         clip-path="url(#clipPath853)"
         id="g849"><path
           inkscape:connector-curvature="0"
           id="path855"
           style="fill:none;stroke:#b0b0b0;stroke-width:0.8;stroke-linecap:square;stroke-linejoin:round;stroke-miterlimit:10;stroke-dasharray:none;stroke-opacity:1"
           d="M 87.554545,41.96 V 345.24" /></g></g><g
       id="g857"><path
         inkscape:connector-curvature="0"
         id="path859"
         style="fill:#000000;fill-opacity:1;fill-rule:nonzero;stroke:#000000;stroke-width:0.8;stroke-linecap:butt;stroke-linejoin:round;stroke-miterlimit:10;stroke-dasharray:none;stroke-opacity:1"
         d="m 87.554545,41.96 v -3.5" /><g
         transform="translate(80.187358,27.36625)"
         id="g861"><text
           id="text865"
           style="font-variant:normal;font-weight:normal;font-size:10px;font-family:'DejaVu Sans';-inkscape-font-specification:DejaVuSans;writing-mode:lr-tb;fill:#000000;fill-opacity:1;fill-rule:nonzero;stroke:none"
           transform="matrix(1,0,0,-1,8.3789063,0)"><tspan
             id="tspan863"
             y="0"
             x="0">4</tspan></text><g
           transform="scale(0.01)"
           id="g867"><g
             id="g869"><g
               clip-path="url(#clipPath875)"
               id="g871"><path
                 inkscape:connector-curvature="0"
                 id="path877"
                 style="fill:#000000;fill-opacity:1;fill-rule:nonzero;stroke:none"
                 d="M 106,355 H 732 V 272 H 106 v 83" /></g></g></g></g></g><g
       id="g879"><g
         clip-path="url(#clipPath885)"
         id="g881"><path
           inkscape:connector-curvature="0"
           id="path887"
           style="fill:none;stroke:#b0b0b0;stroke-width:0.8;stroke-linecap:square;stroke-linejoin:round;stroke-miterlimit:10;stroke-dasharray:none;stroke-opacity:1"
           d="M 142.10727,41.96 V 345.24" /></g></g><g
       id="g889"><path
         inkscape:connector-curvature="0"
         id="path891"
         style="fill:#000000;fill-opacity:1;fill-rule:nonzero;stroke:#000000;stroke-width:0.8;stroke-linecap:butt;stroke-linejoin:round;stroke-miterlimit:10;stroke-dasharray:none;stroke-opacity:1"
         d="m 142.10727,41.96 v -3.5" /><g
         transform="translate(134.74009,27.36625)"
         id="g893"><text
           id="text897"
           style="font-variant:normal;font-weight:normal;font-size:10px;font-family:'DejaVu Sans';-inkscape-font-specification:DejaVuSans;writing-mode:lr-tb;fill:#000000;fill-opacity:1;fill-rule:nonzero;stroke:none"
           transform="matrix(1,0,0,-1,8.3789063,0)"><tspan
             id="tspan895"
             y="0"
             x="0">2</tspan></text><g
           transform="scale(0.01)"
           id="g899"><g
             id="g901"><g
               clip-path="url(#clipPath907)"
               id="g903"><path
                 inkscape:connector-curvature="0"
                 id="path909"
                 style="fill:#000000;fill-opacity:1;fill-rule:nonzero;stroke:none"
                 d="M 106,355 H 732 V 272 H 106 v 83" /></g></g></g></g></g><g
       id="g911"><g
         clip-path="url(#clipPath917)"
         id="g913"><path
           inkscape:connector-curvature="0"
           id="path919"
           style="fill:none;stroke:#b0b0b0;stroke-width:0.8;stroke-linecap:square;stroke-linejoin:round;stroke-miterlimit:10;stroke-dasharray:none;stroke-opacity:1"
           d="M 196.66,41.96 V 345.24" /></g></g><g
       id="g921"><path
         inkscape:connector-curvature="0"
         id="path923"
         style="fill:#000000;fill-opacity:1;fill-rule:nonzero;stroke:#000000;stroke-width:0.8;stroke-linecap:butt;stroke-linejoin:round;stroke-miterlimit:10;stroke-dasharray:none;stroke-opacity:1"
         d="m 196.66,41.96 v -3.5" /><text
         id="text927"
         style="font-variant:normal;font-weight:normal;font-size:10px;font-family:'DejaVu Sans';-inkscape-font-specification:DejaVuSans;writing-mode:lr-tb;fill:#000000;fill-opacity:1;fill-rule:nonzero;stroke:none"
         transform="matrix(1,0,0,-1,193.48031,27.36625)"><tspan
           id="tspan925"
           y="0"
           x="0">0</tspan></text></g><g
       id="g929"><g
         clip-path="url(#clipPath935)"
         id="g931"><path
           inkscape:connector-curvature="0"
           id="path937"
           style="fill:none;stroke:#b0b0b0;stroke-width:0.8;stroke-linecap:square;stroke-linejoin:round;stroke-miterlimit:10;stroke-dasharray:none;stroke-opacity:1"
           d="M 251.21273,41.96 V 345.24" /></g></g><g
       id="g939"><path
         inkscape:connector-curvature="0"
         id="path941"
         style="fill:#000000;fill-opacity:1;fill-rule:nonzero;stroke:#000000;stroke-width:0.8;stroke-linecap:butt;stroke-linejoin:round;stroke-miterlimit:10;stroke-dasharray:none;stroke-opacity:1"
         d="m 251.21273,41.96 v -3.5" /><text
         id="text945"
         style="font-variant:normal;font-weight:normal;font-size:10px;font-family:'DejaVu Sans';-inkscape-font-specification:DejaVuSans;writing-mode:lr-tb;fill:#000000;fill-opacity:1;fill-rule:nonzero;stroke:none"
         transform="matrix(1,0,0,-1,248.03304,27.36625)"><tspan
           id="tspan943"
           y="0"
           x="0">2</tspan></text></g><g
       id="g947"><g
         clip-path="url(#clipPath953)"
         id="g949"><path
           inkscape:connector-curvature="0"
           id="path955"
           style="fill:none;stroke:#b0b0b0;stroke-width:0.8;stroke-linecap:square;stroke-linejoin:round;stroke-miterlimit:10;stroke-dasharray:none;stroke-opacity:1"
           d="M 305.76545,41.96 V 345.24" /></g></g><g
       id="g957"><path
         inkscape:connector-curvature="0"
         id="path959"
         style="fill:#000000;fill-opacity:1;fill-rule:nonzero;stroke:#000000;stroke-width:0.8;stroke-linecap:butt;stroke-linejoin:round;stroke-miterlimit:10;stroke-dasharray:none;stroke-opacity:1"
         d="m 305.76545,41.96 v -3.5" /><text
         id="text963"
         style="font-variant:normal;font-weight:normal;font-size:10px;font-family:'DejaVu Sans';-inkscape-font-specification:DejaVuSans;writing-mode:lr-tb;fill:#000000;fill-opacity:1;fill-rule:nonzero;stroke:none"
         transform="matrix(1,0,0,-1,302.58577,27.36625)"><tspan
           id="tspan961"
           y="0"
           x="0">4</tspan></text><text
         id="text967"
         style="font-variant:normal;font-weight:normal;font-size:10px;font-family:'DejaVu Sans';-inkscape-font-specification:DejaVuSans;writing-mode:lr-tb;fill:#000000;fill-opacity:1;fill-rule:nonzero;stroke:none"
         transform="matrix(1,0,0,-1,163.98031,13.694375)"><tspan
           id="tspan965"
           sodipodi:role="line"
           y="0"
           x="0 2.78 9.1199999 15.47 21.809999 25.73 28.91 34.830002 40.959999 43.740002 50.080002 56.23 59.41">input value x</tspan></text></g><g
       id="g969"><g
         clip-path="url(#clipPath975)"
         id="g971"><path
           inkscape:connector-curvature="0"
           id="path977"
           style="fill:none;stroke:#b0b0b0;stroke-width:0.8;stroke-linecap:square;stroke-linejoin:round;stroke-miterlimit:10;stroke-dasharray:none;stroke-opacity:1"
           d="M 46.64,44.466446 H 346.68" /></g></g><g
       id="g979"><path
         inkscape:connector-curvature="0"
         id="path981"
         style="fill:#000000;fill-opacity:1;fill-rule:nonzero;stroke:#000000;stroke-width:0.8;stroke-linecap:butt;stroke-linejoin:round;stroke-miterlimit:10;stroke-dasharray:none;stroke-opacity:1"
         d="m 46.64,44.466446 h -3.5" /><g
         transform="translate(24.905625,40.669571)"
         id="g983"><text
           id="text987"
           style="font-variant:normal;font-weight:normal;font-size:10px;font-family:'DejaVu Sans';-inkscape-font-specification:DejaVuSans;writing-mode:lr-tb;fill:#000000;fill-opacity:1;fill-rule:nonzero;stroke:none"
           transform="matrix(1,0,0,-1,8.3789063,0)"><tspan
             id="tspan985"
             y="0"
             x="0">1</tspan></text><g
           transform="scale(0.01)"
           id="g989"><g
             id="g991"><g
               clip-path="url(#clipPath997)"
               id="g993"><path
                 inkscape:connector-curvature="0"
                 id="path999"
                 style="fill:#000000;fill-opacity:1;fill-rule:nonzero;stroke:none"
                 d="M 106,355 H 732 V 272 H 106 v 83" /></g></g></g></g></g><g
       id="g1001"><g
         clip-path="url(#clipPath1007)"
         id="g1003"><path
           inkscape:connector-curvature="0"
           id="path1009"
           style="fill:none;stroke:#b0b0b0;stroke-width:0.8;stroke-linecap:square;stroke-linejoin:round;stroke-miterlimit:10;stroke-dasharray:none;stroke-opacity:1"
           d="M 46.64,94.595372 H 346.68" /></g></g><g
       id="g1011"><path
         inkscape:connector-curvature="0"
         id="path1013"
         style="fill:#000000;fill-opacity:1;fill-rule:nonzero;stroke:#000000;stroke-width:0.8;stroke-linecap:butt;stroke-linejoin:round;stroke-miterlimit:10;stroke-dasharray:none;stroke-opacity:1"
         d="m 46.64,94.595372 h -3.5" /><text
         id="text1017"
         style="font-variant:normal;font-weight:normal;font-size:10px;font-family:'DejaVu Sans';-inkscape-font-specification:DejaVuSans;writing-mode:lr-tb;fill:#000000;fill-opacity:1;fill-rule:nonzero;stroke:none"
         transform="matrix(1,0,0,-1,33.280625,90.798497)"><tspan
           id="tspan1015"
           y="0"
           x="0">0</tspan></text></g><g
       id="g1019"><g
         clip-path="url(#clipPath1025)"
         id="g1021"><path
           inkscape:connector-curvature="0"
           id="path1027"
           style="fill:none;stroke:#b0b0b0;stroke-width:0.8;stroke-linecap:square;stroke-linejoin:round;stroke-miterlimit:10;stroke-dasharray:none;stroke-opacity:1"
           d="M 46.64,144.7243 H 346.68" /></g></g><g
       id="g1029"><path
         inkscape:connector-curvature="0"
         id="path1031"
         style="fill:#000000;fill-opacity:1;fill-rule:nonzero;stroke:#000000;stroke-width:0.8;stroke-linecap:butt;stroke-linejoin:round;stroke-miterlimit:10;stroke-dasharray:none;stroke-opacity:1"
         d="m 46.64,144.7243 h -3.5" /><text
         id="text1035"
         style="font-variant:normal;font-weight:normal;font-size:10px;font-family:'DejaVu Sans';-inkscape-font-specification:DejaVuSans;writing-mode:lr-tb;fill:#000000;fill-opacity:1;fill-rule:nonzero;stroke:none"
         transform="matrix(1,0,0,-1,33.280625,140.92742)"><tspan
           id="tspan1033"
           y="0"
           x="0">1</tspan></text></g><g
       id="g1037"><g
         clip-path="url(#clipPath1043)"
         id="g1039"><path
           inkscape:connector-curvature="0"
           id="path1045"
           style="fill:none;stroke:#b0b0b0;stroke-width:0.8;stroke-linecap:square;stroke-linejoin:round;stroke-miterlimit:10;stroke-dasharray:none;stroke-opacity:1"
           d="M 46.64,194.85322 H 346.68" /></g></g><g
       id="g1047"><path
         inkscape:connector-curvature="0"
         id="path1049"
         style="fill:#000000;fill-opacity:1;fill-rule:nonzero;stroke:#000000;stroke-width:0.8;stroke-linecap:butt;stroke-linejoin:round;stroke-miterlimit:10;stroke-dasharray:none;stroke-opacity:1"
         d="m 46.64,194.85322 h -3.5" /><text
         id="text1053"
         style="font-variant:normal;font-weight:normal;font-size:10px;font-family:'DejaVu Sans';-inkscape-font-specification:DejaVuSans;writing-mode:lr-tb;fill:#000000;fill-opacity:1;fill-rule:nonzero;stroke:none"
         transform="matrix(1,0,0,-1,33.280625,191.05635)"><tspan
           id="tspan1051"
           y="0"
           x="0">2</tspan></text></g><g
       id="g1055"><g
         clip-path="url(#clipPath1061)"
         id="g1057"><path
           inkscape:connector-curvature="0"
           id="path1063"
           style="fill:none;stroke:#b0b0b0;stroke-width:0.8;stroke-linecap:square;stroke-linejoin:round;stroke-miterlimit:10;stroke-dasharray:none;stroke-opacity:1"
           d="M 46.64,244.98215 H 346.68" /></g></g><g
       id="g1065"><path
         inkscape:connector-curvature="0"
         id="path1067"
         style="fill:#000000;fill-opacity:1;fill-rule:nonzero;stroke:#000000;stroke-width:0.8;stroke-linecap:butt;stroke-linejoin:round;stroke-miterlimit:10;stroke-dasharray:none;stroke-opacity:1"
         d="m 46.64,244.98215 h -3.5" /><text
         id="text1071"
         style="font-variant:normal;font-weight:normal;font-size:10px;font-family:'DejaVu Sans';-inkscape-font-specification:DejaVuSans;writing-mode:lr-tb;fill:#000000;fill-opacity:1;fill-rule:nonzero;stroke:none"
         transform="matrix(1,0,0,-1,33.280625,241.18527)"><tspan
           id="tspan1069"
           y="0"
           x="0">3</tspan></text></g><g
       id="g1073"><g
         clip-path="url(#clipPath1079)"
         id="g1075"><path
           inkscape:connector-curvature="0"
           id="path1081"
           style="fill:none;stroke:#b0b0b0;stroke-width:0.8;stroke-linecap:square;stroke-linejoin:round;stroke-miterlimit:10;stroke-dasharray:none;stroke-opacity:1"
           d="M 46.64,295.11107 H 346.68" /></g></g><g
       id="g1083"><path
         inkscape:connector-curvature="0"
         id="path1085"
         style="fill:#000000;fill-opacity:1;fill-rule:nonzero;stroke:#000000;stroke-width:0.8;stroke-linecap:butt;stroke-linejoin:round;stroke-miterlimit:10;stroke-dasharray:none;stroke-opacity:1"
         d="m 46.64,295.11107 h -3.5" /><text
         id="text1089"
         style="font-variant:normal;font-weight:normal;font-size:10px;font-family:'DejaVu Sans';-inkscape-font-specification:DejaVuSans;writing-mode:lr-tb;fill:#000000;fill-opacity:1;fill-rule:nonzero;stroke:none"
         transform="matrix(1,0,0,-1,33.280625,291.3142)"><tspan
           id="tspan1087"
           y="0"
           x="0">4</tspan></text></g><g
       id="g1091"><g
         clip-path="url(#clipPath1097)"
         id="g1093"><path
           inkscape:connector-curvature="0"
           id="path1099"
           style="fill:none;stroke:#b0b0b0;stroke-width:0.8;stroke-linecap:square;stroke-linejoin:round;stroke-miterlimit:10;stroke-dasharray:none;stroke-opacity:1"
           d="M 46.64,345.24 H 346.68" /></g></g><g
       id="g1101"><path
         inkscape:connector-curvature="0"
         id="path1103"
         style="fill:#000000;fill-opacity:1;fill-rule:nonzero;stroke:#000000;stroke-width:0.8;stroke-linecap:butt;stroke-linejoin:round;stroke-miterlimit:10;stroke-dasharray:none;stroke-opacity:1"
         d="m 46.64,345.24 h -3.5" /><text
         id="text1107"
         style="font-variant:normal;font-weight:normal;font-size:10px;font-family:'DejaVu Sans';-inkscape-font-specification:DejaVuSans;writing-mode:lr-tb;fill:#000000;fill-opacity:1;fill-rule:nonzero;stroke:none"
         transform="matrix(1,0,0,-1,33.280625,341.44312)"><tspan
           id="tspan1105"
           y="0"
           x="0">5</tspan></text><text
         id="text1111"
         style="font-variant:normal;font-weight:normal;font-size:10px;font-family:'DejaVu Sans';-inkscape-font-specification:DejaVuSans;writing-mode:lr-tb;fill:#000000;fill-opacity:1;fill-rule:nonzero;stroke:none"
         transform="matrix(0,1,1,0,18.8275,184.975)"><tspan
           id="tspan1109"
           sodipodi:role="line"
           y="0"
           x="0 3.52 7.4200001 13.34">f(x)</tspan></text></g><g
       id="g1113"><g
         clip-path="url(#clipPath1119)"
         id="g1115"><path
           inkscape:connector-curvature="0"
           id="path1121"
           style="fill:none;stroke:#1f77b4;stroke-width:1.5;stroke-linecap:butt;stroke-linejoin:round;stroke-miterlimit:10;stroke-dasharray:5.55, 2.4;stroke-dashoffset:0;stroke-opacity:1"
           d="M 60.278182,94.595372 H 196.66 V 144.7243 h 136.38182 v 0" /></g></g><g
       id="g1123"><g
         clip-path="url(#clipPath1129)"
         id="g1125"><path
           inkscape:connector-curvature="0"
           id="path1131"
           style="fill:none;stroke:#ff7f0e;stroke-width:1.5;stroke-linecap:square;stroke-linejoin:round;stroke-miterlimit:10;stroke-dasharray:none;stroke-opacity:1"
           d="m 60.278182,94.930877 19.286317,0.340264 15.153535,0.490357 11.020756,0.560574 9.64316,0.696879 8.26556,0.80263 8.26556,1.044645 6.88798,1.095555 6.88796,1.335519 6.88798,1.60618 5.51037,1.49619 5.51038,1.69156 5.51037,1.88656 6.88797,2.61737 6.88798,2.86646 9.64315,4.30302 17.90873,8.09341 6.88797,2.86646 6.88797,2.61737 5.51038,1.88656 5.51038,1.69156 5.51037,1.49618 5.51038,1.3075 6.88797,1.38735 6.88797,1.14091 6.88797,0.92749 8.26557,0.8774 9.64315,0.76421 11.02076,0.61637 12.39834,0.46232 16.53113,0.37138 8.26557,0.11768 v 0" /></g></g><g
       id="g1133"><g
         clip-path="url(#clipPath1139)"
         id="g1135"><path
           inkscape:connector-curvature="0"
           id="path1141"
           style="fill:none;stroke:#2ca02c;stroke-width:1.5;stroke-linecap:butt;stroke-linejoin:round;stroke-miterlimit:10;stroke-dasharray:5.55, 2.4;stroke-dashoffset:0;stroke-opacity:1"
           d="m 60.278182,44.470998 45.460608,0.122878 15.15353,0.258666 9.64316,0.393836 6.88797,0.505896 5.51038,0.627948 4.13278,0.660002 4.13278,0.879623 4.13278,1.16603 2.75519,0.976443 2.75519,1.168243 2.75519,1.391123 2.75519,1.647229 2.75518,1.937534 2.75519,2.261223 2.75519,2.614998 2.75519,2.992371 2.75519,3.383128 2.75519,3.773117 2.75518,4.144612 2.75519,4.477389 4.13278,7.20438 12.39836,22.279793 2.75519,4.47739 2.75518,4.14461 2.75519,3.77311 2.75519,3.38313 2.75519,2.99237 2.75519,2.615 2.75518,2.26122 2.75519,1.93754 2.75519,1.64723 2.75519,1.39112 2.75519,1.16824 2.75519,0.97645 4.13278,1.16603 4.13278,0.87962 4.13278,0.66 5.51038,0.62795 6.88797,0.5059 8.26556,0.35297 11.02076,0.23621 17.90872,0.13937 33.06226,0.0468 v 0" /></g></g><g
       id="g1143"><g
         clip-path="url(#clipPath1149)"
         id="g1145"><path
           inkscape:connector-curvature="0"
           id="path1151"
           style="fill:none;stroke:#d62728;stroke-width:1.5;stroke-linecap:butt;stroke-linejoin:round;stroke-miterlimit:10;stroke-dasharray:9.6, 2.4, 1.5, 2.4;stroke-dashoffset:0;stroke-opacity:1"
           d="M 60.278182,94.595372 196.66,94.595378 333.04182,345.24 v 0" /></g></g><g
       id="g1153"><g
         clip-path="url(#clipPath1159)"
         id="g1155"><path
           inkscape:connector-curvature="0"
           id="path1161"
           style="fill:none;stroke:#9467bd;stroke-width:1.5;stroke-linecap:butt;stroke-linejoin:round;stroke-miterlimit:10;stroke-dasharray:5.55, 2.4;stroke-dashoffset:0;stroke-opacity:1"
           d="M 60.278182,82.06314 196.66,94.595378 333.04182,345.24 v 0" /></g></g><g
       id="g1163"><path
         inkscape:connector-curvature="0"
         id="path1165"
         style="fill:none;stroke:#000000;stroke-width:0.8;stroke-linecap:square;stroke-linejoin:miter;stroke-miterlimit:10;stroke-dasharray:none;stroke-opacity:1"
         d="M 46.64,41.96 V 345.24" /><path
         inkscape:connector-curvature="0"
         id="path1167"
         style="fill:none;stroke:#000000;stroke-width:0.8;stroke-linecap:square;stroke-linejoin:miter;stroke-miterlimit:10;stroke-dasharray:none;stroke-opacity:1"
         d="M 346.68,41.96 V 345.24" /><path
         inkscape:connector-curvature="0"
         id="path1169"
         style="fill:none;stroke:#000000;stroke-width:0.8;stroke-linecap:square;stroke-linejoin:miter;stroke-miterlimit:10;stroke-dasharray:none;stroke-opacity:1"
         d="M 46.64,41.96 H 346.68" /><path
         inkscape:connector-curvature="0"
         id="path1171"
         style="fill:none;stroke:#000000;stroke-width:0.8;stroke-linecap:square;stroke-linejoin:miter;stroke-miterlimit:10;stroke-dasharray:none;stroke-opacity:1"
         d="M 46.64,345.24 H 346.68" /><path
         inkscape:connector-curvature="0"
         id="path1173"
         style="fill:#ffffff;fill-opacity:1;fill-rule:nonzero;stroke:#cccccc;stroke-width:1;stroke-linecap:butt;stroke-linejoin:miter;stroke-miterlimit:10;stroke-dasharray:none;stroke-opacity:1"
         d="m 61,263.25625 h 106 c 1.33333,0 2,0.66667 2,2 V 338.6 c 0,1.33333 -0.66667,2 -2,2 H 61 c -1.333333,0 -2,-0.66667 -2,-2 v -73.34375 c 0,-1.33333 0.666667,-2 2,-2 z" /><path
         inkscape:connector-curvature="0"
         id="path1175"
         style="fill:none;stroke:#1f77b4;stroke-width:1.5;stroke-linecap:butt;stroke-linejoin:round;stroke-miterlimit:10;stroke-dasharray:5.55, 2.4;stroke-dashoffset:0;stroke-opacity:1"
         d="M 63,332.17812 H 83" /><g
         transform="translate(91,328.67812)"
         id="g1177"><text
           id="text1181"
           style="font-variant:normal;font-weight:normal;font-size:10px;font-family:'DejaVu Sans';-inkscape-font-specification:DejaVuSans;writing-mode:lr-tb;fill:#000000;fill-opacity:1;fill-rule:nonzero;stroke:none"
           transform="matrix(1,0,0,-1,6.1181641,0.328125)"><tspan
             id="tspan1179"
             sodipodi:role="line"
             y="0"
             x="0 3.9013672 9.8193359">(x)</tspan></text><g
           transform="matrix(0.01,0,0,0.01,0,0.328125)"
           id="g1183"><g
             id="g1185"><g
               clip-path="url(#clipPath1191)"
               id="g1187"><path
                 inkscape:connector-curvature="0"
                 id="path1193"
                 style="fill:#000000;fill-opacity:1;fill-rule:nonzero;stroke:none"
                 d="M 455,347 H 145 c -14,-98 -14,-167 0,-208 18,-51 51,-76 100,-76 48,0 91,25 129,76 32,45 59,114 81,208 m 15,83 c 8,92 7,154 -4,187 -18,51 -51,77 -98,77 -50,0 -94,-26 -130,-76 -29,-41 -54,-104 -76,-188 h 308 m -88,338 c 78,0 132,-35 164,-104 31,-69 35,-164 11,-286 C 533,256 493,161 435,93 377,24 308,-10 230,-10 152,-10 97,24 66,93 35,161 31,256 55,378 c 24,122 64,217 122,286 58,69 126,104 205,104" /></g></g></g></g><path
         inkscape:connector-curvature="0"
         id="path1195"
         style="fill:none;stroke:#ff7f0e;stroke-width:1.5;stroke-linecap:square;stroke-linejoin:round;stroke-miterlimit:10;stroke-dasharray:none;stroke-opacity:1"
         d="M 63,317.17812 H 83" /><g
         transform="translate(91,313.67812)"
         id="g1197"><text
           id="text1201"
           style="font-variant:normal;font-weight:normal;font-size:10px;font-family:'DejaVu Sans';-inkscape-font-specification:DejaVuSans;writing-mode:lr-tb;fill:#000000;fill-opacity:1;fill-rule:nonzero;stroke:none"
           transform="matrix(1,0,0,-1,6.3378906,0.40625)"><tspan
             id="tspan1199"
             sodipodi:role="line"
             y="0"
             x="0 3.9013672 9.8193359">(x)</tspan></text><g
           transform="matrix(0.01,0,0,0.01,0,0.40625)"
           id="g1203"><g
             id="g1205"><g
               clip-path="url(#clipPath1211)"
               id="g1207"><path
                 inkscape:connector-curvature="0"
                 id="path1213"
                 style="fill:#000000;fill-opacity:1;fill-rule:nonzero;stroke:none"
                 d="m 347,476 c -50,0 -92,-18 -125,-54 -36,-38 -59,-87 -71,-149 -13,-66 -9,-117 12,-155 20,-38 55,-56 104,-56 47,0 88,19 124,57 35,37 59,88 72,154 11,59 7,109 -13,149 -19,36 -53,54 -103,54 m 14,71 H 659 L 642,457 H 541 C 566,406 572,345 559,273 541,183 505,113 451,63 396,12 329,-13 251,-13 173,-13 116,12 82,63 47,113 39,183 57,273 c 17,90 53,160 107,211 45,42 111,63 197,63" /></g></g></g></g><path
         inkscape:connector-curvature="0"
         id="path1215"
         style="fill:none;stroke:#2ca02c;stroke-width:1.5;stroke-linecap:butt;stroke-linejoin:round;stroke-miterlimit:10;stroke-dasharray:5.55, 2.4;stroke-dashoffset:0;stroke-opacity:1"
         d="M 63,302.50625 H 83" /><text
         id="text1219"
         style="font-variant:normal;font-weight:normal;font-size:10px;font-family:'DejaVu Sans';-inkscape-font-specification:DejaVuSans;writing-mode:lr-tb;fill:#000000;fill-opacity:1;fill-rule:nonzero;stroke:none"
         transform="matrix(1,0,0,-1,91,299.00625)"><tspan
           id="tspan1217"
           sodipodi:role="line"
           y="0"
           x="0 3.9200001 10.05 16.389999 22.73 26.629999 32.549999">tanh(x)</tspan></text><path
         inkscape:connector-curvature="0"
         id="path1221"
         style="fill:none;stroke:#d62728;stroke-width:1.5;stroke-linecap:butt;stroke-linejoin:round;stroke-miterlimit:10;stroke-dasharray:9.6, 2.4, 1.5, 2.4;stroke-dashoffset:0;stroke-opacity:1"
         d="M 63,287.83437 H 83" /><text
         id="text1225"
         style="font-variant:normal;font-weight:normal;font-size:10px;font-family:'DejaVu Sans';-inkscape-font-specification:DejaVuSans;writing-mode:lr-tb;fill:#000000;fill-opacity:1;fill-rule:nonzero;stroke:none"
         transform="matrix(1,0,0,-1,91,284.33437)"><tspan
           id="tspan1223"
           sodipodi:role="line"
           y="0"
           x="0 6.9499998 13.1 18.67 25.01 28.91 34.830002">ReLu(x)</tspan></text><path
         inkscape:connector-curvature="0"
         id="path1227"
         style="fill:none;stroke:#9467bd;stroke-width:1.5;stroke-linecap:butt;stroke-linejoin:round;stroke-miterlimit:10;stroke-dasharray:1.5, 2.475;stroke-dashoffset:0;stroke-opacity:1"
         d="M 63,272.83437 H 83" /><g
         transform="translate(91,269.33437)"
         id="g1229"><text
           id="text1233"
           style="font-variant:normal;font-weight:normal;font-size:10px;font-family:'DejaVu Sans';-inkscape-font-specification:DejaVuSans;writing-mode:lr-tb;fill:#000000;fill-opacity:1;fill-rule:nonzero;stroke:none"
           transform="matrix(1,0,0,-1,0,0.40625)"><tspan
             id="tspan1231"
             sodipodi:role="line"
             y="0"
             x="0 5.5712891 12.519531 18.671875 24.243164">LReLu</tspan></text><text
           id="text1237"
           style="font-variant:normal;font-weight:normal;font-size:7px;font-family:'DejaVu Sans';-inkscape-font-specification:DejaVuSans;writing-mode:lr-tb;fill:#000000;fill-opacity:1;fill-rule:nonzero;stroke:none"
           transform="matrix(1,0,0,-1,36.654785,-1.234375)"><tspan
             id="tspan1235"
             sodipodi:role="line"
             y="0"
             x="0 7.2290039 11.682617 13.907715 18.361328">=0.05</tspan></text><text
           id="text1241"
           style="font-variant:normal;font-weight:normal;font-size:10px;font-family:'DejaVu Sans';-inkscape-font-specification:DejaVuSans;writing-mode:lr-tb;fill:#000000;fill-opacity:1;fill-rule:nonzero;stroke:none"
           transform="matrix(1,0,0,-1,59.743164,0.40625)"><tspan
             id="tspan1239"
             sodipodi:role="line"
             y="0"
             x="0 3.9013672 9.8193359">(x)</tspan></text><g
           transform="matrix(0.007,0,0,0.007,30.676758,-1.234375)"
           id="g1243"><g
             id="g1245"><g
               clip-path="url(#clipPath1251)"
               id="g1247"><path
                 inkscape:connector-curvature="0"
                 id="path1253"
                 style="fill:#000000;fill-opacity:1;fill-rule:nonzero;stroke:none"
                 d="m 409,254 1,113 c 0,76 -29,115 -87,116 -44,0 -79,-18 -105,-54 -34,-45 -57,-97 -68,-156 -14,-72 -13,-125 5,-159 18,-35 47,-52 87,-52 43,0 83,34 120,104 l 47,88 m -71,305 c 102,2 152,-50 151,-155 0,0 25,47 76,143 h 80 L 487,250 486,144 c 0,-16 4,-31 13,-44 10,-16 20,-24 31,-24 h 43 L 559,0 H 504 C 473,0 447,13 425,41 415,55 409,76 409,104 387,69 359,37 323,8 305,-5 273,-11 227,-11 151,-10 99,14 71,62 43,112 37,183 55,273 c 18,96 53,167 103,211 55,49 115,74 180,75" /></g></g></g></g></g></g></svg>
