<?xml version="1.0" encoding="UTF-8" standalone="no"?>
<svg
   xmlns:dc="http://purl.org/dc/elements/1.1/"
   xmlns:cc="http://creativecommons.org/ns#"
   xmlns:rdf="http://www.w3.org/1999/02/22-rdf-syntax-ns#"
   xmlns:svg="http://www.w3.org/2000/svg"
   xmlns="http://www.w3.org/2000/svg"
   xmlns:sodipodi="http://sodipodi.sourceforge.net/DTD/sodipodi-0.dtd"
   xmlns:inkscape="http://www.inkscape.org/namespaces/inkscape"
   inkscape:version="1.0rc1 (09960d6, 2020-04-09)"
   sodipodi:docname="ROC_Motion_Diss.pdf"
   viewBox="0 0 546.21417 417.18268"
   height="417.18268"
   width="546.21417"
   xml:space="preserve"
   id="svg833"
   version="1.1"><metadata
     id="metadata839"><rdf:RDF><cc:Work
         rdf:about=""><dc:format>image/svg+xml</dc:format><dc:type
           rdf:resource="http://purl.org/dc/dcmitype/StillImage" /><dc:title></dc:title></cc:Work></rdf:RDF></metadata><defs
     id="defs837"><clipPath
       id="clipPath853"
       clipPathUnits="userSpaceOnUse"><path
         inkscape:connector-curvature="0"
         id="path851"
         d="M 41.840625,36.075 H 398.96062 V 302.187 H 41.840625 Z" /></clipPath><clipPath
       id="clipPath871"
       clipPathUnits="userSpaceOnUse"><path
         inkscape:connector-curvature="0"
         id="path869"
         d="M 41.840625,36.075 H 398.96062 V 302.187 H 41.840625 Z" /></clipPath><clipPath
       id="clipPath889"
       clipPathUnits="userSpaceOnUse"><path
         inkscape:connector-curvature="0"
         id="path887"
         d="M 41.840625,36.075 H 398.96062 V 302.187 H 41.840625 Z" /></clipPath><clipPath
       id="clipPath907"
       clipPathUnits="userSpaceOnUse"><path
         inkscape:connector-curvature="0"
         id="path905"
         d="M 41.840625,36.075 H 398.96062 V 302.187 H 41.840625 Z" /></clipPath><clipPath
       id="clipPath925"
       clipPathUnits="userSpaceOnUse"><path
         inkscape:connector-curvature="0"
         id="path923"
         d="M 41.840625,36.075 H 398.96062 V 302.187 H 41.840625 Z" /></clipPath><clipPath
       id="clipPath943"
       clipPathUnits="userSpaceOnUse"><path
         inkscape:connector-curvature="0"
         id="path941"
         d="M 41.840625,36.075 H 398.96062 V 302.187 H 41.840625 Z" /></clipPath><clipPath
       id="clipPath965"
       clipPathUnits="userSpaceOnUse"><path
         inkscape:connector-curvature="0"
         id="path963"
         d="M 41.840625,36.075 H 398.96062 V 302.187 H 41.840625 Z" /></clipPath><clipPath
       id="clipPath983"
       clipPathUnits="userSpaceOnUse"><path
         inkscape:connector-curvature="0"
         id="path981"
         d="M 41.840625,36.075 H 398.96062 V 302.187 H 41.840625 Z" /></clipPath><clipPath
       id="clipPath1001"
       clipPathUnits="userSpaceOnUse"><path
         inkscape:connector-curvature="0"
         id="path999"
         d="M 41.840625,36.075 H 398.96062 V 302.187 H 41.840625 Z" /></clipPath><clipPath
       id="clipPath1019"
       clipPathUnits="userSpaceOnUse"><path
         inkscape:connector-curvature="0"
         id="path1017"
         d="M 41.840625,36.075 H 398.96062 V 302.187 H 41.840625 Z" /></clipPath><clipPath
       id="clipPath1037"
       clipPathUnits="userSpaceOnUse"><path
         inkscape:connector-curvature="0"
         id="path1035"
         d="M 41.840625,36.075 H 398.96062 V 302.187 H 41.840625 Z" /></clipPath><clipPath
       id="clipPath1055"
       clipPathUnits="userSpaceOnUse"><path
         inkscape:connector-curvature="0"
         id="path1053"
         d="M 41.840625,36.075 H 398.96062 V 302.187 H 41.840625 Z" /></clipPath><clipPath
       id="clipPath1077"
       clipPathUnits="userSpaceOnUse"><path
         inkscape:connector-curvature="0"
         id="path1075"
         d="M 41.840625,36.075 H 398.96062 V 302.187 H 41.840625 Z" /></clipPath><clipPath
       id="clipPath1087"
       clipPathUnits="userSpaceOnUse"><path
         inkscape:connector-curvature="0"
         id="path1085"
         d="M 41.840625,36.075 H 398.96062 V 302.187 H 41.840625 Z" /></clipPath><clipPath
       id="clipPath1097"
       clipPathUnits="userSpaceOnUse"><path
         inkscape:connector-curvature="0"
         id="path1095"
         d="M 41.840625,36.075 H 398.96062 V 302.187 H 41.840625 Z" /></clipPath><clipPath
       id="clipPath1107"
       clipPathUnits="userSpaceOnUse"><path
         inkscape:connector-curvature="0"
         id="path1105"
         d="M 41.840625,36.075 H 398.96062 V 302.187 H 41.840625 Z" /></clipPath><clipPath
       id="clipPath1117"
       clipPathUnits="userSpaceOnUse"><path
         inkscape:connector-curvature="0"
         id="path1115"
         d="M 41.840625,36.075 H 398.96062 V 302.187 H 41.840625 Z" /></clipPath><clipPath
       id="clipPath1127"
       clipPathUnits="userSpaceOnUse"><path
         inkscape:connector-curvature="0"
         id="path1125"
         d="M 41.840625,36.075 H 398.96062 V 302.187 H 41.840625 Z" /></clipPath><clipPath
       id="clipPath1137"
       clipPathUnits="userSpaceOnUse"><path
         inkscape:connector-curvature="0"
         id="path1135"
         d="M 41.840625,36.075 H 398.96062 V 302.187 H 41.840625 Z" /></clipPath></defs><sodipodi:namedview
     inkscape:current-layer="g841"
     inkscape:window-maximized="0"
     inkscape:window-y="23"
     inkscape:window-x="0"
     inkscape:cy="208.59134"
     inkscape:cx="273.10709"
     inkscape:zoom="1.0618545"
     showgrid="false"
     id="namedview835"
     inkscape:window-height="480"
     inkscape:window-width="904"
     inkscape:pageshadow="2"
     inkscape:pageopacity="0"
     guidetolerance="10"
     gridtolerance="10"
     objecttolerance="10"
     borderopacity="1"
     bordercolor="#666666"
     pagecolor="#ffffff" /><g
     transform="matrix(1.3333333,0,0,-1.3333333,0,417.18267)"
     inkscape:label="ROC_Motion_Diss"
     inkscape:groupmode="layer"
     id="g841"><path
       inkscape:connector-curvature="0"
       id="path843"
       style="fill:#ffffff;fill-opacity:1;fill-rule:nonzero;stroke:none"
       d="M 0,0 H 409.66063 V 312.887 H 0 Z" /><path
       inkscape:connector-curvature="0"
       id="path845"
       style="fill:#ffffff;fill-opacity:1;fill-rule:nonzero;stroke:none"
       d="M 41.840625,36.075 H 398.96062 V 302.187 H 41.840625 Z" /><g
       id="g847"><g
         clip-path="url(#clipPath853)"
         id="g849"><path
           inkscape:connector-curvature="0"
           id="path855"
           style="fill:none;stroke:#808080;stroke-width:0.8;stroke-linecap:butt;stroke-linejoin:round;stroke-miterlimit:10;stroke-dasharray:2.96, 1.28;stroke-dashoffset:0;stroke-opacity:1"
           d="M 58.073352,36.075 V 302.187" /></g></g><g
       id="g857"><path
         inkscape:connector-curvature="0"
         id="path859"
         style="fill:#000000;fill-opacity:1;fill-rule:nonzero;stroke:#000000;stroke-width:0.8;stroke-linecap:butt;stroke-linejoin:round;stroke-miterlimit:10;stroke-dasharray:none;stroke-opacity:1"
         d="m 58.073352,36.075 v -3.5" /><text
         id="text863"
         style="font-variant:normal;font-weight:bold;font-size:10px;font-family:'CMU Serif';-inkscape-font-specification:CMUSerif-Bold;writing-mode:lr-tb;fill:#000000;fill-opacity:1;fill-rule:nonzero;stroke:none"
         transform="matrix(1,0,0,-1,50.729602,22.1375)"><tspan
           id="tspan861"
           sodipodi:role="line"
           y="0"
           x="0 5.75 8.9399996">0.0</tspan></text></g><g
       id="g865"><g
         clip-path="url(#clipPath871)"
         id="g867"><path
           inkscape:connector-curvature="0"
           id="path873"
           style="fill:none;stroke:#808080;stroke-width:0.8;stroke-linecap:butt;stroke-linejoin:round;stroke-miterlimit:10;stroke-dasharray:2.96, 1.28;stroke-dashoffset:0;stroke-opacity:1"
           d="M 123.00426,36.075 V 302.187" /></g></g><g
       id="g875"><path
         inkscape:connector-curvature="0"
         id="path877"
         style="fill:#000000;fill-opacity:1;fill-rule:nonzero;stroke:#000000;stroke-width:0.8;stroke-linecap:butt;stroke-linejoin:round;stroke-miterlimit:10;stroke-dasharray:none;stroke-opacity:1"
         d="m 123.00426,36.075 v -3.5" /><text
         id="text881"
         style="font-variant:normal;font-weight:bold;font-size:10px;font-family:'CMU Serif';-inkscape-font-specification:CMUSerif-Bold;writing-mode:lr-tb;fill:#000000;fill-opacity:1;fill-rule:nonzero;stroke:none"
         transform="matrix(1,0,0,-1,115.66051,22.1375)"><tspan
           id="tspan879"
           sodipodi:role="line"
           y="0"
           x="0 5.75 8.9399996">0.2</tspan></text></g><g
       id="g883"><g
         clip-path="url(#clipPath889)"
         id="g885"><path
           inkscape:connector-curvature="0"
           id="path891"
           style="fill:none;stroke:#808080;stroke-width:0.8;stroke-linecap:butt;stroke-linejoin:round;stroke-miterlimit:10;stroke-dasharray:2.96, 1.28;stroke-dashoffset:0;stroke-opacity:1"
           d="M 187.93517,36.075 V 302.187" /></g></g><g
       id="g893"><path
         inkscape:connector-curvature="0"
         id="path895"
         style="fill:#000000;fill-opacity:1;fill-rule:nonzero;stroke:#000000;stroke-width:0.8;stroke-linecap:butt;stroke-linejoin:round;stroke-miterlimit:10;stroke-dasharray:none;stroke-opacity:1"
         d="m 187.93517,36.075 v -3.5" /><text
         id="text899"
         style="font-variant:normal;font-weight:bold;font-size:10px;font-family:'CMU Serif';-inkscape-font-specification:CMUSerif-Bold;writing-mode:lr-tb;fill:#000000;fill-opacity:1;fill-rule:nonzero;stroke:none"
         transform="matrix(1,0,0,-1,180.59142,22.1375)"><tspan
           id="tspan897"
           sodipodi:role="line"
           y="0"
           x="0 5.75 8.9399996">0.4</tspan></text></g><g
       id="g901"><g
         clip-path="url(#clipPath907)"
         id="g903"><path
           inkscape:connector-curvature="0"
           id="path909"
           style="fill:none;stroke:#808080;stroke-width:0.8;stroke-linecap:butt;stroke-linejoin:round;stroke-miterlimit:10;stroke-dasharray:2.96, 1.28;stroke-dashoffset:0;stroke-opacity:1"
           d="M 252.86608,36.075 V 302.187" /></g></g><g
       id="g911"><path
         inkscape:connector-curvature="0"
         id="path913"
         style="fill:#000000;fill-opacity:1;fill-rule:nonzero;stroke:#000000;stroke-width:0.8;stroke-linecap:butt;stroke-linejoin:round;stroke-miterlimit:10;stroke-dasharray:none;stroke-opacity:1"
         d="m 252.86608,36.075 v -3.5" /><text
         id="text917"
         style="font-variant:normal;font-weight:bold;font-size:10px;font-family:'CMU Serif';-inkscape-font-specification:CMUSerif-Bold;writing-mode:lr-tb;fill:#000000;fill-opacity:1;fill-rule:nonzero;stroke:none"
         transform="matrix(1,0,0,-1,245.52233,22.1375)"><tspan
           id="tspan915"
           sodipodi:role="line"
           y="0"
           x="0 5.75 8.9399996">0.6</tspan></text></g><g
       id="g919"><g
         clip-path="url(#clipPath925)"
         id="g921"><path
           inkscape:connector-curvature="0"
           id="path927"
           style="fill:none;stroke:#808080;stroke-width:0.8;stroke-linecap:butt;stroke-linejoin:round;stroke-miterlimit:10;stroke-dasharray:2.96, 1.28;stroke-dashoffset:0;stroke-opacity:1"
           d="M 317.79699,36.075 V 302.187" /></g></g><g
       id="g929"><path
         inkscape:connector-curvature="0"
         id="path931"
         style="fill:#000000;fill-opacity:1;fill-rule:nonzero;stroke:#000000;stroke-width:0.8;stroke-linecap:butt;stroke-linejoin:round;stroke-miterlimit:10;stroke-dasharray:none;stroke-opacity:1"
         d="m 317.79699,36.075 v -3.5" /><text
         id="text935"
         style="font-variant:normal;font-weight:bold;font-size:10px;font-family:'CMU Serif';-inkscape-font-specification:CMUSerif-Bold;writing-mode:lr-tb;fill:#000000;fill-opacity:1;fill-rule:nonzero;stroke:none"
         transform="matrix(1,0,0,-1,310.45324,22.1375)"><tspan
           id="tspan933"
           sodipodi:role="line"
           y="0"
           x="0 5.75 8.9399996">0.8</tspan></text></g><g
       id="g937"><g
         clip-path="url(#clipPath943)"
         id="g939"><path
           inkscape:connector-curvature="0"
           id="path945"
           style="fill:none;stroke:#808080;stroke-width:0.8;stroke-linecap:butt;stroke-linejoin:round;stroke-miterlimit:10;stroke-dasharray:2.96, 1.28;stroke-dashoffset:0;stroke-opacity:1"
           d="M 382.7279,36.075 V 302.187" /></g></g><g
       id="g947"><path
         inkscape:connector-curvature="0"
         id="path949"
         style="fill:#000000;fill-opacity:1;fill-rule:nonzero;stroke:#000000;stroke-width:0.8;stroke-linecap:butt;stroke-linejoin:round;stroke-miterlimit:10;stroke-dasharray:none;stroke-opacity:1"
         d="m 382.7279,36.075 v -3.5" /><text
         id="text953"
         style="font-variant:normal;font-weight:bold;font-size:10px;font-family:'CMU Serif';-inkscape-font-specification:CMUSerif-Bold;writing-mode:lr-tb;fill:#000000;fill-opacity:1;fill-rule:nonzero;stroke:none"
         transform="matrix(1,0,0,-1,375.38415,22.1375)"><tspan
           id="tspan951"
           sodipodi:role="line"
           y="0"
           x="0 5.75 8.9399996">1.0</tspan></text><text
         id="text957"
         style="font-variant:normal;font-weight:bold;font-size:10px;font-family:'CMU Serif';-inkscape-font-specification:CMUSerif-Bold;writing-mode:lr-tb;fill:#000000;fill-opacity:1;fill-rule:nonzero;stroke:none"
         transform="matrix(1,0,0,-1,186.78344,9.2)"><tspan
           id="tspan955"
           sodipodi:role="line"
           y="0"
           x="0 5.75 9.5799999 13.41 17.24 21.77 28.15 33.419998 38.529999 41.720001 45.23 48.419998 53.529999 56.720001 61.189999">1 - specificity</tspan></text></g><g
       id="g959"><g
         clip-path="url(#clipPath965)"
         id="g961"><path
           inkscape:connector-curvature="0"
           id="path967"
           style="fill:none;stroke:#808080;stroke-width:0.8;stroke-linecap:butt;stroke-linejoin:round;stroke-miterlimit:10;stroke-dasharray:2.96, 1.28;stroke-dashoffset:0;stroke-opacity:1"
           d="M 41.840625,48.171 H 398.96062" /></g></g><g
       id="g969"><path
         inkscape:connector-curvature="0"
         id="path971"
         style="fill:#000000;fill-opacity:1;fill-rule:nonzero;stroke:#000000;stroke-width:0.8;stroke-linecap:butt;stroke-linejoin:round;stroke-miterlimit:10;stroke-dasharray:none;stroke-opacity:1"
         d="m 41.840625,48.171 h -3.5" /><text
         id="text975"
         style="font-variant:normal;font-weight:bold;font-size:10px;font-family:'CMU Serif';-inkscape-font-specification:CMUSerif-Bold;writing-mode:lr-tb;fill:#000000;fill-opacity:1;fill-rule:nonzero;stroke:none"
         transform="matrix(1,0,0,-1,20.153125,44.70225)"><tspan
           id="tspan973"
           sodipodi:role="line"
           y="0"
           x="0 5.75 8.9399996">0.0</tspan></text></g><g
       id="g977"><g
         clip-path="url(#clipPath983)"
         id="g979"><path
           inkscape:connector-curvature="0"
           id="path985"
           style="fill:none;stroke:#808080;stroke-width:0.8;stroke-linecap:butt;stroke-linejoin:round;stroke-miterlimit:10;stroke-dasharray:2.96, 1.28;stroke-dashoffset:0;stroke-opacity:1"
           d="M 41.840625,96.555 H 398.96062" /></g></g><g
       id="g987"><path
         inkscape:connector-curvature="0"
         id="path989"
         style="fill:#000000;fill-opacity:1;fill-rule:nonzero;stroke:#000000;stroke-width:0.8;stroke-linecap:butt;stroke-linejoin:round;stroke-miterlimit:10;stroke-dasharray:none;stroke-opacity:1"
         d="m 41.840625,96.555 h -3.5" /><text
         id="text993"
         style="font-variant:normal;font-weight:bold;font-size:10px;font-family:'CMU Serif';-inkscape-font-specification:CMUSerif-Bold;writing-mode:lr-tb;fill:#000000;fill-opacity:1;fill-rule:nonzero;stroke:none"
         transform="matrix(1,0,0,-1,20.153125,93.08625)"><tspan
           id="tspan991"
           sodipodi:role="line"
           y="0"
           x="0 5.75 8.9399996">0.2</tspan></text></g><g
       id="g995"><g
         clip-path="url(#clipPath1001)"
         id="g997"><path
           inkscape:connector-curvature="0"
           id="path1003"
           style="fill:none;stroke:#808080;stroke-width:0.8;stroke-linecap:butt;stroke-linejoin:round;stroke-miterlimit:10;stroke-dasharray:2.96, 1.28;stroke-dashoffset:0;stroke-opacity:1"
           d="M 41.840625,144.939 H 398.96062" /></g></g><g
       id="g1005"><path
         inkscape:connector-curvature="0"
         id="path1007"
         style="fill:#000000;fill-opacity:1;fill-rule:nonzero;stroke:#000000;stroke-width:0.8;stroke-linecap:butt;stroke-linejoin:round;stroke-miterlimit:10;stroke-dasharray:none;stroke-opacity:1"
         d="m 41.840625,144.939 h -3.5" /><text
         id="text1011"
         style="font-variant:normal;font-weight:bold;font-size:10px;font-family:'CMU Serif';-inkscape-font-specification:CMUSerif-Bold;writing-mode:lr-tb;fill:#000000;fill-opacity:1;fill-rule:nonzero;stroke:none"
         transform="matrix(1,0,0,-1,20.153125,141.47025)"><tspan
           id="tspan1009"
           sodipodi:role="line"
           y="0"
           x="0 5.75 8.9399996">0.4</tspan></text></g><g
       id="g1013"><g
         clip-path="url(#clipPath1019)"
         id="g1015"><path
           inkscape:connector-curvature="0"
           id="path1021"
           style="fill:none;stroke:#808080;stroke-width:0.8;stroke-linecap:butt;stroke-linejoin:round;stroke-miterlimit:10;stroke-dasharray:2.96, 1.28;stroke-dashoffset:0;stroke-opacity:1"
           d="M 41.840625,193.323 H 398.96062" /></g></g><g
       id="g1023"><path
         inkscape:connector-curvature="0"
         id="path1025"
         style="fill:#000000;fill-opacity:1;fill-rule:nonzero;stroke:#000000;stroke-width:0.8;stroke-linecap:butt;stroke-linejoin:round;stroke-miterlimit:10;stroke-dasharray:none;stroke-opacity:1"
         d="m 41.840625,193.323 h -3.5" /><text
         id="text1029"
         style="font-variant:normal;font-weight:bold;font-size:10px;font-family:'CMU Serif';-inkscape-font-specification:CMUSerif-Bold;writing-mode:lr-tb;fill:#000000;fill-opacity:1;fill-rule:nonzero;stroke:none"
         transform="matrix(1,0,0,-1,20.153125,189.85425)"><tspan
           id="tspan1027"
           sodipodi:role="line"
           y="0"
           x="0 5.75 8.9399996">0.6</tspan></text></g><g
       id="g1031"><g
         clip-path="url(#clipPath1037)"
         id="g1033"><path
           inkscape:connector-curvature="0"
           id="path1039"
           style="fill:none;stroke:#808080;stroke-width:0.8;stroke-linecap:butt;stroke-linejoin:round;stroke-miterlimit:10;stroke-dasharray:2.96, 1.28;stroke-dashoffset:0;stroke-opacity:1"
           d="M 41.840625,241.707 H 398.96062" /></g></g><g
       id="g1041"><path
         inkscape:connector-curvature="0"
         id="path1043"
         style="fill:#000000;fill-opacity:1;fill-rule:nonzero;stroke:#000000;stroke-width:0.8;stroke-linecap:butt;stroke-linejoin:round;stroke-miterlimit:10;stroke-dasharray:none;stroke-opacity:1"
         d="m 41.840625,241.707 h -3.5" /><text
         id="text1047"
         style="font-variant:normal;font-weight:bold;font-size:10px;font-family:'CMU Serif';-inkscape-font-specification:CMUSerif-Bold;writing-mode:lr-tb;fill:#000000;fill-opacity:1;fill-rule:nonzero;stroke:none"
         transform="matrix(1,0,0,-1,20.153125,238.23825)"><tspan
           id="tspan1045"
           sodipodi:role="line"
           y="0"
           x="0 5.75 8.9399996">0.8</tspan></text></g><g
       id="g1049"><g
         clip-path="url(#clipPath1055)"
         id="g1051"><path
           inkscape:connector-curvature="0"
           id="path1057"
           style="fill:none;stroke:#808080;stroke-width:0.8;stroke-linecap:butt;stroke-linejoin:round;stroke-miterlimit:10;stroke-dasharray:2.96, 1.28;stroke-dashoffset:0;stroke-opacity:1"
           d="M 41.840625,290.091 H 398.96062" /></g></g><g
       id="g1059"><path
         inkscape:connector-curvature="0"
         id="path1061"
         style="fill:#000000;fill-opacity:1;fill-rule:nonzero;stroke:#000000;stroke-width:0.8;stroke-linecap:butt;stroke-linejoin:round;stroke-miterlimit:10;stroke-dasharray:none;stroke-opacity:1"
         d="m 41.840625,290.091 h -3.5" /><text
         id="text1065"
         style="font-variant:normal;font-weight:bold;font-size:10px;font-family:'CMU Serif';-inkscape-font-specification:CMUSerif-Bold;writing-mode:lr-tb;fill:#000000;fill-opacity:1;fill-rule:nonzero;stroke:none"
         transform="matrix(1,0,0,-1,20.153125,286.62225)"><tspan
           id="tspan1063"
           sodipodi:role="line"
           y="0"
           x="0 5.75 8.9399996">1.0</tspan></text><text
         id="text1069"
         style="font-variant:normal;font-weight:bold;font-size:10px;font-family:'CMU Serif';-inkscape-font-specification:CMUSerif-Bold;writing-mode:lr-tb;fill:#000000;fill-opacity:1;fill-rule:nonzero;stroke:none"
         transform="matrix(0,1,1,0,14.153125,143.46694)"><tspan
           id="tspan1067"
           sodipodi:role="line"
           y="0"
           x="0 4.5300002 9.8000002 16.18 20.709999 23.9 28.370001 31.559999 37.619999 40.810001 45.279999">sensitivity</tspan></text></g><g
       id="g1071"><g
         clip-path="url(#clipPath1077)"
         id="g1073"><path
           inkscape:connector-curvature="0"
           id="path1079"
           style="fill:none;stroke:#000000;stroke-width:2;stroke-linecap:butt;stroke-linejoin:round;stroke-miterlimit:10;stroke-dasharray:7.4, 3.2;stroke-dashoffset:0;stroke-opacity:1"
           d="M 58.073352,48.171 382.7279,290.091" /></g></g><g
       id="g1081"><g
         clip-path="url(#clipPath1087)"
         id="g1083"><path
           inkscape:connector-curvature="0"
           id="path1089"
           style="fill:none;stroke:#bf00bf;stroke-width:1.5;stroke-linecap:square;stroke-linejoin:round;stroke-miterlimit:10;stroke-dasharray:none;stroke-opacity:1"
           d="m 58.073352,48.171 0.109966,3.961219 0.03055,0.818905 0.109966,3.846953 0.0046,0.03809 v 0.05713 l 0.07942,2.342451 0.109966,4.608726 0.0046,0.07618 0.109966,5.199099 0.0046,0.07618 0.108438,5.065789 0.0061,0.01904 v 0.05713 l 0.109966,6.03705 0.0076,0.09522 0.109966,4.913435 0.0046,0.09522 0.109966,3.637466 0.0031,0.07618 0.109966,3.827908 h 0.0015 v 0.07618 l 0.109965,4.456371 0.0031,0.03809 0.109966,4.056438 h 0.0015 l 0.109966,4.05644 0.0061,0.0952 0.108439,2.91378 0.0076,0.0952 0.109966,2.76142 0.0031,0.0381 0.109966,3.12327 0.0092,0.0762 0.109966,2.8376 0.0031,0.0571 0.108439,3.21849 0.01527,0.0762 0.108439,2.60907 0.0076,0.0381 0.109966,2.3615 0.0046,0.0952 0.109966,2.34245 0.0031,0.0381 0.108438,1.59972 0.0092,0.0571 0.109966,2.30437 h 0.0031 l 0.109966,2.79951 0.0046,0.0381 v 0.0381 l 0.108439,2.07583 0.03055,0.0952 0.109966,1.96157 h 0.0015 v 0.0571 l 0.109966,2.60907 0.0092,0.0952 0.108439,1.71399 0.0076,0.0762 0.108439,1.92348 0.01069,0.0952 0.106911,2.13296 0.0061,0.0381 0.108438,1.77112 0.0076,0.0952 0.109966,1.58068 0.0076,0.0762 0.108439,1.42832 0.01069,0.0571 0.108439,1.35214 0.01527,0.0762 0.108438,1.54259 0.01527,0.0762 0.108439,1.94252 0.01069,0.0952 0.106911,1.61877 0.01833,0.0952 0.109966,1.3331 0.0061,0.0381 0.109966,1.31406 0.01375,0.0952 0.108438,1.25692 0.0076,0.0571 0.109966,1.00935 0.01527,0.0762 0.109966,1.06648 0.01222,0.0952 0.103857,1.80921 0.01375,0.0952 0.109966,1.3331 0.0061,0.0381 0.105384,1.18075 0.01222,0.0952 0.109966,0.91413 0.03207,0.0952 0.108438,1.08553 0.02902,0.0952 0.106911,0.97126 0.01222,0.0762 0.108438,1.1998 0.01069,0.0952 0.106911,1.00935 0.01527,0.0952 0.109966,1.04744 0.02138,0.0952 0.105384,0.78081 0.01375,0.0952 0.108439,0.59037 0.02444,0.0381 0.109966,0.9903 0.01833,0.0952 0.108439,1.06649 0.0168,0.0762 0.108439,0.72369 0.0076,0.0952 0.109966,0.95222 0.01527,0.0952 0.105384,0.6475 0.01375,0.0952 0.109966,0.87603 0.01069,0.0952 0.109966,0.57133 0.01375,0.0952 0.109965,0.85699 0.02596,0.0762 0.109966,0.85699 0.0168,0.0571 0.108439,0.89508 0.03818,0.0952 0.108439,0.53324 0.01985,0.0952 0.109966,1.00935 0.0031,0.019 0.10233,0.62846 0.03818,0.0952 0.109966,0.60942 0.0092,0.0762 0.106911,0.60941 0.02749,0.0952 0.106911,0.53324 h 0.0031 l 0.01069,0.0952 0.102329,0.68559 0.02138,0.0952 0.09622,0.74273 h 0.01222 l 0.01069,0.019 0.103857,0.45706 0.03055,0.0952 0.109966,0.62847 0.0168,0.0762 0.109966,0.66655 0.03971,0.0762 0.109966,0.83795 0.01375,0.0952 0.102329,0.45707 0.02138,0.0762 0.109966,0.57132 0.02902,0.0952 0.109966,0.43802 0.04429,0.0952 0.109966,0.53324 0.04887,0.0952 0.17564,0.89508 0.0504,0.0952 0.109966,0.45707 0.03055,0.0762 0.109966,0.57133 0.0336,0.0952 0.09317,0.36184 0.05804,0.0952 0.105384,0.53324 0.03513,0.0952 0.108438,0.64751 0.02902,0.0952 0.105384,0.64751 0.02291,0.0952 0.108438,0.49515 0.0336,0.0952 0.09775,0.45707 0.04429,0.0952 0.106912,0.5142 0.01985,0.0762 0.108438,0.64751 0.01985,0.0952 0.105384,0.60942 0.01986,0.0762 0.106911,0.39993 0.04277,0.0952 0.105384,0.28566 0.04124,0.0952 0.09622,0.4761 0.04887,0.0952 0.109966,0.34279 0.03055,0.0952 0.09317,0.43802 0.03666,0.0952 0.108439,0.55228 0.04582,0.0952 0.108438,0.43802 0.04124,0.0952 0.148148,0.49516 0.02444,0.0571 v 0.0381 l 0.108439,0.38088 0.01069,0.0381 0.105384,0.57133 0.05651,0.0952 0.100802,0.24758 h 0.0076 l 0.01985,0.0952 0.102329,0.3428 0.05193,0.0952 0.109966,0.38089 0.01833,0.0952 0.109966,0.26662 0.04276,0.0952 0.105384,0.26662 0.04735,0.0762 0.109966,0.3428 0.05804,0.0762 0.09011,0.26662 0.06109,0.0952 0.09622,0.34279 0.06262,0.0952 0.09164,0.28566 0.03055,0.019 0.06567,0.47611 h 0.04429 l 0.125238,0.43802 0.06415,0.0952 0.108439,0.45707 0.03665,0.0952 0.103857,0.3428 0.04735,0.0952 0.103857,0.32375 0.05193,0.0762 0.108439,0.30471 0.02444,0.0762 0.09164,0.24757 h 0.0168 l 0.01985,0.0952 0.108438,0.39993 0.05346,0.0952 0.09316,0.26662 0.07026,0.0952 0.09317,0.41897 0.07178,0.0952 0.09622,0.20949 0.06415,0.0762 0.09775,0.24758 0.06415,0.0952 0.109965,0.32375 0.05193,0.0762 0.109966,0.39993 0.05193,0.0952 0.100802,0.3428 0.07331,0.0952 0.09622,0.20949 0.05346,0.0952 0.108438,0.3428 0.05193,0.0952 0.105384,0.38088 0.03207,0.0952 0.109966,0.36184 0.111493,0.0952 0.103857,0.22853 0.05193,0.0762 0.09011,0.22853 0.05193,0.0952 0.109966,0.32376 0.02902,0.0952 0.108439,0.15235 0.06567,0.0952 0.100802,0.15236 0.05651,0.0952 0.105384,0.24758 0.0504,0.0952 0.10233,0.20948 0.04276,0.0952 0.106912,0.15235 0.0336,0.0952 0.103857,0.28567 h 0.0061 l 0.03818,0.0952 0.109966,0.13331 0.08247,0.0952 0.10233,0.32375 h 0.0076 l 0.08553,0.0952 0.106912,0.26662 0.07331,0.0952 0.103857,0.19044 0.04735,0.0762 0.09622,0.28566 0.08553,0.0952 0.108438,0.1714 0.117603,0.0952 0.103856,0.26663 0.06109,0.0952 0.09316,0.22853 0.103857,0.0952 0.108438,0.30471 0.111494,0.0952 0.103856,0.0952 0.07178,0.0952 0.105384,0.11427 0.06567,0.0952 0.084,0.15236 0.09927,0.0952 0.09164,0.1714 0.09011,0.0952 0.105384,0.26662 0.03971,0.0571 0.109966,0.24758 0.03055,0.0571 0.105384,0.26662 0.04887,0.0762 0.100802,0.20949 0.11913,0.0952 0.106912,0.15235 0.05804,0.0952 0.106911,0.13331 0.09317,0.0952 0.105384,0.22853 0.07331,0.0762 0.09469,0.20948 0.04887,0.0952 0.09011,0.0762 0.09317,0.0952 0.120657,0.15236 0.03665,0.0952 0.109966,0.26662 0.05498,0.0952 0.109966,0.0952 0.04735,0.0952 0.09622,0.22854 h 0.01375 l 0.111494,0.22853 0.06873,0.0952 0.103857,0.15235 0.155785,0.0952 0.103857,0.24757 0.117602,0.0952 0.09775,0.15236 h 0.01222 l 0.114548,0.0952 0.102329,0.22853 0.06109,0.0952 0.103856,0.1714 0.09928,0.0952 0.109966,0.26663 0.06567,0.0952 0.09469,0.15235 0.09011,0.0952 0.105384,0.15236 0.113021,0.0762 0.102329,0.13331 0.111493,0.0952 0.08248,0.11426 0.09775,0.0952 0.09164,0.13331 h 0.01833 l 0.100802,0.13331 0.13593,0.0952 0.108439,0.17139 0.09316,0.0952 0.07789,0.15235 0.134403,0.0952 0.108438,0.15236 0.126767,0.0952 0.103856,0.22853 0.103857,0.0952 0.105384,0.19044 0.06109,0.0952 0.08095,0.13331 0.105384,0.0952 0.123712,0.1714 0.131348,0.0952 0.08706,0.20949 0.142039,0.0952 0.09317,0.28566 0.142039,0.0952 0.08553,0.0571 0.125239,0.0952 0.128293,0.1714 0.0672,0.0952 0.108438,0.20949 0.186332,0.0952 0.09316,0.13331 0.08858,0.0952 0.08247,0.1714 0.132876,0.0952 0.07026,0.13331 0.15884,0.0952 0.07637,0.0952 0.123711,0.0952 0.06873,0.22853 h 0.03513 l 0.07942,0.0952 0.09164,0.15235 h 0.0031 l 0.299352,0.0762 0.09164,0.13331 h 0.0092 l 0.05956,0.0762 0.105385,0.0952 0.03513,0.0952 0.07331,0.19045 h 0.03207 l 0.151203,0.0952 0.100802,0.15235 0.11302,0.0952 0.108439,0.0952 h 0.0015 l 0.131348,0.0952 0.06873,0.0571 h 0.04124 l 0.184804,0.0952 0.103857,0.22853 h 0.0046 l 0.126766,0.0952 0.07789,0.11427 h 0.02291 l 0.149676,0.0952 0.109966,0.13331 0.248951,0.0952 0.109966,0.1714 0.13593,0.0952 0.109966,0.19045 0.06415,0.0952 0.09775,0.0952 0.169531,0.0952 0.109966,0.13331 0.204658,0.0952 0.07484,0.0762 0.163422,0.0952 0.103857,0.0762 0.276442,0.0952 0.105384,0.0571 0.111493,0.0952 0.09317,0.15235 0.198549,0.0952 0.02749,0.0381 h 0.08095 l 0.04429,0.0762 0.109966,0.19044 0.111493,0.0952 0.100802,0.0952 h 0.0046 l 0.184804,0.0952 0.09469,0.13331 0.183276,0.0952 0.100802,0.15235 0.174113,0.0952 0.105384,0.0571 0.465828,0.0952 0.084,0.11426 0.126766,0.0952 0.02444,0.0571 h 0.08553 l 0.138984,0.0952 0.09775,0.0571 0.171058,0.0952 0.06262,0.0762 0.178694,0.0952 0.08553,0.11427 h 0.01222 l 0.138984,0.0952 0.07026,0.0762 0.222987,0.0762 0.108438,0.0762 0.235205,0.0952 0.08248,0.0952 h 0.0076 l 0.109966,0.0952 0.03666,0.0381 h 0.07331 l 0.189386,0.0952 0.09622,0.0952 0.13593,0.0571 v 0.0381 l 0.113021,0.0571 0.164949,0.0952 0.108438,0.0952 0.108439,0.0952 0.09164,0.0762 h 0.0092 l 0.187858,0.0952 0.105384,0.11427 h 0.0031 l 0.178695,0.0762 0.03971,0.0762 h 0.05956 l 0.0672,0.0952 0.100802,0.15236 0.19855,0.0952 0.134402,0.15235 0.137458,0.0952 0.108438,0.0952 0.17564,0.0952 0.10233,0.0762 h 0.0076 l 0.192441,0.0952 0.05345,0.0571 h 0.04429 l 0.120657,0.0952 0.0504,0.11427 h 0.05346 l 0.09927,0.0952 0.07484,0.0952 h 0.01375 l 0.354335,0.0952 0.09469,0.0762 0.157312,0.0952 0.117606,0.15235 0.14968,0.0952 0.1008,0.11426 h 0.008 l 0.12065,0.0952 0.0535,0.0762 h 0.0504 l 0.31615,0.0952 0.11302,0.0571 0.20008,0.0952 0.14051,0.19044 0.18022,0.0952 0.084,0.13331 h 0.026 l 0.10385,0.0952 0.10539,0.0571 0.15426,0.0952 0.10844,0.0952 0.18175,0.0952 0.13898,0.20949 0.168,0.0952 0.0336,0.0381 h 0.0748 l 0.42001,0.0952 0.10691,0.0762 0.0855,0.0952 0.10233,0.11426 0.15731,0.0952 0.055,0.0571 h 0.0412 l 0.26575,0.0952 0.0886,0.11427 h 0.0199 l 0.20313,0.0952 0.1115,0.019 0.3024,0.0952 0.0107,0.0381 h 0.0916 l 0.22452,0.0952 0.11607,0.15236 0.21688,0.0952 0.10538,0.11427 0.26423,0.0952 0.0855,0.0381 h 0.0137 l 0.40168,0.0952 0.0504,0.0571 h 0.058 l 0.20161,0.0952 0.10691,0.0571 0.17411,0.0952 0.0748,0.11426 h 0.0305 l 0.2291,0.0952 0.0703,0.0762 h 0.0382 l 0.22604,0.0952 0.0886,0.0762 h 0.0214 l 0.18174,0.0952 0.0718,0.0762 h 0.0382 l 0.23673,0.0952 0.0733,0.0571 h 0.0367 l 0.24284,0.0952 0.081,0.0381 h 0.0275 l 0.22757,0.0952 0.0932,0.0762 h 0.006 l 0.22146,0.0952 0.0733,0.0571 h 0.0336 l 0.3131,0.0762 0.0977,0.11426 h 0.0122 l 0.20924,0.0952 0.11149,0.0762 0.20924,0.0952 0.0993,0.0952 h 0.005 l 0.20007,0.0952 0.005,0.0381 h 0.0962 l 0.13134,0.0952 0.10692,0.11426 h 0.003 l 0.51165,0.0952 0.0565,0.0571 h 0.0534 l 0.25812,0.0952 0.0855,0.0571 h 0.0244 l 0.44139,0.0952 0.10539,0.0571 0.35586,0.0952 v 0.019 h 0.0947 l 0.2963,0.0952 0.0871,0.0381 h 0.0229 l 0.14509,0.0952 0.0351,0.0952 h 0.0733 l 0.51317,0.0762 0.0703,0.11427 h 0.0397 l 0.16647,0.0952 0.10233,0.11427 h 0.008 l 0.3635,0.0952 0.10997,0.13331 0.42917,0.0952 0.0718,0.0381 h 0.0367 l 0.67048,0.0952 0.11455,0.0571 0.15884,0.0952 0.10386,0.0571 h 0.003 l 0.20619,0.0952 0.12218,0.15235 0.40168,0.0952 0.11455,0.0191 0.10233,0.0952 0.0275,0.0381 h 0.0794 l 0.47499,0.0952 0.0137,0.0762 h 0.0901 l 0.24284,0.0952 0.10691,0.0381 h 0.002 l 0.26422,0.0952 v 0.019 h 0.10692 l 0.29018,0.0952 0.0138,0.0381 h 0.0886 l 0.23979,0.0952 0.0535,0.0381 h 0.0305 l 0.43681,0.0952 0.12524,0.0952 0.32073,0.0952 0.1115,0.0762 0.32837,0.0952 0.026,0.0571 h 0.0825 l 0.31309,0.0952 0.10386,0.019 0.31768,0.0952 0.10997,0.11426 0.7331,0.0952 0.0657,0.0381 h 0.0443 l 0.1344,0.0952 0.0871,0.0571 h 0.0229 l 0.24589,0.0952 0.0138,0.0381 h 0.0947 l 0.13899,0.0952 0.0993,0.13331 h 0.0107 l 0.11302,0.0571 0.11455,0.0952 0.10844,0.0952 0.25659,0.0952 0.0733,0.0571 h 0.0351 l 0.33448,0.0952 0.1115,0.0381 0.33906,0.0952 0.11302,0.0571 0.55136,0.0952 0.10691,0.019 0.56663,0.0952 0.0428,0.0571 h 0.0672 l 0.31157,0.0952 0.0519,0.0571 h 0.0565 l 0.11913,0.0952 0.0382,0.0381 h 0.0672 l 0.31157,0.0762 0.11302,0.0381 0.19396,0.0952 v 0.019 h 0.10539 l 0.3467,0.0952 0.0702,0.0762 h 0.0382 l 0.24895,0.0952 0.0504,0.0381 h 0.058 l 0.44598,0.0952 v 0.0191 h 0.10538 l 0.27033,0.0762 v 0.0381 h 0.10844 l 0.4307,0.0952 0.11455,0.0571 0.85682,0.0952 0.11455,0.0571 0.40931,0.0952 0.0977,0.11426 h 0.0107 l 0.27186,0.0952 0.0794,0.0762 h 0.0275 l 0.25812,0.0952 0.0443,0.0381 h 0.0626 l 0.23215,0.0952 0.0519,0.0381 h 0.055 l 0.35739,0.0952 0.11455,0.019 0.57274,0.0762 0.11149,0.0571 0.21535,0.0952 v 0.019 h 0.10691 l 0.7606,0.0952 0.11607,0.0762 0.30241,0.0952 v 0.019 h 0.10844 l 0.52386,0.0952 0.0748,0.0381 h 0.0336 l 0.34059,0.0952 0.0489,0.11427 h 0.0611 l 0.69492,0.0952 0.11913,0.019 0.64452,0.0952 0.11455,0.0381 0.2123,0.0952 0.0351,0.0571 h 0.0733 l 0.45971,0.0952 0.0443,0.0571 h 0.0641 l 0.48721,0.0952 0.1115,0.019 0.3192,0.0952 0.11302,0.0952 0.71631,0.0952 0.0718,0.0762 h 0.0351 l 0.30852,0.0952 0.11149,0.019 0.36961,0.0952 0.0641,0.11426 h 0.0443 l 0.4811,0.0952 0.1008,0.0762 h 0.009 l 0.92708,0.0952 0.11149,0.019 0.32226,0.0762 0.11149,0.0762 0.28103,0.0952 0.1344,0.0952 0.62009,0.0952 0.11302,0.0381 0.23978,0.0952 0.0183,0.0381 h 0.0916 l 0.29782,0.0952 0.11302,0.0381 0.46736,0.0952 v 0.019 h 0.10997 l 0.27491,0.0952 0.11302,0.0381 0.15579,0.0952 0.11607,0.0381 0.61551,0.0952 0.11149,0.0571 0.59717,0.0952 0.12677,0.0381 0.47652,0.0952 0.0412,0.0571 h 0.0672 l 0.48568,0.0952 0.1176,0.019 0.37114,0.0952 0.10844,0.0381 0.74685,0.0952 0.029,0.0571 h 0.081 l 0.88583,0.0952 0.12371,0.0571 0.33601,0.0952 0.11608,0.0571 0.45055,0.0952 0.11302,0.0571 0.17259,0.0762 0.11302,0.0571 0.62619,0.0952 0.10844,0.0952 0.2795,0.0952 0.0107,0.0381 h 0.0993 l 0.62773,0.0952 0.0412,0.0571 h 0.0687 l 0.88431,0.0952 0.11608,0.019 0.42153,0.0952 0.12677,0.0571 0.64452,0.0952 0.10844,0.019 0.22451,0.0952 0.11761,0.0381 0.41084,0.0952 0.12677,0.0381 0.67507,0.0952 0.1176,0.0762 0.47041,0.0952 0.11149,0.019 0.47041,0.0952 0.11608,0.0381 0.36502,0.0952 0.0306,0.0381 h 0.0794 l 0.90111,0.0952 0.12676,0.0381 0.63536,0.0952 0.1115,0.0381 0.57121,0.0952 0.0244,0.0381 h 0.084 l 0.46735,0.0952 0.0382,0.0381 h 0.0687 l 0.53914,0.0952 0.12524,0.019 0.58038,0.0952 0.11607,0.0381 0.25353,0.0952 0.10844,0.019 0.58802,0.0952 0.11912,0.0381 0.78351,0.0952 0.10386,0.0381 0.49179,0.0952 0.11608,0.019 0.85529,0.0952 0.12523,0.0571 0.61551,0.0952 0.10996,0.0571 0.37419,0.0952 0.11608,0.0381 0.58801,0.0952 0.11149,0.019 0.6766,0.0952 0.13135,0.0762 0.66743,0.0952 0.10844,0.019 1.10577,0.0952 0.1176,0.0381 1.2417,0.0952 0.12371,0.019 0.55136,0.0952 0.14509,0.0571 0.90722,0.0952 0.10997,0.019 0.8507,0.0952 0.11608,0.019 0.82933,0.0952 0.0397,0.0571 h 0.0657 l 0.52539,0.0952 0.11761,0.0381 0.88889,0.0952 0.11454,0.0381 0.7102,0.0952 0.17259,0.0571 0.76976,0.0952 0.13593,0.019 1.4601,0.0952 0.11149,0.019 1.02024,0.0952 0.1115,0.0381 0.75296,0.0952 0.11607,0.0381 1.06453,0.0952 0.12677,0.0571 0.83085,0.0952 0.11608,0.019 0.59259,0.0952 0.10844,0.0191 0.47347,0.0952 v 0.019 h 0.10844 l 0.47346,0.0952 0.16648,0.0762 0.70103,0.0952 0.12524,0.019 0.78656,0.0952 0.12677,0.019 1.57159,0.0952 0.11455,0.019 0.51928,0.0952 0.12524,0.019 0.87057,0.0952 0.12065,0.019 0.26881,0.0952 0.12677,0.0381 0.5147,0.0952 0.1176,0.0381 1.57923,0.0952 0.1115,0.0381 0.93318,0.0952 0.1176,0.0381 1.36999,0.0952 0.13899,0.0571 0.9286,0.0952 0.1344,0.0381 1.22185,0.0952 0.12218,0.019 1.15617,0.0952 0.12524,0.019 1.22184,0.0952 0.12219,0.0381 0.82321,0.0952 0.12219,0.019 1.93815,0.0952 0.11913,0.019 1.55479,0.0952 0.11608,0.0381 0.96526,0.0952 0.1176,0.0381 1.20046,0.0952 0.11607,0.019 1.74113,0.0762 0.16648,0.0571 1.35013,0.0952 0.14052,0.0571 2.34135,0.0952 0.14204,0.0381 1.70142,0.0952 0.12677,0.0381 0.58648,0.0952 0.14051,0.0571 0.79268,0.0952 0.12523,0.019 0.75449,0.0952 0.12524,0.0191 0.88889,0.0952 0.13746,0.0762 0.98969,0.0952 0.13288,0.0381 0.75449,0.0952 0.13287,0.019 1.62811,0.0952 0.13135,0.0381 1.78389,0.0952 0.12524,0.019 1.82818,0.0952 0.15579,0.0762 0.37877,0.0952 0.14815,0.019 1.33792,0.0952 0.15884,0.0571 0.76976,0.0952 0.12982,0.019 1.24322,0.0952 0.13746,0.019 1.11799,0.0952 0.14967,0.0762 0.9897,0.0952 0.16342,0.019 1.09202,0.0952 0.14357,0.0381 1.08591,0.0952 0.17411,0.0381 2.31845,0.0952 0.11761,0.0381 0.47499,0.0952 0.13135,0.019 1.28293,0.0762 0.11302,0.0381 1.11493,0.0952 0.13288,0.0381 1.26919,0.0952 0.14051,0.019 1.82055,0.0952 0.14204,0.019 0.63536,0.0952 0.12982,0.019 1.59145,0.0952 0.13135,0.019 2.17641,0.0952 0.15578,0.019 2.41772,0.0952 0.13441,0.0571 1.52883,0.0952 0.16342,0.0381 1.42498,0.0952 0.17258,0.0381 0.66132,0.0952 0.17259,0.019 1.87553,0.0952 0.17564,0.0381 1.64338,0.0952 0.2123,0.0571 2.75067,0.0952 0.2291,0.0571 0.98511,0.0952 0.20466,0.0571 2.78733,0.0952 0.252,0.0381 1.57313,0.0952 0.19244,0.0381 2.79038,0.0952 0.17717,0.0381 0.92402,0.0952 0.13593,0.019 1.7564,0.0952 0.17869,0.0381 2.47882,0.0952 0.24437,0.0571 2.3719,0.0952 0.19855,0.019 1.63422,0.0952 0.2016,0.0381 1.31806,0.0952 0.20008,0.0191 1.36236,0.0952 0.2352,0.0381 1.49523,0.0952 0.18633,0.019 0.66438,0.0952 0.23215,0.0381 1.2585,0.0952 0.1955,0.019 1.42955,0.0952 0.20161,0.0571 1.27071,0.0952 0.25659,0.0381 1.63269,0.0952 0.1848,0.019 1.96565,0.0952 0.25964,0.019 2.59031,0.0952 0.19702,0.019 1.28904,0.0952 0.24743,0.019 2.59947,0.0952 0.24131,0.019 1.78542,0.0952 0.26881,0.019 1.49523,0.0952 0.27339,0.0381 2.57961,0.0952 0.18481,0.019 2.11684,0.0952 0.20619,0.0381 4.33601,0.0952 0.2795,0.019 1.4097,0.0952 0.25812,0.0381 3.12028,0.0952 0.32837,0.0571 1.6892,0.0952 0.25659,0.019 4.02292,0.0952 0.29019,0.0381 1.70905,0.0952 0.33142,0.019 1.9183,0.0952 0.23826,0.019 2.79802,0.0952 0.25964,0.0381 3.25774,0.0952 0.26728,0.019 2.79191,0.0952 0.2963,0.019 3.15541,0.0762 0.1787,0.0381 2.25888,0.0762 0.20313,0.0381 3.04545,0.0952 0.23673,0.019 0.89958,0.0952 0.33601,0.0381 2.18404,0.0952 0.49791,0.0762 5.40971,0.0952 0.26575,0.019 1.43414,0.0952 0.3635,0.019 2.1535,0.0952 0.66132,0.0381 3.10806,0.0952 0.28408,0.019 4.67814,0.0952 0.31309,0.0191 0.38488,0.0381 3.98169,0.0571 v 0" /></g></g><g
       id="g1091"><g
         clip-path="url(#clipPath1097)"
         id="g1093"><path
           inkscape:connector-curvature="0"
           id="path1099"
           style="fill:none;stroke:#008000;stroke-width:2;stroke-linecap:butt;stroke-linejoin:round;stroke-miterlimit:10;stroke-dasharray:12.8, 3.2, 2, 3.2;stroke-dashoffset:0;stroke-opacity:1"
           d="m 58.073352,48.171 0.07866,0.144285 0.924213,2.814142 0.393282,1.476867 1.730443,4.747324 2.281037,7.735078 3.598533,10.528104 1.887755,6.31569 10.107356,28.96138 5.663265,15.4115 5.918899,14.63729 3.677189,7.02656 2.693984,6.72391 6.410502,12.52111 2.89062,5.74911 2.92996,5.54969 3.38222,5.30569 5.95823,9.77149 9.67474,12.77801 h 0.0197 v 0.008 l 6.44983,7.69402 h 0.0197 l 2.71365,3.50507 10.245,9.61195 0.0197,0.0176 h 0.0197 l 3.14626,2.85754 9.67475,7.86646 2.517,2.36839 6.31218,4.34145 3.53955,1.96485 2.7923,2.00122 3.14626,1.85928 2.65465,1.7889 5.6436,3.29744 5.60428,2.93144 2.77264,1.44168 5.60427,2.56076 0.0787,0.0188 v 10e-4 l 5.52561,2.43642 3.20525,1.14138 3.06761,1.09093 2.71364,1.11909 5.6436,2.00591 5.84025,1.776 2.98894,0.86805 9.06516,2.36369 0.2753,0.027 v 0.006 l 7.03975,1.55312 0.29496,0.0246 v 0.002 l 7.07908,1.46748 11.79847,2.06925 8.43591,1.31265 0.45227,0.0399 v 0.001 l 4.03115,0.70266 9.67474,1.349 29.14222,2.94905 3.22492,0.17361 8.02295,0.52435 1.71078,0.0962 13.54858,0.81409 1.98607,0.0493 8.47524,0.53257 8.14094,0.27566 20.09673,0.81527 v 0" /></g></g><g
       id="g1101"><g
         clip-path="url(#clipPath1107)"
         id="g1103"><path
           inkscape:connector-curvature="0"
           id="path1109"
           style="fill:none;stroke:#0000ff;stroke-width:2;stroke-linecap:butt;stroke-linejoin:round;stroke-miterlimit:10;stroke-dasharray:7.4, 3.2;stroke-dashoffset:0;stroke-opacity:1"
           d="m 58.073352,48.171 v 0.0047 0.01877 l 0.03933,0.05044 0.01966,0.07507 0.157313,0.15015 0.09832,0.217014 0.117985,0.328453 0.05899,0.390625 0.196641,0.634619 0.275298,0.756616 0.275298,0.873921 0.33429,1.015859 0.491602,1.263373 0.432611,1.402965 0.530931,1.634055 0.707908,1.800629 0.845557,2.005912 0.943878,2.194772 0.845557,2.320289 0.707908,2.439939 1.120854,2.553725 1.553466,2.769566 1.238839,2.753144 1.219175,2.950215 1.612457,3.137903 1.258504,3.13673 1.710778,3.215324 1.710778,3.420607 2.045068,3.471049 1.946747,3.682197 2.261374,3.893339 1.927083,3.90039 2.261373,4.17605 2.693984,4.42356 2.949617,4.5397 2.595664,4.72151 2.733312,4.84938 2.674328,5.04059 2.98894,5.11214 3.32324,5.25408 3.26424,5.36435 3.20525,5.6318 3.36257,5.49221 3.50021,5.76905 3.73618,5.52975 3.63786,5.70101 4.01148,5.66582 3.93282,5.46993 3.6182,5.47461 3.97215,5.29866 4.52275,5.15437 4.54241,5.05701 4.20812,4.80011 4.75872,4.48456 4.50308,4.32855 3.79517,4.19834 3.8935,4.01417 3.79517,3.73498 3.73618,3.55434 3.95249,3.24934 3.57887,3.06517 4.09014,3.01825 3.95248,2.77426 4.42443,2.70622 3.97215,2.37543 4.44409,2.31207 4.05081,2.1373 4.20812,2.00591 3.87383,1.83699 3.8345,1.69623 3.95249,1.56836 4.46375,1.5367 3.50022,1.43581 4.42442,1.31616 4.18846,1.25398 4.77838,1.19769 4.46375,1.13433 4.22779,1.02056 4.69972,0.96072 4.56208,0.93375 4.73905,0.88799 5.38796,0.91498 4.73906,0.81879 4.89636,0.81527 5.09301,0.72963 5.30931,0.73316 4.79804,0.68506 5.21099,0.6135 5.50596,0.62172 6.05654,0.63579 6.64647,0.58183 6.82345,0.54078 6.29252,0.50558 7.25606,0.43285 6.78412,0.41409 7.25606,0.36834 6.60714,0.29561 6.09587,0.25572 4.85704,0.15836 3.75585,0.0727" /></g></g><g
       id="g1111"><g
         clip-path="url(#clipPath1117)"
         id="g1113"><path
           inkscape:connector-curvature="0"
           id="path1119"
           style="fill:none;stroke:#bfbf00;stroke-width:2;stroke-linecap:butt;stroke-linejoin:round;stroke-miterlimit:10;stroke-dasharray:7.4, 3.2;stroke-dashoffset:0;stroke-opacity:1"
           d="m 58.073352,48.171 v 0.02581 l 0.01966,0.08563 0.01967,0.166572 0.01966,0.224052 0.05899,0.354261 0.05899,0.442239 0.137649,0.540775 0.09832,0.624061 0.255633,0.716733 0.196641,0.852805 0.196642,0.980668 0.511267,1.076858 0.334289,1.203547 0.412947,1.297391 0.550595,1.32789 0.353954,1.568365 0.727572,1.697401 0.884886,1.860453 1.00287,1.969548 0.806228,2.193599 0.963542,2.210022 0.983206,2.436421 1.140518,2.549033 1.376488,2.560763 1.376489,2.734375 1.573129,2.865755 1.592793,2.910332 2.143389,3.129692 1.730442,3.150806 1.828763,3.191863 1.750106,3.307995 2.045068,3.435855 2.084396,3.49217 2.497343,3.61885 2.084396,3.55668 2.123724,3.76196 2.143389,3.69745 2.575999,3.82179 2.929953,3.76079 2.772642,3.84291 2.47768,3.85815 2.47767,3.92502 3.20526,3.85346 2.89062,3.84994 2.89062,4.01535 3.00861,3.99892 3.44122,3.88278 3.18559,4.00362 3.28391,3.77135 2.49734,3.76782 3.63786,3.80537 3.36257,3.78191 3.3429,3.45345 3.89349,3.57076 3.93282,3.46401 3.63786,3.40301 3.59854,3.34553 3.79517,3.24817 3.85417,3.24348 4.01148,3.08629 3.59853,2.93027 3.8345,2.86341 3.73619,2.80124 3.8345,2.5854 4.05081,2.47982 4.24744,2.45636 4.14913,2.27102 4.03115,2.31208 4.85703,2.15606 3.81484,2.04932 4.01148,2.03289 3.81484,1.92262 3.93282,1.85694 4.62107,1.79945 3.77551,1.82644 4.68006,1.78186 4.3851,1.69036 4.40476,1.76778 4.34577,1.79829 4.30644,1.73024 4.6604,1.776 4.36543,1.78772 4.91603,1.8018 4.68006,1.82878 4.85703,1.94492 4.75872,1.96016 5.03401,1.98832 5.28965,1.99301 5.76159,2.20181 6.03688,2.13142 5.93856,2.22645 6.35151,2.18304 6.39084,2.20533 7.19707,2.16076 6.68579,2.21354 7.11841,2.26398 6.6858,2.09506 7.62968,2.17366 8.39658,2.17483 7.92464,1.9062 10.75627,1.2188" /></g></g><g
       id="g1121"><g
         clip-path="url(#clipPath1127)"
         id="g1123"><path
           inkscape:connector-curvature="0"
           id="path1129"
           style="fill:none;stroke:#ff0000;stroke-width:2;stroke-linecap:butt;stroke-linejoin:round;stroke-miterlimit:10;stroke-dasharray:2, 3.3;stroke-dashoffset:0;stroke-opacity:1"
           d="m 58.073352,48.171 v 0.01408 0.04223 l 0.01966,0.09384 0.137649,0.1654 0.294962,0.213495 0.275298,0.336664 0.216305,0.382414 0.373618,0.457489 0.570259,0.568928 0.452275,0.638138 0.589923,0.720251 0.57026,0.783596 0.924213,0.999437 0.806229,1.046358 0.904549,1.0968 0.943878,1.251642 1.238839,1.372466 1.120855,1.469829 1.396152,1.513232 1.376488,1.690362 1.160183,1.754879 1.455144,1.711477 1.828763,1.829955 1.514137,1.963682 1.632121,2.042276 1.946748,2.092717 2.10406,2.036411 1.907419,2.197119 2.104061,2.168965 2.241709,2.226445 2.00574,2.344923 2.202381,2.337884 2.654655,2.463401 2.870961,2.468092 2.536674,2.519707 2.65466,2.591263 2.65465,2.598303 2.22205,2.64639 3.10693,2.70505 2.63499,2.74024 3.14626,2.71091 3.14626,2.80359 3.16592,2.72968 2.85129,2.97251 3.18559,3.07455 3.51988,3.11093 3.65752,3.17778 3.75585,3.39598 3.95249,3.3467 4.26711,3.55903 3.8345,3.57076 4.3851,3.65287 4.40476,3.86636 5.28965,3.85346 4.71939,3.80185 5.07334,3.99071 4.54241,4.0869 4.91603,4.14438 5.76158,4.03997 4.97502,4.20773 5.62394,4.06695 4.99469,4.32738 5.30931,4.15611 5.56494,4.29687 5.68293,4.29101 5.76159,4.22063 5.6436,4.26402 5.32897,4.18544 5.46663,4.27928 6.31218,4.05405 5.46662,4.013 6.29252,3.78777 6.15487,3.96021 6.56781,3.8124 5.62394,3.73264 5.78125,3.72443 6.03688,3.63058 5.54528,3.54495 6.41051,3.34553 5.97789,3.41944 6.76445,3.26342 5.66327,2.99948 5.44696,3.0077 4.97502,2.82939 4.71939,2.74258 4.93569,2.58775 5.17166,2.28157 4.44409,2.18305 4.3851,1.9367 4.40476,1.71617 3.26425,1.61059 3.30357,1.3361 2.63499,1.07334 2.45801,0.91146 1.73044,0.63697 1.73045,0.48564 1.02253,0.32845 1.29783,0.22171 0.90455,0.12551 1.02254,0.0833 0.62925,0.054" /></g></g><g
       id="g1131"><g
         clip-path="url(#clipPath1137)"
         id="g1133"><path
           inkscape:connector-curvature="0"
           id="path1139"
           style="fill:none;stroke:#00bfbf;stroke-width:2;stroke-linecap:square;stroke-linejoin:round;stroke-miterlimit:10;stroke-dasharray:none;stroke-opacity:1"
           d="m 58.073352,48.171 0.03933,0.06452 0.03933,0.165399 0.07866,0.314377 0.117985,0.405875 0.157313,0.544294 0.09832,0.636965 0.255634,0.741366 0.294962,0.891516 0.255633,0.945477 0.393282,1.051051 0.452275,1.10853 0.452275,1.271584 0.412946,1.272757 0.57026,1.360735 0.727572,1.401792 0.7669,1.598865 1.00287,1.669247 0.983206,1.743149 0.884885,1.87453 0.904549,1.853416 1.00287,2.123216 1.219175,2.146678 1.297832,2.149024 1.415816,2.202983 1.828763,2.400056 1.710778,2.485689 1.435481,2.57484 1.848426,2.573666 1.612458,2.724991 1.868091,2.809449 1.927083,2.730855 2.025404,2.884525 1.809099,2.973673 2.241709,3.02881 2.477678,3.14377 1.986076,3.1379 2.399022,3.24582 2.752976,3.20243 2.733314,3.35609 3.10693,3.43703 2.91029,3.41239 2.77264,3.40536 2.71365,3.45932 3.02827,3.40887 2.81197,3.46284 2.51701,3.53439 2.51701,3.5602 2.73331,3.58015 2.73331,3.47691 3.38223,3.6083 3.42155,3.45462 2.87096,3.35726 3.28391,3.53909 3.59853,3.35022 4.05081,3.36431 3.75585,3.26107 3.42155,3.25755 3.57887,3.1989 3.8345,3.16254 3.73619,3.20008 3.71651,2.99948 3.65753,3.06869 3.85417,2.87397 3.99181,2.9162 4.54241,2.85168 4.3851,2.82352 4.03114,2.6722 4.28678,2.71913 4.24745,2.6417 3.87383,2.55725 3.95249,2.43876 4.66039,2.47983 4.1688,2.31911 4.40476,2.11501 4.79804,2.20885 4.26712,2.19008 4.77838,1.99418 4.8767,2.09037 4.54241,2.07395 4.36543,1.97424 4.64073,1.90972 4.68006,1.86515 4.79804,1.91793 5.211,2.01647 5.42729,2.00474 4.89637,2.04227 5.19132,2.11853 4.14913,2.06808 5.30931,2.24639 5.36831,2.24404 5.5846,2.31325 5.82058,2.32733 5.23066,2.4024 6.01722,2.45049 5.54528,2.44229 6.48916,2.43525 7.64934,2.36955 7.13807,2.46927 7.84598,2.52088 8.59322,2.67924 12.40806,2.76722" /></g></g><g
       id="g1141"><path
         inkscape:connector-curvature="0"
         id="path1143"
         style="fill:none;stroke:#000000;stroke-width:0.8;stroke-linecap:square;stroke-linejoin:miter;stroke-miterlimit:10;stroke-dasharray:none;stroke-opacity:1"
         d="M 41.840625,36.075 V 302.187" /><path
         inkscape:connector-curvature="0"
         id="path1145"
         style="fill:none;stroke:#000000;stroke-width:0.8;stroke-linecap:square;stroke-linejoin:miter;stroke-miterlimit:10;stroke-dasharray:none;stroke-opacity:1"
         d="M 398.96062,36.075 V 302.187" /><path
         inkscape:connector-curvature="0"
         id="path1147"
         style="fill:none;stroke:#000000;stroke-width:0.8;stroke-linecap:square;stroke-linejoin:miter;stroke-miterlimit:10;stroke-dasharray:none;stroke-opacity:1"
         d="M 41.840625,36.075 H 398.96062" /><path
         inkscape:connector-curvature="0"
         id="path1149"
         style="fill:none;stroke:#000000;stroke-width:0.8;stroke-linecap:square;stroke-linejoin:miter;stroke-miterlimit:10;stroke-dasharray:none;stroke-opacity:1"
         d="M 41.840625,302.187 H 398.96062" /><path
         inkscape:connector-curvature="0"
         id="path1151"
         style="fill:#ffffff;fill-opacity:0.8;fill-rule:nonzero;stroke:#cccccc;stroke-width:1;stroke-linecap:butt;stroke-linejoin:miter;stroke-miterlimit:10;stroke-dasharray:none;stroke-opacity:0.8"
         d="m 179.445,41.075 h 212.51562 c 1.33334,0 2,0.666667 2,2 v 102.84375 c 0,1.33333 -0.66666,2 -2,2 H 179.445 c -1.33333,0 -2,-0.66667 -2,-2 V 43.075 c 0,-1.333333 0.66667,-2 2,-2 z" /><path
         inkscape:connector-curvature="0"
         id="path1153"
         style="fill:none;stroke:#000000;stroke-width:2;stroke-linecap:butt;stroke-linejoin:round;stroke-miterlimit:10;stroke-dasharray:7.4, 3.2;stroke-dashoffset:0;stroke-opacity:1"
         d="m 181.445,140.41875 h 20" /><text
         id="text1157"
         style="font-variant:normal;font-weight:bold;font-size:10px;font-family:'CMU Serif';-inkscape-font-specification:CMUSerif-Bold;writing-mode:lr-tb;fill:#000000;fill-opacity:1;fill-rule:nonzero;stroke:none"
         transform="matrix(1,0,0,-1,209.445,136.91875)"><tspan
           id="tspan1155"
           sodipodi:role="line"
           y="0"
           x="0 8.3000002 14.68 20.27 26.65 31.76">Chance</tspan></text><path
         inkscape:connector-curvature="0"
         id="path1159"
         style="fill:none;stroke:#bf00bf;stroke-width:1.5;stroke-linecap:square;stroke-linejoin:round;stroke-miterlimit:10;stroke-dasharray:none;stroke-opacity:1"
         d="m 181.445,125.98125 h 20" /><text
         id="text1163"
         style="font-variant:normal;font-weight:bold;font-size:10px;font-family:'CMU Serif';-inkscape-font-specification:CMUSerif-Bold;writing-mode:lr-tb;fill:#000000;fill-opacity:1;fill-rule:nonzero;stroke:none"
         transform="matrix(1,0,0,-1,209.445,122.48125)"><tspan
           id="tspan1161"
           sodipodi:role="line"
           y="0"
           x="0 8.3000002 17.299999 26.299999 30.129999 34.599998 43.290001 52.130001 60.43 64.260002 73.199997 77.029999 82.779999 85.970001 91.720001 97.470001">CNN (AUC = 0.92)</tspan></text><path
         inkscape:connector-curvature="0"
         id="path1165"
         style="fill:none;stroke:#008000;stroke-width:2;stroke-linecap:butt;stroke-linejoin:round;stroke-miterlimit:10;stroke-dasharray:12.8, 3.2, 2, 3.2;stroke-dashoffset:0;stroke-opacity:1"
         d="m 181.445,110.99688 h 20" /><text
         id="text1169"
         style="font-variant:normal;font-weight:bold;font-size:10px;font-family:'CMU Serif';-inkscape-font-specification:CMUSerif-Bold;writing-mode:lr-tb;fill:#000000;fill-opacity:1;fill-rule:nonzero;stroke:none"
         transform="matrix(1,0,0,-1,209.445,107.49688)"><tspan
           id="tspan1167"
           sodipodi:role="line"
           y="0"
           x="0 8.6199999 15.85 19.68 24.790001 30.540001 35.27 40 48.689999 55.07 60.82 64.010002 69.279999 73.110001 77.580002 86.269997 95.110001 103.41 107.24 116.18 120.01 125.76 128.95 134.7 140.45">RF corrAngle (AUC = 0.80)</tspan></text><path
         inkscape:connector-curvature="0"
         id="path1171"
         style="fill:none;stroke:#0000ff;stroke-width:2;stroke-linecap:butt;stroke-linejoin:round;stroke-miterlimit:10;stroke-dasharray:7.4, 3.2;stroke-dashoffset:0;stroke-opacity:1"
         d="m 181.445,96.0125 h 20" /><text
         id="text1175"
         style="font-variant:normal;font-weight:bold;font-size:10px;font-family:'CMU Serif';-inkscape-font-specification:CMUSerif-Bold;writing-mode:lr-tb;fill:#000000;fill-opacity:1;fill-rule:nonzero;stroke:none"
         transform="matrix(1,0,0,-1,209.445,92.5125)"><tspan
           id="tspan1173"
           sodipodi:role="line"
           y="0"
           x="0 8.6199999 15.85 19.68 24.790001 30.540001 35.27 40 48.689999 55.07 60.82 64.010002 69.279999 78.220001 87.220001 95.849998 104.89 108.72 113.19 121.88 130.72 139.02 142.85001 151.78999 155.62 161.37 164.56 170.31 176.06">RF corrAngle+HOG (AUC = 0.76)</tspan></text><path
         inkscape:connector-curvature="0"
         id="path1177"
         style="fill:none;stroke:#bfbf00;stroke-width:2;stroke-linecap:butt;stroke-linejoin:round;stroke-miterlimit:10;stroke-dasharray:7.4, 3.2;stroke-dashoffset:0;stroke-opacity:1"
         d="m 181.445,81.028125 h 20" /><text
         id="text1181"
         style="font-variant:normal;font-weight:bold;font-size:10px;font-family:'CMU Serif';-inkscape-font-specification:CMUSerif-Bold;writing-mode:lr-tb;fill:#000000;fill-opacity:1;fill-rule:nonzero;stroke:none"
         transform="matrix(1,0,0,-1,209.445,77.528125)"><tspan
           id="tspan1179"
           sodipodi:role="line"
           y="0"
           x="0 8.6199999 15.85 19.68 24.790001 30.540001 35.27 40 48.689999 55.07 60.82 64.010002 69.279999 78.220001 85.129997 93.309998 101.17 105 109.47 118.16 127 135.3 139.13 148.07001 151.89999 157.64999 160.84 166.59 172.34">RF corrAngle+LBP (AUC = 0.70)</tspan></text><path
         inkscape:connector-curvature="0"
         id="path1183"
         style="fill:none;stroke:#ff0000;stroke-width:2;stroke-linecap:butt;stroke-linejoin:round;stroke-miterlimit:10;stroke-dasharray:2, 3.3;stroke-dashoffset:0;stroke-opacity:1"
         d="m 181.445,66.04375 h 20" /><text
         id="text1187"
         style="font-variant:normal;font-weight:bold;font-size:10px;font-family:'CMU Serif';-inkscape-font-specification:CMUSerif-Bold;writing-mode:lr-tb;fill:#000000;fill-opacity:1;fill-rule:nonzero;stroke:none"
         transform="matrix(1,0,0,-1,209.445,62.54375)"><tspan
           id="tspan1185"
           sodipodi:role="line"
           y="0"
           x="0 8.6199999 15.85 19.68 28.68 37.310001 46.349998 50.18 54.650002 63.34 72.18 80.480003 84.309998 93.25 97.080002 102.83 106.02 111.77 117.52">RF HOG (AUC = 0.58)</tspan></text><path
         inkscape:connector-curvature="0"
         id="path1189"
         style="fill:none;stroke:#00bfbf;stroke-width:2;stroke-linecap:square;stroke-linejoin:round;stroke-miterlimit:10;stroke-dasharray:none;stroke-opacity:1"
         d="m 181.445,51.059375 h 20" /><text
         id="text1193"
         style="font-variant:normal;font-weight:bold;font-size:10px;font-family:'CMU Serif';-inkscape-font-specification:CMUSerif-Bold;writing-mode:lr-tb;fill:#000000;fill-opacity:1;fill-rule:nonzero;stroke:none"
         transform="matrix(1,0,0,-1,209.445,47.559375)"><tspan
           id="tspan1191"
           sodipodi:role="line"
           y="0"
           x="0 8.6199999 15.85 19.68 26.59 34.77 42.630001 46.459999 50.93 59.619999 68.459999 76.760002 80.589996 89.529999 93.360001 99.110001 102.3 108.05 113.8">RF LBP (AUC = 0.66)</tspan></text></g></g></svg>
