<?xml version="1.0" encoding="UTF-8" standalone="no"?>
<svg
   xmlns:dc="http://purl.org/dc/elements/1.1/"
   xmlns:cc="http://creativecommons.org/ns#"
   xmlns:rdf="http://www.w3.org/1999/02/22-rdf-syntax-ns#"
   xmlns:svg="http://www.w3.org/2000/svg"
   xmlns="http://www.w3.org/2000/svg"
   xmlns:sodipodi="http://sodipodi.sourceforge.net/DTD/sodipodi-0.dtd"
   xmlns:inkscape="http://www.inkscape.org/namespaces/inkscape"
   inkscape:version="1.0rc1 (09960d6, 2020-04-09)"
   sodipodi:docname="SlideRunner_UML.pdf"
   viewBox="0 0 756 434"
   height="434"
   width="756"
   xml:space="preserve"
   id="svg833"
   version="1.1"><metadata
     id="metadata839"><rdf:RDF><cc:Work
         rdf:about=""><dc:format>image/svg+xml</dc:format><dc:type
           rdf:resource="http://purl.org/dc/dcmitype/StillImage" /><dc:title></dc:title></cc:Work></rdf:RDF></metadata><defs
     id="defs837"><clipPath
       id="clipPath851"
       clipPathUnits="userSpaceOnUse"><path
         inkscape:connector-curvature="0"
         id="path849"
         d="m 168,139.5 h 132 v 66 H 168 Z" /></clipPath><mask
       id="mask853"
       height="1"
       width="1"
       y="0"
       x="0"
       maskUnits="userSpaceOnUse"><g
         id="g859"><g
           id="g857"
           clip-path="url(#clipPath851)"><path
             inkscape:connector-curvature="0"
             id="path855"
             style="fill:#000000;fill-opacity:0.2;fill-rule:nonzero;stroke:none"
             d="m 168,139.5 h 132 v 66 H 168 Z" /></g></g></mask><clipPath
       id="clipPath867"
       clipPathUnits="userSpaceOnUse"><path
         inkscape:connector-curvature="0"
         id="path865"
         d="m 168,139.5 h 132 v 66 H 168 Z" /></clipPath><clipPath
       id="clipPath871"
       clipPathUnits="userSpaceOnUse"><path
         inkscape:connector-curvature="0"
         id="path869"
         d="m 168,140 h 132 v 66 H 168 Z" /></clipPath><clipPath
       id="clipPath913"
       clipPathUnits="userSpaceOnUse"><path
         inkscape:connector-curvature="0"
         id="path911"
         d="m 54,1.5 h 127 v 78 H 54 Z" /></clipPath><mask
       id="mask915"
       height="1"
       width="1"
       y="0"
       x="0"
       maskUnits="userSpaceOnUse"><g
         id="g921"><g
           id="g919"
           clip-path="url(#clipPath913)"><path
             inkscape:connector-curvature="0"
             id="path917"
             style="fill:#000000;fill-opacity:0.2;fill-rule:nonzero;stroke:none"
             d="m 54,1.5 h 127 v 78 H 54 Z" /></g></g></mask><clipPath
       id="clipPath929"
       clipPathUnits="userSpaceOnUse"><path
         inkscape:connector-curvature="0"
         id="path927"
         d="m 54,1.5 h 127 v 78 H 54 Z" /></clipPath><clipPath
       id="clipPath933"
       clipPathUnits="userSpaceOnUse"><path
         inkscape:connector-curvature="0"
         id="path931"
         d="M 54,2 H 181 V 80 H 54 Z" /></clipPath><clipPath
       id="clipPath981"
       clipPathUnits="userSpaceOnUse"><path
         inkscape:connector-curvature="0"
         id="path979"
         d="m 168,253.5 h 126 v 60 H 168 Z" /></clipPath><mask
       id="mask983"
       height="1"
       width="1"
       y="0"
       x="0"
       maskUnits="userSpaceOnUse"><g
         id="g989"><g
           id="g987"
           clip-path="url(#clipPath981)"><path
             inkscape:connector-curvature="0"
             id="path985"
             style="fill:#000000;fill-opacity:0.2;fill-rule:nonzero;stroke:none"
             d="m 168,253.5 h 126 v 60 H 168 Z" /></g></g></mask><clipPath
       id="clipPath997"
       clipPathUnits="userSpaceOnUse"><path
         inkscape:connector-curvature="0"
         id="path995"
         d="m 168,253.5 h 126 v 60 H 168 Z" /></clipPath><clipPath
       id="clipPath1001"
       clipPathUnits="userSpaceOnUse"><path
         inkscape:connector-curvature="0"
         id="path999"
         d="m 168,254 h 126 v 60 H 168 Z" /></clipPath><clipPath
       id="clipPath1045"
       clipPathUnits="userSpaceOnUse"><path
         inkscape:connector-curvature="0"
         id="path1043"
         d="m 276,13.5 h 114 v 66 H 276 Z" /></clipPath><mask
       id="mask1047"
       height="1"
       width="1"
       y="0"
       x="0"
       maskUnits="userSpaceOnUse"><g
         id="g1053"><g
           id="g1051"
           clip-path="url(#clipPath1045)"><path
             inkscape:connector-curvature="0"
             id="path1049"
             style="fill:#000000;fill-opacity:0.2;fill-rule:nonzero;stroke:none"
             d="m 276,13.5 h 114 v 66 H 276 Z" /></g></g></mask><clipPath
       id="clipPath1061"
       clipPathUnits="userSpaceOnUse"><path
         inkscape:connector-curvature="0"
         id="path1059"
         d="m 276,13.5 h 114 v 66 H 276 Z" /></clipPath><clipPath
       id="clipPath1065"
       clipPathUnits="userSpaceOnUse"><path
         inkscape:connector-curvature="0"
         id="path1063"
         d="M 276,14 H 390 V 80 H 276 Z" /></clipPath><clipPath
       id="clipPath1107"
       clipPathUnits="userSpaceOnUse"><path
         inkscape:connector-curvature="0"
         id="path1105"
         d="m 432,13.5 h 132 v 66 H 432 Z" /></clipPath><mask
       id="mask1109"
       height="1"
       width="1"
       y="0"
       x="0"
       maskUnits="userSpaceOnUse"><g
         id="g1115"><g
           id="g1113"
           clip-path="url(#clipPath1107)"><path
             inkscape:connector-curvature="0"
             id="path1111"
             style="fill:#000000;fill-opacity:0.2;fill-rule:nonzero;stroke:none"
             d="m 432,13.5 h 132 v 66 H 432 Z" /></g></g></mask><clipPath
       id="clipPath1123"
       clipPathUnits="userSpaceOnUse"><path
         inkscape:connector-curvature="0"
         id="path1121"
         d="m 432,13.5 h 132 v 66 H 432 Z" /></clipPath><clipPath
       id="clipPath1127"
       clipPathUnits="userSpaceOnUse"><path
         inkscape:connector-curvature="0"
         id="path1125"
         d="M 432,14 H 564 V 80 H 432 Z" /></clipPath><clipPath
       id="clipPath1171"
       clipPathUnits="userSpaceOnUse"><path
         inkscape:connector-curvature="0"
         id="path1169"
         d="m 432,139.5 h 133 v 66 H 432 Z" /></clipPath><mask
       id="mask1173"
       height="1"
       width="1"
       y="0"
       x="0"
       maskUnits="userSpaceOnUse"><g
         id="g1179"><g
           id="g1177"
           clip-path="url(#clipPath1171)"><path
             inkscape:connector-curvature="0"
             id="path1175"
             style="fill:#000000;fill-opacity:0.2;fill-rule:nonzero;stroke:none"
             d="m 432,139.5 h 133 v 66 H 432 Z" /></g></g></mask><clipPath
       id="clipPath1187"
       clipPathUnits="userSpaceOnUse"><path
         inkscape:connector-curvature="0"
         id="path1185"
         d="m 432,139.5 h 133 v 66 H 432 Z" /></clipPath><clipPath
       id="clipPath1191"
       clipPathUnits="userSpaceOnUse"><path
         inkscape:connector-curvature="0"
         id="path1189"
         d="m 432,140 h 133 v 66 H 432 Z" /></clipPath><clipPath
       id="clipPath1315"
       clipPathUnits="userSpaceOnUse"><path
         inkscape:connector-curvature="0"
         id="path1313"
         d="m 12,127.5 h 80 v 84 H 12 Z" /></clipPath><mask
       id="mask1317"
       height="1"
       width="1"
       y="0"
       x="0"
       maskUnits="userSpaceOnUse"><g
         id="g1323"><g
           id="g1321"
           clip-path="url(#clipPath1315)"><path
             inkscape:connector-curvature="0"
             id="path1319"
             style="fill:#000000;fill-opacity:0.2;fill-rule:nonzero;stroke:none"
             d="m 12,127.5 h 80 v 84 H 12 Z" /></g></g></mask><clipPath
       id="clipPath1331"
       clipPathUnits="userSpaceOnUse"><path
         inkscape:connector-curvature="0"
         id="path1329"
         d="m 12,127.5 h 80 v 84 H 12 Z" /></clipPath><clipPath
       id="clipPath1335"
       clipPathUnits="userSpaceOnUse"><path
         inkscape:connector-curvature="0"
         id="path1333"
         d="m 12,128 h 80 v 84 H 12 Z" /></clipPath></defs><sodipodi:namedview
     inkscape:current-layer="g841"
     inkscape:window-maximized="0"
     inkscape:window-y="23"
     inkscape:window-x="0"
     inkscape:cy="217"
     inkscape:cx="378"
     inkscape:zoom="0.76719577"
     showgrid="false"
     id="namedview835"
     inkscape:window-height="480"
     inkscape:window-width="904"
     inkscape:pageshadow="2"
     inkscape:pageopacity="0"
     guidetolerance="10"
     gridtolerance="10"
     objecttolerance="10"
     borderopacity="1"
     bordercolor="#666666"
     pagecolor="#ffffff" /><g
     transform="matrix(1.3333333,0,0,-1.3333333,0,434)"
     inkscape:label="SlideRunner_UML"
     inkscape:groupmode="layer"
     id="g841"><g
       id="g843"><g
         id="g845"><g
           id="g847" /><g
           mask="url(#mask853)"
           id="g861"><g
             id="g863" /><g
             id="g885"><g
               id="g883"
               clip-path="url(#clipPath867)"><g
                 id="g881"
                 transform="translate(0,-0.5)"><g
                   id="g879"><g
                     id="g877"
                     clip-path="url(#clipPath871)"><g
                       id="g875"><path
                         inkscape:connector-curvature="0"
                         id="path873"
                         style="fill:#c0c0c0;fill-opacity:1;fill-rule:nonzero;stroke:none"
                         d="M 168.75,205.25 H 300 V 140 H 168.75 Z" /></g></g></g></g></g></g></g></g><g
         transform="matrix(1,0,0,-1,0,325.5)"
         id="g887"><path
           inkscape:connector-curvature="0"
           id="path889"
           style="fill:#ffffff;fill-opacity:1;fill-rule:nonzero;stroke:#000000;stroke-width:0.75;stroke-linecap:butt;stroke-linejoin:miter;stroke-miterlimit:10;stroke-dasharray:none;stroke-opacity:1"
           d="m 163.5,115.5 h 131.25 v 65.25 H 163.5 Z" /></g><g
         transform="matrix(1,0,0,-1,0,325.5)"
         id="g891"><path
           inkscape:connector-curvature="0"
           id="path893"
           style="fill:none;stroke:#000000;stroke-width:0.75;stroke-linecap:butt;stroke-linejoin:miter;stroke-miterlimit:10;stroke-dasharray:none;stroke-opacity:1"
           d="M 163.5,134.25 H 294.75" /></g><g
         transform="matrix(1,0,0,-1,0,325.5)"
         id="g895"><path
           inkscape:connector-curvature="0"
           id="path897"
           style="fill:none;stroke:#000000;stroke-width:0.75;stroke-linecap:butt;stroke-linejoin:miter;stroke-miterlimit:10;stroke-dasharray:none;stroke-opacity:1"
           d="M 163.5,151.5 H 294.75" /></g><text
         id="text901"
         style="font-variant:normal;font-weight:bold;font-size:9.75px;font-family:Arial;-inkscape-font-specification:Arial-BoldMT;writing-mode:lr-tb;fill:#000000;fill-opacity:1;fill-rule:nonzero;stroke:none"
         transform="matrix(1,0,0,-1,205.875,195.375)"><tspan
           id="tspan899"
           sodipodi:role="line"
           y="0"
           x="0 7.0395002 13.01625 18.963751 24.911249 28.158001 33.578999 36.855 39.555752 45.50325">Annotation</tspan></text><text
         id="text905"
         style="font-variant:normal;font-weight:normal;font-size:9.75px;font-family:Arial;-inkscape-font-specification:ArialMT;writing-mode:lr-tb;fill:#000000;fill-opacity:1;fill-rule:nonzero;stroke:none"
         transform="matrix(1,0,0,-1,167.25,178.125)"><tspan
           id="tspan903"
           sodipodi:role="line"
           y="0"
           x="0 5.6842499 11.10525 16.526251 18.69075 24.11175 29.532749 34.983002 37.68375 44.723251 47.424 50.124748 52.289249 57.710251">+uniqueID: int</tspan></text><g
         id="g907"><g
           id="g909" /><g
           mask="url(#mask915)"
           id="g923"><g
             id="g925" /><g
             id="g947"><g
               id="g945"
               clip-path="url(#clipPath929)"><g
                 id="g943"
                 transform="translate(0,-0.5)"><g
                   id="g941"><g
                     id="g939"
                     clip-path="url(#clipPath933)"><g
                       id="g937"><path
                         inkscape:connector-curvature="0"
                         id="path935"
                         style="fill:#c0c0c0;fill-opacity:1;fill-rule:nonzero;stroke:none"
                         d="m 54.75,79.25 h 126 V 2.75 h -126 z" /></g></g></g></g></g></g></g></g><g
         transform="matrix(1,0,0,-1,0,325.5)"
         id="g949"><path
           inkscape:connector-curvature="0"
           id="path951"
           style="fill:#ffffff;fill-opacity:1;fill-rule:nonzero;stroke:#000000;stroke-width:0.75;stroke-linecap:butt;stroke-linejoin:miter;stroke-miterlimit:10;stroke-dasharray:none;stroke-opacity:1"
           d="m 49.5,241.5 h 126 V 318 h -126 z" /></g><g
         transform="matrix(1,0,0,-1,0,325.5)"
         id="g953"><path
           inkscape:connector-curvature="0"
           id="path955"
           style="fill:none;stroke:#000000;stroke-width:0.75;stroke-linecap:butt;stroke-linejoin:miter;stroke-miterlimit:10;stroke-dasharray:none;stroke-opacity:1"
           d="m 49.5,260.25 h 126" /></g><g
         transform="matrix(1,0,0,-1,0,325.5)"
         id="g957"><path
           inkscape:connector-curvature="0"
           id="path959"
           style="fill:none;stroke:#000000;stroke-width:0.75;stroke-linecap:butt;stroke-linejoin:miter;stroke-miterlimit:10;stroke-dasharray:none;stroke-opacity:1"
           d="m 49.5,311.25 h 126" /></g><text
         id="text963"
         style="font-variant:normal;font-weight:bold;font-size:9.75px;font-family:Arial;-inkscape-font-specification:Arial-BoldMT;writing-mode:lr-tb;fill:#000000;fill-opacity:1;fill-rule:nonzero;stroke:none"
         transform="matrix(1,0,0,-1,89.25,69.375)"><tspan
           id="tspan961"
           sodipodi:role="line"
           y="0"
           x="0 7.0395002 12.987 18.9345 22.727249 28.674749 31.3755 37.323002 42.743999 46.02">Coordinate</tspan></text><text
         id="text973"
         style="font-variant:normal;font-weight:normal;font-size:9.75px;font-family:Arial;-inkscape-font-specification:ArialMT;writing-mode:lr-tb;fill:#000000;fill-opacity:1;fill-rule:nonzero;stroke:none"
         transform="matrix(1,0,0,-1,53.249997,52.124998)"><tspan
           id="tspan965"
           sodipodi:role="line"
           y="0"
           x="0 5.6842499 10.48125 13.182 15.88275 18.047251 23.46825">+x: int</tspan><tspan
           id="tspan967"
           sodipodi:role="line"
           y="11.249999"
           x="0 5.6842499 10.55925 13.26 15.96075 18.12525 23.546249">+y: int</tspan><tspan
           id="tspan969"
           sodipodi:role="line"
           y="22.499996"
           x="0 5.6842499 11.10525 14.352 19.773001 25.194 28.469999 31.17075 33.871498 36.035999 41.457001">+order: int</tspan><tspan
           id="tspan971"
           sodipodi:role="line"
           y="33.749996"
           x="0 5.6842499 11.10525 16.526251 18.69075 24.11175 29.532749 34.983002 37.68375 44.723251 47.424 50.124748 52.289249 57.710251">+uniqueID: int</tspan></text><g
         id="g975"><g
           id="g977" /><g
           mask="url(#mask983)"
           id="g991"><g
             id="g993" /><g
             id="g1015"><g
               id="g1013"
               clip-path="url(#clipPath997)"><g
                 id="g1011"
                 transform="translate(0,-0.5)"><g
                   id="g1009"><g
                     id="g1007"
                     clip-path="url(#clipPath1001)"><g
                       id="g1005"><path
                         inkscape:connector-curvature="0"
                         id="path1003"
                         style="fill:#c0c0c0;fill-opacity:1;fill-rule:nonzero;stroke:none"
                         d="M 168.75,313.25 H 294 V 254 H 168.75 Z" /></g></g></g></g></g></g></g></g><g
         transform="matrix(1,0,0,-1,0,325.5)"
         id="g1017"><path
           inkscape:connector-curvature="0"
           id="path1019"
           style="fill:#ffffff;fill-opacity:1;fill-rule:nonzero;stroke:#000000;stroke-width:0.75;stroke-linecap:butt;stroke-linejoin:miter;stroke-miterlimit:10;stroke-dasharray:none;stroke-opacity:1"
           d="M 163.5,7.5 H 288.75 V 66.75 H 163.5 Z" /></g><g
         transform="matrix(1,0,0,-1,0,325.5)"
         id="g1021"><path
           inkscape:connector-curvature="0"
           id="path1023"
           style="fill:none;stroke:#000000;stroke-width:0.75;stroke-linecap:butt;stroke-linejoin:miter;stroke-miterlimit:10;stroke-dasharray:none;stroke-opacity:1"
           d="M 163.5,26.25 H 288.75" /></g><g
         transform="matrix(1,0,0,-1,0,325.5)"
         id="g1025"><path
           inkscape:connector-curvature="0"
           id="path1027"
           style="fill:none;stroke:#000000;stroke-width:0.75;stroke-linecap:butt;stroke-linejoin:miter;stroke-miterlimit:10;stroke-dasharray:none;stroke-opacity:1"
           d="M 163.5,54.75 H 288.75" /></g><text
         id="text1031"
         style="font-variant:normal;font-weight:bold;font-size:9.75px;font-family:Arial;-inkscape-font-specification:Arial-BoldMT;writing-mode:lr-tb;fill:#000000;fill-opacity:1;fill-rule:nonzero;stroke:none"
         transform="matrix(1,0,0,-1,215.25,303.375)"><tspan
           id="tspan1029"
           sodipodi:role="line"
           y="0"
           x="0 6.4935002 9.1942501 11.895 17.842501">Slide</tspan></text><text
         id="text1037"
         style="font-variant:normal;font-weight:normal;font-size:9.75px;font-family:Arial;-inkscape-font-specification:ArialMT;writing-mode:lr-tb;fill:#000000;fill-opacity:1;fill-rule:nonzero;stroke:none"
         transform="matrix(1,0,0,-1,167.25,286.125)"><tspan
           id="tspan1033"
           sodipodi:role="line"
           y="0"
           x="0 5.6842499 8.3850002 10.5495 12.714 18.135 25.1745 30.595501 38.765999 44.187 46.887749 49.588501 54.463501 57.164249 60.410999 62.5755 67.996498">+fileName: string</tspan><tspan
           id="tspan1035"
           sodipodi:role="line"
           y="11.249999"
           x="0 5.6842499 11.10525 16.526251 18.69075 24.11175 29.532749 34.983002 37.68375 44.723251 47.424 50.124748 52.289249 57.710251">+uniqueID: int</tspan></text><g
         id="g1039"><g
           id="g1041" /><g
           mask="url(#mask1047)"
           id="g1055"><g
             id="g1057" /><g
             id="g1079"><g
               id="g1077"
               clip-path="url(#clipPath1061)"><g
                 id="g1075"
                 transform="translate(0,-0.5)"><g
                   id="g1073"><g
                     id="g1071"
                     clip-path="url(#clipPath1065)"><g
                       id="g1069"><path
                         inkscape:connector-curvature="0"
                         id="path1067"
                         style="fill:#c0c0c0;fill-opacity:1;fill-rule:nonzero;stroke:none"
                         d="M 276.75,79.25 H 390 V 14 H 276.75 Z" /></g></g></g></g></g></g></g></g><g
         transform="matrix(1,0,0,-1,0,325.5)"
         id="g1081"><path
           inkscape:connector-curvature="0"
           id="path1083"
           style="fill:#ffffff;fill-opacity:1;fill-rule:nonzero;stroke:#000000;stroke-width:0.75;stroke-linecap:butt;stroke-linejoin:miter;stroke-miterlimit:10;stroke-dasharray:none;stroke-opacity:1"
           d="m 271.5,241.5 h 113.25 v 65.25 H 271.5 Z" /></g><g
         transform="matrix(1,0,0,-1,0,325.5)"
         id="g1085"><path
           inkscape:connector-curvature="0"
           id="path1087"
           style="fill:none;stroke:#000000;stroke-width:0.75;stroke-linecap:butt;stroke-linejoin:miter;stroke-miterlimit:10;stroke-dasharray:none;stroke-opacity:1"
           d="M 271.5,260.25 H 384.75" /></g><g
         transform="matrix(1,0,0,-1,0,325.5)"
         id="g1089"><path
           inkscape:connector-curvature="0"
           id="path1091"
           style="fill:none;stroke:#000000;stroke-width:0.75;stroke-linecap:butt;stroke-linejoin:miter;stroke-miterlimit:10;stroke-dasharray:none;stroke-opacity:1"
           d="M 271.5,277.5 H 384.75" /></g><text
         id="text1095"
         style="font-variant:normal;font-weight:bold;font-size:9.75px;font-family:Arial;-inkscape-font-specification:Arial-BoldMT;writing-mode:lr-tb;fill:#000000;fill-opacity:1;fill-rule:nonzero;stroke:none"
         transform="matrix(1,0,0,-1,316.5,69.375)"><tspan
           id="tspan1093"
           sodipodi:role="line"
           y="0"
           x="0 5.9475002 11.3685 17.316 22.737">Label</tspan></text><text
         id="text1099"
         style="font-variant:normal;font-weight:normal;font-size:9.75px;font-family:Arial;-inkscape-font-specification:ArialMT;writing-mode:lr-tb;fill:#000000;fill-opacity:1;fill-rule:nonzero;stroke:none"
         transform="matrix(1,0,0,-1,275.25,52.124998)"><tspan
           id="tspan1097"
           sodipodi:role="line"
           y="0"
           x="0 5.6842499 11.10525 16.526251 18.69075 24.11175 29.532749 34.983002 37.68375 44.723251 47.424 50.124748 52.289249 57.710251">+uniqueID: int</tspan></text><g
         id="g1101"><g
           id="g1103" /><g
           mask="url(#mask1109)"
           id="g1117"><g
             id="g1119" /><g
             id="g1141"><g
               id="g1139"
               clip-path="url(#clipPath1123)"><g
                 id="g1137"
                 transform="translate(0,-0.5)"><g
                   id="g1135"><g
                     id="g1133"
                     clip-path="url(#clipPath1127)"><g
                       id="g1131"><path
                         inkscape:connector-curvature="0"
                         id="path1129"
                         style="fill:#c0c0c0;fill-opacity:1;fill-rule:nonzero;stroke:none"
                         d="M 432.75,79.25 H 564 V 14 H 432.75 Z" /></g></g></g></g></g></g></g></g><g
         transform="matrix(1,0,0,-1,0,325.5)"
         id="g1143"><path
           inkscape:connector-curvature="0"
           id="path1145"
           style="fill:#ffffff;fill-opacity:1;fill-rule:nonzero;stroke:#000000;stroke-width:0.75;stroke-linecap:butt;stroke-linejoin:miter;stroke-miterlimit:10;stroke-dasharray:none;stroke-opacity:1"
           d="m 427.5,241.5 h 131.25 v 65.25 H 427.5 Z" /></g><g
         transform="matrix(1,0,0,-1,0,325.5)"
         id="g1147"><path
           inkscape:connector-curvature="0"
           id="path1149"
           style="fill:none;stroke:#000000;stroke-width:0.75;stroke-linecap:butt;stroke-linejoin:miter;stroke-miterlimit:10;stroke-dasharray:none;stroke-opacity:1"
           d="M 427.5,260.25 H 558.75" /></g><g
         transform="matrix(1,0,0,-1,0,325.5)"
         id="g1151"><path
           inkscape:connector-curvature="0"
           id="path1153"
           style="fill:none;stroke:#000000;stroke-width:0.75;stroke-linecap:butt;stroke-linejoin:miter;stroke-miterlimit:10;stroke-dasharray:none;stroke-opacity:1"
           d="M 427.5,288.75 H 558.75" /></g><text
         id="text1157"
         style="font-variant:normal;font-weight:bold;font-size:9.75px;font-family:Arial;-inkscape-font-specification:Arial-BoldMT;writing-mode:lr-tb;fill:#000000;fill-opacity:1;fill-rule:nonzero;stroke:none"
         transform="matrix(1,0,0,-1,477.75,69.375)"><tspan
           id="tspan1155"
           sodipodi:role="line"
           y="0"
           x="0 6.4935002 11.9145 15.70725 21.12825 27.07575">Person</tspan></text><text
         id="text1163"
         style="font-variant:normal;font-weight:normal;font-size:9.75px;font-family:Arial;-inkscape-font-specification:ArialMT;writing-mode:lr-tb;fill:#000000;fill-opacity:1;fill-rule:nonzero;stroke:none"
         transform="matrix(1,0,0,-1,431.25,52.124998)"><tspan
           id="tspan1159"
           sodipodi:role="line"
           y="0"
           x="0 5.6842499 12.72375 18.144751 26.3055 31.7265 34.42725 37.127998 42.002998 44.703751 47.9505 50.115002 55.535999">+Name: string</tspan><tspan
           id="tspan1161"
           sodipodi:role="line"
           y="11.249999"
           x="0 5.6842499 11.10525 16.526251 18.69075 24.11175 29.532749 34.983002 37.68375 44.723251 47.424 50.124748 52.289249 57.710251">+uniqueID: int</tspan></text><g
         id="g1165"><g
           id="g1167" /><g
           mask="url(#mask1173)"
           id="g1181"><g
             id="g1183" /><g
             id="g1205"><g
               id="g1203"
               clip-path="url(#clipPath1187)"><g
                 id="g1201"
                 transform="translate(0,-0.5)"><g
                   id="g1199"><g
                     id="g1197"
                     clip-path="url(#clipPath1191)"><g
                       id="g1195"><path
                         inkscape:connector-curvature="0"
                         id="path1193"
                         style="fill:#c0c0c0;fill-opacity:1;fill-rule:nonzero;stroke:none"
                         d="m 432.75,205.25 h 132 V 140 h -132 z" /></g></g></g></g></g></g></g></g><g
         transform="matrix(1,0,0,-1,0,325.5)"
         id="g1207"><path
           inkscape:connector-curvature="0"
           id="path1209"
           style="fill:#ffffff;fill-opacity:1;fill-rule:nonzero;stroke:#000000;stroke-width:0.75;stroke-linecap:butt;stroke-linejoin:miter;stroke-miterlimit:10;stroke-dasharray:none;stroke-opacity:1"
           d="m 427.5,115.5 h 132 v 65.25 h -132 z" /></g><g
         transform="matrix(1,0,0,-1,0,325.5)"
         id="g1211"><path
           inkscape:connector-curvature="0"
           id="path1213"
           style="fill:none;stroke:#000000;stroke-width:0.75;stroke-linecap:butt;stroke-linejoin:miter;stroke-miterlimit:10;stroke-dasharray:none;stroke-opacity:1"
           d="m 427.5,134.25 h 132" /></g><g
         transform="matrix(1,0,0,-1,0,325.5)"
         id="g1215"><path
           inkscape:connector-curvature="0"
           id="path1217"
           style="fill:none;stroke:#000000;stroke-width:0.75;stroke-linecap:butt;stroke-linejoin:miter;stroke-miterlimit:10;stroke-dasharray:none;stroke-opacity:1"
           d="m 427.5,162.75 h 132" /></g><text
         id="text1221"
         style="font-variant:normal;font-weight:bold;font-size:9.75px;font-family:Arial;-inkscape-font-specification:Arial-BoldMT;writing-mode:lr-tb;fill:#000000;fill-opacity:1;fill-rule:nonzero;stroke:none"
         transform="matrix(1,0,0,-1,481.125,195.375)"><tspan
           id="tspan1219"
           sodipodi:role="line"
           y="0"
           x="0 7.0395002 9.7402496 15.16125 20.582251">Class</tspan></text><text
         id="text1227"
         style="font-variant:normal;font-weight:normal;font-size:9.75px;font-family:Arial;-inkscape-font-specification:ArialMT;writing-mode:lr-tb;fill:#000000;fill-opacity:1;fill-rule:nonzero;stroke:none"
         transform="matrix(1,0,0,-1,431.25,178.125)"><tspan
           id="tspan1223"
           sodipodi:role="line"
           y="0"
           x="0 5.6842499 12.72375 18.144751 26.3055 31.7265 34.42725 37.127998 42.002998 44.703751 47.9505 50.115002 55.535999">+Name: string</tspan><tspan
           id="tspan1225"
           sodipodi:role="line"
           y="11.249999"
           x="0 5.6842499 11.10525 16.526251 18.69075 24.11175 29.532749 34.983002 37.68375 44.723251 47.424 50.124748 52.289249 57.710251">+uniqueID: int</tspan></text><g
         transform="matrix(1,0,0,-1,0,325.5)"
         id="g1229"><path
           inkscape:connector-curvature="0"
           id="path1231"
           style="fill:none;stroke:#000000;stroke-width:0.75;stroke-linecap:butt;stroke-linejoin:miter;stroke-miterlimit:10;stroke-dasharray:none;stroke-opacity:1"
           d="M 301.5,240.75 255,181.5" /></g><path
         inkscape:connector-curvature="0"
         id="path1233"
         style="fill:#ffffff;fill-opacity:1;fill-rule:nonzero;stroke:none"
         d="M 262.188,139.953 255,144 l 2.223,-7.945 7.965,-5.035" /><g
         transform="matrix(1,0,0,-1,0,325.5)"
         id="g1235"><path
           inkscape:connector-curvature="0"
           id="path1237"
           style="fill:none;stroke:#000000;stroke-width:0.75;stroke-linecap:butt;stroke-linejoin:miter;stroke-miterlimit:10;stroke-dasharray:none;stroke-opacity:1"
           d="M 262.188,185.547 255,181.5 l 2.223,7.945 7.965,5.035 -3,-8.933" /></g><text
         id="text1245"
         style="font-variant:normal;font-weight:normal;font-size:9.75px;font-family:Arial;-inkscape-font-specification:ArialMT;writing-mode:lr-tb;fill:#000000;fill-opacity:1;fill-rule:nonzero;stroke:none"
         transform="matrix(1,0,0,-1,234.375,103.125)"><tspan
           id="tspan1239"
           sodipodi:role="line"
           y="0"
           x="0 5.6842499 7.8487501 13.26975 18.69075 24.11175 26.276251 31.151251 33.852001">+labels[]</tspan><tspan
           id="tspan1241"
           sodipodi:role="line"
           y="4.4999957"
           x="56.250004 61.671001 64.37175 67.072502">1..*</tspan><tspan
           id="tspan1243"
           y="-29.25"
           x="35.250004">1</tspan></text><g
         transform="matrix(1,0,0,-1,0,325.5)"
         id="g1247"><path
           inkscape:connector-curvature="0"
           id="path1249"
           style="fill:none;stroke:#000000;stroke-width:0.75;stroke-linecap:butt;stroke-linejoin:miter;stroke-miterlimit:10;stroke-dasharray:none;stroke-opacity:1"
           d="M 228,114.75 226.5,67.5" /></g><path
         inkscape:connector-curvature="0"
         id="path1251"
         style="fill:#ffffff;fill-opacity:1;fill-rule:nonzero;stroke:none"
         d="m 229.898,250.48 -3.398,7.52 -2.914,-7.719 3.437,-8.773" /><g
         transform="matrix(1,0,0,-1,0,325.5)"
         id="g1253"><path
           inkscape:connector-curvature="0"
           id="path1255"
           style="fill:none;stroke:#000000;stroke-width:0.75;stroke-linecap:butt;stroke-linejoin:miter;stroke-miterlimit:10;stroke-dasharray:none;stroke-opacity:1"
           d="m 229.898,75.02 -3.398,-7.52 -2.914,7.719 3.437,8.773 2.875,-8.972" /></g><text
         id="text1261"
         style="font-variant:normal;font-weight:normal;font-size:9.75px;font-family:Arial;-inkscape-font-specification:ArialMT;writing-mode:lr-tb;fill:#000000;fill-opacity:1;fill-rule:nonzero;stroke:none"
         transform="matrix(1,0,0,-1,150.375,224.625)"><tspan
           id="tspan1257"
           sodipodi:role="line"
           y="0"
           x="0 5.6842499 11.10525 16.526251 21.94725 27.36825 30.069 35.490002 38.19075 40.355251 45.776249 51.226501 56.101501 58.80225">+annotations[]</tspan><tspan
           id="tspan1259"
           sodipodi:role="line"
           y="1.4999985"
           x="78 83.420998 86.12175 88.822502">0..*</tspan></text><g
         transform="matrix(1,0,0,-1,0,325.5)"
         id="g1263"><path
           inkscape:connector-curvature="0"
           id="path1265"
           style="fill:none;stroke:#000000;stroke-width:0.75;stroke-linecap:butt;stroke-linejoin:miter;stroke-miterlimit:10;stroke-dasharray:none;stroke-opacity:1"
           d="m 449.25,181.5 -78,59.25" /></g><text
         id="text1271"
         style="font-variant:normal;font-weight:normal;font-size:9.75px;font-family:Arial;-inkscape-font-specification:ArialMT;writing-mode:lr-tb;fill:#000000;fill-opacity:1;fill-rule:nonzero;stroke:none"
         transform="matrix(1,0,0,-1,402.375,101.625)"><tspan
           id="tspan1267"
           sodipodi:role="line"
           y="0"
           x="0 5.6842499 10.55925 12.72375 18.144751 23.019751">+class</tspan><tspan
           id="tspan1269"
           y="-27.000002"
           x="18.75">1</tspan></text><g
         transform="matrix(1,0,0,-1,0,325.5)"
         id="g1273"><path
           inkscape:connector-curvature="0"
           id="path1275"
           style="fill:none;stroke:#000000;stroke-width:0.75;stroke-linecap:butt;stroke-linejoin:miter;stroke-miterlimit:10;stroke-dasharray:none;stroke-opacity:1"
           d="M 426.75,273.75 H 385.5" /></g><text
         id="text1281"
         style="font-variant:normal;font-weight:normal;font-size:9.75px;font-family:Arial;-inkscape-font-specification:ArialMT;writing-mode:lr-tb;fill:#000000;fill-opacity:1;fill-rule:nonzero;stroke:none"
         transform="matrix(1,0,0,-1,387.375,35.625)"><tspan
           id="tspan1277"
           sodipodi:role="line"
           y="0"
           x="0 5.6842499 11.10525 16.526251 19.773001 24.648001 30.069">+person</tspan><tspan
           id="tspan1279"
           y="-20.999998"
           x="20.25">1</tspan></text><g
         transform="matrix(1,0,0,-1,0,325.5)"
         id="g1283"><path
           inkscape:connector-curvature="0"
           id="path1285"
           style="fill:none;stroke:#000000;stroke-width:0.75;stroke-linecap:butt;stroke-linejoin:miter;stroke-miterlimit:10;stroke-dasharray:none;stroke-opacity:1"
           d="M 147,240.75 198.75,181.5" /></g><path
         inkscape:connector-curvature="0"
         id="path1287"
         style="fill:#ffffff;fill-opacity:1;fill-rule:nonzero;stroke:none"
         d="m 196.113,136.184 2.637,7.816 -7.391,-3.664 -3.464,-8.762" /><g
         transform="matrix(1,0,0,-1,0,325.5)"
         id="g1289"><path
           inkscape:connector-curvature="0"
           id="path1291"
           style="fill:none;stroke:#000000;stroke-width:0.75;stroke-linecap:butt;stroke-linejoin:miter;stroke-miterlimit:10;stroke-dasharray:none;stroke-opacity:1"
           d="m 196.113,189.316 2.637,-7.816 -7.391,3.664 -3.464,8.762 8.218,-4.61" /></g><text
         id="text1297"
         style="font-variant:normal;font-weight:normal;font-size:9.75px;font-family:Arial;-inkscape-font-specification:ArialMT;writing-mode:lr-tb;fill:#000000;fill-opacity:1;fill-rule:nonzero;stroke:none"
         transform="matrix(1,0,0,-1,132.375,118.125)"><tspan
           id="tspan1293"
           sodipodi:role="line"
           y="0"
           x="0 5.6842499 10.55925 15.98025 21.401251 24.648001 30.069 32.262749 37.68375 43.104752 45.8055 51.226501 56.101501 58.80225">+coordinates[]</tspan><tspan
           id="tspan1295"
           sodipodi:role="line"
           y="31.499998"
           x="23.999996 29.420996 32.121746 34.822495">1..*</tspan></text><g
         transform="matrix(1,0,0,-1,0,325.5)"
         id="g1299"><path
           inkscape:connector-curvature="0"
           id="path1301"
           style="fill:none;stroke:#000000;stroke-width:0.75;stroke-linecap:butt;stroke-linejoin:miter;stroke-miterlimit:10;stroke-dasharray:none;stroke-opacity:1"
           d="M 295.5,147.75 H 426.75" /></g><text
         id="text1307"
         style="font-variant:normal;font-weight:normal;font-size:9.75px;font-family:Arial;-inkscape-font-specification:ArialMT;writing-mode:lr-tb;fill:#000000;fill-opacity:1;fill-rule:nonzero;stroke:none"
         transform="matrix(1,0,0,-1,330.375,184.125)"><tspan
           id="tspan1303"
           sodipodi:role="line"
           y="0"
           x="0 5.6842499 11.10525 16.526251 19.773001 25.194 30.644251 36.06525 43.104752 45.269249 50.69025 55.56525">+agreedClass</tspan><tspan
           id="tspan1305"
           y="20.249998"
           x="77.25">1</tspan></text><g
         id="g1309"><g
           id="g1311" /><g
           mask="url(#mask1317)"
           id="g1325"><g
             id="g1327" /><g
             id="g1349"><g
               id="g1347"
               clip-path="url(#clipPath1331)"><g
                 id="g1345"
                 transform="translate(0,-0.5)"><g
                   id="g1343"><g
                     id="g1341"
                     clip-path="url(#clipPath1335)"><g
                       id="g1339"><path
                         inkscape:connector-curvature="0"
                         id="path1337"
                         style="fill:#c0c0c0;fill-opacity:1;fill-rule:nonzero;stroke:none"
                         d="M 12.75,211.25 H 91.5 V 128 H 12.75 Z" /></g></g></g></g></g></g></g></g><g
         transform="matrix(1,0,0,-1,0,325.5)"
         id="g1351"><path
           inkscape:connector-curvature="0"
           id="path1353"
           style="fill:#ffffff;fill-opacity:1;fill-rule:nonzero;stroke:#000000;stroke-width:0.75;stroke-linecap:butt;stroke-linejoin:miter;stroke-miterlimit:10;stroke-dasharray:none;stroke-opacity:1"
           d="m 7.5,109.5 h 78.75 v 83.25 H 7.5 Z" /></g><g
         transform="matrix(1,0,0,-1,0,325.5)"
         id="g1355"><path
           inkscape:connector-curvature="0"
           id="path1357"
           style="fill:none;stroke:#000000;stroke-width:0.75;stroke-linecap:butt;stroke-linejoin:miter;stroke-miterlimit:10;stroke-dasharray:none;stroke-opacity:1"
           d="M 7.5,138 H 86.25" /></g><text
         id="text1361"
         style="font-variant:normal;font-weight:normal;font-size:9.75px;font-family:Arial;-inkscape-font-specification:ArialMT;writing-mode:lr-tb;fill:#000000;fill-opacity:1;fill-rule:nonzero;stroke:none"
         transform="matrix(1,0,0,-1,15,202.875)"><tspan
           id="tspan1359"
           sodipodi:role="line"
           y="0"
           x="0 5.421 10.842 16.263 21.684 29.8545 35.275501 38.522251 43.943249 46.644001 48.808498 54.2295 59.679749">«enumeration»</tspan></text><text
         id="text1365"
         style="font-variant:normal;font-weight:bold;font-size:9.75px;font-family:Arial;-inkscape-font-specification:Arial-BoldMT;writing-mode:lr-tb;fill:#000000;fill-opacity:1;fill-rule:nonzero;stroke:none"
         transform="matrix(1,0,0,-1,13.500002,191.625)"><tspan
           id="tspan1363"
           sodipodi:role="line"
           y="0"
           x="0 5.421 11.3685 17.316 23.2635 26.539499 31.960501 35.207249 37.908001 43.855499 49.803001 55.028999 60.42075 66.368248">annotationType</tspan></text><text
         id="text1373"
         style="font-variant:normal;font-weight:normal;font-size:9.75px;font-family:Arial;-inkscape-font-specification:ArialMT;writing-mode:lr-tb;fill:#000000;fill-opacity:1;fill-rule:nonzero;stroke:none"
         transform="matrix(1,0,0,-1,11.250004,174.375)"><tspan
           id="tspan1367"
           sodipodi:role="line"
           y="0"
           x="0 4.875 10.296 15.717">spot</tspan><tspan
           id="tspan1369"
           sodipodi:role="line"
           y="11.249998"
           x="0 5.421 8.6677504 14.08875">area</tspan><tspan
           id="tspan1371"
           sodipodi:role="line"
           y="22.499996"
           x="0 5.421 10.842 13.0065 17.8815 23.3025 28.723499">polygon</tspan></text><g
         transform="matrix(1,0,0,-1,0,325.5)"
         id="g1375"><path
           inkscape:connector-curvature="0"
           id="path1377"
           style="fill:none;stroke:#000000;stroke-width:0.75;stroke-linecap:butt;stroke-linejoin:miter;stroke-miterlimit:10;stroke-dasharray:none;stroke-opacity:1"
           d="m 87,150 75.75,-1.5" /></g><path
         inkscape:connector-curvature="0"
         id="path1379"
         style="fill:#ffffff;fill-opacity:1;fill-rule:nonzero;stroke:none"
         d="m 155.191,173.691 7.559,3.309 -7.684,3.004 -8.812,-3.332" /><g
         transform="matrix(1,0,0,-1,0,325.5)"
         id="g1381"><path
           inkscape:connector-curvature="0"
           id="path1383"
           style="fill:none;stroke:#000000;stroke-width:0.75;stroke-linecap:butt;stroke-linejoin:miter;stroke-miterlimit:10;stroke-dasharray:none;stroke-opacity:1"
           d="m 155.191,151.809 7.559,-3.309 -7.684,-3.004 -8.812,3.332 8.937,2.981" /></g><text
         id="text1389"
         style="font-variant:normal;font-weight:normal;font-size:9.75px;font-family:Arial;-inkscape-font-specification:ArialMT;writing-mode:lr-tb;fill:#000000;fill-opacity:1;fill-rule:nonzero;stroke:none"
         transform="matrix(1,0,0,-1,111,182.625)"><tspan
           id="tspan1385"
           sodipodi:role="line"
           y="0"
           x="0 5.6842499 8.3850002 13.26 18.681">+type</tspan><tspan
           id="tspan1387"
           y="20.999998"
           x="-10.875004">1</tspan></text></g></g></svg>
