<?xml version="1.0" encoding="UTF-8" standalone="no"?>
<!-- Created with Inkscape (http://www.inkscape.org/) -->

<svg
   xmlns:dc="http://purl.org/dc/elements/1.1/"
   xmlns:cc="http://creativecommons.org/ns#"
   xmlns:rdf="http://www.w3.org/1999/02/22-rdf-syntax-ns#"
   xmlns:svg="http://www.w3.org/2000/svg"
   xmlns="http://www.w3.org/2000/svg"
   xmlns:sodipodi="http://sodipodi.sourceforge.net/DTD/sodipodi-0.dtd"
   xmlns:inkscape="http://www.inkscape.org/namespaces/inkscape"
   version="1.1"
   id="svg2"
   xml:space="preserve"
   width="576"
   height="384"
   viewBox="0 0 576 384"
   sodipodi:docname="corr87.svg"
   inkscape:version="0.92.2 5c3e80d, 2017-08-06"><metadata
     id="metadata8"><rdf:RDF><cc:Work
         rdf:about=""><dc:format>image/svg+xml</dc:format><dc:type
           rdf:resource="http://purl.org/dc/dcmitype/StillImage" /><dc:title></dc:title></cc:Work></rdf:RDF></metadata><defs
     id="defs6"><marker
       inkscape:isstock="true"
       style="overflow:visible;"
       id="marker1584"
       refX="0.0"
       refY="0.0"
       orient="auto"
       inkscape:stockid="Arrow1Lend"><path
         transform="scale(0.8) rotate(180) translate(12.5,0)"
         style="fill-rule:evenodd;stroke:#008000;stroke-width:1pt;stroke-opacity:1;fill:#008000;fill-opacity:1"
         d="M 0.0,0.0 L 5.0,-5.0 L -12.5,0.0 L 5.0,5.0 L 0.0,0.0 z "
         id="path1582" /></marker><marker
       inkscape:isstock="true"
       style="overflow:visible;"
       id="marker1297"
       refX="0.0"
       refY="0.0"
       orient="auto"
       inkscape:stockid="Arrow1Lend"><path
         transform="scale(0.8) rotate(180) translate(12.5,0)"
         style="fill-rule:evenodd;stroke:#0000ff;stroke-width:1pt;stroke-opacity:1;fill:#0000ff;fill-opacity:1"
         d="M 0.0,0.0 L 5.0,-5.0 L -12.5,0.0 L 5.0,5.0 L 0.0,0.0 z "
         id="path1295" /></marker><marker
       inkscape:stockid="Arrow1Lend"
       orient="auto"
       refY="0.0"
       refX="0.0"
       id="Arrow1Lend"
       style="overflow:visible;"
       inkscape:isstock="true"
       inkscape:collect="always"><path
         id="path1004"
         d="M 0.0,0.0 L 5.0,-5.0 L -12.5,0.0 L 5.0,5.0 L 0.0,0.0 z "
         style="fill-rule:evenodd;stroke:#ff0000;stroke-width:1pt;stroke-opacity:1;fill:#ff0000;fill-opacity:1"
         transform="scale(0.8) rotate(180) translate(12.5,0)" /></marker><clipPath
       clipPathUnits="userSpaceOnUse"
       id="clipPath18"><path
         d="M 0,288 H 432 V 0.06 H 0 Z"
         id="path16"
         inkscape:connector-curvature="0" /></clipPath><clipPath
       clipPathUnits="userSpaceOnUse"
       id="clipPath30"><path
         d="M 54,36 H 388.8 V 259.2 H 54 Z"
         id="path28"
         inkscape:connector-curvature="0" /></clipPath><clipPath
       clipPathUnits="userSpaceOnUse"
       id="clipPath42"><path
         d="M 0,288 H 432 V 0.06 H 0 Z"
         id="path40"
         inkscape:connector-curvature="0" /></clipPath></defs><sodipodi:namedview
     pagecolor="#ffffff"
     bordercolor="#666666"
     borderopacity="1"
     objecttolerance="10"
     gridtolerance="10"
     guidetolerance="10"
     inkscape:pageopacity="0"
     inkscape:pageshadow="2"
     inkscape:window-width="1077"
     inkscape:window-height="690"
     id="namedview4"
     showgrid="false"
     inkscape:zoom="0.92187502"
     inkscape:cx="287.99999"
     inkscape:cy="212.77899"
     inkscape:window-x="0"
     inkscape:window-y="0"
     inkscape:window-maximized="0"
     inkscape:current-layer="g10" /><g
     id="g10"
     inkscape:groupmode="layer"
     inkscape:label="corr87"
     transform="matrix(1.3333333,0,0,-1.3333333,0,384)"><g
       id="g12"><g
         id="g14"
         clip-path="url(#clipPath18)"><path
           d="M 0,288 H 432 V 0.06 H 0 Z"
           style="fill:#ffffff;fill-opacity:1;fill-rule:nonzero;stroke:none"
           id="path20"
           inkscape:connector-curvature="0" /></g></g><path
       d="M 54,259.2 H 388.8 V 36 H 54 Z"
       style="fill:#ffffff;fill-opacity:1;fill-rule:nonzero;stroke:none"
       id="path22"
       inkscape:connector-curvature="0" /><g
       id="g24"><g
         id="g26"
         clip-path="url(#clipPath30)"><path
           d="m 54,220.921 1.86,-8.52 1.86,-19.505 1.86,-20.847 1.86,-15.121 1.86,-13.286 1.86,4.193 1.86,3.677 1.86,13.276 1.86,4.927 1.86,-9.398 1.86,-5.452 1.86,-7.519 1.86,-9.55 1.86,18.018 1.86,-0.017 1.86,-1.733 1.86,10.173 1.86,2.766 1.86,-6.113 1.86,9.572 1.86,-3.225 1.86,-47.911 1.86,-3.763 1.86,9.954 1.86,-3.373 1.86,1.52 1.86,-1.122 1.86,-4.684 1.86,6.096 1.86,16.57 1.86,27.704 1.86,0.875 1.86,-26.929 1.86,-11.853 1.86,-4.189 1.86,1.702 1.86,0.821 1.86,-3.064 1.86,-3.969 1.86,16.255 1.86,22.499 1.86,11.992 1.86,-20.949 3.72,-1.696 1.86,-2.936 1.86,-3.813 1.86,5.959 1.86,-9.329 1.86,-49.038 1.86,6.274 1.86,-6.05 1.86,28.562 1.86,-12.506 1.86,-5.902 1.86,6.263 3.72,4.921 1.86,19.547 1.86,-12.129 1.86,-15.09 1.86,19.037 1.86,12.289 1.86,4.885 1.86,1.547 3.72,11.019 1.86,12.124 1.86,2.829 1.86,8.729 1.86,2.441 1.86,-22.286 1.86,1.882 1.86,48.644 1.86,-15.076 1.86,0.082 1.86,-35.515 1.86,-4.305 1.86,0.537 1.86,3.02 1.86,-1.455 1.86,10.797 1.86,4.688 1.86,16.24 1.86,-14.221 1.86,-12.381 1.86,-4.516 1.86,19.339 1.86,25.764 1.86,-3.553 1.86,4.567 1.86,13.759 1.86,7.203 1.86,-14.448 1.86,1.227 1.86,11.172 1.86,-24.84 1.86,-1.304 1.86,6.847 1.86,-1.925 1.86,-2.647 1.86,-20.583 1.86,-30.607 1.86,-12.664 1.86,-9.499 1.86,-3.104 1.86,0.366 1.86,-1.031 1.86,0.715 1.86,-3.711 1.86,-2.825 1.86,-5.829 1.86,5.18 1.86,23.703 1.86,-15.283 1.86,-5.899 1.86,4.119 1.86,-7.78 1.86,0.303 1.86,-5.629 1.86,4.271 1.86,1.083 1.86,-0.791 1.86,37.032 1.86,-29.597 1.86,18.329 3.72,-12.445 1.86,-4.087 1.86,-1.38 1.86,2.875 1.86,7.071 1.86,5.155 1.86,-3.513 1.86,17.686 1.86,-13.939 1.86,4.531 1.86,-21.243 1.86,-2.234 1.86,13.111 1.86,-2.836 1.86,21.516 1.86,-0.602 1.86,1.583 1.86,0.971 3.72,0.088 1.86,-0.012 3.72,0.16 1.86,-0.025 1.86,0.118 1.86,0.279 1.86,0.757 1.86,8.156 1.86,-29.969 1.86,32.667 1.86,-24.612 1.86,62.906 1.86,-135.069 1.86,126.415 1.86,-145.14 3.72,100.044 1.86,2.023 1.86,0.954 1.86,0.311"
           style="fill:none;stroke:#0000ff;stroke-width:1;stroke-linecap:square;stroke-linejoin:round;stroke-miterlimit:100000;stroke-dasharray:none;stroke-opacity:1"
           id="path32"
           inkscape:connector-curvature="0" /><path
           d="m 54,140.642 1.86,6.653 1.86,17.156 1.86,-2.112 1.86,11.82 1.86,-10.89 1.86,12.921 1.86,5.026 1.86,3.188 1.86,1.151 1.86,-2.401 1.86,-3.34 1.86,-0.104 1.86,-1.771 1.86,5.951 1.86,-0.96 1.86,-4.367 1.86,0.205 1.86,1.118 1.86,-0.937 1.86,-0.332 1.86,-18.339 1.86,14.967 1.86,12.074 1.86,-1.304 1.86,0.098 1.86,-19.587 1.86,4.99 1.86,9.046 1.86,13.744 1.86,1.208 1.86,-3.464 1.86,-0.917 1.86,15.761 1.86,-9.022 1.86,-14.242 1.86,-3.381 1.86,-5.016 1.86,1.469 1.86,-1.739 1.86,-1.962 1.86,9.262 1.86,-20.497 1.86,-9.651 1.86,6.433 1.86,9.603 1.86,11.12 1.86,8.648 1.86,-17.182 1.86,-1.054 1.86,27.403 1.86,9.036 1.86,-29.766 1.86,26.054 1.86,-20.254 1.86,-8.495 1.86,-5.954 1.86,-8.648 1.86,3.892 1.86,6.483 1.86,5.703 1.86,3.432 1.86,-3.469 1.86,5.074 1.86,1.339 1.86,-0.983 1.86,-6.833 1.86,-2.537 1.86,-3.907 1.86,-10.473 1.86,-17.446 1.86,-10.655 1.86,16.01 1.86,-27.724 1.86,17.381 1.86,64.656 1.86,-61.14 1.86,4.493 1.86,13.151 1.86,0.682 1.86,10.851 1.86,-4.759 1.86,-11.755 1.86,-4.483 1.86,0.388 1.86,-3.176 1.86,-7.814 1.86,9.167 1.86,-6.389 1.86,-2.973 1.86,6.857 1.86,-4.54 1.86,7.651 1.86,13.44 1.86,17.745 1.86,3.947 1.86,-23.554 1.86,-13.057 1.86,1.943 1.86,-12.502 1.86,5.824 1.86,-1.256 1.86,34.491 1.86,25.571 1.86,9.374 1.86,-7.73 1.86,-4.458 1.86,-0.339 1.86,1.114 1.86,-3.739 1.86,6.148 1.86,-3.194 1.86,-2.726 1.86,-3.067 1.86,7.116 1.86,-0.952 1.86,-3.227 1.86,-13.119 1.86,-5.774 1.86,-8.786 1.86,7.992 1.86,4.49 1.86,6.372 1.86,-1.648 1.86,1.294 1.86,0.622 1.86,-8.48 1.86,-3.807 1.86,3.695 1.86,-4.162 1.86,-3.49 1.86,3.619 1.86,0.291 1.86,-3.458 1.86,8.472 1.86,-4.845 1.86,21.086 1.86,2.845 1.86,-12.118 1.86,-5.568 1.86,-8.847 1.86,3.084 1.86,-18.969 1.86,-2.015 1.86,-0.567 7.44,-0.289 1.86,0.201 5.58,0.061 3.72,0.922 1.86,9.526 1.86,-15.912 1.86,-13.073 1.86,66.343 1.86,-21.939 1.86,44.546 1.86,-86.892 1.86,99.6 1.86,-22.055 1.86,-59.118 1.86,-1.285 1.86,0.424 1.86,-1.153"
           style="fill:none;stroke:#008000;stroke-width:1;stroke-linecap:square;stroke-linejoin:round;stroke-miterlimit:100000;stroke-dasharray:none;stroke-opacity:1"
           id="path34"
           inkscape:connector-curvature="0" /></g></g><g
       id="g36"><g
         id="g38"
         clip-path="url(#clipPath42)"><path
           d="M 54,259.2 H 388.8 M 388.8,36 V 259.2 M 54,36 H 388.8 M 54,36 v 223.2"
           style="fill:none;stroke:#000000;stroke-width:1;stroke-linecap:square;stroke-linejoin:miter;stroke-miterlimit:100000;stroke-dasharray:none;stroke-opacity:1"
           id="path44"
           inkscape:connector-curvature="0" /></g></g><path
       d="m 54,36 v 4"
       style="fill:#000000;fill-opacity:1;fill-rule:nonzero;stroke:#000000;stroke-width:0.5;stroke-linecap:butt;stroke-linejoin:round;stroke-miterlimit:100000;stroke-dasharray:none;stroke-opacity:1"
       id="path46"
       inkscape:connector-curvature="0" /><path
       d="m 54,259.2 v -4"
       style="fill:#000000;fill-opacity:1;fill-rule:nonzero;stroke:#000000;stroke-width:0.5;stroke-linecap:butt;stroke-linejoin:round;stroke-miterlimit:100000;stroke-dasharray:none;stroke-opacity:1"
       id="path48"
       inkscape:connector-curvature="0" /><text
       transform="matrix(1,0,0,-1,50.8203,24.4062)"
       style="font-variant:normal;font-weight:normal;font-size:10px;font-family:Arial;-inkscape-font-specification:Arial;writing-mode:lr-tb;fill:#000000;fill-opacity:1;fill-rule:nonzero;stroke:none"
       id="text52"><tspan
         x="0"
         y="0"
         id="tspan50">0</tspan></text>
<path
       d="m 91.2,36 v 4"
       style="fill:#000000;fill-opacity:1;fill-rule:nonzero;stroke:#000000;stroke-width:0.5;stroke-linecap:butt;stroke-linejoin:round;stroke-miterlimit:100000;stroke-dasharray:none;stroke-opacity:1"
       id="path54"
       inkscape:connector-curvature="0" /><path
       d="m 91.2,259.2 v -4"
       style="fill:#000000;fill-opacity:1;fill-rule:nonzero;stroke:#000000;stroke-width:0.5;stroke-linecap:butt;stroke-linejoin:round;stroke-miterlimit:100000;stroke-dasharray:none;stroke-opacity:1"
       id="path56"
       inkscape:connector-curvature="0" /><text
       transform="matrix(1,0,0,-1,84.8406,24.4062)"
       style="font-variant:normal;font-weight:normal;font-size:10px;font-family:Arial;-inkscape-font-specification:Arial;writing-mode:lr-tb;fill:#000000;fill-opacity:1;fill-rule:nonzero;stroke:none"
       id="text60"><tspan
         x="0 6.362"
         y="0"
         sodipodi:role="line"
         id="tspan58">20</tspan></text>
<path
       d="m 128.4,36 v 4"
       style="fill:#000000;fill-opacity:1;fill-rule:nonzero;stroke:#000000;stroke-width:0.5;stroke-linecap:butt;stroke-linejoin:round;stroke-miterlimit:100000;stroke-dasharray:none;stroke-opacity:1"
       id="path62"
       inkscape:connector-curvature="0" /><path
       d="m 128.4,259.2 v -4"
       style="fill:#000000;fill-opacity:1;fill-rule:nonzero;stroke:#000000;stroke-width:0.5;stroke-linecap:butt;stroke-linejoin:round;stroke-miterlimit:100000;stroke-dasharray:none;stroke-opacity:1"
       id="path64"
       inkscape:connector-curvature="0" /><text
       transform="matrix(1,0,0,-1,122.0406,24.4062)"
       style="font-variant:normal;font-weight:normal;font-size:10px;font-family:Arial;-inkscape-font-specification:Arial;writing-mode:lr-tb;fill:#000000;fill-opacity:1;fill-rule:nonzero;stroke:none"
       id="text68"><tspan
         x="0 6.362"
         y="0"
         sodipodi:role="line"
         id="tspan66">40</tspan></text>
<path
       d="m 165.6,36 v 4"
       style="fill:#000000;fill-opacity:1;fill-rule:nonzero;stroke:#000000;stroke-width:0.5;stroke-linecap:butt;stroke-linejoin:round;stroke-miterlimit:100000;stroke-dasharray:none;stroke-opacity:1"
       id="path70"
       inkscape:connector-curvature="0" /><path
       d="m 165.6,259.2 v -4"
       style="fill:#000000;fill-opacity:1;fill-rule:nonzero;stroke:#000000;stroke-width:0.5;stroke-linecap:butt;stroke-linejoin:round;stroke-miterlimit:100000;stroke-dasharray:none;stroke-opacity:1"
       id="path72"
       inkscape:connector-curvature="0" /><text
       transform="matrix(1,0,0,-1,159.2406,24.4062)"
       style="font-variant:normal;font-weight:normal;font-size:10px;font-family:Arial;-inkscape-font-specification:Arial;writing-mode:lr-tb;fill:#000000;fill-opacity:1;fill-rule:nonzero;stroke:none"
       id="text76"><tspan
         x="0 6.362"
         y="0"
         sodipodi:role="line"
         id="tspan74">60</tspan></text>
<path
       d="m 202.8,36 v 4"
       style="fill:#000000;fill-opacity:1;fill-rule:nonzero;stroke:#000000;stroke-width:0.5;stroke-linecap:butt;stroke-linejoin:round;stroke-miterlimit:100000;stroke-dasharray:none;stroke-opacity:1"
       id="path78"
       inkscape:connector-curvature="0" /><path
       d="m 202.8,259.2 v -4"
       style="fill:#000000;fill-opacity:1;fill-rule:nonzero;stroke:#000000;stroke-width:0.5;stroke-linecap:butt;stroke-linejoin:round;stroke-miterlimit:100000;stroke-dasharray:none;stroke-opacity:1"
       id="path80"
       inkscape:connector-curvature="0" /><text
       transform="matrix(1,0,0,-1,196.4406,24.4062)"
       style="font-variant:normal;font-weight:normal;font-size:10px;font-family:Arial;-inkscape-font-specification:Arial;writing-mode:lr-tb;fill:#000000;fill-opacity:1;fill-rule:nonzero;stroke:none"
       id="text84"><tspan
         x="0 6.362"
         y="0"
         sodipodi:role="line"
         id="tspan82">80</tspan></text>
<path
       d="m 240,36 v 4"
       style="fill:#000000;fill-opacity:1;fill-rule:nonzero;stroke:#000000;stroke-width:0.5;stroke-linecap:butt;stroke-linejoin:round;stroke-miterlimit:100000;stroke-dasharray:none;stroke-opacity:1"
       id="path86"
       inkscape:connector-curvature="0" /><path
       d="m 240,259.2 v -4"
       style="fill:#000000;fill-opacity:1;fill-rule:nonzero;stroke:#000000;stroke-width:0.5;stroke-linecap:butt;stroke-linejoin:round;stroke-miterlimit:100000;stroke-dasharray:none;stroke-opacity:1"
       id="path88"
       inkscape:connector-curvature="0" /><text
       transform="matrix(1,0,0,-1,230.4609,24.4062)"
       style="font-variant:normal;font-weight:normal;font-size:10px;font-family:Arial;-inkscape-font-specification:Arial;writing-mode:lr-tb;fill:#000000;fill-opacity:1;fill-rule:nonzero;stroke:none"
       id="text92"><tspan
         x="0 6.362 12.724"
         y="0"
         sodipodi:role="line"
         id="tspan90">100</tspan></text>
<path
       d="m 277.2,36 v 4"
       style="fill:#000000;fill-opacity:1;fill-rule:nonzero;stroke:#000000;stroke-width:0.5;stroke-linecap:butt;stroke-linejoin:round;stroke-miterlimit:100000;stroke-dasharray:none;stroke-opacity:1"
       id="path94"
       inkscape:connector-curvature="0" /><path
       d="m 277.2,259.2 v -4"
       style="fill:#000000;fill-opacity:1;fill-rule:nonzero;stroke:#000000;stroke-width:0.5;stroke-linecap:butt;stroke-linejoin:round;stroke-miterlimit:100000;stroke-dasharray:none;stroke-opacity:1"
       id="path96"
       inkscape:connector-curvature="0" /><text
       transform="matrix(1,0,0,-1,267.6609,24.4062)"
       style="font-variant:normal;font-weight:normal;font-size:10px;font-family:Arial;-inkscape-font-specification:Arial;writing-mode:lr-tb;fill:#000000;fill-opacity:1;fill-rule:nonzero;stroke:none"
       id="text100"><tspan
         x="0 6.362 12.724"
         y="0"
         sodipodi:role="line"
         id="tspan98">120</tspan></text>
<path
       d="m 314.4,36 v 4"
       style="fill:#000000;fill-opacity:1;fill-rule:nonzero;stroke:#000000;stroke-width:0.5;stroke-linecap:butt;stroke-linejoin:round;stroke-miterlimit:100000;stroke-dasharray:none;stroke-opacity:1"
       id="path102"
       inkscape:connector-curvature="0" /><path
       d="m 314.4,259.2 v -4"
       style="fill:#000000;fill-opacity:1;fill-rule:nonzero;stroke:#000000;stroke-width:0.5;stroke-linecap:butt;stroke-linejoin:round;stroke-miterlimit:100000;stroke-dasharray:none;stroke-opacity:1"
       id="path104"
       inkscape:connector-curvature="0" /><text
       transform="matrix(1,0,0,-1,304.8609,24.4062)"
       style="font-variant:normal;font-weight:normal;font-size:10px;font-family:Arial;-inkscape-font-specification:Arial;writing-mode:lr-tb;fill:#000000;fill-opacity:1;fill-rule:nonzero;stroke:none"
       id="text108"><tspan
         x="0 6.362 12.724"
         y="0"
         sodipodi:role="line"
         id="tspan106">140</tspan></text>
<path
       d="m 351.6,36 v 4"
       style="fill:#000000;fill-opacity:1;fill-rule:nonzero;stroke:#000000;stroke-width:0.5;stroke-linecap:butt;stroke-linejoin:round;stroke-miterlimit:100000;stroke-dasharray:none;stroke-opacity:1"
       id="path110"
       inkscape:connector-curvature="0" /><path
       d="m 351.6,259.2 v -4"
       style="fill:#000000;fill-opacity:1;fill-rule:nonzero;stroke:#000000;stroke-width:0.5;stroke-linecap:butt;stroke-linejoin:round;stroke-miterlimit:100000;stroke-dasharray:none;stroke-opacity:1"
       id="path112"
       inkscape:connector-curvature="0" /><text
       transform="matrix(1,0,0,-1,342.061,24.4062)"
       style="font-variant:normal;font-weight:normal;font-size:10px;font-family:Arial;-inkscape-font-specification:Arial;writing-mode:lr-tb;fill:#000000;fill-opacity:1;fill-rule:nonzero;stroke:none"
       id="text116"><tspan
         x="0 6.362 12.724"
         y="0"
         sodipodi:role="line"
         id="tspan114">160</tspan></text>
<path
       d="m 388.8,36 v 4"
       style="fill:#000000;fill-opacity:1;fill-rule:nonzero;stroke:#000000;stroke-width:0.5;stroke-linecap:butt;stroke-linejoin:round;stroke-miterlimit:100000;stroke-dasharray:none;stroke-opacity:1"
       id="path118"
       inkscape:connector-curvature="0" /><path
       d="m 388.8,259.2 v -4"
       style="fill:#000000;fill-opacity:1;fill-rule:nonzero;stroke:#000000;stroke-width:0.5;stroke-linecap:butt;stroke-linejoin:round;stroke-miterlimit:100000;stroke-dasharray:none;stroke-opacity:1"
       id="path120"
       inkscape:connector-curvature="0" /><text
       transform="matrix(1,0,0,-1,379.2609,24.4062)"
       style="font-variant:normal;font-weight:normal;font-size:10px;font-family:Arial;-inkscape-font-specification:Arial;writing-mode:lr-tb;fill:#000000;fill-opacity:1;fill-rule:nonzero;stroke:none"
       id="text124"><tspan
         x="0 6.362 12.724"
         y="0"
         sodipodi:role="line"
         id="tspan122">180</tspan></text>
<path
       d="m 54,36 h 4"
       style="fill:#000000;fill-opacity:1;fill-rule:nonzero;stroke:#000000;stroke-width:0.5;stroke-linecap:butt;stroke-linejoin:round;stroke-miterlimit:100000;stroke-dasharray:none;stroke-opacity:1"
       id="path126"
       inkscape:connector-curvature="0" /><path
       d="m 388.8,36 h -4"
       style="fill:#000000;fill-opacity:1;fill-rule:nonzero;stroke:#000000;stroke-width:0.5;stroke-linecap:butt;stroke-linejoin:round;stroke-miterlimit:100000;stroke-dasharray:none;stroke-opacity:1"
       id="path128"
       inkscape:connector-curvature="0" /><text
       transform="matrix(1,0,0,-1,19.3594,33.2422)"
       style="font-variant:normal;font-weight:normal;font-size:10px;font-family:Arial;-inkscape-font-specification:Arial;writing-mode:lr-tb;fill:#000000;fill-opacity:1;fill-rule:nonzero;stroke:none"
       id="text132"><tspan
         x="0 8.3809996 14.742 17.923 24.284"
         y="0"
         sodipodi:role="line"
         id="tspan130">−0.15</tspan></text>
<path
       d="m 54,67.886 h 4"
       style="fill:#000000;fill-opacity:1;fill-rule:nonzero;stroke:#000000;stroke-width:0.5;stroke-linecap:butt;stroke-linejoin:round;stroke-miterlimit:100000;stroke-dasharray:none;stroke-opacity:1"
       id="path134"
       inkscape:connector-curvature="0" /><path
       d="m 388.8,67.886 h -4"
       style="fill:#000000;fill-opacity:1;fill-rule:nonzero;stroke:#000000;stroke-width:0.5;stroke-linecap:butt;stroke-linejoin:round;stroke-miterlimit:100000;stroke-dasharray:none;stroke-opacity:1"
       id="path136"
       inkscape:connector-curvature="0" /><text
       transform="matrix(1,0,0,-1,19.3594,65.1279)"
       style="font-variant:normal;font-weight:normal;font-size:10px;font-family:Arial;-inkscape-font-specification:Arial;writing-mode:lr-tb;fill:#000000;fill-opacity:1;fill-rule:nonzero;stroke:none"
       id="text140"><tspan
         x="0 8.3809996 14.742 17.923 24.284"
         y="0"
         sodipodi:role="line"
         id="tspan138">−0.10</tspan></text>
<path
       d="m 54,99.771 h 4"
       style="fill:#000000;fill-opacity:1;fill-rule:nonzero;stroke:#000000;stroke-width:0.5;stroke-linecap:butt;stroke-linejoin:round;stroke-miterlimit:100000;stroke-dasharray:none;stroke-opacity:1"
       id="path142"
       inkscape:connector-curvature="0" /><path
       d="m 388.8,99.771 h -4"
       style="fill:#000000;fill-opacity:1;fill-rule:nonzero;stroke:#000000;stroke-width:0.5;stroke-linecap:butt;stroke-linejoin:round;stroke-miterlimit:100000;stroke-dasharray:none;stroke-opacity:1"
       id="path144"
       inkscape:connector-curvature="0" /><text
       transform="matrix(1,0,0,-1,19.3594,97.0136)"
       style="font-variant:normal;font-weight:normal;font-size:10px;font-family:Arial;-inkscape-font-specification:Arial;writing-mode:lr-tb;fill:#000000;fill-opacity:1;fill-rule:nonzero;stroke:none"
       id="text148"><tspan
         x="0 8.3809996 14.742 17.923 24.284"
         y="0"
         sodipodi:role="line"
         id="tspan146">−0.05</tspan></text>
<path
       d="m 54,131.657 h 4"
       style="fill:#000000;fill-opacity:1;fill-rule:nonzero;stroke:#000000;stroke-width:0.5;stroke-linecap:butt;stroke-linejoin:round;stroke-miterlimit:100000;stroke-dasharray:none;stroke-opacity:1"
       id="path150"
       inkscape:connector-curvature="0" /><path
       d="m 388.8,131.657 h -4"
       style="fill:#000000;fill-opacity:1;fill-rule:nonzero;stroke:#000000;stroke-width:0.5;stroke-linecap:butt;stroke-linejoin:round;stroke-miterlimit:100000;stroke-dasharray:none;stroke-opacity:1"
       id="path152"
       inkscape:connector-curvature="0" /><text
       transform="matrix(1,0,0,-1,27.7344,128.8993)"
       style="font-variant:normal;font-weight:normal;font-size:10px;font-family:Arial;-inkscape-font-specification:Arial;writing-mode:lr-tb;fill:#000000;fill-opacity:1;fill-rule:nonzero;stroke:none"
       id="text156"><tspan
         x="0 6.3610001 9.5419998 15.903"
         y="0"
         sodipodi:role="line"
         id="tspan154">0.00</tspan></text>
<path
       d="m 54,163.543 h 4"
       style="fill:#000000;fill-opacity:1;fill-rule:nonzero;stroke:#000000;stroke-width:0.5;stroke-linecap:butt;stroke-linejoin:round;stroke-miterlimit:100000;stroke-dasharray:none;stroke-opacity:1"
       id="path158"
       inkscape:connector-curvature="0" /><path
       d="m 388.8,163.543 h -4"
       style="fill:#000000;fill-opacity:1;fill-rule:nonzero;stroke:#000000;stroke-width:0.5;stroke-linecap:butt;stroke-linejoin:round;stroke-miterlimit:100000;stroke-dasharray:none;stroke-opacity:1"
       id="path160"
       inkscape:connector-curvature="0" /><text
       transform="matrix(1,0,0,-1,27.7344,160.7851)"
       style="font-variant:normal;font-weight:normal;font-size:10px;font-family:Arial;-inkscape-font-specification:Arial;writing-mode:lr-tb;fill:#000000;fill-opacity:1;fill-rule:nonzero;stroke:none"
       id="text164"><tspan
         x="0 6.3610001 9.5419998 15.903"
         y="0"
         sodipodi:role="line"
         id="tspan162">0.05</tspan></text>
<path
       d="m 54,195.429 h 4"
       style="fill:#000000;fill-opacity:1;fill-rule:nonzero;stroke:#000000;stroke-width:0.5;stroke-linecap:butt;stroke-linejoin:round;stroke-miterlimit:100000;stroke-dasharray:none;stroke-opacity:1"
       id="path166"
       inkscape:connector-curvature="0" /><path
       d="m 388.8,195.429 h -4"
       style="fill:#000000;fill-opacity:1;fill-rule:nonzero;stroke:#000000;stroke-width:0.5;stroke-linecap:butt;stroke-linejoin:round;stroke-miterlimit:100000;stroke-dasharray:none;stroke-opacity:1"
       id="path168"
       inkscape:connector-curvature="0" /><text
       transform="matrix(1,0,0,-1,27.7344,192.6708)"
       style="font-variant:normal;font-weight:normal;font-size:10px;font-family:Arial;-inkscape-font-specification:Arial;writing-mode:lr-tb;fill:#000000;fill-opacity:1;fill-rule:nonzero;stroke:none"
       id="text172"><tspan
         x="0 6.3610001 9.5419998 15.903"
         y="0"
         sodipodi:role="line"
         id="tspan170">0.10</tspan></text>
<path
       d="m 54,227.314 h 4"
       style="fill:#000000;fill-opacity:1;fill-rule:nonzero;stroke:#000000;stroke-width:0.5;stroke-linecap:butt;stroke-linejoin:round;stroke-miterlimit:100000;stroke-dasharray:none;stroke-opacity:1"
       id="path174"
       inkscape:connector-curvature="0" /><path
       d="m 388.8,227.314 h -4"
       style="fill:#000000;fill-opacity:1;fill-rule:nonzero;stroke:#000000;stroke-width:0.5;stroke-linecap:butt;stroke-linejoin:round;stroke-miterlimit:100000;stroke-dasharray:none;stroke-opacity:1"
       id="path176"
       inkscape:connector-curvature="0" /><text
       transform="matrix(1,0,0,-1,27.7344,224.5565)"
       style="font-variant:normal;font-weight:normal;font-size:10px;font-family:Arial;-inkscape-font-specification:Arial;writing-mode:lr-tb;fill:#000000;fill-opacity:1;fill-rule:nonzero;stroke:none"
       id="text180"><tspan
         x="0 6.3610001 9.5419998 15.903"
         y="0"
         sodipodi:role="line"
         id="tspan178">0.15</tspan></text>
<path
       d="m 54,259.2 h 4"
       style="fill:#000000;fill-opacity:1;fill-rule:nonzero;stroke:#000000;stroke-width:0.5;stroke-linecap:butt;stroke-linejoin:round;stroke-miterlimit:100000;stroke-dasharray:none;stroke-opacity:1"
       id="path182"
       inkscape:connector-curvature="0" /><path
       d="m 388.8,259.2 h -4"
       style="fill:#000000;fill-opacity:1;fill-rule:nonzero;stroke:#000000;stroke-width:0.5;stroke-linecap:butt;stroke-linejoin:round;stroke-miterlimit:100000;stroke-dasharray:none;stroke-opacity:1"
       id="path184"
       inkscape:connector-curvature="0" /><text
       transform="matrix(1,0,0,-1,27.7344,256.4422)"
       style="font-variant:normal;font-weight:normal;font-size:10px;font-family:Arial;-inkscape-font-specification:Arial;writing-mode:lr-tb;fill:#000000;fill-opacity:1;fill-rule:nonzero;stroke:none"
       id="text188"><tspan
         x="0 6.3610001 9.5419998 15.903"
         y="0"
         sodipodi:role="line"
         id="tspan186">0.20</tspan></text>
<text
       xml:space="preserve"
       style="font-style:normal;font-variant:normal;font-weight:normal;font-stretch:normal;font-size:18.34856033px;line-height:1.25;font-family:'CMU Serif';-inkscape-font-specification:'CMU Serif';letter-spacing:0px;word-spacing:0px;fill:#ff0000;fill-opacity:1;stroke:none;stroke-width:0.45871401"
       x="175.10626"
       y="-269.86322"
       id="text997"
       transform="scale(1,-1)"><tspan
         sodipodi:role="line"
         id="tspan995"
         x="175.10626"
         y="-269.86322"
         style="fill:#ff0000;stroke-width:0.45871401">false maximum</tspan></text>
<path
       style="fill:none;stroke:#ff0000;stroke-width:0.75px;stroke-linecap:butt;stroke-linejoin:miter;stroke-opacity:1;marker-end:url(#Arrow1Lend)"
       d="M 226.00403,264.68257 V 230.55445"
       id="path999"
       inkscape:connector-curvature="0" /><text
       transform="scale(1,-1)"
       id="text1285"
       y="-269.86322"
       x="25.106262"
       style="font-style:normal;font-variant:normal;font-weight:normal;font-stretch:normal;font-size:18.34856033px;line-height:1.25;font-family:'CMU Serif';-inkscape-font-specification:'CMU Serif';letter-spacing:0px;word-spacing:0px;fill:#0000ff;fill-opacity:1;stroke:none;stroke-width:0.45871401"
       xml:space="preserve"><tspan
         style="fill:#0000ff;stroke-width:0.45871401"
         y="-269.86322"
         x="25.106262"
         id="tspan1283"
         sodipodi:role="line">true first frame</tspan></text>
<path
       inkscape:connector-curvature="0"
       id="path1293"
       d="M 53.50403,264.68257 V 230.55445"
       style="fill:none;stroke:#0000ff;stroke-width:0.75px;stroke-linecap:butt;stroke-linejoin:miter;stroke-opacity:1;marker-end:url(#marker1297)" /><text
       xml:space="preserve"
       style="font-style:normal;font-variant:normal;font-weight:normal;font-stretch:normal;font-size:30px;line-height:1.25;font-family:'CMU Serif';-inkscape-font-specification:'CMU Serif';letter-spacing:0px;word-spacing:0px;fill:#000000;fill-opacity:1;stroke:none;stroke-width:0.75"
       x="76.065315"
       y="17.157873"
       id="text1494"
       transform="matrix(0,1,1,0,0,0)"><tspan
         sodipodi:role="line"
         id="tspan1492"
         x="76.065315"
         y="17.157873"
         style="font-size:12px;stroke-width:0.75">pearson's correlation coefficient</tspan></text>
<text
       transform="scale(1,-1)"
       id="text1498"
       y="-10.269863"
       x="190.15074"
       style="font-style:normal;font-variant:normal;font-weight:normal;font-stretch:normal;font-size:30px;line-height:1.25;font-family:'CMU Serif';-inkscape-font-specification:'CMU Serif';letter-spacing:0px;word-spacing:0px;fill:#000000;fill-opacity:1;stroke:none;stroke-width:0.75"
       xml:space="preserve"><tspan
         style="font-size:12px;stroke-width:0.75"
         y="-10.269863"
         x="190.15074"
         id="tspan1496"
         sodipodi:role="line">frame index</tspan></text>
<text
       xml:space="preserve"
       style="font-style:normal;font-variant:normal;font-weight:normal;font-stretch:normal;font-size:18.34856033px;line-height:1.25;font-family:'CMU Serif';-inkscape-font-specification:'CMU Serif';letter-spacing:0px;word-spacing:0px;fill:#008000;fill-opacity:1;stroke:none;stroke-width:0.45871401"
       x="313.10626"
       y="-269.04965"
       id="text1556"
       transform="scale(1,-1)"><tspan
         sodipodi:role="line"
         id="tspan1554"
         x="313.10626"
         y="-252.07724"
         style="fill:#008000;stroke-width:0.45871401" /></text>
<text
       transform="scale(1,-1)"
       id="text1572"
       y="-269.86322"
       x="310.10626"
       style="font-style:normal;font-variant:normal;font-weight:normal;font-stretch:normal;font-size:18.34856033px;line-height:1.25;font-family:'CMU Serif';-inkscape-font-specification:'CMU Serif';letter-spacing:0px;word-spacing:0px;fill:#008000;fill-opacity:1;stroke:none;stroke-width:0.45871401"
       xml:space="preserve"><tspan
         style="fill:#008000;stroke-width:0.45871401"
         y="-269.86322"
         x="310.10626"
         id="tspan1570"
         sodipodi:role="line">last frame</tspan></text>
<path
       inkscape:connector-curvature="0"
       id="path1580"
       d="M 355.00403,264.68257 V 230.55445"
       style="fill:none;stroke:#008000;stroke-width:0.75px;stroke-linecap:butt;stroke-linejoin:miter;stroke-opacity:1;marker-end:url(#marker1584)" /></g></svg>