<?xml version="1.0" encoding="UTF-8" standalone="no"?>
<!-- Created with Inkscape (http://www.inkscape.org/) -->

<svg
   xmlns:dc="http://purl.org/dc/elements/1.1/"
   xmlns:cc="http://creativecommons.org/ns#"
   xmlns:rdf="http://www.w3.org/1999/02/22-rdf-syntax-ns#"
   xmlns:svg="http://www.w3.org/2000/svg"
   xmlns="http://www.w3.org/2000/svg"
   xmlns:sodipodi="http://sodipodi.sourceforge.net/DTD/sodipodi-0.dtd"
   xmlns:inkscape="http://www.inkscape.org/namespaces/inkscape"
   version="1.1"
   id="svg2"
   xml:space="preserve"
   width="576"
   height="384"
   viewBox="0 0 576 384"
   sodipodi:docname="corr2.svg"
   inkscape:version="0.92.2 5c3e80d, 2017-08-06"><metadata
     id="metadata8"><rdf:RDF><cc:Work
         rdf:about=""><dc:format>image/svg+xml</dc:format><dc:type
           rdf:resource="http://purl.org/dc/dcmitype/StillImage" /><dc:title></dc:title></cc:Work></rdf:RDF></metadata><defs
     id="defs6"><marker
       inkscape:isstock="true"
       style="overflow:visible;"
       id="marker1333"
       refX="0.0"
       refY="0.0"
       orient="auto"
       inkscape:stockid="Arrow1Lend"><path
         transform="scale(0.8) rotate(180) translate(12.5,0)"
         style="fill-rule:evenodd;stroke:#000000;stroke-width:1pt;stroke-opacity:1;fill:#008000;fill-opacity:1"
         d="M 0.0,0.0 L 5.0,-5.0 L -12.5,0.0 L 5.0,5.0 L 0.0,0.0 z "
         id="path1331" /></marker><marker
       inkscape:stockid="Arrow1Lend"
       orient="auto"
       refY="0.0"
       refX="0.0"
       id="Arrow1Lend"
       style="overflow:visible;"
       inkscape:isstock="true"
       inkscape:collect="always"><path
         id="path1038"
         d="M 0.0,0.0 L 5.0,-5.0 L -12.5,0.0 L 5.0,5.0 L 0.0,0.0 z "
         style="fill-rule:evenodd;stroke:#000000;stroke-width:1pt;stroke-opacity:1;fill:#0000ff;fill-opacity:1"
         transform="scale(0.8) rotate(180) translate(12.5,0)" /></marker><clipPath
       clipPathUnits="userSpaceOnUse"
       id="clipPath18"><path
         d="M 0,288 H 432 V 0.06 H 0 Z"
         id="path16"
         inkscape:connector-curvature="0" /></clipPath><clipPath
       clipPathUnits="userSpaceOnUse"
       id="clipPath30"><path
         d="M 54,36 H 388.8 V 259.2 H 54 Z"
         id="path28"
         inkscape:connector-curvature="0" /></clipPath><clipPath
       clipPathUnits="userSpaceOnUse"
       id="clipPath42"><path
         d="M 0,288 H 432 V 0.06 H 0 Z"
         id="path40"
         inkscape:connector-curvature="0" /></clipPath></defs><sodipodi:namedview
     pagecolor="#ffffff"
     bordercolor="#666666"
     borderopacity="1"
     objecttolerance="10"
     gridtolerance="10"
     guidetolerance="10"
     inkscape:pageopacity="0"
     inkscape:pageshadow="2"
     inkscape:window-width="1229"
     inkscape:window-height="678"
     id="namedview4"
     showgrid="false"
     inkscape:zoom="0.99575348"
     inkscape:cx="186.10388"
     inkscape:cy="80.944779"
     inkscape:window-x="0"
     inkscape:window-y="0"
     inkscape:window-maximized="0"
     inkscape:current-layer="g10" /><g
     id="g10"
     inkscape:groupmode="layer"
     inkscape:label="corr2"
     transform="matrix(1.3333333,0,0,-1.3333333,0,384)"><g
       id="g12"><g
         id="g14"
         clip-path="url(#clipPath18)"><path
           d="M 0,288 H 432 V 0.06 H 0 Z"
           style="fill:#ffffff;fill-opacity:1;fill-rule:nonzero;stroke:none"
           id="path20"
           inkscape:connector-curvature="0" /></g></g><path
       d="M 54,259.2 H 388.8 V 36 H 54 Z"
       style="fill:#ffffff;fill-opacity:1;fill-rule:nonzero;stroke:none"
       id="path22"
       inkscape:connector-curvature="0" /><g
       id="g24"><g
         id="g26"
         clip-path="url(#clipPath30)"><path
           d="m 54,186.428 2.79,-10.584 2.79,26.472 2.79,16.574 2.79,39.628 2.79,-48.244 2.79,-11.399 2.79,10.226 2.79,-0.726 2.79,-16.679 2.79,-22.73 2.79,20.468 2.79,6.598 2.79,-8.04 2.79,-19.596 2.79,-26.506 2.79,21.319 2.79,18.055 2.79,4.656 2.79,10.804 2.79,2.006 2.79,4.414 2.79,-1.205 2.79,-5.834 2.79,-19.673 2.79,-7.625 2.79,10.613 2.79,-23.875 2.79,12.631 2.79,13.859 2.79,3.04 2.79,8.96 2.79,-3.29 2.79,1.079 2.79,-3.689 2.79,-1.606 2.79,-1.574 2.79,4.129 2.79,2.459 2.79,-1.741 2.79,-1.806 2.79,4.452 2.79,-8.173 2.79,1.592 2.79,-7.134 2.79,2.869 2.79,1.99 2.79,2.961 2.79,1.027 2.79,3.173 2.79,12.665 2.79,-17.212 2.79,-10.915 2.79,-2.751 2.79,15.321 2.79,12.802 2.79,-4.948 2.79,-6.531 2.79,-4.325 2.79,-4.444 2.79,4.914 2.79,24.127 2.79,5.379 2.79,4.19 2.79,-2.933 2.79,-1.38 2.79,-4.278 2.79,-16.021 2.79,-9.006 2.79,-0.791 2.79,-0.952 2.79,-7.91 2.79,-15.299 2.79,13.35 2.79,16.338 2.79,-3.128 2.79,1.692 2.79,14.086 2.79,-6.563 2.79,8.525 2.79,-0.832 2.79,-0.122 2.79,5.866 2.79,-2.375 2.79,-5.371 2.79,-11.863 2.79,-42.886 2.79,-21.375 2.79,7.711 2.79,8.96 2.79,13.626 2.79,7.799 2.79,13.896 2.79,-6.567 2.79,-13.035 2.79,-8.562 2.79,-13.388 2.79,6.005 2.79,3.9 2.79,-19.642 2.79,-27.765 2.79,-0.805 2.79,3.119 2.79,-10.613 2.79,7.129 2.79,-35.32 2.79,34.579 2.79,-10.095 2.79,43.467 2.79,-8.022 2.79,-30.273 2.79,5.667 2.79,-4.287 2.79,15.413 2.79,-25.849"
           style="fill:none;stroke:#0000ff;stroke-width:1;stroke-linecap:square;stroke-linejoin:round;stroke-miterlimit:100000;stroke-dasharray:none;stroke-opacity:1"
           id="path32"
           inkscape:connector-curvature="0" /><path
           d="m 54,158.765 2.79,2.36 2.79,18.343 2.79,2.797 2.79,2.9 2.79,1.768 2.79,-0.867 2.79,-0.286 2.79,4.732 2.79,-39.813 2.79,-37.394 2.79,58.93 2.79,3.739 2.79,-28.937 2.79,-17.668 2.79,27.327 2.79,56.474 2.79,6.8 2.79,-6.215 2.79,-19.78 2.79,6.411 2.79,-19.838 2.79,5.332 2.79,15.34 2.79,0.606 2.79,3.585 2.79,3.403 2.79,-7.14 2.79,-3.087 2.79,-19.835 2.79,1.726 2.79,-12.593 2.79,-8.989 2.79,0.576 2.79,-0.48 2.79,-1.49 2.79,-5.526 2.79,6.949 2.79,2.704 2.79,-1.863 2.79,-0.53 2.79,-14.484 2.79,-14.875 2.79,2.997 2.79,-3.051 2.79,17.691 2.79,9.445 2.79,0.571 2.79,-0.574 2.79,-4.81 2.79,16.125 2.79,8.314 2.79,0.264 2.79,2.811 2.79,3.141 2.79,-16.485 2.79,-12.09 2.79,2.927 2.79,-0.772 2.79,-8.706 2.79,-0.123 2.79,22.125 2.79,3.052 2.79,16.281 2.79,-1.947 2.79,-0.539 2.79,9.849 2.79,29.939 2.79,32.16 2.79,-34.515 2.79,-1.471 2.79,-17.414 2.79,-30.886 2.79,-15.4 2.79,-2.922 2.79,4.634 2.79,15.538 2.79,6.82 2.79,4.312 2.79,-13.835 2.79,15.939 2.79,27.319 2.79,-1.779 2.79,-0.4 2.79,-11.216 2.79,-12.452 2.79,-65.828 2.79,-17.903 2.79,0.914 2.79,13.471 2.79,16.515 2.79,1.809 2.79,12.821 2.79,10.117 2.79,-2.393 2.79,-9.25 2.79,-28.264 2.79,-10.185 2.79,17.152 2.79,7.04 2.79,-32.157 2.79,-4.467 2.79,-11.62 2.79,-15.974 2.79,11.155 2.79,-31.645 2.79,99.362 2.79,-79.419 2.79,28.428 2.79,39.938 2.79,-26.811 2.79,0.21 2.79,-0.14 2.79,2.143 2.79,-35.866"
           style="fill:none;stroke:#008000;stroke-width:1;stroke-linecap:square;stroke-linejoin:round;stroke-miterlimit:100000;stroke-dasharray:none;stroke-opacity:1"
           id="path34"
           inkscape:connector-curvature="0" /></g></g><g
       id="g36"><g
         id="g38"
         clip-path="url(#clipPath42)"><path
           d="M 54,259.2 H 388.8 M 388.8,36 V 259.2 M 54,36 H 388.8 M 54,36 v 223.2"
           style="fill:none;stroke:#000000;stroke-width:1;stroke-linecap:square;stroke-linejoin:miter;stroke-miterlimit:100000;stroke-dasharray:none;stroke-opacity:1"
           id="path44"
           inkscape:connector-curvature="0" /></g></g><path
       d="m 54,36 v 4"
       style="fill:#000000;fill-opacity:1;fill-rule:nonzero;stroke:#000000;stroke-width:0.5;stroke-linecap:butt;stroke-linejoin:round;stroke-miterlimit:100000;stroke-dasharray:none;stroke-opacity:1"
       id="path46"
       inkscape:connector-curvature="0" /><path
       d="m 54,259.2 v -4"
       style="fill:#000000;fill-opacity:1;fill-rule:nonzero;stroke:#000000;stroke-width:0.5;stroke-linecap:butt;stroke-linejoin:round;stroke-miterlimit:100000;stroke-dasharray:none;stroke-opacity:1"
       id="path48"
       inkscape:connector-curvature="0" /><text
       transform="matrix(1,0,0,-1,50.8203,24.4062)"
       style="font-variant:normal;font-weight:normal;font-size:10px;font-family:Arial;-inkscape-font-specification:Arial;writing-mode:lr-tb;fill:#000000;fill-opacity:1;fill-rule:nonzero;stroke:none"
       id="text52"><tspan
         x="0"
         y="0"
         id="tspan50">0</tspan></text>
<path
       d="m 109.8,36 v 4"
       style="fill:#000000;fill-opacity:1;fill-rule:nonzero;stroke:#000000;stroke-width:0.5;stroke-linecap:butt;stroke-linejoin:round;stroke-miterlimit:100000;stroke-dasharray:none;stroke-opacity:1"
       id="path54"
       inkscape:connector-curvature="0" /><path
       d="m 109.8,259.2 v -4"
       style="fill:#000000;fill-opacity:1;fill-rule:nonzero;stroke:#000000;stroke-width:0.5;stroke-linecap:butt;stroke-linejoin:round;stroke-miterlimit:100000;stroke-dasharray:none;stroke-opacity:1"
       id="path56"
       inkscape:connector-curvature="0" /><text
       transform="matrix(1,0,0,-1,103.4406,24.4062)"
       style="font-variant:normal;font-weight:normal;font-size:10px;font-family:Arial;-inkscape-font-specification:Arial;writing-mode:lr-tb;fill:#000000;fill-opacity:1;fill-rule:nonzero;stroke:none"
       id="text60"><tspan
         x="0 6.362"
         y="0"
         sodipodi:role="line"
         id="tspan58">20</tspan></text>
<path
       d="m 165.6,36 v 4"
       style="fill:#000000;fill-opacity:1;fill-rule:nonzero;stroke:#000000;stroke-width:0.5;stroke-linecap:butt;stroke-linejoin:round;stroke-miterlimit:100000;stroke-dasharray:none;stroke-opacity:1"
       id="path62"
       inkscape:connector-curvature="0" /><path
       d="m 165.6,259.2 v -4"
       style="fill:#000000;fill-opacity:1;fill-rule:nonzero;stroke:#000000;stroke-width:0.5;stroke-linecap:butt;stroke-linejoin:round;stroke-miterlimit:100000;stroke-dasharray:none;stroke-opacity:1"
       id="path64"
       inkscape:connector-curvature="0" /><text
       transform="matrix(1,0,0,-1,159.2406,24.4062)"
       style="font-variant:normal;font-weight:normal;font-size:10px;font-family:Arial;-inkscape-font-specification:Arial;writing-mode:lr-tb;fill:#000000;fill-opacity:1;fill-rule:nonzero;stroke:none"
       id="text68"><tspan
         x="0 6.362"
         y="0"
         sodipodi:role="line"
         id="tspan66">40</tspan></text>
<path
       d="m 221.4,36 v 4"
       style="fill:#000000;fill-opacity:1;fill-rule:nonzero;stroke:#000000;stroke-width:0.5;stroke-linecap:butt;stroke-linejoin:round;stroke-miterlimit:100000;stroke-dasharray:none;stroke-opacity:1"
       id="path70"
       inkscape:connector-curvature="0" /><path
       d="m 221.4,259.2 v -4"
       style="fill:#000000;fill-opacity:1;fill-rule:nonzero;stroke:#000000;stroke-width:0.5;stroke-linecap:butt;stroke-linejoin:round;stroke-miterlimit:100000;stroke-dasharray:none;stroke-opacity:1"
       id="path72"
       inkscape:connector-curvature="0" /><text
       transform="matrix(1,0,0,-1,215.0406,24.4062)"
       style="font-variant:normal;font-weight:normal;font-size:10px;font-family:Arial;-inkscape-font-specification:Arial;writing-mode:lr-tb;fill:#000000;fill-opacity:1;fill-rule:nonzero;stroke:none"
       id="text76"><tspan
         x="0 6.362"
         y="0"
         sodipodi:role="line"
         id="tspan74">60</tspan></text>
<path
       d="m 277.2,36 v 4"
       style="fill:#000000;fill-opacity:1;fill-rule:nonzero;stroke:#000000;stroke-width:0.5;stroke-linecap:butt;stroke-linejoin:round;stroke-miterlimit:100000;stroke-dasharray:none;stroke-opacity:1"
       id="path78"
       inkscape:connector-curvature="0" /><path
       d="m 277.2,259.2 v -4"
       style="fill:#000000;fill-opacity:1;fill-rule:nonzero;stroke:#000000;stroke-width:0.5;stroke-linecap:butt;stroke-linejoin:round;stroke-miterlimit:100000;stroke-dasharray:none;stroke-opacity:1"
       id="path80"
       inkscape:connector-curvature="0" /><text
       transform="matrix(1,0,0,-1,270.8406,24.4062)"
       style="font-variant:normal;font-weight:normal;font-size:10px;font-family:Arial;-inkscape-font-specification:Arial;writing-mode:lr-tb;fill:#000000;fill-opacity:1;fill-rule:nonzero;stroke:none"
       id="text84"><tspan
         x="0 6.362"
         y="0"
         sodipodi:role="line"
         id="tspan82">80</tspan></text>
<path
       d="m 333,36 v 4"
       style="fill:#000000;fill-opacity:1;fill-rule:nonzero;stroke:#000000;stroke-width:0.5;stroke-linecap:butt;stroke-linejoin:round;stroke-miterlimit:100000;stroke-dasharray:none;stroke-opacity:1"
       id="path86"
       inkscape:connector-curvature="0" /><path
       d="m 333,259.2 v -4"
       style="fill:#000000;fill-opacity:1;fill-rule:nonzero;stroke:#000000;stroke-width:0.5;stroke-linecap:butt;stroke-linejoin:round;stroke-miterlimit:100000;stroke-dasharray:none;stroke-opacity:1"
       id="path88"
       inkscape:connector-curvature="0" /><text
       transform="matrix(1,0,0,-1,323.461,24.4062)"
       style="font-variant:normal;font-weight:normal;font-size:10px;font-family:Arial;-inkscape-font-specification:Arial;writing-mode:lr-tb;fill:#000000;fill-opacity:1;fill-rule:nonzero;stroke:none"
       id="text92"><tspan
         x="0 6.362 12.724"
         y="0"
         sodipodi:role="line"
         id="tspan90">100</tspan></text>
<path
       d="m 388.8,36 v 4"
       style="fill:#000000;fill-opacity:1;fill-rule:nonzero;stroke:#000000;stroke-width:0.5;stroke-linecap:butt;stroke-linejoin:round;stroke-miterlimit:100000;stroke-dasharray:none;stroke-opacity:1"
       id="path94"
       inkscape:connector-curvature="0" /><path
       d="m 388.8,259.2 v -4"
       style="fill:#000000;fill-opacity:1;fill-rule:nonzero;stroke:#000000;stroke-width:0.5;stroke-linecap:butt;stroke-linejoin:round;stroke-miterlimit:100000;stroke-dasharray:none;stroke-opacity:1"
       id="path96"
       inkscape:connector-curvature="0" /><text
       transform="matrix(1,0,0,-1,379.2609,24.4062)"
       style="font-variant:normal;font-weight:normal;font-size:10px;font-family:Arial;-inkscape-font-specification:Arial;writing-mode:lr-tb;fill:#000000;fill-opacity:1;fill-rule:nonzero;stroke:none"
       id="text100"><tspan
         x="0 6.362 12.724"
         y="0"
         sodipodi:role="line"
         id="tspan98">120</tspan></text>
<path
       d="m 54,36 h 4"
       style="fill:#000000;fill-opacity:1;fill-rule:nonzero;stroke:#000000;stroke-width:0.5;stroke-linecap:butt;stroke-linejoin:round;stroke-miterlimit:100000;stroke-dasharray:none;stroke-opacity:1"
       id="path102"
       inkscape:connector-curvature="0" /><path
       d="m 388.8,36 h -4"
       style="fill:#000000;fill-opacity:1;fill-rule:nonzero;stroke:#000000;stroke-width:0.5;stroke-linecap:butt;stroke-linejoin:round;stroke-miterlimit:100000;stroke-dasharray:none;stroke-opacity:1"
       id="path104"
       inkscape:connector-curvature="0" /><text
       transform="matrix(1,0,0,-1,25.7187,33.2422)"
       style="font-variant:normal;font-weight:normal;font-size:10px;font-family:Arial;-inkscape-font-specification:Arial;writing-mode:lr-tb;fill:#000000;fill-opacity:1;fill-rule:nonzero;stroke:none"
       id="text108"><tspan
         x="0 8.3800001 14.74 17.92"
         y="0"
         sodipodi:role="line"
         id="tspan106">−0.6</tspan></text>
<path
       d="m 54,63.9 h 4"
       style="fill:#000000;fill-opacity:1;fill-rule:nonzero;stroke:#000000;stroke-width:0.5;stroke-linecap:butt;stroke-linejoin:round;stroke-miterlimit:100000;stroke-dasharray:none;stroke-opacity:1"
       id="path110"
       inkscape:connector-curvature="0" /><path
       d="m 388.8,63.9 h -4"
       style="fill:#000000;fill-opacity:1;fill-rule:nonzero;stroke:#000000;stroke-width:0.5;stroke-linecap:butt;stroke-linejoin:round;stroke-miterlimit:100000;stroke-dasharray:none;stroke-opacity:1"
       id="path112"
       inkscape:connector-curvature="0" /><text
       transform="matrix(1,0,0,-1,25.7187,61.1422)"
       style="font-variant:normal;font-weight:normal;font-size:10px;font-family:Arial;-inkscape-font-specification:Arial;writing-mode:lr-tb;fill:#000000;fill-opacity:1;fill-rule:nonzero;stroke:none"
       id="text116"><tspan
         x="0 8.3800001 14.74 17.92"
         y="0"
         sodipodi:role="line"
         id="tspan114">−0.4</tspan></text>
<path
       d="m 54,91.8 h 4"
       style="fill:#000000;fill-opacity:1;fill-rule:nonzero;stroke:#000000;stroke-width:0.5;stroke-linecap:butt;stroke-linejoin:round;stroke-miterlimit:100000;stroke-dasharray:none;stroke-opacity:1"
       id="path118"
       inkscape:connector-curvature="0" /><path
       d="m 388.8,91.8 h -4"
       style="fill:#000000;fill-opacity:1;fill-rule:nonzero;stroke:#000000;stroke-width:0.5;stroke-linecap:butt;stroke-linejoin:round;stroke-miterlimit:100000;stroke-dasharray:none;stroke-opacity:1"
       id="path120"
       inkscape:connector-curvature="0" /><text
       transform="matrix(1,0,0,-1,25.7187,89.0422)"
       style="font-variant:normal;font-weight:normal;font-size:10px;font-family:Arial;-inkscape-font-specification:Arial;writing-mode:lr-tb;fill:#000000;fill-opacity:1;fill-rule:nonzero;stroke:none"
       id="text124"><tspan
         x="0 8.3800001 14.74 17.92"
         y="0"
         sodipodi:role="line"
         id="tspan122">−0.2</tspan></text>
<path
       d="m 54,119.7 h 4"
       style="fill:#000000;fill-opacity:1;fill-rule:nonzero;stroke:#000000;stroke-width:0.5;stroke-linecap:butt;stroke-linejoin:round;stroke-miterlimit:100000;stroke-dasharray:none;stroke-opacity:1"
       id="path126"
       inkscape:connector-curvature="0" /><path
       d="m 388.8,119.7 h -4"
       style="fill:#000000;fill-opacity:1;fill-rule:nonzero;stroke:#000000;stroke-width:0.5;stroke-linecap:butt;stroke-linejoin:round;stroke-miterlimit:100000;stroke-dasharray:none;stroke-opacity:1"
       id="path128"
       inkscape:connector-curvature="0" /><text
       transform="matrix(1,0,0,-1,34.0937,116.9422)"
       style="font-variant:normal;font-weight:normal;font-size:10px;font-family:Arial;-inkscape-font-specification:Arial;writing-mode:lr-tb;fill:#000000;fill-opacity:1;fill-rule:nonzero;stroke:none"
       id="text132"><tspan
         x="0 6.3610001 9.5419998"
         y="0"
         sodipodi:role="line"
         id="tspan130">0.0</tspan></text>
<path
       d="m 54,147.6 h 4"
       style="fill:#000000;fill-opacity:1;fill-rule:nonzero;stroke:#000000;stroke-width:0.5;stroke-linecap:butt;stroke-linejoin:round;stroke-miterlimit:100000;stroke-dasharray:none;stroke-opacity:1"
       id="path134"
       inkscape:connector-curvature="0" /><path
       d="m 388.8,147.6 h -4"
       style="fill:#000000;fill-opacity:1;fill-rule:nonzero;stroke:#000000;stroke-width:0.5;stroke-linecap:butt;stroke-linejoin:round;stroke-miterlimit:100000;stroke-dasharray:none;stroke-opacity:1"
       id="path136"
       inkscape:connector-curvature="0" /><text
       transform="matrix(1,0,0,-1,34.0937,144.8422)"
       style="font-variant:normal;font-weight:normal;font-size:10px;font-family:Arial;-inkscape-font-specification:Arial;writing-mode:lr-tb;fill:#000000;fill-opacity:1;fill-rule:nonzero;stroke:none"
       id="text140"><tspan
         x="0 6.3610001 9.5419998"
         y="0"
         sodipodi:role="line"
         id="tspan138">0.2</tspan></text>
<path
       d="m 54,175.5 h 4"
       style="fill:#000000;fill-opacity:1;fill-rule:nonzero;stroke:#000000;stroke-width:0.5;stroke-linecap:butt;stroke-linejoin:round;stroke-miterlimit:100000;stroke-dasharray:none;stroke-opacity:1"
       id="path142"
       inkscape:connector-curvature="0" /><path
       d="m 388.8,175.5 h -4"
       style="fill:#000000;fill-opacity:1;fill-rule:nonzero;stroke:#000000;stroke-width:0.5;stroke-linecap:butt;stroke-linejoin:round;stroke-miterlimit:100000;stroke-dasharray:none;stroke-opacity:1"
       id="path144"
       inkscape:connector-curvature="0" /><text
       transform="matrix(1,0,0,-1,34.0937,172.7422)"
       style="font-variant:normal;font-weight:normal;font-size:10px;font-family:Arial;-inkscape-font-specification:Arial;writing-mode:lr-tb;fill:#000000;fill-opacity:1;fill-rule:nonzero;stroke:none"
       id="text148"><tspan
         x="0 6.3610001 9.5419998"
         y="0"
         sodipodi:role="line"
         id="tspan146">0.4</tspan></text>
<path
       d="m 54,203.4 h 4"
       style="fill:#000000;fill-opacity:1;fill-rule:nonzero;stroke:#000000;stroke-width:0.5;stroke-linecap:butt;stroke-linejoin:round;stroke-miterlimit:100000;stroke-dasharray:none;stroke-opacity:1"
       id="path150"
       inkscape:connector-curvature="0" /><path
       d="m 388.8,203.4 h -4"
       style="fill:#000000;fill-opacity:1;fill-rule:nonzero;stroke:#000000;stroke-width:0.5;stroke-linecap:butt;stroke-linejoin:round;stroke-miterlimit:100000;stroke-dasharray:none;stroke-opacity:1"
       id="path152"
       inkscape:connector-curvature="0" /><text
       transform="matrix(1,0,0,-1,34.0937,200.6422)"
       style="font-variant:normal;font-weight:normal;font-size:10px;font-family:Arial;-inkscape-font-specification:Arial;writing-mode:lr-tb;fill:#000000;fill-opacity:1;fill-rule:nonzero;stroke:none"
       id="text156"><tspan
         x="0 6.3610001 9.5419998"
         y="0"
         sodipodi:role="line"
         id="tspan154">0.6</tspan></text>
<path
       d="m 54,231.3 h 4"
       style="fill:#000000;fill-opacity:1;fill-rule:nonzero;stroke:#000000;stroke-width:0.5;stroke-linecap:butt;stroke-linejoin:round;stroke-miterlimit:100000;stroke-dasharray:none;stroke-opacity:1"
       id="path158"
       inkscape:connector-curvature="0" /><path
       d="m 388.8,231.3 h -4"
       style="fill:#000000;fill-opacity:1;fill-rule:nonzero;stroke:#000000;stroke-width:0.5;stroke-linecap:butt;stroke-linejoin:round;stroke-miterlimit:100000;stroke-dasharray:none;stroke-opacity:1"
       id="path160"
       inkscape:connector-curvature="0" /><text
       transform="matrix(1,0,0,-1,34.0937,228.5422)"
       style="font-variant:normal;font-weight:normal;font-size:10px;font-family:Arial;-inkscape-font-specification:Arial;writing-mode:lr-tb;fill:#000000;fill-opacity:1;fill-rule:nonzero;stroke:none"
       id="text164"><tspan
         x="0 6.3610001 9.5419998"
         y="0"
         sodipodi:role="line"
         id="tspan162">0.8</tspan></text>
<path
       d="m 54,259.2 h 4"
       style="fill:#000000;fill-opacity:1;fill-rule:nonzero;stroke:#000000;stroke-width:0.5;stroke-linecap:butt;stroke-linejoin:round;stroke-miterlimit:100000;stroke-dasharray:none;stroke-opacity:1"
       id="path166"
       inkscape:connector-curvature="0" /><path
       d="m 388.8,259.2 h -4"
       style="fill:#000000;fill-opacity:1;fill-rule:nonzero;stroke:#000000;stroke-width:0.5;stroke-linecap:butt;stroke-linejoin:round;stroke-miterlimit:100000;stroke-dasharray:none;stroke-opacity:1"
       id="path168"
       inkscape:connector-curvature="0" /><text
       transform="matrix(1,0,0,-1,34.0937,256.4422)"
       style="font-variant:normal;font-weight:normal;font-size:10px;font-family:Arial;-inkscape-font-specification:Arial;writing-mode:lr-tb;fill:#000000;fill-opacity:1;fill-rule:nonzero;stroke:none"
       id="text172"><tspan
         x="0 6.3610001 9.5419998"
         y="0"
         sodipodi:role="line"
         id="tspan170">1.0</tspan></text>
<text
       xml:space="preserve"
       style="font-style:normal;font-variant:normal;font-weight:normal;font-stretch:normal;font-size:30px;line-height:1.25;font-family:'CMU Serif';-inkscape-font-specification:'CMU Serif';letter-spacing:0px;word-spacing:0px;fill:#000000;fill-opacity:1;stroke:none;stroke-width:0.75"
       x="189.5565"
       y="-10.467751"
       id="text981"
       transform="scale(1,-1)"><tspan
         sodipodi:role="line"
         id="tspan979"
         x="189.5565"
         y="-10.467751"
         style="font-size:12px;stroke-width:0.75">frame index</tspan></text>
<text
       transform="matrix(0,1,1,0,0,0)"
       id="text985"
       y="17.09775"
       x="76.005005"
       style="font-style:normal;font-variant:normal;font-weight:normal;font-stretch:normal;font-size:30px;line-height:1.25;font-family:'CMU Serif';-inkscape-font-specification:'CMU Serif';letter-spacing:0px;word-spacing:0px;fill:#000000;fill-opacity:1;stroke:none;stroke-width:0.75"
       xml:space="preserve"><tspan
         style="font-size:12px;stroke-width:0.75"
         y="17.09775"
         x="76.005005"
         id="tspan983"
         sodipodi:role="line">pearson's correlation coefficient</tspan></text>
<text
       xml:space="preserve"
       style="font-style:normal;font-variant:normal;font-weight:normal;font-stretch:normal;font-size:18.34800148px;line-height:1.25;font-family:'CMU Serif';-inkscape-font-specification:'CMU Serif';letter-spacing:0px;word-spacing:0px;fill:#0000ff;fill-opacity:1;stroke:none;stroke-width:0.75"
       x="23.796612"
       y="-273.35596"
       id="text1027"
       transform="scale(1,-1)"><tspan
         sodipodi:role="line"
         id="tspan1025"
         x="23.796612"
         y="-273.35596"
         style="fill:#0000ff;stroke-width:0.75">first frame</tspan></text>
<path
       style="fill:#0000ff;stroke:#000000;stroke-width:0.75px;stroke-linecap:butt;stroke-linejoin:miter;stroke-opacity:1;marker-end:url(#Arrow1Lend)"
       d="M 64.021871,271.15146 V 262.8215"
       id="path1029"
       inkscape:connector-curvature="0"
       sodipodi:nodetypes="cc" /><text
       transform="scale(1,-1)"
       id="text1033"
       y="-273.35596"
       x="208.29663"
       style="font-style:normal;font-variant:normal;font-weight:normal;font-stretch:normal;font-size:18.34800148px;line-height:1.25;font-family:'CMU Serif';-inkscape-font-specification:'CMU Serif';letter-spacing:0px;word-spacing:0px;fill:#008000;fill-opacity:1;stroke:none;stroke-width:0.75"
       xml:space="preserve"><tspan
         style="fill:#008000;stroke-width:0.75"
         y="-273.35596"
         x="208.29663"
         id="tspan1031"
         sodipodi:role="line">last frame</tspan></text>
<path
       sodipodi:nodetypes="cc"
       inkscape:connector-curvature="0"
       id="path1329"
       d="M 242.52187,271.15146 V 262.8215"
       style="fill:#008000;stroke:#000000;stroke-width:0.75px;stroke-linecap:butt;stroke-linejoin:miter;stroke-opacity:1;marker-end:url(#marker1333)" /></g></svg>