<?xml version="1.0" encoding="UTF-8" standalone="no"?>
<!-- Created with Inkscape (http://www.inkscape.org/) -->

<svg
   xmlns:dc="http://purl.org/dc/elements/1.1/"
   xmlns:cc="http://creativecommons.org/ns#"
   xmlns:rdf="http://www.w3.org/1999/02/22-rdf-syntax-ns#"
   xmlns:svg="http://www.w3.org/2000/svg"
   xmlns="http://www.w3.org/2000/svg"
   xmlns:sodipodi="http://sodipodi.sourceforge.net/DTD/sodipodi-0.dtd"
   xmlns:inkscape="http://www.inkscape.org/namespaces/inkscape"
   version="1.1"
   id="svg2"
   xml:space="preserve"
   width="768"
   height="576"
   viewBox="0 0 768 576"
   sodipodi:docname="dotproduct87.svg"
   inkscape:version="0.92.2 5c3e80d, 2017-08-06"><metadata
     id="metadata8"><rdf:RDF><cc:Work
         rdf:about=""><dc:format>image/svg+xml</dc:format><dc:type
           rdf:resource="http://purl.org/dc/dcmitype/StillImage" /><dc:title></dc:title></cc:Work></rdf:RDF></metadata><defs
     id="defs6"><marker
       inkscape:stockid="Arrow1Lend"
       orient="auto"
       refY="0.0"
       refX="0.0"
       id="Arrow1Lend"
       style="overflow:visible;"
       inkscape:isstock="true"><path
         id="path1035"
         d="M 0.0,0.0 L 5.0,-5.0 L -12.5,0.0 L 5.0,5.0 L 0.0,0.0 z "
         style="fill-rule:evenodd;stroke:#0000ff;stroke-width:1pt;stroke-opacity:1;fill:#0000ff;fill-opacity:1"
         transform="scale(0.8) rotate(180) translate(12.5,0)" /></marker><clipPath
       clipPathUnits="userSpaceOnUse"
       id="clipPath18"><path
         d="M 0,432 H 576 V 0.06 H 0 Z"
         id="path16"
         inkscape:connector-curvature="0" /></clipPath><clipPath
       clipPathUnits="userSpaceOnUse"
       id="clipPath30"><path
         d="M 72,43.2 H 518.4 V 388.8 H 72 Z"
         id="path28"
         inkscape:connector-curvature="0" /></clipPath><clipPath
       clipPathUnits="userSpaceOnUse"
       id="clipPath40"><path
         d="M 0,432 H 576 V 0.06 H 0 Z"
         id="path38"
         inkscape:connector-curvature="0" /></clipPath></defs><sodipodi:namedview
     pagecolor="#ffffff"
     bordercolor="#666666"
     borderopacity="1"
     objecttolerance="10"
     gridtolerance="10"
     guidetolerance="10"
     inkscape:pageopacity="0"
     inkscape:pageshadow="2"
     inkscape:window-width="997"
     inkscape:window-height="546"
     id="namedview4"
     showgrid="false"
     inkscape:zoom="0.40972222"
     inkscape:cx="188.74576"
     inkscape:cy="288"
     inkscape:window-x="270"
     inkscape:window-y="171"
     inkscape:window-maximized="0"
     inkscape:current-layer="g10" /><g
     id="g10"
     inkscape:groupmode="layer"
     inkscape:label="dotproduct87"
     transform="matrix(1.3333333,0,0,-1.3333333,0,576)"><g
       id="g12"><g
         id="g14"
         clip-path="url(#clipPath18)"><path
           d="M 0,432 H 576 V 0.06 H 0 Z"
           style="fill:#ffffff;fill-opacity:1;fill-rule:nonzero;stroke:none"
           id="path20"
           inkscape:connector-curvature="0" /></g></g><path
       d="M 72,388.8 H 518.4 V 43.2 H 72 Z"
       style="fill:#ffffff;fill-opacity:1;fill-rule:nonzero;stroke:none"
       id="path22"
       inkscape:connector-curvature="0" /><g
       id="g24"><g
         id="g26"
         clip-path="url(#clipPath30)"><path
           d="m 72,340.611 3.189,-46.552 3.188,-73.55 3.189,-41.471 3.188,-29.286 3.189,-19.082 3.188,5.465 3.189,4.088 3.189,29.088 3.188,-18.04 3.189,-19.021 3.188,1.284 3.189,-1.752 3.188,-9.526 3.189,36.264 3.189,-14.132 3.188,-3.105 3.189,43.497 3.188,17.009 3.189,-45.053 3.188,48.913 3.189,-32.253 3.189,-78.683 3.188,-2.115 3.189,14.003 3.188,-4.401 3.189,-0.145 3.188,-3.208 3.189,-8.532 3.189,10.63 3.188,25.999 3.189,47.354 3.188,0.23 3.189,-47.18 3.188,-16.822 3.189,-4.891 3.189,3.42 3.188,2.481 3.189,1.398 3.188,-5.059 3.189,1.339 3.188,5.731 3.189,90.572 3.189,-89.029 3.188,2.721 3.189,7.757 3.188,-2.03 3.189,0.995 3.188,4.373 3.189,-12.887 3.189,-25.189 3.188,2.609 3.189,1.373 3.188,14.528 3.189,-9.34 3.188,4.072 3.189,3.869 3.189,-4.817 6.377,7.806 3.188,-11.122 3.189,-30.255 3.188,27.857 3.189,17.036 3.189,0.175 3.188,1.332 3.189,-4.199 3.188,4.552 3.189,1.588 3.188,43.412 3.189,51.38 3.189,20.688 3.188,-63.891 3.189,0.202 3.188,103.849 3.189,-29.978 3.188,-7.568 3.189,-67.567 3.189,-12.028 3.188,-0.85 3.189,3.646 3.188,2.774 3.189,22.626 3.188,5.902 3.189,8.876 3.189,-30.882 3.188,-25.965 3.189,1.441 3.188,33.398 3.189,54.58 3.188,-9.902 3.189,10.84 3.189,25.757 3.188,-13.495 3.189,-31.227 3.188,11.411 3.189,3.88 3.188,-40.658 3.189,6.135 3.189,9.832 3.188,-10.542 3.189,15.467 3.188,-38.513 3.189,-31.455 3.188,-26.078 3.189,-17.117 3.189,-3.271 3.188,3.909 3.189,-2.574 3.188,8.337 3.189,-1.646 3.188,-1.502 3.189,-3.642 3.189,3.279 3.188,14.962 3.189,-9.565 3.188,-3.797 3.189,2.599 3.188,-4.974 3.189,0.213 3.189,-3.998 3.188,2.485 3.189,-5.661 3.188,10.305 3.189,9.252 3.188,-29.578 3.189,37.481 3.189,-11.335 3.188,2.839 3.189,-38.453 3.188,4.711 3.189,27.429 3.188,5.069 3.189,3.42 3.189,-2.315"
           style="fill:none;stroke:#0000ff;stroke-width:1;stroke-linecap:square;stroke-linejoin:round;stroke-miterlimit:100000;stroke-dasharray:none;stroke-opacity:1"
           id="path32"
           inkscape:connector-curvature="0" /></g></g><g
       id="g34"><g
         id="g36"
         clip-path="url(#clipPath40)"><path
           d="m 72,43.2 v 345.6 m 0,0 h 446.4 m 0,-345.6 V 388.8 M 72,43.2 h 446.4"
           style="fill:none;stroke:#000000;stroke-width:1;stroke-linecap:square;stroke-linejoin:miter;stroke-miterlimit:100000;stroke-dasharray:none;stroke-opacity:1"
           id="path42"
           inkscape:connector-curvature="0" /></g></g><path
       d="m 72,43.2 v 4"
       style="fill:#000000;fill-opacity:1;fill-rule:nonzero;stroke:#000000;stroke-width:0.5;stroke-linecap:butt;stroke-linejoin:round;stroke-miterlimit:100000;stroke-dasharray:none;stroke-opacity:1"
       id="path44"
       inkscape:connector-curvature="0" /><path
       d="m 72,388.8 v -4"
       style="fill:#000000;fill-opacity:1;fill-rule:nonzero;stroke:#000000;stroke-width:0.5;stroke-linecap:butt;stroke-linejoin:round;stroke-miterlimit:100000;stroke-dasharray:none;stroke-opacity:1"
       id="path46"
       inkscape:connector-curvature="0" /><text
       transform="matrix(1,0,0,-1,68.1797,30.075)"
       style="font-variant:normal;font-weight:normal;font-size:12px;font-family:Arial;-inkscape-font-specification:Arial;writing-mode:lr-tb;fill:#000000;fill-opacity:1;fill-rule:nonzero;stroke:none"
       id="text50"><tspan
         x="0"
         y="0"
         id="tspan48">0</tspan></text>
<path
       d="m 135.771,43.2 v 4"
       style="fill:#000000;fill-opacity:1;fill-rule:nonzero;stroke:#000000;stroke-width:0.5;stroke-linecap:butt;stroke-linejoin:round;stroke-miterlimit:100000;stroke-dasharray:none;stroke-opacity:1"
       id="path52"
       inkscape:connector-curvature="0" /><path
       d="m 135.771,388.8 v -4"
       style="fill:#000000;fill-opacity:1;fill-rule:nonzero;stroke:#000000;stroke-width:0.5;stroke-linecap:butt;stroke-linejoin:round;stroke-miterlimit:100000;stroke-dasharray:none;stroke-opacity:1"
       id="path54"
       inkscape:connector-curvature="0" /><text
       transform="matrix(1,0,0,-1,128.1308,30.075)"
       style="font-variant:normal;font-weight:normal;font-size:12px;font-family:Arial;-inkscape-font-specification:Arial;writing-mode:lr-tb;fill:#000000;fill-opacity:1;fill-rule:nonzero;stroke:none"
       id="text58"><tspan
         x="0 7.6343999"
         y="0"
         sodipodi:role="line"
         id="tspan56">20</tspan></text>
<path
       d="m 199.543,43.2 v 4"
       style="fill:#000000;fill-opacity:1;fill-rule:nonzero;stroke:#000000;stroke-width:0.5;stroke-linecap:butt;stroke-linejoin:round;stroke-miterlimit:100000;stroke-dasharray:none;stroke-opacity:1"
       id="path60"
       inkscape:connector-curvature="0" /><path
       d="m 199.543,388.8 v -4"
       style="fill:#000000;fill-opacity:1;fill-rule:nonzero;stroke:#000000;stroke-width:0.5;stroke-linecap:butt;stroke-linejoin:round;stroke-miterlimit:100000;stroke-dasharray:none;stroke-opacity:1"
       id="path62"
       inkscape:connector-curvature="0" /><text
       transform="matrix(1,0,0,-1,191.9022,30.075)"
       style="font-variant:normal;font-weight:normal;font-size:12px;font-family:Arial;-inkscape-font-specification:Arial;writing-mode:lr-tb;fill:#000000;fill-opacity:1;fill-rule:nonzero;stroke:none"
       id="text66"><tspan
         x="0 7.6343999"
         y="0"
         sodipodi:role="line"
         id="tspan64">40</tspan></text>
<path
       d="m 263.314,43.2 v 4"
       style="fill:#000000;fill-opacity:1;fill-rule:nonzero;stroke:#000000;stroke-width:0.5;stroke-linecap:butt;stroke-linejoin:round;stroke-miterlimit:100000;stroke-dasharray:none;stroke-opacity:1"
       id="path68"
       inkscape:connector-curvature="0" /><path
       d="m 263.314,388.8 v -4"
       style="fill:#000000;fill-opacity:1;fill-rule:nonzero;stroke:#000000;stroke-width:0.5;stroke-linecap:butt;stroke-linejoin:round;stroke-miterlimit:100000;stroke-dasharray:none;stroke-opacity:1"
       id="path70"
       inkscape:connector-curvature="0" /><text
       transform="matrix(1,0,0,-1,255.6736,30.075)"
       style="font-variant:normal;font-weight:normal;font-size:12px;font-family:Arial;-inkscape-font-specification:Arial;writing-mode:lr-tb;fill:#000000;fill-opacity:1;fill-rule:nonzero;stroke:none"
       id="text74"><tspan
         x="0 7.6343999"
         y="0"
         sodipodi:role="line"
         id="tspan72">60</tspan></text>
<path
       d="m 327.086,43.2 v 4"
       style="fill:#000000;fill-opacity:1;fill-rule:nonzero;stroke:#000000;stroke-width:0.5;stroke-linecap:butt;stroke-linejoin:round;stroke-miterlimit:100000;stroke-dasharray:none;stroke-opacity:1"
       id="path76"
       inkscape:connector-curvature="0" /><path
       d="m 327.086,388.8 v -4"
       style="fill:#000000;fill-opacity:1;fill-rule:nonzero;stroke:#000000;stroke-width:0.5;stroke-linecap:butt;stroke-linejoin:round;stroke-miterlimit:100000;stroke-dasharray:none;stroke-opacity:1"
       id="path78"
       inkscape:connector-curvature="0" /><text
       transform="matrix(1,0,0,-1,319.4451,30.075)"
       style="font-variant:normal;font-weight:normal;font-size:12px;font-family:Arial;-inkscape-font-specification:Arial;writing-mode:lr-tb;fill:#000000;fill-opacity:1;fill-rule:nonzero;stroke:none"
       id="text82"><tspan
         x="0 7.6343999"
         y="0"
         sodipodi:role="line"
         id="tspan80">80</tspan></text>
<path
       d="m 390.857,43.2 v 4"
       style="fill:#000000;fill-opacity:1;fill-rule:nonzero;stroke:#000000;stroke-width:0.5;stroke-linecap:butt;stroke-linejoin:round;stroke-miterlimit:100000;stroke-dasharray:none;stroke-opacity:1"
       id="path84"
       inkscape:connector-curvature="0" /><path
       d="m 390.857,388.8 v -4"
       style="fill:#000000;fill-opacity:1;fill-rule:nonzero;stroke:#000000;stroke-width:0.5;stroke-linecap:butt;stroke-linejoin:round;stroke-miterlimit:100000;stroke-dasharray:none;stroke-opacity:1"
       id="path86"
       inkscape:connector-curvature="0" /><text
       transform="matrix(1,0,0,-1,379.3962,30.075)"
       style="font-variant:normal;font-weight:normal;font-size:12px;font-family:Arial;-inkscape-font-specification:Arial;writing-mode:lr-tb;fill:#000000;fill-opacity:1;fill-rule:nonzero;stroke:none"
       id="text90"><tspan
         x="0 7.6343999 15.2688"
         y="0"
         sodipodi:role="line"
         id="tspan88">100</tspan></text>
<path
       d="m 454.629,43.2 v 4"
       style="fill:#000000;fill-opacity:1;fill-rule:nonzero;stroke:#000000;stroke-width:0.5;stroke-linecap:butt;stroke-linejoin:round;stroke-miterlimit:100000;stroke-dasharray:none;stroke-opacity:1"
       id="path92"
       inkscape:connector-curvature="0" /><path
       d="m 454.629,388.8 v -4"
       style="fill:#000000;fill-opacity:1;fill-rule:nonzero;stroke:#000000;stroke-width:0.5;stroke-linecap:butt;stroke-linejoin:round;stroke-miterlimit:100000;stroke-dasharray:none;stroke-opacity:1"
       id="path94"
       inkscape:connector-curvature="0" /><text
       transform="matrix(1,0,0,-1,443.1676,30.075)"
       style="font-variant:normal;font-weight:normal;font-size:12px;font-family:Arial;-inkscape-font-specification:Arial;writing-mode:lr-tb;fill:#000000;fill-opacity:1;fill-rule:nonzero;stroke:none"
       id="text98"><tspan
         x="0 7.6343999 15.2688"
         y="0"
         sodipodi:role="line"
         id="tspan96">120</tspan></text>
<path
       d="m 518.4,43.2 v 4"
       style="fill:#000000;fill-opacity:1;fill-rule:nonzero;stroke:#000000;stroke-width:0.5;stroke-linecap:butt;stroke-linejoin:round;stroke-miterlimit:100000;stroke-dasharray:none;stroke-opacity:1"
       id="path100"
       inkscape:connector-curvature="0" /><path
       d="m 518.4,388.8 v -4"
       style="fill:#000000;fill-opacity:1;fill-rule:nonzero;stroke:#000000;stroke-width:0.5;stroke-linecap:butt;stroke-linejoin:round;stroke-miterlimit:100000;stroke-dasharray:none;stroke-opacity:1"
       id="path102"
       inkscape:connector-curvature="0" /><text
       transform="matrix(1,0,0,-1,506.9391,30.075)"
       style="font-variant:normal;font-weight:normal;font-size:12px;font-family:Arial;-inkscape-font-specification:Arial;writing-mode:lr-tb;fill:#000000;fill-opacity:1;fill-rule:nonzero;stroke:none"
       id="text106"><tspan
         x="0 7.6343999 15.2688"
         y="0"
         sodipodi:role="line"
         id="tspan104">140</tspan></text>
<path
       d="m 72,43.2 h 4"
       style="fill:#000000;fill-opacity:1;fill-rule:nonzero;stroke:#000000;stroke-width:0.5;stroke-linecap:butt;stroke-linejoin:round;stroke-miterlimit:100000;stroke-dasharray:none;stroke-opacity:1"
       id="path108"
       inkscape:connector-curvature="0" /><path
       d="m 518.4,43.2 h -4"
       style="fill:#000000;fill-opacity:1;fill-rule:nonzero;stroke:#000000;stroke-width:0.5;stroke-linecap:butt;stroke-linejoin:round;stroke-miterlimit:100000;stroke-dasharray:none;stroke-opacity:1"
       id="path110"
       inkscape:connector-curvature="0" /><text
       transform="matrix(1,0,0,-1,23.5625,39.8875)"
       style="font-variant:normal;font-weight:normal;font-size:12px;font-family:Arial;-inkscape-font-specification:Arial;writing-mode:lr-tb;fill:#000000;fill-opacity:1;fill-rule:nonzero;stroke:none"
       id="text114"><tspan
         x="0 10.0572 17.690399 21.507601 29.1408 36.773998"
         y="0"
         sodipodi:role="line"
         id="tspan112">−0.005</tspan></text>
<path
       d="m 72,112.32 h 4"
       style="fill:#000000;fill-opacity:1;fill-rule:nonzero;stroke:#000000;stroke-width:0.5;stroke-linecap:butt;stroke-linejoin:round;stroke-miterlimit:100000;stroke-dasharray:none;stroke-opacity:1"
       id="path116"
       inkscape:connector-curvature="0" /><path
       d="m 518.4,112.32 h -4"
       style="fill:#000000;fill-opacity:1;fill-rule:nonzero;stroke:#000000;stroke-width:0.5;stroke-linecap:butt;stroke-linejoin:round;stroke-miterlimit:100000;stroke-dasharray:none;stroke-opacity:1"
       id="path118"
       inkscape:connector-curvature="0" /><text
       transform="matrix(1,0,0,-1,33.625,109.0075)"
       style="font-variant:normal;font-weight:normal;font-size:12px;font-family:Arial;-inkscape-font-specification:Arial;writing-mode:lr-tb;fill:#000000;fill-opacity:1;fill-rule:nonzero;stroke:none"
       id="text122"><tspan
         x="0 7.6332002 11.4504 19.083599 26.716801"
         y="0"
         sodipodi:role="line"
         id="tspan120">0.000</tspan></text>
<path
       d="m 72,181.44 h 4"
       style="fill:#000000;fill-opacity:1;fill-rule:nonzero;stroke:#000000;stroke-width:0.5;stroke-linecap:butt;stroke-linejoin:round;stroke-miterlimit:100000;stroke-dasharray:none;stroke-opacity:1"
       id="path124"
       inkscape:connector-curvature="0" /><path
       d="m 518.4,181.44 h -4"
       style="fill:#000000;fill-opacity:1;fill-rule:nonzero;stroke:#000000;stroke-width:0.5;stroke-linecap:butt;stroke-linejoin:round;stroke-miterlimit:100000;stroke-dasharray:none;stroke-opacity:1"
       id="path126"
       inkscape:connector-curvature="0" /><text
       transform="matrix(1,0,0,-1,33.625,178.1275)"
       style="font-variant:normal;font-weight:normal;font-size:12px;font-family:Arial;-inkscape-font-specification:Arial;writing-mode:lr-tb;fill:#000000;fill-opacity:1;fill-rule:nonzero;stroke:none"
       id="text130"><tspan
         x="0 7.6332002 11.4504 19.083599 26.716801"
         y="0"
         sodipodi:role="line"
         id="tspan128">0.005</tspan></text>
<path
       d="m 72,250.56 h 4"
       style="fill:#000000;fill-opacity:1;fill-rule:nonzero;stroke:#000000;stroke-width:0.5;stroke-linecap:butt;stroke-linejoin:round;stroke-miterlimit:100000;stroke-dasharray:none;stroke-opacity:1"
       id="path132"
       inkscape:connector-curvature="0" /><path
       d="m 518.4,250.56 h -4"
       style="fill:#000000;fill-opacity:1;fill-rule:nonzero;stroke:#000000;stroke-width:0.5;stroke-linecap:butt;stroke-linejoin:round;stroke-miterlimit:100000;stroke-dasharray:none;stroke-opacity:1"
       id="path134"
       inkscape:connector-curvature="0" /><text
       transform="matrix(1,0,0,-1,33.625,247.2475)"
       style="font-variant:normal;font-weight:normal;font-size:12px;font-family:Arial;-inkscape-font-specification:Arial;writing-mode:lr-tb;fill:#000000;fill-opacity:1;fill-rule:nonzero;stroke:none"
       id="text138"><tspan
         x="0 7.6332002 11.4504 19.083599 26.716801"
         y="0"
         sodipodi:role="line"
         id="tspan136">0.010</tspan></text>
<path
       d="m 72,319.68 h 4"
       style="fill:#000000;fill-opacity:1;fill-rule:nonzero;stroke:#000000;stroke-width:0.5;stroke-linecap:butt;stroke-linejoin:round;stroke-miterlimit:100000;stroke-dasharray:none;stroke-opacity:1"
       id="path140"
       inkscape:connector-curvature="0" /><path
       d="m 518.4,319.68 h -4"
       style="fill:#000000;fill-opacity:1;fill-rule:nonzero;stroke:#000000;stroke-width:0.5;stroke-linecap:butt;stroke-linejoin:round;stroke-miterlimit:100000;stroke-dasharray:none;stroke-opacity:1"
       id="path142"
       inkscape:connector-curvature="0" /><text
       transform="matrix(1,0,0,-1,33.625,316.3675)"
       style="font-variant:normal;font-weight:normal;font-size:12px;font-family:Arial;-inkscape-font-specification:Arial;writing-mode:lr-tb;fill:#000000;fill-opacity:1;fill-rule:nonzero;stroke:none"
       id="text146"><tspan
         x="0 7.6332002 11.4504 19.083599 26.716801"
         y="0"
         sodipodi:role="line"
         id="tspan144">0.015</tspan></text>
<path
       d="m 72,388.8 h 4"
       style="fill:#000000;fill-opacity:1;fill-rule:nonzero;stroke:#000000;stroke-width:0.5;stroke-linecap:butt;stroke-linejoin:round;stroke-miterlimit:100000;stroke-dasharray:none;stroke-opacity:1"
       id="path148"
       inkscape:connector-curvature="0" /><path
       d="m 518.4,388.8 h -4"
       style="fill:#000000;fill-opacity:1;fill-rule:nonzero;stroke:#000000;stroke-width:0.5;stroke-linecap:butt;stroke-linejoin:round;stroke-miterlimit:100000;stroke-dasharray:none;stroke-opacity:1"
       id="path150"
       inkscape:connector-curvature="0" /><text
       transform="matrix(1,0,0,-1,33.625,385.4875)"
       style="font-variant:normal;font-weight:normal;font-size:12px;font-family:Arial;-inkscape-font-specification:Arial;writing-mode:lr-tb;fill:#000000;fill-opacity:1;fill-rule:nonzero;stroke:none"
       id="text154"><tspan
         x="0 7.6332002 11.4504 19.083599 26.716801"
         y="0"
         sodipodi:role="line"
         id="tspan152">0.020</tspan></text>
<text
       xml:space="preserve"
       style="font-style:normal;font-variant:normal;font-weight:normal;font-stretch:normal;font-size:30px;line-height:1.25;font-family:'CMU Serif';-inkscape-font-specification:'CMU Serif';letter-spacing:0px;word-spacing:0px;fill:#000000;fill-opacity:1;stroke:none;stroke-width:0.75"
       x="168.70938"
       y="18.069752"
       id="text963"
       transform="matrix(0,1,1,0,0,0)"><tspan
         sodipodi:role="line"
         id="tspan961"
         x="168.70938"
         y="18.069752"
         style="font-style:normal;font-variant:normal;font-weight:normal;font-stretch:normal;font-size:16px;font-family:'CMU Classical Serif';-inkscape-font-specification:'CMU Classical Serif';stroke-width:0.75">ri,1·ri+N-1,2</tspan></text>
<text
       xml:space="preserve"
       style="font-style:normal;font-variant:normal;font-weight:normal;font-stretch:normal;font-size:16px;line-height:1.25;font-family:'CMU Serif';-inkscape-font-specification:'CMU Serif';letter-spacing:0px;word-spacing:0px;fill:#000000;fill-opacity:1;stroke:none;stroke-width:0.75"
       x="231.35812"
       y="-8.3952503"
       id="text967"
       transform="scale(1,-1)"><tspan
         sodipodi:role="line"
         id="tspan965"
         x="231.35812"
         y="-8.3952503"
         style="font-size:16px;stroke-width:0.75">initial frame offset</tspan></text>
<text
       transform="scale(1,-1)"
       id="text990"
       y="-399.97153"
       x="28.171679"
       style="font-style:normal;font-variant:normal;font-weight:normal;font-stretch:normal;font-size:16px;line-height:1.25;font-family:'CMU Serif';-inkscape-font-specification:'CMU Serif';letter-spacing:0px;word-spacing:0px;fill:#0000ff;fill-opacity:1;stroke:none;stroke-width:0.75"
       xml:space="preserve"><tspan
         style="font-size:24.5px;fill:#0000ff;stroke-width:0.75"
         y="-399.97153"
         x="28.171679"
         id="tspan988"
         sodipodi:role="line">clear maximum</tspan></text>
<path
       style="fill:none;stroke:#0000ff;stroke-width:0.75px;stroke-linecap:butt;stroke-linejoin:miter;stroke-opacity:1;marker-end:url(#Arrow1Lend)"
       d="M 108,400.88137 72,340.611"
       id="path1030"
       inkscape:connector-curvature="0" /></g></svg>