<?xml version="1.0" encoding="utf-8" standalone="no"?>
<!DOCTYPE svg PUBLIC "-//W3C//DTD SVG 1.1//EN"
  "http://www.w3.org/Graphics/SVG/1.1/DTD/svg11.dtd">
<!-- Created with matplotlib (http://matplotlib.org/) -->
<svg height="288pt" version="1.1" viewBox="0 0 432 288" width="432pt" xmlns="http://www.w3.org/2000/svg" xmlns:xlink="http://www.w3.org/1999/xlink">
 <defs>
  <style type="text/css">
*{stroke-linecap:butt;stroke-linejoin:round;}
  </style>
 </defs>
 <g id="figure_1">
  <g id="patch_1">
   <path d="M 0 288 
L 432 288 
L 432 0 
L 0 0 
z
" style="fill:#ffffff;"/>
  </g>
  <g id="axes_1">
   <g id="patch_2">
    <path d="M 54 252 
L 388.8 252 
L 388.8 34.56 
L 54 34.56 
z
" style="fill:#ffffff;"/>
   </g>
   <g id="matplotlib.axis_1">
    <g id="xtick_1">
     <g id="line2d_1">
      <path clip-path="url(#p519e964915)" d="M 69.218182 252 
L 69.218182 34.56 
" style="fill:none;stroke:#b0b0b0;stroke-linecap:square;stroke-width:0.8;"/>
     </g>
     <g id="line2d_2">
      <defs>
       <path d="M 0 0 
L 0 3.5 
" id="mbf628c0d58" style="stroke:#000000;stroke-width:0.8;"/>
      </defs>
      <g>
       <use style="stroke:#000000;stroke-width:0.8;" x="69.218182" xlink:href="#mbf628c0d58" y="252"/>
      </g>
     </g>
     <g id="text_1">
      <!-- 0.0 -->
      <defs>
       <path d="M 31.78125 66.40625 
Q 24.171875 66.40625 20.328125 58.90625 
Q 16.5 51.421875 16.5 36.375 
Q 16.5 21.390625 20.328125 13.890625 
Q 24.171875 6.390625 31.78125 6.390625 
Q 39.453125 6.390625 43.28125 13.890625 
Q 47.125 21.390625 47.125 36.375 
Q 47.125 51.421875 43.28125 58.90625 
Q 39.453125 66.40625 31.78125 66.40625 
z
M 31.78125 74.21875 
Q 44.046875 74.21875 50.515625 64.515625 
Q 56.984375 54.828125 56.984375 36.375 
Q 56.984375 17.96875 50.515625 8.265625 
Q 44.046875 -1.421875 31.78125 -1.421875 
Q 19.53125 -1.421875 13.0625 8.265625 
Q 6.59375 17.96875 6.59375 36.375 
Q 6.59375 54.828125 13.0625 64.515625 
Q 19.53125 74.21875 31.78125 74.21875 
z
" id="DejaVuSans-30"/>
       <path d="M 10.6875 12.40625 
L 21 12.40625 
L 21 0 
L 10.6875 0 
z
" id="DejaVuSans-2e"/>
      </defs>
      <g transform="translate(61.266619 266.598437)scale(0.1 -0.1)">
       <use xlink:href="#DejaVuSans-30"/>
       <use x="63.623047" xlink:href="#DejaVuSans-2e"/>
       <use x="95.410156" xlink:href="#DejaVuSans-30"/>
      </g>
     </g>
    </g>
    <g id="xtick_2">
     <g id="line2d_3">
      <path clip-path="url(#p519e964915)" d="M 130.090909 252 
L 130.090909 34.56 
" style="fill:none;stroke:#b0b0b0;stroke-linecap:square;stroke-width:0.8;"/>
     </g>
     <g id="line2d_4">
      <g>
       <use style="stroke:#000000;stroke-width:0.8;" x="130.090909" xlink:href="#mbf628c0d58" y="252"/>
      </g>
     </g>
     <g id="text_2">
      <!-- 0.2 -->
      <defs>
       <path d="M 19.1875 8.296875 
L 53.609375 8.296875 
L 53.609375 0 
L 7.328125 0 
L 7.328125 8.296875 
Q 12.9375 14.109375 22.625 23.890625 
Q 32.328125 33.6875 34.8125 36.53125 
Q 39.546875 41.84375 41.421875 45.53125 
Q 43.3125 49.21875 43.3125 52.78125 
Q 43.3125 58.59375 39.234375 62.25 
Q 35.15625 65.921875 28.609375 65.921875 
Q 23.96875 65.921875 18.8125 64.3125 
Q 13.671875 62.703125 7.8125 59.421875 
L 7.8125 69.390625 
Q 13.765625 71.78125 18.9375 73 
Q 24.125 74.21875 28.421875 74.21875 
Q 39.75 74.21875 46.484375 68.546875 
Q 53.21875 62.890625 53.21875 53.421875 
Q 53.21875 48.921875 51.53125 44.890625 
Q 49.859375 40.875 45.40625 35.40625 
Q 44.1875 33.984375 37.640625 27.21875 
Q 31.109375 20.453125 19.1875 8.296875 
z
" id="DejaVuSans-32"/>
      </defs>
      <g transform="translate(122.139347 266.598437)scale(0.1 -0.1)">
       <use xlink:href="#DejaVuSans-30"/>
       <use x="63.623047" xlink:href="#DejaVuSans-2e"/>
       <use x="95.410156" xlink:href="#DejaVuSans-32"/>
      </g>
     </g>
    </g>
    <g id="xtick_3">
     <g id="line2d_5">
      <path clip-path="url(#p519e964915)" d="M 190.963636 252 
L 190.963636 34.56 
" style="fill:none;stroke:#b0b0b0;stroke-linecap:square;stroke-width:0.8;"/>
     </g>
     <g id="line2d_6">
      <g>
       <use style="stroke:#000000;stroke-width:0.8;" x="190.963636" xlink:href="#mbf628c0d58" y="252"/>
      </g>
     </g>
     <g id="text_3">
      <!-- 0.4 -->
      <defs>
       <path d="M 37.796875 64.3125 
L 12.890625 25.390625 
L 37.796875 25.390625 
z
M 35.203125 72.90625 
L 47.609375 72.90625 
L 47.609375 25.390625 
L 58.015625 25.390625 
L 58.015625 17.1875 
L 47.609375 17.1875 
L 47.609375 0 
L 37.796875 0 
L 37.796875 17.1875 
L 4.890625 17.1875 
L 4.890625 26.703125 
z
" id="DejaVuSans-34"/>
      </defs>
      <g transform="translate(183.012074 266.598437)scale(0.1 -0.1)">
       <use xlink:href="#DejaVuSans-30"/>
       <use x="63.623047" xlink:href="#DejaVuSans-2e"/>
       <use x="95.410156" xlink:href="#DejaVuSans-34"/>
      </g>
     </g>
    </g>
    <g id="xtick_4">
     <g id="line2d_7">
      <path clip-path="url(#p519e964915)" d="M 251.836364 252 
L 251.836364 34.56 
" style="fill:none;stroke:#b0b0b0;stroke-linecap:square;stroke-width:0.8;"/>
     </g>
     <g id="line2d_8">
      <g>
       <use style="stroke:#000000;stroke-width:0.8;" x="251.836364" xlink:href="#mbf628c0d58" y="252"/>
      </g>
     </g>
     <g id="text_4">
      <!-- 0.6 -->
      <defs>
       <path d="M 33.015625 40.375 
Q 26.375 40.375 22.484375 35.828125 
Q 18.609375 31.296875 18.609375 23.390625 
Q 18.609375 15.53125 22.484375 10.953125 
Q 26.375 6.390625 33.015625 6.390625 
Q 39.65625 6.390625 43.53125 10.953125 
Q 47.40625 15.53125 47.40625 23.390625 
Q 47.40625 31.296875 43.53125 35.828125 
Q 39.65625 40.375 33.015625 40.375 
z
M 52.59375 71.296875 
L 52.59375 62.3125 
Q 48.875 64.0625 45.09375 64.984375 
Q 41.3125 65.921875 37.59375 65.921875 
Q 27.828125 65.921875 22.671875 59.328125 
Q 17.53125 52.734375 16.796875 39.40625 
Q 19.671875 43.65625 24.015625 45.921875 
Q 28.375 48.1875 33.59375 48.1875 
Q 44.578125 48.1875 50.953125 41.515625 
Q 57.328125 34.859375 57.328125 23.390625 
Q 57.328125 12.15625 50.6875 5.359375 
Q 44.046875 -1.421875 33.015625 -1.421875 
Q 20.359375 -1.421875 13.671875 8.265625 
Q 6.984375 17.96875 6.984375 36.375 
Q 6.984375 53.65625 15.1875 63.9375 
Q 23.390625 74.21875 37.203125 74.21875 
Q 40.921875 74.21875 44.703125 73.484375 
Q 48.484375 72.75 52.59375 71.296875 
z
" id="DejaVuSans-36"/>
      </defs>
      <g transform="translate(243.884801 266.598437)scale(0.1 -0.1)">
       <use xlink:href="#DejaVuSans-30"/>
       <use x="63.623047" xlink:href="#DejaVuSans-2e"/>
       <use x="95.410156" xlink:href="#DejaVuSans-36"/>
      </g>
     </g>
    </g>
    <g id="xtick_5">
     <g id="line2d_9">
      <path clip-path="url(#p519e964915)" d="M 312.709091 252 
L 312.709091 34.56 
" style="fill:none;stroke:#b0b0b0;stroke-linecap:square;stroke-width:0.8;"/>
     </g>
     <g id="line2d_10">
      <g>
       <use style="stroke:#000000;stroke-width:0.8;" x="312.709091" xlink:href="#mbf628c0d58" y="252"/>
      </g>
     </g>
     <g id="text_5">
      <!-- 0.8 -->
      <defs>
       <path d="M 31.78125 34.625 
Q 24.75 34.625 20.71875 30.859375 
Q 16.703125 27.09375 16.703125 20.515625 
Q 16.703125 13.921875 20.71875 10.15625 
Q 24.75 6.390625 31.78125 6.390625 
Q 38.8125 6.390625 42.859375 10.171875 
Q 46.921875 13.96875 46.921875 20.515625 
Q 46.921875 27.09375 42.890625 30.859375 
Q 38.875 34.625 31.78125 34.625 
z
M 21.921875 38.8125 
Q 15.578125 40.375 12.03125 44.71875 
Q 8.5 49.078125 8.5 55.328125 
Q 8.5 64.0625 14.71875 69.140625 
Q 20.953125 74.21875 31.78125 74.21875 
Q 42.671875 74.21875 48.875 69.140625 
Q 55.078125 64.0625 55.078125 55.328125 
Q 55.078125 49.078125 51.53125 44.71875 
Q 48 40.375 41.703125 38.8125 
Q 48.828125 37.15625 52.796875 32.3125 
Q 56.78125 27.484375 56.78125 20.515625 
Q 56.78125 9.90625 50.3125 4.234375 
Q 43.84375 -1.421875 31.78125 -1.421875 
Q 19.734375 -1.421875 13.25 4.234375 
Q 6.78125 9.90625 6.78125 20.515625 
Q 6.78125 27.484375 10.78125 32.3125 
Q 14.796875 37.15625 21.921875 38.8125 
z
M 18.3125 54.390625 
Q 18.3125 48.734375 21.84375 45.5625 
Q 25.390625 42.390625 31.78125 42.390625 
Q 38.140625 42.390625 41.71875 45.5625 
Q 45.3125 48.734375 45.3125 54.390625 
Q 45.3125 60.0625 41.71875 63.234375 
Q 38.140625 66.40625 31.78125 66.40625 
Q 25.390625 66.40625 21.84375 63.234375 
Q 18.3125 60.0625 18.3125 54.390625 
z
" id="DejaVuSans-38"/>
      </defs>
      <g transform="translate(304.757528 266.598437)scale(0.1 -0.1)">
       <use xlink:href="#DejaVuSans-30"/>
       <use x="63.623047" xlink:href="#DejaVuSans-2e"/>
       <use x="95.410156" xlink:href="#DejaVuSans-38"/>
      </g>
     </g>
    </g>
    <g id="xtick_6">
     <g id="line2d_11">
      <path clip-path="url(#p519e964915)" d="M 373.581818 252 
L 373.581818 34.56 
" style="fill:none;stroke:#b0b0b0;stroke-linecap:square;stroke-width:0.8;"/>
     </g>
     <g id="line2d_12">
      <g>
       <use style="stroke:#000000;stroke-width:0.8;" x="373.581818" xlink:href="#mbf628c0d58" y="252"/>
      </g>
     </g>
     <g id="text_6">
      <!-- 1.0 -->
      <defs>
       <path d="M 12.40625 8.296875 
L 28.515625 8.296875 
L 28.515625 63.921875 
L 10.984375 60.40625 
L 10.984375 69.390625 
L 28.421875 72.90625 
L 38.28125 72.90625 
L 38.28125 8.296875 
L 54.390625 8.296875 
L 54.390625 0 
L 12.40625 0 
z
" id="DejaVuSans-31"/>
      </defs>
      <g transform="translate(365.630256 266.598437)scale(0.1 -0.1)">
       <use xlink:href="#DejaVuSans-31"/>
       <use x="63.623047" xlink:href="#DejaVuSans-2e"/>
       <use x="95.410156" xlink:href="#DejaVuSans-30"/>
      </g>
     </g>
    </g>
    <g id="text_7">
     <!-- 1 - specificity -->
     <defs>
      <path id="DejaVuSans-20"/>
      <path d="M 4.890625 31.390625 
L 31.203125 31.390625 
L 31.203125 23.390625 
L 4.890625 23.390625 
z
" id="DejaVuSans-2d"/>
      <path d="M 44.28125 53.078125 
L 44.28125 44.578125 
Q 40.484375 46.53125 36.375 47.5 
Q 32.28125 48.484375 27.875 48.484375 
Q 21.1875 48.484375 17.84375 46.4375 
Q 14.5 44.390625 14.5 40.28125 
Q 14.5 37.15625 16.890625 35.375 
Q 19.28125 33.59375 26.515625 31.984375 
L 29.59375 31.296875 
Q 39.15625 29.25 43.1875 25.515625 
Q 47.21875 21.78125 47.21875 15.09375 
Q 47.21875 7.46875 41.1875 3.015625 
Q 35.15625 -1.421875 24.609375 -1.421875 
Q 20.21875 -1.421875 15.453125 -0.5625 
Q 10.6875 0.296875 5.421875 2 
L 5.421875 11.28125 
Q 10.40625 8.6875 15.234375 7.390625 
Q 20.0625 6.109375 24.8125 6.109375 
Q 31.15625 6.109375 34.5625 8.28125 
Q 37.984375 10.453125 37.984375 14.40625 
Q 37.984375 18.0625 35.515625 20.015625 
Q 33.0625 21.96875 24.703125 23.78125 
L 21.578125 24.515625 
Q 13.234375 26.265625 9.515625 29.90625 
Q 5.8125 33.546875 5.8125 39.890625 
Q 5.8125 47.609375 11.28125 51.796875 
Q 16.75 56 26.8125 56 
Q 31.78125 56 36.171875 55.265625 
Q 40.578125 54.546875 44.28125 53.078125 
z
" id="DejaVuSans-73"/>
      <path d="M 18.109375 8.203125 
L 18.109375 -20.796875 
L 9.078125 -20.796875 
L 9.078125 54.6875 
L 18.109375 54.6875 
L 18.109375 46.390625 
Q 20.953125 51.265625 25.265625 53.625 
Q 29.59375 56 35.59375 56 
Q 45.5625 56 51.78125 48.09375 
Q 58.015625 40.1875 58.015625 27.296875 
Q 58.015625 14.40625 51.78125 6.484375 
Q 45.5625 -1.421875 35.59375 -1.421875 
Q 29.59375 -1.421875 25.265625 0.953125 
Q 20.953125 3.328125 18.109375 8.203125 
z
M 48.6875 27.296875 
Q 48.6875 37.203125 44.609375 42.84375 
Q 40.53125 48.484375 33.40625 48.484375 
Q 26.265625 48.484375 22.1875 42.84375 
Q 18.109375 37.203125 18.109375 27.296875 
Q 18.109375 17.390625 22.1875 11.75 
Q 26.265625 6.109375 33.40625 6.109375 
Q 40.53125 6.109375 44.609375 11.75 
Q 48.6875 17.390625 48.6875 27.296875 
z
" id="DejaVuSans-70"/>
      <path d="M 56.203125 29.59375 
L 56.203125 25.203125 
L 14.890625 25.203125 
Q 15.484375 15.921875 20.484375 11.0625 
Q 25.484375 6.203125 34.421875 6.203125 
Q 39.59375 6.203125 44.453125 7.46875 
Q 49.3125 8.734375 54.109375 11.28125 
L 54.109375 2.78125 
Q 49.265625 0.734375 44.1875 -0.34375 
Q 39.109375 -1.421875 33.890625 -1.421875 
Q 20.796875 -1.421875 13.15625 6.1875 
Q 5.515625 13.8125 5.515625 26.8125 
Q 5.515625 40.234375 12.765625 48.109375 
Q 20.015625 56 32.328125 56 
Q 43.359375 56 49.78125 48.890625 
Q 56.203125 41.796875 56.203125 29.59375 
z
M 47.21875 32.234375 
Q 47.125 39.59375 43.09375 43.984375 
Q 39.0625 48.390625 32.421875 48.390625 
Q 24.90625 48.390625 20.390625 44.140625 
Q 15.875 39.890625 15.1875 32.171875 
z
" id="DejaVuSans-65"/>
      <path d="M 48.78125 52.59375 
L 48.78125 44.1875 
Q 44.96875 46.296875 41.140625 47.34375 
Q 37.3125 48.390625 33.40625 48.390625 
Q 24.65625 48.390625 19.8125 42.84375 
Q 14.984375 37.3125 14.984375 27.296875 
Q 14.984375 17.28125 19.8125 11.734375 
Q 24.65625 6.203125 33.40625 6.203125 
Q 37.3125 6.203125 41.140625 7.25 
Q 44.96875 8.296875 48.78125 10.40625 
L 48.78125 2.09375 
Q 45.015625 0.34375 40.984375 -0.53125 
Q 36.96875 -1.421875 32.421875 -1.421875 
Q 20.0625 -1.421875 12.78125 6.34375 
Q 5.515625 14.109375 5.515625 27.296875 
Q 5.515625 40.671875 12.859375 48.328125 
Q 20.21875 56 33.015625 56 
Q 37.15625 56 41.109375 55.140625 
Q 45.0625 54.296875 48.78125 52.59375 
z
" id="DejaVuSans-63"/>
      <path d="M 9.421875 54.6875 
L 18.40625 54.6875 
L 18.40625 0 
L 9.421875 0 
z
M 9.421875 75.984375 
L 18.40625 75.984375 
L 18.40625 64.59375 
L 9.421875 64.59375 
z
" id="DejaVuSans-69"/>
      <path d="M 37.109375 75.984375 
L 37.109375 68.5 
L 28.515625 68.5 
Q 23.6875 68.5 21.796875 66.546875 
Q 19.921875 64.59375 19.921875 59.515625 
L 19.921875 54.6875 
L 34.71875 54.6875 
L 34.71875 47.703125 
L 19.921875 47.703125 
L 19.921875 0 
L 10.890625 0 
L 10.890625 47.703125 
L 2.296875 47.703125 
L 2.296875 54.6875 
L 10.890625 54.6875 
L 10.890625 58.5 
Q 10.890625 67.625 15.140625 71.796875 
Q 19.390625 75.984375 28.609375 75.984375 
z
" id="DejaVuSans-66"/>
      <path d="M 18.3125 70.21875 
L 18.3125 54.6875 
L 36.8125 54.6875 
L 36.8125 47.703125 
L 18.3125 47.703125 
L 18.3125 18.015625 
Q 18.3125 11.328125 20.140625 9.421875 
Q 21.96875 7.515625 27.59375 7.515625 
L 36.8125 7.515625 
L 36.8125 0 
L 27.59375 0 
Q 17.1875 0 13.234375 3.875 
Q 9.28125 7.765625 9.28125 18.015625 
L 9.28125 47.703125 
L 2.6875 47.703125 
L 2.6875 54.6875 
L 9.28125 54.6875 
L 9.28125 70.21875 
z
" id="DejaVuSans-74"/>
      <path d="M 32.171875 -5.078125 
Q 28.375 -14.84375 24.75 -17.8125 
Q 21.140625 -20.796875 15.09375 -20.796875 
L 7.90625 -20.796875 
L 7.90625 -13.28125 
L 13.1875 -13.28125 
Q 16.890625 -13.28125 18.9375 -11.515625 
Q 21 -9.765625 23.484375 -3.21875 
L 25.09375 0.875 
L 2.984375 54.6875 
L 12.5 54.6875 
L 29.59375 11.921875 
L 46.6875 54.6875 
L 56.203125 54.6875 
z
" id="DejaVuSans-79"/>
     </defs>
     <g transform="translate(188.035937 280.276563)scale(0.1 -0.1)">
      <use xlink:href="#DejaVuSans-31"/>
      <use x="63.623047" xlink:href="#DejaVuSans-20"/>
      <use x="95.410156" xlink:href="#DejaVuSans-2d"/>
      <use x="131.494141" xlink:href="#DejaVuSans-20"/>
      <use x="163.28125" xlink:href="#DejaVuSans-73"/>
      <use x="215.380859" xlink:href="#DejaVuSans-70"/>
      <use x="278.857422" xlink:href="#DejaVuSans-65"/>
      <use x="340.380859" xlink:href="#DejaVuSans-63"/>
      <use x="395.361328" xlink:href="#DejaVuSans-69"/>
      <use x="423.144531" xlink:href="#DejaVuSans-66"/>
      <use x="458.349609" xlink:href="#DejaVuSans-69"/>
      <use x="486.132812" xlink:href="#DejaVuSans-63"/>
      <use x="541.113281" xlink:href="#DejaVuSans-69"/>
      <use x="568.896484" xlink:href="#DejaVuSans-74"/>
      <use x="608.105469" xlink:href="#DejaVuSans-79"/>
     </g>
    </g>
   </g>
   <g id="matplotlib.axis_2">
    <g id="ytick_1">
     <g id="line2d_13">
      <path clip-path="url(#p519e964915)" d="M 54 242.176065 
L 388.8 242.176065 
" style="fill:none;stroke:#b0b0b0;stroke-linecap:square;stroke-width:0.8;"/>
     </g>
     <g id="line2d_14">
      <defs>
       <path d="M 0 0 
L -3.5 0 
" id="m7385a44949" style="stroke:#000000;stroke-width:0.8;"/>
      </defs>
      <g>
       <use style="stroke:#000000;stroke-width:0.8;" x="54" xlink:href="#m7385a44949" y="242.176065"/>
      </g>
     </g>
     <g id="text_8">
      <!-- 0.0 -->
      <g transform="translate(31.096875 245.975284)scale(0.1 -0.1)">
       <use xlink:href="#DejaVuSans-30"/>
       <use x="63.623047" xlink:href="#DejaVuSans-2e"/>
       <use x="95.410156" xlink:href="#DejaVuSans-30"/>
      </g>
     </g>
    </g>
    <g id="ytick_2">
     <g id="line2d_15">
      <path clip-path="url(#p519e964915)" d="M 54 202.62958 
L 388.8 202.62958 
" style="fill:none;stroke:#b0b0b0;stroke-linecap:square;stroke-width:0.8;"/>
     </g>
     <g id="line2d_16">
      <g>
       <use style="stroke:#000000;stroke-width:0.8;" x="54" xlink:href="#m7385a44949" y="202.62958"/>
      </g>
     </g>
     <g id="text_9">
      <!-- 0.2 -->
      <g transform="translate(31.096875 206.428798)scale(0.1 -0.1)">
       <use xlink:href="#DejaVuSans-30"/>
       <use x="63.623047" xlink:href="#DejaVuSans-2e"/>
       <use x="95.410156" xlink:href="#DejaVuSans-32"/>
      </g>
     </g>
    </g>
    <g id="ytick_3">
     <g id="line2d_17">
      <path clip-path="url(#p519e964915)" d="M 54 163.083094 
L 388.8 163.083094 
" style="fill:none;stroke:#b0b0b0;stroke-linecap:square;stroke-width:0.8;"/>
     </g>
     <g id="line2d_18">
      <g>
       <use style="stroke:#000000;stroke-width:0.8;" x="54" xlink:href="#m7385a44949" y="163.083094"/>
      </g>
     </g>
     <g id="text_10">
      <!-- 0.4 -->
      <g transform="translate(31.096875 166.882313)scale(0.1 -0.1)">
       <use xlink:href="#DejaVuSans-30"/>
       <use x="63.623047" xlink:href="#DejaVuSans-2e"/>
       <use x="95.410156" xlink:href="#DejaVuSans-34"/>
      </g>
     </g>
    </g>
    <g id="ytick_4">
     <g id="line2d_19">
      <path clip-path="url(#p519e964915)" d="M 54 123.536608 
L 388.8 123.536608 
" style="fill:none;stroke:#b0b0b0;stroke-linecap:square;stroke-width:0.8;"/>
     </g>
     <g id="line2d_20">
      <g>
       <use style="stroke:#000000;stroke-width:0.8;" x="54" xlink:href="#m7385a44949" y="123.536608"/>
      </g>
     </g>
     <g id="text_11">
      <!-- 0.6 -->
      <g transform="translate(31.096875 127.335827)scale(0.1 -0.1)">
       <use xlink:href="#DejaVuSans-30"/>
       <use x="63.623047" xlink:href="#DejaVuSans-2e"/>
       <use x="95.410156" xlink:href="#DejaVuSans-36"/>
      </g>
     </g>
    </g>
    <g id="ytick_5">
     <g id="line2d_21">
      <path clip-path="url(#p519e964915)" d="M 54 83.990122 
L 388.8 83.990122 
" style="fill:none;stroke:#b0b0b0;stroke-linecap:square;stroke-width:0.8;"/>
     </g>
     <g id="line2d_22">
      <g>
       <use style="stroke:#000000;stroke-width:0.8;" x="54" xlink:href="#m7385a44949" y="83.990122"/>
      </g>
     </g>
     <g id="text_12">
      <!-- 0.8 -->
      <g transform="translate(31.096875 87.789341)scale(0.1 -0.1)">
       <use xlink:href="#DejaVuSans-30"/>
       <use x="63.623047" xlink:href="#DejaVuSans-2e"/>
       <use x="95.410156" xlink:href="#DejaVuSans-38"/>
      </g>
     </g>
    </g>
    <g id="ytick_6">
     <g id="line2d_23">
      <path clip-path="url(#p519e964915)" d="M 54 44.443636 
L 388.8 44.443636 
" style="fill:none;stroke:#b0b0b0;stroke-linecap:square;stroke-width:0.8;"/>
     </g>
     <g id="line2d_24">
      <g>
       <use style="stroke:#000000;stroke-width:0.8;" x="54" xlink:href="#m7385a44949" y="44.443636"/>
      </g>
     </g>
     <g id="text_13">
      <!-- 1.0 -->
      <g transform="translate(31.096875 48.242855)scale(0.1 -0.1)">
       <use xlink:href="#DejaVuSans-31"/>
       <use x="63.623047" xlink:href="#DejaVuSans-2e"/>
       <use x="95.410156" xlink:href="#DejaVuSans-30"/>
      </g>
     </g>
    </g>
    <g id="text_14">
     <!-- sensitivitiy -->
     <defs>
      <path d="M 54.890625 33.015625 
L 54.890625 0 
L 45.90625 0 
L 45.90625 32.71875 
Q 45.90625 40.484375 42.875 44.328125 
Q 39.84375 48.1875 33.796875 48.1875 
Q 26.515625 48.1875 22.3125 43.546875 
Q 18.109375 38.921875 18.109375 30.90625 
L 18.109375 0 
L 9.078125 0 
L 9.078125 54.6875 
L 18.109375 54.6875 
L 18.109375 46.1875 
Q 21.34375 51.125 25.703125 53.5625 
Q 30.078125 56 35.796875 56 
Q 45.21875 56 50.046875 50.171875 
Q 54.890625 44.34375 54.890625 33.015625 
z
" id="DejaVuSans-6e"/>
      <path d="M 2.984375 54.6875 
L 12.5 54.6875 
L 29.59375 8.796875 
L 46.6875 54.6875 
L 56.203125 54.6875 
L 35.6875 0 
L 23.484375 0 
z
" id="DejaVuSans-76"/>
     </defs>
     <g transform="translate(25.017187 170.13)rotate(-90)scale(0.1 -0.1)">
      <use xlink:href="#DejaVuSans-73"/>
      <use x="52.099609" xlink:href="#DejaVuSans-65"/>
      <use x="113.623047" xlink:href="#DejaVuSans-6e"/>
      <use x="177.001953" xlink:href="#DejaVuSans-73"/>
      <use x="229.101562" xlink:href="#DejaVuSans-69"/>
      <use x="256.884766" xlink:href="#DejaVuSans-74"/>
      <use x="296.09375" xlink:href="#DejaVuSans-69"/>
      <use x="323.876953" xlink:href="#DejaVuSans-76"/>
      <use x="383.056641" xlink:href="#DejaVuSans-69"/>
      <use x="410.839844" xlink:href="#DejaVuSans-74"/>
      <use x="450.048828" xlink:href="#DejaVuSans-69"/>
      <use x="477.832031" xlink:href="#DejaVuSans-79"/>
     </g>
    </g>
   </g>
   <g id="line2d_25">
    <path clip-path="url(#p519e964915)" d="M 69.218182 242.116364 
L 69.218182 204.504217 
L 69.34704 204.504217 
L 69.34704 197.220595 
L 69.475899 197.220595 
L 69.475899 194.653416 
L 69.604757 194.653416 
L 69.604757 194.474311 
L 69.733616 194.474311 
L 69.733616 194.1161 
L 69.862474 194.1161 
L 69.862474 191.966835 
L 69.991332 191.966835 
L 69.991332 191.310114 
L 70.120191 191.310114 
L 70.120191 186.175758 
L 70.249049 186.175758 
L 70.249049 185.041423 
L 70.377908 185.041423 
L 70.377908 180.384681 
L 70.506766 180.384681 
L 70.506766 178.354819 
L 70.635625 178.354819 
L 70.635625 175.310027 
L 70.764483 175.310027 
L 70.764483 171.668216 
L 70.893342 171.668216 
L 70.893342 170.17567 
L 71.0222 170.17567 
L 71.0222 168.324914 
L 71.151058 168.324914 
L 71.151058 165.101015 
L 71.279917 165.101015 
L 71.279917 164.862208 
L 71.408775 164.862208 
L 71.408775 162.832346 
L 71.666492 162.772644 
L 71.666492 160.98159 
L 71.795351 160.98159 
L 71.795351 159.429342 
L 71.924209 159.429342 
L 71.924209 157.638288 
L 72.053068 157.638288 
L 72.053068 156.921866 
L 72.181926 156.921866 
L 72.181926 156.623357 
L 72.310784 156.623357 
L 72.310784 155.369619 
L 72.439643 155.369619 
L 72.439643 154.832302 
L 72.69736 154.7726 
L 72.69736 154.593495 
L 72.955077 154.533793 
L 72.955077 153.041248 
L 73.083935 153.041248 
L 73.083935 152.026317 
L 73.212793 152.026317 
L 73.212793 151.071088 
L 73.341652 151.071088 
L 73.341652 149.638244 
L 73.47051 149.638244 
L 73.47051 149.339735 
L 73.599369 149.339735 
L 73.599369 148.563611 
L 73.728227 148.563611 
L 73.728227 147.071066 
L 73.857086 147.071066 
L 73.857086 146.832258 
L 73.985944 146.832258 
L 73.985944 146.354644 
L 74.114803 146.354644 
L 74.114803 145.339713 
L 74.243661 145.339713 
L 74.243661 144.802396 
L 74.372519 144.802396 
L 74.372519 143.906869 
L 74.501378 143.906869 
L 74.501378 142.593429 
L 74.630236 142.593429 
L 74.630236 141.459094 
L 74.759095 141.459094 
L 74.759095 140.98148 
L 75.016812 140.98148 
L 75.016812 140.742673 
L 75.14567 140.742673 
L 75.14567 139.488934 
L 75.403387 139.488934 
L 75.403387 138.832214 
L 75.532245 138.832214 
L 75.532245 138.593407 
L 75.661104 138.593407 
L 75.661104 138.235196 
L 75.789962 138.235196 
L 75.789962 137.518774 
L 75.918821 137.518774 
L 75.918821 136.563545 
L 76.047679 136.563545 
L 76.047679 136.265036 
L 76.176538 136.265036 
L 76.176538 135.847123 
L 76.563113 135.787422 
L 76.563113 135.668018 
L 76.691971 135.668018 
L 76.691971 135.369509 
L 76.82083 135.369509 
L 76.82083 135.011298 
L 76.949688 135.011298 
L 76.949688 134.593385 
L 77.207405 134.533683 
L 77.207405 134.41428 
L 77.336264 134.41428 
L 77.336264 132.205312 
L 77.465122 132.205312 
L 77.465122 131.7874 
L 77.59398 131.7874 
L 77.59398 130.354556 
L 77.722839 130.354556 
L 77.722839 127.429167 
L 77.851697 127.429167 
L 77.851697 126.175428 
L 78.109414 126.115727 
L 78.109414 125.697814 
L 78.238273 125.697814 
L 78.238273 125.339603 
L 78.367131 125.339603 
L 78.367131 124.444076 
L 78.49599 124.444076 
L 78.49599 123.906759 
L 78.753706 123.847057 
L 78.753706 123.190337 
L 78.882565 123.190337 
L 78.882565 122.891828 
L 79.011423 122.891828 
L 79.011423 121.817196 
L 79.140282 121.817196 
L 79.140282 120.921668 
L 79.26914 120.921668 
L 79.26914 120.444054 
L 79.397999 120.444054 
L 79.397999 119.966439 
L 79.526857 119.966439 
L 79.526857 119.787334 
L 79.655715 119.787334 
L 79.655715 118.593297 
L 80.171149 118.533595 
L 80.171149 118.35449 
L 80.300008 118.35449 
L 80.300008 116.682839 
L 80.428866 116.682839 
L 80.428866 115.966417 
L 80.557725 115.966417 
L 80.557725 115.011188 
L 80.815441 115.011188 
L 80.815441 114.41417 
L 81.073158 114.41417 
L 81.073158 113.578344 
L 81.202017 113.578344 
L 81.202017 112.145501 
L 81.330875 112.145501 
L 81.330875 111.667886 
L 81.588592 111.667886 
L 81.588592 111.488781 
L 81.975167 111.429079 
L 81.975167 111.190272 
L 82.232884 111.13057 
L 82.232884 111.070868 
L 82.361743 111.070868 
L 82.361743 110.533552 
L 82.748318 110.533552 
L 82.748318 110.235042 
L 83.006035 110.235042 
L 83.006035 109.81713 
L 83.263752 109.81713 
L 83.263752 108.981304 
L 83.39261 108.981304 
L 83.39261 107.906671 
L 83.650327 107.84697 
L 83.650327 107.787268 
L 83.779186 107.787268 
L 83.779186 107.548461 
L 84.036902 107.548461 
L 84.036902 107.429057 
L 84.165761 107.429057 
L 84.165761 106.53353 
L 84.423478 106.53353 
L 84.423478 106.354424 
L 84.552336 106.354424 
L 84.552336 106.175319 
L 84.810053 106.115617 
L 84.810053 105.160388 
L 84.938912 105.160388 
L 84.938912 104.682773 
L 85.06777 104.682773 
L 85.06777 103.966351 
L 85.196628 103.966351 
L 85.196628 103.667842 
L 85.325487 103.667842 
L 85.325487 103.130526 
L 85.583204 103.070824 
L 85.583204 102.95142 
L 85.969779 102.95142 
L 85.969779 101.936489 
L 86.098638 101.936489 
L 86.098638 101.63798 
L 86.356354 101.578278 
L 86.356354 101.458875 
L 86.614071 101.458875 
L 86.614071 101.339471 
L 86.74293 101.339471 
L 86.74293 101.220068 
L 86.871788 101.220068 
L 86.871788 101.040962 
L 87.000647 101.040962 
L 87.000647 100.742453 
L 87.129505 100.742453 
L 87.129505 100.503646 
L 87.258363 100.503646 
L 87.258363 100.205137 
L 87.387222 100.205137 
L 87.387222 99.846926 
L 87.51608 99.846926 
L 87.51608 99.488715 
L 87.644939 99.488715 
L 87.644939 99.249907 
L 87.902656 99.190206 
L 87.902656 98.951398 
L 88.031514 98.951398 
L 88.031514 98.772293 
L 88.160373 98.772293 
L 88.160373 98.593187 
L 88.289231 98.593187 
L 88.289231 98.35438 
L 88.418089 98.35438 
L 88.418089 98.055871 
L 88.546948 98.055871 
L 88.546948 97.876766 
L 88.675806 97.876766 
L 88.675806 97.578257 
L 89.062382 97.518555 
L 89.062382 97.220046 
L 89.320099 97.160344 
L 89.320099 96.085711 
L 89.448957 96.085711 
L 89.448957 95.667798 
L 89.577815 95.667798 
L 89.577815 95.548395 
L 89.835532 95.488693 
L 89.835532 95.428991 
L 90.093249 95.369289 
L 90.093249 95.309587 
L 90.222108 95.309587 
L 90.222108 95.190184 
L 90.350966 95.190184 
L 90.350966 95.07078 
L 90.737541 95.07078 
L 90.737541 94.951376 
L 90.995258 94.891675 
L 90.995258 94.831973 
L 91.124117 94.831973 
L 91.124117 94.652867 
L 91.252975 94.652867 
L 91.252975 94.533464 
L 91.381834 94.533464 
L 91.381834 94.41406 
L 91.510692 94.41406 
L 91.510692 94.115551 
L 91.63955 94.115551 
L 91.63955 93.936445 
L 91.768409 93.936445 
L 91.768409 93.817042 
L 91.897267 93.817042 
L 91.897267 93.458831 
L 92.670418 93.399129 
L 92.670418 93.279725 
L 92.799276 93.279725 
L 92.799276 93.10062 
L 92.928135 93.10062 
L 92.928135 92.921515 
L 93.056993 92.921515 
L 93.056993 92.563304 
L 93.443569 92.503602 
L 93.443569 92.4439 
L 93.959002 92.4439 
L 93.959002 92.205093 
L 94.474436 92.145391 
L 94.474436 91.667776 
L 94.861011 91.608074 
L 94.861011 91.548373 
L 94.98987 91.548373 
L 94.98987 91.309565 
L 95.118728 91.309565 
L 95.118728 91.13046 
L 95.247587 91.13046 
L 95.247587 90.951354 
L 95.634162 90.891653 
L 95.634162 90.772249 
L 95.891879 90.712547 
L 95.891879 90.652845 
L 96.020737 90.652845 
L 96.020737 90.354336 
L 96.149596 90.354336 
L 96.149596 90.234933 
L 96.278454 90.234933 
L 96.278454 89.757318 
L 96.536171 89.757318 
L 96.536171 89.637914 
L 96.66503 89.637914 
L 96.66503 89.518511 
L 96.922747 89.518511 
L 96.922747 89.399107 
L 97.051605 89.399107 
L 97.051605 89.220002 
L 97.180463 89.220002 
L 97.180463 89.040896 
L 97.309322 89.040896 
L 97.309322 88.861791 
L 97.43818 88.861791 
L 97.43818 88.384176 
L 97.567039 88.384176 
L 97.567039 88.085667 
L 97.695897 88.085667 
L 97.695897 87.966263 
L 97.824756 87.966263 
L 97.824756 87.84686 
L 98.082472 87.787158 
L 98.082472 87.488649 
L 98.211331 87.488649 
L 98.211331 87.369245 
L 98.469048 87.309543 
L 98.469048 87.19014 
L 98.597906 87.19014 
L 98.597906 86.831929 
L 98.984482 86.772227 
L 98.984482 86.652823 
L 99.371057 86.652823 
L 99.371057 86.294612 
L 99.499915 86.294612 
L 99.499915 85.816998 
L 99.628774 85.816998 
L 99.628774 85.458787 
L 99.757632 85.458787 
L 99.757632 85.100576 
L 99.886491 85.100576 
L 99.886491 84.981172 
L 100.530783 84.981172 
L 100.530783 84.682663 
L 100.659641 84.682663 
L 100.659641 84.503558 
L 100.917358 84.443856 
L 100.917358 84.324452 
L 101.175075 84.324452 
L 101.175075 84.145347 
L 101.303933 84.145347 
L 101.303933 83.608031 
L 101.432792 83.608031 
L 101.432792 83.369223 
L 101.56165 83.369223 
L 101.56165 82.951311 
L 101.690509 82.951311 
L 101.690509 82.772205 
L 101.819367 82.772205 
L 101.819367 82.354292 
L 101.948226 82.354292 
L 101.948226 82.055783 
L 102.334801 82.055783 
L 102.334801 81.93638 
L 102.592518 81.876678 
L 102.592518 81.63787 
L 102.721376 81.63787 
L 102.721376 81.160256 
L 102.979093 81.100554 
L 102.979093 81.040852 
L 103.107952 81.040852 
L 103.107952 80.802045 
L 103.23681 80.802045 
L 103.23681 80.384132 
L 103.365669 80.384132 
L 103.365669 80.025921 
L 103.494527 80.025921 
L 103.494527 79.846816 
L 103.623385 79.846816 
L 103.623385 79.727412 
L 103.752244 79.727412 
L 103.752244 78.772183 
L 104.009961 78.772183 
L 104.009961 78.473674 
L 104.138819 78.473674 
L 104.138819 78.35427 
L 104.267678 78.35427 
L 104.267678 78.175165 
L 104.396536 78.175165 
L 104.396536 77.876656 
L 104.525395 77.876656 
L 104.525395 77.757252 
L 104.654253 77.757252 
L 104.654253 77.637848 
L 104.91197 77.637848 
L 104.91197 77.279638 
L 105.040828 77.279638 
L 105.040828 77.160234 
L 105.298545 77.160234 
L 105.298545 77.04083 
L 105.556262 77.04083 
L 105.556262 76.802023 
L 106.071696 76.742321 
L 106.071696 76.38411 
L 106.200554 76.38411 
L 106.200554 76.145303 
L 106.844846 76.085601 
L 106.844846 75.787092 
L 106.973705 75.787092 
L 106.973705 75.369179 
L 107.231422 75.369179 
L 107.231422 74.891565 
L 107.36028 74.891565 
L 107.36028 74.533354 
L 107.489139 74.533354 
L 107.489139 74.234845 
L 107.617997 74.234845 
L 107.617997 74.115441 
L 107.875714 74.055739 
L 107.875714 73.936336 
L 108.004572 73.936336 
L 108.004572 73.816932 
L 108.133431 73.816932 
L 108.133431 73.697528 
L 108.391148 73.637827 
L 108.391148 73.279616 
L 108.520006 73.279616 
L 108.520006 73.10051 
L 108.906581 73.10051 
L 108.906581 72.503492 
L 109.03544 72.503492 
L 109.03544 72.085579 
L 109.164298 72.085579 
L 109.164298 71.846772 
L 109.422015 71.78707 
L 109.422015 71.190052 
L 109.808591 71.13035 
L 109.808591 71.070648 
L 110.324024 71.070648 
L 110.324024 70.831841 
L 110.452883 70.831841 
L 110.452883 70.593034 
L 110.581741 70.593034 
L 110.581741 70.354226 
L 110.839458 70.294525 
L 110.839458 70.175121 
L 111.097175 70.115419 
L 111.097175 70.055717 
L 111.354892 69.996015 
L 111.354892 69.637805 
L 111.48375 69.637805 
L 111.48375 69.16019 
L 111.612609 69.16019 
L 111.612609 69.040786 
L 111.870326 68.981085 
L 111.870326 68.921383 
L 112.514618 68.921383 
L 112.514618 68.682575 
L 112.772335 68.622874 
L 112.772335 68.563172 
L 112.901193 68.563172 
L 112.901193 67.966154 
L 113.030052 67.966154 
L 113.030052 67.787048 
L 113.416627 67.727346 
L 113.416627 67.607943 
L 113.674344 67.607943 
L 113.674344 67.428837 
L 113.932061 67.369135 
L 113.932061 67.19003 
L 114.060919 67.19003 
L 114.060919 66.951223 
L 114.189778 66.951223 
L 114.189778 66.652714 
L 114.705211 66.593012 
L 114.705211 66.354204 
L 114.962928 66.354204 
L 114.962928 66.234801 
L 115.091787 66.234801 
L 115.091787 66.055695 
L 115.349504 65.995994 
L 115.349504 65.936292 
L 116.380371 65.87659 
L 116.380371 65.816888 
L 116.895805 65.757186 
L 116.895805 65.697484 
L 117.28238 65.697484 
L 117.28238 65.398975 
L 117.411239 65.398975 
L 117.411239 65.160168 
L 117.540097 65.160168 
L 117.540097 65.040764 
L 117.797814 65.040764 
L 117.797814 64.801957 
L 117.926672 64.801957 
L 117.926672 64.682553 
L 118.055531 64.682553 
L 118.055531 64.56315 
L 118.184389 64.56315 
L 118.184389 64.384044 
L 118.313248 64.384044 
L 118.313248 64.264641 
L 118.442106 64.264641 
L 118.442106 64.145237 
L 118.570965 64.145237 
L 118.570965 63.966132 
L 118.699823 63.966132 
L 118.699823 63.667623 
L 118.828681 63.667623 
L 118.828681 63.488517 
L 118.95754 63.488517 
L 118.95754 63.309412 
L 119.215257 63.309412 
L 119.215257 63.070604 
L 119.472974 63.070604 
L 119.472974 62.891499 
L 119.988407 62.831797 
L 119.988407 62.652692 
L 120.246124 62.59299 
L 120.246124 62.473586 
L 120.374983 62.473586 
L 120.374983 62.175077 
L 120.761558 62.115375 
L 120.761558 62.055673 
L 120.890416 62.055673 
L 120.890416 61.757164 
L 121.148133 61.697462 
L 121.148133 61.398953 
L 121.40585 61.398953 
L 121.40585 61.160146 
L 121.534709 61.160146 
L 121.534709 61.040742 
L 122.050142 61.040742 
L 122.050142 60.921339 
L 122.307859 60.861637 
L 122.307859 60.742233 
L 122.823293 60.682532 
L 122.823293 60.62283 
L 123.209868 60.62283 
L 123.209868 60.264619 
L 123.338727 60.264619 
L 123.338727 60.145215 
L 123.983019 60.145215 
L 123.983019 60.025811 
L 124.240736 60.025811 
L 124.240736 59.787004 
L 124.498453 59.787004 
L 124.498453 59.667601 
L 124.75617 59.667601 
L 124.75617 59.548197 
L 124.885028 59.548197 
L 124.885028 59.428793 
L 125.013887 59.428793 
L 125.013887 59.30939 
L 125.271603 59.249688 
L 125.271603 59.130284 
L 125.52932 59.070582 
L 125.52932 58.951179 
L 125.915896 58.951179 
L 125.915896 58.831775 
L 126.044754 58.831775 
L 126.044754 58.65267 
L 126.560188 58.592968 
L 126.560188 58.413862 
L 126.946763 58.354161 
L 126.946763 58.234757 
L 127.20448 58.234757 
L 127.20448 58.115353 
L 127.719914 58.055651 
L 127.719914 57.99595 
L 127.848772 57.99595 
L 127.848772 57.876546 
L 128.621923 57.816844 
L 128.621923 57.578037 
L 128.750781 57.578037 
L 128.750781 57.458633 
L 128.87964 57.458633 
L 128.87964 57.33923 
L 129.137357 57.33923 
L 129.137357 57.219826 
L 129.266215 57.219826 
L 129.266215 57.100422 
L 129.395074 57.100422 
L 129.395074 56.981019 
L 129.65279 56.921317 
L 129.65279 56.861615 
L 130.425941 56.801913 
L 130.425941 56.68251 
L 130.941375 56.622808 
L 130.941375 56.503404 
L 132.616535 56.443702 
L 132.616535 56.384 
L 133.905119 56.324299 
L 133.905119 56.264597 
L 134.162836 56.264597 
L 134.162836 56.085491 
L 134.420553 56.02579 
L 134.420553 55.966088 
L 134.549411 55.966088 
L 134.549411 55.846684 
L 135.966854 55.786982 
L 135.966854 55.72728 
L 136.353429 55.667579 
L 136.353429 55.607877 
L 136.611146 55.607877 
L 136.611146 55.488473 
L 137.513155 55.428771 
L 137.513155 55.369069 
L 137.899731 55.369069 
L 137.899731 55.130262 
L 138.672881 55.130262 
L 138.672881 55.010859 
L 139.446032 55.010859 
L 139.446032 54.891455 
L 140.090324 54.831753 
L 140.090324 54.772051 
L 140.863475 54.712349 
L 140.863475 54.652648 
L 142.023201 54.592946 
L 142.023201 54.533244 
L 142.409776 54.473542 
L 142.409776 54.354139 
L 142.667493 54.354139 
L 142.667493 54.234735 
L 143.311785 54.175033 
L 143.311785 54.115331 
L 144.342653 54.055629 
L 144.342653 53.995928 
L 144.729228 53.936226 
L 144.729228 53.816822 
L 145.888954 53.75712 
L 145.888954 53.697419 
L 146.275529 53.637717 
L 146.275529 53.578015 
L 148.337264 53.518313 
L 148.337264 53.458611 
L 148.852698 53.398909 
L 148.852698 53.339208 
L 149.754707 53.279506 
L 149.754707 53.219804 
L 150.656716 53.160102 
L 150.656716 53.1004 
L 152.203017 53.040698 
L 152.203017 52.980997 
L 154.522469 52.921295 
L 154.522469 52.861593 
L 155.29562 52.801891 
L 155.29562 52.563084 
L 156.068771 52.503382 
L 156.068771 52.44368 
L 157.74393 52.44368 
L 157.74393 52.324277 
L 158.903656 52.264575 
L 158.903656 52.204873 
L 159.547949 52.145171 
L 159.547949 52.085469 
L 160.836533 52.025768 
L 160.836533 51.966066 
L 161.996259 51.906364 
L 161.996259 51.846662 
L 164.831145 51.78696 
L 164.831145 51.727258 
L 169.212332 51.667557 
L 169.212332 51.607855 
L 170.758633 51.548153 
L 170.758633 51.428749 
L 171.918359 51.369048 
L 171.918359 51.309346 
L 172.433793 51.249644 
L 172.433793 51.189942 
L 173.078085 51.13024 
L 173.078085 51.070538 
L 176.428404 51.070538 
L 176.428404 50.951135 
L 176.943838 50.951135 
L 176.943838 50.831731 
L 177.201555 50.772029 
L 177.201555 50.712328 
L 178.232422 50.652626 
L 178.232422 50.592924 
L 180.551874 50.533222 
L 180.551874 50.413818 
L 183.000185 50.354117 
L 183.000185 50.294415 
L 183.257902 50.294415 
L 183.257902 50.175011 
L 184.546486 50.115309 
L 184.546486 50.055607 
L 188.025664 49.995906 
L 188.025664 49.936204 
L 189.314248 49.876502 
L 189.314248 49.8168 
L 190.216257 49.757098 
L 190.216257 49.697397 
L 191.762559 49.637695 
L 191.762559 49.577993 
L 192.406851 49.518291 
L 192.406851 49.458589 
L 195.241737 49.398887 
L 195.241737 49.339186 
L 197.303472 49.279484 
L 197.303472 49.219782 
L 200.009499 49.16008 
L 200.009499 49.100378 
L 203.102101 49.040677 
L 203.102101 48.980975 
L 203.23096 48.980975 
L 203.23096 48.861571 
L 211.606759 48.801869 
L 211.606759 48.742167 
L 212.895343 48.682466 
L 212.895343 48.622764 
L 217.920822 48.563062 
L 217.920822 48.50336 
L 221.786575 48.443658 
L 221.786575 48.383957 
L 227.842922 48.324255 
L 227.842922 48.264553 
L 231.3221 48.204851 
L 231.3221 48.145149 
L 235.058995 48.085447 
L 235.058995 48.025746 
L 238.280456 47.966044 
L 238.280456 47.906342 
L 242.661643 47.84664 
L 242.661643 47.786938 
L 248.589131 47.727236 
L 248.589131 47.667535 
L 251.681734 47.607833 
L 251.681734 47.548131 
L 260.959541 47.488429 
L 260.959541 47.428727 
L 261.732692 47.369026 
L 261.732692 47.249622 
L 265.340728 47.18992 
L 265.340728 47.130218 
L 269.206481 47.070516 
L 269.206481 47.010815 
L 281.834609 46.951113 
L 281.834609 46.891411 
L 297.297621 46.831709 
L 297.297621 46.772007 
L 304.127119 46.712306 
L 304.127119 46.652604 
L 315.208945 46.592902 
L 315.208945 46.5332 
L 317.914972 46.473498 
L 317.914972 46.354095 
L 320.749858 46.294393 
L 320.749858 46.234691 
L 329.383373 46.174989 
L 329.383373 46.115287 
L 334.924286 46.055586 
L 334.924286 45.936182 
L 338.403464 45.87648 
L 338.403464 45.816778 
L 340.722916 45.757076 
L 340.722916 45.697375 
L 343.300085 45.637673 
L 343.300085 45.577971 
L 347.036979 45.518269 
L 347.036979 45.458567 
L 348.454422 45.398865 
L 348.454422 45.339164 
L 350.000724 45.279462 
L 350.000724 45.21976 
L 352.062459 45.160058 
L 352.062459 45.100356 
L 354.253052 45.040655 
L 354.253052 44.980953 
L 357.474513 44.921251 
L 357.474513 44.861549 
L 361.469125 44.801847 
L 361.469125 44.742145 
L 364.561727 44.682444 
L 364.561727 44.622742 
L 364.690586 44.622742 
L 364.690586 44.503338 
L 373.581818 44.443636 
L 373.581818 44.443636 
" style="fill:none;stroke:#008000;stroke-linecap:square;stroke-width:1.5;"/>
    <defs>
     <path d="M -0 2.828427 
L 1.697056 0 
L 0 -2.828427 
L -1.697056 -0 
z
" id="me4152742cb" style="stroke:#008000;stroke-linejoin:miter;"/>
    </defs>
    <g clip-path="url(#p519e964915)">
     <use style="fill:#008000;stroke:#008000;stroke-linejoin:miter;" x="69.218182" xlink:href="#me4152742cb" y="242.116364"/>
     <use style="fill:#008000;stroke:#008000;stroke-linejoin:miter;" x="75.918821" xlink:href="#me4152742cb" y="137.518774"/>
     <use style="fill:#008000;stroke:#008000;stroke-linejoin:miter;" x="83.779186" xlink:href="#me4152742cb" y="107.787268"/>
     <use style="fill:#008000;stroke:#008000;stroke-linejoin:miter;" x="91.252975" xlink:href="#me4152742cb" y="94.652867"/>
     <use style="fill:#008000;stroke:#008000;stroke-linejoin:miter;" x="99.886491" xlink:href="#me4152742cb" y="85.100576"/>
     <use style="fill:#008000;stroke:#008000;stroke-linejoin:miter;" x="108.520006" xlink:href="#me4152742cb" y="73.279616"/>
     <use style="fill:#008000;stroke:#008000;stroke-linejoin:miter;" x="118.313248" xlink:href="#me4152742cb" y="64.384044"/>
     <use style="fill:#008000;stroke:#008000;stroke-linejoin:miter;" x="128.87964" xlink:href="#me4152742cb" y="57.458633"/>
     <use style="fill:#008000;stroke:#008000;stroke-linejoin:miter;" x="148.852698" xlink:href="#me4152742cb" y="53.398909"/>
     <use style="fill:#008000;stroke:#008000;stroke-linejoin:miter;" x="189.314248" xlink:href="#me4152742cb" y="49.876502"/>
     <use style="fill:#008000;stroke:#008000;stroke-linejoin:miter;" x="302.838534" xlink:href="#me4152742cb" y="46.772007"/>
    </g>
   </g>
   <g id="line2d_26">
    <path clip-path="url(#p519e964915)" d="M 69.218182 242.116364 
L 69.218182 232.026756 
L 69.34704 232.026756 
L 69.34704 229.578981 
L 69.475899 229.578981 
L 69.475899 229.340174 
L 69.604757 229.340174 
L 69.604757 229.101367 
L 69.733616 229.101367 
L 69.733616 226.653592 
L 69.862474 226.653592 
L 69.862474 226.474487 
L 69.991332 226.474487 
L 69.991332 225.220748 
L 70.120191 225.220748 
L 70.120191 224.981941 
L 70.249049 224.981941 
L 70.249049 223.071483 
L 70.377908 223.071483 
L 70.377908 222.952079 
L 70.506766 222.952079 
L 70.506766 219.429672 
L 70.635625 219.429672 
L 70.635625 219.250566 
L 70.764483 219.250566 
L 70.764483 218.653548 
L 70.893342 218.653548 
L 70.893342 217.39981 
L 71.0222 217.39981 
L 71.0222 217.161003 
L 71.151058 217.161003 
L 71.151058 216.862494 
L 71.279917 216.862494 
L 71.279917 215.728159 
L 71.537634 215.728159 
L 71.537634 215.549054 
L 71.666492 215.549054 
L 71.666492 214.832632 
L 71.795351 214.832632 
L 71.795351 214.355017 
L 71.924209 214.355017 
L 71.924209 213.578893 
L 72.053068 213.578893 
L 72.053068 212.981875 
L 72.181926 212.981875 
L 72.181926 212.026646 
L 72.310784 212.026646 
L 72.310784 209.698275 
L 72.439643 209.698275 
L 72.439643 209.399766 
L 72.568501 209.399766 
L 72.568501 209.101257 
L 72.69736 209.101257 
L 72.69736 208.981853 
L 72.826218 208.981853 
L 72.826218 208.325133 
L 72.955077 208.325133 
L 72.955077 207.966922 
L 73.083935 207.966922 
L 73.083935 207.847519 
L 73.212793 207.847519 
L 73.212793 206.534079 
L 73.341652 206.534079 
L 73.341652 203.728093 
L 73.47051 203.728093 
L 73.47051 203.548988 
L 73.599369 203.548988 
L 73.599369 202.235548 
L 73.857086 202.235548 
L 73.857086 201.817635 
L 73.985944 201.817635 
L 73.985944 200.743002 
L 74.114803 200.743002 
L 74.114803 200.086282 
L 74.243661 200.086282 
L 74.243661 199.190755 
L 74.501378 199.131053 
L 74.501378 198.354929 
L 74.630236 198.354929 
L 74.630236 197.638507 
L 74.759095 197.638507 
L 74.759095 196.504173 
L 74.887953 196.504173 
L 74.887953 192.981765 
L 75.016812 192.981765 
L 75.016812 192.80266 
L 75.14567 192.80266 
L 75.14567 192.623555 
L 75.274529 192.623555 
L 75.274529 192.086238 
L 75.403387 192.086238 
L 75.403387 191.250413 
L 75.532245 191.250413 
L 75.532245 191.011605 
L 75.661104 191.011605 
L 75.661104 190.772798 
L 75.789962 190.772798 
L 75.789962 189.280253 
L 75.918821 189.280253 
L 75.918821 186.474267 
L 76.176538 186.474267 
L 76.176538 184.802616 
L 76.305396 184.802616 
L 76.305396 183.966791 
L 76.434254 183.966791 
L 76.434254 183.429474 
L 76.563113 183.429474 
L 76.563113 182.772754 
L 76.691971 182.772754 
L 76.691971 182.056332 
L 76.949688 181.996631 
L 76.949688 180.921998 
L 77.078547 180.921998 
L 77.078547 179.966769 
L 77.207405 179.966769 
L 77.207405 179.727961 
L 77.336264 179.727961 
L 77.336264 179.489154 
L 77.465122 179.489154 
L 77.465122 179.190645 
L 77.59398 179.190645 
L 77.59398 177.996609 
L 77.722839 177.996609 
L 77.722839 177.39959 
L 77.851697 177.39959 
L 77.851697 177.160783 
L 77.980556 177.160783 
L 77.980556 176.384659 
L 78.109414 176.384659 
L 78.109414 176.026448 
L 78.238273 176.026448 
L 78.238273 175.727939 
L 78.367131 175.727939 
L 78.367131 174.354798 
L 78.49599 174.354798 
L 78.49599 172.504041 
L 78.624848 172.504041 
L 78.624848 172.384637 
L 78.753706 172.384637 
L 78.753706 171.250303 
L 78.882565 171.250303 
L 78.882565 170.951794 
L 79.011423 170.951794 
L 79.011423 170.295074 
L 79.26914 170.235372 
L 79.26914 169.280143 
L 79.397999 169.280143 
L 79.397999 167.54879 
L 79.526857 167.54879 
L 79.526857 166.533859 
L 79.655715 166.533859 
L 79.655715 165.996543 
L 79.784574 165.996543 
L 79.784574 164.862208 
L 79.913432 164.862208 
L 79.913432 163.250259 
L 80.171149 163.250259 
L 80.171149 162.95175 
L 80.300008 162.95175 
L 80.300008 161.339801 
L 80.428866 161.339801 
L 80.428866 158.593517 
L 80.557725 158.593517 
L 80.557725 158.056201 
L 80.686583 158.056201 
L 80.686583 157.160673 
L 80.815441 157.160673 
L 80.815441 155.250215 
L 80.9443 155.250215 
L 80.9443 154.474091 
L 81.073158 154.474091 
L 81.073158 154.294986 
L 81.202017 154.294986 
L 81.202017 153.757669 
L 81.330875 153.757669 
L 81.330875 153.518862 
L 81.459734 153.518862 
L 81.459734 153.100949 
L 81.588592 153.100949 
L 81.588592 152.742739 
L 81.717451 152.742739 
L 81.717451 152.026317 
L 81.846309 152.026317 
L 81.846309 151.727808 
L 81.975167 151.727808 
L 81.975167 150.951684 
L 82.104026 150.951684 
L 82.104026 150.17556 
L 82.232884 150.17556 
L 82.232884 148.444207 
L 82.361743 148.444207 
L 82.361743 147.787487 
L 82.61946 147.787487 
L 82.61946 146.772556 
L 82.877177 146.772556 
L 82.877177 145.459116 
L 83.006035 145.459116 
L 83.006035 145.100906 
L 83.134893 145.100906 
L 83.134893 142.354622 
L 83.263752 142.354622 
L 83.263752 141.339691 
L 83.521469 141.339691 
L 83.521469 140.563567 
L 83.779186 140.503865 
L 83.779186 139.787444 
L 84.036902 139.727742 
L 84.036902 138.712811 
L 84.294619 138.712811 
L 84.294619 135.011298 
L 84.423478 135.011298 
L 84.423478 134.593385 
L 84.552336 134.593385 
L 84.552336 133.399349 
L 84.681195 133.399349 
L 84.681195 133.160541 
L 84.810053 133.160541 
L 84.810053 132.623225 
L 85.06777 132.623225 
L 85.06777 132.384418 
L 85.325487 132.384418 
L 85.325487 131.906803 
L 85.454345 131.906803 
L 85.454345 131.727698 
L 85.583204 131.727698 
L 85.583204 131.250083 
L 85.840921 131.190381 
L 85.840921 131.011276 
L 85.969779 131.011276 
L 85.969779 129.936643 
L 86.098638 129.936643 
L 86.098638 129.100818 
L 86.227496 129.100818 
L 86.227496 128.384396 
L 86.614071 128.384396 
L 86.614071 126.414236 
L 86.74293 126.414236 
L 86.74293 125.936621 
L 87.000647 125.936621 
L 87.000647 124.623181 
L 87.129505 124.623181 
L 87.129505 123.309741 
L 87.387222 123.309741 
L 87.387222 121.458985 
L 87.644939 121.399283 
L 87.644939 121.339581 
L 87.773797 121.339581 
L 87.773797 120.921668 
L 87.902656 120.921668 
L 87.902656 119.787334 
L 88.031514 119.787334 
L 88.031514 119.488825 
L 88.160373 119.488825 
L 88.160373 119.369421 
L 88.289231 119.369421 
L 88.289231 118.533595 
L 88.546948 118.533595 
L 88.546948 117.638068 
L 88.675806 117.638068 
L 88.675806 117.04105 
L 88.804665 117.04105 
L 88.804665 116.324628 
L 88.933523 116.324628 
L 88.933523 115.429101 
L 89.062382 115.429101 
L 89.062382 115.07089 
L 89.19124 115.07089 
L 89.19124 114.772381 
L 89.320099 114.772381 
L 89.320099 114.115661 
L 89.577815 114.115661 
L 89.577815 113.996257 
L 89.706674 113.996257 
L 89.706674 113.697748 
L 89.964391 113.697748 
L 89.964391 112.742519 
L 90.093249 112.742519 
L 90.093249 112.145501 
L 90.350966 112.145501 
L 90.350966 110.772359 
L 90.479824 110.772359 
L 90.479824 110.593253 
L 90.737541 110.533552 
L 90.737541 108.682795 
L 90.8664 108.682795 
L 90.8664 108.264882 
L 90.995258 108.264882 
L 90.995258 106.712635 
L 91.124117 106.712635 
L 91.124117 104.742475 
L 91.252975 104.742475 
L 91.252975 104.563369 
L 91.381834 104.563369 
L 91.381834 103.190228 
L 91.510692 103.190228 
L 91.510692 102.891719 
L 91.63955 102.891719 
L 91.63955 102.652911 
L 91.768409 102.652911 
L 91.768409 100.861857 
L 91.897267 100.861857 
L 91.897267 99.130504 
L 92.026126 99.130504 
L 92.026126 99.0111 
L 92.154984 99.0111 
L 92.154984 97.817064 
L 92.283843 97.817064 
L 92.283843 97.220046 
L 92.412701 97.220046 
L 92.412701 96.264816 
L 92.670418 96.205115 
L 92.670418 95.7275 
L 92.799276 95.7275 
L 92.799276 95.608096 
L 92.928135 95.608096 
L 92.928135 94.41406 
L 93.056993 94.41406 
L 93.056993 93.279725 
L 93.185852 93.279725 
L 93.185852 92.921515 
L 93.31471 92.921515 
L 93.31471 90.951354 
L 93.443569 90.951354 
L 93.443569 89.936423 
L 93.572427 89.936423 
L 93.572427 89.81702 
L 93.701286 89.81702 
L 93.701286 89.578213 
L 93.830144 89.578213 
L 93.830144 89.1603 
L 94.216719 89.100598 
L 94.216719 88.264773 
L 94.345578 88.264773 
L 94.345578 87.667754 
L 94.603295 87.667754 
L 94.603295 87.428947 
L 94.732153 87.428947 
L 94.732153 86.354314 
L 94.861011 86.354314 
L 94.861011 85.996103 
L 94.98987 85.996103 
L 94.98987 85.757296 
L 95.118728 85.757296 
L 95.118728 84.861769 
L 95.376445 84.802067 
L 95.376445 84.742365 
L 95.505304 84.742365 
L 95.505304 84.145347 
L 95.634162 84.145347 
L 95.634162 83.90654 
L 95.763021 83.90654 
L 95.763021 83.011012 
L 95.891879 83.011012 
L 95.891879 82.772205 
L 96.020737 82.772205 
L 96.020737 82.354292 
L 96.149596 82.354292 
L 96.149596 81.518467 
L 96.278454 81.518467 
L 96.278454 81.040852 
L 96.407313 81.040852 
L 96.407313 80.861747 
L 96.536171 80.861747 
L 96.536171 80.264729 
L 96.66503 80.264729 
L 96.66503 79.906518 
L 96.793888 79.906518 
L 96.793888 79.488605 
L 97.180463 79.428903 
L 97.180463 78.772183 
L 97.309322 78.772183 
L 97.309322 78.652779 
L 97.824756 78.593078 
L 97.824756 78.533376 
L 98.082472 78.533376 
L 98.082472 78.294569 
L 98.340189 78.234867 
L 98.340189 78.175165 
L 98.597906 78.175165 
L 98.597906 77.816954 
L 98.726765 77.816954 
L 98.726765 77.578147 
L 98.855623 77.578147 
L 98.855623 77.160234 
L 98.984482 77.160234 
L 98.984482 76.921427 
L 99.242198 76.921427 
L 99.242198 76.085601 
L 99.371057 76.085601 
L 99.371057 75.787092 
L 99.628774 75.72739 
L 99.628774 75.667688 
L 99.886491 75.667688 
L 99.886491 75.548285 
L 100.015349 75.548285 
L 100.015349 75.309477 
L 100.273066 75.249776 
L 100.273066 74.951267 
L 100.401924 74.951267 
L 100.401924 74.831863 
L 100.530783 74.831863 
L 100.530783 74.712459 
L 100.7885 74.652757 
L 100.7885 74.593056 
L 101.303933 74.533354 
L 101.303933 74.234845 
L 101.56165 74.175143 
L 101.56165 74.055739 
L 101.690509 74.055739 
L 101.690509 73.876634 
L 101.819367 73.876634 
L 101.819367 73.697528 
L 101.948226 73.697528 
L 101.948226 73.160212 
L 102.334801 73.10051 
L 102.334801 73.040808 
L 102.463659 73.040808 
L 102.463659 72.921405 
L 102.592518 72.921405 
L 102.592518 72.682597 
L 102.721376 72.682597 
L 102.721376 72.384088 
L 103.107952 72.324386 
L 103.107952 72.204983 
L 103.23681 72.204983 
L 103.23681 71.846772 
L 103.494527 71.78707 
L 103.494527 71.488561 
L 103.623385 71.488561 
L 103.623385 71.369157 
L 103.881102 71.309456 
L 103.881102 71.190052 
L 104.009961 71.190052 
L 104.009961 70.772139 
L 104.138819 70.772139 
L 104.138819 70.354226 
L 104.525395 70.294525 
L 104.525395 69.578103 
L 104.654253 69.578103 
L 104.654253 68.861681 
L 105.427404 68.801979 
L 105.427404 68.682575 
L 105.68512 68.622874 
L 105.68512 68.563172 
L 105.813979 68.563172 
L 105.813979 68.324365 
L 105.942837 68.324365 
L 105.942837 68.204961 
L 106.200554 68.145259 
L 106.200554 68.025855 
L 106.458271 67.966154 
L 106.458271 67.787048 
L 106.844846 67.727346 
L 106.844846 67.667644 
L 106.973705 67.667644 
L 106.973705 67.428837 
L 107.231422 67.369135 
L 107.231422 67.249732 
L 107.489139 67.249732 
L 107.489139 67.130328 
L 108.004572 67.070626 
L 108.004572 67.010924 
L 108.262289 66.951223 
L 108.262289 66.831819 
L 108.391148 66.831819 
L 108.391148 66.652714 
L 108.777723 66.652714 
L 108.777723 66.413906 
L 109.03544 66.354204 
L 109.03544 66.234801 
L 109.293157 66.234801 
L 109.293157 66.055695 
L 109.422015 66.055695 
L 109.422015 65.936292 
L 109.808591 65.87659 
L 109.808591 65.697484 
L 110.066307 65.637783 
L 110.066307 65.518379 
L 110.195166 65.518379 
L 110.195166 65.398975 
L 110.452883 65.398975 
L 110.452883 65.160168 
L 110.968317 65.160168 
L 110.968317 65.040764 
L 111.48375 64.981063 
L 111.48375 64.861659 
L 111.612609 64.861659 
L 111.612609 64.443746 
L 111.870326 64.443746 
L 111.870326 64.324343 
L 112.128042 64.264641 
L 112.128042 63.846728 
L 112.643476 63.787026 
L 112.643476 63.667623 
L 112.901193 63.607921 
L 112.901193 63.548219 
L 113.287768 63.488517 
L 113.287768 63.428815 
L 113.674344 63.369113 
L 113.674344 63.130306 
L 114.189778 63.070604 
L 114.189778 62.652692 
L 114.318636 62.652692 
L 114.318636 62.473586 
L 114.962928 62.473586 
L 114.962928 62.175077 
L 115.091787 62.175077 
L 115.091787 62.055673 
L 115.60722 61.995972 
L 115.60722 61.93627 
L 115.736079 61.93627 
L 115.736079 61.816866 
L 115.993796 61.757164 
L 115.993796 61.578059 
L 116.122654 61.578059 
L 116.122654 61.398953 
L 116.638088 61.339252 
L 116.638088 60.981041 
L 117.28238 60.921339 
L 117.28238 60.861637 
L 117.411239 60.861637 
L 117.411239 60.742233 
L 118.184389 60.682532 
L 118.184389 60.563128 
L 118.828681 60.503426 
L 118.828681 60.384022 
L 119.472974 60.324321 
L 119.472974 60.204917 
L 119.73069 60.145215 
L 119.73069 59.787004 
L 119.988407 59.787004 
L 119.988407 59.607899 
L 120.503841 59.548197 
L 120.503841 59.428793 
L 120.6327 59.428793 
L 120.6327 59.30939 
L 120.890416 59.30939 
L 120.890416 59.189986 
L 121.534709 59.130284 
L 121.534709 58.951179 
L 121.663567 58.951179 
L 121.663567 58.831775 
L 121.921284 58.772073 
L 121.921284 58.592968 
L 122.436718 58.533266 
L 122.436718 58.473564 
L 123.209868 58.413862 
L 123.209868 58.294459 
L 123.467585 58.294459 
L 123.467585 57.936248 
L 123.983019 57.936248 
L 123.983019 57.816844 
L 124.240736 57.757142 
L 124.240736 57.69744 
L 124.369594 57.69744 
L 124.369594 57.458633 
L 124.498453 57.458633 
L 124.498453 57.33923 
L 124.75617 57.279528 
L 124.75617 57.219826 
L 125.400462 57.219826 
L 125.400462 57.100422 
L 125.52932 57.100422 
L 125.52932 56.861615 
L 126.173613 56.801913 
L 126.173613 56.563106 
L 126.689046 56.503404 
L 126.689046 56.384 
L 127.462197 56.324299 
L 127.462197 56.204895 
L 127.848772 56.145193 
L 127.848772 56.085491 
L 128.493064 56.02579 
L 128.493064 55.966088 
L 128.750781 55.906386 
L 128.750781 55.667579 
L 129.395074 55.607877 
L 129.395074 55.488473 
L 130.168224 55.428771 
L 130.168224 55.369069 
L 130.425941 55.369069 
L 130.425941 55.189964 
L 130.941375 55.130262 
L 130.941375 55.07056 
L 131.32795 55.010859 
L 131.32795 54.951157 
L 131.714525 54.951157 
L 131.714525 54.831753 
L 132.487676 54.772051 
L 132.487676 54.712349 
L 132.745393 54.712349 
L 132.745393 54.473542 
L 132.874251 54.473542 
L 132.874251 54.354139 
L 133.77626 54.294437 
L 133.77626 54.175033 
L 133.905119 54.175033 
L 133.905119 53.995928 
L 134.420553 53.936226 
L 134.420553 53.75712 
L 134.935986 53.75712 
L 134.935986 53.637717 
L 135.322562 53.578015 
L 135.322562 53.458611 
L 135.45142 53.458611 
L 135.45142 53.339208 
L 136.095712 53.279506 
L 136.095712 53.219804 
L 136.224571 53.219804 
L 136.224571 53.1004 
L 136.482288 53.040698 
L 136.482288 52.742189 
L 136.868863 52.682488 
L 136.868863 52.622786 
L 137.642014 52.563084 
L 137.642014 52.503382 
L 138.80174 52.44368 
L 138.80174 52.383978 
L 139.059457 52.383978 
L 139.059457 52.145171 
L 139.188315 52.145171 
L 139.188315 52.025768 
L 139.832607 51.966066 
L 139.832607 51.846662 
L 140.219183 51.78696 
L 140.219183 51.727258 
L 140.734616 51.667557 
L 140.734616 51.607855 
L 142.023201 51.607855 
L 142.023201 51.488451 
L 142.92521 51.428749 
L 142.92521 51.369048 
L 143.69836 51.369048 
L 143.69836 51.249644 
L 144.729228 51.189942 
L 144.729228 50.951135 
L 145.888954 50.951135 
L 145.888954 50.831731 
L 146.533246 50.772029 
L 146.533246 50.652626 
L 147.306397 50.592924 
L 147.306397 50.533222 
L 148.079547 50.47352 
L 148.079547 50.413818 
L 149.754707 50.354117 
L 149.754707 50.294415 
L 150.656716 50.234713 
L 150.656716 50.115309 
L 151.301008 50.115309 
L 151.301008 49.995906 
L 153.233885 49.936204 
L 153.233885 49.876502 
L 154.135894 49.8168 
L 154.135894 49.757098 
L 154.522469 49.757098 
L 154.522469 49.637695 
L 155.037903 49.577993 
L 155.037903 49.518291 
L 155.682195 49.458589 
L 155.682195 49.398887 
L 155.939912 49.339186 
L 155.939912 49.279484 
L 156.326488 49.279484 
L 156.326488 49.16008 
L 156.455346 49.16008 
L 156.455346 48.980975 
L 156.97078 48.921273 
L 156.97078 48.861571 
L 159.547949 48.801869 
L 159.547949 48.742167 
L 160.449958 48.682466 
L 160.449958 48.622764 
L 160.965391 48.622764 
L 160.965391 48.50336 
L 162.382834 48.50336 
L 162.382834 48.383957 
L 164.315711 48.324255 
L 164.315711 48.264553 
L 165.346578 48.264553 
L 165.346578 48.085447 
L 165.862012 48.025746 
L 165.862012 47.906342 
L 166.377446 47.84664 
L 166.377446 47.786938 
L 167.537172 47.727236 
L 167.537172 47.667535 
L 168.439181 47.667535 
L 168.439181 47.548131 
L 169.727765 47.488429 
L 169.727765 47.18992 
L 170.629774 47.130218 
L 170.629774 47.070516 
L 171.660642 47.010815 
L 171.660642 46.951113 
L 173.078085 46.891411 
L 173.078085 46.831709 
L 177.201555 46.772007 
L 177.201555 46.712306 
L 179.26329 46.652604 
L 179.26329 46.592902 
L 180.680733 46.5332 
L 180.680733 46.473498 
L 181.196167 46.413796 
L 181.196167 46.354095 
L 182.871326 46.294393 
L 182.871326 46.234691 
L 184.933061 46.234691 
L 184.933061 46.115287 
L 185.190778 46.115287 
L 185.190778 45.995884 
L 185.83507 45.936182 
L 185.83507 45.87648 
L 187.381372 45.816778 
L 187.381372 45.757076 
L 188.283381 45.757076 
L 188.283381 45.458567 
L 189.314248 45.398865 
L 189.314248 45.339164 
L 192.535709 45.279462 
L 192.535709 45.21976 
L 194.726303 45.160058 
L 194.726303 45.100356 
L 197.561189 45.040655 
L 197.561189 44.980953 
L 204.90612 44.921251 
L 204.90612 44.861549 
L 218.049681 44.801847 
L 218.049681 44.742145 
L 230.935525 44.682444 
L 230.935525 44.622742 
L 243.821369 44.56304 
L 243.821369 44.503338 
L 373.581818 44.443636 
L 373.581818 44.443636 
" style="fill:none;stroke:#ff0000;stroke-linecap:square;stroke-width:1.5;"/>
    <defs>
     <path d="M 0 -2 
L -0.449028 -0.618034 
L -1.902113 -0.618034 
L -0.726543 0.236068 
L -1.175571 1.618034 
L -0 0.763932 
L 1.175571 1.618034 
L 0.726543 0.236068 
L 1.902113 -0.618034 
L 0.449028 -0.618034 
z
" id="mdbfefd60ac" style="stroke:#ff0000;stroke-linejoin:bevel;"/>
    </defs>
    <g clip-path="url(#p519e964915)">
     <use style="fill:#ff0000;stroke:#ff0000;stroke-linejoin:bevel;" x="69.218182" xlink:href="#mdbfefd60ac" y="242.116364"/>
     <use style="fill:#ff0000;stroke:#ff0000;stroke-linejoin:bevel;" x="75.918821" xlink:href="#mdbfefd60ac" y="189.280253"/>
     <use style="fill:#ff0000;stroke:#ff0000;stroke-linejoin:bevel;" x="82.877177" xlink:href="#mdbfefd60ac" y="146.772556"/>
     <use style="fill:#ff0000;stroke:#ff0000;stroke-linejoin:bevel;" x="90.8664" xlink:href="#mdbfefd60ac" y="108.682795"/>
     <use style="fill:#ff0000;stroke:#ff0000;stroke-linejoin:bevel;" x="98.082472" xlink:href="#mdbfefd60ac" y="78.533376"/>
     <use style="fill:#ff0000;stroke:#ff0000;stroke-linejoin:bevel;" x="106.071696" xlink:href="#mdbfefd60ac" y="68.204961"/>
     <use style="fill:#ff0000;stroke:#ff0000;stroke-linejoin:bevel;" x="115.993796" xlink:href="#mdbfefd60ac" y="61.757164"/>
     <use style="fill:#ff0000;stroke:#ff0000;stroke-linejoin:bevel;" x="128.750781" xlink:href="#mdbfefd60ac" y="55.906386"/>
     <use style="fill:#ff0000;stroke:#ff0000;stroke-linejoin:bevel;" x="146.017812" xlink:href="#mdbfefd60ac" y="50.831731"/>
     <use style="fill:#ff0000;stroke:#ff0000;stroke-linejoin:bevel;" x="176.428404" xlink:href="#mdbfefd60ac" y="46.831709"/>
    </g>
   </g>
   <g id="line2d_27">
    <path clip-path="url(#p519e964915)" d="M 69.218182 242.116364 
L 69.218182 89.876722 
L 69.34704 89.876722 
L 69.34704 83.309521 
L 69.475899 83.309521 
L 69.475899 81.697572 
L 69.604757 81.697572 
L 69.604757 79.66771 
L 69.733616 79.66771 
L 69.733616 77.757252 
L 69.862474 77.757252 
L 69.862474 77.578147 
L 69.991332 77.578147 
L 69.991332 76.503514 
L 70.120191 76.503514 
L 70.120191 75.249776 
L 70.249049 75.249776 
L 70.249049 74.652757 
L 70.377908 74.652757 
L 70.377908 73.876634 
L 70.506766 73.876634 
L 70.506766 72.742299 
L 70.635625 72.742299 
L 70.635625 72.622896 
L 70.764483 72.622896 
L 70.764483 72.324386 
L 70.893342 72.324386 
L 70.893342 72.145281 
L 71.0222 72.145281 
L 71.0222 71.369157 
L 71.151058 71.369157 
L 71.151058 71.010946 
L 71.279917 71.010946 
L 71.279917 70.891543 
L 71.408775 70.891543 
L 71.408775 70.533332 
L 71.537634 70.533332 
L 71.537634 70.115419 
L 71.666492 70.115419 
L 71.666492 69.81691 
L 71.924209 69.81691 
L 71.924209 69.697506 
L 72.053068 69.697506 
L 72.053068 69.458699 
L 72.310784 69.398997 
L 72.310784 69.279594 
L 72.439643 69.279594 
L 72.439643 67.428837 
L 72.568501 67.428837 
L 72.568501 67.19003 
L 72.826218 67.130328 
L 72.826218 66.831819 
L 73.083935 66.831819 
L 73.083935 66.413906 
L 73.341652 66.413906 
L 73.341652 66.234801 
L 73.47051 66.234801 
L 73.47051 65.936292 
L 73.728227 65.87659 
L 73.728227 65.637783 
L 73.985944 65.578081 
L 73.985944 65.518379 
L 74.243661 65.458677 
L 74.243661 65.100466 
L 74.372519 65.100466 
L 74.372519 64.56315 
L 74.630236 64.503448 
L 74.630236 64.324343 
L 74.887953 64.324343 
L 74.887953 63.488517 
L 75.14567 63.488517 
L 75.14567 63.24971 
L 75.532245 63.190008 
L 75.532245 62.652692 
L 75.661104 62.652692 
L 75.661104 62.413884 
L 75.789962 62.413884 
L 75.789962 62.115375 
L 75.918821 62.115375 
L 75.918821 61.816866 
L 76.047679 61.816866 
L 76.047679 61.398953 
L 76.691971 61.339252 
L 76.691971 61.040742 
L 76.82083 61.040742 
L 76.82083 60.742233 
L 76.949688 60.742233 
L 76.949688 60.503426 
L 77.207405 60.503426 
L 77.207405 59.906408 
L 77.336264 59.906408 
L 77.336264 59.727302 
L 77.59398 59.667601 
L 77.59398 59.369091 
L 77.851697 59.30939 
L 77.851697 59.249688 
L 77.980556 59.249688 
L 77.980556 59.130284 
L 78.109414 59.130284 
L 78.109414 58.891477 
L 78.238273 58.891477 
L 78.238273 58.473564 
L 78.367131 58.473564 
L 78.367131 58.234757 
L 78.624848 58.234757 
L 78.624848 57.876546 
L 79.011423 57.816844 
L 79.011423 57.69744 
L 79.655715 57.637739 
L 79.655715 57.33923 
L 79.784574 57.33923 
L 79.784574 57.219826 
L 80.428866 57.160124 
L 80.428866 56.563106 
L 80.686583 56.563106 
L 80.686583 56.443702 
L 80.815441 56.443702 
L 80.815441 56.324299 
L 80.9443 56.324299 
L 80.9443 56.204895 
L 81.202017 56.145193 
L 81.202017 56.02579 
L 81.330875 56.02579 
L 81.330875 55.846684 
L 81.588592 55.786982 
L 81.588592 55.72728 
L 81.975167 55.667579 
L 81.975167 55.488473 
L 82.104026 55.488473 
L 82.104026 55.369069 
L 82.61946 55.309368 
L 82.61946 55.249666 
L 83.006035 55.189964 
L 83.006035 55.07056 
L 83.39261 55.010859 
L 83.39261 54.951157 
L 83.779186 54.891455 
L 83.779186 54.772051 
L 84.423478 54.772051 
L 84.423478 54.652648 
L 85.06777 54.592946 
L 85.06777 54.533244 
L 85.712062 54.473542 
L 85.712062 54.41384 
L 85.969779 54.41384 
L 85.969779 54.294437 
L 86.485213 54.234735 
L 86.485213 54.175033 
L 86.614071 54.175033 
L 86.614071 54.055629 
L 86.74293 54.055629 
L 86.74293 53.936226 
L 87.000647 53.936226 
L 87.000647 53.816822 
L 87.644939 53.75712 
L 87.644939 53.697419 
L 88.289231 53.637717 
L 88.289231 53.398909 
L 88.418089 53.398909 
L 88.418089 53.279506 
L 88.546948 53.279506 
L 88.546948 53.160102 
L 88.933523 53.160102 
L 88.933523 53.040698 
L 89.448957 52.980997 
L 89.448957 52.861593 
L 90.222108 52.801891 
L 90.222108 52.622786 
L 90.350966 52.622786 
L 90.350966 52.44368 
L 90.737541 52.44368 
L 90.737541 52.264575 
L 90.995258 52.264575 
L 90.995258 52.145171 
L 92.283843 52.085469 
L 92.283843 51.966066 
L 92.54156 51.906364 
L 92.54156 51.846662 
L 92.799276 51.78696 
L 92.799276 51.607855 
L 92.928135 51.607855 
L 92.928135 51.428749 
L 93.185852 51.428749 
L 93.185852 51.189942 
L 93.443569 51.13024 
L 93.443569 51.070538 
L 93.572427 51.070538 
L 93.572427 50.951135 
L 93.959002 50.951135 
L 93.959002 50.533222 
L 94.216719 50.47352 
L 94.216719 50.354117 
L 95.247587 50.294415 
L 95.247587 50.175011 
L 96.020737 50.115309 
L 96.020737 49.995906 
L 96.407313 49.936204 
L 96.407313 49.876502 
L 96.922747 49.8168 
L 96.922747 49.757098 
L 97.180463 49.697397 
L 97.180463 49.518291 
L 97.309322 49.518291 
L 97.309322 49.279484 
L 97.953614 49.219782 
L 97.953614 49.040677 
L 98.726765 48.980975 
L 98.726765 48.921273 
L 99.628774 48.861571 
L 99.628774 48.682466 
L 99.886491 48.682466 
L 99.886491 48.563062 
L 100.273066 48.563062 
L 100.273066 48.383957 
L 100.917358 48.324255 
L 100.917358 48.264553 
L 101.432792 48.264553 
L 101.432792 48.085447 
L 101.948226 48.085447 
L 101.948226 47.906342 
L 102.334801 47.84664 
L 102.334801 47.727236 
L 102.463659 47.727236 
L 102.463659 47.607833 
L 102.592518 47.607833 
L 102.592518 47.488429 
L 102.979093 47.428727 
L 102.979093 47.249622 
L 103.365669 47.18992 
L 103.365669 47.130218 
L 104.396536 47.070516 
L 104.396536 47.010815 
L 105.040828 46.951113 
L 105.040828 46.891411 
L 105.813979 46.831709 
L 105.813979 46.772007 
L 106.200554 46.712306 
L 106.200554 46.652604 
L 106.844846 46.592902 
L 106.844846 46.5332 
L 107.36028 46.473498 
L 107.36028 46.413796 
L 108.906581 46.354095 
L 108.906581 46.294393 
L 109.550874 46.234691 
L 109.550874 46.115287 
L 111.741467 46.055586 
L 111.741467 45.995884 
L 112.643476 45.936182 
L 112.643476 45.87648 
L 115.349504 45.816778 
L 115.349504 45.757076 
L 116.509229 45.697375 
L 116.509229 45.637673 
L 117.411239 45.637673 
L 117.411239 45.518269 
L 118.313248 45.458567 
L 118.313248 45.398865 
L 118.828681 45.339164 
L 118.828681 45.279462 
L 119.73069 45.279462 
L 119.73069 45.160058 
L 122.307859 45.100356 
L 122.307859 44.980953 
L 125.787037 44.921251 
L 125.787037 44.861549 
L 126.689046 44.801847 
L 126.689046 44.742145 
L 128.364206 44.682444 
L 128.364206 44.622742 
L 131.199092 44.56304 
L 131.199092 44.503338 
L 373.581818 44.443636 
L 373.581818 44.443636 
" style="fill:none;stroke:#bf00bf;stroke-linecap:square;stroke-width:1.5;"/>
    <defs>
     <path d="M 0 1 
C 0.265203 1 0.51958 0.894634 0.707107 0.707107 
C 0.894634 0.51958 1 0.265203 1 0 
C 1 -0.265203 0.894634 -0.51958 0.707107 -0.707107 
C 0.51958 -0.894634 0.265203 -1 0 -1 
C -0.265203 -1 -0.51958 -0.894634 -0.707107 -0.707107 
C -0.894634 -0.51958 -1 -0.265203 -1 0 
C -1 0.265203 -0.894634 0.51958 -0.707107 0.707107 
C -0.51958 0.894634 -0.265203 1 0 1 
z
" id="m63d84bdd56" style="stroke:#bf00bf;"/>
    </defs>
    <g clip-path="url(#p519e964915)">
     <use style="fill:#bf00bf;stroke:#bf00bf;" x="69.218182" xlink:href="#m63d84bdd56" y="242.116364"/>
     <use style="fill:#bf00bf;stroke:#bf00bf;" x="76.82083" xlink:href="#m63d84bdd56" y="61.040742"/>
     <use style="fill:#bf00bf;stroke:#bf00bf;" x="87.129505" xlink:href="#m63d84bdd56" y="53.816822"/>
     <use style="fill:#bf00bf;stroke:#bf00bf;" x="101.948226" xlink:href="#m63d84bdd56" y="48.085447"/>
     <use style="fill:#bf00bf;stroke:#bf00bf;" x="373.581818" xlink:href="#m63d84bdd56" y="44.443636"/>
    </g>
   </g>
   <g id="patch_3">
    <path d="M 54 252 
L 54 34.56 
" style="fill:none;stroke:#000000;stroke-linecap:square;stroke-linejoin:miter;stroke-width:0.8;"/>
   </g>
   <g id="patch_4">
    <path d="M 388.8 252 
L 388.8 34.56 
" style="fill:none;stroke:#000000;stroke-linecap:square;stroke-linejoin:miter;stroke-width:0.8;"/>
   </g>
   <g id="patch_5">
    <path d="M 54 252 
L 388.8 252 
" style="fill:none;stroke:#000000;stroke-linecap:square;stroke-linejoin:miter;stroke-width:0.8;"/>
   </g>
   <g id="patch_6">
    <path d="M 54 34.56 
L 388.8 34.56 
" style="fill:none;stroke:#000000;stroke-linecap:square;stroke-linejoin:miter;stroke-width:0.8;"/>
   </g>
   <g id="legend_1">
    <g id="patch_7">
     <path d="M 95.946875 247 
L 381.8 247 
Q 383.8 247 383.8 245 
L 383.8 201.965625 
Q 383.8 199.965625 381.8 199.965625 
L 95.946875 199.965625 
Q 93.946875 199.965625 93.946875 201.965625 
L 93.946875 245 
Q 93.946875 247 95.946875 247 
z
" style="fill:#ffffff;opacity:0.8;stroke:#cccccc;stroke-linejoin:miter;"/>
    </g>
    <g id="line2d_28">
     <path d="M 97.946875 208.064063 
L 117.946875 208.064063 
" style="fill:none;stroke:#008000;stroke-linecap:square;stroke-width:1.5;"/>
    </g>
    <g id="line2d_29">
     <g>
      <use style="fill:#008000;stroke:#008000;stroke-linejoin:miter;" x="107.946875" xlink:href="#me4152742cb" y="208.064063"/>
     </g>
    </g>
    <g id="text_15">
     <!-- Train: VC, Test: VC (LOPO x-val), AUC=0.9359 -->
     <defs>
      <path d="M -0.296875 72.90625 
L 61.375 72.90625 
L 61.375 64.59375 
L 35.5 64.59375 
L 35.5 0 
L 25.59375 0 
L 25.59375 64.59375 
L -0.296875 64.59375 
z
" id="DejaVuSans-54"/>
      <path d="M 41.109375 46.296875 
Q 39.59375 47.171875 37.8125 47.578125 
Q 36.03125 48 33.890625 48 
Q 26.265625 48 22.1875 43.046875 
Q 18.109375 38.09375 18.109375 28.8125 
L 18.109375 0 
L 9.078125 0 
L 9.078125 54.6875 
L 18.109375 54.6875 
L 18.109375 46.1875 
Q 20.953125 51.171875 25.484375 53.578125 
Q 30.03125 56 36.53125 56 
Q 37.453125 56 38.578125 55.875 
Q 39.703125 55.765625 41.0625 55.515625 
z
" id="DejaVuSans-72"/>
      <path d="M 34.28125 27.484375 
Q 23.390625 27.484375 19.1875 25 
Q 14.984375 22.515625 14.984375 16.5 
Q 14.984375 11.71875 18.140625 8.90625 
Q 21.296875 6.109375 26.703125 6.109375 
Q 34.1875 6.109375 38.703125 11.40625 
Q 43.21875 16.703125 43.21875 25.484375 
L 43.21875 27.484375 
z
M 52.203125 31.203125 
L 52.203125 0 
L 43.21875 0 
L 43.21875 8.296875 
Q 40.140625 3.328125 35.546875 0.953125 
Q 30.953125 -1.421875 24.3125 -1.421875 
Q 15.921875 -1.421875 10.953125 3.296875 
Q 6 8.015625 6 15.921875 
Q 6 25.140625 12.171875 29.828125 
Q 18.359375 34.515625 30.609375 34.515625 
L 43.21875 34.515625 
L 43.21875 35.40625 
Q 43.21875 41.609375 39.140625 45 
Q 35.0625 48.390625 27.6875 48.390625 
Q 23 48.390625 18.546875 47.265625 
Q 14.109375 46.140625 10.015625 43.890625 
L 10.015625 52.203125 
Q 14.9375 54.109375 19.578125 55.046875 
Q 24.21875 56 28.609375 56 
Q 40.484375 56 46.34375 49.84375 
Q 52.203125 43.703125 52.203125 31.203125 
z
" id="DejaVuSans-61"/>
      <path d="M 11.71875 12.40625 
L 22.015625 12.40625 
L 22.015625 0 
L 11.71875 0 
z
M 11.71875 51.703125 
L 22.015625 51.703125 
L 22.015625 39.3125 
L 11.71875 39.3125 
z
" id="DejaVuSans-3a"/>
      <path d="M 28.609375 0 
L 0.78125 72.90625 
L 11.078125 72.90625 
L 34.1875 11.53125 
L 57.328125 72.90625 
L 67.578125 72.90625 
L 39.796875 0 
z
" id="DejaVuSans-56"/>
      <path d="M 64.40625 67.28125 
L 64.40625 56.890625 
Q 59.421875 61.53125 53.78125 63.8125 
Q 48.140625 66.109375 41.796875 66.109375 
Q 29.296875 66.109375 22.65625 58.46875 
Q 16.015625 50.828125 16.015625 36.375 
Q 16.015625 21.96875 22.65625 14.328125 
Q 29.296875 6.6875 41.796875 6.6875 
Q 48.140625 6.6875 53.78125 8.984375 
Q 59.421875 11.28125 64.40625 15.921875 
L 64.40625 5.609375 
Q 59.234375 2.09375 53.4375 0.328125 
Q 47.65625 -1.421875 41.21875 -1.421875 
Q 24.65625 -1.421875 15.125 8.703125 
Q 5.609375 18.84375 5.609375 36.375 
Q 5.609375 53.953125 15.125 64.078125 
Q 24.65625 74.21875 41.21875 74.21875 
Q 47.75 74.21875 53.53125 72.484375 
Q 59.328125 70.75 64.40625 67.28125 
z
" id="DejaVuSans-43"/>
      <path d="M 11.71875 12.40625 
L 22.015625 12.40625 
L 22.015625 4 
L 14.015625 -11.625 
L 7.71875 -11.625 
L 11.71875 4 
z
" id="DejaVuSans-2c"/>
      <path d="M 31 75.875 
Q 24.46875 64.65625 21.28125 53.65625 
Q 18.109375 42.671875 18.109375 31.390625 
Q 18.109375 20.125 21.3125 9.0625 
Q 24.515625 -2 31 -13.1875 
L 23.1875 -13.1875 
Q 15.875 -1.703125 12.234375 9.375 
Q 8.59375 20.453125 8.59375 31.390625 
Q 8.59375 42.28125 12.203125 53.3125 
Q 15.828125 64.359375 23.1875 75.875 
z
" id="DejaVuSans-28"/>
      <path d="M 9.8125 72.90625 
L 19.671875 72.90625 
L 19.671875 8.296875 
L 55.171875 8.296875 
L 55.171875 0 
L 9.8125 0 
z
" id="DejaVuSans-4c"/>
      <path d="M 39.40625 66.21875 
Q 28.65625 66.21875 22.328125 58.203125 
Q 16.015625 50.203125 16.015625 36.375 
Q 16.015625 22.609375 22.328125 14.59375 
Q 28.65625 6.59375 39.40625 6.59375 
Q 50.140625 6.59375 56.421875 14.59375 
Q 62.703125 22.609375 62.703125 36.375 
Q 62.703125 50.203125 56.421875 58.203125 
Q 50.140625 66.21875 39.40625 66.21875 
z
M 39.40625 74.21875 
Q 54.734375 74.21875 63.90625 63.9375 
Q 73.09375 53.65625 73.09375 36.375 
Q 73.09375 19.140625 63.90625 8.859375 
Q 54.734375 -1.421875 39.40625 -1.421875 
Q 24.03125 -1.421875 14.8125 8.828125 
Q 5.609375 19.09375 5.609375 36.375 
Q 5.609375 53.65625 14.8125 63.9375 
Q 24.03125 74.21875 39.40625 74.21875 
z
" id="DejaVuSans-4f"/>
      <path d="M 19.671875 64.796875 
L 19.671875 37.40625 
L 32.078125 37.40625 
Q 38.96875 37.40625 42.71875 40.96875 
Q 46.484375 44.53125 46.484375 51.125 
Q 46.484375 57.671875 42.71875 61.234375 
Q 38.96875 64.796875 32.078125 64.796875 
z
M 9.8125 72.90625 
L 32.078125 72.90625 
Q 44.34375 72.90625 50.609375 67.359375 
Q 56.890625 61.8125 56.890625 51.125 
Q 56.890625 40.328125 50.609375 34.8125 
Q 44.34375 29.296875 32.078125 29.296875 
L 19.671875 29.296875 
L 19.671875 0 
L 9.8125 0 
z
" id="DejaVuSans-50"/>
      <path d="M 54.890625 54.6875 
L 35.109375 28.078125 
L 55.90625 0 
L 45.3125 0 
L 29.390625 21.484375 
L 13.484375 0 
L 2.875 0 
L 24.125 28.609375 
L 4.6875 54.6875 
L 15.28125 54.6875 
L 29.78125 35.203125 
L 44.28125 54.6875 
z
" id="DejaVuSans-78"/>
      <path d="M 9.421875 75.984375 
L 18.40625 75.984375 
L 18.40625 0 
L 9.421875 0 
z
" id="DejaVuSans-6c"/>
      <path d="M 8.015625 75.875 
L 15.828125 75.875 
Q 23.140625 64.359375 26.78125 53.3125 
Q 30.421875 42.28125 30.421875 31.390625 
Q 30.421875 20.453125 26.78125 9.375 
Q 23.140625 -1.703125 15.828125 -13.1875 
L 8.015625 -13.1875 
Q 14.5 -2 17.703125 9.0625 
Q 20.90625 20.125 20.90625 31.390625 
Q 20.90625 42.671875 17.703125 53.65625 
Q 14.5 64.65625 8.015625 75.875 
z
" id="DejaVuSans-29"/>
      <path d="M 34.1875 63.1875 
L 20.796875 26.90625 
L 47.609375 26.90625 
z
M 28.609375 72.90625 
L 39.796875 72.90625 
L 67.578125 0 
L 57.328125 0 
L 50.6875 18.703125 
L 17.828125 18.703125 
L 11.1875 0 
L 0.78125 0 
z
" id="DejaVuSans-41"/>
      <path d="M 8.6875 72.90625 
L 18.609375 72.90625 
L 18.609375 28.609375 
Q 18.609375 16.890625 22.84375 11.734375 
Q 27.09375 6.59375 36.625 6.59375 
Q 46.09375 6.59375 50.34375 11.734375 
Q 54.59375 16.890625 54.59375 28.609375 
L 54.59375 72.90625 
L 64.5 72.90625 
L 64.5 27.390625 
Q 64.5 13.140625 57.4375 5.859375 
Q 50.390625 -1.421875 36.625 -1.421875 
Q 22.796875 -1.421875 15.734375 5.859375 
Q 8.6875 13.140625 8.6875 27.390625 
z
" id="DejaVuSans-55"/>
      <path d="M 10.59375 45.40625 
L 73.1875 45.40625 
L 73.1875 37.203125 
L 10.59375 37.203125 
z
M 10.59375 25.484375 
L 73.1875 25.484375 
L 73.1875 17.1875 
L 10.59375 17.1875 
z
" id="DejaVuSans-3d"/>
      <path d="M 10.984375 1.515625 
L 10.984375 10.5 
Q 14.703125 8.734375 18.5 7.8125 
Q 22.3125 6.890625 25.984375 6.890625 
Q 35.75 6.890625 40.890625 13.453125 
Q 46.046875 20.015625 46.78125 33.40625 
Q 43.953125 29.203125 39.59375 26.953125 
Q 35.25 24.703125 29.984375 24.703125 
Q 19.046875 24.703125 12.671875 31.3125 
Q 6.296875 37.9375 6.296875 49.421875 
Q 6.296875 60.640625 12.9375 67.421875 
Q 19.578125 74.21875 30.609375 74.21875 
Q 43.265625 74.21875 49.921875 64.515625 
Q 56.59375 54.828125 56.59375 36.375 
Q 56.59375 19.140625 48.40625 8.859375 
Q 40.234375 -1.421875 26.421875 -1.421875 
Q 22.703125 -1.421875 18.890625 -0.6875 
Q 15.09375 0.046875 10.984375 1.515625 
z
M 30.609375 32.421875 
Q 37.25 32.421875 41.125 36.953125 
Q 45.015625 41.5 45.015625 49.421875 
Q 45.015625 57.28125 41.125 61.84375 
Q 37.25 66.40625 30.609375 66.40625 
Q 23.96875 66.40625 20.09375 61.84375 
Q 16.21875 57.28125 16.21875 49.421875 
Q 16.21875 41.5 20.09375 36.953125 
Q 23.96875 32.421875 30.609375 32.421875 
z
" id="DejaVuSans-39"/>
      <path d="M 40.578125 39.3125 
Q 47.65625 37.796875 51.625 33 
Q 55.609375 28.21875 55.609375 21.1875 
Q 55.609375 10.40625 48.1875 4.484375 
Q 40.765625 -1.421875 27.09375 -1.421875 
Q 22.515625 -1.421875 17.65625 -0.515625 
Q 12.796875 0.390625 7.625 2.203125 
L 7.625 11.71875 
Q 11.71875 9.328125 16.59375 8.109375 
Q 21.484375 6.890625 26.8125 6.890625 
Q 36.078125 6.890625 40.9375 10.546875 
Q 45.796875 14.203125 45.796875 21.1875 
Q 45.796875 27.640625 41.28125 31.265625 
Q 36.765625 34.90625 28.71875 34.90625 
L 20.21875 34.90625 
L 20.21875 43.015625 
L 29.109375 43.015625 
Q 36.375 43.015625 40.234375 45.921875 
Q 44.09375 48.828125 44.09375 54.296875 
Q 44.09375 59.90625 40.109375 62.90625 
Q 36.140625 65.921875 28.71875 65.921875 
Q 24.65625 65.921875 20.015625 65.03125 
Q 15.375 64.15625 9.8125 62.3125 
L 9.8125 71.09375 
Q 15.4375 72.65625 20.34375 73.4375 
Q 25.25 74.21875 29.59375 74.21875 
Q 40.828125 74.21875 47.359375 69.109375 
Q 53.90625 64.015625 53.90625 55.328125 
Q 53.90625 49.265625 50.4375 45.09375 
Q 46.96875 40.921875 40.578125 39.3125 
z
" id="DejaVuSans-33"/>
      <path d="M 10.796875 72.90625 
L 49.515625 72.90625 
L 49.515625 64.59375 
L 19.828125 64.59375 
L 19.828125 46.734375 
Q 21.96875 47.46875 24.109375 47.828125 
Q 26.265625 48.1875 28.421875 48.1875 
Q 40.625 48.1875 47.75 41.5 
Q 54.890625 34.8125 54.890625 23.390625 
Q 54.890625 11.625 47.5625 5.09375 
Q 40.234375 -1.421875 26.90625 -1.421875 
Q 22.3125 -1.421875 17.546875 -0.640625 
Q 12.796875 0.140625 7.71875 1.703125 
L 7.71875 11.625 
Q 12.109375 9.234375 16.796875 8.0625 
Q 21.484375 6.890625 26.703125 6.890625 
Q 35.15625 6.890625 40.078125 11.328125 
Q 45.015625 15.765625 45.015625 23.390625 
Q 45.015625 31 40.078125 35.4375 
Q 35.15625 39.890625 26.703125 39.890625 
Q 22.75 39.890625 18.8125 39.015625 
Q 14.890625 38.140625 10.796875 36.28125 
z
" id="DejaVuSans-35"/>
     </defs>
     <g transform="translate(125.946875 211.564063)scale(0.1 -0.1)">
      <use xlink:href="#DejaVuSans-54"/>
      <use x="60.865234" xlink:href="#DejaVuSans-72"/>
      <use x="101.978516" xlink:href="#DejaVuSans-61"/>
      <use x="163.257812" xlink:href="#DejaVuSans-69"/>
      <use x="191.041016" xlink:href="#DejaVuSans-6e"/>
      <use x="254.419922" xlink:href="#DejaVuSans-3a"/>
      <use x="288.111328" xlink:href="#DejaVuSans-20"/>
      <use x="319.898438" xlink:href="#DejaVuSans-56"/>
      <use x="388.306641" xlink:href="#DejaVuSans-43"/>
      <use x="458.130859" xlink:href="#DejaVuSans-2c"/>
      <use x="489.917969" xlink:href="#DejaVuSans-20"/>
      <use x="521.705078" xlink:href="#DejaVuSans-54"/>
      <use x="582.523438" xlink:href="#DejaVuSans-65"/>
      <use x="644.046875" xlink:href="#DejaVuSans-73"/>
      <use x="696.146484" xlink:href="#DejaVuSans-74"/>
      <use x="735.355469" xlink:href="#DejaVuSans-3a"/>
      <use x="769.046875" xlink:href="#DejaVuSans-20"/>
      <use x="800.833984" xlink:href="#DejaVuSans-56"/>
      <use x="869.242188" xlink:href="#DejaVuSans-43"/>
      <use x="939.066406" xlink:href="#DejaVuSans-20"/>
      <use x="970.853516" xlink:href="#DejaVuSans-28"/>
      <use x="1009.867188" xlink:href="#DejaVuSans-4c"/>
      <use x="1065.533203" xlink:href="#DejaVuSans-4f"/>
      <use x="1144.244141" xlink:href="#DejaVuSans-50"/>
      <use x="1204.546875" xlink:href="#DejaVuSans-4f"/>
      <use x="1283.257812" xlink:href="#DejaVuSans-20"/>
      <use x="1315.044922" xlink:href="#DejaVuSans-78"/>
      <use x="1374.224609" xlink:href="#DejaVuSans-2d"/>
      <use x="1410.277344" xlink:href="#DejaVuSans-76"/>
      <use x="1469.457031" xlink:href="#DejaVuSans-61"/>
      <use x="1530.736328" xlink:href="#DejaVuSans-6c"/>
      <use x="1558.519531" xlink:href="#DejaVuSans-29"/>
      <use x="1597.533203" xlink:href="#DejaVuSans-2c"/>
      <use x="1629.320312" xlink:href="#DejaVuSans-20"/>
      <use x="1661.107422" xlink:href="#DejaVuSans-41"/>
      <use x="1729.515625" xlink:href="#DejaVuSans-55"/>
      <use x="1802.708984" xlink:href="#DejaVuSans-43"/>
      <use x="1872.533203" xlink:href="#DejaVuSans-3d"/>
      <use x="1956.322266" xlink:href="#DejaVuSans-30"/>
      <use x="2019.945312" xlink:href="#DejaVuSans-2e"/>
      <use x="2051.732422" xlink:href="#DejaVuSans-39"/>
      <use x="2115.355469" xlink:href="#DejaVuSans-33"/>
      <use x="2178.978516" xlink:href="#DejaVuSans-35"/>
      <use x="2242.601562" xlink:href="#DejaVuSans-39"/>
     </g>
    </g>
    <g id="line2d_30">
     <path d="M 97.946875 222.742188 
L 117.946875 222.742188 
" style="fill:none;stroke:#ff0000;stroke-linecap:square;stroke-width:1.5;"/>
    </g>
    <g id="line2d_31">
     <g>
      <use style="fill:#ff0000;stroke:#ff0000;stroke-linejoin:bevel;" x="107.946875" xlink:href="#mdbfefd60ac" y="222.742188"/>
     </g>
    </g>
    <g id="text_16">
     <!-- Train: OC, Test: VC , AUC=0.9358 -->
     <g transform="translate(125.946875 226.242188)scale(0.1 -0.1)">
      <use xlink:href="#DejaVuSans-54"/>
      <use x="60.865234" xlink:href="#DejaVuSans-72"/>
      <use x="101.978516" xlink:href="#DejaVuSans-61"/>
      <use x="163.257812" xlink:href="#DejaVuSans-69"/>
      <use x="191.041016" xlink:href="#DejaVuSans-6e"/>
      <use x="254.419922" xlink:href="#DejaVuSans-3a"/>
      <use x="288.111328" xlink:href="#DejaVuSans-20"/>
      <use x="319.898438" xlink:href="#DejaVuSans-4f"/>
      <use x="398.609375" xlink:href="#DejaVuSans-43"/>
      <use x="468.433594" xlink:href="#DejaVuSans-2c"/>
      <use x="500.220703" xlink:href="#DejaVuSans-20"/>
      <use x="532.007812" xlink:href="#DejaVuSans-54"/>
      <use x="592.826172" xlink:href="#DejaVuSans-65"/>
      <use x="654.349609" xlink:href="#DejaVuSans-73"/>
      <use x="706.449219" xlink:href="#DejaVuSans-74"/>
      <use x="745.658203" xlink:href="#DejaVuSans-3a"/>
      <use x="779.349609" xlink:href="#DejaVuSans-20"/>
      <use x="811.136719" xlink:href="#DejaVuSans-56"/>
      <use x="879.544922" xlink:href="#DejaVuSans-43"/>
      <use x="949.369141" xlink:href="#DejaVuSans-20"/>
      <use x="981.15625" xlink:href="#DejaVuSans-2c"/>
      <use x="1012.943359" xlink:href="#DejaVuSans-20"/>
      <use x="1044.730469" xlink:href="#DejaVuSans-41"/>
      <use x="1113.138672" xlink:href="#DejaVuSans-55"/>
      <use x="1186.332031" xlink:href="#DejaVuSans-43"/>
      <use x="1256.15625" xlink:href="#DejaVuSans-3d"/>
      <use x="1339.945312" xlink:href="#DejaVuSans-30"/>
      <use x="1403.568359" xlink:href="#DejaVuSans-2e"/>
      <use x="1435.355469" xlink:href="#DejaVuSans-39"/>
      <use x="1498.978516" xlink:href="#DejaVuSans-33"/>
      <use x="1562.601562" xlink:href="#DejaVuSans-35"/>
      <use x="1626.224609" xlink:href="#DejaVuSans-38"/>
     </g>
    </g>
    <g id="line2d_32">
     <path d="M 97.946875 237.420313 
L 117.946875 237.420313 
" style="fill:none;stroke:#bf00bf;stroke-linecap:square;stroke-width:1.5;"/>
    </g>
    <g id="line2d_33">
     <g>
      <use style="fill:#bf00bf;stroke:#bf00bf;" x="107.946875" xlink:href="#m63d84bdd56" y="237.420313"/>
     </g>
    </g>
    <g id="text_17">
     <!-- Train: OC+VC, Test: VC (LOPO x-val), AUC=0.9928 -->
     <defs>
      <path d="M 46 62.703125 
L 46 35.5 
L 73.1875 35.5 
L 73.1875 27.203125 
L 46 27.203125 
L 46 0 
L 37.796875 0 
L 37.796875 27.203125 
L 10.59375 27.203125 
L 10.59375 35.5 
L 37.796875 35.5 
L 37.796875 62.703125 
z
" id="DejaVuSans-2b"/>
     </defs>
     <g transform="translate(125.946875 240.920313)scale(0.1 -0.1)">
      <use xlink:href="#DejaVuSans-54"/>
      <use x="60.865234" xlink:href="#DejaVuSans-72"/>
      <use x="101.978516" xlink:href="#DejaVuSans-61"/>
      <use x="163.257812" xlink:href="#DejaVuSans-69"/>
      <use x="191.041016" xlink:href="#DejaVuSans-6e"/>
      <use x="254.419922" xlink:href="#DejaVuSans-3a"/>
      <use x="288.111328" xlink:href="#DejaVuSans-20"/>
      <use x="319.898438" xlink:href="#DejaVuSans-4f"/>
      <use x="398.609375" xlink:href="#DejaVuSans-43"/>
      <use x="468.433594" xlink:href="#DejaVuSans-2b"/>
      <use x="552.222656" xlink:href="#DejaVuSans-56"/>
      <use x="620.630859" xlink:href="#DejaVuSans-43"/>
      <use x="690.455078" xlink:href="#DejaVuSans-2c"/>
      <use x="722.242188" xlink:href="#DejaVuSans-20"/>
      <use x="754.029297" xlink:href="#DejaVuSans-54"/>
      <use x="814.847656" xlink:href="#DejaVuSans-65"/>
      <use x="876.371094" xlink:href="#DejaVuSans-73"/>
      <use x="928.470703" xlink:href="#DejaVuSans-74"/>
      <use x="967.679688" xlink:href="#DejaVuSans-3a"/>
      <use x="1001.371094" xlink:href="#DejaVuSans-20"/>
      <use x="1033.158203" xlink:href="#DejaVuSans-56"/>
      <use x="1101.566406" xlink:href="#DejaVuSans-43"/>
      <use x="1171.390625" xlink:href="#DejaVuSans-20"/>
      <use x="1203.177734" xlink:href="#DejaVuSans-28"/>
      <use x="1242.191406" xlink:href="#DejaVuSans-4c"/>
      <use x="1297.857422" xlink:href="#DejaVuSans-4f"/>
      <use x="1376.568359" xlink:href="#DejaVuSans-50"/>
      <use x="1436.871094" xlink:href="#DejaVuSans-4f"/>
      <use x="1515.582031" xlink:href="#DejaVuSans-20"/>
      <use x="1547.369141" xlink:href="#DejaVuSans-78"/>
      <use x="1606.548828" xlink:href="#DejaVuSans-2d"/>
      <use x="1642.601562" xlink:href="#DejaVuSans-76"/>
      <use x="1701.78125" xlink:href="#DejaVuSans-61"/>
      <use x="1763.060547" xlink:href="#DejaVuSans-6c"/>
      <use x="1790.84375" xlink:href="#DejaVuSans-29"/>
      <use x="1829.857422" xlink:href="#DejaVuSans-2c"/>
      <use x="1861.644531" xlink:href="#DejaVuSans-20"/>
      <use x="1893.431641" xlink:href="#DejaVuSans-41"/>
      <use x="1961.839844" xlink:href="#DejaVuSans-55"/>
      <use x="2035.033203" xlink:href="#DejaVuSans-43"/>
      <use x="2104.857422" xlink:href="#DejaVuSans-3d"/>
      <use x="2188.646484" xlink:href="#DejaVuSans-30"/>
      <use x="2252.269531" xlink:href="#DejaVuSans-2e"/>
      <use x="2284.056641" xlink:href="#DejaVuSans-39"/>
      <use x="2347.679688" xlink:href="#DejaVuSans-39"/>
      <use x="2411.302734" xlink:href="#DejaVuSans-32"/>
      <use x="2474.925781" xlink:href="#DejaVuSans-38"/>
     </g>
    </g>
   </g>
  </g>
 </g>
 <defs>
  <clipPath id="p519e964915">
   <rect height="217.44" width="334.8" x="54" y="34.56"/>
  </clipPath>
 </defs>
</svg>
