<?xml version="1.0" encoding="utf-8" standalone="no"?>
<!DOCTYPE svg PUBLIC "-//W3C//DTD SVG 1.1//EN"
  "http://www.w3.org/Graphics/SVG/1.1/DTD/svg11.dtd">
<!-- Created with matplotlib (http://matplotlib.org/) -->
<svg height="288pt" version="1.1" viewBox="0 0 432 288" width="432pt" xmlns="http://www.w3.org/2000/svg" xmlns:xlink="http://www.w3.org/1999/xlink">
 <defs>
  <style type="text/css">
*{stroke-linecap:butt;stroke-linejoin:round;}
  </style>
 </defs>
 <g id="figure_1">
  <g id="patch_1">
   <path d="M 0 288 
L 432 288 
L 432 0 
L 0 0 
z
" style="fill:#ffffff;"/>
  </g>
  <g id="axes_1">
   <g id="patch_2">
    <path d="M 54 252 
L 388.8 252 
L 388.8 34.56 
L 54 34.56 
z
" style="fill:#ffffff;"/>
   </g>
   <g id="matplotlib.axis_1">
    <g id="xtick_1">
     <g id="line2d_1">
      <path clip-path="url(#pdf1e76389d)" d="M 69.218182 252 
L 69.218182 34.56 
" style="fill:none;stroke:#b0b0b0;stroke-linecap:square;stroke-width:0.8;"/>
     </g>
     <g id="line2d_2">
      <defs>
       <path d="M 0 0 
L 0 3.5 
" id="m939396dfe5" style="stroke:#000000;stroke-width:0.8;"/>
      </defs>
      <g>
       <use style="stroke:#000000;stroke-width:0.8;" x="69.218182" xlink:href="#m939396dfe5" y="252"/>
      </g>
     </g>
     <g id="text_1">
      <!-- 0.0 -->
      <defs>
       <path d="M 31.78125 66.40625 
Q 24.171875 66.40625 20.328125 58.90625 
Q 16.5 51.421875 16.5 36.375 
Q 16.5 21.390625 20.328125 13.890625 
Q 24.171875 6.390625 31.78125 6.390625 
Q 39.453125 6.390625 43.28125 13.890625 
Q 47.125 21.390625 47.125 36.375 
Q 47.125 51.421875 43.28125 58.90625 
Q 39.453125 66.40625 31.78125 66.40625 
z
M 31.78125 74.21875 
Q 44.046875 74.21875 50.515625 64.515625 
Q 56.984375 54.828125 56.984375 36.375 
Q 56.984375 17.96875 50.515625 8.265625 
Q 44.046875 -1.421875 31.78125 -1.421875 
Q 19.53125 -1.421875 13.0625 8.265625 
Q 6.59375 17.96875 6.59375 36.375 
Q 6.59375 54.828125 13.0625 64.515625 
Q 19.53125 74.21875 31.78125 74.21875 
z
" id="DejaVuSans-30"/>
       <path d="M 10.6875 12.40625 
L 21 12.40625 
L 21 0 
L 10.6875 0 
z
" id="DejaVuSans-2e"/>
      </defs>
      <g transform="translate(61.266619 266.598437)scale(0.1 -0.1)">
       <use xlink:href="#DejaVuSans-30"/>
       <use x="63.623047" xlink:href="#DejaVuSans-2e"/>
       <use x="95.410156" xlink:href="#DejaVuSans-30"/>
      </g>
     </g>
    </g>
    <g id="xtick_2">
     <g id="line2d_3">
      <path clip-path="url(#pdf1e76389d)" d="M 130.090909 252 
L 130.090909 34.56 
" style="fill:none;stroke:#b0b0b0;stroke-linecap:square;stroke-width:0.8;"/>
     </g>
     <g id="line2d_4">
      <g>
       <use style="stroke:#000000;stroke-width:0.8;" x="130.090909" xlink:href="#m939396dfe5" y="252"/>
      </g>
     </g>
     <g id="text_2">
      <!-- 0.2 -->
      <defs>
       <path d="M 19.1875 8.296875 
L 53.609375 8.296875 
L 53.609375 0 
L 7.328125 0 
L 7.328125 8.296875 
Q 12.9375 14.109375 22.625 23.890625 
Q 32.328125 33.6875 34.8125 36.53125 
Q 39.546875 41.84375 41.421875 45.53125 
Q 43.3125 49.21875 43.3125 52.78125 
Q 43.3125 58.59375 39.234375 62.25 
Q 35.15625 65.921875 28.609375 65.921875 
Q 23.96875 65.921875 18.8125 64.3125 
Q 13.671875 62.703125 7.8125 59.421875 
L 7.8125 69.390625 
Q 13.765625 71.78125 18.9375 73 
Q 24.125 74.21875 28.421875 74.21875 
Q 39.75 74.21875 46.484375 68.546875 
Q 53.21875 62.890625 53.21875 53.421875 
Q 53.21875 48.921875 51.53125 44.890625 
Q 49.859375 40.875 45.40625 35.40625 
Q 44.1875 33.984375 37.640625 27.21875 
Q 31.109375 20.453125 19.1875 8.296875 
z
" id="DejaVuSans-32"/>
      </defs>
      <g transform="translate(122.139347 266.598437)scale(0.1 -0.1)">
       <use xlink:href="#DejaVuSans-30"/>
       <use x="63.623047" xlink:href="#DejaVuSans-2e"/>
       <use x="95.410156" xlink:href="#DejaVuSans-32"/>
      </g>
     </g>
    </g>
    <g id="xtick_3">
     <g id="line2d_5">
      <path clip-path="url(#pdf1e76389d)" d="M 190.963636 252 
L 190.963636 34.56 
" style="fill:none;stroke:#b0b0b0;stroke-linecap:square;stroke-width:0.8;"/>
     </g>
     <g id="line2d_6">
      <g>
       <use style="stroke:#000000;stroke-width:0.8;" x="190.963636" xlink:href="#m939396dfe5" y="252"/>
      </g>
     </g>
     <g id="text_3">
      <!-- 0.4 -->
      <defs>
       <path d="M 37.796875 64.3125 
L 12.890625 25.390625 
L 37.796875 25.390625 
z
M 35.203125 72.90625 
L 47.609375 72.90625 
L 47.609375 25.390625 
L 58.015625 25.390625 
L 58.015625 17.1875 
L 47.609375 17.1875 
L 47.609375 0 
L 37.796875 0 
L 37.796875 17.1875 
L 4.890625 17.1875 
L 4.890625 26.703125 
z
" id="DejaVuSans-34"/>
      </defs>
      <g transform="translate(183.012074 266.598437)scale(0.1 -0.1)">
       <use xlink:href="#DejaVuSans-30"/>
       <use x="63.623047" xlink:href="#DejaVuSans-2e"/>
       <use x="95.410156" xlink:href="#DejaVuSans-34"/>
      </g>
     </g>
    </g>
    <g id="xtick_4">
     <g id="line2d_7">
      <path clip-path="url(#pdf1e76389d)" d="M 251.836364 252 
L 251.836364 34.56 
" style="fill:none;stroke:#b0b0b0;stroke-linecap:square;stroke-width:0.8;"/>
     </g>
     <g id="line2d_8">
      <g>
       <use style="stroke:#000000;stroke-width:0.8;" x="251.836364" xlink:href="#m939396dfe5" y="252"/>
      </g>
     </g>
     <g id="text_4">
      <!-- 0.6 -->
      <defs>
       <path d="M 33.015625 40.375 
Q 26.375 40.375 22.484375 35.828125 
Q 18.609375 31.296875 18.609375 23.390625 
Q 18.609375 15.53125 22.484375 10.953125 
Q 26.375 6.390625 33.015625 6.390625 
Q 39.65625 6.390625 43.53125 10.953125 
Q 47.40625 15.53125 47.40625 23.390625 
Q 47.40625 31.296875 43.53125 35.828125 
Q 39.65625 40.375 33.015625 40.375 
z
M 52.59375 71.296875 
L 52.59375 62.3125 
Q 48.875 64.0625 45.09375 64.984375 
Q 41.3125 65.921875 37.59375 65.921875 
Q 27.828125 65.921875 22.671875 59.328125 
Q 17.53125 52.734375 16.796875 39.40625 
Q 19.671875 43.65625 24.015625 45.921875 
Q 28.375 48.1875 33.59375 48.1875 
Q 44.578125 48.1875 50.953125 41.515625 
Q 57.328125 34.859375 57.328125 23.390625 
Q 57.328125 12.15625 50.6875 5.359375 
Q 44.046875 -1.421875 33.015625 -1.421875 
Q 20.359375 -1.421875 13.671875 8.265625 
Q 6.984375 17.96875 6.984375 36.375 
Q 6.984375 53.65625 15.1875 63.9375 
Q 23.390625 74.21875 37.203125 74.21875 
Q 40.921875 74.21875 44.703125 73.484375 
Q 48.484375 72.75 52.59375 71.296875 
z
" id="DejaVuSans-36"/>
      </defs>
      <g transform="translate(243.884801 266.598437)scale(0.1 -0.1)">
       <use xlink:href="#DejaVuSans-30"/>
       <use x="63.623047" xlink:href="#DejaVuSans-2e"/>
       <use x="95.410156" xlink:href="#DejaVuSans-36"/>
      </g>
     </g>
    </g>
    <g id="xtick_5">
     <g id="line2d_9">
      <path clip-path="url(#pdf1e76389d)" d="M 312.709091 252 
L 312.709091 34.56 
" style="fill:none;stroke:#b0b0b0;stroke-linecap:square;stroke-width:0.8;"/>
     </g>
     <g id="line2d_10">
      <g>
       <use style="stroke:#000000;stroke-width:0.8;" x="312.709091" xlink:href="#m939396dfe5" y="252"/>
      </g>
     </g>
     <g id="text_5">
      <!-- 0.8 -->
      <defs>
       <path d="M 31.78125 34.625 
Q 24.75 34.625 20.71875 30.859375 
Q 16.703125 27.09375 16.703125 20.515625 
Q 16.703125 13.921875 20.71875 10.15625 
Q 24.75 6.390625 31.78125 6.390625 
Q 38.8125 6.390625 42.859375 10.171875 
Q 46.921875 13.96875 46.921875 20.515625 
Q 46.921875 27.09375 42.890625 30.859375 
Q 38.875 34.625 31.78125 34.625 
z
M 21.921875 38.8125 
Q 15.578125 40.375 12.03125 44.71875 
Q 8.5 49.078125 8.5 55.328125 
Q 8.5 64.0625 14.71875 69.140625 
Q 20.953125 74.21875 31.78125 74.21875 
Q 42.671875 74.21875 48.875 69.140625 
Q 55.078125 64.0625 55.078125 55.328125 
Q 55.078125 49.078125 51.53125 44.71875 
Q 48 40.375 41.703125 38.8125 
Q 48.828125 37.15625 52.796875 32.3125 
Q 56.78125 27.484375 56.78125 20.515625 
Q 56.78125 9.90625 50.3125 4.234375 
Q 43.84375 -1.421875 31.78125 -1.421875 
Q 19.734375 -1.421875 13.25 4.234375 
Q 6.78125 9.90625 6.78125 20.515625 
Q 6.78125 27.484375 10.78125 32.3125 
Q 14.796875 37.15625 21.921875 38.8125 
z
M 18.3125 54.390625 
Q 18.3125 48.734375 21.84375 45.5625 
Q 25.390625 42.390625 31.78125 42.390625 
Q 38.140625 42.390625 41.71875 45.5625 
Q 45.3125 48.734375 45.3125 54.390625 
Q 45.3125 60.0625 41.71875 63.234375 
Q 38.140625 66.40625 31.78125 66.40625 
Q 25.390625 66.40625 21.84375 63.234375 
Q 18.3125 60.0625 18.3125 54.390625 
z
" id="DejaVuSans-38"/>
      </defs>
      <g transform="translate(304.757528 266.598437)scale(0.1 -0.1)">
       <use xlink:href="#DejaVuSans-30"/>
       <use x="63.623047" xlink:href="#DejaVuSans-2e"/>
       <use x="95.410156" xlink:href="#DejaVuSans-38"/>
      </g>
     </g>
    </g>
    <g id="xtick_6">
     <g id="line2d_11">
      <path clip-path="url(#pdf1e76389d)" d="M 373.581818 252 
L 373.581818 34.56 
" style="fill:none;stroke:#b0b0b0;stroke-linecap:square;stroke-width:0.8;"/>
     </g>
     <g id="line2d_12">
      <g>
       <use style="stroke:#000000;stroke-width:0.8;" x="373.581818" xlink:href="#m939396dfe5" y="252"/>
      </g>
     </g>
     <g id="text_6">
      <!-- 1.0 -->
      <defs>
       <path d="M 12.40625 8.296875 
L 28.515625 8.296875 
L 28.515625 63.921875 
L 10.984375 60.40625 
L 10.984375 69.390625 
L 28.421875 72.90625 
L 38.28125 72.90625 
L 38.28125 8.296875 
L 54.390625 8.296875 
L 54.390625 0 
L 12.40625 0 
z
" id="DejaVuSans-31"/>
      </defs>
      <g transform="translate(365.630256 266.598437)scale(0.1 -0.1)">
       <use xlink:href="#DejaVuSans-31"/>
       <use x="63.623047" xlink:href="#DejaVuSans-2e"/>
       <use x="95.410156" xlink:href="#DejaVuSans-30"/>
      </g>
     </g>
    </g>
    <g id="text_7">
     <!-- 1 - specificity -->
     <defs>
      <path id="DejaVuSans-20"/>
      <path d="M 4.890625 31.390625 
L 31.203125 31.390625 
L 31.203125 23.390625 
L 4.890625 23.390625 
z
" id="DejaVuSans-2d"/>
      <path d="M 44.28125 53.078125 
L 44.28125 44.578125 
Q 40.484375 46.53125 36.375 47.5 
Q 32.28125 48.484375 27.875 48.484375 
Q 21.1875 48.484375 17.84375 46.4375 
Q 14.5 44.390625 14.5 40.28125 
Q 14.5 37.15625 16.890625 35.375 
Q 19.28125 33.59375 26.515625 31.984375 
L 29.59375 31.296875 
Q 39.15625 29.25 43.1875 25.515625 
Q 47.21875 21.78125 47.21875 15.09375 
Q 47.21875 7.46875 41.1875 3.015625 
Q 35.15625 -1.421875 24.609375 -1.421875 
Q 20.21875 -1.421875 15.453125 -0.5625 
Q 10.6875 0.296875 5.421875 2 
L 5.421875 11.28125 
Q 10.40625 8.6875 15.234375 7.390625 
Q 20.0625 6.109375 24.8125 6.109375 
Q 31.15625 6.109375 34.5625 8.28125 
Q 37.984375 10.453125 37.984375 14.40625 
Q 37.984375 18.0625 35.515625 20.015625 
Q 33.0625 21.96875 24.703125 23.78125 
L 21.578125 24.515625 
Q 13.234375 26.265625 9.515625 29.90625 
Q 5.8125 33.546875 5.8125 39.890625 
Q 5.8125 47.609375 11.28125 51.796875 
Q 16.75 56 26.8125 56 
Q 31.78125 56 36.171875 55.265625 
Q 40.578125 54.546875 44.28125 53.078125 
z
" id="DejaVuSans-73"/>
      <path d="M 18.109375 8.203125 
L 18.109375 -20.796875 
L 9.078125 -20.796875 
L 9.078125 54.6875 
L 18.109375 54.6875 
L 18.109375 46.390625 
Q 20.953125 51.265625 25.265625 53.625 
Q 29.59375 56 35.59375 56 
Q 45.5625 56 51.78125 48.09375 
Q 58.015625 40.1875 58.015625 27.296875 
Q 58.015625 14.40625 51.78125 6.484375 
Q 45.5625 -1.421875 35.59375 -1.421875 
Q 29.59375 -1.421875 25.265625 0.953125 
Q 20.953125 3.328125 18.109375 8.203125 
z
M 48.6875 27.296875 
Q 48.6875 37.203125 44.609375 42.84375 
Q 40.53125 48.484375 33.40625 48.484375 
Q 26.265625 48.484375 22.1875 42.84375 
Q 18.109375 37.203125 18.109375 27.296875 
Q 18.109375 17.390625 22.1875 11.75 
Q 26.265625 6.109375 33.40625 6.109375 
Q 40.53125 6.109375 44.609375 11.75 
Q 48.6875 17.390625 48.6875 27.296875 
z
" id="DejaVuSans-70"/>
      <path d="M 56.203125 29.59375 
L 56.203125 25.203125 
L 14.890625 25.203125 
Q 15.484375 15.921875 20.484375 11.0625 
Q 25.484375 6.203125 34.421875 6.203125 
Q 39.59375 6.203125 44.453125 7.46875 
Q 49.3125 8.734375 54.109375 11.28125 
L 54.109375 2.78125 
Q 49.265625 0.734375 44.1875 -0.34375 
Q 39.109375 -1.421875 33.890625 -1.421875 
Q 20.796875 -1.421875 13.15625 6.1875 
Q 5.515625 13.8125 5.515625 26.8125 
Q 5.515625 40.234375 12.765625 48.109375 
Q 20.015625 56 32.328125 56 
Q 43.359375 56 49.78125 48.890625 
Q 56.203125 41.796875 56.203125 29.59375 
z
M 47.21875 32.234375 
Q 47.125 39.59375 43.09375 43.984375 
Q 39.0625 48.390625 32.421875 48.390625 
Q 24.90625 48.390625 20.390625 44.140625 
Q 15.875 39.890625 15.1875 32.171875 
z
" id="DejaVuSans-65"/>
      <path d="M 48.78125 52.59375 
L 48.78125 44.1875 
Q 44.96875 46.296875 41.140625 47.34375 
Q 37.3125 48.390625 33.40625 48.390625 
Q 24.65625 48.390625 19.8125 42.84375 
Q 14.984375 37.3125 14.984375 27.296875 
Q 14.984375 17.28125 19.8125 11.734375 
Q 24.65625 6.203125 33.40625 6.203125 
Q 37.3125 6.203125 41.140625 7.25 
Q 44.96875 8.296875 48.78125 10.40625 
L 48.78125 2.09375 
Q 45.015625 0.34375 40.984375 -0.53125 
Q 36.96875 -1.421875 32.421875 -1.421875 
Q 20.0625 -1.421875 12.78125 6.34375 
Q 5.515625 14.109375 5.515625 27.296875 
Q 5.515625 40.671875 12.859375 48.328125 
Q 20.21875 56 33.015625 56 
Q 37.15625 56 41.109375 55.140625 
Q 45.0625 54.296875 48.78125 52.59375 
z
" id="DejaVuSans-63"/>
      <path d="M 9.421875 54.6875 
L 18.40625 54.6875 
L 18.40625 0 
L 9.421875 0 
z
M 9.421875 75.984375 
L 18.40625 75.984375 
L 18.40625 64.59375 
L 9.421875 64.59375 
z
" id="DejaVuSans-69"/>
      <path d="M 37.109375 75.984375 
L 37.109375 68.5 
L 28.515625 68.5 
Q 23.6875 68.5 21.796875 66.546875 
Q 19.921875 64.59375 19.921875 59.515625 
L 19.921875 54.6875 
L 34.71875 54.6875 
L 34.71875 47.703125 
L 19.921875 47.703125 
L 19.921875 0 
L 10.890625 0 
L 10.890625 47.703125 
L 2.296875 47.703125 
L 2.296875 54.6875 
L 10.890625 54.6875 
L 10.890625 58.5 
Q 10.890625 67.625 15.140625 71.796875 
Q 19.390625 75.984375 28.609375 75.984375 
z
" id="DejaVuSans-66"/>
      <path d="M 18.3125 70.21875 
L 18.3125 54.6875 
L 36.8125 54.6875 
L 36.8125 47.703125 
L 18.3125 47.703125 
L 18.3125 18.015625 
Q 18.3125 11.328125 20.140625 9.421875 
Q 21.96875 7.515625 27.59375 7.515625 
L 36.8125 7.515625 
L 36.8125 0 
L 27.59375 0 
Q 17.1875 0 13.234375 3.875 
Q 9.28125 7.765625 9.28125 18.015625 
L 9.28125 47.703125 
L 2.6875 47.703125 
L 2.6875 54.6875 
L 9.28125 54.6875 
L 9.28125 70.21875 
z
" id="DejaVuSans-74"/>
      <path d="M 32.171875 -5.078125 
Q 28.375 -14.84375 24.75 -17.8125 
Q 21.140625 -20.796875 15.09375 -20.796875 
L 7.90625 -20.796875 
L 7.90625 -13.28125 
L 13.1875 -13.28125 
Q 16.890625 -13.28125 18.9375 -11.515625 
Q 21 -9.765625 23.484375 -3.21875 
L 25.09375 0.875 
L 2.984375 54.6875 
L 12.5 54.6875 
L 29.59375 11.921875 
L 46.6875 54.6875 
L 56.203125 54.6875 
z
" id="DejaVuSans-79"/>
     </defs>
     <g transform="translate(188.035937 280.276563)scale(0.1 -0.1)">
      <use xlink:href="#DejaVuSans-31"/>
      <use x="63.623047" xlink:href="#DejaVuSans-20"/>
      <use x="95.410156" xlink:href="#DejaVuSans-2d"/>
      <use x="131.494141" xlink:href="#DejaVuSans-20"/>
      <use x="163.28125" xlink:href="#DejaVuSans-73"/>
      <use x="215.380859" xlink:href="#DejaVuSans-70"/>
      <use x="278.857422" xlink:href="#DejaVuSans-65"/>
      <use x="340.380859" xlink:href="#DejaVuSans-63"/>
      <use x="395.361328" xlink:href="#DejaVuSans-69"/>
      <use x="423.144531" xlink:href="#DejaVuSans-66"/>
      <use x="458.349609" xlink:href="#DejaVuSans-69"/>
      <use x="486.132812" xlink:href="#DejaVuSans-63"/>
      <use x="541.113281" xlink:href="#DejaVuSans-69"/>
      <use x="568.896484" xlink:href="#DejaVuSans-74"/>
      <use x="608.105469" xlink:href="#DejaVuSans-79"/>
     </g>
    </g>
   </g>
   <g id="matplotlib.axis_2">
    <g id="ytick_1">
     <g id="line2d_13">
      <path clip-path="url(#pdf1e76389d)" d="M 54 242.171781 
L 388.8 242.171781 
" style="fill:none;stroke:#b0b0b0;stroke-linecap:square;stroke-width:0.8;"/>
     </g>
     <g id="line2d_14">
      <defs>
       <path d="M 0 0 
L -3.5 0 
" id="md1a2cd773c" style="stroke:#000000;stroke-width:0.8;"/>
      </defs>
      <g>
       <use style="stroke:#000000;stroke-width:0.8;" x="54" xlink:href="#md1a2cd773c" y="242.171781"/>
      </g>
     </g>
     <g id="text_8">
      <!-- 0.0 -->
      <g transform="translate(31.096875 245.970999)scale(0.1 -0.1)">
       <use xlink:href="#DejaVuSans-30"/>
       <use x="63.623047" xlink:href="#DejaVuSans-2e"/>
       <use x="95.410156" xlink:href="#DejaVuSans-30"/>
      </g>
     </g>
    </g>
    <g id="ytick_2">
     <g id="line2d_15">
      <path clip-path="url(#pdf1e76389d)" d="M 54 202.626152 
L 388.8 202.626152 
" style="fill:none;stroke:#b0b0b0;stroke-linecap:square;stroke-width:0.8;"/>
     </g>
     <g id="line2d_16">
      <g>
       <use style="stroke:#000000;stroke-width:0.8;" x="54" xlink:href="#md1a2cd773c" y="202.626152"/>
      </g>
     </g>
     <g id="text_9">
      <!-- 0.2 -->
      <g transform="translate(31.096875 206.425371)scale(0.1 -0.1)">
       <use xlink:href="#DejaVuSans-30"/>
       <use x="63.623047" xlink:href="#DejaVuSans-2e"/>
       <use x="95.410156" xlink:href="#DejaVuSans-32"/>
      </g>
     </g>
    </g>
    <g id="ytick_3">
     <g id="line2d_17">
      <path clip-path="url(#pdf1e76389d)" d="M 54 163.080523 
L 388.8 163.080523 
" style="fill:none;stroke:#b0b0b0;stroke-linecap:square;stroke-width:0.8;"/>
     </g>
     <g id="line2d_18">
      <g>
       <use style="stroke:#000000;stroke-width:0.8;" x="54" xlink:href="#md1a2cd773c" y="163.080523"/>
      </g>
     </g>
     <g id="text_10">
      <!-- 0.4 -->
      <g transform="translate(31.096875 166.879742)scale(0.1 -0.1)">
       <use xlink:href="#DejaVuSans-30"/>
       <use x="63.623047" xlink:href="#DejaVuSans-2e"/>
       <use x="95.410156" xlink:href="#DejaVuSans-34"/>
      </g>
     </g>
    </g>
    <g id="ytick_4">
     <g id="line2d_19">
      <path clip-path="url(#pdf1e76389d)" d="M 54 123.534894 
L 388.8 123.534894 
" style="fill:none;stroke:#b0b0b0;stroke-linecap:square;stroke-width:0.8;"/>
     </g>
     <g id="line2d_20">
      <g>
       <use style="stroke:#000000;stroke-width:0.8;" x="54" xlink:href="#md1a2cd773c" y="123.534894"/>
      </g>
     </g>
     <g id="text_11">
      <!-- 0.6 -->
      <g transform="translate(31.096875 127.334113)scale(0.1 -0.1)">
       <use xlink:href="#DejaVuSans-30"/>
       <use x="63.623047" xlink:href="#DejaVuSans-2e"/>
       <use x="95.410156" xlink:href="#DejaVuSans-36"/>
      </g>
     </g>
    </g>
    <g id="ytick_5">
     <g id="line2d_21">
      <path clip-path="url(#pdf1e76389d)" d="M 54 83.989265 
L 388.8 83.989265 
" style="fill:none;stroke:#b0b0b0;stroke-linecap:square;stroke-width:0.8;"/>
     </g>
     <g id="line2d_22">
      <g>
       <use style="stroke:#000000;stroke-width:0.8;" x="54" xlink:href="#md1a2cd773c" y="83.989265"/>
      </g>
     </g>
     <g id="text_12">
      <!-- 0.8 -->
      <g transform="translate(31.096875 87.788484)scale(0.1 -0.1)">
       <use xlink:href="#DejaVuSans-30"/>
       <use x="63.623047" xlink:href="#DejaVuSans-2e"/>
       <use x="95.410156" xlink:href="#DejaVuSans-38"/>
      </g>
     </g>
    </g>
    <g id="ytick_6">
     <g id="line2d_23">
      <path clip-path="url(#pdf1e76389d)" d="M 54 44.443636 
L 388.8 44.443636 
" style="fill:none;stroke:#b0b0b0;stroke-linecap:square;stroke-width:0.8;"/>
     </g>
     <g id="line2d_24">
      <g>
       <use style="stroke:#000000;stroke-width:0.8;" x="54" xlink:href="#md1a2cd773c" y="44.443636"/>
      </g>
     </g>
     <g id="text_13">
      <!-- 1.0 -->
      <g transform="translate(31.096875 48.242855)scale(0.1 -0.1)">
       <use xlink:href="#DejaVuSans-31"/>
       <use x="63.623047" xlink:href="#DejaVuSans-2e"/>
       <use x="95.410156" xlink:href="#DejaVuSans-30"/>
      </g>
     </g>
    </g>
    <g id="text_14">
     <!-- sensitivitiy -->
     <defs>
      <path d="M 54.890625 33.015625 
L 54.890625 0 
L 45.90625 0 
L 45.90625 32.71875 
Q 45.90625 40.484375 42.875 44.328125 
Q 39.84375 48.1875 33.796875 48.1875 
Q 26.515625 48.1875 22.3125 43.546875 
Q 18.109375 38.921875 18.109375 30.90625 
L 18.109375 0 
L 9.078125 0 
L 9.078125 54.6875 
L 18.109375 54.6875 
L 18.109375 46.1875 
Q 21.34375 51.125 25.703125 53.5625 
Q 30.078125 56 35.796875 56 
Q 45.21875 56 50.046875 50.171875 
Q 54.890625 44.34375 54.890625 33.015625 
z
" id="DejaVuSans-6e"/>
      <path d="M 2.984375 54.6875 
L 12.5 54.6875 
L 29.59375 8.796875 
L 46.6875 54.6875 
L 56.203125 54.6875 
L 35.6875 0 
L 23.484375 0 
z
" id="DejaVuSans-76"/>
     </defs>
     <g transform="translate(25.017187 170.13)rotate(-90)scale(0.1 -0.1)">
      <use xlink:href="#DejaVuSans-73"/>
      <use x="52.099609" xlink:href="#DejaVuSans-65"/>
      <use x="113.623047" xlink:href="#DejaVuSans-6e"/>
      <use x="177.001953" xlink:href="#DejaVuSans-73"/>
      <use x="229.101562" xlink:href="#DejaVuSans-69"/>
      <use x="256.884766" xlink:href="#DejaVuSans-74"/>
      <use x="296.09375" xlink:href="#DejaVuSans-69"/>
      <use x="323.876953" xlink:href="#DejaVuSans-76"/>
      <use x="383.056641" xlink:href="#DejaVuSans-69"/>
      <use x="410.839844" xlink:href="#DejaVuSans-74"/>
      <use x="450.048828" xlink:href="#DejaVuSans-69"/>
      <use x="477.832031" xlink:href="#DejaVuSans-79"/>
     </g>
    </g>
   </g>
   <g id="line2d_25">
    <path clip-path="url(#pdf1e76389d)" d="M 69.218182 242.116364 
L 69.292598 238.56967 
L 69.367015 238.56967 
L 69.441431 236.740907 
L 69.515848 236.740907 
L 69.590265 234.468806 
L 69.664681 234.468806 
L 69.739098 232.861711 
L 69.813514 232.861711 
L 69.887931 231.531701 
L 69.962347 231.531701 
L 70.036764 229.592103 
L 70.11118 229.592103 
L 70.185597 228.871681 
L 70.33443 228.816264 
L 70.408846 227.209169 
L 70.483263 227.209169 
L 70.557679 223.994978 
L 70.632096 223.994978 
L 70.706513 220.836205 
L 70.780929 220.836205 
L 70.855346 215.349914 
L 71.004179 215.294497 
L 71.078595 214.019904 
L 71.153012 214.019904 
L 71.227428 212.301974 
L 71.301845 212.301974 
L 71.376261 211.526135 
L 71.450678 211.526135 
L 71.525094 210.584045 
L 71.673928 210.528628 
L 71.748344 210.140708 
L 71.822761 210.140708 
L 71.897177 208.699864 
L 71.971594 208.699864 
L 72.04601 205.430256 
L 72.120427 205.430256 
L 72.194843 205.097754 
L 72.26926 205.097754 
L 72.343676 202.271483 
L 72.418093 202.271483 
L 72.418093 201.883563 
L 72.566926 201.883563 
L 72.641343 199.943965 
L 72.715759 199.943965 
L 72.790176 199.001875 
L 72.864592 199.001875 
L 72.939009 198.226036 
L 73.013425 198.226036 
L 73.087842 196.009352 
L 73.162258 196.009352 
L 73.236675 193.293915 
L 73.311091 193.293915 
L 73.311091 192.573493 
L 73.459924 192.573493 
L 73.534341 190.800147 
L 73.683174 190.74473 
L 73.757591 189.359303 
L 73.832007 189.359303 
L 73.906424 187.69679 
L 73.98084 187.69679 
L 74.055257 186.477614 
L 74.129673 186.477614 
L 74.20409 181.877997 
L 74.278506 181.877997 
L 74.352923 181.43466 
L 74.576172 181.379243 
L 74.650589 179.439645 
L 74.725006 179.439645 
L 74.799422 177.610882 
L 74.873839 177.610882 
L 74.948255 175.338781 
L 75.097088 175.227947 
L 75.171505 174.452108 
L 75.245921 174.452108 
L 75.320338 173.232932 
L 75.394754 173.232932 
L 75.469171 172.90043 
L 75.618004 172.845013 
L 75.692421 170.462078 
L 75.766837 170.462078 
L 75.841254 169.630822 
L 75.990087 169.519988 
L 76.064503 166.6383 
L 76.13892 166.6383 
L 76.213336 165.363707 
L 76.362169 165.30829 
L 76.436586 164.089114 
L 76.585419 163.97828 
L 76.659836 163.368692 
L 76.734252 163.368692 
L 76.808669 162.204933 
L 77.106335 162.149516 
L 77.180751 161.484511 
L 77.255168 161.484511 
L 77.255168 161.262843 
L 77.404001 161.262843 
L 77.478417 159.877416 
L 77.552834 159.877416 
L 77.627251 158.65824 
L 77.776084 158.65824 
L 77.8505 158.048652 
L 77.924917 158.048652 
L 77.999333 157.605315 
L 78.07375 157.605315 
L 78.148166 156.774059 
L 78.222583 156.774059 
L 78.296999 156.441557 
L 78.371416 156.441557 
L 78.371416 155.99822 
L 78.520249 155.99822 
L 78.594665 155.554883 
L 78.743499 155.444049 
L 78.817915 155.166964 
L 78.892332 155.166964 
L 78.966748 154.723627 
L 79.041165 154.723627 
L 79.115581 152.229859 
L 79.189998 152.229859 
L 79.189998 151.675688 
L 79.338831 151.675688 
L 79.413247 150.789014 
L 79.56208 150.789014 
L 79.636497 150.290261 
L 79.934163 150.179427 
L 80.00858 149.34817 
L 80.157413 149.237336 
L 80.231829 148.738582 
L 80.306246 148.738582 
L 80.306246 148.128995 
L 80.603912 148.073577 
L 80.603912 147.907326 
L 80.901578 147.851909 
L 80.975995 147.353155 
L 81.050411 147.353155 
L 81.124828 146.521899 
L 81.199244 146.521899 
L 81.199244 146.355648 
L 81.348077 146.355648 
L 81.422494 145.136472 
L 81.72016 145.025638 
L 81.72016 144.748553 
L 81.94341 144.748553 
L 82.017826 144.138965 
L 82.166659 144.138965 
L 82.241076 143.806462 
L 82.389909 143.806462 
L 82.464325 142.642704 
L 82.538742 142.642704 
L 82.613158 141.977699 
L 82.687575 141.977699 
L 82.761992 141.589779 
L 82.910825 141.589779 
L 82.985241 141.368111 
L 83.208491 141.257277 
L 83.282907 141.091025 
L 83.43174 140.980191 
L 83.506157 140.481437 
L 83.729407 140.481437 
L 83.803823 139.816432 
L 83.952656 139.816432 
L 84.027073 139.594764 
L 84.101489 139.594764 
L 84.175906 139.317679 
L 84.250322 139.317679 
L 84.324739 138.763508 
L 84.473572 138.708091 
L 84.547988 137.766 
L 84.771238 137.710583 
L 84.845655 137.156413 
L 84.994488 137.100995 
L 85.068904 136.546825 
L 85.292154 136.435991 
L 85.36657 136.048071 
L 85.440987 136.048071 
L 85.515403 135.4939 
L 85.58982 135.4939 
L 85.664236 135.161398 
L 85.81307 135.050563 
L 85.887486 134.219307 
L 85.961903 134.219307 
L 86.036319 133.831388 
L 86.110736 133.831388 
L 86.185152 132.778463 
L 86.259569 132.778463 
L 86.333985 132.279709 
L 86.482818 132.279709 
L 86.557235 131.836373 
L 86.929318 131.780956 
L 87.003734 130.9497 
L 87.3014 130.894282 
L 87.375817 130.672614 
L 87.7479 130.56178 
L 87.7479 130.450946 
L 87.896733 130.450946 
L 87.896733 130.17386 
L 88.045566 130.17386 
L 88.119982 129.952192 
L 88.194399 129.952192 
L 88.268815 129.342604 
L 88.343232 129.342604 
L 88.343232 129.120936 
L 88.566481 129.120936 
L 88.640898 128.788433 
L 88.789731 128.733016 
L 88.864148 127.90176 
L 89.012981 127.90176 
L 89.087397 127.125921 
L 89.23623 127.125921 
L 89.310647 126.405499 
L 89.533896 126.294665 
L 89.533896 125.906745 
L 89.980396 125.851328 
L 90.054812 125.075489 
L 90.129229 125.075489 
L 90.129229 124.909238 
L 90.278062 124.909238 
L 90.352478 123.468394 
L 90.501311 123.468394 
L 90.501311 123.302142 
L 91.096644 123.191308 
L 91.096644 123.135891 
L 91.245477 123.135891 
L 91.319893 122.858806 
L 91.468726 122.858806 
L 91.543143 122.360052 
L 91.617559 122.360052 
L 91.691976 121.805881 
L 91.766393 121.805881 
L 91.766393 121.528796 
L 91.915226 121.528796 
L 91.989642 120.919208 
L 92.138475 120.863791 
L 92.212892 120.420454 
L 92.361725 120.365037 
L 92.436141 120.143369 
L 92.584974 120.143369 
L 92.584974 119.977118 
L 93.10589 119.866283 
L 93.180307 119.533781 
L 93.32914 119.422947 
L 93.403556 118.924193 
L 93.775639 118.813359 
L 93.850056 118.480856 
L 93.924472 118.480856 
L 93.998889 118.259188 
L 94.222138 118.148354 
L 94.296555 117.871268 
L 94.445388 117.871268 
L 94.519804 117.6496 
L 94.594221 117.6496 
L 94.594221 117.427932 
L 94.743054 117.427932 
L 94.743054 117.261681 
L 94.966304 117.150846 
L 95.04072 116.652093 
L 95.338386 116.652093 
L 95.338386 116.485841 
L 95.636052 116.430424 
L 95.636052 116.31959 
L 95.933719 116.31959 
L 96.008135 115.654585 
L 96.082552 115.654585 
L 96.156968 115.3775 
L 96.305801 115.322083 
L 96.380218 114.878746 
L 96.603467 114.823329 
L 96.677884 114.435409 
L 96.97555 114.324575 
L 97.049967 113.881239 
L 97.124383 113.881239 
L 97.1988 113.382485 
L 97.496466 113.271651 
L 97.570882 113.049982 
L 97.794132 112.939148 
L 97.868549 112.551229 
L 98.091798 112.440395 
L 98.166215 112.274143 
L 98.389464 112.274143 
L 98.463881 112.052475 
L 98.612714 112.052475 
L 98.68713 111.719972 
L 98.761547 111.719972 
L 98.761547 111.442887 
L 99.059213 111.332053 
L 99.13363 111.054968 
L 99.208046 111.054968 
L 99.282463 110.777882 
L 99.728962 110.722465 
L 99.803379 110.334545 
L 100.026628 110.223711 
L 100.026628 110.168294 
L 100.84521 110.05746 
L 100.84521 109.724958 
L 101.142876 109.724958 
L 101.217293 109.447872 
L 101.291709 109.447872 
L 101.291709 109.11537 
L 101.514959 109.004536 
L 101.589375 108.616616 
L 101.738208 108.616616 
L 101.738208 108.450365 
L 102.035875 108.394948 
L 102.035875 108.062445 
L 102.259124 108.062445 
L 102.259124 107.896194 
L 102.55679 107.78536 
L 102.55679 107.729943 
L 102.928873 107.619108 
L 102.928873 107.563691 
L 103.152123 107.508274 
L 103.226539 107.175772 
L 103.821872 107.064938 
L 103.821872 107.009521 
L 104.193954 106.898686 
L 104.268371 106.122847 
L 104.342787 106.122847 
L 104.417204 105.734928 
L 104.863703 105.624094 
L 104.863703 105.291591 
L 105.161369 105.180757 
L 105.161369 105.12534 
L 105.384619 105.069923 
L 105.459035 104.73742 
L 105.607868 104.73742 
L 105.682285 104.349501 
L 105.756701 104.349501 
L 105.831118 104.072415 
L 106.128784 103.961581 
L 106.128784 103.906164 
L 106.500867 103.79533 
L 106.575283 103.40741 
L 107.245032 103.296576 
L 107.245032 103.185742 
L 107.617115 103.074908 
L 107.691531 102.964074 
L 107.765948 102.964074 
L 107.765948 102.742405 
L 108.138031 102.631571 
L 108.212447 102.132817 
L 108.36128 102.021983 
L 108.435697 101.744898 
L 108.58453 101.634064 
L 108.658946 101.079893 
L 108.733363 101.079893 
L 108.80778 100.581139 
L 109.254279 100.525722 
L 109.328695 100.026968 
L 109.551945 100.026968 
L 109.626361 99.8053 
L 109.775194 99.8053 
L 109.849611 99.528215 
L 110.29611 99.417381 
L 110.370527 99.140295 
L 110.668193 99.029461 
L 110.668193 98.918627 
L 111.189109 98.807793 
L 111.189109 98.641541 
L 111.412358 98.586124 
L 111.412358 98.47529 
L 111.710024 98.364456 
L 111.710024 98.253622 
L 111.933274 98.142788 
L 112.007691 97.754868 
L 112.379773 97.644034 
L 112.45419 97.5332 
L 112.677439 97.422366 
L 112.677439 97.256114 
L 112.900689 97.200697 
L 112.900689 97.089863 
L 113.421605 97.034446 
L 113.496021 96.757361 
L 114.091354 96.646526 
L 114.091354 96.591109 
L 114.38902 96.480275 
L 114.463436 95.981522 
L 114.761102 95.981522 
L 114.761102 95.649019 
L 115.133185 95.538185 
L 115.207602 95.150265 
L 115.654101 95.094848 
L 115.728517 94.651512 
L 115.877351 94.651512 
L 115.877351 94.152758 
L 116.175017 94.041924 
L 116.249433 93.709421 
L 116.547099 93.598587 
L 116.547099 93.210667 
L 116.919182 93.099833 
L 116.993599 92.656497 
L 117.588931 92.545663 
L 117.663347 92.323994 
L 117.886597 92.21316 
L 117.886597 92.046909 
L 118.109847 92.046909 
L 118.184263 91.658989 
L 118.333096 91.548155 
L 118.333096 91.437321 
L 119.002845 91.326487 
L 119.077262 91.160235 
L 119.300511 91.049401 
L 119.374928 90.88315 
L 119.97026 90.772316 
L 120.044677 90.439813 
L 120.19351 90.384396 
L 120.19351 90.273562 
L 120.416759 90.273562 
L 120.416759 90.107311 
L 121.012092 89.996477 
L 121.012092 89.830226 
L 121.235341 89.830226 
L 121.235341 89.608557 
L 121.458591 89.497723 
L 121.458591 89.331472 
L 122.351589 89.220638 
L 122.426006 89.109804 
L 122.574839 89.109804 
L 122.649255 88.777301 
L 122.872505 88.666467 
L 122.872505 88.555633 
L 123.021338 88.555633 
L 123.095755 88.22313 
L 123.170171 88.22313 
L 123.170171 88.056879 
L 123.542254 87.946045 
L 123.542254 87.890628 
L 123.765503 87.890628 
L 123.765503 87.724376 
L 124.212003 87.668959 
L 124.212003 87.558125 
L 125.105001 87.447291 
L 125.105001 87.391874 
L 125.402667 87.28104 
L 125.477084 87.170206 
L 125.77475 87.114789 
L 125.849166 86.837703 
L 125.923583 86.837703 
L 125.923583 86.671452 
L 126.518915 86.560618 
L 126.518915 86.394367 
L 126.816581 86.338949 
L 126.890998 86.117281 
L 126.965415 86.117281 
L 127.039831 85.895613 
L 127.263081 85.840196 
L 127.263081 85.673944 
L 127.783996 85.56311 
L 127.783996 85.507693 
L 128.379329 85.396859 
L 128.379329 85.341442 
L 129.049078 85.230608 
L 129.123494 85.119774 
L 129.42116 85.00894 
L 129.495577 84.787271 
L 130.388575 84.676437 
L 130.462992 84.399352 
L 130.909491 84.288517 
L 130.909491 84.2331 
L 131.281574 84.177683 
L 131.35599 83.900598 
L 131.504823 83.789764 
L 131.57924 83.512678 
L 131.728073 83.512678 
L 131.802489 83.29101 
L 132.397822 83.235593 
L 132.397822 83.124759 
L 133.067571 83.013925 
L 133.141987 82.847673 
L 133.29082 82.792256 
L 133.365237 82.404337 
L 133.737319 82.34892 
L 133.811736 82.071834 
L 133.960569 82.071834 
L 133.960569 81.850166 
L 134.332652 81.739332 
L 134.407068 81.628498 
L 134.779151 81.517663 
L 134.779151 81.462246 
L 135.076817 81.406829 
L 135.076817 81.240578 
L 135.523316 81.129744 
L 135.523316 81.01891 
L 135.746566 80.908076 
L 135.820982 80.797241 
L 136.118649 80.741824 
L 136.193065 80.520156 
L 136.341898 80.409322 
L 136.416315 80.187653 
L 136.713981 80.076819 
L 136.713981 79.965985 
L 136.862814 79.965985 
L 136.93723 79.522649 
L 137.681396 79.467231 
L 137.755812 79.245563 
L 138.276728 79.134729 
L 138.276728 79.079312 
L 138.574394 79.079312 
L 138.574394 78.802226 
L 139.31856 78.691392 
L 139.31856 78.580558 
L 140.062725 78.469724 
L 140.062725 78.35889 
L 140.583641 78.248056 
L 140.583641 78.081804 
L 141.104557 77.97097 
L 141.104557 77.915553 
L 141.327806 77.804719 
L 141.402223 77.638468 
L 141.699889 77.527634 
L 141.774305 77.305965 
L 142.071972 77.195131 
L 142.146388 77.02888 
L 142.369638 76.973463 
L 142.369638 76.751794 
L 142.667304 76.696377 
L 142.667304 76.585543 
L 143.113803 76.474709 
L 143.113803 76.253041 
L 143.337053 76.197624 
L 143.411469 75.975955 
L 143.709135 75.865121 
L 143.709135 75.809704 
L 143.932385 75.754287 
L 144.006802 75.421785 
L 144.67655 75.366367 
L 144.750967 75.144699 
L 145.12305 75.144699 
L 145.12305 74.923031 
L 145.718382 74.812197 
L 145.718382 74.701362 
L 146.388131 74.590528 
L 146.388131 74.535111 
L 146.760213 74.479694 
L 146.83463 74.313443 
L 146.909046 74.313443 
L 146.983463 74.036358 
L 147.504379 74.036358 
L 147.504379 73.703855 
L 147.876461 73.648438 
L 147.950878 73.42677 
L 148.620627 73.315935 
L 148.620627 73.205101 
L 148.918293 73.149684 
L 148.918293 73.03885 
L 149.364792 72.928016 
L 149.439209 72.761765 
L 150.108958 72.65093 
L 150.183374 72.540096 
L 150.853123 72.429262 
L 150.853123 72.373845 
L 151.522872 72.263011 
L 151.522872 72.207594 
L 152.341454 72.152177 
L 152.341454 72.041343 
L 152.713536 72.041343 
L 152.713536 71.819674 
L 153.234452 71.70884 
L 153.308869 71.542589 
L 153.383285 71.542589 
L 153.383285 71.376338 
L 153.606535 71.265503 
L 153.606535 71.154669 
L 154.425117 71.154669 
L 154.425117 70.988418 
L 154.648366 70.988418 
L 154.722783 70.711333 
L 154.946032 70.655916 
L 154.946032 70.545081 
L 155.541365 70.434247 
L 155.541365 70.37883 
L 155.690198 70.37883 
L 155.764614 70.101745 
L 155.913447 70.101745 
L 155.913447 69.935494 
L 156.062281 69.935494 
L 156.062281 69.713825 
L 156.50878 69.602991 
L 156.50878 69.547574 
L 157.401778 69.43674 
L 157.476195 69.270489 
L 157.848277 69.159654 
L 157.848277 69.104237 
L 158.22036 68.993403 
L 158.294777 68.827152 
L 159.187775 68.716318 
L 159.187775 68.605484 
L 159.783107 68.550067 
L 159.783107 68.439232 
L 160.527273 68.383815 
L 160.527273 68.162147 
L 160.676106 68.162147 
L 160.676106 67.995896 
L 160.973772 67.885062 
L 160.973772 67.829644 
L 161.197022 67.71881 
L 161.271438 67.607976 
L 161.717937 67.497142 
L 161.717937 67.441725 
L 162.09002 67.330891 
L 162.164437 67.220057 
L 162.462103 67.109222 
L 162.536519 66.942971 
L 162.759769 66.832137 
L 162.834185 66.721303 
L 163.131852 66.610469 
L 163.206268 66.444217 
L 163.429518 66.333383 
L 163.503934 66.222549 
L 163.876017 66.111715 
L 163.876017 66.056298 
L 164.620182 66.000881 
L 164.620182 65.612961 
L 164.917848 65.557544 
L 164.917848 65.391293 
L 165.066681 65.391293 
L 165.141098 65.169625 
L 165.587597 65.114208 
L 165.587597 64.892539 
L 166.406179 64.837122 
L 166.406179 64.615454 
L 166.927095 64.50462 
L 166.927095 64.449203 
L 167.224761 64.393785 
L 167.299178 64.227534 
L 167.448011 64.172117 
L 167.522427 64.005866 
L 167.820093 63.895032 
L 167.820093 63.839615 
L 168.341009 63.72878 
L 168.341009 63.617946 
L 169.308424 63.562529 
L 169.308424 63.451695 
L 170.201423 63.340861 
L 170.275839 63.17461 
L 171.243254 63.063776 
L 171.317671 62.78669 
L 171.987419 62.675856 
L 172.061836 62.509605 
L 172.359502 62.454188 
L 172.359502 62.343353 
L 172.880418 62.232519 
L 172.954834 62.066268 
L 173.326917 61.955434 
L 173.326917 61.900017 
L 173.996666 61.8446 
L 173.996666 61.678348 
L 174.443165 61.567514 
L 174.443165 61.512097 
L 174.964081 61.401263 
L 174.964081 61.345846 
L 175.782663 61.235012 
L 175.782663 61.179595 
L 176.154745 61.124178 
L 176.154745 61.013344 
L 177.270994 60.902509 
L 177.270994 60.736258 
L 178.089575 60.625424 
L 178.163992 60.51459 
L 178.610491 60.459173 
L 178.684908 60.237504 
L 180.694154 60.182087 
L 180.694154 60.071253 
L 181.43832 59.960419 
L 181.512736 59.794168 
L 182.256902 59.683334 
L 182.256902 59.572499 
L 182.703401 59.461665 
L 182.703401 59.406248 
L 183.596399 59.295414 
L 183.596399 59.239997 
L 184.787064 59.129163 
L 184.787064 59.073746 
L 186.498644 58.962912 
L 186.498644 58.907494 
L 187.391643 58.79666 
L 187.391643 58.741243 
L 188.135808 58.630409 
L 188.135808 58.574992 
L 189.326473 58.464158 
L 189.326473 58.353324 
L 191.186886 58.242489 
L 191.186886 58.187072 
L 191.707802 58.187072 
L 191.782218 57.965404 
L 192.228717 57.85457 
L 192.303134 57.743736 
L 192.972883 57.632902 
L 192.972883 57.522067 
L 193.940298 57.411233 
L 193.940298 57.355816 
L 194.833296 57.244982 
L 194.833296 57.189565 
L 195.726295 57.134148 
L 195.726295 57.023314 
L 196.023961 56.91248 
L 196.023961 56.857062 
L 200.042454 56.746228 
L 200.042454 56.635394 
L 201.530785 56.52456 
L 201.530785 56.413726 
L 202.423783 56.302892 
L 202.423783 56.247475 
L 204.730696 56.13664 
L 204.730696 56.081223 
L 205.698111 55.970389 
L 205.698111 55.914972 
L 206.442276 55.804138 
L 206.442276 55.693304 
L 208.749189 55.58247 
L 208.749189 55.527053 
L 209.939853 55.471635 
L 209.939853 55.360801 
L 210.832852 55.249967 
L 210.832852 55.19455 
L 212.321182 55.083716 
L 212.395599 54.972882 
L 212.842098 54.862048 
L 212.842098 54.80663 
L 213.437431 54.695796 
L 213.437431 54.529545 
L 214.702512 54.418711 
L 214.702512 54.363294 
L 215.149011 54.307877 
L 215.223427 54.141626 
L 217.604757 54.030791 
L 217.604757 53.975374 
L 218.869838 53.919957 
L 218.944254 53.753706 
L 219.539587 53.753706 
L 219.539587 53.532038 
L 220.655835 53.421203 
L 220.655835 53.365786 
L 221.102334 53.310369 
L 221.102334 53.199535 
L 221.995332 53.088701 
L 221.995332 53.033284 
L 223.55808 52.92245 
L 223.55808 52.867033 
L 225.344076 52.756198 
L 225.344076 52.700781 
L 228.692821 52.589947 
L 228.692821 52.53453 
L 231.148566 52.423696 
L 231.222983 52.312862 
L 231.818315 52.257445 
L 231.892732 52.091194 
L 232.264814 52.091194 
L 232.264814 51.924942 
L 232.934563 51.814108 
L 232.934563 51.758691 
L 234.348477 51.647857 
L 234.348477 51.59244 
L 235.018226 51.481606 
L 235.018226 51.426189 
L 237.697222 51.315354 
L 237.697222 51.259937 
L 238.664637 51.20452 
L 238.664637 51.093686 
L 239.780885 50.982852 
L 239.780885 50.927435 
L 242.831963 50.816601 
L 242.831963 50.761184 
L 243.948211 50.650349 
L 243.948211 50.539515 
L 244.990042 50.428681 
L 244.990042 50.373264 
L 246.850456 50.26243 
L 246.850456 50.207013 
L 248.04112 50.096179 
L 248.04112 50.040762 
L 248.710869 49.929927 
L 248.710869 49.87451 
L 249.97595 49.763676 
L 249.97595 49.708259 
L 250.348033 49.708259 
L 250.422449 49.431174 
L 251.91078 49.320339 
L 251.91078 49.264922 
L 252.431696 49.154088 
L 252.431696 49.098671 
L 253.250278 48.987837 
L 253.250278 48.93242 
L 254.292109 48.821586 
L 254.366526 48.710752 
L 255.185108 48.599917 
L 255.185108 48.5445 
L 257.119938 48.433666 
L 257.119938 48.378249 
L 260.468682 48.267415 
L 260.468682 48.211998 
L 262.031429 48.101164 
L 262.031429 48.045747 
L 265.826673 47.934912 
L 265.826673 47.879495 
L 270.291665 47.768661 
L 270.291665 47.713244 
L 273.938075 47.60241 
L 273.938075 47.491576 
L 275.203156 47.380742 
L 275.203156 47.325325 
L 282.495977 47.21449 
L 282.495977 47.159073 
L 283.240142 47.048239 
L 283.240142 46.992822 
L 288.821383 46.881988 
L 288.821383 46.826571 
L 289.714381 46.715737 
L 289.714381 46.66032 
L 290.607379 46.549485 
L 290.607379 46.494068 
L 293.658457 46.438651 
L 293.658457 46.327817 
L 296.114203 46.216983 
L 296.114203 46.161566 
L 299.61178 46.050732 
L 299.61178 45.995315 
L 301.76986 45.88448 
L 301.76986 45.829063 
L 306.755768 45.718229 
L 306.755768 45.662812 
L 310.625428 45.551978 
L 310.625428 45.496561 
L 316.057835 45.385727 
L 316.057835 45.33031 
L 318.439164 45.219475 
L 318.439164 45.164058 
L 319.406579 45.108641 
L 319.406579 44.997807 
L 324.466904 44.886973 
L 324.466904 44.831556 
L 338.382796 44.720722 
L 338.382796 44.665305 
L 366.214581 44.554471 
L 366.214581 44.499053 
L 373.581818 44.443636 
L 373.581818 44.443636 
" style="fill:none;stroke:#bf00bf;stroke-linecap:square;stroke-width:1.5;"/>
    <defs>
     <path d="M -0 2.828427 
L 2.828427 0 
L 0 -2.828427 
L -2.828427 -0 
z
" id="m717b01aa95" style="stroke:#bf00bf;stroke-linejoin:miter;"/>
    </defs>
    <g clip-path="url(#pdf1e76389d)">
     <use style="fill:#bf00bf;stroke:#bf00bf;stroke-linejoin:miter;" x="69.218182" xlink:href="#m717b01aa95" y="242.116364"/>
     <use style="fill:#bf00bf;stroke:#bf00bf;stroke-linejoin:miter;" x="72.939009" xlink:href="#m717b01aa95" y="198.669372"/>
     <use style="fill:#bf00bf;stroke:#bf00bf;stroke-linejoin:miter;" x="76.808669" xlink:href="#m717b01aa95" y="163.091606"/>
     <use style="fill:#bf00bf;stroke:#bf00bf;stroke-linejoin:miter;" x="81.49691" xlink:href="#m717b01aa95" y="145.136472"/>
     <use style="fill:#bf00bf;stroke:#bf00bf;stroke-linejoin:miter;" x="86.036319" xlink:href="#m717b01aa95" y="134.053056"/>
     <use style="fill:#bf00bf;stroke:#bf00bf;stroke-linejoin:miter;" x="91.766393" xlink:href="#m717b01aa95" y="121.805881"/>
     <use style="fill:#bf00bf;stroke:#bf00bf;stroke-linejoin:miter;" x="97.1988" xlink:href="#m717b01aa95" y="113.65957"/>
     <use style="fill:#bf00bf;stroke:#bf00bf;stroke-linejoin:miter;" x="103.970705" xlink:href="#m717b01aa95" y="107.009521"/>
     <use style="fill:#bf00bf;stroke:#bf00bf;stroke-linejoin:miter;" x="110.29611" xlink:href="#m717b01aa95" y="99.417381"/>
     <use style="fill:#bf00bf;stroke:#bf00bf;stroke-linejoin:miter;" x="117.588931" xlink:href="#m717b01aa95" y="92.545663"/>
     <use style="fill:#bf00bf;stroke:#bf00bf;stroke-linejoin:miter;" x="125.77475" xlink:href="#m717b01aa95" y="87.114789"/>
     <use style="fill:#bf00bf;stroke:#bf00bf;stroke-linejoin:miter;" x="133.737319" xlink:href="#m717b01aa95" y="82.34892"/>
     <use style="fill:#bf00bf;stroke:#bf00bf;stroke-linejoin:miter;" x="141.923138" xlink:href="#m717b01aa95" y="77.305965"/>
     <use style="fill:#bf00bf;stroke:#bf00bf;stroke-linejoin:miter;" x="150.629873" xlink:href="#m717b01aa95" y="72.540096"/>
     <use style="fill:#bf00bf;stroke:#bf00bf;stroke-linejoin:miter;" x="161.122605" xlink:href="#m717b01aa95" y="67.829644"/>
     <use style="fill:#bf00bf;stroke:#bf00bf;stroke-linejoin:miter;" x="168.341009" xlink:href="#m717b01aa95" y="63.72878"/>
     <use style="fill:#bf00bf;stroke:#bf00bf;stroke-linejoin:miter;" x="182.480151" xlink:href="#m717b01aa95" y="59.572499"/>
     <use style="fill:#bf00bf;stroke:#bf00bf;stroke-linejoin:miter;" x="202.349367" xlink:href="#m717b01aa95" y="56.358309"/>
     <use style="fill:#bf00bf;stroke:#bf00bf;stroke-linejoin:miter;" x="223.260413" xlink:href="#m717b01aa95" y="52.977867"/>
     <use style="fill:#bf00bf;stroke:#bf00bf;stroke-linejoin:miter;" x="249.97595" xlink:href="#m717b01aa95" y="49.763676"/>
     <use style="fill:#bf00bf;stroke:#bf00bf;stroke-linejoin:miter;" x="289.714381" xlink:href="#m717b01aa95" y="46.715737"/>
    </g>
   </g>
   <g id="line2d_26">
    <path clip-path="url(#pdf1e76389d)" d="M 69.218182 241.85389 
L 69.292489 195.547781 
L 69.366797 195.547781 
L 69.441104 183.891781 
L 69.515412 183.891781 
L 69.589719 180.024108 
L 69.664027 180.024108 
L 69.738335 170.16949 
L 69.812642 170.16949 
L 69.88695 163.546763 
L 69.961257 163.546763 
L 70.035565 160.049963 
L 70.109872 160.049963 
L 70.18418 157.453854 
L 70.332795 157.453854 
L 70.407102 153.26829 
L 70.48141 153.26829 
L 70.555717 151.254981 
L 70.630025 151.254981 
L 70.704332 150.036399 
L 70.77864 150.036399 
L 70.852947 149.453599 
L 70.927255 149.453599 
L 71.001563 148.182036 
L 71.07587 148.182036 
L 71.150178 147.864145 
L 71.298793 147.811163 
L 71.3731 146.592581 
L 71.447408 146.592581 
L 71.521715 145.850836 
L 71.596023 145.850836 
L 71.67033 145.532945 
L 71.818945 145.532945 
L 71.893253 145.321018 
L 71.96756 145.321018 
L 72.041868 144.420327 
L 72.116175 144.420327 
L 72.190483 143.837527 
L 72.26479 143.837527 
L 72.339098 141.347381 
L 72.413406 141.347381 
L 72.487713 139.757927 
L 72.562021 139.757927 
L 72.636328 137.797599 
L 72.710636 137.797599 
L 72.784943 135.466399 
L 72.859251 135.466399 
L 72.859251 132.28749 
L 73.007866 132.28749 
L 73.082173 130.115236 
L 73.230788 130.062254 
L 73.305096 129.850327 
L 73.379403 129.850327 
L 73.453711 128.366836 
L 73.528018 128.366836 
L 73.602326 125.770727 
L 73.676634 125.770727 
L 73.676634 125.5588 
L 73.825249 125.5588 
L 73.899556 123.598472 
L 73.973864 123.598472 
L 74.048171 123.386545 
L 74.122479 123.386545 
L 74.196786 122.750763 
L 74.271094 122.750763 
L 74.271094 122.326909 
L 74.419709 122.326909 
L 74.494016 119.359927 
L 74.568324 119.359927 
L 74.642631 118.247309 
L 74.791246 118.247309 
L 74.865554 117.823454 
L 74.939862 117.823454 
L 75.014169 116.181018 
L 75.162784 116.128036 
L 75.237092 115.174363 
L 75.311399 115.174363 
L 75.385707 114.326654 
L 75.460014 114.326654 
L 75.534322 113.055091 
L 75.608629 113.055091 
L 75.682937 111.306691 
L 75.905859 111.306691 
L 75.905859 110.882836 
L 76.128782 110.882836 
L 76.203089 109.505309 
L 76.277397 109.505309 
L 76.351705 108.975491 
L 76.426012 108.975491 
L 76.50032 107.386036 
L 76.574627 107.386036 
L 76.648935 107.121127 
L 76.723242 107.121127 
L 76.79755 106.379381 
L 76.946165 106.379381 
L 77.020472 105.584654 
L 77.09478 105.584654 
L 77.169087 104.842909 
L 77.243395 104.842909 
L 77.317702 103.677309 
L 77.466317 103.677309 
L 77.540625 103.359418 
L 77.614933 103.359418 
L 77.68924 103.041527 
L 77.763548 103.041527 
L 77.837855 102.8296 
L 77.912163 102.8296 
L 77.98647 102.458727 
L 78.135085 102.405745 
L 78.209393 101.028218 
L 78.2837 101.028218 
L 78.358008 99.968582 
L 78.432315 99.968582 
L 78.506623 99.756654 
L 78.729545 99.756654 
L 78.803853 99.3328 
L 78.878161 99.3328 
L 78.878161 98.538072 
L 79.101083 98.432109 
L 79.175391 97.796327 
L 79.249698 97.796327 
L 79.249698 97.425454 
L 79.472621 97.319491 
L 79.546928 97.160545 
L 79.844158 97.054582 
L 79.918466 96.206872 
L 79.992773 96.206872 
L 80.067081 95.730036 
L 80.141388 95.730036 
L 80.215696 94.988291 
L 80.290004 94.988291 
L 80.364311 94.723382 
L 80.512926 94.723382 
L 80.587234 94.193563 
L 80.810156 94.0876 
L 80.810156 93.663745 
L 80.958771 93.663745 
L 81.033079 92.074291 
L 81.107386 92.074291 
L 81.181694 91.650436 
L 81.404616 91.544472 
L 81.478924 91.279563 
L 81.553232 91.279563 
L 81.627539 89.902036 
L 81.701847 89.902036 
L 81.776154 89.4252 
L 81.999077 89.319236 
L 82.073384 88.736436 
L 82.147692 88.736436 
L 82.221999 88.153636 
L 82.519229 88.100654 
L 82.519229 87.888727 
L 82.742152 87.835745 
L 82.742152 87.729782 
L 82.965075 87.729782 
L 82.965075 87.358909 
L 83.262305 87.358909 
L 83.336612 86.776109 
L 83.633842 86.670145 
L 83.70815 86.5112 
L 83.782457 86.5112 
L 83.782457 86.299272 
L 84.00538 86.193309 
L 84.079688 85.769454 
L 84.30261 85.663491 
L 84.30261 85.610509 
L 84.451225 85.610509 
L 84.451225 85.398582 
L 84.59984 85.398582 
L 84.674148 84.974727 
L 85.045685 84.868763 
L 85.045685 84.656836 
L 85.417223 84.550873 
L 85.417223 84.444909 
L 85.640146 84.444909 
L 85.640146 84.127018 
L 85.863068 84.021054 
L 85.937376 83.120363 
L 86.011683 83.120363 
L 86.011683 82.855454 
L 86.457528 82.802473 
L 86.531836 82.537563 
L 86.754759 82.4316 
L 86.754759 82.378618 
L 86.903374 82.378618 
L 86.903374 82.166691 
L 87.126296 82.113709 
L 87.200604 81.371963 
L 87.274911 81.371963 
L 87.349219 81.054073 
L 87.423526 81.054073 
L 87.423526 80.842145 
L 87.646449 80.842145 
L 87.646449 80.524254 
L 87.795064 80.524254 
L 87.869371 79.994436 
L 87.943679 79.994436 
L 88.017987 79.729527 
L 88.240909 79.623563 
L 88.240909 79.464618 
L 88.538139 79.411636 
L 88.538139 79.040763 
L 88.835369 78.987782 
L 88.835369 78.828836 
L 89.058292 78.775854 
L 89.058292 78.563927 
L 89.42983 78.457963 
L 89.504137 78.034109 
L 89.72706 77.928145 
L 89.801367 77.7692 
L 89.875675 77.7692 
L 89.875675 77.610254 
L 90.172905 77.610254 
L 90.172905 77.451309 
L 90.470135 77.451309 
L 90.544442 76.974473 
L 90.91598 76.868509 
L 90.990288 76.497636 
L 91.21321 76.391673 
L 91.287518 76.0208 
L 91.881978 75.914836 
L 91.881978 75.861854 
L 92.179208 75.755891 
L 92.253516 75.649927 
L 92.402131 75.649927 
L 92.476438 75.385018 
L 92.550746 75.385018 
L 92.625053 75.173091 
L 92.922283 75.067127 
L 92.996591 74.961163 
L 93.591051 74.8552 
L 93.591051 74.749236 
L 94.036896 74.749236 
L 94.111204 74.431345 
L 94.482741 74.325382 
L 94.482741 74.2724 
L 94.854279 74.166436 
L 94.928587 73.901527 
L 95.300124 73.795563 
L 95.374432 73.583636 
L 95.597354 73.477673 
L 95.671662 73.000836 
L 95.968892 72.894873 
L 95.968892 72.788909 
L 96.117507 72.788909 
L 96.191815 72.418036 
L 96.266122 72.418036 
L 96.266122 72.153127 
L 96.414737 72.153127 
L 96.489045 71.782254 
L 96.93489 71.676291 
L 97.009197 71.570327 
L 97.083505 71.570327 
L 97.083505 71.3584 
L 97.380735 71.252436 
L 97.380735 71.146473 
L 97.752273 71.093491 
L 97.752273 70.987527 
L 98.272425 70.934545 
L 98.272425 70.722618 
L 98.42104 70.722618 
L 98.42104 70.510691 
L 98.941193 70.404727 
L 98.941193 70.033854 
L 99.089808 70.033854 
L 99.089808 69.821927 
L 99.461346 69.715963 
L 99.461346 69.61 
L 99.907191 69.557018 
L 99.907191 69.345091 
L 100.130114 69.345091 
L 100.130114 69.133163 
L 100.650266 69.0272 
L 100.650266 68.974218 
L 101.096112 68.868254 
L 101.170419 68.762291 
L 101.987802 68.656327 
L 102.062109 68.497382 
L 102.210724 68.4444 
L 102.210724 68.232473 
L 102.359339 68.232473 
L 102.359339 68.020545 
L 102.9538 67.914582 
L 102.9538 67.808618 
L 103.176722 67.755636 
L 103.25103 67.490727 
L 103.473952 67.437745 
L 103.54826 67.066873 
L 103.696875 67.013891 
L 103.696875 66.907927 
L 103.919798 66.801964 
L 103.994105 66.696 
L 104.068413 66.696 
L 104.14272 66.272145 
L 104.365643 66.166182 
L 104.365643 66.1132 
L 104.514258 66.1132 
L 104.588565 65.689345 
L 105.405948 65.583382 
L 105.405948 65.477418 
L 105.628871 65.477418 
L 105.703178 65.265491 
L 106.000408 65.159527 
L 106.000408 65.106545 
L 106.743484 65.053564 
L 106.817791 64.682691 
L 107.337944 64.576727 
L 107.412251 64.417782 
L 107.635174 64.311818 
L 107.635174 64.258836 
L 107.783789 64.258836 
L 107.783789 64.099891 
L 108.155327 63.993927 
L 108.229634 63.782 
L 108.378249 63.729018 
L 108.452557 63.570073 
L 108.675479 63.517091 
L 108.749787 63.305164 
L 109.047017 63.252182 
L 109.047017 63.093236 
L 110.16163 62.987273 
L 110.16163 62.881309 
L 110.533168 62.828327 
L 110.533168 62.669382 
L 110.904705 62.563418 
L 110.979013 62.457454 
L 111.722088 62.351491 
L 111.722088 62.298509 
L 112.316548 62.192545 
L 112.316548 62.0336 
L 112.539471 62.0336 
L 112.613778 61.662727 
L 112.762393 61.556764 
L 112.762393 61.503782 
L 113.282546 61.397818 
L 113.356854 61.185891 
L 113.802699 61.079927 
L 113.877006 60.920982 
L 114.025621 60.868 
L 114.099929 60.709054 
L 114.248544 60.656073 
L 114.248544 60.550109 
L 114.545774 60.497127 
L 114.620082 60.126254 
L 115.140234 60.020291 
L 115.140234 59.967309 
L 116.18054 59.861345 
L 116.18054 59.808364 
L 116.849308 59.7024 
L 116.923615 59.543454 
L 117.592383 59.437491 
L 117.66669 59.331527 
L 118.112536 59.278545 
L 118.112536 59.172582 
L 118.484073 59.172582 
L 118.484073 59.013636 
L 118.781303 58.907673 
L 118.855611 58.695745 
L 119.598686 58.642764 
L 119.598686 58.5368 
L 120.267454 58.483818 
L 120.267454 58.377854 
L 120.564684 58.324873 
L 120.564684 58.218909 
L 121.382067 58.165927 
L 121.382067 58.059964 
L 122.050835 57.954 
L 122.050835 57.901018 
L 125.023136 57.795054 
L 125.097443 57.583127 
L 125.320366 57.477164 
L 125.320366 57.424182 
L 125.766211 57.318218 
L 125.766211 57.265236 
L 126.434979 57.159273 
L 126.434979 57.106291 
L 127.623899 57.053309 
L 127.698207 56.894364 
L 127.772514 56.894364 
L 127.772514 56.682436 
L 128.664205 56.576473 
L 128.738512 56.470509 
L 129.70451 56.364545 
L 129.70451 56.311564 
L 130.744815 56.2056 
L 130.744815 56.152618 
L 131.636506 56.046654 
L 131.710813 55.940691 
L 132.825426 55.834727 
L 132.825426 55.781745 
L 134.460192 55.675782 
L 134.534499 55.569818 
L 135.797727 55.463854 
L 135.797727 55.357891 
L 137.060955 55.251927 
L 137.060955 55.198945 
L 138.472798 55.092982 
L 138.547106 54.987018 
L 139.438796 54.881054 
L 139.438796 54.722109 
L 140.627717 54.616145 
L 140.702024 54.510182 
L 141.073562 54.404218 
L 141.073562 54.351236 
L 141.74233 54.298254 
L 141.816637 54.086327 
L 142.559712 53.980364 
L 142.63402 53.821418 
L 144.12017 53.768436 
L 144.12017 53.662473 
L 144.640323 53.609491 
L 144.640323 53.503527 
L 145.309091 53.397564 
L 145.309091 53.2916 
L 146.795241 53.185636 
L 146.795241 53.132654 
L 148.058469 53.026691 
L 148.132777 52.867745 
L 148.95016 52.814764 
L 148.95016 52.7088 
L 149.767543 52.655818 
L 149.767543 52.549855 
L 151.625231 52.443891 
L 151.625231 52.390909 
L 151.996768 52.284945 
L 151.996768 52.231964 
L 153.037074 52.178982 
L 153.037074 52.073018 
L 154.894762 51.967055 
L 154.894762 51.914073 
L 155.86076 51.808109 
L 155.86076 51.755127 
L 157.272603 51.649164 
L 157.272603 51.596182 
L 158.015678 51.490218 
L 158.015678 51.437236 
L 158.833061 51.331273 
L 158.833061 51.278291 
L 160.913672 51.172327 
L 160.913672 51.119345 
L 162.1769 51.066364 
L 162.1769 50.9604 
L 163.66305 50.854436 
L 163.66305 50.801455 
L 164.629048 50.695491 
L 164.629048 50.642509 
L 166.338121 50.536545 
L 166.338121 50.430582 
L 170.573651 50.324618 
L 170.573651 50.271636 
L 172.134109 50.218655 
L 172.134109 50.112691 
L 174.734872 50.006727 
L 174.80918 49.900764 
L 176.29533 49.7948 
L 176.29533 49.741818 
L 178.153018 49.635855 
L 178.153018 49.529891 
L 180.307937 49.423927 
L 180.307937 49.370945 
L 181.051012 49.317964 
L 181.051012 49.212 
L 184.915004 49.106036 
L 184.915004 49.053055 
L 185.806694 48.947091 
L 185.881001 48.841127 
L 188.556072 48.735164 
L 188.556072 48.682182 
L 189.150533 48.576218 
L 189.22484 48.470255 
L 191.676989 48.364291 
L 191.676989 48.311309 
L 192.122834 48.205345 
L 192.122834 48.152364 
L 195.318058 48.0464 
L 195.392365 47.940436 
L 196.655593 47.834473 
L 196.655593 47.781491 
L 198.067436 47.675527 
L 198.067436 47.622545 
L 199.776509 47.516582 
L 199.776509 47.4636 
L 201.411275 47.357636 
L 201.411275 47.304655 
L 204.086346 47.198691 
L 204.086346 47.145709 
L 209.139258 47.039745 
L 209.139258 46.986764 
L 209.585103 46.986764 
L 209.585103 46.827818 
L 216.421396 46.721855 
L 216.421396 46.668873 
L 218.799237 46.562909 
L 218.799237 46.509927 
L 224.818146 46.403964 
L 224.818146 46.350982 
L 230.762749 46.245018 
L 230.762749 46.192036 
L 235.444123 46.086073 
L 235.444123 46.033091 
L 242.503338 45.927127 
L 242.503338 45.874145 
L 247.184712 45.768182 
L 247.184712 45.7152 
L 263.086523 45.609236 
L 263.086523 45.556255 
L 268.585281 45.450291 
L 268.585281 45.397309 
L 277.353569 45.291345 
L 277.353569 45.238364 
L 285.378782 45.1324 
L 285.378782 45.079418 
L 293.403995 44.973455 
L 293.403995 44.920473 
L 326.842383 44.814509 
L 326.842383 44.761527 
L 340.292045 44.655564 
L 340.292045 44.602582 
L 355.227859 44.496618 
L 355.227859 44.443636 
L 373.581818 44.443636 
L 373.581818 44.443636 
" style="fill:none;stroke:#ff0000;stroke-linecap:square;stroke-width:1.5;"/>
    <defs>
     <path d="M -2 0 
L 2 0 
M 0 2 
L 0 -2 
" id="m95312ef3fa" style="stroke:#ff0000;"/>
    </defs>
    <g clip-path="url(#pdf1e76389d)">
     <use style="fill:#ff0000;stroke:#ff0000;" x="69.218182" xlink:href="#m95312ef3fa" y="241.85389"/>
     <use style="fill:#ff0000;stroke:#ff0000;" x="72.487713" xlink:href="#m95312ef3fa" y="141.082472"/>
     <use style="fill:#ff0000;stroke:#ff0000;" x="76.426012" xlink:href="#m95312ef3fa" y="108.975491"/>
     <use style="fill:#ff0000;stroke:#ff0000;" x="80.810156" xlink:href="#m95312ef3fa" y="94.0876"/>
     <use style="fill:#ff0000;stroke:#ff0000;" x="86.531836" xlink:href="#m95312ef3fa" y="82.696509"/>
     <use style="fill:#ff0000;stroke:#ff0000;" x="92.550746" xlink:href="#m95312ef3fa" y="75.385018"/>
     <use style="fill:#ff0000;stroke:#ff0000;" x="100.130114" xlink:href="#m95312ef3fa" y="69.345091"/>
     <use style="fill:#ff0000;stroke:#ff0000;" x="107.635174" xlink:href="#m95312ef3fa" y="64.311818"/>
     <use style="fill:#ff0000;stroke:#ff0000;" x="115.58608" xlink:href="#m95312ef3fa" y="59.914327"/>
     <use style="fill:#ff0000;stroke:#ff0000;" x="130.521893" xlink:href="#m95312ef3fa" y="56.311564"/>
     <use style="fill:#ff0000;stroke:#ff0000;" x="148.132777" xlink:href="#m95312ef3fa" y="52.920727"/>
     <use style="fill:#ff0000;stroke:#ff0000;" x="175.849485" xlink:href="#m95312ef3fa" y="49.847782"/>
     <use style="fill:#ff0000;stroke:#ff0000;" x="209.585103" xlink:href="#m95312ef3fa" y="46.986764"/>
    </g>
   </g>
   <g id="line2d_27">
    <path clip-path="url(#pdf1e76389d)" d="M 69.218182 242.116333 
L 69.292526 211.12081 
L 69.366869 211.12081 
L 69.441213 207.128543 
L 69.515557 207.128543 
L 69.589901 205.908683 
L 69.664245 205.908683 
L 69.738589 203.635308 
L 69.812932 203.635308 
L 69.887276 200.585659 
L 69.96162 200.585659 
L 70.035964 196.64884 
L 70.110308 196.64884 
L 70.184652 196.149807 
L 70.258995 196.149807 
L 70.333339 194.819051 
L 70.407683 194.819051 
L 70.482027 191.935746 
L 70.556371 191.935746 
L 70.630715 184.2839 
L 70.779402 184.173004 
L 70.853746 183.895763 
L 70.92809 183.895763 
L 71.002434 181.234251 
L 71.076778 181.234251 
L 71.151121 178.572739 
L 71.225465 178.572739 
L 71.299809 177.297432 
L 71.374153 177.297432 
L 71.448497 172.584338 
L 71.522841 172.584338 
L 71.597184 172.251649 
L 71.671528 172.251649 
L 71.745872 171.087238 
L 71.820216 171.087238 
L 71.89456 167.205866 
L 71.968903 167.205866 
L 72.043247 164.877043 
L 72.117591 164.877043 
L 72.191935 163.934425 
L 72.266279 163.934425 
L 72.340623 163.269047 
L 72.414966 163.269047 
L 72.48931 161.439257 
L 72.637998 161.328361 
L 72.712342 160.607535 
L 72.786686 160.607535 
L 72.861029 158.722297 
L 73.009717 158.611401 
L 73.084061 157.613334 
L 73.158405 157.613334 
L 73.232749 157.003404 
L 73.307092 157.003404 
L 73.381436 155.561752 
L 73.45578 155.561752 
L 73.530124 154.785478 
L 73.753155 154.785478 
L 73.827499 153.066585 
L 73.901843 153.066585 
L 73.976187 151.624933 
L 74.050531 151.624933 
L 74.124875 150.51597 
L 74.199218 150.51597 
L 74.273562 150.183281 
L 74.42225 150.127832 
L 74.496594 149.351558 
L 74.645281 149.240662 
L 74.719625 147.355424 
L 74.793969 147.355424 
L 74.868313 146.911839 
L 74.942657 146.911839 
L 75.017 145.913772 
L 75.165688 145.858324 
L 75.240032 144.638464 
L 75.314376 144.638464 
L 75.38872 143.030468 
L 75.537407 142.919571 
L 75.611751 141.921504 
L 75.686095 141.921504 
L 75.760439 140.646197 
L 75.834783 140.646197 
L 75.909126 139.64813 
L 76.206502 139.537234 
L 76.280846 138.594615 
L 76.355189 138.594615 
L 76.429533 137.984685 
L 76.503877 137.984685 
L 76.578221 137.152963 
L 76.726909 137.152963 
L 76.801252 136.210344 
L 76.875596 136.210344 
L 76.875596 135.378621 
L 77.024284 135.378621 
L 77.098628 134.713243 
L 77.247315 134.602347 
L 77.321659 134.103314 
L 77.470347 134.103314 
L 77.544691 133.715177 
L 77.619035 133.715177 
L 77.693378 133.493384 
L 77.767722 133.493384 
L 77.842066 132.828006 
L 77.91641 132.828006 
L 77.990754 132.328973 
L 78.139441 132.273524 
L 78.213785 130.942768 
L 78.362473 130.942768 
L 78.436817 130.277391 
L 78.585504 130.221942 
L 78.659848 129.612013 
L 78.734192 129.612013 
L 78.808536 128.059464 
L 78.88288 128.059464 
L 78.957223 127.560431 
L 79.031567 127.560431 
L 79.105911 126.67326 
L 79.180255 126.67326 
L 79.254599 125.786089 
L 79.403286 125.675193 
L 79.47763 125.287056 
L 79.551974 125.287056 
L 79.626318 124.677126 
L 79.700662 124.677126 
L 79.775006 124.122645 
L 79.923693 124.122645 
L 79.998037 123.568163 
L 80.072381 123.568163 
L 80.146725 123.290922 
L 80.295412 123.180026 
L 80.369756 122.625544 
L 80.592788 122.514648 
L 80.667132 120.962099 
L 80.741475 120.962099 
L 80.815819 120.130377 
L 80.890163 120.130377 
L 80.964507 119.298655 
L 81.187538 119.187758 
L 81.261882 119.021414 
L 81.41057 119.021414 
L 81.484914 117.413417 
L 81.559257 117.413417 
L 81.633601 116.470798 
L 81.707945 116.470798 
L 81.782289 115.084594 
L 81.930977 115.029146 
L 82.00532 114.141976 
L 82.228352 114.031079 
L 82.228352 113.642942 
L 82.37704 113.642942 
L 82.37704 113.365701 
L 82.525727 113.365701 
L 82.600071 111.813153 
L 82.823103 111.813153 
L 82.897446 110.815086 
L 82.97179 110.815086 
L 82.97179 110.537845 
L 83.120478 110.537845 
L 83.194822 110.09426 
L 83.269166 110.09426 
L 83.269166 109.927915 
L 83.417853 109.927915 
L 83.492197 108.375367 
L 83.640885 108.26447 
L 83.715228 107.155507 
L 83.863916 107.044611 
L 83.93826 105.214822 
L 84.161291 105.214822 
L 84.235635 104.327651 
L 84.384323 104.216755 
L 84.458667 104.105858 
L 84.681698 104.05041 
L 84.756042 103.551377 
L 84.830386 103.551377 
L 84.90473 103.218688 
L 84.979074 103.218688 
L 85.053417 102.719654 
L 85.202105 102.608758 
L 85.202105 102.276069 
L 85.350793 102.276069 
L 85.425137 101.777035 
L 85.573824 101.666139 
L 85.648168 101.278002 
L 85.8712 101.222554 
L 85.8712 100.72352 
L 86.094231 100.668072 
L 86.168575 100.44628 
L 86.391606 100.335383 
L 86.46595 99.947246 
L 86.614638 99.947246 
L 86.688982 99.392765 
L 86.837669 99.281868 
L 86.912013 98.782835 
L 87.060701 98.671938 
L 87.135045 98.062009 
L 87.358076 98.062009 
L 87.43242 97.784768 
L 87.506764 97.784768 
L 87.506764 97.507527 
L 87.729795 97.396631 
L 87.729795 97.230286 
L 87.952827 97.11939 
L 87.952827 97.063942 
L 88.101514 97.063942 
L 88.175858 96.786701 
L 88.250202 96.786701 
L 88.324546 96.343116 
L 88.473234 96.232219 
L 88.547577 94.956912 
L 88.621921 94.956912 
L 88.696265 94.291534 
L 88.844953 94.180637 
L 88.919297 93.958845 
L 88.99364 93.958845 
L 89.067984 93.737052 
L 89.142328 93.737052 
L 89.216672 93.071674 
L 89.36536 93.071674 
L 89.439703 92.794433 
L 89.588391 92.683537 
L 89.588391 92.461744 
L 89.811422 92.406296 
L 89.885766 92.018159 
L 89.96011 92.018159 
L 89.96011 91.796366 
L 90.108798 91.796366 
L 90.183142 91.463677 
L 90.257485 91.463677 
L 90.331829 90.964644 
L 90.480517 90.964644 
L 90.554861 90.521059 
L 90.92658 90.410162 
L 91.000924 90.299266 
L 91.149611 90.18837 
L 91.223955 90.022025 
L 91.372643 89.911129 
L 91.446987 89.744784 
L 91.595674 89.689336 
L 91.670018 89.079406 
L 91.744362 89.079406 
L 91.818706 88.524925 
L 91.967394 88.414029 
L 92.041737 87.914995 
L 92.264769 87.859547 
L 92.339113 87.526858 
L 92.413456 87.526858 
L 92.413456 87.360513 
L 92.636488 87.360513 
L 92.636488 87.027824 
L 92.785176 87.027824 
L 92.859519 86.750584 
L 92.933863 86.750584 
L 93.008207 86.362447 
L 93.156895 86.306998 
L 93.231239 85.974309 
L 93.305582 85.974309 
L 93.379926 85.253483 
L 93.602958 85.198035 
L 93.602958 85.087139 
L 93.825989 85.031691 
L 93.900333 84.865346 
L 94.346396 84.75445 
L 94.346396 84.588105 
L 94.569428 84.588105 
L 94.643771 84.14452 
L 94.941147 84.14452 
L 95.015491 83.645487 
L 95.089834 83.645487 
L 95.089834 83.368246 
L 95.610241 83.25735 
L 95.684585 83.146453 
L 95.833273 83.091005 
L 95.833273 82.924661 
L 96.353679 82.813764 
L 96.428023 82.591972 
L 96.576711 82.536523 
L 96.651055 81.926594 
L 96.874086 81.871145 
L 96.874086 81.760249 
L 97.022774 81.760249 
L 97.097118 81.150319 
L 97.320149 81.150319 
L 97.394493 80.651286 
L 97.617525 80.54039 
L 97.617525 80.374045 
L 97.840556 80.374045 
L 97.9149 79.764115 
L 98.137931 79.708667 
L 98.137931 79.431426 
L 98.360963 79.32053 
L 98.435307 78.876945 
L 98.50965 78.876945 
L 98.583994 78.599704 
L 98.807026 78.488808 
L 98.88137 78.045222 
L 99.104401 77.934326 
L 99.178745 77.657085 
L 99.401776 77.657085 
L 99.47612 77.435293 
L 99.996527 77.324396 
L 99.996527 77.268948 
L 100.145215 77.268948 
L 100.145215 77.102604 
L 100.44259 77.047155 
L 100.516934 76.880811 
L 100.814309 76.825363 
L 100.888653 76.159985 
L 101.40906 76.049088 
L 101.483404 75.882744 
L 101.706435 75.771848 
L 101.780779 75.605503 
L 101.855123 75.605503 
L 101.855123 75.217366 
L 102.00381 75.217366 
L 102.00381 74.940125 
L 102.37553 74.884677 
L 102.449873 74.551988 
L 102.672905 74.441092 
L 102.672905 74.330195 
L 103.193312 74.330195 
L 103.267656 73.88661 
L 103.416343 73.831162 
L 103.490687 73.609369 
L 104.011094 73.498473 
L 104.085438 73.27668 
L 104.382813 73.165784 
L 104.382813 72.500406 
L 104.90322 72.444958 
L 104.977564 72.223165 
L 105.200595 72.167717 
L 105.274939 71.945925 
L 105.646658 71.835028 
L 105.721002 71.613236 
L 106.241409 71.502339 
L 106.241409 71.391443 
L 106.687472 71.280547 
L 106.761816 71.003306 
L 106.984847 70.892409 
L 107.059191 70.615169 
L 107.356566 70.504272 
L 107.356566 70.448824 
L 107.728285 70.337928 
L 107.728285 70.28248 
L 108.100004 70.171583 
L 108.100004 70.116135 
L 108.248692 70.116135 
L 108.323036 69.894343 
L 108.694755 69.838894 
L 108.769099 69.506205 
L 109.140818 69.450757 
L 109.215162 68.951724 
L 109.809913 68.896276 
L 109.809913 68.729931 
L 109.9586 68.729931 
L 109.9586 68.508139 
L 110.330319 68.45269 
L 110.330319 68.341794 
L 110.850726 68.230898 
L 110.850726 67.842761 
L 111.519821 67.787312 
L 111.519821 67.56552 
L 111.965884 67.56552 
L 112.040227 67.343727 
L 112.783666 67.232831 
L 112.783666 67.121934 
L 113.155385 67.066486 
L 113.229729 66.844694 
L 113.45276 66.789245 
L 113.45276 66.512005 
L 114.121855 66.401108 
L 114.121855 66.234764 
L 114.41923 66.179316 
L 114.493574 66.012971 
L 114.939637 65.902075 
L 114.939637 65.846627 
L 115.311356 65.73573 
L 115.311356 65.569386 
L 115.608731 65.45849 
L 115.683075 65.292145 
L 115.906106 65.181249 
L 115.906106 65.125801 
L 116.798232 65.070352 
L 116.798232 64.959456 
L 117.244295 64.904008 
L 117.244295 64.793112 
L 118.433797 64.682215 
L 118.433797 64.626767 
L 119.102891 64.515871 
L 119.102891 64.460423 
L 119.325923 64.460423 
L 119.400266 64.23863 
L 119.697642 64.127734 
L 119.697642 64.072286 
L 120.218049 63.961389 
L 120.218049 63.850493 
L 120.589768 63.739597 
L 120.589768 63.684148 
L 121.333206 63.573252 
L 121.40755 63.462356 
L 122.0023 63.351459 
L 122.0023 63.185115 
L 122.745739 63.074219 
L 122.745739 62.963322 
L 123.191802 62.852426 
L 123.266146 62.74153 
L 123.712209 62.630633 
L 123.786552 62.464289 
L 124.381303 62.408841 
L 124.381303 62.297944 
L 124.529991 62.297944 
L 124.529991 62.1316 
L 124.976054 62.020704 
L 124.976054 61.965255 
L 125.793836 61.854359 
L 125.793836 61.798911 
L 126.016867 61.798911 
L 126.016867 61.632566 
L 126.46293 61.52167 
L 126.46293 61.466222 
L 126.983337 61.355326 
L 126.983337 61.133533 
L 127.4294 61.022637 
L 127.4294 60.91174 
L 128.321526 60.800844 
L 128.321526 60.745396 
L 129.511027 60.6345 
L 129.511027 60.357259 
L 130.700528 60.246362 
L 130.700528 60.190914 
L 132.113061 60.135466 
L 132.113061 59.969122 
L 132.707812 59.858225 
L 132.707812 59.802777 
L 133.599938 59.691881 
L 133.674282 59.359192 
L 134.343376 59.248296 
L 134.343376 59.192847 
L 134.715095 59.137399 
L 134.715095 59.026503 
L 135.235502 58.971055 
L 135.235502 58.860158 
L 136.573691 58.749262 
L 136.573691 58.693814 
L 137.094098 58.693814 
L 137.094098 58.527469 
L 137.688848 58.416573 
L 137.688848 58.361125 
L 138.134911 58.250229 
L 138.134911 58.19478 
L 138.432287 58.19478 
L 138.432287 58.028436 
L 139.696132 57.91754 
L 139.696132 57.862091 
L 141.108665 57.751195 
L 141.108665 57.695747 
L 144.008074 57.584851 
L 144.082418 57.473954 
L 145.792326 57.418506 
L 145.792326 57.30761 
L 146.833139 57.196714 
L 146.833139 57.141265 
L 147.725265 57.085817 
L 147.725265 56.974921 
L 148.320016 56.864025 
L 148.320016 56.808576 
L 149.509517 56.753128 
L 149.509517 56.642232 
L 150.104268 56.586784 
L 150.104268 56.475887 
L 151.516801 56.364991 
L 151.591144 56.254095 
L 152.111551 56.143198 
L 152.185895 55.976854 
L 152.631958 55.865958 
L 152.631958 55.810509 
L 153.301053 55.755061 
L 153.375396 55.533269 
L 154.267522 55.422372 
L 154.267522 55.366924 
L 154.936617 55.311476 
L 155.010961 55.089683 
L 156.720869 54.978787 
L 156.720869 54.923339 
L 157.315619 54.812443 
L 157.315619 54.756994 
L 158.430777 54.646098 
L 158.430777 54.59065 
L 159.47159 54.479754 
L 159.47159 54.424305 
L 162.371 54.368857 
L 162.371 54.257961 
L 163.560501 54.147065 
L 163.560501 54.036168 
L 164.378283 53.925272 
L 164.378283 53.869824 
L 164.824346 53.814376 
L 164.824346 53.703479 
L 167.277692 53.592583 
L 167.277692 53.481687 
L 167.575068 53.37079 
L 167.649412 53.259894 
L 168.467194 53.148998 
L 168.467194 53.09355 
L 170.325789 53.038101 
L 170.325789 52.927205 
L 170.771852 52.816309 
L 170.771852 52.649964 
L 171.515291 52.539068 
L 171.515291 52.428172 
L 173.225199 52.317275 
L 173.225199 52.261827 
L 174.042981 52.261827 
L 174.042981 52.095483 
L 174.935107 51.984586 
L 174.935107 51.929138 
L 176.198952 51.818242 
L 176.198952 51.762794 
L 176.793703 51.651897 
L 176.868046 51.541001 
L 179.321393 51.430105 
L 179.321393 51.374657 
L 180.808269 51.26376 
L 180.808269 51.208312 
L 181.774739 51.152864 
L 181.774739 51.041968 
L 184.971524 50.986519 
L 184.971524 50.875623 
L 185.343243 50.764727 
L 185.343243 50.709279 
L 186.532744 50.598382 
L 186.532744 50.542934 
L 186.830119 50.432038 
L 186.830119 50.37659 
L 188.911747 50.265693 
L 188.911747 50.210245 
L 191.142062 50.099349 
L 191.142062 50.043901 
L 192.331563 49.988453 
L 192.331563 49.877556 
L 193.818439 49.822108 
L 193.818439 49.711212 
L 196.420473 49.600315 
L 196.494817 49.433971 
L 198.576444 49.323075 
L 198.576444 49.267626 
L 199.765946 49.15673 
L 199.765946 49.101282 
L 201.921917 48.990386 
L 201.921917 48.934937 
L 206.679922 48.824041 
L 206.679922 48.768593 
L 210.768832 48.657697 
L 210.843176 48.491352 
L 215.155118 48.380456 
L 215.155118 48.325008 
L 216.567651 48.214111 
L 216.567651 48.158663 
L 220.43353 48.047767 
L 220.43353 47.992319 
L 222.069094 47.881422 
L 222.069094 47.825974 
L 223.853346 47.715078 
L 223.853346 47.65963 
L 225.637598 47.548733 
L 225.637598 47.493285 
L 227.124475 47.382389 
L 227.124475 47.271493 
L 228.239632 47.160596 
L 228.239632 47.0497 
L 230.990354 46.938804 
L 230.990354 46.883355 
L 233.146325 46.883355 
L 233.146325 46.717011 
L 235.153608 46.606115 
L 235.153608 46.550667 
L 239.168175 46.43977 
L 239.168175 46.384322 
L 245.636088 46.273426 
L 245.636088 46.217978 
L 252.996127 46.107081 
L 252.996127 46.051633 
L 255.598161 45.940737 
L 255.598161 45.885289 
L 258.646258 45.774392 
L 258.646258 45.718944 
L 262.735169 45.608048 
L 262.735169 45.5526 
L 270.169552 45.441703 
L 270.169552 45.386255 
L 270.838646 45.275359 
L 270.838646 45.219911 
L 276.34009 45.109014 
L 276.34009 45.053566 
L 284.666599 44.94267 
L 284.666599 44.887222 
L 291.357543 44.776325 
L 291.357543 44.720877 
L 322.284576 44.609981 
L 322.284576 44.554533 
L 373.581818 44.443636 
L 373.581818 44.443636 
" style="fill:none;stroke:#bf00bf;stroke-linecap:square;stroke-width:1.5;"/>
    <defs>
     <path d="M 0 1 
C 0.265203 1 0.51958 0.894634 0.707107 0.707107 
C 0.894634 0.51958 1 0.265203 1 0 
C 1 -0.265203 0.894634 -0.51958 0.707107 -0.707107 
C 0.51958 -0.894634 0.265203 -1 0 -1 
C -0.265203 -1 -0.51958 -0.894634 -0.707107 -0.707107 
C -0.894634 -0.51958 -1 -0.265203 -1 0 
C -1 0.265203 -0.894634 0.51958 -0.707107 0.707107 
C -0.51958 0.894634 -0.265203 1 0 1 
z
" id="m0b4574157c" style="stroke:#bf00bf;"/>
    </defs>
    <g clip-path="url(#pdf1e76389d)">
     <use style="fill:#bf00bf;stroke:#bf00bf;" x="69.218182" xlink:href="#m0b4574157c" y="242.116333"/>
     <use style="fill:#bf00bf;stroke:#bf00bf;" x="72.935373" xlink:href="#m0b4574157c" y="158.722297"/>
     <use style="fill:#bf00bf;stroke:#bf00bf;" x="77.024284" xlink:href="#m0b4574157c" y="135.378621"/>
     <use style="fill:#bf00bf;stroke:#bf00bf;" x="81.113194" xlink:href="#m0b4574157c" y="119.298655"/>
     <use style="fill:#bf00bf;stroke:#bf00bf;" x="85.796856" xlink:href="#m0b4574157c" y="101.278002"/>
     <use style="fill:#bf00bf;stroke:#bf00bf;" x="90.257485" xlink:href="#m0b4574157c" y="91.463677"/>
     <use style="fill:#bf00bf;stroke:#bf00bf;" x="95.38721" xlink:href="#m0b4574157c" y="83.312798"/>
     <use style="fill:#bf00bf;stroke:#bf00bf;" x="101.483404" xlink:href="#m0b4574157c" y="75.99364"/>
     <use style="fill:#bf00bf;stroke:#bf00bf;" x="108.248692" xlink:href="#m0b4574157c" y="70.116135"/>
     <use style="fill:#bf00bf;stroke:#bf00bf;" x="119.028547" xlink:href="#m0b4574157c" y="64.571319"/>
     <use style="fill:#bf00bf;stroke:#bf00bf;" x="128.99062" xlink:href="#m0b4574157c" y="60.689948"/>
     <use style="fill:#bf00bf;stroke:#bf00bf;" x="149.063454" xlink:href="#m0b4574157c" y="56.808576"/>
     <use style="fill:#bf00bf;stroke:#bf00bf;" x="168.021131" xlink:href="#m0b4574157c" y="53.259894"/>
     <use style="fill:#bf00bf;stroke:#bf00bf;" x="194.338846" xlink:href="#m0b4574157c" y="49.711212"/>
     <use style="fill:#bf00bf;stroke:#bf00bf;" x="239.019487" xlink:href="#m0b4574157c" y="46.495218"/>
    </g>
   </g>
   <g id="patch_3">
    <path d="M 54 252 
L 54 34.56 
" style="fill:none;stroke:#000000;stroke-linecap:square;stroke-linejoin:miter;stroke-width:0.8;"/>
   </g>
   <g id="patch_4">
    <path d="M 388.8 252 
L 388.8 34.56 
" style="fill:none;stroke:#000000;stroke-linecap:square;stroke-linejoin:miter;stroke-width:0.8;"/>
   </g>
   <g id="patch_5">
    <path d="M 54 252 
L 388.8 252 
" style="fill:none;stroke:#000000;stroke-linecap:square;stroke-linejoin:miter;stroke-width:0.8;"/>
   </g>
   <g id="patch_6">
    <path d="M 54 34.56 
L 388.8 34.56 
" style="fill:none;stroke:#000000;stroke-linecap:square;stroke-linejoin:miter;stroke-width:0.8;"/>
   </g>
   <g id="legend_1">
    <g id="patch_7">
     <path d="M 94.915625 247 
L 381.8 247 
Q 383.8 247 383.8 245 
L 383.8 201.965625 
Q 383.8 199.965625 381.8 199.965625 
L 94.915625 199.965625 
Q 92.915625 199.965625 92.915625 201.965625 
L 92.915625 245 
Q 92.915625 247 94.915625 247 
z
" style="fill:#ffffff;opacity:0.8;stroke:#cccccc;stroke-linejoin:miter;"/>
    </g>
    <g id="line2d_28">
     <path d="M 96.915625 208.064063 
L 116.915625 208.064063 
" style="fill:none;stroke:#bf00bf;stroke-linecap:square;stroke-width:1.5;"/>
    </g>
    <g id="line2d_29">
     <g>
      <use style="fill:#bf00bf;stroke:#bf00bf;stroke-linejoin:miter;" x="106.915625" xlink:href="#m717b01aa95" y="208.064063"/>
     </g>
    </g>
    <g id="text_15">
     <!-- Train: VC, Test: OC , AUC=0.8848 -->
     <defs>
      <path d="M -0.296875 72.90625 
L 61.375 72.90625 
L 61.375 64.59375 
L 35.5 64.59375 
L 35.5 0 
L 25.59375 0 
L 25.59375 64.59375 
L -0.296875 64.59375 
z
" id="DejaVuSans-54"/>
      <path d="M 41.109375 46.296875 
Q 39.59375 47.171875 37.8125 47.578125 
Q 36.03125 48 33.890625 48 
Q 26.265625 48 22.1875 43.046875 
Q 18.109375 38.09375 18.109375 28.8125 
L 18.109375 0 
L 9.078125 0 
L 9.078125 54.6875 
L 18.109375 54.6875 
L 18.109375 46.1875 
Q 20.953125 51.171875 25.484375 53.578125 
Q 30.03125 56 36.53125 56 
Q 37.453125 56 38.578125 55.875 
Q 39.703125 55.765625 41.0625 55.515625 
z
" id="DejaVuSans-72"/>
      <path d="M 34.28125 27.484375 
Q 23.390625 27.484375 19.1875 25 
Q 14.984375 22.515625 14.984375 16.5 
Q 14.984375 11.71875 18.140625 8.90625 
Q 21.296875 6.109375 26.703125 6.109375 
Q 34.1875 6.109375 38.703125 11.40625 
Q 43.21875 16.703125 43.21875 25.484375 
L 43.21875 27.484375 
z
M 52.203125 31.203125 
L 52.203125 0 
L 43.21875 0 
L 43.21875 8.296875 
Q 40.140625 3.328125 35.546875 0.953125 
Q 30.953125 -1.421875 24.3125 -1.421875 
Q 15.921875 -1.421875 10.953125 3.296875 
Q 6 8.015625 6 15.921875 
Q 6 25.140625 12.171875 29.828125 
Q 18.359375 34.515625 30.609375 34.515625 
L 43.21875 34.515625 
L 43.21875 35.40625 
Q 43.21875 41.609375 39.140625 45 
Q 35.0625 48.390625 27.6875 48.390625 
Q 23 48.390625 18.546875 47.265625 
Q 14.109375 46.140625 10.015625 43.890625 
L 10.015625 52.203125 
Q 14.9375 54.109375 19.578125 55.046875 
Q 24.21875 56 28.609375 56 
Q 40.484375 56 46.34375 49.84375 
Q 52.203125 43.703125 52.203125 31.203125 
z
" id="DejaVuSans-61"/>
      <path d="M 11.71875 12.40625 
L 22.015625 12.40625 
L 22.015625 0 
L 11.71875 0 
z
M 11.71875 51.703125 
L 22.015625 51.703125 
L 22.015625 39.3125 
L 11.71875 39.3125 
z
" id="DejaVuSans-3a"/>
      <path d="M 28.609375 0 
L 0.78125 72.90625 
L 11.078125 72.90625 
L 34.1875 11.53125 
L 57.328125 72.90625 
L 67.578125 72.90625 
L 39.796875 0 
z
" id="DejaVuSans-56"/>
      <path d="M 64.40625 67.28125 
L 64.40625 56.890625 
Q 59.421875 61.53125 53.78125 63.8125 
Q 48.140625 66.109375 41.796875 66.109375 
Q 29.296875 66.109375 22.65625 58.46875 
Q 16.015625 50.828125 16.015625 36.375 
Q 16.015625 21.96875 22.65625 14.328125 
Q 29.296875 6.6875 41.796875 6.6875 
Q 48.140625 6.6875 53.78125 8.984375 
Q 59.421875 11.28125 64.40625 15.921875 
L 64.40625 5.609375 
Q 59.234375 2.09375 53.4375 0.328125 
Q 47.65625 -1.421875 41.21875 -1.421875 
Q 24.65625 -1.421875 15.125 8.703125 
Q 5.609375 18.84375 5.609375 36.375 
Q 5.609375 53.953125 15.125 64.078125 
Q 24.65625 74.21875 41.21875 74.21875 
Q 47.75 74.21875 53.53125 72.484375 
Q 59.328125 70.75 64.40625 67.28125 
z
" id="DejaVuSans-43"/>
      <path d="M 11.71875 12.40625 
L 22.015625 12.40625 
L 22.015625 4 
L 14.015625 -11.625 
L 7.71875 -11.625 
L 11.71875 4 
z
" id="DejaVuSans-2c"/>
      <path d="M 39.40625 66.21875 
Q 28.65625 66.21875 22.328125 58.203125 
Q 16.015625 50.203125 16.015625 36.375 
Q 16.015625 22.609375 22.328125 14.59375 
Q 28.65625 6.59375 39.40625 6.59375 
Q 50.140625 6.59375 56.421875 14.59375 
Q 62.703125 22.609375 62.703125 36.375 
Q 62.703125 50.203125 56.421875 58.203125 
Q 50.140625 66.21875 39.40625 66.21875 
z
M 39.40625 74.21875 
Q 54.734375 74.21875 63.90625 63.9375 
Q 73.09375 53.65625 73.09375 36.375 
Q 73.09375 19.140625 63.90625 8.859375 
Q 54.734375 -1.421875 39.40625 -1.421875 
Q 24.03125 -1.421875 14.8125 8.828125 
Q 5.609375 19.09375 5.609375 36.375 
Q 5.609375 53.65625 14.8125 63.9375 
Q 24.03125 74.21875 39.40625 74.21875 
z
" id="DejaVuSans-4f"/>
      <path d="M 34.1875 63.1875 
L 20.796875 26.90625 
L 47.609375 26.90625 
z
M 28.609375 72.90625 
L 39.796875 72.90625 
L 67.578125 0 
L 57.328125 0 
L 50.6875 18.703125 
L 17.828125 18.703125 
L 11.1875 0 
L 0.78125 0 
z
" id="DejaVuSans-41"/>
      <path d="M 8.6875 72.90625 
L 18.609375 72.90625 
L 18.609375 28.609375 
Q 18.609375 16.890625 22.84375 11.734375 
Q 27.09375 6.59375 36.625 6.59375 
Q 46.09375 6.59375 50.34375 11.734375 
Q 54.59375 16.890625 54.59375 28.609375 
L 54.59375 72.90625 
L 64.5 72.90625 
L 64.5 27.390625 
Q 64.5 13.140625 57.4375 5.859375 
Q 50.390625 -1.421875 36.625 -1.421875 
Q 22.796875 -1.421875 15.734375 5.859375 
Q 8.6875 13.140625 8.6875 27.390625 
z
" id="DejaVuSans-55"/>
      <path d="M 10.59375 45.40625 
L 73.1875 45.40625 
L 73.1875 37.203125 
L 10.59375 37.203125 
z
M 10.59375 25.484375 
L 73.1875 25.484375 
L 73.1875 17.1875 
L 10.59375 17.1875 
z
" id="DejaVuSans-3d"/>
     </defs>
     <g transform="translate(124.915625 211.564063)scale(0.1 -0.1)">
      <use xlink:href="#DejaVuSans-54"/>
      <use x="60.865234" xlink:href="#DejaVuSans-72"/>
      <use x="101.978516" xlink:href="#DejaVuSans-61"/>
      <use x="163.257812" xlink:href="#DejaVuSans-69"/>
      <use x="191.041016" xlink:href="#DejaVuSans-6e"/>
      <use x="254.419922" xlink:href="#DejaVuSans-3a"/>
      <use x="288.111328" xlink:href="#DejaVuSans-20"/>
      <use x="319.898438" xlink:href="#DejaVuSans-56"/>
      <use x="388.306641" xlink:href="#DejaVuSans-43"/>
      <use x="458.130859" xlink:href="#DejaVuSans-2c"/>
      <use x="489.917969" xlink:href="#DejaVuSans-20"/>
      <use x="521.705078" xlink:href="#DejaVuSans-54"/>
      <use x="582.523438" xlink:href="#DejaVuSans-65"/>
      <use x="644.046875" xlink:href="#DejaVuSans-73"/>
      <use x="696.146484" xlink:href="#DejaVuSans-74"/>
      <use x="735.355469" xlink:href="#DejaVuSans-3a"/>
      <use x="769.046875" xlink:href="#DejaVuSans-20"/>
      <use x="800.833984" xlink:href="#DejaVuSans-4f"/>
      <use x="879.544922" xlink:href="#DejaVuSans-43"/>
      <use x="949.369141" xlink:href="#DejaVuSans-20"/>
      <use x="981.15625" xlink:href="#DejaVuSans-2c"/>
      <use x="1012.943359" xlink:href="#DejaVuSans-20"/>
      <use x="1044.730469" xlink:href="#DejaVuSans-41"/>
      <use x="1113.138672" xlink:href="#DejaVuSans-55"/>
      <use x="1186.332031" xlink:href="#DejaVuSans-43"/>
      <use x="1256.15625" xlink:href="#DejaVuSans-3d"/>
      <use x="1339.945312" xlink:href="#DejaVuSans-30"/>
      <use x="1403.568359" xlink:href="#DejaVuSans-2e"/>
      <use x="1435.355469" xlink:href="#DejaVuSans-38"/>
      <use x="1498.978516" xlink:href="#DejaVuSans-38"/>
      <use x="1562.601562" xlink:href="#DejaVuSans-34"/>
      <use x="1626.224609" xlink:href="#DejaVuSans-38"/>
     </g>
    </g>
    <g id="line2d_30">
     <path d="M 96.915625 222.742188 
L 116.915625 222.742188 
" style="fill:none;stroke:#ff0000;stroke-linecap:square;stroke-width:1.5;"/>
    </g>
    <g id="line2d_31">
     <g>
      <use style="fill:#ff0000;stroke:#ff0000;" x="106.915625" xlink:href="#m95312ef3fa" y="222.742188"/>
     </g>
    </g>
    <g id="text_16">
     <!-- Train: OC, Test: OC (LOPO x-val), AUC=0.9550 -->
     <defs>
      <path d="M 31 75.875 
Q 24.46875 64.65625 21.28125 53.65625 
Q 18.109375 42.671875 18.109375 31.390625 
Q 18.109375 20.125 21.3125 9.0625 
Q 24.515625 -2 31 -13.1875 
L 23.1875 -13.1875 
Q 15.875 -1.703125 12.234375 9.375 
Q 8.59375 20.453125 8.59375 31.390625 
Q 8.59375 42.28125 12.203125 53.3125 
Q 15.828125 64.359375 23.1875 75.875 
z
" id="DejaVuSans-28"/>
      <path d="M 9.8125 72.90625 
L 19.671875 72.90625 
L 19.671875 8.296875 
L 55.171875 8.296875 
L 55.171875 0 
L 9.8125 0 
z
" id="DejaVuSans-4c"/>
      <path d="M 19.671875 64.796875 
L 19.671875 37.40625 
L 32.078125 37.40625 
Q 38.96875 37.40625 42.71875 40.96875 
Q 46.484375 44.53125 46.484375 51.125 
Q 46.484375 57.671875 42.71875 61.234375 
Q 38.96875 64.796875 32.078125 64.796875 
z
M 9.8125 72.90625 
L 32.078125 72.90625 
Q 44.34375 72.90625 50.609375 67.359375 
Q 56.890625 61.8125 56.890625 51.125 
Q 56.890625 40.328125 50.609375 34.8125 
Q 44.34375 29.296875 32.078125 29.296875 
L 19.671875 29.296875 
L 19.671875 0 
L 9.8125 0 
z
" id="DejaVuSans-50"/>
      <path d="M 54.890625 54.6875 
L 35.109375 28.078125 
L 55.90625 0 
L 45.3125 0 
L 29.390625 21.484375 
L 13.484375 0 
L 2.875 0 
L 24.125 28.609375 
L 4.6875 54.6875 
L 15.28125 54.6875 
L 29.78125 35.203125 
L 44.28125 54.6875 
z
" id="DejaVuSans-78"/>
      <path d="M 9.421875 75.984375 
L 18.40625 75.984375 
L 18.40625 0 
L 9.421875 0 
z
" id="DejaVuSans-6c"/>
      <path d="M 8.015625 75.875 
L 15.828125 75.875 
Q 23.140625 64.359375 26.78125 53.3125 
Q 30.421875 42.28125 30.421875 31.390625 
Q 30.421875 20.453125 26.78125 9.375 
Q 23.140625 -1.703125 15.828125 -13.1875 
L 8.015625 -13.1875 
Q 14.5 -2 17.703125 9.0625 
Q 20.90625 20.125 20.90625 31.390625 
Q 20.90625 42.671875 17.703125 53.65625 
Q 14.5 64.65625 8.015625 75.875 
z
" id="DejaVuSans-29"/>
      <path d="M 10.984375 1.515625 
L 10.984375 10.5 
Q 14.703125 8.734375 18.5 7.8125 
Q 22.3125 6.890625 25.984375 6.890625 
Q 35.75 6.890625 40.890625 13.453125 
Q 46.046875 20.015625 46.78125 33.40625 
Q 43.953125 29.203125 39.59375 26.953125 
Q 35.25 24.703125 29.984375 24.703125 
Q 19.046875 24.703125 12.671875 31.3125 
Q 6.296875 37.9375 6.296875 49.421875 
Q 6.296875 60.640625 12.9375 67.421875 
Q 19.578125 74.21875 30.609375 74.21875 
Q 43.265625 74.21875 49.921875 64.515625 
Q 56.59375 54.828125 56.59375 36.375 
Q 56.59375 19.140625 48.40625 8.859375 
Q 40.234375 -1.421875 26.421875 -1.421875 
Q 22.703125 -1.421875 18.890625 -0.6875 
Q 15.09375 0.046875 10.984375 1.515625 
z
M 30.609375 32.421875 
Q 37.25 32.421875 41.125 36.953125 
Q 45.015625 41.5 45.015625 49.421875 
Q 45.015625 57.28125 41.125 61.84375 
Q 37.25 66.40625 30.609375 66.40625 
Q 23.96875 66.40625 20.09375 61.84375 
Q 16.21875 57.28125 16.21875 49.421875 
Q 16.21875 41.5 20.09375 36.953125 
Q 23.96875 32.421875 30.609375 32.421875 
z
" id="DejaVuSans-39"/>
      <path d="M 10.796875 72.90625 
L 49.515625 72.90625 
L 49.515625 64.59375 
L 19.828125 64.59375 
L 19.828125 46.734375 
Q 21.96875 47.46875 24.109375 47.828125 
Q 26.265625 48.1875 28.421875 48.1875 
Q 40.625 48.1875 47.75 41.5 
Q 54.890625 34.8125 54.890625 23.390625 
Q 54.890625 11.625 47.5625 5.09375 
Q 40.234375 -1.421875 26.90625 -1.421875 
Q 22.3125 -1.421875 17.546875 -0.640625 
Q 12.796875 0.140625 7.71875 1.703125 
L 7.71875 11.625 
Q 12.109375 9.234375 16.796875 8.0625 
Q 21.484375 6.890625 26.703125 6.890625 
Q 35.15625 6.890625 40.078125 11.328125 
Q 45.015625 15.765625 45.015625 23.390625 
Q 45.015625 31 40.078125 35.4375 
Q 35.15625 39.890625 26.703125 39.890625 
Q 22.75 39.890625 18.8125 39.015625 
Q 14.890625 38.140625 10.796875 36.28125 
z
" id="DejaVuSans-35"/>
     </defs>
     <g transform="translate(124.915625 226.242188)scale(0.1 -0.1)">
      <use xlink:href="#DejaVuSans-54"/>
      <use x="60.865234" xlink:href="#DejaVuSans-72"/>
      <use x="101.978516" xlink:href="#DejaVuSans-61"/>
      <use x="163.257812" xlink:href="#DejaVuSans-69"/>
      <use x="191.041016" xlink:href="#DejaVuSans-6e"/>
      <use x="254.419922" xlink:href="#DejaVuSans-3a"/>
      <use x="288.111328" xlink:href="#DejaVuSans-20"/>
      <use x="319.898438" xlink:href="#DejaVuSans-4f"/>
      <use x="398.609375" xlink:href="#DejaVuSans-43"/>
      <use x="468.433594" xlink:href="#DejaVuSans-2c"/>
      <use x="500.220703" xlink:href="#DejaVuSans-20"/>
      <use x="532.007812" xlink:href="#DejaVuSans-54"/>
      <use x="592.826172" xlink:href="#DejaVuSans-65"/>
      <use x="654.349609" xlink:href="#DejaVuSans-73"/>
      <use x="706.449219" xlink:href="#DejaVuSans-74"/>
      <use x="745.658203" xlink:href="#DejaVuSans-3a"/>
      <use x="779.349609" xlink:href="#DejaVuSans-20"/>
      <use x="811.136719" xlink:href="#DejaVuSans-4f"/>
      <use x="889.847656" xlink:href="#DejaVuSans-43"/>
      <use x="959.671875" xlink:href="#DejaVuSans-20"/>
      <use x="991.458984" xlink:href="#DejaVuSans-28"/>
      <use x="1030.472656" xlink:href="#DejaVuSans-4c"/>
      <use x="1086.138672" xlink:href="#DejaVuSans-4f"/>
      <use x="1164.849609" xlink:href="#DejaVuSans-50"/>
      <use x="1225.152344" xlink:href="#DejaVuSans-4f"/>
      <use x="1303.863281" xlink:href="#DejaVuSans-20"/>
      <use x="1335.650391" xlink:href="#DejaVuSans-78"/>
      <use x="1394.830078" xlink:href="#DejaVuSans-2d"/>
      <use x="1430.882812" xlink:href="#DejaVuSans-76"/>
      <use x="1490.0625" xlink:href="#DejaVuSans-61"/>
      <use x="1551.341797" xlink:href="#DejaVuSans-6c"/>
      <use x="1579.125" xlink:href="#DejaVuSans-29"/>
      <use x="1618.138672" xlink:href="#DejaVuSans-2c"/>
      <use x="1649.925781" xlink:href="#DejaVuSans-20"/>
      <use x="1681.712891" xlink:href="#DejaVuSans-41"/>
      <use x="1750.121094" xlink:href="#DejaVuSans-55"/>
      <use x="1823.314453" xlink:href="#DejaVuSans-43"/>
      <use x="1893.138672" xlink:href="#DejaVuSans-3d"/>
      <use x="1976.927734" xlink:href="#DejaVuSans-30"/>
      <use x="2040.550781" xlink:href="#DejaVuSans-2e"/>
      <use x="2072.337891" xlink:href="#DejaVuSans-39"/>
      <use x="2135.960938" xlink:href="#DejaVuSans-35"/>
      <use x="2199.583984" xlink:href="#DejaVuSans-35"/>
      <use x="2263.207031" xlink:href="#DejaVuSans-30"/>
     </g>
    </g>
    <g id="line2d_32">
     <path d="M 96.915625 237.420313 
L 116.915625 237.420313 
" style="fill:none;stroke:#bf00bf;stroke-linecap:square;stroke-width:1.5;"/>
    </g>
    <g id="line2d_33">
     <g>
      <use style="fill:#bf00bf;stroke:#bf00bf;" x="106.915625" xlink:href="#m0b4574157c" y="237.420313"/>
     </g>
    </g>
    <g id="text_17">
     <!-- Train: OC+VC, Test: OC (LOPO x-val), AUC=0.9379 -->
     <defs>
      <path d="M 46 62.703125 
L 46 35.5 
L 73.1875 35.5 
L 73.1875 27.203125 
L 46 27.203125 
L 46 0 
L 37.796875 0 
L 37.796875 27.203125 
L 10.59375 27.203125 
L 10.59375 35.5 
L 37.796875 35.5 
L 37.796875 62.703125 
z
" id="DejaVuSans-2b"/>
      <path d="M 40.578125 39.3125 
Q 47.65625 37.796875 51.625 33 
Q 55.609375 28.21875 55.609375 21.1875 
Q 55.609375 10.40625 48.1875 4.484375 
Q 40.765625 -1.421875 27.09375 -1.421875 
Q 22.515625 -1.421875 17.65625 -0.515625 
Q 12.796875 0.390625 7.625 2.203125 
L 7.625 11.71875 
Q 11.71875 9.328125 16.59375 8.109375 
Q 21.484375 6.890625 26.8125 6.890625 
Q 36.078125 6.890625 40.9375 10.546875 
Q 45.796875 14.203125 45.796875 21.1875 
Q 45.796875 27.640625 41.28125 31.265625 
Q 36.765625 34.90625 28.71875 34.90625 
L 20.21875 34.90625 
L 20.21875 43.015625 
L 29.109375 43.015625 
Q 36.375 43.015625 40.234375 45.921875 
Q 44.09375 48.828125 44.09375 54.296875 
Q 44.09375 59.90625 40.109375 62.90625 
Q 36.140625 65.921875 28.71875 65.921875 
Q 24.65625 65.921875 20.015625 65.03125 
Q 15.375 64.15625 9.8125 62.3125 
L 9.8125 71.09375 
Q 15.4375 72.65625 20.34375 73.4375 
Q 25.25 74.21875 29.59375 74.21875 
Q 40.828125 74.21875 47.359375 69.109375 
Q 53.90625 64.015625 53.90625 55.328125 
Q 53.90625 49.265625 50.4375 45.09375 
Q 46.96875 40.921875 40.578125 39.3125 
z
" id="DejaVuSans-33"/>
      <path d="M 8.203125 72.90625 
L 55.078125 72.90625 
L 55.078125 68.703125 
L 28.609375 0 
L 18.3125 0 
L 43.21875 64.59375 
L 8.203125 64.59375 
z
" id="DejaVuSans-37"/>
     </defs>
     <g transform="translate(124.915625 240.920313)scale(0.1 -0.1)">
      <use xlink:href="#DejaVuSans-54"/>
      <use x="60.865234" xlink:href="#DejaVuSans-72"/>
      <use x="101.978516" xlink:href="#DejaVuSans-61"/>
      <use x="163.257812" xlink:href="#DejaVuSans-69"/>
      <use x="191.041016" xlink:href="#DejaVuSans-6e"/>
      <use x="254.419922" xlink:href="#DejaVuSans-3a"/>
      <use x="288.111328" xlink:href="#DejaVuSans-20"/>
      <use x="319.898438" xlink:href="#DejaVuSans-4f"/>
      <use x="398.609375" xlink:href="#DejaVuSans-43"/>
      <use x="468.433594" xlink:href="#DejaVuSans-2b"/>
      <use x="552.222656" xlink:href="#DejaVuSans-56"/>
      <use x="620.630859" xlink:href="#DejaVuSans-43"/>
      <use x="690.455078" xlink:href="#DejaVuSans-2c"/>
      <use x="722.242188" xlink:href="#DejaVuSans-20"/>
      <use x="754.029297" xlink:href="#DejaVuSans-54"/>
      <use x="814.847656" xlink:href="#DejaVuSans-65"/>
      <use x="876.371094" xlink:href="#DejaVuSans-73"/>
      <use x="928.470703" xlink:href="#DejaVuSans-74"/>
      <use x="967.679688" xlink:href="#DejaVuSans-3a"/>
      <use x="1001.371094" xlink:href="#DejaVuSans-20"/>
      <use x="1033.158203" xlink:href="#DejaVuSans-4f"/>
      <use x="1111.869141" xlink:href="#DejaVuSans-43"/>
      <use x="1181.693359" xlink:href="#DejaVuSans-20"/>
      <use x="1213.480469" xlink:href="#DejaVuSans-28"/>
      <use x="1252.494141" xlink:href="#DejaVuSans-4c"/>
      <use x="1308.160156" xlink:href="#DejaVuSans-4f"/>
      <use x="1386.871094" xlink:href="#DejaVuSans-50"/>
      <use x="1447.173828" xlink:href="#DejaVuSans-4f"/>
      <use x="1525.884766" xlink:href="#DejaVuSans-20"/>
      <use x="1557.671875" xlink:href="#DejaVuSans-78"/>
      <use x="1616.851562" xlink:href="#DejaVuSans-2d"/>
      <use x="1652.904297" xlink:href="#DejaVuSans-76"/>
      <use x="1712.083984" xlink:href="#DejaVuSans-61"/>
      <use x="1773.363281" xlink:href="#DejaVuSans-6c"/>
      <use x="1801.146484" xlink:href="#DejaVuSans-29"/>
      <use x="1840.160156" xlink:href="#DejaVuSans-2c"/>
      <use x="1871.947266" xlink:href="#DejaVuSans-20"/>
      <use x="1903.734375" xlink:href="#DejaVuSans-41"/>
      <use x="1972.142578" xlink:href="#DejaVuSans-55"/>
      <use x="2045.335938" xlink:href="#DejaVuSans-43"/>
      <use x="2115.160156" xlink:href="#DejaVuSans-3d"/>
      <use x="2198.949219" xlink:href="#DejaVuSans-30"/>
      <use x="2262.572266" xlink:href="#DejaVuSans-2e"/>
      <use x="2294.359375" xlink:href="#DejaVuSans-39"/>
      <use x="2357.982422" xlink:href="#DejaVuSans-33"/>
      <use x="2421.605469" xlink:href="#DejaVuSans-37"/>
      <use x="2485.228516" xlink:href="#DejaVuSans-39"/>
     </g>
    </g>
   </g>
  </g>
 </g>
 <defs>
  <clipPath id="pdf1e76389d">
   <rect height="217.44" width="334.8" x="54" y="34.56"/>
  </clipPath>
 </defs>
</svg>
