<?xml version="1.0" encoding="utf-8" standalone="no"?>
<!DOCTYPE svg PUBLIC "-//W3C//DTD SVG 1.1//EN"
  "http://www.w3.org/Graphics/SVG/1.1/DTD/svg11.dtd">
<!-- Created with matplotlib (http://matplotlib.org/) -->
<svg height="288pt" version="1.1" viewBox="0 0 432 288" width="432pt" xmlns="http://www.w3.org/2000/svg" xmlns:xlink="http://www.w3.org/1999/xlink">
 <defs>
  <style type="text/css">
*{stroke-linecap:butt;stroke-linejoin:round;}
  </style>
 </defs>
 <g id="figure_1">
  <g id="patch_1">
   <path d="M 0 288 
L 432 288 
L 432 0 
L 0 0 
z
" style="fill:#ffffff;"/>
  </g>
  <g id="axes_1">
   <g id="patch_2">
    <path d="M 47.675 246.2 
L 417.7 246.2 
L 417.7 14.3 
L 47.675 14.3 
z
" style="fill:#ffffff;"/>
   </g>
   <g id="matplotlib.axis_1">
    <g id="xtick_1">
     <g id="line2d_1">
      <path clip-path="url(#pc930f89389)" d="M 64.494318 246.2 
L 64.494318 14.3 
" style="fill:none;stroke:#b0b0b0;stroke-linecap:square;stroke-width:0.8;"/>
     </g>
     <g id="line2d_2">
      <defs>
       <path d="M 0 0 
L 0 3.5 
" id="m70543679fe" style="stroke:#000000;stroke-width:0.8;"/>
      </defs>
      <g>
       <use style="stroke:#000000;stroke-width:0.8;" x="64.494318" xlink:href="#m70543679fe" y="246.2"/>
      </g>
     </g>
     <g id="text_1">
      <!-- 0.0 -->
      <defs>
       <path d="M 31.78125 66.40625 
Q 24.171875 66.40625 20.328125 58.90625 
Q 16.5 51.421875 16.5 36.375 
Q 16.5 21.390625 20.328125 13.890625 
Q 24.171875 6.390625 31.78125 6.390625 
Q 39.453125 6.390625 43.28125 13.890625 
Q 47.125 21.390625 47.125 36.375 
Q 47.125 51.421875 43.28125 58.90625 
Q 39.453125 66.40625 31.78125 66.40625 
z
M 31.78125 74.21875 
Q 44.046875 74.21875 50.515625 64.515625 
Q 56.984375 54.828125 56.984375 36.375 
Q 56.984375 17.96875 50.515625 8.265625 
Q 44.046875 -1.421875 31.78125 -1.421875 
Q 19.53125 -1.421875 13.0625 8.265625 
Q 6.59375 17.96875 6.59375 36.375 
Q 6.59375 54.828125 13.0625 64.515625 
Q 19.53125 74.21875 31.78125 74.21875 
z
" id="DejaVuSans-30"/>
       <path d="M 10.6875 12.40625 
L 21 12.40625 
L 21 0 
L 10.6875 0 
z
" id="DejaVuSans-2e"/>
      </defs>
      <g transform="translate(56.542756 260.798437)scale(0.1 -0.1)">
       <use xlink:href="#DejaVuSans-30"/>
       <use x="63.623047" xlink:href="#DejaVuSans-2e"/>
       <use x="95.410156" xlink:href="#DejaVuSans-30"/>
      </g>
     </g>
    </g>
    <g id="xtick_2">
     <g id="line2d_3">
      <path clip-path="url(#pc930f89389)" d="M 131.771591 246.2 
L 131.771591 14.3 
" style="fill:none;stroke:#b0b0b0;stroke-linecap:square;stroke-width:0.8;"/>
     </g>
     <g id="line2d_4">
      <g>
       <use style="stroke:#000000;stroke-width:0.8;" x="131.771591" xlink:href="#m70543679fe" y="246.2"/>
      </g>
     </g>
     <g id="text_2">
      <!-- 0.2 -->
      <defs>
       <path d="M 19.1875 8.296875 
L 53.609375 8.296875 
L 53.609375 0 
L 7.328125 0 
L 7.328125 8.296875 
Q 12.9375 14.109375 22.625 23.890625 
Q 32.328125 33.6875 34.8125 36.53125 
Q 39.546875 41.84375 41.421875 45.53125 
Q 43.3125 49.21875 43.3125 52.78125 
Q 43.3125 58.59375 39.234375 62.25 
Q 35.15625 65.921875 28.609375 65.921875 
Q 23.96875 65.921875 18.8125 64.3125 
Q 13.671875 62.703125 7.8125 59.421875 
L 7.8125 69.390625 
Q 13.765625 71.78125 18.9375 73 
Q 24.125 74.21875 28.421875 74.21875 
Q 39.75 74.21875 46.484375 68.546875 
Q 53.21875 62.890625 53.21875 53.421875 
Q 53.21875 48.921875 51.53125 44.890625 
Q 49.859375 40.875 45.40625 35.40625 
Q 44.1875 33.984375 37.640625 27.21875 
Q 31.109375 20.453125 19.1875 8.296875 
z
" id="DejaVuSans-32"/>
      </defs>
      <g transform="translate(123.820028 260.798437)scale(0.1 -0.1)">
       <use xlink:href="#DejaVuSans-30"/>
       <use x="63.623047" xlink:href="#DejaVuSans-2e"/>
       <use x="95.410156" xlink:href="#DejaVuSans-32"/>
      </g>
     </g>
    </g>
    <g id="xtick_3">
     <g id="line2d_5">
      <path clip-path="url(#pc930f89389)" d="M 199.048864 246.2 
L 199.048864 14.3 
" style="fill:none;stroke:#b0b0b0;stroke-linecap:square;stroke-width:0.8;"/>
     </g>
     <g id="line2d_6">
      <g>
       <use style="stroke:#000000;stroke-width:0.8;" x="199.048864" xlink:href="#m70543679fe" y="246.2"/>
      </g>
     </g>
     <g id="text_3">
      <!-- 0.4 -->
      <defs>
       <path d="M 37.796875 64.3125 
L 12.890625 25.390625 
L 37.796875 25.390625 
z
M 35.203125 72.90625 
L 47.609375 72.90625 
L 47.609375 25.390625 
L 58.015625 25.390625 
L 58.015625 17.1875 
L 47.609375 17.1875 
L 47.609375 0 
L 37.796875 0 
L 37.796875 17.1875 
L 4.890625 17.1875 
L 4.890625 26.703125 
z
" id="DejaVuSans-34"/>
      </defs>
      <g transform="translate(191.097301 260.798437)scale(0.1 -0.1)">
       <use xlink:href="#DejaVuSans-30"/>
       <use x="63.623047" xlink:href="#DejaVuSans-2e"/>
       <use x="95.410156" xlink:href="#DejaVuSans-34"/>
      </g>
     </g>
    </g>
    <g id="xtick_4">
     <g id="line2d_7">
      <path clip-path="url(#pc930f89389)" d="M 266.326136 246.2 
L 266.326136 14.3 
" style="fill:none;stroke:#b0b0b0;stroke-linecap:square;stroke-width:0.8;"/>
     </g>
     <g id="line2d_8">
      <g>
       <use style="stroke:#000000;stroke-width:0.8;" x="266.326136" xlink:href="#m70543679fe" y="246.2"/>
      </g>
     </g>
     <g id="text_4">
      <!-- 0.6 -->
      <defs>
       <path d="M 33.015625 40.375 
Q 26.375 40.375 22.484375 35.828125 
Q 18.609375 31.296875 18.609375 23.390625 
Q 18.609375 15.53125 22.484375 10.953125 
Q 26.375 6.390625 33.015625 6.390625 
Q 39.65625 6.390625 43.53125 10.953125 
Q 47.40625 15.53125 47.40625 23.390625 
Q 47.40625 31.296875 43.53125 35.828125 
Q 39.65625 40.375 33.015625 40.375 
z
M 52.59375 71.296875 
L 52.59375 62.3125 
Q 48.875 64.0625 45.09375 64.984375 
Q 41.3125 65.921875 37.59375 65.921875 
Q 27.828125 65.921875 22.671875 59.328125 
Q 17.53125 52.734375 16.796875 39.40625 
Q 19.671875 43.65625 24.015625 45.921875 
Q 28.375 48.1875 33.59375 48.1875 
Q 44.578125 48.1875 50.953125 41.515625 
Q 57.328125 34.859375 57.328125 23.390625 
Q 57.328125 12.15625 50.6875 5.359375 
Q 44.046875 -1.421875 33.015625 -1.421875 
Q 20.359375 -1.421875 13.671875 8.265625 
Q 6.984375 17.96875 6.984375 36.375 
Q 6.984375 53.65625 15.1875 63.9375 
Q 23.390625 74.21875 37.203125 74.21875 
Q 40.921875 74.21875 44.703125 73.484375 
Q 48.484375 72.75 52.59375 71.296875 
z
" id="DejaVuSans-36"/>
      </defs>
      <g transform="translate(258.374574 260.798437)scale(0.1 -0.1)">
       <use xlink:href="#DejaVuSans-30"/>
       <use x="63.623047" xlink:href="#DejaVuSans-2e"/>
       <use x="95.410156" xlink:href="#DejaVuSans-36"/>
      </g>
     </g>
    </g>
    <g id="xtick_5">
     <g id="line2d_9">
      <path clip-path="url(#pc930f89389)" d="M 333.603409 246.2 
L 333.603409 14.3 
" style="fill:none;stroke:#b0b0b0;stroke-linecap:square;stroke-width:0.8;"/>
     </g>
     <g id="line2d_10">
      <g>
       <use style="stroke:#000000;stroke-width:0.8;" x="333.603409" xlink:href="#m70543679fe" y="246.2"/>
      </g>
     </g>
     <g id="text_5">
      <!-- 0.8 -->
      <defs>
       <path d="M 31.78125 34.625 
Q 24.75 34.625 20.71875 30.859375 
Q 16.703125 27.09375 16.703125 20.515625 
Q 16.703125 13.921875 20.71875 10.15625 
Q 24.75 6.390625 31.78125 6.390625 
Q 38.8125 6.390625 42.859375 10.171875 
Q 46.921875 13.96875 46.921875 20.515625 
Q 46.921875 27.09375 42.890625 30.859375 
Q 38.875 34.625 31.78125 34.625 
z
M 21.921875 38.8125 
Q 15.578125 40.375 12.03125 44.71875 
Q 8.5 49.078125 8.5 55.328125 
Q 8.5 64.0625 14.71875 69.140625 
Q 20.953125 74.21875 31.78125 74.21875 
Q 42.671875 74.21875 48.875 69.140625 
Q 55.078125 64.0625 55.078125 55.328125 
Q 55.078125 49.078125 51.53125 44.71875 
Q 48 40.375 41.703125 38.8125 
Q 48.828125 37.15625 52.796875 32.3125 
Q 56.78125 27.484375 56.78125 20.515625 
Q 56.78125 9.90625 50.3125 4.234375 
Q 43.84375 -1.421875 31.78125 -1.421875 
Q 19.734375 -1.421875 13.25 4.234375 
Q 6.78125 9.90625 6.78125 20.515625 
Q 6.78125 27.484375 10.78125 32.3125 
Q 14.796875 37.15625 21.921875 38.8125 
z
M 18.3125 54.390625 
Q 18.3125 48.734375 21.84375 45.5625 
Q 25.390625 42.390625 31.78125 42.390625 
Q 38.140625 42.390625 41.71875 45.5625 
Q 45.3125 48.734375 45.3125 54.390625 
Q 45.3125 60.0625 41.71875 63.234375 
Q 38.140625 66.40625 31.78125 66.40625 
Q 25.390625 66.40625 21.84375 63.234375 
Q 18.3125 60.0625 18.3125 54.390625 
z
" id="DejaVuSans-38"/>
      </defs>
      <g transform="translate(325.651847 260.798437)scale(0.1 -0.1)">
       <use xlink:href="#DejaVuSans-30"/>
       <use x="63.623047" xlink:href="#DejaVuSans-2e"/>
       <use x="95.410156" xlink:href="#DejaVuSans-38"/>
      </g>
     </g>
    </g>
    <g id="xtick_6">
     <g id="line2d_11">
      <path clip-path="url(#pc930f89389)" d="M 400.880682 246.2 
L 400.880682 14.3 
" style="fill:none;stroke:#b0b0b0;stroke-linecap:square;stroke-width:0.8;"/>
     </g>
     <g id="line2d_12">
      <g>
       <use style="stroke:#000000;stroke-width:0.8;" x="400.880682" xlink:href="#m70543679fe" y="246.2"/>
      </g>
     </g>
     <g id="text_6">
      <!-- 1.0 -->
      <defs>
       <path d="M 12.40625 8.296875 
L 28.515625 8.296875 
L 28.515625 63.921875 
L 10.984375 60.40625 
L 10.984375 69.390625 
L 28.421875 72.90625 
L 38.28125 72.90625 
L 38.28125 8.296875 
L 54.390625 8.296875 
L 54.390625 0 
L 12.40625 0 
z
" id="DejaVuSans-31"/>
      </defs>
      <g transform="translate(392.929119 260.798437)scale(0.1 -0.1)">
       <use xlink:href="#DejaVuSans-31"/>
       <use x="63.623047" xlink:href="#DejaVuSans-2e"/>
       <use x="95.410156" xlink:href="#DejaVuSans-30"/>
      </g>
     </g>
    </g>
    <g id="text_7">
     <!-- 1 - specificity -->
     <defs>
      <path id="DejaVuSans-20"/>
      <path d="M 4.890625 31.390625 
L 31.203125 31.390625 
L 31.203125 23.390625 
L 4.890625 23.390625 
z
" id="DejaVuSans-2d"/>
      <path d="M 44.28125 53.078125 
L 44.28125 44.578125 
Q 40.484375 46.53125 36.375 47.5 
Q 32.28125 48.484375 27.875 48.484375 
Q 21.1875 48.484375 17.84375 46.4375 
Q 14.5 44.390625 14.5 40.28125 
Q 14.5 37.15625 16.890625 35.375 
Q 19.28125 33.59375 26.515625 31.984375 
L 29.59375 31.296875 
Q 39.15625 29.25 43.1875 25.515625 
Q 47.21875 21.78125 47.21875 15.09375 
Q 47.21875 7.46875 41.1875 3.015625 
Q 35.15625 -1.421875 24.609375 -1.421875 
Q 20.21875 -1.421875 15.453125 -0.5625 
Q 10.6875 0.296875 5.421875 2 
L 5.421875 11.28125 
Q 10.40625 8.6875 15.234375 7.390625 
Q 20.0625 6.109375 24.8125 6.109375 
Q 31.15625 6.109375 34.5625 8.28125 
Q 37.984375 10.453125 37.984375 14.40625 
Q 37.984375 18.0625 35.515625 20.015625 
Q 33.0625 21.96875 24.703125 23.78125 
L 21.578125 24.515625 
Q 13.234375 26.265625 9.515625 29.90625 
Q 5.8125 33.546875 5.8125 39.890625 
Q 5.8125 47.609375 11.28125 51.796875 
Q 16.75 56 26.8125 56 
Q 31.78125 56 36.171875 55.265625 
Q 40.578125 54.546875 44.28125 53.078125 
z
" id="DejaVuSans-73"/>
      <path d="M 18.109375 8.203125 
L 18.109375 -20.796875 
L 9.078125 -20.796875 
L 9.078125 54.6875 
L 18.109375 54.6875 
L 18.109375 46.390625 
Q 20.953125 51.265625 25.265625 53.625 
Q 29.59375 56 35.59375 56 
Q 45.5625 56 51.78125 48.09375 
Q 58.015625 40.1875 58.015625 27.296875 
Q 58.015625 14.40625 51.78125 6.484375 
Q 45.5625 -1.421875 35.59375 -1.421875 
Q 29.59375 -1.421875 25.265625 0.953125 
Q 20.953125 3.328125 18.109375 8.203125 
z
M 48.6875 27.296875 
Q 48.6875 37.203125 44.609375 42.84375 
Q 40.53125 48.484375 33.40625 48.484375 
Q 26.265625 48.484375 22.1875 42.84375 
Q 18.109375 37.203125 18.109375 27.296875 
Q 18.109375 17.390625 22.1875 11.75 
Q 26.265625 6.109375 33.40625 6.109375 
Q 40.53125 6.109375 44.609375 11.75 
Q 48.6875 17.390625 48.6875 27.296875 
z
" id="DejaVuSans-70"/>
      <path d="M 56.203125 29.59375 
L 56.203125 25.203125 
L 14.890625 25.203125 
Q 15.484375 15.921875 20.484375 11.0625 
Q 25.484375 6.203125 34.421875 6.203125 
Q 39.59375 6.203125 44.453125 7.46875 
Q 49.3125 8.734375 54.109375 11.28125 
L 54.109375 2.78125 
Q 49.265625 0.734375 44.1875 -0.34375 
Q 39.109375 -1.421875 33.890625 -1.421875 
Q 20.796875 -1.421875 13.15625 6.1875 
Q 5.515625 13.8125 5.515625 26.8125 
Q 5.515625 40.234375 12.765625 48.109375 
Q 20.015625 56 32.328125 56 
Q 43.359375 56 49.78125 48.890625 
Q 56.203125 41.796875 56.203125 29.59375 
z
M 47.21875 32.234375 
Q 47.125 39.59375 43.09375 43.984375 
Q 39.0625 48.390625 32.421875 48.390625 
Q 24.90625 48.390625 20.390625 44.140625 
Q 15.875 39.890625 15.1875 32.171875 
z
" id="DejaVuSans-65"/>
      <path d="M 48.78125 52.59375 
L 48.78125 44.1875 
Q 44.96875 46.296875 41.140625 47.34375 
Q 37.3125 48.390625 33.40625 48.390625 
Q 24.65625 48.390625 19.8125 42.84375 
Q 14.984375 37.3125 14.984375 27.296875 
Q 14.984375 17.28125 19.8125 11.734375 
Q 24.65625 6.203125 33.40625 6.203125 
Q 37.3125 6.203125 41.140625 7.25 
Q 44.96875 8.296875 48.78125 10.40625 
L 48.78125 2.09375 
Q 45.015625 0.34375 40.984375 -0.53125 
Q 36.96875 -1.421875 32.421875 -1.421875 
Q 20.0625 -1.421875 12.78125 6.34375 
Q 5.515625 14.109375 5.515625 27.296875 
Q 5.515625 40.671875 12.859375 48.328125 
Q 20.21875 56 33.015625 56 
Q 37.15625 56 41.109375 55.140625 
Q 45.0625 54.296875 48.78125 52.59375 
z
" id="DejaVuSans-63"/>
      <path d="M 9.421875 54.6875 
L 18.40625 54.6875 
L 18.40625 0 
L 9.421875 0 
z
M 9.421875 75.984375 
L 18.40625 75.984375 
L 18.40625 64.59375 
L 9.421875 64.59375 
z
" id="DejaVuSans-69"/>
      <path d="M 37.109375 75.984375 
L 37.109375 68.5 
L 28.515625 68.5 
Q 23.6875 68.5 21.796875 66.546875 
Q 19.921875 64.59375 19.921875 59.515625 
L 19.921875 54.6875 
L 34.71875 54.6875 
L 34.71875 47.703125 
L 19.921875 47.703125 
L 19.921875 0 
L 10.890625 0 
L 10.890625 47.703125 
L 2.296875 47.703125 
L 2.296875 54.6875 
L 10.890625 54.6875 
L 10.890625 58.5 
Q 10.890625 67.625 15.140625 71.796875 
Q 19.390625 75.984375 28.609375 75.984375 
z
" id="DejaVuSans-66"/>
      <path d="M 18.3125 70.21875 
L 18.3125 54.6875 
L 36.8125 54.6875 
L 36.8125 47.703125 
L 18.3125 47.703125 
L 18.3125 18.015625 
Q 18.3125 11.328125 20.140625 9.421875 
Q 21.96875 7.515625 27.59375 7.515625 
L 36.8125 7.515625 
L 36.8125 0 
L 27.59375 0 
Q 17.1875 0 13.234375 3.875 
Q 9.28125 7.765625 9.28125 18.015625 
L 9.28125 47.703125 
L 2.6875 47.703125 
L 2.6875 54.6875 
L 9.28125 54.6875 
L 9.28125 70.21875 
z
" id="DejaVuSans-74"/>
      <path d="M 32.171875 -5.078125 
Q 28.375 -14.84375 24.75 -17.8125 
Q 21.140625 -20.796875 15.09375 -20.796875 
L 7.90625 -20.796875 
L 7.90625 -13.28125 
L 13.1875 -13.28125 
Q 16.890625 -13.28125 18.9375 -11.515625 
Q 21 -9.765625 23.484375 -3.21875 
L 25.09375 0.875 
L 2.984375 54.6875 
L 12.5 54.6875 
L 29.59375 11.921875 
L 46.6875 54.6875 
L 56.203125 54.6875 
z
" id="DejaVuSans-79"/>
     </defs>
     <g transform="translate(199.323438 274.476562)scale(0.1 -0.1)">
      <use xlink:href="#DejaVuSans-31"/>
      <use x="63.623047" xlink:href="#DejaVuSans-20"/>
      <use x="95.410156" xlink:href="#DejaVuSans-2d"/>
      <use x="131.494141" xlink:href="#DejaVuSans-20"/>
      <use x="163.28125" xlink:href="#DejaVuSans-73"/>
      <use x="215.380859" xlink:href="#DejaVuSans-70"/>
      <use x="278.857422" xlink:href="#DejaVuSans-65"/>
      <use x="340.380859" xlink:href="#DejaVuSans-63"/>
      <use x="395.361328" xlink:href="#DejaVuSans-69"/>
      <use x="423.144531" xlink:href="#DejaVuSans-66"/>
      <use x="458.349609" xlink:href="#DejaVuSans-69"/>
      <use x="486.132812" xlink:href="#DejaVuSans-63"/>
      <use x="541.113281" xlink:href="#DejaVuSans-69"/>
      <use x="568.896484" xlink:href="#DejaVuSans-74"/>
      <use x="608.105469" xlink:href="#DejaVuSans-79"/>
     </g>
    </g>
   </g>
   <g id="matplotlib.axis_2">
    <g id="ytick_1">
     <g id="line2d_13">
      <path clip-path="url(#pc930f89389)" d="M 47.675 235.691564 
L 417.7 235.691564 
" style="fill:none;stroke:#b0b0b0;stroke-linecap:square;stroke-width:0.8;"/>
     </g>
     <g id="line2d_14">
      <defs>
       <path d="M 0 0 
L -3.5 0 
" id="me3c17246c0" style="stroke:#000000;stroke-width:0.8;"/>
      </defs>
      <g>
       <use style="stroke:#000000;stroke-width:0.8;" x="47.675" xlink:href="#me3c17246c0" y="235.691564"/>
      </g>
     </g>
     <g id="text_8">
      <!-- 0.0 -->
      <g transform="translate(24.771875 239.490783)scale(0.1 -0.1)">
       <use xlink:href="#DejaVuSans-30"/>
       <use x="63.623047" xlink:href="#DejaVuSans-2e"/>
       <use x="95.410156" xlink:href="#DejaVuSans-30"/>
      </g>
     </g>
    </g>
    <g id="ytick_2">
     <g id="line2d_15">
      <path clip-path="url(#pc930f89389)" d="M 47.675 193.521433 
L 417.7 193.521433 
" style="fill:none;stroke:#b0b0b0;stroke-linecap:square;stroke-width:0.8;"/>
     </g>
     <g id="line2d_16">
      <g>
       <use style="stroke:#000000;stroke-width:0.8;" x="47.675" xlink:href="#me3c17246c0" y="193.521433"/>
      </g>
     </g>
     <g id="text_9">
      <!-- 0.2 -->
      <g transform="translate(24.771875 197.320652)scale(0.1 -0.1)">
       <use xlink:href="#DejaVuSans-30"/>
       <use x="63.623047" xlink:href="#DejaVuSans-2e"/>
       <use x="95.410156" xlink:href="#DejaVuSans-32"/>
      </g>
     </g>
    </g>
    <g id="ytick_3">
     <g id="line2d_17">
      <path clip-path="url(#pc930f89389)" d="M 47.675 151.351302 
L 417.7 151.351302 
" style="fill:none;stroke:#b0b0b0;stroke-linecap:square;stroke-width:0.8;"/>
     </g>
     <g id="line2d_18">
      <g>
       <use style="stroke:#000000;stroke-width:0.8;" x="47.675" xlink:href="#me3c17246c0" y="151.351302"/>
      </g>
     </g>
     <g id="text_10">
      <!-- 0.4 -->
      <g transform="translate(24.771875 155.150521)scale(0.1 -0.1)">
       <use xlink:href="#DejaVuSans-30"/>
       <use x="63.623047" xlink:href="#DejaVuSans-2e"/>
       <use x="95.410156" xlink:href="#DejaVuSans-34"/>
      </g>
     </g>
    </g>
    <g id="ytick_4">
     <g id="line2d_19">
      <path clip-path="url(#pc930f89389)" d="M 47.675 109.181171 
L 417.7 109.181171 
" style="fill:none;stroke:#b0b0b0;stroke-linecap:square;stroke-width:0.8;"/>
     </g>
     <g id="line2d_20">
      <g>
       <use style="stroke:#000000;stroke-width:0.8;" x="47.675" xlink:href="#me3c17246c0" y="109.181171"/>
      </g>
     </g>
     <g id="text_11">
      <!-- 0.6 -->
      <g transform="translate(24.771875 112.98039)scale(0.1 -0.1)">
       <use xlink:href="#DejaVuSans-30"/>
       <use x="63.623047" xlink:href="#DejaVuSans-2e"/>
       <use x="95.410156" xlink:href="#DejaVuSans-36"/>
      </g>
     </g>
    </g>
    <g id="ytick_5">
     <g id="line2d_21">
      <path clip-path="url(#pc930f89389)" d="M 47.675 67.01104 
L 417.7 67.01104 
" style="fill:none;stroke:#b0b0b0;stroke-linecap:square;stroke-width:0.8;"/>
     </g>
     <g id="line2d_22">
      <g>
       <use style="stroke:#000000;stroke-width:0.8;" x="47.675" xlink:href="#me3c17246c0" y="67.01104"/>
      </g>
     </g>
     <g id="text_12">
      <!-- 0.8 -->
      <g transform="translate(24.771875 70.810259)scale(0.1 -0.1)">
       <use xlink:href="#DejaVuSans-30"/>
       <use x="63.623047" xlink:href="#DejaVuSans-2e"/>
       <use x="95.410156" xlink:href="#DejaVuSans-38"/>
      </g>
     </g>
    </g>
    <g id="ytick_6">
     <g id="line2d_23">
      <path clip-path="url(#pc930f89389)" d="M 47.675 24.840909 
L 417.7 24.840909 
" style="fill:none;stroke:#b0b0b0;stroke-linecap:square;stroke-width:0.8;"/>
     </g>
     <g id="line2d_24">
      <g>
       <use style="stroke:#000000;stroke-width:0.8;" x="47.675" xlink:href="#me3c17246c0" y="24.840909"/>
      </g>
     </g>
     <g id="text_13">
      <!-- 1.0 -->
      <g transform="translate(24.771875 28.640128)scale(0.1 -0.1)">
       <use xlink:href="#DejaVuSans-31"/>
       <use x="63.623047" xlink:href="#DejaVuSans-2e"/>
       <use x="95.410156" xlink:href="#DejaVuSans-30"/>
      </g>
     </g>
    </g>
    <g id="text_14">
     <!-- sensitivitiy -->
     <defs>
      <path d="M 54.890625 33.015625 
L 54.890625 0 
L 45.90625 0 
L 45.90625 32.71875 
Q 45.90625 40.484375 42.875 44.328125 
Q 39.84375 48.1875 33.796875 48.1875 
Q 26.515625 48.1875 22.3125 43.546875 
Q 18.109375 38.921875 18.109375 30.90625 
L 18.109375 0 
L 9.078125 0 
L 9.078125 54.6875 
L 18.109375 54.6875 
L 18.109375 46.1875 
Q 21.34375 51.125 25.703125 53.5625 
Q 30.078125 56 35.796875 56 
Q 45.21875 56 50.046875 50.171875 
Q 54.890625 44.34375 54.890625 33.015625 
z
" id="DejaVuSans-6e"/>
      <path d="M 2.984375 54.6875 
L 12.5 54.6875 
L 29.59375 8.796875 
L 46.6875 54.6875 
L 56.203125 54.6875 
L 35.6875 0 
L 23.484375 0 
z
" id="DejaVuSans-76"/>
     </defs>
     <g transform="translate(18.692188 157.1)rotate(-90)scale(0.1 -0.1)">
      <use xlink:href="#DejaVuSans-73"/>
      <use x="52.099609" xlink:href="#DejaVuSans-65"/>
      <use x="113.623047" xlink:href="#DejaVuSans-6e"/>
      <use x="177.001953" xlink:href="#DejaVuSans-73"/>
      <use x="229.101562" xlink:href="#DejaVuSans-69"/>
      <use x="256.884766" xlink:href="#DejaVuSans-74"/>
      <use x="296.09375" xlink:href="#DejaVuSans-69"/>
      <use x="323.876953" xlink:href="#DejaVuSans-76"/>
      <use x="383.056641" xlink:href="#DejaVuSans-69"/>
      <use x="410.839844" xlink:href="#DejaVuSans-74"/>
      <use x="450.048828" xlink:href="#DejaVuSans-69"/>
      <use x="477.832031" xlink:href="#DejaVuSans-79"/>
     </g>
    </g>
   </g>
   <g id="line2d_25">
    <path clip-path="url(#pc930f89389)" d="M 64.494318 235.627902 
L 64.494318 195.52044 
L 64.636734 195.52044 
L 64.636734 187.753598 
L 64.77915 187.753598 
L 64.77915 185.016105 
L 64.921566 185.016105 
L 64.921566 184.825117 
L 65.063982 184.825117 
L 65.063982 184.443141 
L 65.206398 184.443141 
L 65.206398 182.151286 
L 65.348814 182.151286 
L 65.348814 181.450997 
L 65.49123 181.450997 
L 65.49123 175.97601 
L 65.633645 175.97601 
L 65.633645 174.76642 
L 65.776061 174.76642 
L 65.776061 169.800735 
L 65.918477 169.800735 
L 65.918477 167.636205 
L 66.060893 167.636205 
L 66.060893 164.38941 
L 66.203309 164.38941 
L 66.203309 160.50599 
L 66.345725 160.50599 
L 66.345725 158.914424 
L 66.488141 158.914424 
L 66.488141 156.940882 
L 66.630557 156.940882 
L 66.630557 153.503099 
L 66.772973 153.503099 
L 66.772973 153.248449 
L 66.915389 153.248449 
L 66.915389 151.083919 
L 67.20022 151.020257 
L 67.20022 149.110377 
L 67.342636 149.110377 
L 67.342636 147.455149 
L 67.485052 147.455149 
L 67.485052 145.54527 
L 67.627468 145.54527 
L 67.627468 144.781318 
L 67.769884 144.781318 
L 67.769884 144.463005 
L 67.9123 144.463005 
L 67.9123 143.12609 
L 68.054716 143.12609 
L 68.054716 142.553126 
L 68.339548 142.489463 
L 68.339548 142.298475 
L 68.624379 142.234813 
L 68.624379 140.643247 
L 68.766795 140.643247 
L 68.766795 139.560982 
L 68.909211 139.560982 
L 68.909211 138.54238 
L 69.051627 138.54238 
L 69.051627 137.014476 
L 69.194043 137.014476 
L 69.194043 136.696163 
L 69.336459 136.696163 
L 69.336459 135.868549 
L 69.478875 135.868549 
L 69.478875 134.276983 
L 69.621291 134.276983 
L 69.621291 134.022332 
L 69.763707 134.022332 
L 69.763707 133.513031 
L 69.906123 133.513031 
L 69.906123 132.430766 
L 70.048538 132.430766 
L 70.048538 131.857803 
L 70.190954 131.857803 
L 70.190954 130.902863 
L 70.33337 130.902863 
L 70.33337 129.502285 
L 70.475786 129.502285 
L 70.475786 128.292695 
L 70.618202 128.292695 
L 70.618202 127.783394 
L 70.903034 127.783394 
L 70.903034 127.528743 
L 71.04545 127.528743 
L 71.04545 126.191828 
L 71.330282 126.191828 
L 71.330282 125.491539 
L 71.472697 125.491539 
L 71.472697 125.236888 
L 71.615113 125.236888 
L 71.615113 124.854913 
L 71.757529 124.854913 
L 71.757529 124.090961 
L 71.899945 124.090961 
L 71.899945 123.072359 
L 72.042361 123.072359 
L 72.042361 122.754046 
L 72.184777 122.754046 
L 72.184777 122.308407 
L 72.612025 122.244744 
L 72.612025 122.117419 
L 72.754441 122.117419 
L 72.754441 121.799106 
L 72.896856 121.799106 
L 72.896856 121.41713 
L 73.039272 121.41713 
L 73.039272 120.971492 
L 73.324104 120.907829 
L 73.324104 120.780504 
L 73.46652 120.780504 
L 73.46652 118.424986 
L 73.608936 118.424986 
L 73.608936 117.979348 
L 73.751352 117.979348 
L 73.751352 116.451444 
L 73.893768 116.451444 
L 73.893768 113.331975 
L 74.036184 113.331975 
L 74.036184 111.99506 
L 74.321016 111.931397 
L 74.321016 111.485759 
L 74.463431 111.485759 
L 74.463431 111.103783 
L 74.605847 111.103783 
L 74.605847 110.148843 
L 74.748263 110.148843 
L 74.748263 109.57588 
L 75.033095 109.512217 
L 75.033095 108.811928 
L 75.175511 108.811928 
L 75.175511 108.493615 
L 75.317927 108.493615 
L 75.317927 107.347687 
L 75.460343 107.347687 
L 75.460343 106.392748 
L 75.602759 106.392748 
L 75.602759 105.883447 
L 75.745175 105.883447 
L 75.745175 105.374146 
L 75.88759 105.374146 
L 75.88759 105.183158 
L 76.030006 105.183158 
L 76.030006 103.909905 
L 76.59967 103.846242 
L 76.59967 103.655254 
L 76.742086 103.655254 
L 76.742086 101.8727 
L 76.884502 101.8727 
L 76.884502 101.108749 
L 77.026918 101.108749 
L 77.026918 100.090147 
L 77.311749 100.090147 
L 77.311749 99.45352 
L 77.596581 99.45352 
L 77.596581 98.562243 
L 77.738997 98.562243 
L 77.738997 97.03434 
L 77.881413 97.03434 
L 77.881413 96.525039 
L 78.166245 96.525039 
L 78.166245 96.334051 
L 78.593493 96.270388 
L 78.593493 96.015738 
L 78.878324 95.952075 
L 78.878324 95.888413 
L 79.02074 95.888413 
L 79.02074 95.315449 
L 79.447988 95.315449 
L 79.447988 94.997136 
L 79.73282 94.997136 
L 79.73282 94.551497 
L 80.017652 94.551497 
L 80.017652 93.66022 
L 80.160068 93.66022 
L 80.160068 92.514293 
L 80.444899 92.45063 
L 80.444899 92.386967 
L 80.587315 92.386967 
L 80.587315 92.132317 
L 80.872147 92.132317 
L 80.872147 92.004992 
L 81.014563 92.004992 
L 81.014563 91.050052 
L 81.299395 91.050052 
L 81.299395 90.859064 
L 81.441811 90.859064 
L 81.441811 90.668076 
L 81.726642 90.604414 
L 81.726642 89.585811 
L 81.869058 89.585811 
L 81.869058 89.07651 
L 82.011474 89.07651 
L 82.011474 88.312559 
L 82.15389 88.312559 
L 82.15389 87.994245 
L 82.296306 87.994245 
L 82.296306 87.421282 
L 82.581138 87.357619 
L 82.581138 87.230294 
L 83.008386 87.230294 
L 83.008386 86.148029 
L 83.150802 86.148029 
L 83.150802 85.829716 
L 83.435633 85.766053 
L 83.435633 85.638728 
L 83.720465 85.638728 
L 83.720465 85.511403 
L 83.862881 85.511403 
L 83.862881 85.384077 
L 84.005297 85.384077 
L 84.005297 85.193089 
L 84.147713 85.193089 
L 84.147713 84.874776 
L 84.290129 84.874776 
L 84.290129 84.620126 
L 84.432545 84.620126 
L 84.432545 84.301813 
L 84.574961 84.301813 
L 84.574961 83.919837 
L 84.717376 83.919837 
L 84.717376 83.537861 
L 84.859792 83.537861 
L 84.859792 83.28321 
L 85.144624 83.219548 
L 85.144624 82.964897 
L 85.28704 82.964897 
L 85.28704 82.773909 
L 85.429456 82.773909 
L 85.429456 82.582921 
L 85.571872 82.582921 
L 85.571872 82.328271 
L 85.714288 82.328271 
L 85.714288 82.009958 
L 85.856704 82.009958 
L 85.856704 81.81897 
L 85.99912 81.81897 
L 85.99912 81.500656 
L 86.426367 81.436994 
L 86.426367 81.118681 
L 86.711199 81.055018 
L 86.711199 79.909091 
L 86.853615 79.909091 
L 86.853615 79.463452 
L 86.996031 79.463452 
L 86.996031 79.336127 
L 87.280863 79.272464 
L 87.280863 79.208802 
L 87.565695 79.145139 
L 87.565695 79.081476 
L 87.70811 79.081476 
L 87.70811 78.954151 
L 87.850526 78.954151 
L 87.850526 78.826826 
L 88.277774 78.826826 
L 88.277774 78.6995 
L 88.562606 78.635838 
L 88.562606 78.572175 
L 88.705022 78.572175 
L 88.705022 78.381187 
L 88.847438 78.381187 
L 88.847438 78.253862 
L 88.989854 78.253862 
L 88.989854 78.126537 
L 89.132269 78.126537 
L 89.132269 77.808223 
L 89.274685 77.808223 
L 89.274685 77.617236 
L 89.417101 77.617236 
L 89.417101 77.48991 
L 89.559517 77.48991 
L 89.559517 77.107934 
L 90.414013 77.044272 
L 90.414013 76.916947 
L 90.556428 76.916947 
L 90.556428 76.725959 
L 90.698844 76.725959 
L 90.698844 76.534971 
L 90.84126 76.534971 
L 90.84126 76.152995 
L 91.268508 76.089332 
L 91.268508 76.02567 
L 91.838172 76.02567 
L 91.838172 75.771019 
L 92.407835 75.707356 
L 92.407835 75.198055 
L 92.835083 75.134393 
L 92.835083 75.07073 
L 92.977499 75.07073 
L 92.977499 74.81608 
L 93.119915 74.81608 
L 93.119915 74.625092 
L 93.262331 74.625092 
L 93.262331 74.434104 
L 93.689578 74.370441 
L 93.689578 74.243116 
L 93.97441 74.179453 
L 93.97441 74.115791 
L 94.116826 74.115791 
L 94.116826 73.797477 
L 94.259242 73.797477 
L 94.259242 73.670152 
L 94.401658 73.670152 
L 94.401658 73.160851 
L 94.68649 73.160851 
L 94.68649 73.033526 
L 94.828906 73.033526 
L 94.828906 72.9062 
L 95.113737 72.9062 
L 95.113737 72.778875 
L 95.256153 72.778875 
L 95.256153 72.587887 
L 95.398569 72.587887 
L 95.398569 72.396899 
L 95.540985 72.396899 
L 95.540985 72.205911 
L 95.683401 72.205911 
L 95.683401 71.69661 
L 95.825817 71.69661 
L 95.825817 71.378297 
L 95.968233 71.378297 
L 95.968233 71.250972 
L 96.110649 71.250972 
L 96.110649 71.123647 
L 96.395481 71.059984 
L 96.395481 70.741671 
L 96.537896 70.741671 
L 96.537896 70.614345 
L 96.822728 70.550683 
L 96.822728 70.423358 
L 96.965144 70.423358 
L 96.965144 70.041382 
L 97.392392 69.977719 
L 97.392392 69.850394 
L 97.81964 69.850394 
L 97.81964 69.468418 
L 97.962055 69.468418 
L 97.962055 68.959117 
L 98.104471 68.959117 
L 98.104471 68.577141 
L 98.246887 68.577141 
L 98.246887 68.195165 
L 98.389303 68.195165 
L 98.389303 68.06784 
L 99.101383 68.06784 
L 99.101383 67.749527 
L 99.243799 67.749527 
L 99.243799 67.558539 
L 99.52863 67.494876 
L 99.52863 67.367551 
L 99.813462 67.367551 
L 99.813462 67.176563 
L 99.955878 67.176563 
L 99.955878 66.603599 
L 100.098294 66.603599 
L 100.098294 66.348949 
L 100.24071 66.348949 
L 100.24071 65.90331 
L 100.383126 65.90331 
L 100.383126 65.712322 
L 100.525542 65.712322 
L 100.525542 65.266684 
L 100.667958 65.266684 
L 100.667958 64.948371 
L 101.095205 64.948371 
L 101.095205 64.821045 
L 101.380037 64.757383 
L 101.380037 64.502732 
L 101.522453 64.502732 
L 101.522453 63.993431 
L 101.807285 63.929769 
L 101.807285 63.866106 
L 101.949701 63.866106 
L 101.949701 63.611455 
L 102.092117 63.611455 
L 102.092117 63.165817 
L 102.234533 63.165817 
L 102.234533 62.783841 
L 102.376948 62.783841 
L 102.376948 62.592853 
L 102.519364 62.592853 
L 102.519364 62.465528 
L 102.66178 62.465528 
L 102.66178 61.446926 
L 102.946612 61.446926 
L 102.946612 61.128612 
L 103.089028 61.128612 
L 103.089028 61.001287 
L 103.231444 61.001287 
L 103.231444 60.810299 
L 103.37386 60.810299 
L 103.37386 60.491986 
L 103.516276 60.491986 
L 103.516276 60.364661 
L 103.658692 60.364661 
L 103.658692 60.237336 
L 103.943523 60.237336 
L 103.943523 59.85536 
L 104.085939 59.85536 
L 104.085939 59.728034 
L 104.370771 59.728034 
L 104.370771 59.600709 
L 104.655603 59.600709 
L 104.655603 59.346059 
L 105.225267 59.282396 
L 105.225267 58.90042 
L 105.367682 58.90042 
L 105.367682 58.64577 
L 106.079762 58.582107 
L 106.079762 58.263794 
L 106.222178 58.263794 
L 106.222178 57.818155 
L 106.50701 57.818155 
L 106.50701 57.308854 
L 106.649426 57.308854 
L 106.649426 56.926878 
L 106.791841 56.926878 
L 106.791841 56.608565 
L 106.934257 56.608565 
L 106.934257 56.48124 
L 107.219089 56.417577 
L 107.219089 56.290252 
L 107.361505 56.290252 
L 107.361505 56.162927 
L 107.503921 56.162927 
L 107.503921 56.035601 
L 107.788753 55.971939 
L 107.788753 55.589963 
L 107.931169 55.589963 
L 107.931169 55.398975 
L 108.358416 55.398975 
L 108.358416 54.762349 
L 108.500832 54.762349 
L 108.500832 54.31671 
L 108.643248 54.31671 
L 108.643248 54.06206 
L 108.92808 53.998397 
L 108.92808 53.361771 
L 109.355328 53.298108 
L 109.355328 53.234445 
L 109.924991 53.234445 
L 109.924991 52.979795 
L 110.067407 52.979795 
L 110.067407 52.725144 
L 110.209823 52.725144 
L 110.209823 52.470494 
L 110.494655 52.406831 
L 110.494655 52.279506 
L 110.779487 52.215843 
L 110.779487 52.152181 
L 111.064319 52.088518 
L 111.064319 51.706542 
L 111.206734 51.706542 
L 111.206734 51.197241 
L 111.34915 51.197241 
L 111.34915 51.069916 
L 111.633982 51.006253 
L 111.633982 50.94259 
L 112.346062 50.94259 
L 112.346062 50.68794 
L 112.630894 50.624277 
L 112.630894 50.560615 
L 112.773309 50.560615 
L 112.773309 49.923988 
L 112.915725 49.923988 
L 112.915725 49.733 
L 113.342973 49.669338 
L 113.342973 49.542012 
L 113.627805 49.542012 
L 113.627805 49.351025 
L 113.912637 49.287362 
L 113.912637 49.096374 
L 114.055053 49.096374 
L 114.055053 48.841723 
L 114.197468 48.841723 
L 114.197468 48.52341 
L 114.767132 48.459748 
L 114.767132 48.205097 
L 115.051964 48.205097 
L 115.051964 48.077772 
L 115.19438 48.077772 
L 115.19438 47.886784 
L 115.479212 47.823121 
L 115.479212 47.759459 
L 116.618539 47.695796 
L 116.618539 47.632133 
L 117.188202 47.568471 
L 117.188202 47.504808 
L 117.61545 47.504808 
L 117.61545 47.186495 
L 117.757866 47.186495 
L 117.757866 46.931844 
L 117.900282 46.931844 
L 117.900282 46.804519 
L 118.185114 46.804519 
L 118.185114 46.549868 
L 118.32753 46.549868 
L 118.32753 46.422543 
L 118.469946 46.422543 
L 118.469946 46.295218 
L 118.612361 46.295218 
L 118.612361 46.10423 
L 118.754777 46.10423 
L 118.754777 45.976905 
L 118.897193 45.976905 
L 118.897193 45.849579 
L 119.039609 45.849579 
L 119.039609 45.658592 
L 119.182025 45.658592 
L 119.182025 45.340278 
L 119.324441 45.340278 
L 119.324441 45.14929 
L 119.466857 45.14929 
L 119.466857 44.958303 
L 119.751689 44.958303 
L 119.751689 44.703652 
L 120.03652 44.703652 
L 120.03652 44.512664 
L 120.606184 44.449001 
L 120.606184 44.258014 
L 120.891016 44.194351 
L 120.891016 44.067026 
L 121.033432 44.067026 
L 121.033432 43.748712 
L 121.46068 43.68505 
L 121.46068 43.621387 
L 121.603095 43.621387 
L 121.603095 43.303074 
L 121.887927 43.239411 
L 121.887927 42.921098 
L 122.172759 42.921098 
L 122.172759 42.666448 
L 122.315175 42.666448 
L 122.315175 42.539122 
L 122.884839 42.539122 
L 122.884839 42.411797 
L 123.16967 42.348134 
L 123.16967 42.220809 
L 123.739334 42.157146 
L 123.739334 42.093484 
L 124.166582 42.093484 
L 124.166582 41.711508 
L 124.308998 41.711508 
L 124.308998 41.584183 
L 125.021077 41.584183 
L 125.021077 41.456857 
L 125.305909 41.456857 
L 125.305909 41.202207 
L 125.590741 41.202207 
L 125.590741 41.074882 
L 125.875573 41.074882 
L 125.875573 40.947556 
L 126.017988 40.947556 
L 126.017988 40.820231 
L 126.160404 40.820231 
L 126.160404 40.692906 
L 126.445236 40.629243 
L 126.445236 40.501918 
L 126.730068 40.438255 
L 126.730068 40.31093 
L 127.157316 40.31093 
L 127.157316 40.183605 
L 127.299732 40.183605 
L 127.299732 39.992617 
L 127.869395 39.928954 
L 127.869395 39.737966 
L 128.296643 39.674304 
L 128.296643 39.546978 
L 128.581475 39.546978 
L 128.581475 39.419653 
L 129.151138 39.35599 
L 129.151138 39.292328 
L 129.293554 39.292328 
L 129.293554 39.165003 
L 130.14805 39.10134 
L 130.14805 38.846689 
L 130.290466 38.846689 
L 130.290466 38.719364 
L 130.432881 38.719364 
L 130.432881 38.592039 
L 130.717713 38.592039 
L 130.717713 38.464714 
L 130.860129 38.464714 
L 130.860129 38.337388 
L 131.002545 38.337388 
L 131.002545 38.210063 
L 131.287377 38.1464 
L 131.287377 38.082738 
L 132.141872 38.019075 
L 132.141872 37.89175 
L 132.711536 37.828087 
L 132.711536 37.700762 
L 134.562943 37.637099 
L 134.562943 37.573437 
L 135.987102 37.509774 
L 135.987102 37.446111 
L 136.271933 37.446111 
L 136.271933 37.255123 
L 136.556765 37.191461 
L 136.556765 37.127798 
L 136.699181 37.127798 
L 136.699181 37.000473 
L 138.265756 36.93681 
L 138.265756 36.873148 
L 138.693004 36.809485 
L 138.693004 36.745822 
L 138.977836 36.745822 
L 138.977836 36.618497 
L 139.974747 36.554834 
L 139.974747 36.491172 
L 140.401995 36.491172 
L 140.401995 36.236521 
L 141.25649 36.236521 
L 141.25649 36.109196 
L 142.110985 36.109196 
L 142.110985 35.981871 
L 142.823065 35.918208 
L 142.823065 35.854545 
L 143.67756 35.790883 
L 143.67756 35.72722 
L 144.959304 35.663557 
L 144.959304 35.599895 
L 145.386551 35.536232 
L 145.386551 35.408907 
L 145.671383 35.408907 
L 145.671383 35.281582 
L 146.383463 35.217919 
L 146.383463 35.154256 
L 147.52279 35.090594 
L 147.52279 35.026931 
L 147.950038 34.963268 
L 147.950038 34.835943 
L 149.231781 34.772281 
L 149.231781 34.708618 
L 149.659028 34.644955 
L 149.659028 34.581293 
L 151.937683 34.51763 
L 151.937683 34.453967 
L 152.507346 34.390305 
L 152.507346 34.326642 
L 153.504258 34.262979 
L 153.504258 34.199317 
L 154.501169 34.135654 
L 154.501169 34.071992 
L 156.21016 34.008329 
L 156.21016 33.944666 
L 158.773646 33.881004 
L 158.773646 33.817341 
L 159.628142 33.753678 
L 159.628142 33.499028 
L 160.482637 33.435365 
L 160.482637 33.371703 
L 162.334044 33.371703 
L 162.334044 33.244377 
L 163.615787 33.180715 
L 163.615787 33.117052 
L 164.327866 33.053389 
L 164.327866 32.989727 
L 165.752025 32.926064 
L 165.752025 32.862401 
L 167.033769 32.798739 
L 167.033769 32.735076 
L 170.166918 32.671414 
L 170.166918 32.607751 
L 175.009059 32.544088 
L 175.009059 32.480426 
L 176.71805 32.416763 
L 176.71805 32.289438 
L 177.999793 32.225775 
L 177.999793 32.162112 
L 178.569457 32.09845 
L 178.569457 32.034787 
L 179.281536 31.971124 
L 179.281536 31.907462 
L 182.98435 31.907462 
L 182.98435 31.780137 
L 183.554013 31.780137 
L 183.554013 31.652811 
L 183.838845 31.589149 
L 183.838845 31.525486 
L 184.978172 31.461823 
L 184.978172 31.398161 
L 187.541659 31.334498 
L 187.541659 31.207173 
L 190.247561 31.14351 
L 190.247561 31.079848 
L 190.532393 31.079848 
L 190.532393 30.952522 
L 191.956552 30.88886 
L 191.956552 30.825197 
L 195.801781 30.761534 
L 195.801781 30.697872 
L 197.22594 30.634209 
L 197.22594 30.570546 
L 198.222851 30.506884 
L 198.222851 30.443221 
L 199.931842 30.379559 
L 199.931842 30.315896 
L 200.643922 30.252233 
L 200.643922 30.188571 
L 203.777072 30.124908 
L 203.777072 30.061245 
L 206.055726 29.997583 
L 206.055726 29.93392 
L 209.04646 29.870257 
L 209.04646 29.806595 
L 212.464442 29.742932 
L 212.464442 29.67927 
L 212.606858 29.67927 
L 212.606858 29.551944 
L 221.863891 29.488282 
L 221.863891 29.424619 
L 223.28805 29.360956 
L 223.28805 29.297294 
L 228.842271 29.233631 
L 228.842271 29.169968 
L 233.114748 29.106306 
L 233.114748 29.042643 
L 239.808295 28.978981 
L 239.808295 28.915318 
L 243.653525 28.851655 
L 243.653525 28.787993 
L 247.783586 28.72433 
L 247.783586 28.660667 
L 251.343983 28.597005 
L 251.343983 28.533342 
L 256.186124 28.469679 
L 256.186124 28.406017 
L 262.737256 28.342354 
L 262.737256 28.278692 
L 266.155237 28.215029 
L 266.155237 28.151366 
L 276.409182 28.087704 
L 276.409182 28.024041 
L 277.263678 27.960378 
L 277.263678 27.833053 
L 281.251323 27.76939 
L 281.251323 27.705728 
L 285.5238 27.642065 
L 285.5238 27.578403 
L 299.480559 27.51474 
L 299.480559 27.451077 
L 316.570467 27.387415 
L 316.570467 27.323752 
L 324.11851 27.260089 
L 324.11851 27.196427 
L 336.366278 27.132764 
L 336.366278 27.069101 
L 339.357012 27.005439 
L 339.357012 26.878113 
L 342.490161 26.814451 
L 342.490161 26.750788 
L 352.032027 26.687126 
L 352.032027 26.623463 
L 358.155911 26.5598 
L 358.155911 26.432475 
L 362.00114 26.368812 
L 362.00114 26.30515 
L 364.564626 26.241487 
L 364.564626 26.177824 
L 367.412945 26.114162 
L 367.412945 26.050499 
L 371.543006 25.986837 
L 371.543006 25.923174 
L 373.109581 25.859511 
L 373.109581 25.795849 
L 374.818572 25.732186 
L 374.818572 25.668523 
L 377.097226 25.604861 
L 377.097226 25.541198 
L 379.518296 25.477535 
L 379.518296 25.413873 
L 383.078694 25.35021 
L 383.078694 25.286548 
L 387.493587 25.222885 
L 387.493587 25.159222 
L 390.911569 25.09556 
L 390.911569 25.031897 
L 391.053984 25.031897 
L 391.053984 24.904572 
L 400.880682 24.840909 
L 400.880682 24.840909 
" style="fill:none;stroke:#008000;stroke-linecap:square;stroke-width:1.5;"/>
    <defs>
     <path d="M -0 2.828427 
L 1.697056 0 
L 0 -2.828427 
L -1.697056 -0 
z
" id="me6e9407d7e" style="stroke:#008000;stroke-linejoin:miter;"/>
    </defs>
    <g clip-path="url(#pc930f89389)">
     <use style="fill:#008000;stroke:#008000;stroke-linejoin:miter;" x="64.494318" xlink:href="#me6e9407d7e" y="235.627902"/>
     <use style="fill:#008000;stroke:#008000;stroke-linejoin:miter;" x="71.899945" xlink:href="#me6e9407d7e" y="124.090961"/>
     <use style="fill:#008000;stroke:#008000;stroke-linejoin:miter;" x="80.587315" xlink:href="#me6e9407d7e" y="92.386967"/>
     <use style="fill:#008000;stroke:#008000;stroke-linejoin:miter;" x="88.847438" xlink:href="#me6e9407d7e" y="78.381187"/>
     <use style="fill:#008000;stroke:#008000;stroke-linejoin:miter;" x="98.389303" xlink:href="#me6e9407d7e" y="68.195165"/>
     <use style="fill:#008000;stroke:#008000;stroke-linejoin:miter;" x="107.931169" xlink:href="#me6e9407d7e" y="55.589963"/>
     <use style="fill:#008000;stroke:#008000;stroke-linejoin:miter;" x="118.754777" xlink:href="#me6e9407d7e" y="46.10423"/>
     <use style="fill:#008000;stroke:#008000;stroke-linejoin:miter;" x="130.432881" xlink:href="#me6e9407d7e" y="38.719364"/>
     <use style="fill:#008000;stroke:#008000;stroke-linejoin:miter;" x="152.507346" xlink:href="#me6e9407d7e" y="34.390305"/>
     <use style="fill:#008000;stroke:#008000;stroke-linejoin:miter;" x="197.22594" xlink:href="#me6e9407d7e" y="30.634209"/>
     <use style="fill:#008000;stroke:#008000;stroke-linejoin:miter;" x="322.694351" xlink:href="#me6e9407d7e" y="27.323752"/>
    </g>
   </g>
   <g id="line2d_26">
    <path clip-path="url(#pc930f89389)" d="M 64.494318 235.352576 
L 64.576444 185.973296 
L 64.658569 185.973296 
L 64.740695 173.543729 
L 64.82282 173.543729 
L 64.904946 169.419373 
L 64.987072 169.419373 
L 65.069197 158.910739 
L 65.151323 158.910739 
L 65.233448 151.848485 
L 65.315574 151.848485 
L 65.3977 148.119615 
L 65.479825 148.119615 
L 65.561951 145.351211 
L 65.726202 145.351211 
L 65.808327 140.887867 
L 65.890453 140.887867 
L 65.972579 138.740942 
L 66.054704 138.740942 
L 66.13683 137.441487 
L 66.218955 137.441487 
L 66.301081 136.820008 
L 66.383206 136.820008 
L 66.465332 135.464056 
L 66.547458 135.464056 
L 66.629583 135.125068 
L 66.793834 135.068569 
L 66.87596 133.769115 
L 66.958085 133.769115 
L 67.040211 132.978142 
L 67.122337 132.978142 
L 67.204462 132.639154 
L 67.368713 132.639154 
L 67.450839 132.413162 
L 67.532965 132.413162 
L 67.61509 131.452695 
L 67.697216 131.452695 
L 67.779341 130.831217 
L 67.861467 130.831217 
L 67.943592 128.17581 
L 68.025718 128.17581 
L 68.107844 126.480869 
L 68.189969 126.480869 
L 68.272095 124.390441 
L 68.35422 124.390441 
L 68.436346 121.904528 
L 68.518471 121.904528 
L 68.518471 118.514646 
L 68.682723 118.514646 
L 68.764848 116.198227 
L 68.929099 116.141729 
L 69.011225 115.915737 
L 69.09335 115.915737 
L 69.175476 114.333792 
L 69.257602 114.333792 
L 69.339727 111.565388 
L 69.421853 111.565388 
L 69.421853 111.339396 
L 69.586104 111.339396 
L 69.66823 109.248969 
L 69.750355 109.248969 
L 69.832481 109.022977 
L 69.914606 109.022977 
L 69.996732 108.345 
L 70.078857 108.345 
L 70.078857 107.893016 
L 70.243109 107.893016 
L 70.325234 104.729126 
L 70.40736 104.729126 
L 70.489485 103.542668 
L 70.653736 103.542668 
L 70.735862 103.090683 
L 70.817988 103.090683 
L 70.900113 101.339244 
L 71.064364 101.282746 
L 71.14649 100.265782 
L 71.228616 100.265782 
L 71.310741 99.361813 
L 71.392867 99.361813 
L 71.474992 98.005861 
L 71.557118 98.005861 
L 71.639243 96.141425 
L 71.88562 96.141425 
L 71.88562 95.689441 
L 72.131997 95.689441 
L 72.214122 94.220492 
L 72.296248 94.220492 
L 72.378374 93.655512 
L 72.460499 93.655512 
L 72.542625 91.960571 
L 72.62475 91.960571 
L 72.706876 91.678081 
L 72.789001 91.678081 
L 72.871127 90.887108 
L 73.035378 90.887108 
L 73.117504 90.039638 
L 73.199629 90.039638 
L 73.281755 89.248666 
L 73.363881 89.248666 
L 73.446006 88.005709 
L 73.610257 88.005709 
L 73.692383 87.666721 
L 73.774508 87.666721 
L 73.856634 87.327732 
L 73.93876 87.327732 
L 74.020885 87.10174 
L 74.103011 87.10174 
L 74.185136 86.706254 
L 74.349387 86.649756 
L 74.431513 85.180807 
L 74.513639 85.180807 
L 74.595764 84.050847 
L 74.67789 84.050847 
L 74.760015 83.824854 
L 75.006392 83.824854 
L 75.088518 83.37287 
L 75.170643 83.37287 
L 75.170643 82.5254 
L 75.334894 82.5254 
L 75.41702 82.24291 
L 75.499146 82.24291 
L 75.581271 81.338941 
L 75.745522 81.338941 
L 75.827648 81.169447 
L 75.909773 81.169447 
L 75.909773 81.056451 
L 76.074025 81.056451 
L 76.074025 80.943455 
L 76.238276 80.943455 
L 76.320401 80.039486 
L 76.402527 80.039486 
L 76.484652 79.531004 
L 76.566778 79.531004 
L 76.648904 78.740032 
L 76.731029 78.740032 
L 76.813155 78.457541 
L 76.977406 78.457541 
L 77.059531 77.892561 
L 77.141657 77.892561 
L 77.141657 77.779565 
L 77.305908 77.779565 
L 77.305908 77.327581 
L 77.470159 77.327581 
L 77.552285 75.63264 
L 77.634411 75.63264 
L 77.716536 75.180656 
L 77.880787 75.180656 
L 77.962913 74.898165 
L 78.045038 74.898165 
L 78.127164 74.446181 
L 78.20929 74.446181 
L 78.291415 73.146726 
L 78.373541 73.146726 
L 78.373541 72.807738 
L 78.537792 72.807738 
L 78.619917 72.638244 
L 78.702043 72.638244 
L 78.784169 71.90377 
L 78.866294 71.90377 
L 78.866294 71.451785 
L 79.194796 71.395287 
L 79.194796 71.169295 
L 79.441173 71.112797 
L 79.441173 70.999801 
L 79.68755 70.999801 
L 79.68755 70.604315 
L 80.016052 70.604315 
L 80.098178 69.982837 
L 80.262429 69.926339 
L 80.262429 69.869841 
L 80.508806 69.813343 
L 80.590931 69.474354 
L 80.755182 69.474354 
L 80.837308 69.248362 
L 80.919434 69.248362 
L 81.001559 68.796378 
L 81.330061 68.73988 
L 81.330061 68.513888 
L 81.494313 68.513888 
L 81.576438 68.061904 
L 81.904941 68.005406 
L 81.987066 67.722915 
L 82.315568 67.666417 
L 82.397694 67.496923 
L 82.644071 67.496923 
L 82.644071 67.157935 
L 82.808322 67.157935 
L 82.890447 66.875445 
L 82.972573 66.875445 
L 83.054699 65.801982 
L 83.547452 65.745484 
L 83.629578 65.462994 
L 83.711703 65.462994 
L 83.711703 65.349998 
L 84.040206 65.2935 
L 84.040206 65.067508 
L 84.286582 65.01101 
L 84.368708 64.220037 
L 84.450833 64.220037 
L 84.532959 63.881049 
L 84.615085 63.881049 
L 84.615085 63.655057 
L 84.861461 63.655057 
L 84.861461 63.316069 
L 85.025712 63.316069 
L 85.107838 62.751089 
L 85.189964 62.751089 
L 85.272089 62.468598 
L 85.43634 62.4121 
L 85.518466 62.186108 
L 85.846968 62.12961 
L 85.846968 61.734124 
L 86.175471 61.677626 
L 86.175471 61.508132 
L 86.421847 61.451634 
L 86.421847 61.225642 
L 86.586098 61.225642 
L 86.586098 61.112646 
L 86.832475 61.112646 
L 86.914601 60.660661 
L 87.078852 60.604163 
L 87.160977 60.491167 
L 87.243103 60.491167 
L 87.325229 60.208677 
L 87.653731 60.208677 
L 87.653731 60.039183 
L 87.982233 60.039183 
L 88.064359 59.530701 
L 88.392861 59.530701 
L 88.474987 59.361207 
L 88.557112 59.361207 
L 88.557112 59.022218 
L 88.721363 59.022218 
L 88.803489 58.852724 
L 88.885615 58.852724 
L 88.885615 58.513736 
L 89.378368 58.457238 
L 89.378368 58.40074 
L 89.70687 58.344242 
L 89.788996 58.231246 
L 89.953247 58.174748 
L 89.953247 58.11825 
L 90.117498 58.11825 
L 90.199624 57.83576 
L 90.281749 57.83576 
L 90.363875 57.609768 
L 90.610252 57.609768 
L 90.692377 57.440274 
L 90.938754 57.383776 
L 91.02088 57.270779 
L 91.431507 57.270779 
L 91.431507 57.157783 
L 91.924261 57.157783 
L 92.006386 56.818795 
L 92.252763 56.818795 
L 92.252763 56.705799 
L 92.581266 56.649301 
L 92.581266 56.592803 
L 92.827642 56.536305 
L 92.909768 56.253815 
L 93.074019 56.197317 
L 93.074019 56.140819 
L 93.320396 56.140819 
L 93.402521 55.914827 
L 93.484647 55.914827 
L 93.484647 55.801831 
L 93.648898 55.801831 
L 93.731024 55.293348 
L 93.9774 55.23685 
L 94.059526 55.067356 
L 94.223777 55.067356 
L 94.305903 54.67187 
L 94.388028 54.67187 
L 94.388028 54.38938 
L 94.552279 54.38938 
L 94.634405 53.993894 
L 94.880782 53.937396 
L 94.880782 53.880898 
L 95.209284 53.824399 
L 95.29141 53.541909 
L 95.537786 53.541909 
L 95.619912 53.315917 
L 96.03054 53.259419 
L 96.03054 53.146423 
L 96.605419 53.089925 
L 96.605419 52.863933 
L 96.76967 52.863933 
L 96.76967 52.637941 
L 97.098172 52.637941 
L 97.098172 52.524945 
L 97.344549 52.524945 
L 97.344549 52.129459 
L 97.5088 52.129459 
L 97.5088 51.903466 
L 97.755177 51.903466 
L 97.755177 51.79047 
L 97.919428 51.79047 
L 97.919428 51.677474 
L 98.412182 51.620976 
L 98.412182 51.394984 
L 98.658558 51.394984 
L 98.658558 51.168992 
L 99.151312 51.112494 
L 99.233437 50.999498 
L 99.644065 50.999498 
L 99.726191 50.830004 
L 100.30107 50.773506 
L 100.30107 50.717008 
L 100.711698 50.66051 
L 100.793823 50.491016 
L 100.958074 50.434518 
L 100.958074 50.208525 
L 101.122326 50.208525 
L 101.122326 49.982533 
L 101.532953 49.926035 
L 101.532953 49.869537 
L 101.77933 49.869537 
L 101.77933 49.756541 
L 102.025707 49.700043 
L 102.107832 49.417553 
L 102.354209 49.361055 
L 102.436335 48.965569 
L 102.600586 48.909071 
L 102.600586 48.796075 
L 102.764837 48.796075 
L 102.846963 48.626581 
L 103.011214 48.570083 
L 103.093339 48.118098 
L 103.257591 48.118098 
L 103.339716 47.948604 
L 103.503967 47.948604 
L 103.586093 47.49662 
L 104.325223 47.440122 
L 104.325223 47.383624 
L 104.489474 47.383624 
L 104.489474 47.270628 
L 104.735851 47.270628 
L 104.817977 47.044636 
L 104.900102 47.044636 
L 104.900102 46.93164 
L 105.392856 46.875142 
L 105.392856 46.818644 
L 105.967735 46.818644 
L 106.04986 46.423157 
L 106.460488 46.366659 
L 106.460488 46.310161 
L 106.706865 46.253663 
L 106.78899 46.084169 
L 106.953242 46.027671 
L 106.953242 45.971173 
L 107.117493 45.971173 
L 107.117493 45.801679 
L 107.281744 45.801679 
L 107.281744 45.688683 
L 107.610246 45.632185 
L 107.692372 45.406193 
L 107.774497 45.406193 
L 107.856623 45.236699 
L 108.103 45.180201 
L 108.185125 44.954208 
L 108.513627 44.89771 
L 108.513627 44.728216 
L 109.58126 44.671718 
L 109.58126 44.61522 
L 109.745511 44.61522 
L 109.745511 44.502224 
L 110.156139 44.445726 
L 110.156139 44.276232 
L 110.484641 44.219734 
L 110.566767 44.106738 
L 110.895269 44.05024 
L 110.895269 43.993742 
L 111.470148 43.937244 
L 111.470148 43.880746 
L 111.880776 43.880746 
L 111.880776 43.76775 
L 112.127153 43.76775 
L 112.127153 43.598256 
L 112.37353 43.598256 
L 112.455655 43.202769 
L 112.537781 43.202769 
L 112.619906 43.033275 
L 112.948409 43.033275 
L 112.948409 42.920279 
L 113.194785 42.920279 
L 113.276911 42.694287 
L 113.687539 42.637789 
L 113.769664 42.468295 
L 113.933916 42.411797 
L 114.016041 42.242303 
L 114.180292 42.185805 
L 114.262418 42.016311 
L 114.59092 41.959813 
L 114.673046 41.564327 
L 114.919422 41.507829 
L 114.919422 41.45133 
L 115.494302 41.394832 
L 115.494302 41.338334 
L 116.397683 41.281836 
L 116.397683 41.225338 
L 116.890436 41.16884 
L 116.890436 41.112342 
L 117.218939 41.055844 
L 117.218939 40.942848 
L 117.793818 40.88635 
L 117.793818 40.829852 
L 118.040194 40.773354 
L 118.040194 40.716856 
L 118.532948 40.660358 
L 118.532948 40.547362 
L 118.943576 40.547362 
L 118.943576 40.377868 
L 119.189953 40.377868 
L 119.272078 40.095378 
L 120.093334 40.03888 
L 120.175459 39.869386 
L 120.91459 39.812888 
L 120.91459 39.699892 
L 121.243092 39.643393 
L 121.243092 39.530397 
L 122.146473 39.473899 
L 122.146473 39.360903 
L 122.639227 39.304405 
L 122.639227 39.247907 
L 123.13198 39.191409 
L 123.13198 39.134911 
L 126.170627 39.078413 
L 126.252752 38.852421 
L 126.334878 38.852421 
L 126.334878 38.739425 
L 126.745506 38.682927 
L 126.827631 38.569931 
L 127.238259 38.513433 
L 127.238259 38.456935 
L 127.731013 38.400437 
L 127.731013 38.343939 
L 129.045022 38.287441 
L 129.127147 38.117947 
L 129.209273 38.117947 
L 129.209273 37.891954 
L 129.948403 37.835456 
L 129.948403 37.778958 
L 130.276905 37.72246 
L 130.359031 37.609464 
L 131.344538 37.552966 
L 131.344538 37.496468 
L 132.247919 37.496468 
L 132.247919 37.383472 
L 132.987049 37.326974 
L 133.069175 37.213978 
L 133.561928 37.15748 
L 133.561928 37.100982 
L 134.629561 37.044484 
L 134.629561 36.987986 
L 136.436324 36.931488 
L 136.436324 36.818492 
L 136.6827 36.761994 
L 136.6827 36.705496 
L 137.99671 36.648998 
L 138.078835 36.479504 
L 138.73584 36.423006 
L 138.73584 36.366508 
L 140.460477 36.31001 
L 140.460477 36.253512 
L 141.035356 36.197014 
L 141.117482 36.084017 
L 141.692361 36.027519 
L 141.692361 35.971021 
L 142.102989 35.971021 
L 142.102989 35.801527 
L 142.513616 35.745029 
L 142.513616 35.688531 
L 143.499123 35.632033 
L 143.581249 35.462539 
L 144.566756 35.406041 
L 144.648881 35.236547 
L 144.731007 35.236547 
L 144.731007 35.123551 
L 145.059509 35.123551 
L 145.059509 35.010555 
L 145.552263 35.010555 
L 145.634388 34.841061 
L 147.2769 34.784563 
L 147.2769 34.671567 
L 147.851779 34.615069 
L 147.851779 34.502073 
L 148.344532 34.445575 
L 148.344532 34.389076 
L 148.590909 34.389076 
L 148.590909 34.27608 
L 150.069169 34.219582 
L 150.069169 34.163084 
L 151.136802 34.106586 
L 151.136802 34.050088 
L 151.629555 33.99359 
L 151.711681 33.824096 
L 152.615062 33.767598 
L 152.615062 33.654602 
L 153.518444 33.598104 
L 153.518444 33.485108 
L 155.07883 33.42861 
L 155.07883 33.372112 
L 155.81796 33.315614 
L 155.81796 33.202618 
L 156.146462 33.14612 
L 156.146462 33.089622 
L 157.131969 33.089622 
L 157.131969 32.976626 
L 158.938732 32.920128 
L 158.938732 32.86363 
L 159.759988 32.807132 
L 159.759988 32.750634 
L 160.252741 32.694136 
L 160.252741 32.637638 
L 161.731001 32.581139 
L 161.813127 32.468143 
L 162.30588 32.468143 
L 162.30588 32.355147 
L 163.209262 32.298649 
L 163.209262 32.242151 
L 163.537764 32.185653 
L 163.537764 32.129155 
L 164.687522 32.072657 
L 164.687522 32.016159 
L 166.083657 31.959661 
L 166.083657 31.903163 
L 167.233415 31.903163 
L 167.233415 31.790167 
L 168.054671 31.733669 
L 168.054671 31.677171 
L 169.204429 31.620673 
L 169.204429 31.564175 
L 169.943559 31.507677 
L 169.943559 31.451179 
L 170.764815 31.394681 
L 170.764815 31.338183 
L 171.832447 31.338183 
L 171.832447 31.225187 
L 174.953219 31.168689 
L 174.953219 31.112191 
L 177.252735 31.055693 
L 177.252735 30.999195 
L 178.238242 30.999195 
L 178.238242 30.886199 
L 180.373507 30.8297 
L 180.373507 30.773202 
L 181.194763 30.716704 
L 181.194763 30.660206 
L 182.344521 30.603708 
L 182.344521 30.54721 
L 183.740656 30.490712 
L 183.740656 30.434214 
L 184.890414 30.377716 
L 184.890414 30.26472 
L 187.18993 30.208222 
L 187.272056 30.095226 
L 188.093312 30.038728 
L 188.093312 29.925732 
L 192.281716 29.869234 
L 192.363842 29.756238 
L 192.938721 29.69974 
L 192.938721 29.643242 
L 193.431474 29.586744 
L 193.431474 29.530246 
L 195.566739 29.473748 
L 195.566739 29.41725 
L 196.880748 29.360752 
L 196.880748 29.247756 
L 197.127125 29.191258 
L 197.209251 29.078261 
L 199.837269 29.021763 
L 199.837269 28.965265 
L 200.00152 28.965265 
L 200.00152 28.852269 
L 203.368669 28.795771 
L 203.368669 28.739273 
L 203.861422 28.682775 
L 203.943548 28.569779 
L 204.436301 28.513281 
L 204.436301 28.456783 
L 205.914562 28.400285 
L 205.914562 28.343787 
L 206.900069 28.287289 
L 206.900069 28.230791 
L 207.80345 28.174293 
L 207.80345 28.117795 
L 209.281711 28.061297 
L 209.281711 28.004799 
L 210.59572 27.948301 
L 210.59572 27.891803 
L 211.827603 27.835305 
L 211.827603 27.778807 
L 213.962868 27.722309 
L 213.962868 27.665811 
L 219.13678 27.609313 
L 219.13678 27.552815 
L 219.629533 27.552815 
L 219.629533 27.383321 
L 226.610207 27.326822 
L 226.610207 27.270324 
L 227.595714 27.213826 
L 227.595714 27.157328 
L 229.813105 27.10083 
L 229.813105 27.044332 
L 235.561895 26.987834 
L 235.561895 26.931336 
L 237.368658 26.874838 
L 237.368658 26.81834 
L 243.035323 26.761842 
L 243.035323 26.705344 
L 248.127108 26.648846 
L 248.209234 26.53585 
L 253.875899 26.479352 
L 253.875899 26.422854 
L 256.586043 26.366356 
L 256.586043 26.309858 
L 261.185075 26.25336 
L 261.185075 26.196862 
L 270.054638 26.140364 
L 270.054638 26.083866 
L 282.866228 26.027368 
L 282.866228 25.97087 
L 284.837241 25.914372 
L 284.837241 25.857874 
L 293.95318 25.801376 
L 293.95318 25.744878 
L 296.581199 25.68838 
L 296.581199 25.631882 
L 303.397622 25.575384 
L 303.397622 25.518885 
L 311.938682 25.462387 
L 311.938682 25.405889 
L 315.305831 25.349391 
L 315.305831 25.292893 
L 349.223694 25.236395 
L 349.223694 25.179897 
L 361.788907 25.123399 
L 361.788907 25.066901 
L 365.81306 25.010403 
L 365.81306 24.953905 
L 380.595664 24.897407 
L 380.595664 24.840909 
L 400.880682 24.840909 
L 400.880682 24.840909 
" style="fill:none;stroke:#ff0000;stroke-linecap:square;stroke-width:1.5;"/>
    <defs>
     <path d="M -2 0 
L 2 0 
M 0 2 
L 0 -2 
" id="m2ea8ab05bd" style="stroke:#ff0000;"/>
    </defs>
    <g clip-path="url(#pc930f89389)">
     <use style="fill:#ff0000;stroke:#ff0000;" x="64.494318" xlink:href="#m2ea8ab05bd" y="235.352576"/>
     <use style="fill:#ff0000;stroke:#ff0000;" x="68.107844" xlink:href="#m2ea8ab05bd" y="127.893319"/>
     <use style="fill:#ff0000;stroke:#ff0000;" x="72.460499" xlink:href="#m2ea8ab05bd" y="93.655512"/>
     <use style="fill:#ff0000;stroke:#ff0000;" x="77.305908" xlink:href="#m2ea8ab05bd" y="77.779565"/>
     <use style="fill:#ff0000;stroke:#ff0000;" x="83.629578" xlink:href="#m2ea8ab05bd" y="65.632488"/>
     <use style="fill:#ff0000;stroke:#ff0000;" x="90.281749" xlink:href="#m2ea8ab05bd" y="57.83576"/>
     <use style="fill:#ff0000;stroke:#ff0000;" x="98.658558" xlink:href="#m2ea8ab05bd" y="51.394984"/>
     <use style="fill:#ff0000;stroke:#ff0000;" x="106.953242" xlink:href="#m2ea8ab05bd" y="46.027671"/>
     <use style="fill:#ff0000;stroke:#ff0000;" x="115.740678" xlink:href="#m2ea8ab05bd" y="41.338334"/>
     <use style="fill:#ff0000;stroke:#ff0000;" x="132.247919" xlink:href="#m2ea8ab05bd" y="37.496468"/>
     <use style="fill:#ff0000;stroke:#ff0000;" x="151.711681" xlink:href="#m2ea8ab05bd" y="33.880594"/>
     <use style="fill:#ff0000;stroke:#ff0000;" x="182.344521" xlink:href="#m2ea8ab05bd" y="30.603708"/>
     <use style="fill:#ff0000;stroke:#ff0000;" x="219.629533" xlink:href="#m2ea8ab05bd" y="27.552815"/>
    </g>
   </g>
   <g id="line2d_27">
    <path clip-path="url(#pc930f89389)" d="M 64.494318 235.659091 
L 64.603305 153.338683 
L 64.657798 153.338683 
L 64.766784 151.520165 
L 64.821277 151.520165 
L 64.930264 148.07797 
L 64.984757 148.07797 
L 65.093743 142.65489 
L 65.148236 142.65489 
L 65.257223 141.420896 
L 65.311716 141.420896 
L 65.420702 138.076122 
L 65.475195 138.076122 
L 65.584182 131.191732 
L 65.693168 131.159259 
L 65.802154 128.561376 
L 65.856648 128.561376 
L 65.965634 126.288229 
L 66.020127 126.288229 
L 66.129113 122.943455 
L 66.183607 122.943455 
L 66.292593 121.384725 
L 66.347086 121.384725 
L 66.456072 119.631154 
L 66.510566 119.631154 
L 66.619552 115.63691 
L 66.674045 115.63691 
L 66.783031 114.727651 
L 66.837525 114.727651 
L 66.946511 112.909133 
L 67.109991 112.811712 
L 67.218977 111.999874 
L 67.27347 111.999874 
L 67.382456 109.954041 
L 67.491443 109.921568 
L 67.600429 109.337044 
L 67.654922 109.337044 
L 67.763909 108.167997 
L 67.818402 108.167997 
L 67.818402 107.745841 
L 67.981881 107.745841 
L 68.090868 105.570114 
L 68.145361 105.570114 
L 68.254347 105.050538 
L 68.30884 105.050538 
L 68.417827 104.206226 
L 68.526813 104.141279 
L 68.635799 103.491808 
L 68.690293 103.491808 
L 68.799279 101.803184 
L 68.962758 101.770711 
L 69.071745 101.12124 
L 69.180731 101.056293 
L 69.289718 99.237775 
L 69.344211 99.237775 
L 69.453197 98.880566 
L 69.50769 98.880566 
L 69.616677 97.451731 
L 69.67117 97.451731 
L 69.780156 96.25021 
L 69.998129 96.185263 
L 70.107115 95.568266 
L 70.161608 95.568266 
L 70.270595 94.983742 
L 70.325088 94.983742 
L 70.434074 94.431692 
L 70.543061 94.431692 
L 70.652047 93.327592 
L 70.70654 93.327592 
L 70.815526 92.808015 
L 70.87002 92.808015 
L 70.924513 92.38586 
L 71.033499 92.38586 
L 71.142485 91.898757 
L 71.251472 91.866283 
L 71.360458 91.249286 
L 71.414951 91.249286 
L 71.523938 90.989498 
L 71.632924 90.92455 
L 71.74191 90.015292 
L 71.850897 90.015292 
L 71.959883 89.528189 
L 72.068869 89.495715 
L 72.177856 89.106033 
L 72.232349 89.106033 
L 72.341335 87.774618 
L 72.395828 87.774618 
L 72.504815 87.287515 
L 72.559308 87.287515 
L 72.613801 86.897832 
L 72.722787 86.897832 
L 72.831774 86.183415 
L 72.886267 86.183415 
L 72.995253 85.728785 
L 73.049747 85.728785 
L 73.158733 85.111788 
L 73.213226 85.111788 
L 73.213226 84.94942 
L 73.431199 84.852 
L 73.485692 84.39737 
L 73.649171 84.364897 
L 73.758158 84.072635 
L 73.812651 84.072635 
L 73.867144 83.812847 
L 73.97613 83.812847 
L 74.085117 82.838641 
L 74.194103 82.773693 
L 74.30309 82.481432 
L 74.357583 82.481432 
L 74.466569 81.507226 
L 74.575555 81.507226 
L 74.684542 81.214964 
L 74.793528 81.214964 
L 74.902514 79.558814 
L 75.011501 79.461393 
L 75.120487 78.324819 
L 75.229473 78.227399 
L 75.33846 77.740296 
L 75.556433 77.642875 
L 75.665419 77.123299 
L 75.774405 77.123299 
L 75.883392 76.21404 
L 75.992378 76.21404 
L 75.992378 75.954251 
L 76.155857 75.954251 
L 76.264844 75.597043 
L 76.319337 75.597043 
L 76.37383 75.044992 
L 76.482816 75.044992 
L 76.591803 74.785204 
L 76.700789 74.752731 
L 76.809776 74.135733 
L 76.864269 74.135733 
L 76.973255 73.583683 
L 77.082241 73.518736 
L 77.191228 72.804319 
L 77.300214 72.739372 
L 77.4092 71.310536 
L 77.57268 71.310536 
L 77.681666 70.823433 
L 77.845146 70.726012 
L 77.954132 70.466224 
L 78.008625 70.466224 
L 78.117612 69.914174 
L 78.226598 69.881701 
L 78.335584 69.589439 
L 78.499064 69.492018 
L 78.60805 69.167283 
L 78.662543 69.167283 
L 78.717037 68.745127 
L 78.826023 68.745127 
L 78.935009 68.387918 
L 79.043996 68.355444 
L 79.152982 67.933289 
L 79.316462 67.900815 
L 79.370955 67.57608 
L 79.643421 67.478659 
L 79.752407 67.283818 
L 79.8069 67.283818 
L 79.915886 66.991556 
L 80.242845 66.926609 
L 80.351832 66.439506 
L 80.406325 66.439506 
L 80.515311 66.114771 
L 80.569805 66.114771 
L 80.678791 65.562721 
L 80.896764 65.530247 
L 81.00575 65.302932 
L 81.114736 65.237985 
L 81.223723 65.075618 
L 81.278216 65.075618 
L 81.387202 64.815829 
L 81.550682 64.783356 
L 81.659668 64.393673 
L 81.714161 64.393673 
L 81.823148 64.003991 
L 81.932134 63.971517 
L 82.04112 63.322047 
L 82.150107 63.322047 
L 82.259093 62.769997 
L 82.368079 62.769997 
L 82.477066 62.380314 
L 82.640545 62.282894 
L 82.749532 61.893211 
L 82.804025 61.893211 
L 82.913011 61.438582 
L 82.967504 61.438582 
L 83.076491 61.113846 
L 83.130984 61.113846 
L 83.23997 60.951479 
L 83.348956 60.854058 
L 83.40345 60.464376 
L 83.512436 60.464376 
L 83.621422 60.237061 
L 83.675915 60.237061 
L 83.784902 59.847379 
L 83.893888 59.847379 
L 84.002875 59.58759 
L 84.27534 59.522643 
L 84.384327 59.425223 
L 84.547806 59.360276 
L 84.656793 59.132961 
L 84.765779 59.068014 
L 84.874765 58.905646 
L 84.929258 58.905646 
L 85.038245 58.645858 
L 85.147231 58.548437 
L 85.256218 58.061334 
L 85.419697 57.963914 
L 85.528683 57.801546 
L 85.63767 57.769072 
L 85.746656 57.509284 
L 85.964629 57.444337 
L 86.019122 57.217022 
L 86.237095 57.119602 
L 86.346081 56.82734 
L 86.455067 56.762393 
L 86.564054 56.437658 
L 86.67304 56.437658 
L 86.782026 56.242816 
L 86.83652 56.242816 
L 86.945506 55.658293 
L 87.108985 55.625819 
L 87.217972 55.430978 
L 87.435944 55.333557 
L 87.544931 55.236137 
L 87.926383 55.17119 
L 87.926383 54.976349 
L 88.144356 54.911401 
L 88.253342 54.651613 
L 88.580301 54.586666 
L 88.689287 54.196984 
L 88.743781 54.196984 
L 88.852767 53.937195 
L 89.179726 53.839775 
L 89.288712 53.677407 
L 89.452192 53.579987 
L 89.452192 53.547513 
L 89.779151 53.450092 
L 89.888137 53.125357 
L 89.94263 53.125357 
L 90.051617 52.930516 
L 90.324083 52.833095 
L 90.433069 52.605781 
L 90.705535 52.540833 
L 90.760028 52.410939 
L 90.978001 52.313519 
L 91.086987 52.086204 
L 91.250467 52.021257 
L 91.359453 51.891363 
L 91.468439 51.891363 
L 91.577426 51.436733 
L 91.849892 51.371786 
L 91.958878 51.176945 
L 92.067864 51.144472 
L 92.122357 50.884683 
L 92.34033 50.85221 
L 92.449316 50.722316 
L 92.612796 50.657369 
L 92.721782 50.332633 
L 93.103235 50.235213 
L 93.212221 49.942951 
L 93.484687 49.84553 
L 93.53918 49.74811 
L 94.302084 49.650689 
L 94.411071 49.488321 
L 94.629043 49.390901 
L 94.683537 49.29348 
L 94.847016 49.29348 
L 94.956002 49.001218 
L 95.064989 48.903798 
L 95.119482 48.806377 
L 95.555427 48.708956 
L 95.609921 48.579062 
L 95.991373 48.481642 
L 96.100359 48.156906 
L 96.209346 48.124433 
L 96.263839 47.929592 
L 96.917757 47.832171 
L 96.97225 47.604856 
L 97.135729 47.507436 
L 97.135729 47.410015 
L 97.517182 47.410015 
L 97.571675 47.052806 
L 97.789648 46.987859 
L 97.898634 46.857965 
L 98.280086 46.760544 
L 98.389072 46.63065 
L 98.552552 46.53323 
L 98.661538 46.013653 
L 99.315456 45.948706 
L 99.424443 45.753865 
L 99.587922 45.753865 
L 99.696909 45.559024 
L 100.132854 45.494077 
L 100.187347 45.299235 
L 100.677786 45.234288 
L 100.786772 45.104394 
L 101.113731 45.006974 
L 101.222718 44.844606 
L 101.44069 44.747185 
L 101.495183 44.649765 
L 101.822142 44.584818 
L 101.931129 44.389976 
L 102.149101 44.292556 
L 102.258088 44.195135 
L 102.748526 44.097715 
L 102.748526 44.000294 
L 103.075485 43.967821 
L 103.129979 43.837926 
L 103.456938 43.772979 
L 103.565924 43.448244 
L 103.83839 43.350823 
L 103.892883 43.155982 
L 104.383322 43.123509 
L 104.492308 42.86372 
L 104.928253 42.798773 
L 104.982747 42.668879 
L 105.309706 42.603932 
L 105.309706 42.344144 
L 105.800144 42.246723 
L 105.90913 42.116829 
L 106.399569 42.084356 
L 106.454062 41.889514 
L 107.162473 41.792094 
L 107.216967 41.694673 
L 107.598419 41.597253 
L 107.707405 41.369938 
L 107.761898 41.369938 
L 107.816392 41.175097 
L 108.361323 41.11015 
L 108.47031 40.980255 
L 108.633789 40.947782 
L 108.688282 40.785414 
L 109.233214 40.687994 
L 109.287707 40.590573 
L 109.560173 40.493152 
L 109.669159 40.298311 
L 109.941625 40.200891 
L 110.050612 40.135944 
L 110.813516 40.070996 
L 110.813516 39.973576 
L 111.412941 39.876155 
L 111.412941 39.811208 
L 112.666284 39.713788 
L 112.720777 39.648841 
L 112.93875 39.55142 
L 112.993243 39.453999 
L 113.429189 39.421526 
L 113.483682 39.259158 
L 113.97412 39.161738 
L 114.083107 39.09679 
L 114.791518 38.99937 
L 114.900504 38.869476 
L 115.390943 38.772055 
L 115.499929 38.609687 
L 115.935875 38.54474 
L 116.044861 38.44732 
L 116.317327 38.349899 
L 116.426313 38.220005 
L 116.807765 38.122584 
L 116.916752 38.025164 
L 117.516177 37.927743 
L 117.516177 37.830323 
L 118.170095 37.732902 
L 118.279081 37.635481 
L 118.878506 37.538061 
L 118.878506 37.473114 
L 119.314451 37.375693 
L 119.314451 37.34322 
L 119.80489 37.278273 
L 119.80489 37.148378 
L 120.240835 37.050958 
L 120.349822 36.921064 
L 120.785767 36.823643 
L 120.894753 36.758696 
L 121.167219 36.693749 
L 121.167219 36.628802 
L 121.984617 36.563855 
L 121.984617 36.401487 
L 122.965494 36.304067 
L 122.965494 36.239119 
L 124.164344 36.174172 
L 124.218837 36.011805 
L 124.654782 35.946858 
L 124.654782 35.849437 
L 125.417687 35.752016 
L 125.526673 35.492228 
L 126.398564 35.394808 
L 126.50755 35.264913 
L 127.379441 35.167493 
L 127.379441 35.135019 
L 128.251332 35.037599 
L 128.360318 34.907705 
L 128.632784 34.810284 
L 128.74177 34.745337 
L 129.341195 34.647916 
L 129.395689 34.518022 
L 130.267579 34.420602 
L 130.267579 34.388128 
L 131.466429 34.290707 
L 131.466429 34.258234 
L 133.101224 34.193287 
L 133.101224 34.12834 
L 134.518047 34.030919 
L 134.518047 33.998446 
L 135.171965 33.901025 
L 135.280951 33.836078 
L 135.989363 33.738657 
L 135.989363 33.706184 
L 136.752267 33.608763 
L 136.752267 33.543816 
L 138.16909 33.478869 
L 138.16909 33.413922 
L 138.605035 33.348975 
L 138.605035 33.284028 
L 139.803885 33.186607 
L 139.803885 33.154134 
L 140.23983 33.056713 
L 140.23983 32.991766 
L 141.111721 32.894345 
L 141.166214 32.796925 
L 141.820132 32.699504 
L 141.820132 32.667031 
L 142.47405 32.56961 
L 142.583037 32.407242 
L 143.890873 32.309822 
L 143.890873 32.277348 
L 145.198709 32.179928 
L 145.307695 32.114981 
L 146.016107 32.01756 
L 146.016107 31.985087 
L 146.996984 31.887666 
L 146.996984 31.855192 
L 149.122218 31.757772 
L 149.176711 31.627878 
L 149.776136 31.530457 
L 149.776136 31.497984 
L 150.648026 31.400563 
L 150.648026 31.335616 
L 152.664274 31.238195 
L 152.664274 31.140775 
L 152.882247 31.075828 
L 152.991233 30.945933 
L 153.481671 30.848513 
L 153.536165 30.751092 
L 155.116467 30.686145 
L 155.116467 30.621198 
L 155.443426 30.556251 
L 155.443426 30.45883 
L 156.20633 30.393883 
L 156.20633 30.328936 
L 157.56866 30.231516 
L 157.56866 30.199042 
L 158.930989 30.101622 
L 159.039975 30.004201 
L 160.238825 29.90678 
L 160.347811 29.841833 
L 161.056223 29.744413 
L 161.056223 29.711939 
L 163.671895 29.614519 
L 163.671895 29.582045 
L 164.434799 29.484624 
L 164.434799 29.452151 
L 165.579156 29.35473 
L 165.579156 29.322257 
L 167.159458 29.224836 
L 167.159458 29.192363 
L 168.031349 29.094942 
L 168.140335 28.997521 
L 168.576281 28.900101 
L 168.576281 28.867627 
L 169.230199 28.770207 
L 169.230199 28.737733 
L 170.047596 28.70526 
L 170.047596 28.607839 
L 173.37168 28.510418 
L 173.37168 28.477945 
L 174.352557 28.380524 
L 174.352557 28.348051 
L 175.714886 28.283104 
L 175.714886 28.218157 
L 178.058093 28.120736 
L 178.058093 28.055789 
L 180.183327 27.958368 
L 180.183327 27.925895 
L 181.27319 27.860948 
L 181.27319 27.796001 
L 182.907985 27.69858 
L 182.907985 27.666107 
L 185.578151 27.601159 
L 185.578151 27.536212 
L 191.190948 27.438792 
L 191.190948 27.406318 
L 192.008346 27.308898 
L 192.117332 27.243951 
L 197.130704 27.14653 
L 197.130704 27.114056 
L 200.781747 27.016636 
L 200.781747 26.984162 
L 202.525528 26.886742 
L 202.525528 26.854268 
L 205.30468 26.756848 
L 205.413666 26.691901 
L 207.375421 26.626953 
L 207.375421 26.562006 
L 208.410791 26.464586 
L 208.410791 26.399639 
L 210.862984 26.302218 
L 210.862984 26.269745 
L 213.424163 26.172324 
L 213.424163 26.13985 
L 218.710001 26.04243 
L 218.818987 25.977483 
L 228.954718 25.880062 
L 228.954718 25.847589 
L 233.913596 25.750168 
L 233.913596 25.717695 
L 237.564639 25.620274 
L 237.564639 25.5878 
L 243.613381 25.49038 
L 243.613381 25.457906 
L 249.171685 25.360486 
L 249.226178 25.295539 
L 259.470895 25.198118 
L 259.470895 25.165644 
L 266.77298 25.068224 
L 266.77298 25.03575 
L 307.315902 24.93833 
L 307.315902 24.905856 
L 400.880682 24.840909 
L 400.880682 24.840909 
" style="fill:none;stroke:#bf00bf;stroke-linecap:square;stroke-width:1.5;"/>
    <defs>
     <path d="M 0 1 
C 0.265203 1 0.51958 0.894634 0.707107 0.707107 
C 0.894634 0.51958 1 0.265203 1 0 
C 1 -0.265203 0.894634 -0.51958 0.707107 -0.707107 
C 0.51958 -0.894634 0.265203 -1 0 -1 
C -0.265203 -1 -0.51958 -0.894634 -0.707107 -0.707107 
C -0.894634 -0.51958 -1 -0.265203 -1 0 
C -1 0.265203 -0.894634 0.51958 -0.707107 0.707107 
C -0.51958 0.894634 -0.265203 1 0 1 
z
" id="md58a93e242" style="stroke:#bf00bf;"/>
    </defs>
    <g clip-path="url(#pc930f89389)">
     <use style="fill:#bf00bf;stroke:#bf00bf;" x="64.494318" xlink:href="#md58a93e242" y="235.659091"/>
     <use style="fill:#bf00bf;stroke:#bf00bf;" x="67.27347" xlink:href="#md58a93e242" y="111.999874"/>
     <use style="fill:#bf00bf;stroke:#bf00bf;" x="70.216101" xlink:href="#md58a93e242" y="95.308478"/>
     <use style="fill:#bf00bf;stroke:#bf00bf;" x="73.158733" xlink:href="#md58a93e242" y="85.40405"/>
     <use style="fill:#bf00bf;stroke:#bf00bf;" x="76.482816" xlink:href="#md58a93e242" y="75.044992"/>
     <use style="fill:#bf00bf;stroke:#bf00bf;" x="79.697914" xlink:href="#md58a93e242" y="67.413712"/>
     <use style="fill:#bf00bf;stroke:#bf00bf;" x="83.076491" xlink:href="#md58a93e242" y="61.243741"/>
     <use style="fill:#bf00bf;stroke:#bf00bf;" x="86.509561" xlink:href="#md58a93e242" y="56.600025"/>
     <use style="fill:#bf00bf;stroke:#bf00bf;" x="90.760028" xlink:href="#md58a93e242" y="52.443413"/>
     <use style="fill:#bf00bf;stroke:#bf00bf;" x="95.555427" xlink:href="#md58a93e242" y="48.708956"/>
     <use style="fill:#bf00bf;stroke:#bf00bf;" x="101.277211" xlink:href="#md58a93e242" y="44.844606"/>
     <use style="fill:#bf00bf;stroke:#bf00bf;" x="107.543926" xlink:href="#md58a93e242" y="41.6622"/>
     <use style="fill:#bf00bf;stroke:#bf00bf;" x="114.628038" xlink:href="#md58a93e242" y="39.031843"/>
     <use style="fill:#bf00bf;stroke:#bf00bf;" x="121.167219" xlink:href="#md58a93e242" y="36.693749"/>
     <use style="fill:#bf00bf;stroke:#bf00bf;" x="133.809636" xlink:href="#md58a93e242" y="34.063393"/>
     <use style="fill:#bf00bf;stroke:#bf00bf;" x="145.90712" xlink:href="#md58a93e242" y="32.082507"/>
     <use style="fill:#bf00bf;stroke:#bf00bf;" x="160.565784" xlink:href="#md58a93e242" y="29.841833"/>
     <use style="fill:#bf00bf;stroke:#bf00bf;" x="180.183327" xlink:href="#md58a93e242" y="27.958368"/>
     <use style="fill:#bf00bf;stroke:#bf00bf;" x="214.677506" xlink:href="#md58a93e242" y="26.107377"/>
    </g>
   </g>
   <g id="patch_3">
    <path d="M 47.675 246.2 
L 47.675 14.3 
" style="fill:none;stroke:#000000;stroke-linecap:square;stroke-linejoin:miter;stroke-width:0.8;"/>
   </g>
   <g id="patch_4">
    <path d="M 417.7 246.2 
L 417.7 14.3 
" style="fill:none;stroke:#000000;stroke-linecap:square;stroke-linejoin:miter;stroke-width:0.8;"/>
   </g>
   <g id="patch_5">
    <path d="M 47.675 246.2 
L 417.7 246.2 
" style="fill:none;stroke:#000000;stroke-linecap:square;stroke-linejoin:miter;stroke-width:0.8;"/>
   </g>
   <g id="patch_6">
    <path d="M 47.675 14.3 
L 417.7 14.3 
" style="fill:none;stroke:#000000;stroke-linecap:square;stroke-linejoin:miter;stroke-width:0.8;"/>
   </g>
   <g id="legend_1">
    <g id="patch_7">
     <path d="M 101.6125 241.2 
L 410.7 241.2 
Q 412.7 241.2 412.7 239.2 
L 412.7 196.165625 
Q 412.7 194.165625 410.7 194.165625 
L 101.6125 194.165625 
Q 99.6125 194.165625 99.6125 196.165625 
L 99.6125 239.2 
Q 99.6125 241.2 101.6125 241.2 
z
" style="fill:#ffffff;opacity:0.8;stroke:#cccccc;stroke-linejoin:miter;"/>
    </g>
    <g id="line2d_28">
     <path d="M 103.6125 202.264062 
L 123.6125 202.264062 
" style="fill:none;stroke:#008000;stroke-linecap:square;stroke-width:1.5;"/>
    </g>
    <g id="line2d_29">
     <g>
      <use style="fill:#008000;stroke:#008000;stroke-linejoin:miter;" x="113.6125" xlink:href="#me6e9407d7e" y="202.264062"/>
     </g>
    </g>
    <g id="text_15">
     <!-- Train: VC, Test: VC (LOPO x-val), AUC=0.9359 -->
     <defs>
      <path d="M -0.296875 72.90625 
L 61.375 72.90625 
L 61.375 64.59375 
L 35.5 64.59375 
L 35.5 0 
L 25.59375 0 
L 25.59375 64.59375 
L -0.296875 64.59375 
z
" id="DejaVuSans-54"/>
      <path d="M 41.109375 46.296875 
Q 39.59375 47.171875 37.8125 47.578125 
Q 36.03125 48 33.890625 48 
Q 26.265625 48 22.1875 43.046875 
Q 18.109375 38.09375 18.109375 28.8125 
L 18.109375 0 
L 9.078125 0 
L 9.078125 54.6875 
L 18.109375 54.6875 
L 18.109375 46.1875 
Q 20.953125 51.171875 25.484375 53.578125 
Q 30.03125 56 36.53125 56 
Q 37.453125 56 38.578125 55.875 
Q 39.703125 55.765625 41.0625 55.515625 
z
" id="DejaVuSans-72"/>
      <path d="M 34.28125 27.484375 
Q 23.390625 27.484375 19.1875 25 
Q 14.984375 22.515625 14.984375 16.5 
Q 14.984375 11.71875 18.140625 8.90625 
Q 21.296875 6.109375 26.703125 6.109375 
Q 34.1875 6.109375 38.703125 11.40625 
Q 43.21875 16.703125 43.21875 25.484375 
L 43.21875 27.484375 
z
M 52.203125 31.203125 
L 52.203125 0 
L 43.21875 0 
L 43.21875 8.296875 
Q 40.140625 3.328125 35.546875 0.953125 
Q 30.953125 -1.421875 24.3125 -1.421875 
Q 15.921875 -1.421875 10.953125 3.296875 
Q 6 8.015625 6 15.921875 
Q 6 25.140625 12.171875 29.828125 
Q 18.359375 34.515625 30.609375 34.515625 
L 43.21875 34.515625 
L 43.21875 35.40625 
Q 43.21875 41.609375 39.140625 45 
Q 35.0625 48.390625 27.6875 48.390625 
Q 23 48.390625 18.546875 47.265625 
Q 14.109375 46.140625 10.015625 43.890625 
L 10.015625 52.203125 
Q 14.9375 54.109375 19.578125 55.046875 
Q 24.21875 56 28.609375 56 
Q 40.484375 56 46.34375 49.84375 
Q 52.203125 43.703125 52.203125 31.203125 
z
" id="DejaVuSans-61"/>
      <path d="M 11.71875 12.40625 
L 22.015625 12.40625 
L 22.015625 0 
L 11.71875 0 
z
M 11.71875 51.703125 
L 22.015625 51.703125 
L 22.015625 39.3125 
L 11.71875 39.3125 
z
" id="DejaVuSans-3a"/>
      <path d="M 28.609375 0 
L 0.78125 72.90625 
L 11.078125 72.90625 
L 34.1875 11.53125 
L 57.328125 72.90625 
L 67.578125 72.90625 
L 39.796875 0 
z
" id="DejaVuSans-56"/>
      <path d="M 64.40625 67.28125 
L 64.40625 56.890625 
Q 59.421875 61.53125 53.78125 63.8125 
Q 48.140625 66.109375 41.796875 66.109375 
Q 29.296875 66.109375 22.65625 58.46875 
Q 16.015625 50.828125 16.015625 36.375 
Q 16.015625 21.96875 22.65625 14.328125 
Q 29.296875 6.6875 41.796875 6.6875 
Q 48.140625 6.6875 53.78125 8.984375 
Q 59.421875 11.28125 64.40625 15.921875 
L 64.40625 5.609375 
Q 59.234375 2.09375 53.4375 0.328125 
Q 47.65625 -1.421875 41.21875 -1.421875 
Q 24.65625 -1.421875 15.125 8.703125 
Q 5.609375 18.84375 5.609375 36.375 
Q 5.609375 53.953125 15.125 64.078125 
Q 24.65625 74.21875 41.21875 74.21875 
Q 47.75 74.21875 53.53125 72.484375 
Q 59.328125 70.75 64.40625 67.28125 
z
" id="DejaVuSans-43"/>
      <path d="M 11.71875 12.40625 
L 22.015625 12.40625 
L 22.015625 4 
L 14.015625 -11.625 
L 7.71875 -11.625 
L 11.71875 4 
z
" id="DejaVuSans-2c"/>
      <path d="M 31 75.875 
Q 24.46875 64.65625 21.28125 53.65625 
Q 18.109375 42.671875 18.109375 31.390625 
Q 18.109375 20.125 21.3125 9.0625 
Q 24.515625 -2 31 -13.1875 
L 23.1875 -13.1875 
Q 15.875 -1.703125 12.234375 9.375 
Q 8.59375 20.453125 8.59375 31.390625 
Q 8.59375 42.28125 12.203125 53.3125 
Q 15.828125 64.359375 23.1875 75.875 
z
" id="DejaVuSans-28"/>
      <path d="M 9.8125 72.90625 
L 19.671875 72.90625 
L 19.671875 8.296875 
L 55.171875 8.296875 
L 55.171875 0 
L 9.8125 0 
z
" id="DejaVuSans-4c"/>
      <path d="M 39.40625 66.21875 
Q 28.65625 66.21875 22.328125 58.203125 
Q 16.015625 50.203125 16.015625 36.375 
Q 16.015625 22.609375 22.328125 14.59375 
Q 28.65625 6.59375 39.40625 6.59375 
Q 50.140625 6.59375 56.421875 14.59375 
Q 62.703125 22.609375 62.703125 36.375 
Q 62.703125 50.203125 56.421875 58.203125 
Q 50.140625 66.21875 39.40625 66.21875 
z
M 39.40625 74.21875 
Q 54.734375 74.21875 63.90625 63.9375 
Q 73.09375 53.65625 73.09375 36.375 
Q 73.09375 19.140625 63.90625 8.859375 
Q 54.734375 -1.421875 39.40625 -1.421875 
Q 24.03125 -1.421875 14.8125 8.828125 
Q 5.609375 19.09375 5.609375 36.375 
Q 5.609375 53.65625 14.8125 63.9375 
Q 24.03125 74.21875 39.40625 74.21875 
z
" id="DejaVuSans-4f"/>
      <path d="M 19.671875 64.796875 
L 19.671875 37.40625 
L 32.078125 37.40625 
Q 38.96875 37.40625 42.71875 40.96875 
Q 46.484375 44.53125 46.484375 51.125 
Q 46.484375 57.671875 42.71875 61.234375 
Q 38.96875 64.796875 32.078125 64.796875 
z
M 9.8125 72.90625 
L 32.078125 72.90625 
Q 44.34375 72.90625 50.609375 67.359375 
Q 56.890625 61.8125 56.890625 51.125 
Q 56.890625 40.328125 50.609375 34.8125 
Q 44.34375 29.296875 32.078125 29.296875 
L 19.671875 29.296875 
L 19.671875 0 
L 9.8125 0 
z
" id="DejaVuSans-50"/>
      <path d="M 54.890625 54.6875 
L 35.109375 28.078125 
L 55.90625 0 
L 45.3125 0 
L 29.390625 21.484375 
L 13.484375 0 
L 2.875 0 
L 24.125 28.609375 
L 4.6875 54.6875 
L 15.28125 54.6875 
L 29.78125 35.203125 
L 44.28125 54.6875 
z
" id="DejaVuSans-78"/>
      <path d="M 9.421875 75.984375 
L 18.40625 75.984375 
L 18.40625 0 
L 9.421875 0 
z
" id="DejaVuSans-6c"/>
      <path d="M 8.015625 75.875 
L 15.828125 75.875 
Q 23.140625 64.359375 26.78125 53.3125 
Q 30.421875 42.28125 30.421875 31.390625 
Q 30.421875 20.453125 26.78125 9.375 
Q 23.140625 -1.703125 15.828125 -13.1875 
L 8.015625 -13.1875 
Q 14.5 -2 17.703125 9.0625 
Q 20.90625 20.125 20.90625 31.390625 
Q 20.90625 42.671875 17.703125 53.65625 
Q 14.5 64.65625 8.015625 75.875 
z
" id="DejaVuSans-29"/>
      <path d="M 34.1875 63.1875 
L 20.796875 26.90625 
L 47.609375 26.90625 
z
M 28.609375 72.90625 
L 39.796875 72.90625 
L 67.578125 0 
L 57.328125 0 
L 50.6875 18.703125 
L 17.828125 18.703125 
L 11.1875 0 
L 0.78125 0 
z
" id="DejaVuSans-41"/>
      <path d="M 8.6875 72.90625 
L 18.609375 72.90625 
L 18.609375 28.609375 
Q 18.609375 16.890625 22.84375 11.734375 
Q 27.09375 6.59375 36.625 6.59375 
Q 46.09375 6.59375 50.34375 11.734375 
Q 54.59375 16.890625 54.59375 28.609375 
L 54.59375 72.90625 
L 64.5 72.90625 
L 64.5 27.390625 
Q 64.5 13.140625 57.4375 5.859375 
Q 50.390625 -1.421875 36.625 -1.421875 
Q 22.796875 -1.421875 15.734375 5.859375 
Q 8.6875 13.140625 8.6875 27.390625 
z
" id="DejaVuSans-55"/>
      <path d="M 10.59375 45.40625 
L 73.1875 45.40625 
L 73.1875 37.203125 
L 10.59375 37.203125 
z
M 10.59375 25.484375 
L 73.1875 25.484375 
L 73.1875 17.1875 
L 10.59375 17.1875 
z
" id="DejaVuSans-3d"/>
      <path d="M 10.984375 1.515625 
L 10.984375 10.5 
Q 14.703125 8.734375 18.5 7.8125 
Q 22.3125 6.890625 25.984375 6.890625 
Q 35.75 6.890625 40.890625 13.453125 
Q 46.046875 20.015625 46.78125 33.40625 
Q 43.953125 29.203125 39.59375 26.953125 
Q 35.25 24.703125 29.984375 24.703125 
Q 19.046875 24.703125 12.671875 31.3125 
Q 6.296875 37.9375 6.296875 49.421875 
Q 6.296875 60.640625 12.9375 67.421875 
Q 19.578125 74.21875 30.609375 74.21875 
Q 43.265625 74.21875 49.921875 64.515625 
Q 56.59375 54.828125 56.59375 36.375 
Q 56.59375 19.140625 48.40625 8.859375 
Q 40.234375 -1.421875 26.421875 -1.421875 
Q 22.703125 -1.421875 18.890625 -0.6875 
Q 15.09375 0.046875 10.984375 1.515625 
z
M 30.609375 32.421875 
Q 37.25 32.421875 41.125 36.953125 
Q 45.015625 41.5 45.015625 49.421875 
Q 45.015625 57.28125 41.125 61.84375 
Q 37.25 66.40625 30.609375 66.40625 
Q 23.96875 66.40625 20.09375 61.84375 
Q 16.21875 57.28125 16.21875 49.421875 
Q 16.21875 41.5 20.09375 36.953125 
Q 23.96875 32.421875 30.609375 32.421875 
z
" id="DejaVuSans-39"/>
      <path d="M 40.578125 39.3125 
Q 47.65625 37.796875 51.625 33 
Q 55.609375 28.21875 55.609375 21.1875 
Q 55.609375 10.40625 48.1875 4.484375 
Q 40.765625 -1.421875 27.09375 -1.421875 
Q 22.515625 -1.421875 17.65625 -0.515625 
Q 12.796875 0.390625 7.625 2.203125 
L 7.625 11.71875 
Q 11.71875 9.328125 16.59375 8.109375 
Q 21.484375 6.890625 26.8125 6.890625 
Q 36.078125 6.890625 40.9375 10.546875 
Q 45.796875 14.203125 45.796875 21.1875 
Q 45.796875 27.640625 41.28125 31.265625 
Q 36.765625 34.90625 28.71875 34.90625 
L 20.21875 34.90625 
L 20.21875 43.015625 
L 29.109375 43.015625 
Q 36.375 43.015625 40.234375 45.921875 
Q 44.09375 48.828125 44.09375 54.296875 
Q 44.09375 59.90625 40.109375 62.90625 
Q 36.140625 65.921875 28.71875 65.921875 
Q 24.65625 65.921875 20.015625 65.03125 
Q 15.375 64.15625 9.8125 62.3125 
L 9.8125 71.09375 
Q 15.4375 72.65625 20.34375 73.4375 
Q 25.25 74.21875 29.59375 74.21875 
Q 40.828125 74.21875 47.359375 69.109375 
Q 53.90625 64.015625 53.90625 55.328125 
Q 53.90625 49.265625 50.4375 45.09375 
Q 46.96875 40.921875 40.578125 39.3125 
z
" id="DejaVuSans-33"/>
      <path d="M 10.796875 72.90625 
L 49.515625 72.90625 
L 49.515625 64.59375 
L 19.828125 64.59375 
L 19.828125 46.734375 
Q 21.96875 47.46875 24.109375 47.828125 
Q 26.265625 48.1875 28.421875 48.1875 
Q 40.625 48.1875 47.75 41.5 
Q 54.890625 34.8125 54.890625 23.390625 
Q 54.890625 11.625 47.5625 5.09375 
Q 40.234375 -1.421875 26.90625 -1.421875 
Q 22.3125 -1.421875 17.546875 -0.640625 
Q 12.796875 0.140625 7.71875 1.703125 
L 7.71875 11.625 
Q 12.109375 9.234375 16.796875 8.0625 
Q 21.484375 6.890625 26.703125 6.890625 
Q 35.15625 6.890625 40.078125 11.328125 
Q 45.015625 15.765625 45.015625 23.390625 
Q 45.015625 31 40.078125 35.4375 
Q 35.15625 39.890625 26.703125 39.890625 
Q 22.75 39.890625 18.8125 39.015625 
Q 14.890625 38.140625 10.796875 36.28125 
z
" id="DejaVuSans-35"/>
     </defs>
     <g transform="translate(131.6125 205.764062)scale(0.1 -0.1)">
      <use xlink:href="#DejaVuSans-54"/>
      <use x="60.865234" xlink:href="#DejaVuSans-72"/>
      <use x="101.978516" xlink:href="#DejaVuSans-61"/>
      <use x="163.257812" xlink:href="#DejaVuSans-69"/>
      <use x="191.041016" xlink:href="#DejaVuSans-6e"/>
      <use x="254.419922" xlink:href="#DejaVuSans-3a"/>
      <use x="288.111328" xlink:href="#DejaVuSans-20"/>
      <use x="319.898438" xlink:href="#DejaVuSans-56"/>
      <use x="388.306641" xlink:href="#DejaVuSans-43"/>
      <use x="458.130859" xlink:href="#DejaVuSans-2c"/>
      <use x="489.917969" xlink:href="#DejaVuSans-20"/>
      <use x="521.705078" xlink:href="#DejaVuSans-54"/>
      <use x="582.523438" xlink:href="#DejaVuSans-65"/>
      <use x="644.046875" xlink:href="#DejaVuSans-73"/>
      <use x="696.146484" xlink:href="#DejaVuSans-74"/>
      <use x="735.355469" xlink:href="#DejaVuSans-3a"/>
      <use x="769.046875" xlink:href="#DejaVuSans-20"/>
      <use x="800.833984" xlink:href="#DejaVuSans-56"/>
      <use x="869.242188" xlink:href="#DejaVuSans-43"/>
      <use x="939.066406" xlink:href="#DejaVuSans-20"/>
      <use x="970.853516" xlink:href="#DejaVuSans-28"/>
      <use x="1009.867188" xlink:href="#DejaVuSans-4c"/>
      <use x="1065.533203" xlink:href="#DejaVuSans-4f"/>
      <use x="1144.244141" xlink:href="#DejaVuSans-50"/>
      <use x="1204.546875" xlink:href="#DejaVuSans-4f"/>
      <use x="1283.257812" xlink:href="#DejaVuSans-20"/>
      <use x="1315.044922" xlink:href="#DejaVuSans-78"/>
      <use x="1374.224609" xlink:href="#DejaVuSans-2d"/>
      <use x="1410.277344" xlink:href="#DejaVuSans-76"/>
      <use x="1469.457031" xlink:href="#DejaVuSans-61"/>
      <use x="1530.736328" xlink:href="#DejaVuSans-6c"/>
      <use x="1558.519531" xlink:href="#DejaVuSans-29"/>
      <use x="1597.533203" xlink:href="#DejaVuSans-2c"/>
      <use x="1629.320312" xlink:href="#DejaVuSans-20"/>
      <use x="1661.107422" xlink:href="#DejaVuSans-41"/>
      <use x="1729.515625" xlink:href="#DejaVuSans-55"/>
      <use x="1802.708984" xlink:href="#DejaVuSans-43"/>
      <use x="1872.533203" xlink:href="#DejaVuSans-3d"/>
      <use x="1956.322266" xlink:href="#DejaVuSans-30"/>
      <use x="2019.945312" xlink:href="#DejaVuSans-2e"/>
      <use x="2051.732422" xlink:href="#DejaVuSans-39"/>
      <use x="2115.355469" xlink:href="#DejaVuSans-33"/>
      <use x="2178.978516" xlink:href="#DejaVuSans-35"/>
      <use x="2242.601562" xlink:href="#DejaVuSans-39"/>
     </g>
    </g>
    <g id="line2d_30">
     <path d="M 103.6125 216.942187 
L 123.6125 216.942187 
" style="fill:none;stroke:#ff0000;stroke-linecap:square;stroke-width:1.5;"/>
    </g>
    <g id="line2d_31">
     <g>
      <use style="fill:#ff0000;stroke:#ff0000;" x="113.6125" xlink:href="#m2ea8ab05bd" y="216.942187"/>
     </g>
    </g>
    <g id="text_16">
     <!-- Train: OC, Test: OC (LOPO x-val), AUC=0.9550 -->
     <g transform="translate(131.6125 220.442187)scale(0.1 -0.1)">
      <use xlink:href="#DejaVuSans-54"/>
      <use x="60.865234" xlink:href="#DejaVuSans-72"/>
      <use x="101.978516" xlink:href="#DejaVuSans-61"/>
      <use x="163.257812" xlink:href="#DejaVuSans-69"/>
      <use x="191.041016" xlink:href="#DejaVuSans-6e"/>
      <use x="254.419922" xlink:href="#DejaVuSans-3a"/>
      <use x="288.111328" xlink:href="#DejaVuSans-20"/>
      <use x="319.898438" xlink:href="#DejaVuSans-4f"/>
      <use x="398.609375" xlink:href="#DejaVuSans-43"/>
      <use x="468.433594" xlink:href="#DejaVuSans-2c"/>
      <use x="500.220703" xlink:href="#DejaVuSans-20"/>
      <use x="532.007812" xlink:href="#DejaVuSans-54"/>
      <use x="592.826172" xlink:href="#DejaVuSans-65"/>
      <use x="654.349609" xlink:href="#DejaVuSans-73"/>
      <use x="706.449219" xlink:href="#DejaVuSans-74"/>
      <use x="745.658203" xlink:href="#DejaVuSans-3a"/>
      <use x="779.349609" xlink:href="#DejaVuSans-20"/>
      <use x="811.136719" xlink:href="#DejaVuSans-4f"/>
      <use x="889.847656" xlink:href="#DejaVuSans-43"/>
      <use x="959.671875" xlink:href="#DejaVuSans-20"/>
      <use x="991.458984" xlink:href="#DejaVuSans-28"/>
      <use x="1030.472656" xlink:href="#DejaVuSans-4c"/>
      <use x="1086.138672" xlink:href="#DejaVuSans-4f"/>
      <use x="1164.849609" xlink:href="#DejaVuSans-50"/>
      <use x="1225.152344" xlink:href="#DejaVuSans-4f"/>
      <use x="1303.863281" xlink:href="#DejaVuSans-20"/>
      <use x="1335.650391" xlink:href="#DejaVuSans-78"/>
      <use x="1394.830078" xlink:href="#DejaVuSans-2d"/>
      <use x="1430.882812" xlink:href="#DejaVuSans-76"/>
      <use x="1490.0625" xlink:href="#DejaVuSans-61"/>
      <use x="1551.341797" xlink:href="#DejaVuSans-6c"/>
      <use x="1579.125" xlink:href="#DejaVuSans-29"/>
      <use x="1618.138672" xlink:href="#DejaVuSans-2c"/>
      <use x="1649.925781" xlink:href="#DejaVuSans-20"/>
      <use x="1681.712891" xlink:href="#DejaVuSans-41"/>
      <use x="1750.121094" xlink:href="#DejaVuSans-55"/>
      <use x="1823.314453" xlink:href="#DejaVuSans-43"/>
      <use x="1893.138672" xlink:href="#DejaVuSans-3d"/>
      <use x="1976.927734" xlink:href="#DejaVuSans-30"/>
      <use x="2040.550781" xlink:href="#DejaVuSans-2e"/>
      <use x="2072.337891" xlink:href="#DejaVuSans-39"/>
      <use x="2135.960938" xlink:href="#DejaVuSans-35"/>
      <use x="2199.583984" xlink:href="#DejaVuSans-35"/>
      <use x="2263.207031" xlink:href="#DejaVuSans-30"/>
     </g>
    </g>
    <g id="line2d_32">
     <path d="M 103.6125 231.620313 
L 123.6125 231.620313 
" style="fill:none;stroke:#bf00bf;stroke-linecap:square;stroke-width:1.5;"/>
    </g>
    <g id="line2d_33">
     <g>
      <use style="fill:#bf00bf;stroke:#bf00bf;" x="113.6125" xlink:href="#md58a93e242" y="231.620313"/>
     </g>
    </g>
    <g id="text_17">
     <!-- Train: OC+VC, Test: OC+VC (LOPO x-val), AUC=0.9648 -->
     <defs>
      <path d="M 46 62.703125 
L 46 35.5 
L 73.1875 35.5 
L 73.1875 27.203125 
L 46 27.203125 
L 46 0 
L 37.796875 0 
L 37.796875 27.203125 
L 10.59375 27.203125 
L 10.59375 35.5 
L 37.796875 35.5 
L 37.796875 62.703125 
z
" id="DejaVuSans-2b"/>
     </defs>
     <g transform="translate(131.6125 235.120313)scale(0.1 -0.1)">
      <use xlink:href="#DejaVuSans-54"/>
      <use x="60.865234" xlink:href="#DejaVuSans-72"/>
      <use x="101.978516" xlink:href="#DejaVuSans-61"/>
      <use x="163.257812" xlink:href="#DejaVuSans-69"/>
      <use x="191.041016" xlink:href="#DejaVuSans-6e"/>
      <use x="254.419922" xlink:href="#DejaVuSans-3a"/>
      <use x="288.111328" xlink:href="#DejaVuSans-20"/>
      <use x="319.898438" xlink:href="#DejaVuSans-4f"/>
      <use x="398.609375" xlink:href="#DejaVuSans-43"/>
      <use x="468.433594" xlink:href="#DejaVuSans-2b"/>
      <use x="552.222656" xlink:href="#DejaVuSans-56"/>
      <use x="620.630859" xlink:href="#DejaVuSans-43"/>
      <use x="690.455078" xlink:href="#DejaVuSans-2c"/>
      <use x="722.242188" xlink:href="#DejaVuSans-20"/>
      <use x="754.029297" xlink:href="#DejaVuSans-54"/>
      <use x="814.847656" xlink:href="#DejaVuSans-65"/>
      <use x="876.371094" xlink:href="#DejaVuSans-73"/>
      <use x="928.470703" xlink:href="#DejaVuSans-74"/>
      <use x="967.679688" xlink:href="#DejaVuSans-3a"/>
      <use x="1001.371094" xlink:href="#DejaVuSans-20"/>
      <use x="1033.158203" xlink:href="#DejaVuSans-4f"/>
      <use x="1111.869141" xlink:href="#DejaVuSans-43"/>
      <use x="1181.693359" xlink:href="#DejaVuSans-2b"/>
      <use x="1265.482422" xlink:href="#DejaVuSans-56"/>
      <use x="1333.890625" xlink:href="#DejaVuSans-43"/>
      <use x="1403.714844" xlink:href="#DejaVuSans-20"/>
      <use x="1435.501953" xlink:href="#DejaVuSans-28"/>
      <use x="1474.515625" xlink:href="#DejaVuSans-4c"/>
      <use x="1530.181641" xlink:href="#DejaVuSans-4f"/>
      <use x="1608.892578" xlink:href="#DejaVuSans-50"/>
      <use x="1669.195312" xlink:href="#DejaVuSans-4f"/>
      <use x="1747.90625" xlink:href="#DejaVuSans-20"/>
      <use x="1779.693359" xlink:href="#DejaVuSans-78"/>
      <use x="1838.873047" xlink:href="#DejaVuSans-2d"/>
      <use x="1874.925781" xlink:href="#DejaVuSans-76"/>
      <use x="1934.105469" xlink:href="#DejaVuSans-61"/>
      <use x="1995.384766" xlink:href="#DejaVuSans-6c"/>
      <use x="2023.167969" xlink:href="#DejaVuSans-29"/>
      <use x="2062.181641" xlink:href="#DejaVuSans-2c"/>
      <use x="2093.96875" xlink:href="#DejaVuSans-20"/>
      <use x="2125.755859" xlink:href="#DejaVuSans-41"/>
      <use x="2194.164062" xlink:href="#DejaVuSans-55"/>
      <use x="2267.357422" xlink:href="#DejaVuSans-43"/>
      <use x="2337.181641" xlink:href="#DejaVuSans-3d"/>
      <use x="2420.970703" xlink:href="#DejaVuSans-30"/>
      <use x="2484.59375" xlink:href="#DejaVuSans-2e"/>
      <use x="2516.380859" xlink:href="#DejaVuSans-39"/>
      <use x="2580.003906" xlink:href="#DejaVuSans-36"/>
      <use x="2643.626953" xlink:href="#DejaVuSans-34"/>
      <use x="2707.25" xlink:href="#DejaVuSans-38"/>
     </g>
    </g>
   </g>
  </g>
 </g>
 <defs>
  <clipPath id="pc930f89389">
   <rect height="231.9" width="370.025" x="47.675" y="14.3"/>
  </clipPath>
 </defs>
</svg>
