<?xml version="1.0" encoding="utf-8" standalone="no"?>
<!DOCTYPE svg PUBLIC "-//W3C//DTD SVG 1.1//EN"
  "http://www.w3.org/Graphics/SVG/1.1/DTD/svg11.dtd">
<!-- Created with matplotlib (http://matplotlib.org/) -->
<svg height="288pt" version="1.1" viewBox="0 0 720 288" width="720pt" xmlns="http://www.w3.org/2000/svg" xmlns:xlink="http://www.w3.org/1999/xlink">
 <defs>
  <style type="text/css">
*{stroke-linecap:butt;stroke-linejoin:round;}
  </style>
 </defs>
 <g id="figure_1">
  <g id="patch_1">
   <path d="M 0 288 
L 720 288 
L 720 0 
L 0 0 
z
" style="fill:#ffffff;"/>
  </g>
  <g id="axes_1">
   <g id="patch_2">
    <path d="M 47.675 246.2 
L 705.7 246.2 
L 705.7 14.3 
L 47.675 14.3 
z
" style="fill:#ffffff;"/>
   </g>
   <g id="patch_3">
    <path clip-path="url(#pc1ee6c1bc8)" d="M 77.585227 246.2 
L 86.648933 246.2 
L 86.648933 64.482098 
L 77.585227 64.482098 
z
" style="fill:#1f77b4;"/>
   </g>
   <g id="patch_4">
    <path clip-path="url(#pc1ee6c1bc8)" d="M 138.009929 246.2 
L 147.073634 246.2 
L 147.073634 28.580904 
L 138.009929 28.580904 
z
" style="fill:#1f77b4;"/>
   </g>
   <g id="patch_5">
    <path clip-path="url(#pc1ee6c1bc8)" d="M 198.43463 246.2 
L 207.498336 246.2 
L 207.498336 67.993413 
L 198.43463 67.993413 
z
" style="fill:#1f77b4;"/>
   </g>
   <g id="patch_6">
    <path clip-path="url(#pc1ee6c1bc8)" d="M 258.859332 246.2 
L 267.923037 246.2 
L 267.923037 91.43879 
L 258.859332 91.43879 
z
" style="fill:#1f77b4;"/>
   </g>
   <g id="patch_7">
    <path clip-path="url(#pc1ee6c1bc8)" d="M 319.284034 246.2 
L 328.347739 246.2 
L 328.347739 92.219226 
L 319.284034 92.219226 
z
" style="fill:#1f77b4;"/>
   </g>
   <g id="patch_8">
    <path clip-path="url(#pc1ee6c1bc8)" d="M 379.708735 246.2 
L 388.77244 246.2 
L 388.77244 25.709729 
L 379.708735 25.709729 
z
" style="fill:#1f77b4;"/>
   </g>
   <g id="patch_9">
    <path clip-path="url(#pc1ee6c1bc8)" d="M 440.133437 246.2 
L 449.197142 246.2 
L 449.197142 161.616413 
L 440.133437 161.616413 
z
" style="fill:#1f77b4;"/>
   </g>
   <g id="patch_10">
    <path clip-path="url(#pc1ee6c1bc8)" d="M 500.558138 246.2 
L 509.621843 246.2 
L 509.621843 42.090318 
L 500.558138 42.090318 
z
" style="fill:#1f77b4;"/>
   </g>
   <g id="patch_11">
    <path clip-path="url(#pc1ee6c1bc8)" d="M 560.98284 246.2 
L 570.046545 246.2 
L 570.046545 27.815139 
L 560.98284 27.815139 
z
" style="fill:#1f77b4;"/>
   </g>
   <g id="patch_12">
    <path clip-path="url(#pc1ee6c1bc8)" d="M 621.407541 246.2 
L 630.471247 246.2 
L 630.471247 27.230525 
L 621.407541 27.230525 
z
" style="fill:#1f77b4;"/>
   </g>
   <g id="patch_13">
    <path clip-path="url(#pc1ee6c1bc8)" d="M 86.648933 246.2 
L 95.712638 246.2 
L 95.712638 50.880341 
L 86.648933 50.880341 
z
" style="fill:#ff7f0e;"/>
   </g>
   <g id="patch_14">
    <path clip-path="url(#pc1ee6c1bc8)" d="M 147.073634 246.2 
L 156.137339 246.2 
L 156.137339 47.13797 
L 147.073634 47.13797 
z
" style="fill:#ff7f0e;"/>
   </g>
   <g id="patch_15">
    <path clip-path="url(#pc1ee6c1bc8)" d="M 207.498336 246.2 
L 216.562041 246.2 
L 216.562041 69.781586 
L 207.498336 69.781586 
z
" style="fill:#ff7f0e;"/>
   </g>
   <g id="patch_16">
    <path clip-path="url(#pc1ee6c1bc8)" d="M 267.923037 246.2 
L 276.986742 246.2 
L 276.986742 101.296167 
L 267.923037 101.296167 
z
" style="fill:#ff7f0e;"/>
   </g>
   <g id="patch_17">
    <path clip-path="url(#pc1ee6c1bc8)" d="M 328.347739 246.2 
L 337.411444 246.2 
L 337.411444 81.598922 
L 328.347739 81.598922 
z
" style="fill:#ff7f0e;"/>
   </g>
   <g id="patch_18">
    <path clip-path="url(#pc1ee6c1bc8)" d="M 388.77244 246.2 
L 397.836146 246.2 
L 397.836146 29.405447 
L 388.77244 29.405447 
z
" style="fill:#ff7f0e;"/>
   </g>
   <g id="patch_19">
    <path clip-path="url(#pc1ee6c1bc8)" d="M 449.197142 246.2 
L 458.260847 246.2 
L 458.260847 71.839098 
L 449.197142 71.839098 
z
" style="fill:#ff7f0e;"/>
   </g>
   <g id="patch_20">
    <path clip-path="url(#pc1ee6c1bc8)" d="M 509.621843 246.2 
L 518.685549 246.2 
L 518.685549 41.193848 
L 509.621843 41.193848 
z
" style="fill:#ff7f0e;"/>
   </g>
   <g id="patch_21">
    <path clip-path="url(#pc1ee6c1bc8)" d="M 570.046545 246.2 
L 579.11025 246.2 
L 579.11025 31.935608 
L 570.046545 31.935608 
z
" style="fill:#ff7f0e;"/>
   </g>
   <g id="patch_22">
    <path clip-path="url(#pc1ee6c1bc8)" d="M 630.471247 246.2 
L 639.534952 246.2 
L 639.534952 29.183851 
L 630.471247 29.183851 
z
" style="fill:#ff7f0e;"/>
   </g>
   <g id="patch_23">
    <path clip-path="url(#pc1ee6c1bc8)" d="M 95.712638 246.2 
L 104.776343 246.2 
L 104.776343 85.449548 
L 95.712638 85.449548 
z
" style="fill:#2ca02c;"/>
   </g>
   <g id="patch_24">
    <path clip-path="url(#pc1ee6c1bc8)" d="M 156.137339 246.2 
L 165.201045 246.2 
L 165.201045 29.585815 
L 156.137339 29.585815 
z
" style="fill:#2ca02c;"/>
   </g>
   <g id="patch_25">
    <path clip-path="url(#pc1ee6c1bc8)" d="M 216.562041 246.2 
L 225.625746 246.2 
L 225.625746 41.212831 
L 216.562041 41.212831 
z
" style="fill:#2ca02c;"/>
   </g>
   <g id="patch_26">
    <path clip-path="url(#pc1ee6c1bc8)" d="M 276.986742 246.2 
L 286.050448 246.2 
L 286.050448 88.214599 
L 276.986742 88.214599 
z
" style="fill:#2ca02c;"/>
   </g>
   <g id="patch_27">
    <path clip-path="url(#pc1ee6c1bc8)" d="M 337.411444 246.2 
L 346.475149 246.2 
L 346.475149 94.283311 
L 337.411444 94.283311 
z
" style="fill:#2ca02c;"/>
   </g>
   <g id="patch_28">
    <path clip-path="url(#pc1ee6c1bc8)" d="M 397.836146 246.2 
L 406.899851 246.2 
L 406.899851 41.118367 
L 397.836146 41.118367 
z
" style="fill:#2ca02c;"/>
   </g>
   <g id="patch_29">
    <path clip-path="url(#pc1ee6c1bc8)" d="M 458.260847 246.2 
L 467.324552 246.2 
L 467.324552 180.412766 
L 458.260847 180.412766 
z
" style="fill:#2ca02c;"/>
   </g>
   <g id="patch_30">
    <path clip-path="url(#pc1ee6c1bc8)" d="M 518.685549 246.2 
L 527.749254 246.2 
L 527.749254 49.417332 
L 518.685549 49.417332 
z
" style="fill:#2ca02c;"/>
   </g>
   <g id="patch_31">
    <path clip-path="url(#pc1ee6c1bc8)" d="M 579.11025 246.2 
L 588.173955 246.2 
L 588.173955 26.166951 
L 579.11025 26.166951 
z
" style="fill:#2ca02c;"/>
   </g>
   <g id="patch_32">
    <path clip-path="url(#pc1ee6c1bc8)" d="M 639.534952 246.2 
L 648.598657 246.2 
L 648.598657 25.342857 
L 639.534952 25.342857 
z
" style="fill:#2ca02c;"/>
   </g>
   <g id="patch_33">
    <path clip-path="url(#pc1ee6c1bc8)" d="M 104.776343 246.2 
L 113.840048 246.2 
L 113.840048 89.046252 
L 104.776343 89.046252 
z
" style="fill:#d62728;"/>
   </g>
   <g id="patch_34">
    <path clip-path="url(#pc1ee6c1bc8)" d="M 165.201045 246.2 
L 174.26475 246.2 
L 174.26475 28.360642 
L 165.201045 28.360642 
z
" style="fill:#d62728;"/>
   </g>
   <g id="patch_35">
    <path clip-path="url(#pc1ee6c1bc8)" d="M 225.625746 246.2 
L 234.689451 246.2 
L 234.689451 38.373763 
L 225.625746 38.373763 
z
" style="fill:#d62728;"/>
   </g>
   <g id="patch_36">
    <path clip-path="url(#pc1ee6c1bc8)" d="M 286.050448 246.2 
L 295.114153 246.2 
L 295.114153 71.130314 
L 286.050448 71.130314 
z
" style="fill:#d62728;"/>
   </g>
   <g id="patch_37">
    <path clip-path="url(#pc1ee6c1bc8)" d="M 346.475149 246.2 
L 355.538854 246.2 
L 355.538854 76.181671 
L 346.475149 76.181671 
z
" style="fill:#d62728;"/>
   </g>
   <g id="patch_38">
    <path clip-path="url(#pc1ee6c1bc8)" d="M 406.899851 246.2 
L 415.963556 246.2 
L 415.963556 25.712183 
L 406.899851 25.712183 
z
" style="fill:#d62728;"/>
   </g>
   <g id="patch_39">
    <path clip-path="url(#pc1ee6c1bc8)" d="M 467.324552 246.2 
L 476.388258 246.2 
L 476.388258 27.667669 
L 467.324552 27.667669 
z
" style="fill:#d62728;"/>
   </g>
   <g id="patch_40">
    <path clip-path="url(#pc1ee6c1bc8)" d="M 527.749254 246.2 
L 536.812959 246.2 
L 536.812959 46.477512 
L 527.749254 46.477512 
z
" style="fill:#d62728;"/>
   </g>
   <g id="patch_41">
    <path clip-path="url(#pc1ee6c1bc8)" d="M 588.173955 246.2 
L 597.237661 246.2 
L 597.237661 27.815139 
L 588.173955 27.815139 
z
" style="fill:#d62728;"/>
   </g>
   <g id="patch_42">
    <path clip-path="url(#pc1ee6c1bc8)" d="M 648.598657 246.2 
L 657.662362 246.2 
L 657.662362 25.342857 
L 648.598657 25.342857 
z
" style="fill:#d62728;"/>
   </g>
   <g id="patch_43">
    <path clip-path="url(#pc1ee6c1bc8)" d="M 113.840048 246.2 
L 122.903753 246.2 
L 122.903753 50.503797 
L 113.840048 50.503797 
z
" style="fill:#9467bd;"/>
   </g>
   <g id="patch_44">
    <path clip-path="url(#pc1ee6c1bc8)" d="M 174.26475 246.2 
L 183.328455 246.2 
L 183.328455 25.677828 
L 174.26475 25.677828 
z
" style="fill:#9467bd;"/>
   </g>
   <g id="patch_45">
    <path clip-path="url(#pc1ee6c1bc8)" d="M 234.689451 246.2 
L 243.753157 246.2 
L 243.753157 29.640975 
L 234.689451 29.640975 
z
" style="fill:#9467bd;"/>
   </g>
   <g id="patch_46">
    <path clip-path="url(#pc1ee6c1bc8)" d="M 295.114153 246.2 
L 304.177858 246.2 
L 304.177858 62.421064 
L 295.114153 62.421064 
z
" style="fill:#9467bd;"/>
   </g>
   <g id="patch_47">
    <path clip-path="url(#pc1ee6c1bc8)" d="M 355.538854 246.2 
L 364.60256 246.2 
L 364.60256 63.734846 
L 355.538854 63.734846 
z
" style="fill:#9467bd;"/>
   </g>
   <g id="patch_48">
    <path clip-path="url(#pc1ee6c1bc8)" d="M 415.963556 246.2 
L 425.027261 246.2 
L 425.027261 27.177219 
L 415.963556 27.177219 
z
" style="fill:#9467bd;"/>
   </g>
   <g id="patch_49">
    <path clip-path="url(#pc1ee6c1bc8)" d="M 476.388258 246.2 
L 485.451963 246.2 
L 485.451963 25.342857 
L 476.388258 25.342857 
z
" style="fill:#9467bd;"/>
   </g>
   <g id="patch_50">
    <path clip-path="url(#pc1ee6c1bc8)" d="M 536.812959 246.2 
L 545.876664 246.2 
L 545.876664 25.342857 
L 536.812959 25.342857 
z
" style="fill:#9467bd;"/>
   </g>
   <g id="patch_51">
    <path clip-path="url(#pc1ee6c1bc8)" d="M 597.237661 246.2 
L 606.301366 246.2 
L 606.301366 25.342857 
L 597.237661 25.342857 
z
" style="fill:#9467bd;"/>
   </g>
   <g id="patch_52">
    <path clip-path="url(#pc1ee6c1bc8)" d="M 122.903753 246.2 
L 131.967459 246.2 
L 131.967459 56.212343 
L 122.903753 56.212343 
z
" style="fill:#8c564b;"/>
   </g>
   <g id="patch_53">
    <path clip-path="url(#pc1ee6c1bc8)" d="M 183.328455 246.2 
L 192.39216 246.2 
L 192.39216 28.137102 
L 183.328455 28.137102 
z
" style="fill:#8c564b;"/>
   </g>
   <g id="patch_54">
    <path clip-path="url(#pc1ee6c1bc8)" d="M 243.753157 246.2 
L 252.816862 246.2 
L 252.816862 41.046769 
L 243.753157 41.046769 
z
" style="fill:#8c564b;"/>
   </g>
   <g id="patch_55">
    <path clip-path="url(#pc1ee6c1bc8)" d="M 304.177858 246.2 
L 313.241563 246.2 
L 313.241563 72.746341 
L 304.177858 72.746341 
z
" style="fill:#8c564b;"/>
   </g>
   <g id="patch_56">
    <path clip-path="url(#pc1ee6c1bc8)" d="M 364.60256 246.2 
L 373.666265 246.2 
L 373.666265 101.184367 
L 364.60256 101.184367 
z
" style="fill:#8c564b;"/>
   </g>
   <g id="patch_57">
    <path clip-path="url(#pc1ee6c1bc8)" d="M 425.027261 246.2 
L 434.090966 246.2 
L 434.090966 46.763784 
L 425.027261 46.763784 
z
" style="fill:#8c564b;"/>
   </g>
   <g id="patch_58">
    <path clip-path="url(#pc1ee6c1bc8)" d="M 485.451963 246.2 
L 494.515668 246.2 
L 494.515668 69.514286 
L 485.451963 69.514286 
z
" style="fill:#8c564b;"/>
   </g>
   <g id="patch_59">
    <path clip-path="url(#pc1ee6c1bc8)" d="M 545.876664 246.2 
L 554.94037 246.2 
L 554.94037 42.250581 
L 545.876664 42.250581 
z
" style="fill:#8c564b;"/>
   </g>
   <g id="patch_60">
    <path clip-path="url(#pc1ee6c1bc8)" d="M 606.301366 246.2 
L 615.365071 246.2 
L 615.365071 25.342857 
L 606.301366 25.342857 
z
" style="fill:#8c564b;"/>
   </g>
   <g id="patch_61">
    <path clip-path="url(#pc1ee6c1bc8)" d="M 666.726067 246.2 
L 675.789773 246.2 
L 675.789773 25.342857 
L 666.726067 25.342857 
z
" style="fill:#8c564b;"/>
   </g>
   <g id="matplotlib.axis_1">
    <g id="xtick_1">
     <g id="line2d_1">
      <defs>
       <path d="M 0 0 
L 0 3.5 
" id="ma699de32e5" style="stroke:#000000;stroke-width:0.8;"/>
      </defs>
      <g>
       <use style="stroke:#000000;stroke-width:0.8;" x="109.308196" xlink:href="#ma699de32e5" y="246.2"/>
      </g>
     </g>
     <g id="text_1">
      <!-- 1 -->
      <defs>
       <path d="M 12.40625 8.296875 
L 28.515625 8.296875 
L 28.515625 63.921875 
L 10.984375 60.40625 
L 10.984375 69.390625 
L 28.421875 72.90625 
L 38.28125 72.90625 
L 38.28125 8.296875 
L 54.390625 8.296875 
L 54.390625 0 
L 12.40625 0 
z
" id="DejaVuSans-31"/>
      </defs>
      <g transform="translate(106.126946 260.798437)scale(0.1 -0.1)">
       <use xlink:href="#DejaVuSans-31"/>
      </g>
     </g>
    </g>
    <g id="xtick_2">
     <g id="line2d_2">
      <g>
       <use style="stroke:#000000;stroke-width:0.8;" x="169.732897" xlink:href="#ma699de32e5" y="246.2"/>
      </g>
     </g>
     <g id="text_2">
      <!-- 2 -->
      <defs>
       <path d="M 19.1875 8.296875 
L 53.609375 8.296875 
L 53.609375 0 
L 7.328125 0 
L 7.328125 8.296875 
Q 12.9375 14.109375 22.625 23.890625 
Q 32.328125 33.6875 34.8125 36.53125 
Q 39.546875 41.84375 41.421875 45.53125 
Q 43.3125 49.21875 43.3125 52.78125 
Q 43.3125 58.59375 39.234375 62.25 
Q 35.15625 65.921875 28.609375 65.921875 
Q 23.96875 65.921875 18.8125 64.3125 
Q 13.671875 62.703125 7.8125 59.421875 
L 7.8125 69.390625 
Q 13.765625 71.78125 18.9375 73 
Q 24.125 74.21875 28.421875 74.21875 
Q 39.75 74.21875 46.484375 68.546875 
Q 53.21875 62.890625 53.21875 53.421875 
Q 53.21875 48.921875 51.53125 44.890625 
Q 49.859375 40.875 45.40625 35.40625 
Q 44.1875 33.984375 37.640625 27.21875 
Q 31.109375 20.453125 19.1875 8.296875 
z
" id="DejaVuSans-32"/>
      </defs>
      <g transform="translate(166.551647 260.798437)scale(0.1 -0.1)">
       <use xlink:href="#DejaVuSans-32"/>
      </g>
     </g>
    </g>
    <g id="xtick_3">
     <g id="line2d_3">
      <g>
       <use style="stroke:#000000;stroke-width:0.8;" x="230.157599" xlink:href="#ma699de32e5" y="246.2"/>
      </g>
     </g>
     <g id="text_3">
      <!-- 3 -->
      <defs>
       <path d="M 40.578125 39.3125 
Q 47.65625 37.796875 51.625 33 
Q 55.609375 28.21875 55.609375 21.1875 
Q 55.609375 10.40625 48.1875 4.484375 
Q 40.765625 -1.421875 27.09375 -1.421875 
Q 22.515625 -1.421875 17.65625 -0.515625 
Q 12.796875 0.390625 7.625 2.203125 
L 7.625 11.71875 
Q 11.71875 9.328125 16.59375 8.109375 
Q 21.484375 6.890625 26.8125 6.890625 
Q 36.078125 6.890625 40.9375 10.546875 
Q 45.796875 14.203125 45.796875 21.1875 
Q 45.796875 27.640625 41.28125 31.265625 
Q 36.765625 34.90625 28.71875 34.90625 
L 20.21875 34.90625 
L 20.21875 43.015625 
L 29.109375 43.015625 
Q 36.375 43.015625 40.234375 45.921875 
Q 44.09375 48.828125 44.09375 54.296875 
Q 44.09375 59.90625 40.109375 62.90625 
Q 36.140625 65.921875 28.71875 65.921875 
Q 24.65625 65.921875 20.015625 65.03125 
Q 15.375 64.15625 9.8125 62.3125 
L 9.8125 71.09375 
Q 15.4375 72.65625 20.34375 73.4375 
Q 25.25 74.21875 29.59375 74.21875 
Q 40.828125 74.21875 47.359375 69.109375 
Q 53.90625 64.015625 53.90625 55.328125 
Q 53.90625 49.265625 50.4375 45.09375 
Q 46.96875 40.921875 40.578125 39.3125 
z
" id="DejaVuSans-33"/>
      </defs>
      <g transform="translate(226.976349 260.798437)scale(0.1 -0.1)">
       <use xlink:href="#DejaVuSans-33"/>
      </g>
     </g>
    </g>
    <g id="xtick_4">
     <g id="line2d_4">
      <g>
       <use style="stroke:#000000;stroke-width:0.8;" x="290.5823" xlink:href="#ma699de32e5" y="246.2"/>
      </g>
     </g>
     <g id="text_4">
      <!-- 4 -->
      <defs>
       <path d="M 37.796875 64.3125 
L 12.890625 25.390625 
L 37.796875 25.390625 
z
M 35.203125 72.90625 
L 47.609375 72.90625 
L 47.609375 25.390625 
L 58.015625 25.390625 
L 58.015625 17.1875 
L 47.609375 17.1875 
L 47.609375 0 
L 37.796875 0 
L 37.796875 17.1875 
L 4.890625 17.1875 
L 4.890625 26.703125 
z
" id="DejaVuSans-34"/>
      </defs>
      <g transform="translate(287.40105 260.798437)scale(0.1 -0.1)">
       <use xlink:href="#DejaVuSans-34"/>
      </g>
     </g>
    </g>
    <g id="xtick_5">
     <g id="line2d_5">
      <g>
       <use style="stroke:#000000;stroke-width:0.8;" x="351.007002" xlink:href="#ma699de32e5" y="246.2"/>
      </g>
     </g>
     <g id="text_5">
      <!-- 5 -->
      <defs>
       <path d="M 10.796875 72.90625 
L 49.515625 72.90625 
L 49.515625 64.59375 
L 19.828125 64.59375 
L 19.828125 46.734375 
Q 21.96875 47.46875 24.109375 47.828125 
Q 26.265625 48.1875 28.421875 48.1875 
Q 40.625 48.1875 47.75 41.5 
Q 54.890625 34.8125 54.890625 23.390625 
Q 54.890625 11.625 47.5625 5.09375 
Q 40.234375 -1.421875 26.90625 -1.421875 
Q 22.3125 -1.421875 17.546875 -0.640625 
Q 12.796875 0.140625 7.71875 1.703125 
L 7.71875 11.625 
Q 12.109375 9.234375 16.796875 8.0625 
Q 21.484375 6.890625 26.703125 6.890625 
Q 35.15625 6.890625 40.078125 11.328125 
Q 45.015625 15.765625 45.015625 23.390625 
Q 45.015625 31 40.078125 35.4375 
Q 35.15625 39.890625 26.703125 39.890625 
Q 22.75 39.890625 18.8125 39.015625 
Q 14.890625 38.140625 10.796875 36.28125 
z
" id="DejaVuSans-35"/>
      </defs>
      <g transform="translate(347.825752 260.798437)scale(0.1 -0.1)">
       <use xlink:href="#DejaVuSans-35"/>
      </g>
     </g>
    </g>
    <g id="xtick_6">
     <g id="line2d_6">
      <g>
       <use style="stroke:#000000;stroke-width:0.8;" x="411.431703" xlink:href="#ma699de32e5" y="246.2"/>
      </g>
     </g>
     <g id="text_6">
      <!-- 6 -->
      <defs>
       <path d="M 33.015625 40.375 
Q 26.375 40.375 22.484375 35.828125 
Q 18.609375 31.296875 18.609375 23.390625 
Q 18.609375 15.53125 22.484375 10.953125 
Q 26.375 6.390625 33.015625 6.390625 
Q 39.65625 6.390625 43.53125 10.953125 
Q 47.40625 15.53125 47.40625 23.390625 
Q 47.40625 31.296875 43.53125 35.828125 
Q 39.65625 40.375 33.015625 40.375 
z
M 52.59375 71.296875 
L 52.59375 62.3125 
Q 48.875 64.0625 45.09375 64.984375 
Q 41.3125 65.921875 37.59375 65.921875 
Q 27.828125 65.921875 22.671875 59.328125 
Q 17.53125 52.734375 16.796875 39.40625 
Q 19.671875 43.65625 24.015625 45.921875 
Q 28.375 48.1875 33.59375 48.1875 
Q 44.578125 48.1875 50.953125 41.515625 
Q 57.328125 34.859375 57.328125 23.390625 
Q 57.328125 12.15625 50.6875 5.359375 
Q 44.046875 -1.421875 33.015625 -1.421875 
Q 20.359375 -1.421875 13.671875 8.265625 
Q 6.984375 17.96875 6.984375 36.375 
Q 6.984375 53.65625 15.1875 63.9375 
Q 23.390625 74.21875 37.203125 74.21875 
Q 40.921875 74.21875 44.703125 73.484375 
Q 48.484375 72.75 52.59375 71.296875 
z
" id="DejaVuSans-36"/>
      </defs>
      <g transform="translate(408.250453 260.798437)scale(0.1 -0.1)">
       <use xlink:href="#DejaVuSans-36"/>
      </g>
     </g>
    </g>
    <g id="xtick_7">
     <g id="line2d_7">
      <g>
       <use style="stroke:#000000;stroke-width:0.8;" x="471.856405" xlink:href="#ma699de32e5" y="246.2"/>
      </g>
     </g>
     <g id="text_7">
      <!-- 7 -->
      <defs>
       <path d="M 8.203125 72.90625 
L 55.078125 72.90625 
L 55.078125 68.703125 
L 28.609375 0 
L 18.3125 0 
L 43.21875 64.59375 
L 8.203125 64.59375 
z
" id="DejaVuSans-37"/>
      </defs>
      <g transform="translate(468.675155 260.798437)scale(0.1 -0.1)">
       <use xlink:href="#DejaVuSans-37"/>
      </g>
     </g>
    </g>
    <g id="xtick_8">
     <g id="line2d_8">
      <g>
       <use style="stroke:#000000;stroke-width:0.8;" x="532.281107" xlink:href="#ma699de32e5" y="246.2"/>
      </g>
     </g>
     <g id="text_8">
      <!-- 8 -->
      <defs>
       <path d="M 31.78125 34.625 
Q 24.75 34.625 20.71875 30.859375 
Q 16.703125 27.09375 16.703125 20.515625 
Q 16.703125 13.921875 20.71875 10.15625 
Q 24.75 6.390625 31.78125 6.390625 
Q 38.8125 6.390625 42.859375 10.171875 
Q 46.921875 13.96875 46.921875 20.515625 
Q 46.921875 27.09375 42.890625 30.859375 
Q 38.875 34.625 31.78125 34.625 
z
M 21.921875 38.8125 
Q 15.578125 40.375 12.03125 44.71875 
Q 8.5 49.078125 8.5 55.328125 
Q 8.5 64.0625 14.71875 69.140625 
Q 20.953125 74.21875 31.78125 74.21875 
Q 42.671875 74.21875 48.875 69.140625 
Q 55.078125 64.0625 55.078125 55.328125 
Q 55.078125 49.078125 51.53125 44.71875 
Q 48 40.375 41.703125 38.8125 
Q 48.828125 37.15625 52.796875 32.3125 
Q 56.78125 27.484375 56.78125 20.515625 
Q 56.78125 9.90625 50.3125 4.234375 
Q 43.84375 -1.421875 31.78125 -1.421875 
Q 19.734375 -1.421875 13.25 4.234375 
Q 6.78125 9.90625 6.78125 20.515625 
Q 6.78125 27.484375 10.78125 32.3125 
Q 14.796875 37.15625 21.921875 38.8125 
z
M 18.3125 54.390625 
Q 18.3125 48.734375 21.84375 45.5625 
Q 25.390625 42.390625 31.78125 42.390625 
Q 38.140625 42.390625 41.71875 45.5625 
Q 45.3125 48.734375 45.3125 54.390625 
Q 45.3125 60.0625 41.71875 63.234375 
Q 38.140625 66.40625 31.78125 66.40625 
Q 25.390625 66.40625 21.84375 63.234375 
Q 18.3125 60.0625 18.3125 54.390625 
z
" id="DejaVuSans-38"/>
      </defs>
      <g transform="translate(529.099857 260.798437)scale(0.1 -0.1)">
       <use xlink:href="#DejaVuSans-38"/>
      </g>
     </g>
    </g>
    <g id="xtick_9">
     <g id="line2d_9">
      <g>
       <use style="stroke:#000000;stroke-width:0.8;" x="592.705808" xlink:href="#ma699de32e5" y="246.2"/>
      </g>
     </g>
     <g id="text_9">
      <!-- 9 -->
      <defs>
       <path d="M 10.984375 1.515625 
L 10.984375 10.5 
Q 14.703125 8.734375 18.5 7.8125 
Q 22.3125 6.890625 25.984375 6.890625 
Q 35.75 6.890625 40.890625 13.453125 
Q 46.046875 20.015625 46.78125 33.40625 
Q 43.953125 29.203125 39.59375 26.953125 
Q 35.25 24.703125 29.984375 24.703125 
Q 19.046875 24.703125 12.671875 31.3125 
Q 6.296875 37.9375 6.296875 49.421875 
Q 6.296875 60.640625 12.9375 67.421875 
Q 19.578125 74.21875 30.609375 74.21875 
Q 43.265625 74.21875 49.921875 64.515625 
Q 56.59375 54.828125 56.59375 36.375 
Q 56.59375 19.140625 48.40625 8.859375 
Q 40.234375 -1.421875 26.421875 -1.421875 
Q 22.703125 -1.421875 18.890625 -0.6875 
Q 15.09375 0.046875 10.984375 1.515625 
z
M 30.609375 32.421875 
Q 37.25 32.421875 41.125 36.953125 
Q 45.015625 41.5 45.015625 49.421875 
Q 45.015625 57.28125 41.125 61.84375 
Q 37.25 66.40625 30.609375 66.40625 
Q 23.96875 66.40625 20.09375 61.84375 
Q 16.21875 57.28125 16.21875 49.421875 
Q 16.21875 41.5 20.09375 36.953125 
Q 23.96875 32.421875 30.609375 32.421875 
z
" id="DejaVuSans-39"/>
      </defs>
      <g transform="translate(589.524558 260.798437)scale(0.1 -0.1)">
       <use xlink:href="#DejaVuSans-39"/>
      </g>
     </g>
    </g>
    <g id="xtick_10">
     <g id="line2d_10">
      <g>
       <use style="stroke:#000000;stroke-width:0.8;" x="653.13051" xlink:href="#ma699de32e5" y="246.2"/>
      </g>
     </g>
     <g id="text_10">
      <!-- 10 -->
      <defs>
       <path d="M 31.78125 66.40625 
Q 24.171875 66.40625 20.328125 58.90625 
Q 16.5 51.421875 16.5 36.375 
Q 16.5 21.390625 20.328125 13.890625 
Q 24.171875 6.390625 31.78125 6.390625 
Q 39.453125 6.390625 43.28125 13.890625 
Q 47.125 21.390625 47.125 36.375 
Q 47.125 51.421875 43.28125 58.90625 
Q 39.453125 66.40625 31.78125 66.40625 
z
M 31.78125 74.21875 
Q 44.046875 74.21875 50.515625 64.515625 
Q 56.984375 54.828125 56.984375 36.375 
Q 56.984375 17.96875 50.515625 8.265625 
Q 44.046875 -1.421875 31.78125 -1.421875 
Q 19.53125 -1.421875 13.0625 8.265625 
Q 6.59375 17.96875 6.59375 36.375 
Q 6.59375 54.828125 13.0625 64.515625 
Q 19.53125 74.21875 31.78125 74.21875 
z
" id="DejaVuSans-30"/>
      </defs>
      <g transform="translate(646.76801 260.798437)scale(0.1 -0.1)">
       <use xlink:href="#DejaVuSans-31"/>
       <use x="63.623047" xlink:href="#DejaVuSans-30"/>
      </g>
     </g>
    </g>
    <g id="text_11">
     <!-- VC patient -->
     <defs>
      <path d="M 28.609375 0 
L 0.78125 72.90625 
L 11.078125 72.90625 
L 34.1875 11.53125 
L 57.328125 72.90625 
L 67.578125 72.90625 
L 39.796875 0 
z
" id="DejaVuSans-56"/>
      <path d="M 64.40625 67.28125 
L 64.40625 56.890625 
Q 59.421875 61.53125 53.78125 63.8125 
Q 48.140625 66.109375 41.796875 66.109375 
Q 29.296875 66.109375 22.65625 58.46875 
Q 16.015625 50.828125 16.015625 36.375 
Q 16.015625 21.96875 22.65625 14.328125 
Q 29.296875 6.6875 41.796875 6.6875 
Q 48.140625 6.6875 53.78125 8.984375 
Q 59.421875 11.28125 64.40625 15.921875 
L 64.40625 5.609375 
Q 59.234375 2.09375 53.4375 0.328125 
Q 47.65625 -1.421875 41.21875 -1.421875 
Q 24.65625 -1.421875 15.125 8.703125 
Q 5.609375 18.84375 5.609375 36.375 
Q 5.609375 53.953125 15.125 64.078125 
Q 24.65625 74.21875 41.21875 74.21875 
Q 47.75 74.21875 53.53125 72.484375 
Q 59.328125 70.75 64.40625 67.28125 
z
" id="DejaVuSans-43"/>
      <path id="DejaVuSans-20"/>
      <path d="M 18.109375 8.203125 
L 18.109375 -20.796875 
L 9.078125 -20.796875 
L 9.078125 54.6875 
L 18.109375 54.6875 
L 18.109375 46.390625 
Q 20.953125 51.265625 25.265625 53.625 
Q 29.59375 56 35.59375 56 
Q 45.5625 56 51.78125 48.09375 
Q 58.015625 40.1875 58.015625 27.296875 
Q 58.015625 14.40625 51.78125 6.484375 
Q 45.5625 -1.421875 35.59375 -1.421875 
Q 29.59375 -1.421875 25.265625 0.953125 
Q 20.953125 3.328125 18.109375 8.203125 
z
M 48.6875 27.296875 
Q 48.6875 37.203125 44.609375 42.84375 
Q 40.53125 48.484375 33.40625 48.484375 
Q 26.265625 48.484375 22.1875 42.84375 
Q 18.109375 37.203125 18.109375 27.296875 
Q 18.109375 17.390625 22.1875 11.75 
Q 26.265625 6.109375 33.40625 6.109375 
Q 40.53125 6.109375 44.609375 11.75 
Q 48.6875 17.390625 48.6875 27.296875 
z
" id="DejaVuSans-70"/>
      <path d="M 34.28125 27.484375 
Q 23.390625 27.484375 19.1875 25 
Q 14.984375 22.515625 14.984375 16.5 
Q 14.984375 11.71875 18.140625 8.90625 
Q 21.296875 6.109375 26.703125 6.109375 
Q 34.1875 6.109375 38.703125 11.40625 
Q 43.21875 16.703125 43.21875 25.484375 
L 43.21875 27.484375 
z
M 52.203125 31.203125 
L 52.203125 0 
L 43.21875 0 
L 43.21875 8.296875 
Q 40.140625 3.328125 35.546875 0.953125 
Q 30.953125 -1.421875 24.3125 -1.421875 
Q 15.921875 -1.421875 10.953125 3.296875 
Q 6 8.015625 6 15.921875 
Q 6 25.140625 12.171875 29.828125 
Q 18.359375 34.515625 30.609375 34.515625 
L 43.21875 34.515625 
L 43.21875 35.40625 
Q 43.21875 41.609375 39.140625 45 
Q 35.0625 48.390625 27.6875 48.390625 
Q 23 48.390625 18.546875 47.265625 
Q 14.109375 46.140625 10.015625 43.890625 
L 10.015625 52.203125 
Q 14.9375 54.109375 19.578125 55.046875 
Q 24.21875 56 28.609375 56 
Q 40.484375 56 46.34375 49.84375 
Q 52.203125 43.703125 52.203125 31.203125 
z
" id="DejaVuSans-61"/>
      <path d="M 18.3125 70.21875 
L 18.3125 54.6875 
L 36.8125 54.6875 
L 36.8125 47.703125 
L 18.3125 47.703125 
L 18.3125 18.015625 
Q 18.3125 11.328125 20.140625 9.421875 
Q 21.96875 7.515625 27.59375 7.515625 
L 36.8125 7.515625 
L 36.8125 0 
L 27.59375 0 
Q 17.1875 0 13.234375 3.875 
Q 9.28125 7.765625 9.28125 18.015625 
L 9.28125 47.703125 
L 2.6875 47.703125 
L 2.6875 54.6875 
L 9.28125 54.6875 
L 9.28125 70.21875 
z
" id="DejaVuSans-74"/>
      <path d="M 9.421875 54.6875 
L 18.40625 54.6875 
L 18.40625 0 
L 9.421875 0 
z
M 9.421875 75.984375 
L 18.40625 75.984375 
L 18.40625 64.59375 
L 9.421875 64.59375 
z
" id="DejaVuSans-69"/>
      <path d="M 56.203125 29.59375 
L 56.203125 25.203125 
L 14.890625 25.203125 
Q 15.484375 15.921875 20.484375 11.0625 
Q 25.484375 6.203125 34.421875 6.203125 
Q 39.59375 6.203125 44.453125 7.46875 
Q 49.3125 8.734375 54.109375 11.28125 
L 54.109375 2.78125 
Q 49.265625 0.734375 44.1875 -0.34375 
Q 39.109375 -1.421875 33.890625 -1.421875 
Q 20.796875 -1.421875 13.15625 6.1875 
Q 5.515625 13.8125 5.515625 26.8125 
Q 5.515625 40.234375 12.765625 48.109375 
Q 20.015625 56 32.328125 56 
Q 43.359375 56 49.78125 48.890625 
Q 56.203125 41.796875 56.203125 29.59375 
z
M 47.21875 32.234375 
Q 47.125 39.59375 43.09375 43.984375 
Q 39.0625 48.390625 32.421875 48.390625 
Q 24.90625 48.390625 20.390625 44.140625 
Q 15.875 39.890625 15.1875 32.171875 
z
" id="DejaVuSans-65"/>
      <path d="M 54.890625 33.015625 
L 54.890625 0 
L 45.90625 0 
L 45.90625 32.71875 
Q 45.90625 40.484375 42.875 44.328125 
Q 39.84375 48.1875 33.796875 48.1875 
Q 26.515625 48.1875 22.3125 43.546875 
Q 18.109375 38.921875 18.109375 30.90625 
L 18.109375 0 
L 9.078125 0 
L 9.078125 54.6875 
L 18.109375 54.6875 
L 18.109375 46.1875 
Q 21.34375 51.125 25.703125 53.5625 
Q 30.078125 56 35.796875 56 
Q 45.21875 56 50.046875 50.171875 
Q 54.890625 44.34375 54.890625 33.015625 
z
" id="DejaVuSans-6e"/>
     </defs>
     <g transform="translate(350.39375 274.476562)scale(0.1 -0.1)">
      <use xlink:href="#DejaVuSans-56"/>
      <use x="68.408203" xlink:href="#DejaVuSans-43"/>
      <use x="138.232422" xlink:href="#DejaVuSans-20"/>
      <use x="170.019531" xlink:href="#DejaVuSans-70"/>
      <use x="233.496094" xlink:href="#DejaVuSans-61"/>
      <use x="294.775391" xlink:href="#DejaVuSans-74"/>
      <use x="333.984375" xlink:href="#DejaVuSans-69"/>
      <use x="361.767578" xlink:href="#DejaVuSans-65"/>
      <use x="423.291016" xlink:href="#DejaVuSans-6e"/>
      <use x="486.669922" xlink:href="#DejaVuSans-74"/>
     </g>
    </g>
   </g>
   <g id="matplotlib.axis_2">
    <g id="ytick_1">
     <g id="line2d_11">
      <defs>
       <path d="M 0 0 
L -3.5 0 
" id="mac427ae57f" style="stroke:#000000;stroke-width:0.8;"/>
      </defs>
      <g>
       <use style="stroke:#000000;stroke-width:0.8;" x="47.675" xlink:href="#mac427ae57f" y="246.2"/>
      </g>
     </g>
     <g id="text_12">
      <!-- 0.0 -->
      <defs>
       <path d="M 10.6875 12.40625 
L 21 12.40625 
L 21 0 
L 10.6875 0 
z
" id="DejaVuSans-2e"/>
      </defs>
      <g transform="translate(24.771875 249.999219)scale(0.1 -0.1)">
       <use xlink:href="#DejaVuSans-30"/>
       <use x="63.623047" xlink:href="#DejaVuSans-2e"/>
       <use x="95.410156" xlink:href="#DejaVuSans-30"/>
      </g>
     </g>
    </g>
    <g id="ytick_2">
     <g id="line2d_12">
      <g>
       <use style="stroke:#000000;stroke-width:0.8;" x="47.675" xlink:href="#mac427ae57f" y="202.028571"/>
      </g>
     </g>
     <g id="text_13">
      <!-- 0.2 -->
      <g transform="translate(24.771875 205.82779)scale(0.1 -0.1)">
       <use xlink:href="#DejaVuSans-30"/>
       <use x="63.623047" xlink:href="#DejaVuSans-2e"/>
       <use x="95.410156" xlink:href="#DejaVuSans-32"/>
      </g>
     </g>
    </g>
    <g id="ytick_3">
     <g id="line2d_13">
      <g>
       <use style="stroke:#000000;stroke-width:0.8;" x="47.675" xlink:href="#mac427ae57f" y="157.857143"/>
      </g>
     </g>
     <g id="text_14">
      <!-- 0.4 -->
      <g transform="translate(24.771875 161.656362)scale(0.1 -0.1)">
       <use xlink:href="#DejaVuSans-30"/>
       <use x="63.623047" xlink:href="#DejaVuSans-2e"/>
       <use x="95.410156" xlink:href="#DejaVuSans-34"/>
      </g>
     </g>
    </g>
    <g id="ytick_4">
     <g id="line2d_14">
      <g>
       <use style="stroke:#000000;stroke-width:0.8;" x="47.675" xlink:href="#mac427ae57f" y="113.685714"/>
      </g>
     </g>
     <g id="text_15">
      <!-- 0.6 -->
      <g transform="translate(24.771875 117.484933)scale(0.1 -0.1)">
       <use xlink:href="#DejaVuSans-30"/>
       <use x="63.623047" xlink:href="#DejaVuSans-2e"/>
       <use x="95.410156" xlink:href="#DejaVuSans-36"/>
      </g>
     </g>
    </g>
    <g id="ytick_5">
     <g id="line2d_15">
      <g>
       <use style="stroke:#000000;stroke-width:0.8;" x="47.675" xlink:href="#mac427ae57f" y="69.514286"/>
      </g>
     </g>
     <g id="text_16">
      <!-- 0.8 -->
      <g transform="translate(24.771875 73.313504)scale(0.1 -0.1)">
       <use xlink:href="#DejaVuSans-30"/>
       <use x="63.623047" xlink:href="#DejaVuSans-2e"/>
       <use x="95.410156" xlink:href="#DejaVuSans-38"/>
      </g>
     </g>
    </g>
    <g id="ytick_6">
     <g id="line2d_16">
      <g>
       <use style="stroke:#000000;stroke-width:0.8;" x="47.675" xlink:href="#mac427ae57f" y="25.342857"/>
      </g>
     </g>
     <g id="text_17">
      <!-- 1.0 -->
      <g transform="translate(24.771875 29.142076)scale(0.1 -0.1)">
       <use xlink:href="#DejaVuSans-31"/>
       <use x="63.623047" xlink:href="#DejaVuSans-2e"/>
       <use x="95.410156" xlink:href="#DejaVuSans-30"/>
      </g>
     </g>
    </g>
    <g id="text_18">
     <!-- accuracy -->
     <defs>
      <path d="M 48.78125 52.59375 
L 48.78125 44.1875 
Q 44.96875 46.296875 41.140625 47.34375 
Q 37.3125 48.390625 33.40625 48.390625 
Q 24.65625 48.390625 19.8125 42.84375 
Q 14.984375 37.3125 14.984375 27.296875 
Q 14.984375 17.28125 19.8125 11.734375 
Q 24.65625 6.203125 33.40625 6.203125 
Q 37.3125 6.203125 41.140625 7.25 
Q 44.96875 8.296875 48.78125 10.40625 
L 48.78125 2.09375 
Q 45.015625 0.34375 40.984375 -0.53125 
Q 36.96875 -1.421875 32.421875 -1.421875 
Q 20.0625 -1.421875 12.78125 6.34375 
Q 5.515625 14.109375 5.515625 27.296875 
Q 5.515625 40.671875 12.859375 48.328125 
Q 20.21875 56 33.015625 56 
Q 37.15625 56 41.109375 55.140625 
Q 45.0625 54.296875 48.78125 52.59375 
z
" id="DejaVuSans-63"/>
      <path d="M 8.5 21.578125 
L 8.5 54.6875 
L 17.484375 54.6875 
L 17.484375 21.921875 
Q 17.484375 14.15625 20.5 10.265625 
Q 23.53125 6.390625 29.59375 6.390625 
Q 36.859375 6.390625 41.078125 11.03125 
Q 45.3125 15.671875 45.3125 23.6875 
L 45.3125 54.6875 
L 54.296875 54.6875 
L 54.296875 0 
L 45.3125 0 
L 45.3125 8.40625 
Q 42.046875 3.421875 37.71875 1 
Q 33.40625 -1.421875 27.6875 -1.421875 
Q 18.265625 -1.421875 13.375 4.4375 
Q 8.5 10.296875 8.5 21.578125 
z
M 31.109375 56 
z
" id="DejaVuSans-75"/>
      <path d="M 41.109375 46.296875 
Q 39.59375 47.171875 37.8125 47.578125 
Q 36.03125 48 33.890625 48 
Q 26.265625 48 22.1875 43.046875 
Q 18.109375 38.09375 18.109375 28.8125 
L 18.109375 0 
L 9.078125 0 
L 9.078125 54.6875 
L 18.109375 54.6875 
L 18.109375 46.1875 
Q 20.953125 51.171875 25.484375 53.578125 
Q 30.03125 56 36.53125 56 
Q 37.453125 56 38.578125 55.875 
Q 39.703125 55.765625 41.0625 55.515625 
z
" id="DejaVuSans-72"/>
      <path d="M 32.171875 -5.078125 
Q 28.375 -14.84375 24.75 -17.8125 
Q 21.140625 -20.796875 15.09375 -20.796875 
L 7.90625 -20.796875 
L 7.90625 -13.28125 
L 13.1875 -13.28125 
Q 16.890625 -13.28125 18.9375 -11.515625 
Q 21 -9.765625 23.484375 -3.21875 
L 25.09375 0.875 
L 2.984375 54.6875 
L 12.5 54.6875 
L 29.59375 11.921875 
L 46.6875 54.6875 
L 56.203125 54.6875 
z
" id="DejaVuSans-79"/>
     </defs>
     <g transform="translate(18.692187 152.809375)rotate(-90)scale(0.1 -0.1)">
      <use xlink:href="#DejaVuSans-61"/>
      <use x="61.279297" xlink:href="#DejaVuSans-63"/>
      <use x="116.259766" xlink:href="#DejaVuSans-63"/>
      <use x="171.240234" xlink:href="#DejaVuSans-75"/>
      <use x="234.619141" xlink:href="#DejaVuSans-72"/>
      <use x="275.732422" xlink:href="#DejaVuSans-61"/>
      <use x="337.011719" xlink:href="#DejaVuSans-63"/>
      <use x="391.992188" xlink:href="#DejaVuSans-79"/>
     </g>
    </g>
   </g>
   <g id="patch_62">
    <path d="M 47.675 246.2 
L 47.675 14.3 
" style="fill:none;stroke:#000000;stroke-linecap:square;stroke-linejoin:miter;stroke-width:0.8;"/>
   </g>
   <g id="patch_63">
    <path d="M 705.7 246.2 
L 705.7 14.3 
" style="fill:none;stroke:#000000;stroke-linecap:square;stroke-linejoin:miter;stroke-width:0.8;"/>
   </g>
   <g id="patch_64">
    <path d="M 47.675 246.2 
L 705.7 246.2 
" style="fill:none;stroke:#000000;stroke-linecap:square;stroke-linejoin:miter;stroke-width:0.8;"/>
   </g>
   <g id="patch_65">
    <path d="M 47.675 14.3 
L 705.7 14.3 
" style="fill:none;stroke:#000000;stroke-linecap:square;stroke-linejoin:miter;stroke-width:0.8;"/>
   </g>
   <g id="legend_1">
    <g id="patch_66">
     <path d="M 54.675 241.2 
L 373.075 241.2 
Q 375.075 241.2 375.075 239.2 
L 375.075 152.13125 
Q 375.075 150.13125 373.075 150.13125 
L 54.675 150.13125 
Q 52.675 150.13125 52.675 152.13125 
L 52.675 239.2 
Q 52.675 241.2 54.675 241.2 
z
" style="fill:#ffffff;opacity:0.8;stroke:#cccccc;stroke-linejoin:miter;"/>
    </g>
    <g id="patch_67">
     <path d="M 56.675 161.729688 
L 76.675 161.729688 
L 76.675 154.729688 
L 56.675 154.729688 
z
" style="fill:#1f77b4;"/>
    </g>
    <g id="text_19">
     <!-- Train: OC, Test: VC (ppf), Acc=0.883 -->
     <defs>
      <path d="M -0.296875 72.90625 
L 61.375 72.90625 
L 61.375 64.59375 
L 35.5 64.59375 
L 35.5 0 
L 25.59375 0 
L 25.59375 64.59375 
L -0.296875 64.59375 
z
" id="DejaVuSans-54"/>
      <path d="M 11.71875 12.40625 
L 22.015625 12.40625 
L 22.015625 0 
L 11.71875 0 
z
M 11.71875 51.703125 
L 22.015625 51.703125 
L 22.015625 39.3125 
L 11.71875 39.3125 
z
" id="DejaVuSans-3a"/>
      <path d="M 39.40625 66.21875 
Q 28.65625 66.21875 22.328125 58.203125 
Q 16.015625 50.203125 16.015625 36.375 
Q 16.015625 22.609375 22.328125 14.59375 
Q 28.65625 6.59375 39.40625 6.59375 
Q 50.140625 6.59375 56.421875 14.59375 
Q 62.703125 22.609375 62.703125 36.375 
Q 62.703125 50.203125 56.421875 58.203125 
Q 50.140625 66.21875 39.40625 66.21875 
z
M 39.40625 74.21875 
Q 54.734375 74.21875 63.90625 63.9375 
Q 73.09375 53.65625 73.09375 36.375 
Q 73.09375 19.140625 63.90625 8.859375 
Q 54.734375 -1.421875 39.40625 -1.421875 
Q 24.03125 -1.421875 14.8125 8.828125 
Q 5.609375 19.09375 5.609375 36.375 
Q 5.609375 53.65625 14.8125 63.9375 
Q 24.03125 74.21875 39.40625 74.21875 
z
" id="DejaVuSans-4f"/>
      <path d="M 11.71875 12.40625 
L 22.015625 12.40625 
L 22.015625 4 
L 14.015625 -11.625 
L 7.71875 -11.625 
L 11.71875 4 
z
" id="DejaVuSans-2c"/>
      <path d="M 44.28125 53.078125 
L 44.28125 44.578125 
Q 40.484375 46.53125 36.375 47.5 
Q 32.28125 48.484375 27.875 48.484375 
Q 21.1875 48.484375 17.84375 46.4375 
Q 14.5 44.390625 14.5 40.28125 
Q 14.5 37.15625 16.890625 35.375 
Q 19.28125 33.59375 26.515625 31.984375 
L 29.59375 31.296875 
Q 39.15625 29.25 43.1875 25.515625 
Q 47.21875 21.78125 47.21875 15.09375 
Q 47.21875 7.46875 41.1875 3.015625 
Q 35.15625 -1.421875 24.609375 -1.421875 
Q 20.21875 -1.421875 15.453125 -0.5625 
Q 10.6875 0.296875 5.421875 2 
L 5.421875 11.28125 
Q 10.40625 8.6875 15.234375 7.390625 
Q 20.0625 6.109375 24.8125 6.109375 
Q 31.15625 6.109375 34.5625 8.28125 
Q 37.984375 10.453125 37.984375 14.40625 
Q 37.984375 18.0625 35.515625 20.015625 
Q 33.0625 21.96875 24.703125 23.78125 
L 21.578125 24.515625 
Q 13.234375 26.265625 9.515625 29.90625 
Q 5.8125 33.546875 5.8125 39.890625 
Q 5.8125 47.609375 11.28125 51.796875 
Q 16.75 56 26.8125 56 
Q 31.78125 56 36.171875 55.265625 
Q 40.578125 54.546875 44.28125 53.078125 
z
" id="DejaVuSans-73"/>
      <path d="M 31 75.875 
Q 24.46875 64.65625 21.28125 53.65625 
Q 18.109375 42.671875 18.109375 31.390625 
Q 18.109375 20.125 21.3125 9.0625 
Q 24.515625 -2 31 -13.1875 
L 23.1875 -13.1875 
Q 15.875 -1.703125 12.234375 9.375 
Q 8.59375 20.453125 8.59375 31.390625 
Q 8.59375 42.28125 12.203125 53.3125 
Q 15.828125 64.359375 23.1875 75.875 
z
" id="DejaVuSans-28"/>
      <path d="M 37.109375 75.984375 
L 37.109375 68.5 
L 28.515625 68.5 
Q 23.6875 68.5 21.796875 66.546875 
Q 19.921875 64.59375 19.921875 59.515625 
L 19.921875 54.6875 
L 34.71875 54.6875 
L 34.71875 47.703125 
L 19.921875 47.703125 
L 19.921875 0 
L 10.890625 0 
L 10.890625 47.703125 
L 2.296875 47.703125 
L 2.296875 54.6875 
L 10.890625 54.6875 
L 10.890625 58.5 
Q 10.890625 67.625 15.140625 71.796875 
Q 19.390625 75.984375 28.609375 75.984375 
z
" id="DejaVuSans-66"/>
      <path d="M 8.015625 75.875 
L 15.828125 75.875 
Q 23.140625 64.359375 26.78125 53.3125 
Q 30.421875 42.28125 30.421875 31.390625 
Q 30.421875 20.453125 26.78125 9.375 
Q 23.140625 -1.703125 15.828125 -13.1875 
L 8.015625 -13.1875 
Q 14.5 -2 17.703125 9.0625 
Q 20.90625 20.125 20.90625 31.390625 
Q 20.90625 42.671875 17.703125 53.65625 
Q 14.5 64.65625 8.015625 75.875 
z
" id="DejaVuSans-29"/>
      <path d="M 34.1875 63.1875 
L 20.796875 26.90625 
L 47.609375 26.90625 
z
M 28.609375 72.90625 
L 39.796875 72.90625 
L 67.578125 0 
L 57.328125 0 
L 50.6875 18.703125 
L 17.828125 18.703125 
L 11.1875 0 
L 0.78125 0 
z
" id="DejaVuSans-41"/>
      <path d="M 10.59375 45.40625 
L 73.1875 45.40625 
L 73.1875 37.203125 
L 10.59375 37.203125 
z
M 10.59375 25.484375 
L 73.1875 25.484375 
L 73.1875 17.1875 
L 10.59375 17.1875 
z
" id="DejaVuSans-3d"/>
     </defs>
     <g transform="translate(84.675 161.729688)scale(0.1 -0.1)">
      <use xlink:href="#DejaVuSans-54"/>
      <use x="60.865234" xlink:href="#DejaVuSans-72"/>
      <use x="101.978516" xlink:href="#DejaVuSans-61"/>
      <use x="163.257812" xlink:href="#DejaVuSans-69"/>
      <use x="191.041016" xlink:href="#DejaVuSans-6e"/>
      <use x="254.419922" xlink:href="#DejaVuSans-3a"/>
      <use x="288.111328" xlink:href="#DejaVuSans-20"/>
      <use x="319.898438" xlink:href="#DejaVuSans-4f"/>
      <use x="398.609375" xlink:href="#DejaVuSans-43"/>
      <use x="468.433594" xlink:href="#DejaVuSans-2c"/>
      <use x="500.220703" xlink:href="#DejaVuSans-20"/>
      <use x="532.007812" xlink:href="#DejaVuSans-54"/>
      <use x="592.826172" xlink:href="#DejaVuSans-65"/>
      <use x="654.349609" xlink:href="#DejaVuSans-73"/>
      <use x="706.449219" xlink:href="#DejaVuSans-74"/>
      <use x="745.658203" xlink:href="#DejaVuSans-3a"/>
      <use x="779.349609" xlink:href="#DejaVuSans-20"/>
      <use x="811.136719" xlink:href="#DejaVuSans-56"/>
      <use x="879.544922" xlink:href="#DejaVuSans-43"/>
      <use x="949.369141" xlink:href="#DejaVuSans-20"/>
      <use x="981.15625" xlink:href="#DejaVuSans-28"/>
      <use x="1020.169922" xlink:href="#DejaVuSans-70"/>
      <use x="1083.646484" xlink:href="#DejaVuSans-70"/>
      <use x="1147.123047" xlink:href="#DejaVuSans-66"/>
      <use x="1182.328125" xlink:href="#DejaVuSans-29"/>
      <use x="1221.341797" xlink:href="#DejaVuSans-2c"/>
      <use x="1253.128906" xlink:href="#DejaVuSans-20"/>
      <use x="1284.916016" xlink:href="#DejaVuSans-41"/>
      <use x="1353.308594" xlink:href="#DejaVuSans-63"/>
      <use x="1408.289062" xlink:href="#DejaVuSans-63"/>
      <use x="1463.269531" xlink:href="#DejaVuSans-3d"/>
      <use x="1547.058594" xlink:href="#DejaVuSans-30"/>
      <use x="1610.681641" xlink:href="#DejaVuSans-2e"/>
      <use x="1642.46875" xlink:href="#DejaVuSans-38"/>
      <use x="1706.091797" xlink:href="#DejaVuSans-38"/>
      <use x="1769.714844" xlink:href="#DejaVuSans-33"/>
     </g>
    </g>
    <g id="patch_68">
     <path d="M 56.675 176.407813 
L 76.675 176.407813 
L 76.675 169.407813 
L 56.675 169.407813 
z
" style="fill:#ff7f0e;"/>
    </g>
    <g id="text_20">
     <!-- Train: OC, Test: VC (ResNet), Acc=0.867 -->
     <defs>
      <path d="M 44.390625 34.1875 
Q 47.5625 33.109375 50.5625 29.59375 
Q 53.5625 26.078125 56.59375 19.921875 
L 66.609375 0 
L 56 0 
L 46.6875 18.703125 
Q 43.0625 26.03125 39.671875 28.421875 
Q 36.28125 30.8125 30.421875 30.8125 
L 19.671875 30.8125 
L 19.671875 0 
L 9.8125 0 
L 9.8125 72.90625 
L 32.078125 72.90625 
Q 44.578125 72.90625 50.734375 67.671875 
Q 56.890625 62.453125 56.890625 51.90625 
Q 56.890625 45.015625 53.6875 40.46875 
Q 50.484375 35.9375 44.390625 34.1875 
z
M 19.671875 64.796875 
L 19.671875 38.921875 
L 32.078125 38.921875 
Q 39.203125 38.921875 42.84375 42.21875 
Q 46.484375 45.515625 46.484375 51.90625 
Q 46.484375 58.296875 42.84375 61.546875 
Q 39.203125 64.796875 32.078125 64.796875 
z
" id="DejaVuSans-52"/>
      <path d="M 9.8125 72.90625 
L 23.09375 72.90625 
L 55.421875 11.921875 
L 55.421875 72.90625 
L 64.984375 72.90625 
L 64.984375 0 
L 51.703125 0 
L 19.390625 60.984375 
L 19.390625 0 
L 9.8125 0 
z
" id="DejaVuSans-4e"/>
     </defs>
     <g transform="translate(84.675 176.407813)scale(0.1 -0.1)">
      <use xlink:href="#DejaVuSans-54"/>
      <use x="60.865234" xlink:href="#DejaVuSans-72"/>
      <use x="101.978516" xlink:href="#DejaVuSans-61"/>
      <use x="163.257812" xlink:href="#DejaVuSans-69"/>
      <use x="191.041016" xlink:href="#DejaVuSans-6e"/>
      <use x="254.419922" xlink:href="#DejaVuSans-3a"/>
      <use x="288.111328" xlink:href="#DejaVuSans-20"/>
      <use x="319.898438" xlink:href="#DejaVuSans-4f"/>
      <use x="398.609375" xlink:href="#DejaVuSans-43"/>
      <use x="468.433594" xlink:href="#DejaVuSans-2c"/>
      <use x="500.220703" xlink:href="#DejaVuSans-20"/>
      <use x="532.007812" xlink:href="#DejaVuSans-54"/>
      <use x="592.826172" xlink:href="#DejaVuSans-65"/>
      <use x="654.349609" xlink:href="#DejaVuSans-73"/>
      <use x="706.449219" xlink:href="#DejaVuSans-74"/>
      <use x="745.658203" xlink:href="#DejaVuSans-3a"/>
      <use x="779.349609" xlink:href="#DejaVuSans-20"/>
      <use x="811.136719" xlink:href="#DejaVuSans-56"/>
      <use x="879.544922" xlink:href="#DejaVuSans-43"/>
      <use x="949.369141" xlink:href="#DejaVuSans-20"/>
      <use x="981.15625" xlink:href="#DejaVuSans-28"/>
      <use x="1020.169922" xlink:href="#DejaVuSans-52"/>
      <use x="1089.589844" xlink:href="#DejaVuSans-65"/>
      <use x="1151.113281" xlink:href="#DejaVuSans-73"/>
      <use x="1203.212891" xlink:href="#DejaVuSans-4e"/>
      <use x="1278.017578" xlink:href="#DejaVuSans-65"/>
      <use x="1339.541016" xlink:href="#DejaVuSans-74"/>
      <use x="1378.75" xlink:href="#DejaVuSans-29"/>
      <use x="1417.763672" xlink:href="#DejaVuSans-2c"/>
      <use x="1449.550781" xlink:href="#DejaVuSans-20"/>
      <use x="1481.337891" xlink:href="#DejaVuSans-41"/>
      <use x="1549.730469" xlink:href="#DejaVuSans-63"/>
      <use x="1604.710938" xlink:href="#DejaVuSans-63"/>
      <use x="1659.691406" xlink:href="#DejaVuSans-3d"/>
      <use x="1743.480469" xlink:href="#DejaVuSans-30"/>
      <use x="1807.103516" xlink:href="#DejaVuSans-2e"/>
      <use x="1838.890625" xlink:href="#DejaVuSans-38"/>
      <use x="1902.513672" xlink:href="#DejaVuSans-36"/>
      <use x="1966.136719" xlink:href="#DejaVuSans-37"/>
     </g>
    </g>
    <g id="patch_69">
     <path d="M 56.675 191.085938 
L 76.675 191.085938 
L 76.675 184.085938 
L 56.675 184.085938 
z
" style="fill:#2ca02c;"/>
    </g>
    <g id="text_21">
     <!-- Train: VC, Test: VC (LOPO x-val, ppf), Acc=0.873 -->
     <defs>
      <path d="M 9.8125 72.90625 
L 19.671875 72.90625 
L 19.671875 8.296875 
L 55.171875 8.296875 
L 55.171875 0 
L 9.8125 0 
z
" id="DejaVuSans-4c"/>
      <path d="M 19.671875 64.796875 
L 19.671875 37.40625 
L 32.078125 37.40625 
Q 38.96875 37.40625 42.71875 40.96875 
Q 46.484375 44.53125 46.484375 51.125 
Q 46.484375 57.671875 42.71875 61.234375 
Q 38.96875 64.796875 32.078125 64.796875 
z
M 9.8125 72.90625 
L 32.078125 72.90625 
Q 44.34375 72.90625 50.609375 67.359375 
Q 56.890625 61.8125 56.890625 51.125 
Q 56.890625 40.328125 50.609375 34.8125 
Q 44.34375 29.296875 32.078125 29.296875 
L 19.671875 29.296875 
L 19.671875 0 
L 9.8125 0 
z
" id="DejaVuSans-50"/>
      <path d="M 54.890625 54.6875 
L 35.109375 28.078125 
L 55.90625 0 
L 45.3125 0 
L 29.390625 21.484375 
L 13.484375 0 
L 2.875 0 
L 24.125 28.609375 
L 4.6875 54.6875 
L 15.28125 54.6875 
L 29.78125 35.203125 
L 44.28125 54.6875 
z
" id="DejaVuSans-78"/>
      <path d="M 4.890625 31.390625 
L 31.203125 31.390625 
L 31.203125 23.390625 
L 4.890625 23.390625 
z
" id="DejaVuSans-2d"/>
      <path d="M 2.984375 54.6875 
L 12.5 54.6875 
L 29.59375 8.796875 
L 46.6875 54.6875 
L 56.203125 54.6875 
L 35.6875 0 
L 23.484375 0 
z
" id="DejaVuSans-76"/>
      <path d="M 9.421875 75.984375 
L 18.40625 75.984375 
L 18.40625 0 
L 9.421875 0 
z
" id="DejaVuSans-6c"/>
     </defs>
     <g transform="translate(84.675 191.085938)scale(0.1 -0.1)">
      <use xlink:href="#DejaVuSans-54"/>
      <use x="60.865234" xlink:href="#DejaVuSans-72"/>
      <use x="101.978516" xlink:href="#DejaVuSans-61"/>
      <use x="163.257812" xlink:href="#DejaVuSans-69"/>
      <use x="191.041016" xlink:href="#DejaVuSans-6e"/>
      <use x="254.419922" xlink:href="#DejaVuSans-3a"/>
      <use x="288.111328" xlink:href="#DejaVuSans-20"/>
      <use x="319.898438" xlink:href="#DejaVuSans-56"/>
      <use x="388.306641" xlink:href="#DejaVuSans-43"/>
      <use x="458.130859" xlink:href="#DejaVuSans-2c"/>
      <use x="489.917969" xlink:href="#DejaVuSans-20"/>
      <use x="521.705078" xlink:href="#DejaVuSans-54"/>
      <use x="582.523438" xlink:href="#DejaVuSans-65"/>
      <use x="644.046875" xlink:href="#DejaVuSans-73"/>
      <use x="696.146484" xlink:href="#DejaVuSans-74"/>
      <use x="735.355469" xlink:href="#DejaVuSans-3a"/>
      <use x="769.046875" xlink:href="#DejaVuSans-20"/>
      <use x="800.833984" xlink:href="#DejaVuSans-56"/>
      <use x="869.242188" xlink:href="#DejaVuSans-43"/>
      <use x="939.066406" xlink:href="#DejaVuSans-20"/>
      <use x="970.853516" xlink:href="#DejaVuSans-28"/>
      <use x="1009.867188" xlink:href="#DejaVuSans-4c"/>
      <use x="1065.533203" xlink:href="#DejaVuSans-4f"/>
      <use x="1144.244141" xlink:href="#DejaVuSans-50"/>
      <use x="1204.546875" xlink:href="#DejaVuSans-4f"/>
      <use x="1283.257812" xlink:href="#DejaVuSans-20"/>
      <use x="1315.044922" xlink:href="#DejaVuSans-78"/>
      <use x="1374.224609" xlink:href="#DejaVuSans-2d"/>
      <use x="1410.277344" xlink:href="#DejaVuSans-76"/>
      <use x="1469.457031" xlink:href="#DejaVuSans-61"/>
      <use x="1530.736328" xlink:href="#DejaVuSans-6c"/>
      <use x="1558.519531" xlink:href="#DejaVuSans-2c"/>
      <use x="1590.306641" xlink:href="#DejaVuSans-20"/>
      <use x="1622.09375" xlink:href="#DejaVuSans-70"/>
      <use x="1685.570312" xlink:href="#DejaVuSans-70"/>
      <use x="1749.046875" xlink:href="#DejaVuSans-66"/>
      <use x="1784.251953" xlink:href="#DejaVuSans-29"/>
      <use x="1823.265625" xlink:href="#DejaVuSans-2c"/>
      <use x="1855.052734" xlink:href="#DejaVuSans-20"/>
      <use x="1886.839844" xlink:href="#DejaVuSans-41"/>
      <use x="1955.232422" xlink:href="#DejaVuSans-63"/>
      <use x="2010.212891" xlink:href="#DejaVuSans-63"/>
      <use x="2065.193359" xlink:href="#DejaVuSans-3d"/>
      <use x="2148.982422" xlink:href="#DejaVuSans-30"/>
      <use x="2212.605469" xlink:href="#DejaVuSans-2e"/>
      <use x="2244.392578" xlink:href="#DejaVuSans-38"/>
      <use x="2308.015625" xlink:href="#DejaVuSans-37"/>
      <use x="2371.638672" xlink:href="#DejaVuSans-33"/>
     </g>
    </g>
    <g id="patch_70">
     <path d="M 56.675 205.764062 
L 76.675 205.764062 
L 76.675 198.764062 
L 56.675 198.764062 
z
" style="fill:#d62728;"/>
    </g>
    <g id="text_22">
     <!-- Train: VC, Test: VC (LOPO x-val, ResNet), Acc=0.907 -->
     <g transform="translate(84.675 205.764062)scale(0.1 -0.1)">
      <use xlink:href="#DejaVuSans-54"/>
      <use x="60.865234" xlink:href="#DejaVuSans-72"/>
      <use x="101.978516" xlink:href="#DejaVuSans-61"/>
      <use x="163.257812" xlink:href="#DejaVuSans-69"/>
      <use x="191.041016" xlink:href="#DejaVuSans-6e"/>
      <use x="254.419922" xlink:href="#DejaVuSans-3a"/>
      <use x="288.111328" xlink:href="#DejaVuSans-20"/>
      <use x="319.898438" xlink:href="#DejaVuSans-56"/>
      <use x="388.306641" xlink:href="#DejaVuSans-43"/>
      <use x="458.130859" xlink:href="#DejaVuSans-2c"/>
      <use x="489.917969" xlink:href="#DejaVuSans-20"/>
      <use x="521.705078" xlink:href="#DejaVuSans-54"/>
      <use x="582.523438" xlink:href="#DejaVuSans-65"/>
      <use x="644.046875" xlink:href="#DejaVuSans-73"/>
      <use x="696.146484" xlink:href="#DejaVuSans-74"/>
      <use x="735.355469" xlink:href="#DejaVuSans-3a"/>
      <use x="769.046875" xlink:href="#DejaVuSans-20"/>
      <use x="800.833984" xlink:href="#DejaVuSans-56"/>
      <use x="869.242188" xlink:href="#DejaVuSans-43"/>
      <use x="939.066406" xlink:href="#DejaVuSans-20"/>
      <use x="970.853516" xlink:href="#DejaVuSans-28"/>
      <use x="1009.867188" xlink:href="#DejaVuSans-4c"/>
      <use x="1065.533203" xlink:href="#DejaVuSans-4f"/>
      <use x="1144.244141" xlink:href="#DejaVuSans-50"/>
      <use x="1204.546875" xlink:href="#DejaVuSans-4f"/>
      <use x="1283.257812" xlink:href="#DejaVuSans-20"/>
      <use x="1315.044922" xlink:href="#DejaVuSans-78"/>
      <use x="1374.224609" xlink:href="#DejaVuSans-2d"/>
      <use x="1410.277344" xlink:href="#DejaVuSans-76"/>
      <use x="1469.457031" xlink:href="#DejaVuSans-61"/>
      <use x="1530.736328" xlink:href="#DejaVuSans-6c"/>
      <use x="1558.519531" xlink:href="#DejaVuSans-2c"/>
      <use x="1590.306641" xlink:href="#DejaVuSans-20"/>
      <use x="1622.09375" xlink:href="#DejaVuSans-52"/>
      <use x="1691.513672" xlink:href="#DejaVuSans-65"/>
      <use x="1753.037109" xlink:href="#DejaVuSans-73"/>
      <use x="1805.136719" xlink:href="#DejaVuSans-4e"/>
      <use x="1879.941406" xlink:href="#DejaVuSans-65"/>
      <use x="1941.464844" xlink:href="#DejaVuSans-74"/>
      <use x="1980.673828" xlink:href="#DejaVuSans-29"/>
      <use x="2019.6875" xlink:href="#DejaVuSans-2c"/>
      <use x="2051.474609" xlink:href="#DejaVuSans-20"/>
      <use x="2083.261719" xlink:href="#DejaVuSans-41"/>
      <use x="2151.654297" xlink:href="#DejaVuSans-63"/>
      <use x="2206.634766" xlink:href="#DejaVuSans-63"/>
      <use x="2261.615234" xlink:href="#DejaVuSans-3d"/>
      <use x="2345.404297" xlink:href="#DejaVuSans-30"/>
      <use x="2409.027344" xlink:href="#DejaVuSans-2e"/>
      <use x="2440.814453" xlink:href="#DejaVuSans-39"/>
      <use x="2504.4375" xlink:href="#DejaVuSans-30"/>
      <use x="2568.060547" xlink:href="#DejaVuSans-37"/>
     </g>
    </g>
    <g id="patch_71">
     <path d="M 56.675 220.442187 
L 76.675 220.442187 
L 76.675 213.442187 
L 56.675 213.442187 
z
" style="fill:#9467bd;"/>
    </g>
    <g id="text_23">
     <!-- Train: OC+VC, Test: VC (LOPO x-val,ppf), Acc=0.951 -->
     <defs>
      <path d="M 46 62.703125 
L 46 35.5 
L 73.1875 35.5 
L 73.1875 27.203125 
L 46 27.203125 
L 46 0 
L 37.796875 0 
L 37.796875 27.203125 
L 10.59375 27.203125 
L 10.59375 35.5 
L 37.796875 35.5 
L 37.796875 62.703125 
z
" id="DejaVuSans-2b"/>
     </defs>
     <g transform="translate(84.675 220.442187)scale(0.1 -0.1)">
      <use xlink:href="#DejaVuSans-54"/>
      <use x="60.865234" xlink:href="#DejaVuSans-72"/>
      <use x="101.978516" xlink:href="#DejaVuSans-61"/>
      <use x="163.257812" xlink:href="#DejaVuSans-69"/>
      <use x="191.041016" xlink:href="#DejaVuSans-6e"/>
      <use x="254.419922" xlink:href="#DejaVuSans-3a"/>
      <use x="288.111328" xlink:href="#DejaVuSans-20"/>
      <use x="319.898438" xlink:href="#DejaVuSans-4f"/>
      <use x="398.609375" xlink:href="#DejaVuSans-43"/>
      <use x="468.433594" xlink:href="#DejaVuSans-2b"/>
      <use x="552.222656" xlink:href="#DejaVuSans-56"/>
      <use x="620.630859" xlink:href="#DejaVuSans-43"/>
      <use x="690.455078" xlink:href="#DejaVuSans-2c"/>
      <use x="722.242188" xlink:href="#DejaVuSans-20"/>
      <use x="754.029297" xlink:href="#DejaVuSans-54"/>
      <use x="814.847656" xlink:href="#DejaVuSans-65"/>
      <use x="876.371094" xlink:href="#DejaVuSans-73"/>
      <use x="928.470703" xlink:href="#DejaVuSans-74"/>
      <use x="967.679688" xlink:href="#DejaVuSans-3a"/>
      <use x="1001.371094" xlink:href="#DejaVuSans-20"/>
      <use x="1033.158203" xlink:href="#DejaVuSans-56"/>
      <use x="1101.566406" xlink:href="#DejaVuSans-43"/>
      <use x="1171.390625" xlink:href="#DejaVuSans-20"/>
      <use x="1203.177734" xlink:href="#DejaVuSans-28"/>
      <use x="1242.191406" xlink:href="#DejaVuSans-4c"/>
      <use x="1297.857422" xlink:href="#DejaVuSans-4f"/>
      <use x="1376.568359" xlink:href="#DejaVuSans-50"/>
      <use x="1436.871094" xlink:href="#DejaVuSans-4f"/>
      <use x="1515.582031" xlink:href="#DejaVuSans-20"/>
      <use x="1547.369141" xlink:href="#DejaVuSans-78"/>
      <use x="1606.548828" xlink:href="#DejaVuSans-2d"/>
      <use x="1642.601562" xlink:href="#DejaVuSans-76"/>
      <use x="1701.78125" xlink:href="#DejaVuSans-61"/>
      <use x="1763.060547" xlink:href="#DejaVuSans-6c"/>
      <use x="1790.84375" xlink:href="#DejaVuSans-2c"/>
      <use x="1822.630859" xlink:href="#DejaVuSans-70"/>
      <use x="1886.107422" xlink:href="#DejaVuSans-70"/>
      <use x="1949.583984" xlink:href="#DejaVuSans-66"/>
      <use x="1984.789062" xlink:href="#DejaVuSans-29"/>
      <use x="2023.802734" xlink:href="#DejaVuSans-2c"/>
      <use x="2055.589844" xlink:href="#DejaVuSans-20"/>
      <use x="2087.376953" xlink:href="#DejaVuSans-41"/>
      <use x="2155.769531" xlink:href="#DejaVuSans-63"/>
      <use x="2210.75" xlink:href="#DejaVuSans-63"/>
      <use x="2265.730469" xlink:href="#DejaVuSans-3d"/>
      <use x="2349.519531" xlink:href="#DejaVuSans-30"/>
      <use x="2413.142578" xlink:href="#DejaVuSans-2e"/>
      <use x="2444.929688" xlink:href="#DejaVuSans-39"/>
      <use x="2508.552734" xlink:href="#DejaVuSans-35"/>
      <use x="2572.175781" xlink:href="#DejaVuSans-31"/>
     </g>
    </g>
    <g id="patch_72">
     <path d="M 56.675 235.120313 
L 76.675 235.120313 
L 76.675 228.120313 
L 56.675 228.120313 
z
" style="fill:#8c564b;"/>
    </g>
    <g id="text_24">
     <!-- Train: OC+VC, Test: VC (LOPO x-val, ResNet), Acc=0.904 -->
     <g transform="translate(84.675 235.120313)scale(0.1 -0.1)">
      <use xlink:href="#DejaVuSans-54"/>
      <use x="60.865234" xlink:href="#DejaVuSans-72"/>
      <use x="101.978516" xlink:href="#DejaVuSans-61"/>
      <use x="163.257812" xlink:href="#DejaVuSans-69"/>
      <use x="191.041016" xlink:href="#DejaVuSans-6e"/>
      <use x="254.419922" xlink:href="#DejaVuSans-3a"/>
      <use x="288.111328" xlink:href="#DejaVuSans-20"/>
      <use x="319.898438" xlink:href="#DejaVuSans-4f"/>
      <use x="398.609375" xlink:href="#DejaVuSans-43"/>
      <use x="468.433594" xlink:href="#DejaVuSans-2b"/>
      <use x="552.222656" xlink:href="#DejaVuSans-56"/>
      <use x="620.630859" xlink:href="#DejaVuSans-43"/>
      <use x="690.455078" xlink:href="#DejaVuSans-2c"/>
      <use x="722.242188" xlink:href="#DejaVuSans-20"/>
      <use x="754.029297" xlink:href="#DejaVuSans-54"/>
      <use x="814.847656" xlink:href="#DejaVuSans-65"/>
      <use x="876.371094" xlink:href="#DejaVuSans-73"/>
      <use x="928.470703" xlink:href="#DejaVuSans-74"/>
      <use x="967.679688" xlink:href="#DejaVuSans-3a"/>
      <use x="1001.371094" xlink:href="#DejaVuSans-20"/>
      <use x="1033.158203" xlink:href="#DejaVuSans-56"/>
      <use x="1101.566406" xlink:href="#DejaVuSans-43"/>
      <use x="1171.390625" xlink:href="#DejaVuSans-20"/>
      <use x="1203.177734" xlink:href="#DejaVuSans-28"/>
      <use x="1242.191406" xlink:href="#DejaVuSans-4c"/>
      <use x="1297.857422" xlink:href="#DejaVuSans-4f"/>
      <use x="1376.568359" xlink:href="#DejaVuSans-50"/>
      <use x="1436.871094" xlink:href="#DejaVuSans-4f"/>
      <use x="1515.582031" xlink:href="#DejaVuSans-20"/>
      <use x="1547.369141" xlink:href="#DejaVuSans-78"/>
      <use x="1606.548828" xlink:href="#DejaVuSans-2d"/>
      <use x="1642.601562" xlink:href="#DejaVuSans-76"/>
      <use x="1701.78125" xlink:href="#DejaVuSans-61"/>
      <use x="1763.060547" xlink:href="#DejaVuSans-6c"/>
      <use x="1790.84375" xlink:href="#DejaVuSans-2c"/>
      <use x="1822.630859" xlink:href="#DejaVuSans-20"/>
      <use x="1854.417969" xlink:href="#DejaVuSans-52"/>
      <use x="1923.837891" xlink:href="#DejaVuSans-65"/>
      <use x="1985.361328" xlink:href="#DejaVuSans-73"/>
      <use x="2037.460938" xlink:href="#DejaVuSans-4e"/>
      <use x="2112.265625" xlink:href="#DejaVuSans-65"/>
      <use x="2173.789062" xlink:href="#DejaVuSans-74"/>
      <use x="2212.998047" xlink:href="#DejaVuSans-29"/>
      <use x="2252.011719" xlink:href="#DejaVuSans-2c"/>
      <use x="2283.798828" xlink:href="#DejaVuSans-20"/>
      <use x="2315.585938" xlink:href="#DejaVuSans-41"/>
      <use x="2383.978516" xlink:href="#DejaVuSans-63"/>
      <use x="2438.958984" xlink:href="#DejaVuSans-63"/>
      <use x="2493.939453" xlink:href="#DejaVuSans-3d"/>
      <use x="2577.728516" xlink:href="#DejaVuSans-30"/>
      <use x="2641.351562" xlink:href="#DejaVuSans-2e"/>
      <use x="2673.138672" xlink:href="#DejaVuSans-39"/>
      <use x="2736.761719" xlink:href="#DejaVuSans-30"/>
      <use x="2800.384766" xlink:href="#DejaVuSans-34"/>
     </g>
    </g>
   </g>
  </g>
 </g>
 <defs>
  <clipPath id="pc1ee6c1bc8">
   <rect height="231.9" width="658.025" x="47.675" y="14.3"/>
  </clipPath>
 </defs>
</svg>
